<svg id="my-svg" width="100%" xmlns="http://www.w3.org/2000/svg" xmlns:xlink="http://www.w3.org/1999/xlink" class="statediagram" style="max-width: 1219.82px; background-color: white;" viewBox="-8 -8 1219.8232421875 1162" role="graphics-document document" aria-roledescription="stateDiagram"><style>#my-svg{font-family:"trebuchet ms",verdana,arial,sans-serif;font-size:18px;fill:#000000;}#my-svg .error-icon{fill:#552222;}#my-svg .error-text{fill:#552222;stroke:#552222;}#my-svg .edge-thickness-normal{stroke-width:2px;}#my-svg .edge-thickness-thick{stroke-width:3.5px;}#my-svg .edge-pattern-solid{stroke-dasharray:0;}#my-svg .edge-pattern-dashed{stroke-dasharray:3;}#my-svg .edge-pattern-dotted{stroke-dasharray:2;}#my-svg .marker{fill:#1f2937;stroke:#1f2937;}#my-svg .marker.cross{stroke:#1f2937;}#my-svg svg{font-family:"trebuchet ms",verdana,arial,sans-serif;font-size:18px;}#my-svg defs #statediagram-barbEnd{fill:#000;stroke:#000;}#my-svg g.stateGroup text{fill:#999;stroke:none;font-size:10px;}#my-svg g.stateGroup text{fill:#000000;stroke:none;font-size:10px;}#my-svg g.stateGroup .state-title{font-weight:bolder;fill:#111111;}#my-svg g.stateGroup rect{fill:#eee;stroke:#999;}#my-svg g.stateGroup line{stroke:#1f2937;stroke-width:1;}#my-svg .transition{stroke:#000;stroke-width:1;fill:none;}#my-svg .stateGroup .composit{fill:#ffffff;border-bottom:1px;}#my-svg .stateGroup .alt-composit{fill:#e0e0e0;border-bottom:1px;}#my-svg .state-note{stroke:#999;fill:#666;}#my-svg .state-note text{fill:#fff;stroke:none;font-size:10px;}#my-svg .stateLabel .box{stroke:none;stroke-width:0;fill:#eee;opacity:0.5;}#my-svg .edgeLabel .label rect{fill:#eee;opacity:0.5;}#my-svg .edgeLabel .label text{fill:#000000;}#my-svg .label div .edgeLabel{color:#000000;}#my-svg .stateLabel text{fill:#111111;font-size:10px;font-weight:bold;}#my-svg .node circle.state-start{fill:#222;stroke:#222;}#my-svg .node .fork-join{fill:#222;stroke:#222;}#my-svg .node circle.state-end{fill:#1f2937;stroke:#ffffff;stroke-width:1.5;}#my-svg .end-state-inner{fill:#ffffff;stroke-width:1.5;}#my-svg .node rect{fill:#eee;stroke:#000;stroke-width:1px;}#my-svg .node polygon{fill:#eee;stroke:#000;stroke-width:1px;}#my-svg #statediagram-barbEnd{fill:#1f2937;}#my-svg .statediagram-cluster rect{fill:#eee;stroke:#000;stroke-width:1px;}#my-svg .cluster-label,#my-svg .nodeLabel{color:#111111;}#my-svg .statediagram-cluster rect.outer{rx:5px;ry:5px;}#my-svg .statediagram-state .divider{stroke:#000;}#my-svg .statediagram-state .title-state{rx:5px;ry:5px;}#my-svg .statediagram-cluster.statediagram-cluster .inner{fill:#ffffff;}#my-svg .statediagram-cluster.statediagram-cluster-alt .inner{fill:#f4f4f4;}#my-svg .statediagram-cluster .inner{rx:0;ry:0;}#my-svg .statediagram-state rect.basic{rx:5px;ry:5px;}#my-svg .statediagram-state rect.divider{stroke-dasharray:10,10;fill:#f4f4f4;}#my-svg .note-edge{stroke-dasharray:5;}#my-svg .statediagram-note rect{fill:#666;stroke:#999;stroke-width:1px;rx:0;ry:0;}#my-svg .statediagram-note rect{fill:#666;stroke:#999;stroke-width:1px;rx:0;ry:0;}#my-svg .statediagram-note text{fill:#fff;}#my-svg .statediagram-note .nodeLabel{color:#fff;}#my-svg .statediagram .edgeLabel{color:red;}#my-svg #dependencyStart,#my-svg #dependencyEnd{fill:#1f2937;stroke:#1f2937;stroke-width:1;}#my-svg .statediagramTitleText{text-anchor:middle;font-size:18px;fill:#000000;}#my-svg :root{--mermaid-font-family:"trebuchet ms",verdana,arial,sans-serif;}</style><g><defs><marker id="my-svg_statediagram-barbEnd" refX="19" refY="7" markerWidth="20" markerHeight="14" markerUnits="strokeWidth" orient="auto"><path d="M 19,7 L9,13 L14,7 L9,1 Z"/></marker></defs><g class="root"><g class="clusters"/><g class="edgePaths"><path d="M802.357,22L802.357,26.167C802.357,30.333,802.357,38.667,802.357,47C802.357,55.333,802.357,63.667,802.357,67.833L802.357,72" id="edge0" class=" edge-thickness-normal transition" style="fill:none" marker-end="url(#my-svg_statediagram-barbEnd)"/><path d="M802.357,107L802.357,111.167C802.357,115.333,802.357,123.667,802.357,132C802.357,140.333,802.357,148.667,802.357,152.833L802.357,157" id="edge1" class=" edge-thickness-normal transition" style="fill:none" marker-end="url(#my-svg_statediagram-barbEnd)"/><path d="M772.589,192L765.502,196.167C758.414,200.333,744.239,208.667,737.152,217C730.064,225.333,730.064,233.667,730.064,237.833L730.064,242" id="edge2" class=" edge-thickness-normal transition" style="fill:none" marker-end="url(#my-svg_statediagram-barbEnd)"/><path d="M730.064,277L730.064,281.167C730.064,285.333,730.064,293.667,730.064,302C730.064,310.333,730.064,318.667,730.064,322.833L730.064,327" id="edge3" class=" edge-thickness-normal transition" style="fill:none" marker-end="url(#my-svg_statediagram-barbEnd)"/><path d="M673.105,362L659.544,366.167C645.982,370.333,618.859,378.667,605.297,387C591.736,395.333,591.736,403.667,591.736,407.833L591.736,412" id="edge4" class=" edge-thickness-normal transition" style="fill:none" marker-end="url(#my-svg_statediagram-barbEnd)"/><path d="M591.736,447L591.736,451.167C591.736,455.333,591.736,463.667,591.736,472C591.736,480.333,591.736,488.667,591.736,492.833L591.736,497" id="edge5" class=" edge-thickness-normal transition" style="fill:none" marker-end="url(#my-svg_statediagram-barbEnd)"/><path d="M591.736,532L591.736,536.167C591.736,540.333,591.736,548.667,591.736,557C591.736,565.333,591.736,573.667,591.736,577.833L591.736,582" id="edge6" class=" edge-thickness-normal transition" style="fill:none" marker-end="url(#my-svg_statediagram-barbEnd)"/><path d="M506.46,617L486.156,621.167C465.853,625.333,425.245,633.667,404.941,642C384.637,650.333,384.637,658.667,384.637,662.833L384.637,667" id="edge7" class=" edge-thickness-normal transition" style="fill:none" marker-end="url(#my-svg_statediagram-barbEnd)"/><path d="M310.446,702L285.715,707.833C260.985,713.667,211.524,725.333,186.793,737C162.063,748.667,162.063,760.333,162.063,766.167L162.063,772" id="edge8" class=" edge-thickness-normal transition" style="fill:none" marker-end="url(#my-svg_statediagram-barbEnd)"/><path d="M142.055,807L135.385,812.833C128.716,818.667,115.378,830.333,108.708,842C102.039,853.667,102.039,865.333,102.039,871.167L102.039,877" id="edge9" class=" edge-thickness-normal transition" style="fill:none" marker-end="url(#my-svg_statediagram-barbEnd)"/><path d="M102.039,912L102.039,916.167C102.039,920.333,102.039,928.667,102.039,937C102.039,945.333,102.039,953.667,102.039,957.833L102.039,962" id="edge10" class=" edge-thickness-normal transition" style="fill:none" marker-end="url(#my-svg_statediagram-barbEnd)"/><path d="M102.039,997L102.039,1001.167C102.039,1005.333,102.039,1013.667,102.039,1022C102.039,1030.333,102.039,1038.667,102.039,1042.833L102.039,1047" id="edge11" class=" edge-thickness-normal transition" style="fill:none" marker-end="url(#my-svg_statediagram-barbEnd)"/><path d="M102.039,1082L102.039,1086.167C102.039,1090.333,102.039,1098.667,152.193,1108.046C202.348,1117.425,302.656,1127.851,352.81,1133.064L402.965,1138.276" id="edge12" class=" edge-thickness-normal transition" style="fill:none" marker-end="url(#my-svg_statediagram-barbEnd)"/><path d="M376.221,702L373.415,707.833C370.609,713.667,364.998,725.333,374.363,737C383.728,748.667,408.07,760.333,420.24,766.167L432.411,772" id="edge13" class=" edge-thickness-normal transition" style="fill:none" marker-end="url(#my-svg_statediagram-barbEnd)"/><path d="M488.602,772L495.161,766.167C501.721,760.333,514.84,748.667,505.474,737C496.109,725.333,464.26,713.667,448.336,707.833L432.411,702" id="edge14" class=" edge-thickness-normal transition" style="fill:none" marker-end="url(#my-svg_statediagram-barbEnd)"/><path d="M468.923,807L468.923,812.833C468.923,818.667,468.923,830.333,505.777,843.173C542.631,856.013,616.338,870.026,653.192,877.033L690.046,884.039" id="edge15" class=" edge-thickness-normal transition" style="fill:none" marker-end="url(#my-svg_statediagram-barbEnd)"/><path d="M745.069,912L745.069,916.167C745.069,920.333,745.069,928.667,745.069,939.917C745.069,951.167,745.069,965.333,745.069,979.5C745.069,993.667,745.069,1007.833,745.069,1022C745.069,1036.167,745.069,1050.333,745.069,1064.5C745.069,1078.667,745.069,1092.833,690.374,1105.139C635.678,1117.445,526.287,1127.89,471.591,1133.112L416.896,1138.335" id="edge16" class=" edge-thickness-normal transition" style="fill:none" marker-end="url(#my-svg_statediagram-barbEnd)"/><path d="M893.412,187.191L929.056,192.159C964.7,197.128,1035.988,207.064,1071.632,219.115C1107.276,231.167,1107.276,245.333,1107.276,259.5C1107.276,273.667,1107.276,287.833,1107.276,302C1107.276,316.167,1107.276,330.333,1107.276,344.5C1107.276,358.667,1107.276,372.833,1107.276,387C1107.276,401.167,1107.276,415.333,1107.276,429.5C1107.276,443.667,1107.276,457.833,1107.276,472C1107.276,486.167,1107.276,500.333,1107.276,514.5C1107.276,528.667,1107.276,542.833,1107.276,557C1107.276,571.167,1107.276,585.333,1107.276,599.5C1107.276,613.667,1107.276,627.833,1107.276,642C1107.276,656.167,1107.276,670.333,1107.276,686.167C1107.276,702,1107.276,719.5,1107.276,737C1107.276,754.5,1107.276,772,1107.276,789.5C1107.276,807,1107.276,824.5,1056.079,840.671C1004.882,856.842,902.487,871.683,851.29,879.104L800.093,886.525" id="edge17" class=" edge-thickness-normal transition" style="fill:none" marker-end="url(#my-svg_statediagram-barbEnd)"/><path d="M804.603,358.118L830.951,362.932C857.299,367.745,909.995,377.373,936.343,389.27C962.69,401.167,962.69,415.333,962.69,429.5C962.69,443.667,962.69,457.833,962.69,472C962.69,486.167,962.69,500.333,962.69,514.5C962.69,528.667,962.69,542.833,962.69,557C962.69,571.167,962.69,585.333,962.69,599.5C962.69,613.667,962.69,627.833,962.69,642C962.69,656.167,962.69,670.333,962.69,686.167C962.69,702,962.69,719.5,962.69,737C962.69,754.5,962.69,772,962.69,789.5C962.69,807,962.69,824.5,935.591,839.788C908.491,855.075,854.292,868.151,827.192,874.688L800.093,881.226" id="edge18" class=" edge-thickness-normal transition" style="fill:none" marker-end="url(#my-svg_statediagram-barbEnd)"/><path d="M654.873,617L669.906,621.167C684.939,625.333,715.004,633.667,730.037,644.917C745.069,656.167,745.069,670.333,745.069,686.167C745.069,702,745.069,719.5,745.069,737C745.069,754.5,745.069,772,745.069,789.5C745.069,807,745.069,824.5,745.069,839.083C745.069,853.667,745.069,865.333,745.069,871.167L745.069,877" id="edge19" class=" edge-thickness-normal transition" style="fill:none" marker-end="url(#my-svg_statediagram-barbEnd)"/><path d="M182.07,807L188.74,812.833C195.409,818.667,208.747,830.333,293.41,843.996C378.073,857.659,534.059,873.318,612.053,881.147L690.046,888.976" id="edge20" class=" edge-thickness-normal transition" style="fill:none" marker-end="url(#my-svg_statediagram-barbEnd)"/></g><g class="edgeLabels"><g class="edgeLabel"><g class="label" transform="translate(0, 0)"><rect rx="0" ry="0" width="0" height="0"/><text style=""><tspan xml:space="preserve" dy="1em" x="0" class="row"/></text></g></g><g class="edgeLabel"><g class="label" transform="translate(0, 0)"><rect rx="0" ry="0" width="0" height="0"/><text style=""><tspan xml:space="preserve" dy="1em" x="0" class="row"/></text></g></g><g class="edgeLabel"><g class="label" transform="translate(0, 0)"><rect rx="0" ry="0" width="0" height="0"/><text style=""><tspan xml:space="preserve" dy="1em" x="0" class="row"/></text></g></g><g class="edgeLabel"><g class="label" transform="translate(0, 0)"><rect rx="0" ry="0" width="0" height="0"/><text style=""><tspan xml:space="preserve" dy="1em" x="0" class="row"/></text></g></g><g class="edgeLabel"><g class="label" transform="translate(0, 0)"><rect rx="0" ry="0" width="0" height="0"/><text style=""><tspan xml:space="preserve" dy="1em" x="0" class="row"/></text></g></g><g class="edgeLabel"><g class="label" transform="translate(0, 0)"><rect rx="0" ry="0" width="0" height="0"/><text style=""><tspan xml:space="preserve" dy="1em" x="0" class="row"/></text></g></g><g class="edgeLabel"><g class="label" transform="translate(0, 0)"><rect rx="0" ry="0" width="0" height="0"/><text style=""><tspan xml:space="preserve" dy="1em" x="0" class="row"/></text></g></g><g class="edgeLabel"><g class="label" transform="translate(0, 0)"><rect rx="0" ry="0" width="0" height="0"/><text style=""><tspan xml:space="preserve" dy="1em" x="0" class="row"/></text></g></g><g class="edgeLabel"><g class="label" transform="translate(0, 0)"><rect rx="0" ry="0" width="0" height="0"/><text style=""><tspan xml:space="preserve" dy="1em" x="0" class="row"/></text></g></g><g class="edgeLabel"><g class="label" transform="translate(0, 0)"><rect rx="0" ry="0" width="0" height="0"/><text style=""><tspan xml:space="preserve" dy="1em" x="0" class="row"/></text></g></g><g class="edgeLabel"><g class="label" transform="translate(0, 0)"><rect rx="0" ry="0" width="0" height="0"/><text style=""><tspan xml:space="preserve" dy="1em" x="0" class="row"/></text></g></g><g class="edgeLabel"><g class="label" transform="translate(0, 0)"><rect rx="0" ry="0" width="0" height="0"/><text style=""><tspan xml:space="preserve" dy="1em" x="0" class="row"/></text></g></g><g class="edgeLabel"><g class="label" transform="translate(0, 0)"><rect rx="0" ry="0" width="0" height="0"/><text style=""><tspan xml:space="preserve" dy="1em" x="0" class="row"/></text></g></g><g class="edgeLabel" transform="translate(359.38671875, 737)"><g class="label" transform="translate(-90.046875, -10)"><rect rx="0" ry="0" width="179.93992614746094" height="20.000268936157227"/><text style=""><tspan xml:space="preserve" dy="1em" x="0" class="row">transient http/k8s error</tspan></text></g></g><g class="edgeLabel" transform="translate(527.95849609375, 737)"><g class="label" transform="translate(-58.52490234375, -10)"><rect rx="0" ry="0" width="116.95504760742188" height="20.000268936157227"/><text style=""><tspan xml:space="preserve" dy="1em" x="0" class="row">retry decorator</tspan></text></g></g><g class="edgeLabel" transform="translate(468.92333984375, 842)"><g class="label" transform="translate(-44.5078125, -10)"><rect rx="0" ry="0" width="88.9543228149414" height="20.000268936157227"/><text style=""><tspan xml:space="preserve" dy="1em" x="0" class="row">max retries</tspan></text></g></g><g class="edgeLabel"><g class="label" transform="translate(0, 0)"><rect rx="0" ry="0" width="0" height="0"/><text style=""><tspan xml:space="preserve" dy="1em" x="0" class="row"/></text></g></g><g class="edgeLabel" transform="translate(1107.2763671875, 514.5)"><g class="label" transform="translate(-96.546875, -10)"><rect rx="0" ry="0" width="192.92539978027344" height="20.000268936157227"/><text style=""><tspan xml:space="preserve" dy="1em" x="0" class="row">invalid manifest contract</tspan></text></g></g><g class="edgeLabel" transform="translate(962.6904296875, 599.5)"><g class="label" transform="translate(-124.5859375, -10)"><rect rx="0" ry="0" width="248.95648193359375" height="20.000268936157227"/><text style=""><tspan xml:space="preserve" dy="1em" x="0" class="row">missing or unbound technology</tspan></text></g></g><g class="edgeLabel" transform="translate(745.0693359375, 737)"><g class="label" transform="translate(-138.5859375, -10)"><rect rx="0" ry="0" width="276.94122314453125" height="20.000268936157227"/><text style=""><tspan xml:space="preserve" dy="1em" x="0" class="row">missing required operation handler</tspan></text></g></g><g class="edgeLabel" transform="translate(222.0859375, 842)"><g class="label" transform="translate(-100.046875, -10)"><rect rx="0" ry="0" width="199.924560546875" height="20.000268936157227"/><text style=""><tspan xml:space="preserve" dy="1em" x="0" class="row">invalid media-server plan</tspan></text></g></g></g><g class="nodes"><g class="node default" id="state-root_start-0" data-node="true" data-id="root_start" transform="translate(802.35693359375, 15)"><circle class="state-start" r="7" width="14" height="14"/></g><g class="node  statediagram-state undefined" id="state-ParseConfig-1" data-node="true" data-id="ParseConfig" transform="translate(802.35693359375, 89.5)"><rect class="basic label-container" style="" x="-57.03125" y="-17.5" width="114.0625" height="35"/><g class="label" style="" transform="translate(-49.53125, -10)"><rect/><text style=""><tspan xml:space="preserve" dy="1em" x="0" class="row">ParseConfig</tspan></text></g></g><g class="node  statediagram-state undefined" id="state-LoadPluginManifests-17" data-node="true" data-id="LoadPluginManifests" transform="translate(802.35693359375, 174.5)"><rect class="basic label-container" style="" x="-91.0546875" y="-17.5" width="182.109375" height="35"/><g class="label" style="" transform="translate(-83.5546875, -10)"><rect/><text style=""><tspan xml:space="preserve" dy="1em" x="0" class="row">LoadPluginManifests</tspan></text></g></g><g class="node  statediagram-state undefined" id="state-MergeHookDefaults-3" data-node="true" data-id="MergeHookDefaults" transform="translate(730.06396484375, 259.5)"><rect class="basic label-container" style="" x="-87.0390625" y="-17.5" width="174.078125" height="35"/><g class="label" style="" transform="translate(-79.5390625, -10)"><rect/><text style=""><tspan xml:space="preserve" dy="1em" x="0" class="row">MergeHookDefaults</tspan></text></g></g><g class="node  statediagram-state undefined" id="state-ResolveBindings-18" data-node="true" data-id="ResolveBindings" transform="translate(730.06396484375, 344.5)"><rect class="basic label-container" style="" x="-74.5390625" y="-17.5" width="149.078125" height="35"/><g class="label" style="" transform="translate(-67.0390625, -10)"><rect/><text style=""><tspan xml:space="preserve" dy="1em" x="0" class="row">ResolveBindings</tspan></text></g></g><g class="node  statediagram-state undefined" id="state-BuildRuntime-5" data-node="true" data-id="BuildRuntime" transform="translate(591.73583984375, 429.5)"><rect class="basic label-container" style="" x="-61.03125" y="-17.5" width="122.0625" height="35"/><g class="label" style="" transform="translate(-53.53125, -10)"><rect/><text style=""><tspan xml:space="preserve" dy="1em" x="0" class="row">BuildRuntime</tspan></text></g></g><g class="node  statediagram-state undefined" id="state-RunPrecheckPlan-6" data-node="true" data-id="RunPrecheckPlan" transform="translate(591.73583984375, 514.5)"><rect class="basic label-container" style="" x="-79.546875" y="-17.5" width="159.09375" height="35"/><g class="label" style="" transform="translate(-72.046875, -10)"><rect/><text style=""><tspan xml:space="preserve" dy="1em" x="0" class="row">RunPrecheckPlan</tspan></text></g></g><g class="node  statediagram-state undefined" id="state-RunDownloadClientPhases-19" data-node="true" data-id="RunDownloadClientPhases" transform="translate(591.73583984375, 599.5)"><rect class="basic label-container" style="" x="-117.0703125" y="-17.5" width="234.140625" height="35"/><g class="label" style="" transform="translate(-109.5703125, -10)"><rect/><text style=""><tspan xml:space="preserve" dy="1em" x="0" class="row">RunDownloadClientPhases</tspan></text></g></g><g class="node  statediagram-state undefined" id="state-RunServarrPhases-14" data-node="true" data-id="RunServarrPhases" transform="translate(384.637451171875, 684.5)"><rect class="basic label-container" style="" x="-83.5390625" y="-17.5" width="167.078125" height="35"/><g class="label" style="" transform="translate(-76.0390625, -10)"><rect/><text style=""><tspan xml:space="preserve" dy="1em" x="0" class="row">RunServarrPhases</tspan></text></g></g><g class="node  statediagram-state undefined" id="state-RunMediaServerPlan-20" data-node="true" data-id="RunMediaServerPlan" transform="translate(162.0625, 789.5)"><rect class="basic label-container" style="" x="-93.046875" y="-17.5" width="186.09375" height="35"/><g class="label" style="" transform="translate(-85.546875, -10)"><rect/><text style=""><tspan xml:space="preserve" dy="1em" x="0" class="row">RunMediaServerPlan</tspan></text></g></g><g class="node  statediagram-state undefined" id="state-RunPostServarrPlans-10" data-node="true" data-id="RunPostServarrPlans" transform="translate(102.0390625, 894.5)"><rect class="basic label-container" style="" x="-94.0390625" y="-17.5" width="188.078125" height="35"/><g class="label" style="" transform="translate(-86.5390625, -10)"><rect/><text style=""><tspan xml:space="preserve" dy="1em" x="0" class="row">RunPostServarrPlans</tspan></text></g></g><g class="node  statediagram-state undefined" id="state-RunIndexerPipeline-11" data-node="true" data-id="RunIndexerPipeline" transform="translate(102.0390625, 979.5)"><rect class="basic label-container" style="" x="-86.0546875" y="-17.5" width="172.109375" height="35"/><g class="label" style="" transform="translate(-78.5546875, -10)"><rect/><text style=""><tspan xml:space="preserve" dy="1em" x="0" class="row">RunIndexerPipeline</tspan></text></g></g><g class="node  statediagram-state undefined" id="state-RunStatusPhase-12" data-node="true" data-id="RunStatusPhase" transform="translate(102.0390625, 1064.5)"><rect class="basic label-container" style="" x="-75.046875" y="-17.5" width="150.09375" height="35"/><g class="label" style="" transform="translate(-67.546875, -10)"><rect/><text style=""><tspan xml:space="preserve" dy="1em" x="0" class="row">RunStatusPhase</tspan></text></g></g><g class="node default" id="state-root_end-16" data-node="true" data-id="root_end" transform="translate(409.92724609375, 1139)"><circle class="state-start" r="7" width="14" height="14"/><circle class="state-end" r="5" width="10" height="10"/></g><g class="node  statediagram-state undefined" id="state-RetryableFailure-15" data-node="true" data-id="RetryableFailure" transform="translate(468.92333984375, 789.5)"><rect class="basic label-container" style="" x="-73.53125" y="-17.5" width="147.0625" height="35"/><g class="label" style="" transform="translate(-66.03125, -10)"><rect/><text style=""><tspan xml:space="preserve" dy="1em" x="0" class="row">RetryableFailure</tspan></text></g></g><g class="node  statediagram-state undefined" id="state-FatalFailure-20" data-node="true" data-id="FatalFailure" transform="translate(745.0693359375, 894.5)"><rect class="basic label-container" style="" x="-55.0234375" y="-17.5" width="110.046875" height="35"/><g class="label" style="" transform="translate(-47.5234375, -10)"><rect/><text style=""><tspan xml:space="preserve" dy="1em" x="0" class="row">FatalFailure</tspan></text></g></g></g></g></g></svg>