<svg id="my-svg" width="100%" xmlns="http://www.w3.org/2000/svg" xmlns:xlink="http://www.w3.org/1999/xlink" class="statediagram" style="max-width: 1626.72px; background-color: white;" viewBox="-8 -8 1626.718994140625 1609" role="graphics-document document" aria-roledescription="stateDiagram"><style>#my-svg{font-family:"trebuchet ms",verdana,arial,sans-serif;font-size:18px;fill:#000000;}#my-svg .error-icon{fill:#552222;}#my-svg .error-text{fill:#552222;stroke:#552222;}#my-svg .edge-thickness-normal{stroke-width:2px;}#my-svg .edge-thickness-thick{stroke-width:3.5px;}#my-svg .edge-pattern-solid{stroke-dasharray:0;}#my-svg .edge-pattern-dashed{stroke-dasharray:3;}#my-svg .edge-pattern-dotted{stroke-dasharray:2;}#my-svg .marker{fill:#1f2937;stroke:#1f2937;}#my-svg .marker.cross{stroke:#1f2937;}#my-svg svg{font-family:"trebuchet ms",verdana,arial,sans-serif;font-size:18px;}#my-svg defs #statediagram-barbEnd{fill:#000;stroke:#000;}#my-svg g.stateGroup text{fill:#999;stroke:none;font-size:10px;}#my-svg g.stateGroup text{fill:#000000;stroke:none;font-size:10px;}#my-svg g.stateGroup .state-title{font-weight:bolder;fill:#111111;}#my-svg g.stateGroup rect{fill:#eee;stroke:#999;}#my-svg g.stateGroup line{stroke:#1f2937;stroke-width:1;}#my-svg .transition{stroke:#000;stroke-width:1;fill:none;}#my-svg .stateGroup .composit{fill:#ffffff;border-bottom:1px;}#my-svg .stateGroup .alt-composit{fill:#e0e0e0;border-bottom:1px;}#my-svg .state-note{stroke:#999;fill:#666;}#my-svg .state-note text{fill:#fff;stroke:none;font-size:10px;}#my-svg .stateLabel .box{stroke:none;stroke-width:0;fill:#eee;opacity:0.5;}#my-svg .edgeLabel .label rect{fill:#eee;opacity:0.5;}#my-svg .edgeLabel .label text{fill:#000000;}#my-svg .label div .edgeLabel{color:#000000;}#my-svg .stateLabel text{fill:#111111;font-size:10px;font-weight:bold;}#my-svg .node circle.state-start{fill:#222;stroke:#222;}#my-svg .node .fork-join{fill:#222;stroke:#222;}#my-svg .node circle.state-end{fill:#1f2937;stroke:#ffffff;stroke-width:1.5;}#my-svg .end-state-inner{fill:#ffffff;stroke-width:1.5;}#my-svg .node rect{fill:#eee;stroke:#000;stroke-width:1px;}#my-svg .node polygon{fill:#eee;stroke:#000;stroke-width:1px;}#my-svg #statediagram-barbEnd{fill:#1f2937;}#my-svg .statediagram-cluster rect{fill:#eee;stroke:#000;stroke-width:1px;}#my-svg .cluster-label,#my-svg .nodeLabel{color:#111111;}#my-svg .statediagram-cluster rect.outer{rx:5px;ry:5px;}#my-svg .statediagram-state .divider{stroke:#000;}#my-svg .statediagram-state .title-state{rx:5px;ry:5px;}#my-svg .statediagram-cluster.statediagram-cluster .inner{fill:#ffffff;}#my-svg .statediagram-cluster.statediagram-cluster-alt .inner{fill:#f4f4f4;}#my-svg .statediagram-cluster .inner{rx:0;ry:0;}#my-svg .statediagram-state rect.basic{rx:5px;ry:5px;}#my-svg .statediagram-state rect.divider{stroke-dasharray:10,10;fill:#f4f4f4;}#my-svg .note-edge{stroke-dasharray:5;}#my-svg .statediagram-note rect{fill:#666;stroke:#999;stroke-width:1px;rx:0;ry:0;}#my-svg .statediagram-note rect{fill:#666;stroke:#999;stroke-width:1px;rx:0;ry:0;}#my-svg .statediagram-note text{fill:#fff;}#my-svg .statediagram-note .nodeLabel{color:#fff;}#my-svg .statediagram .edgeLabel{color:red;}#my-svg #dependencyStart,#my-svg #dependencyEnd{fill:#1f2937;stroke:#1f2937;stroke-width:1;}#my-svg .statediagramTitleText{text-anchor:middle;font-size:18px;fill:#000000;}#my-svg :root{--mermaid-font-family:"trebuchet ms",verdana,arial,sans-serif;}</style><g><defs><marker id="my-svg_statediagram-barbEnd" refX="19" refY="7" markerWidth="20" markerHeight="14" markerUnits="strokeWidth" orient="auto"><path d="M 19,7 L9,13 L14,7 L9,1 Z"/></marker></defs><g class="root"><g class="clusters"><g class="note-cluster" id="RunAction----parent"><rect x="202.578125" y="282" width="1360.21875" height="1121" fill="none"/></g></g><g class="edgePaths"><path d="M896.648,22L896.648,26.167C896.648,30.333,896.648,38.667,896.648,47C896.648,55.333,896.648,63.667,896.648,67.833L896.648,72" id="edge0" class=" edge-thickness-normal transition" style="fill:none" marker-end="url(#my-svg_statediagram-barbEnd)"/><path d="M988.68,104.455L1027.187,110.713C1065.694,116.97,1142.708,129.485,1181.216,141.576C1219.723,153.667,1219.723,165.333,1219.723,171.167L1219.723,177" id="edge1" class=" edge-thickness-normal transition" style="fill:none" marker-end="url(#my-svg_statediagram-barbEnd)"/><path d="M1275.977,1568.557L1331.767,1562.631C1387.557,1556.705,1499.138,1544.852,1554.928,1531.843C1610.719,1518.833,1610.719,1504.667,1610.719,1488.833C1610.719,1473,1610.719,1455.5,1610.719,1440.917C1610.719,1426.333,1610.719,1414.667,1610.719,1397.25C1610.719,1379.833,1610.719,1356.667,1610.719,1331.833C1610.719,1307,1610.719,1280.5,1610.719,1185.417C1610.719,1090.333,1610.719,926.667,1610.719,764.667C1610.719,602.667,1610.719,442.333,1610.719,356.333C1610.719,270.333,1610.719,258.667,1556.166,245.508C1501.613,232.35,1392.508,217.7,1337.955,210.375L1283.402,203.05" id="edge23" class=" edge-thickness-normal transition" style="fill:none" marker-end="url(#my-svg_statediagram-barbEnd)"/><path d="M94.047,1351L94.047,1359.667C94.047,1368.333,94.047,1385.667,94.047,1400.167C94.047,1414.667,94.047,1426.333,94.047,1438C94.047,1449.667,94.047,1461.333,94.047,1467.167L94.047,1473" id="edge26" class=" edge-thickness-normal transition" style="fill:none" marker-end="url(#my-svg_statediagram-barbEnd)"/><path d="M94.047,1508L94.047,1512.167C94.047,1516.333,94.047,1524.667,269.249,1535.502C444.451,1546.337,794.854,1559.675,970.056,1566.344L1145.258,1573.012" id="edge27" class=" edge-thickness-normal transition" style="fill:none" marker-end="url(#my-svg_statediagram-barbEnd)"/><path d="M804.617,100.806L748.727,107.671C692.837,114.537,581.057,128.269,525.167,143.884C469.277,159.5,469.277,177,469.277,194.5C469.277,212,469.277,229.5,469.277,244.083C469.277,258.667,469.277,270.333,472.979,280.333C476.682,290.333,484.086,298.667,487.788,302.833L491.49,307" id="edge2" class=" edge-thickness-normal transition" style="fill:none" marker-end="url(#my-svg_statediagram-barbEnd)"/><path d="M1156.043,204.848L1112.811,211.873C1069.578,218.899,983.113,232.949,939.881,245.808C896.648,258.667,896.648,270.333,896.648,280.333C896.648,290.333,896.648,298.667,896.648,302.833L896.648,307" id="edge3" class=" edge-thickness-normal transition" style="fill:none" marker-end="url(#my-svg_statediagram-barbEnd)"/><path d="M1254.546,307L1257.817,302.833C1261.087,298.667,1267.627,290.333,1270.898,280.333C1274.168,270.333,1274.168,258.667,1268.118,247C1262.069,235.333,1249.97,223.667,1243.921,217.833L1237.871,212" id="edge4" class=" edge-thickness-normal transition" style="fill:none" marker-end="url(#my-svg_statediagram-barbEnd)"/><path d="M1269.844,1219L1274.618,1224.833C1279.392,1230.667,1288.94,1242.333,1293.714,1261.417C1298.488,1280.5,1298.488,1307,1298.488,1331.833C1298.488,1356.667,1298.488,1379.833,1298.488,1397.25C1298.488,1414.667,1298.488,1426.333,1298.488,1440.917C1298.488,1455.5,1298.488,1473,1298.488,1488.833C1298.488,1504.667,1298.488,1518.833,1289.873,1530.083C1281.259,1541.333,1264.029,1549.667,1255.414,1553.833L1246.799,1558" id="edge22" class=" edge-thickness-normal transition" style="fill:none" marker-end="url(#my-svg_statediagram-barbEnd)"/><path d="M527.926,1219L523.209,1224.833C518.492,1230.667,509.059,1242.333,449.001,1259.014C388.943,1275.696,278.26,1297.391,222.919,1308.239L167.578,1319.087" id="edge24" class=" edge-thickness-normal transition" style="fill:none" marker-end="url(#my-svg_statediagram-barbEnd)"/><path d="M167.578,1324.562L264.328,1312.802C361.078,1301.041,554.578,1277.521,653.093,1259.927C751.608,1242.333,755.138,1230.667,756.904,1224.833L758.669,1219" id="edge25" class=" edge-thickness-normal transition" style="fill:none" marker-end="url(#my-svg_statediagram-barbEnd)"/><path d="M1054.766,1219L1056.789,1224.833C1058.812,1230.667,1062.857,1242.333,1064.88,1254C1066.902,1265.667,1066.902,1277.333,1066.902,1283.167L1066.902,1289" class=" edge-thickness-normal transition note-edge" style="fill:none"/></g><g class="edgeLabels"><g class="edgeLabel"><g class="label" transform="translate(0, 0)"><rect rx="0" ry="0" width="0" height="0"/><text style=""><tspan xml:space="preserve" dy="1em" x="0" class="row"/></text></g></g><g class="edgeLabel" transform="translate(1219.72265625, 142)"><g class="label" transform="translate(-148.40625, -10)"><rect rx="0" ry="0" width="296.5653991699219" height="20.000194549560547"/><text style=""><tspan xml:space="preserve" dy="1em" x="0" class="row">serve mode (HTTP API on port 9100)</tspan></text></g></g><g class="edgeLabel"><g class="label" transform="translate(0, 0)"><rect rx="0" ry="0" width="0" height="0"/><text style=""><tspan xml:space="preserve" dy="1em" x="0" class="row"/></text></g></g><g class="edgeLabel" transform="translate(94.046875, 1438)"><g class="label" transform="translate(-86.046875, -10)"><rect rx="0" ry="0" width="171.93917846679688" height="20.000194549560547"/><text style=""><tspan xml:space="preserve" dy="1em" x="0" class="row">max retries exceeded</tspan></text></g></g><g class="edgeLabel"><g class="label" transform="translate(0, 0)"><rect rx="0" ry="0" width="0" height="0"/><text style=""><tspan xml:space="preserve" dy="1em" x="0" class="row"/></text></g></g><g class="edgeLabel" transform="translate(469.27734375, 194.5)"><g class="label" transform="translate(-129.9140625, -10)"><rect rx="0" ry="0" width="259.5962829589844" height="20.000194549560547"/><text style=""><tspan xml:space="preserve" dy="1em" x="0" class="row">auto-run / POST /actions/{name}</tspan></text></g></g><g class="edgeLabel" transform="translate(896.6484375, 247)"><g class="label" transform="translate(-88.890625, -10)"><rect rx="0" ry="0" width="177.62673950195312" height="20.000194549560547"/><text style=""><tspan xml:space="preserve" dy="1em" x="0" class="row">POST /actions/{name}</tspan></text></g></g><g class="edgeLabel"><g class="label" transform="translate(0, 0)"><rect rx="0" ry="0" width="0" height="0"/><text style=""><tspan xml:space="preserve" dy="1em" x="0" class="row"/></text></g></g><g class="edgeLabel" transform="translate(1298.48828125, 1438)"><g class="label" transform="translate(-94.0546875, -10)"><rect rx="0" ry="0" width="187.9549560546875" height="20.000194549560547"/><text style=""><tspan xml:space="preserve" dy="1em" x="0" class="row">post-action notifications</tspan></text></g></g><g class="edgeLabel" transform="translate(499.625, 1254)"><g class="label" transform="translate(-100.5546875, -10)"><rect rx="0" ry="0" width="200.941162109375" height="20.000194549560547"/><text style=""><tspan xml:space="preserve" dy="1em" x="0" class="row">transient http / kube error</tspan></text></g></g><g class="edgeLabel" transform="translate(748.078125, 1254)"><g class="label" transform="translate(-127.8984375, -10)"><rect rx="0" ry="0" width="255.58062744140625" height="20.000194549560547"/><text style=""><tspan xml:space="preserve" dy="1em" x="0" class="row">retry decorator (capped backoff)</tspan></text></g></g><g class="edgeLabel"><g class="label" transform="translate(0, 0)"><rect rx="0" ry="0" width="0" height="0"/><text style=""><tspan xml:space="preserve" dy="1em" x="0" class="row"/></text></g></g></g><g class="nodes"><g class="node default" id="state-root_start-0" data-node="true" data-id="root_start" transform="translate(896.6484375, 15)"><circle class="state-start" r="7" width="14" height="14"/></g><g class="node  statediagram-state undefined" id="state-StartControllerServer-2" data-node="true" data-id="StartControllerServer" transform="translate(896.6484375, 89.5)"><rect class="basic label-container" style="" x="-92.03173828125" y="-17.5" width="184.0634765625" height="35"/><g class="label" style="" transform="translate(-84.53173828125, -10)"><rect/><text style=""><tspan xml:space="preserve" dy="1em" x="0" class="row">StartControllerServer</tspan></text></g></g><g class="node  statediagram-state undefined" id="state-WaitForAction-23" data-node="true" data-id="WaitForAction" transform="translate(1219.72265625, 194.5)"><rect class="basic label-container" style="" x="-63.6796875" y="-17.5" width="127.359375" height="35"/><g class="label" style="" transform="translate(-56.1796875, -10)"><rect/><text style=""><tspan xml:space="preserve" dy="1em" x="0" class="row">WaitForAction</tspan></text></g></g><g class="root" transform="translate(258, 299)"><g class="clusters"><g class=" statediagram-state statediagram-cluster " id="RunAction"><rect class="outer" x="8" y="8" width="1254.296875" height="904"/><g class="cluster-label" transform="translate(593.6171875, 6)"><text style=""><tspan xml:space="preserve" dy="1em" x="0" class="row">RunAction</tspan></text></g><rect class="inner" x="8" y="27" width="1254.296875" height="881"/></g></g><g class="edgePaths"><path d="M728.395,47L728.395,51.167C728.395,55.333,728.395,63.667,728.395,72C728.395,80.333,728.395,88.667,728.395,92.833L728.395,97" id="edge5" class=" edge-thickness-normal transition" style="fill:none" marker-end="url(#my-svg_statediagram-barbEnd)"/><path d="M663.363,121.946L597.779,129.455C532.195,136.964,401.027,151.982,335.443,165.324C269.859,178.667,269.859,190.333,269.859,196.167L269.859,202" id="edge6" class=" edge-thickness-normal transition" style="fill:none" marker-end="url(#my-svg_statediagram-barbEnd)"/><path d="M738.484,132L741.848,137.833C745.211,143.667,751.938,155.333,755.301,167C758.664,178.667,758.664,190.333,758.664,196.167L758.664,202" id="edge7" class=" edge-thickness-normal transition" style="fill:none" marker-end="url(#my-svg_statediagram-barbEnd)"/><path d="M793.426,123.371L846.731,130.643C900.036,137.914,1006.647,152.457,1059.952,165.562C1113.258,178.667,1113.258,190.333,1113.258,196.167L1113.258,202" id="edge8" class=" edge-thickness-normal transition" style="fill:none" marker-end="url(#my-svg_statediagram-barbEnd)"/><path d="M218.006,237L205.66,241.167C193.314,245.333,168.622,253.667,252.612,303.75C336.602,353.833,529.275,445.667,625.611,491.583L721.948,537.5" id="edge18" class=" edge-thickness-normal transition" style="fill:none" marker-end="url(#my-svg_statediagram-barbEnd)"/><path d="M701.633,236.654L687.588,240.878C673.543,245.102,645.453,253.551,653.552,303.692C661.65,353.833,705.937,445.667,728.081,491.583L750.225,537.5" id="edge19" class=" edge-thickness-normal transition" style="fill:none" marker-end="url(#my-svg_statediagram-barbEnd)"/><path d="M1113.258,237L1113.258,241.167C1113.258,245.333,1113.258,253.667,1057.689,303.75C1002.119,353.833,890.981,445.667,835.412,491.583L779.843,537.5" id="edge20" class=" edge-thickness-normal transition" style="fill:none" marker-end="url(#my-svg_statediagram-barbEnd)"/><path d="M758.664,572.5L758.664,618.417C758.664,664.333,758.664,756.167,758.664,806.25C758.664,856.333,758.664,864.667,758.664,868.833L758.664,873" id="edge21" class=" edge-thickness-normal transition" style="fill:none" marker-end="url(#my-svg_statediagram-barbEnd)"/><path d="M273.977,237L274.957,241.167C275.938,245.333,277.899,253.667,278.879,262C279.859,270.333,279.859,278.667,279.859,282.833L279.859,287" id="edge9" class=" edge-thickness-normal transition" style="fill:none" marker-end="url(#my-svg_statediagram-barbEnd)"/><path d="M815.695,235.287L831.779,239.739C847.863,244.191,880.031,253.096,911.181,286.298C942.33,319.5,972.46,377,987.526,405.75L1002.591,434.5" id="edge10" class=" edge-thickness-normal transition" style="fill:none" marker-end="url(#my-svg_statediagram-barbEnd)"/></g><g class="edgeLabels"><g class="edgeLabel"><g class="label" transform="translate(0, 0)"><rect rx="0" ry="0" width="0" height="0"/><text style=""><tspan xml:space="preserve" dy="1em" x="0" class="row"/></text></g></g><g class="edgeLabel" transform="translate(269.859375, 167)"><g class="label" transform="translate(-44.03125, -10)"><rect rx="0" ry="0" width="87.98523712158203" height="20.000194549560547"/><text style=""><tspan xml:space="preserve" dy="1em" x="0" class="row">core action</tspan></text></g></g><g class="edgeLabel" transform="translate(758.6640625, 167)"><g class="label" transform="translate(-205.5546875, -10)"><rect rx="0" ry="0" width="410.7540283203125" height="20.000194549560547"/><text style=""><tspan xml:space="preserve" dy="1em" x="0" class="row">KNOWN_ACTIONS job (discovered from contracts)</tspan></text></g></g><g class="edgeLabel" transform="translate(1113.2578125, 167)"><g class="label" transform="translate(-129.0390625, -10)"><rect rx="0" ry="0" width="257.8619079589844" height="20.000194549560547"/><text style=""><tspan xml:space="preserve" dy="1em" x="0" class="row">name not in KNOWN_ACTIONS</tspan></text></g></g><g class="edgeLabel"><g class="label" transform="translate(0, 0)"><rect rx="0" ry="0" width="0" height="0"/><text style=""><tspan xml:space="preserve" dy="1em" x="0" class="row"/></text></g></g><g class="edgeLabel"><g class="label" transform="translate(0, 0)"><rect rx="0" ry="0" width="0" height="0"/><text style=""><tspan xml:space="preserve" dy="1em" x="0" class="row"/></text></g></g><g class="edgeLabel"><g class="label" transform="translate(0, 0)"><rect rx="0" ry="0" width="0" height="0"/><text style=""><tspan xml:space="preserve" dy="1em" x="0" class="row"/></text></g></g><g class="edgeLabel"><g class="label" transform="translate(0, 0)"><rect rx="0" ry="0" width="0" height="0"/><text style=""><tspan xml:space="preserve" dy="1em" x="0" class="row"/></text></g></g><g class="edgeLabel"><g class="label" transform="translate(0, 0)"><rect rx="0" ry="0" width="0" height="0"/><text style=""><tspan xml:space="preserve" dy="1em" x="0" class="row"/></text></g></g><g class="edgeLabel"><g class="label" transform="translate(0, 0)"><rect rx="0" ry="0" width="0" height="0"/><text style=""><tspan xml:space="preserve" dy="1em" x="0" class="row"/></text></g></g></g><g class="nodes"><g class="node default" id="state-RunAction_start-5" data-node="true" data-id="RunAction_start" transform="translate(728.39453125, 40)"><circle class="state-start" r="7" width="14" height="14"/></g><g class="node  statediagram-state undefined" id="state-ResolveAction-8" data-node="true" data-id="ResolveAction" transform="translate(728.39453125, 114.5)"><rect class="basic label-container" style="" x="-65.03125" y="-17.5" width="130.0625" height="35"/><g class="label" style="" transform="translate(-57.53125, -10)"><rect/><text style=""><tspan xml:space="preserve" dy="1em" x="0" class="row">ResolveAction</tspan></text></g></g><g class="node  statediagram-state undefined" id="state-DispatchCore-18" data-node="true" data-id="DispatchCore" transform="translate(269.859375, 219.5)"><rect class="basic label-container" style="" x="-62.0234375" y="-17.5" width="124.046875" height="35"/><g class="label" style="" transform="translate(-54.5234375, -10)"><rect/><text style=""><tspan xml:space="preserve" dy="1em" x="0" class="row">DispatchCore</tspan></text></g></g><g class="node  statediagram-state undefined" id="state-DispatchJob-19" data-node="true" data-id="DispatchJob" transform="translate(758.6640625, 219.5)"><rect class="basic label-container" style="" x="-57.03125" y="-17.5" width="114.0625" height="35"/><g class="label" style="" transform="translate(-49.53125, -10)"><rect/><text style=""><tspan xml:space="preserve" dy="1em" x="0" class="row">DispatchJob</tspan></text></g></g><g class="node  statediagram-state undefined" id="state-Rejected-20" data-node="true" data-id="Rejected" transform="translate(1113.2578125, 219.5)"><rect class="basic label-container" style="" x="-43.0234375" y="-17.5" width="86.046875" height="35"/><g class="label" style="" transform="translate(-35.5234375, -10)"><rect/><text style=""><tspan xml:space="preserve" dy="1em" x="0" class="row">Rejected</tspan></text></g></g><g class="node  statediagram-state undefined" id="state-ActionComplete-21" data-node="true" data-id="ActionComplete" transform="translate(758.6640625, 555)"><rect class="basic label-container" style="" x="-71.0390625" y="-17.5" width="142.078125" height="35"/><g class="label" style="" transform="translate(-63.5390625, -10)"><rect/><text style=""><tspan xml:space="preserve" dy="1em" x="0" class="row">ActionComplete</tspan></text></g></g><g class="node default" id="state-RunAction_end-21" data-node="true" data-id="RunAction_end" transform="translate(758.6640625, 880)"><circle class="state-start" r="7" width="14" height="14"/><circle class="state-end" r="5" width="10" height="10"/></g><g class="root" transform="translate(35.5, 279)"><g class="clusters"><g class=" statediagram-state statediagram-cluster statediagram-cluster-alt" id="RunJobGraph"><rect class="outer" x="8" y="8" width="465.71875" height="528"/><g class="cluster-label" transform="translate(184.8203125, 6)"><text style=""><tspan xml:space="preserve" dy="1em" x="0" class="row">RunJobGraph</tspan></text></g><rect class="inner" x="8" y="27" width="465.71875" height="505"/></g></g><g class="edgePaths"><path d="M240.859,47L240.859,51.167C240.859,55.333,240.859,63.667,240.859,72C240.859,80.333,240.859,88.667,240.859,92.833L240.859,97" id="edge11" class=" edge-thickness-normal transition" style="fill:none" marker-end="url(#my-svg_statediagram-barbEnd)"/><path d="M240.859,132L240.859,136.167C240.859,140.333,240.859,148.667,240.859,157C240.859,165.333,240.859,173.667,240.859,177.833L240.859,182" id="edge12" class=" edge-thickness-normal transition" style="fill:none" marker-end="url(#my-svg_statediagram-barbEnd)"/><path d="M240.859,217L240.859,222.833C240.859,228.667,240.859,240.333,240.859,252C240.859,263.667,240.859,275.333,240.859,281.167L240.859,287" id="edge13" class=" edge-thickness-normal transition" style="fill:none" marker-end="url(#my-svg_statediagram-barbEnd)"/><path d="M240.859,322L240.859,327.833C240.859,333.667,240.859,345.333,240.859,357C240.859,368.667,240.859,380.333,240.859,386.167L240.859,392" id="edge14" class=" edge-thickness-normal transition" style="fill:none" marker-end="url(#my-svg_statediagram-barbEnd)"/><path d="M240.859,427L240.859,432.833C240.859,438.667,240.859,450.333,240.859,462C240.859,473.667,240.859,485.333,240.859,491.167L240.859,497" id="edge15" class=" edge-thickness-normal transition" style="fill:none" marker-end="url(#my-svg_statediagram-barbEnd)"/></g><g class="edgeLabels"><g class="edgeLabel"><g class="label" transform="translate(0, 0)"><rect rx="0" ry="0" width="0" height="0"/><text style=""><tspan xml:space="preserve" dy="1em" x="0" class="row"/></text></g></g><g class="edgeLabel"><g class="label" transform="translate(0, 0)"><rect rx="0" ry="0" width="0" height="0"/><text style=""><tspan xml:space="preserve" dy="1em" x="0" class="row"/></text></g></g><g class="edgeLabel" transform="translate(240.859375, 252)"><g class="label" transform="translate(-212.859375, -10)"><rect rx="0" ry="0" width="425.363525390625" height="20.000194549560547"/><text style=""><tspan xml:space="preserve" dy="1em" x="0" class="row">depends_on graph (per-service yaml + cross_cutting)</tspan></text></g></g><g class="edgeLabel" transform="translate(240.859375, 357)"><g class="label" transform="translate(-179.609375, -10)"><rect rx="0" ry="0" width="358.9097595214844" height="20.000194549560547"/><text style=""><tspan xml:space="preserve" dy="1em" x="0" class="row">probe then ensure (LifecycleHandlerAdapter)</tspan></text></g></g><g class="edgeLabel" transform="translate(240.859375, 462)"><g class="label" transform="translate(-189.09375, -10)"><rect rx="0" ry="0" width="377.8630676269531" height="20.000194549560547"/><text style=""><tspan xml:space="preserve" dy="1em" x="0" class="row">64 promises (49 agnostic / 14 k8s / 1 compose)</tspan></text></g></g></g><g class="nodes"><g class="node default" id="state-RunJobGraph_start-11" data-node="true" data-id="RunJobGraph_start" transform="translate(240.859375, 40)"><circle class="state-start" r="7" width="14" height="14"/></g><g class="node  statediagram-state undefined" id="state-LoadProfile-12" data-node="true" data-id="LoadProfile" transform="translate(240.859375, 114.5)"><rect class="basic label-container" style="" x="-53.0390625" y="-17.5" width="106.078125" height="35"/><g class="label" style="" transform="translate(-45.5390625, -10)"><rect/><text style=""><tspan xml:space="preserve" dy="1em" x="0" class="row">LoadProfile</tspan></text></g></g><g class="node  statediagram-state undefined" id="state-ResolveBindings-13" data-node="true" data-id="ResolveBindings" transform="translate(240.859375, 199.5)"><rect class="basic label-container" style="" x="-74.5390625" y="-17.5" width="149.078125" height="35"/><g class="label" style="" transform="translate(-67.0390625, -10)"><rect/><text style=""><tspan xml:space="preserve" dy="1em" x="0" class="row">ResolveBindings</tspan></text></g></g><g class="node  statediagram-state undefined" id="state-BuildPlan-14" data-node="true" data-id="BuildPlan" transform="translate(240.859375, 304.5)"><rect class="basic label-container" style="" x="-45.53125" y="-17.5" width="91.0625" height="35"/><g class="label" style="" transform="translate(-38.03125, -10)"><rect/><text style=""><tspan xml:space="preserve" dy="1em" x="0" class="row">BuildPlan</tspan></text></g></g><g class="node  statediagram-state undefined" id="state-RunPromises-15" data-node="true" data-id="RunPromises" transform="translate(240.859375, 409.5)"><rect class="basic label-container" style="" x="-61.5234375" y="-17.5" width="123.046875" height="35"/><g class="label" style="" transform="translate(-54.0234375, -10)"><rect/><text style=""><tspan xml:space="preserve" dy="1em" x="0" class="row">RunPromises</tspan></text></g></g><g class="node default" id="state-RunJobGraph_end-15" data-node="true" data-id="RunJobGraph_end" transform="translate(240.859375, 504)"><circle class="state-start" r="7" width="14" height="14"/><circle class="state-end" r="5" width="10" height="10"/></g></g></g><g class="root" transform="translate(896.671875, 426.5)"><g class="clusters"><g class=" statediagram-state statediagram-cluster statediagram-cluster-alt" id="RunJob"><rect class="outer" x="8" y="8" width="315.125" height="233"/><g class="cluster-label" transform="translate(134.5390625, 6)"><text style=""><tspan xml:space="preserve" dy="1em" x="0" class="row">RunJob</tspan></text></g><rect class="inner" x="8" y="27" width="315.125" height="210"/></g></g><g class="edgePaths"><path d="M165.563,47L165.563,51.167C165.563,55.333,165.563,63.667,165.563,72C165.563,80.333,165.563,88.667,165.563,92.833L165.563,97" id="edge16" class=" edge-thickness-normal transition" style="fill:none" marker-end="url(#my-svg_statediagram-barbEnd)"/><path d="M165.563,132L165.563,137.833C165.563,143.667,165.563,155.333,165.563,167C165.563,178.667,165.563,190.333,165.563,196.167L165.563,202" id="edge17" class=" edge-thickness-normal transition" style="fill:none" marker-end="url(#my-svg_statediagram-barbEnd)"/></g><g class="edgeLabels"><g class="edgeLabel"><g class="label" transform="translate(0, 0)"><rect rx="0" ry="0" width="0" height="0"/><text style=""><tspan xml:space="preserve" dy="1em" x="0" class="row"/></text></g></g><g class="edgeLabel" transform="translate(165.5625, 167)"><g class="label" transform="translate(-137.5625, -10)"><rect rx="0" ry="0" width="274.893310546875" height="20.000194549560547"/><text style=""><tspan xml:space="preserve" dy="1em" x="0" class="row">probe / ensure / verify (ADR-0007)</tspan></text></g></g></g><g class="nodes"><g class="node default" id="state-RunJob_start-16" data-node="true" data-id="RunJob_start" transform="translate(165.5625, 40)"><circle class="state-start" r="7" width="14" height="14"/></g><g class="node  statediagram-state undefined" id="state-ExecuteJobLifecycle-17" data-node="true" data-id="ExecuteJobLifecycle" transform="translate(165.5625, 114.5)"><rect class="basic label-container" style="" x="-89.546875" y="-17.5" width="179.09375" height="35"/><g class="label" style="" transform="translate(-82.046875, -10)"><rect/><text style=""><tspan xml:space="preserve" dy="1em" x="0" class="row">ExecuteJobLifecycle</tspan></text></g></g><g class="node default" id="state-RunJob_end-17" data-node="true" data-id="RunJob_end" transform="translate(165.5625, 209)"><circle class="state-start" r="7" width="14" height="14"/><circle class="state-end" r="5" width="10" height="10"/></g></g></g></g></g><g class="node  statediagram-state undefined" id="state-FireWebhooks-27" data-node="true" data-id="FireWebhooks" transform="translate(1210.6171875, 1575.5)"><rect class="basic label-container" style="" x="-65.359375" y="-17.5" width="130.71875" height="35"/><g class="label" style="" transform="translate(-57.859375, -10)"><rect/><text style=""><tspan xml:space="preserve" dy="1em" x="0" class="row">FireWebhooks</tspan></text></g></g><g class="node  statediagram-state undefined" id="state-RetryableFailure-26" data-node="true" data-id="RetryableFailure" transform="translate(94.046875, 1333.5)"><rect class="basic label-container" style="" x="-73.53125" y="-17.5" width="147.0625" height="35"/><g class="label" style="" transform="translate(-66.03125, -10)"><rect/><text style=""><tspan xml:space="preserve" dy="1em" x="0" class="row">RetryableFailure</tspan></text></g></g><g class="node  statediagram-state undefined" id="state-FatalFailure-27" data-node="true" data-id="FatalFailure" transform="translate(94.046875, 1490.5)"><rect class="basic label-container" style="" x="-55.0234375" y="-17.5" width="110.046875" height="35"/><g class="label" style="" transform="translate(-47.5234375, -10)"><rect/><text style=""><tspan xml:space="preserve" dy="1em" x="0" class="row">FatalFailure</tspan></text></g></g><g class="node statediagram-note" id="state-RunAction----note-28" data-node="true" data-id="RunAction----note-28" transform="translate(1066.90234375, 1333.5)"><rect x="-196.5859375" y="-44.5" width="393.171875" height="89"/><g class="label" style="" transform="translate(-189.0859375, -37)"><rect/><text style=""><tspan xml:space="preserve" dy="1em" x="0" class="row">Source of truth for action names is</tspan><tspan xml:space="preserve" dy="1em" x="0" class="row">KNOWN_ACTIONS in</tspan><tspan xml:space="preserve" dy="1em" x="0" class="row">src/media_stack/api/services/known_actions.py</tspan><tspan xml:space="preserve" dy="1em" x="0" class="row">(core actions + jobs + aliases from contracts).</tspan></text></g></g></g></g></g></svg>