<svg id="my-svg" width="100%" xmlns="http://www.w3.org/2000/svg" xmlns:xlink="http://www.w3.org/1999/xlink" class="statediagram" style="max-width: 787.429px; background-color: white;" viewBox="-8 -8 787.4287109375 992" role="graphics-document document" aria-roledescription="stateDiagram"><style>#my-svg{font-family:"trebuchet ms",verdana,arial,sans-serif;font-size:18px;fill:#000000;}#my-svg .error-icon{fill:#552222;}#my-svg .error-text{fill:#552222;stroke:#552222;}#my-svg .edge-thickness-normal{stroke-width:2px;}#my-svg .edge-thickness-thick{stroke-width:3.5px;}#my-svg .edge-pattern-solid{stroke-dasharray:0;}#my-svg .edge-pattern-dashed{stroke-dasharray:3;}#my-svg .edge-pattern-dotted{stroke-dasharray:2;}#my-svg .marker{fill:#1f2937;stroke:#1f2937;}#my-svg .marker.cross{stroke:#1f2937;}#my-svg svg{font-family:"trebuchet ms",verdana,arial,sans-serif;font-size:18px;}#my-svg defs #statediagram-barbEnd{fill:#000;stroke:#000;}#my-svg g.stateGroup text{fill:#999;stroke:none;font-size:10px;}#my-svg g.stateGroup text{fill:#000000;stroke:none;font-size:10px;}#my-svg g.stateGroup .state-title{font-weight:bolder;fill:#111111;}#my-svg g.stateGroup rect{fill:#eee;stroke:#999;}#my-svg g.stateGroup line{stroke:#1f2937;stroke-width:1;}#my-svg .transition{stroke:#000;stroke-width:1;fill:none;}#my-svg .stateGroup .composit{fill:#ffffff;border-bottom:1px;}#my-svg .stateGroup .alt-composit{fill:#e0e0e0;border-bottom:1px;}#my-svg .state-note{stroke:#999;fill:#666;}#my-svg .state-note text{fill:#fff;stroke:none;font-size:10px;}#my-svg .stateLabel .box{stroke:none;stroke-width:0;fill:#eee;opacity:0.5;}#my-svg .edgeLabel .label rect{fill:#eee;opacity:0.5;}#my-svg .edgeLabel .label text{fill:#000000;}#my-svg .label div .edgeLabel{color:#000000;}#my-svg .stateLabel text{fill:#111111;font-size:10px;font-weight:bold;}#my-svg .node circle.state-start{fill:#222;stroke:#222;}#my-svg .node .fork-join{fill:#222;stroke:#222;}#my-svg .node circle.state-end{fill:#1f2937;stroke:#ffffff;stroke-width:1.5;}#my-svg .end-state-inner{fill:#ffffff;stroke-width:1.5;}#my-svg .node rect{fill:#eee;stroke:#000;stroke-width:1px;}#my-svg .node polygon{fill:#eee;stroke:#000;stroke-width:1px;}#my-svg #statediagram-barbEnd{fill:#1f2937;}#my-svg .statediagram-cluster rect{fill:#eee;stroke:#000;stroke-width:1px;}#my-svg .cluster-label,#my-svg .nodeLabel{color:#111111;}#my-svg .statediagram-cluster rect.outer{rx:5px;ry:5px;}#my-svg .statediagram-state .divider{stroke:#000;}#my-svg .statediagram-state .title-state{rx:5px;ry:5px;}#my-svg .statediagram-cluster.statediagram-cluster .inner{fill:#ffffff;}#my-svg .statediagram-cluster.statediagram-cluster-alt .inner{fill:#f4f4f4;}#my-svg .statediagram-cluster .inner{rx:0;ry:0;}#my-svg .statediagram-state rect.basic{rx:5px;ry:5px;}#my-svg .statediagram-state rect.divider{stroke-dasharray:10,10;fill:#f4f4f4;}#my-svg .note-edge{stroke-dasharray:5;}#my-svg .statediagram-note rect{fill:#666;stroke:#999;stroke-width:1px;rx:0;ry:0;}#my-svg .statediagram-note rect{fill:#666;stroke:#999;stroke-width:1px;rx:0;ry:0;}#my-svg .statediagram-note text{fill:#fff;}#my-svg .statediagram-note .nodeLabel{color:#fff;}#my-svg .statediagram .edgeLabel{color:red;}#my-svg #dependencyStart,#my-svg #dependencyEnd{fill:#1f2937;stroke:#1f2937;stroke-width:1;}#my-svg .statediagramTitleText{text-anchor:middle;font-size:18px;fill:#000000;}#my-svg :root{--mermaid-font-family:"trebuchet ms",verdana,arial,sans-serif;}</style><g><defs><marker id="my-svg_statediagram-barbEnd" refX="19" refY="7" markerWidth="20" markerHeight="14" markerUnits="strokeWidth" orient="auto"><path d="M 19,7 L9,13 L14,7 L9,1 Z"/></marker></defs><g class="root"><g class="clusters"/><g class="edgePaths"><path d="M545.271,22L545.271,26.167C545.271,30.333,545.271,38.667,545.271,47C545.271,55.333,545.271,63.667,545.271,67.833L545.271,72" id="edge0" class=" edge-thickness-normal transition" style="fill:none" marker-end="url(#my-svg_statediagram-barbEnd)"/><path d="M545.271,107L545.271,111.167C545.271,115.333,545.271,123.667,545.271,132C545.271,140.333,545.271,148.667,545.271,152.833L545.271,157" id="edge1" class=" edge-thickness-normal transition" style="fill:none" marker-end="url(#my-svg_statediagram-barbEnd)"/><path d="M545.271,192L545.271,196.167C545.271,200.333,545.271,208.667,545.271,217C545.271,225.333,545.271,233.667,545.271,237.833L545.271,242" id="edge2" class=" edge-thickness-normal transition" style="fill:none" marker-end="url(#my-svg_statediagram-barbEnd)"/><path d="M545.271,277L545.271,281.167C545.271,285.333,545.271,293.667,545.271,302C545.271,310.333,545.271,318.667,545.271,322.833L545.271,327" id="edge3" class=" edge-thickness-normal transition" style="fill:none" marker-end="url(#my-svg_statediagram-barbEnd)"/><path d="M545.271,362L545.271,366.167C545.271,370.333,545.271,378.667,545.271,387C545.271,395.333,545.271,403.667,545.271,407.833L545.271,412" id="edge4" class=" edge-thickness-normal transition" style="fill:none" marker-end="url(#my-svg_statediagram-barbEnd)"/><path d="M476.885,447L460.603,451.167C444.321,455.333,411.756,463.667,395.474,472C379.191,480.333,379.191,488.667,379.191,492.833L379.191,497" id="edge5" class=" edge-thickness-normal transition" style="fill:none" marker-end="url(#my-svg_statediagram-barbEnd)"/><path d="M309.168,530.356L282.196,536.463C255.224,542.57,201.28,554.785,174.308,566.726C147.336,578.667,147.336,590.333,147.336,596.167L147.336,602" id="edge6" class=" edge-thickness-normal transition" style="fill:none" marker-end="url(#my-svg_statediagram-barbEnd)"/><path d="M125.737,637L118.537,642.833C111.338,648.667,96.938,660.333,89.739,672C82.539,683.667,82.539,695.333,82.539,701.167L82.539,707" id="edge7" class=" edge-thickness-normal transition" style="fill:none" marker-end="url(#my-svg_statediagram-barbEnd)"/><path d="M82.539,742L82.539,746.167C82.539,750.333,82.539,758.667,82.539,767C82.539,775.333,82.539,783.667,82.539,787.833L82.539,792" id="edge8" class=" edge-thickness-normal transition" style="fill:none" marker-end="url(#my-svg_statediagram-barbEnd)"/><path d="M82.539,827L82.539,831.167C82.539,835.333,82.539,843.667,82.539,852C82.539,860.333,82.539,868.667,82.539,872.833L82.539,877" id="edge9" class=" edge-thickness-normal transition" style="fill:none" marker-end="url(#my-svg_statediagram-barbEnd)"/><path d="M82.539,912L82.539,916.167C82.539,920.333,82.539,928.667,115.404,937.986C148.269,947.305,214,957.611,246.865,962.763L279.73,967.916" id="edge10" class=" edge-thickness-normal transition" style="fill:none" marker-end="url(#my-svg_statediagram-barbEnd)"/><path d="M370.863,532L368.087,537.833C365.311,543.667,359.759,555.333,369.124,567C378.489,578.667,402.772,590.333,414.913,596.167L427.054,602" id="edge11" class=" edge-thickness-normal transition" style="fill:none" marker-end="url(#my-svg_statediagram-barbEnd)"/><path d="M483.244,602L489.834,596.167C496.423,590.333,509.601,578.667,500.236,567C490.87,555.333,458.962,543.667,443.008,537.833L427.054,532" id="edge12" class=" edge-thickness-normal transition" style="fill:none" marker-end="url(#my-svg_statediagram-barbEnd)"/><path d="M463.477,637L463.477,642.833C463.477,648.667,463.477,660.333,460.701,672C457.925,683.667,452.373,695.333,449.597,701.167L446.821,707" id="edge13" class=" edge-thickness-normal transition" style="fill:none" marker-end="url(#my-svg_statediagram-barbEnd)"/><path d="M438.493,742L438.493,746.167C438.493,750.333,438.493,758.667,438.493,769.917C438.493,781.167,438.493,795.333,438.493,809.5C438.493,823.667,438.493,837.833,438.493,852C438.493,866.167,438.493,880.333,438.493,894.5C438.493,908.667,438.493,922.833,414.327,935.009C390.16,947.186,341.828,957.371,317.661,962.464L293.495,967.557" id="edge14" class=" edge-thickness-normal transition" style="fill:none" marker-end="url(#my-svg_statediagram-barbEnd)"/><path d="M603.369,447L617.202,451.167C631.035,455.333,658.7,463.667,672.533,474.917C686.366,486.167,686.366,500.333,686.366,516.167C686.366,532,686.366,549.5,686.366,567C686.366,584.5,686.366,602,686.366,619.5C686.366,637,686.366,654.5,654.225,670.058C622.083,685.615,557.8,699.231,525.658,706.038L493.516,712.846" id="edge15" class=" edge-thickness-normal transition" style="fill:none" marker-end="url(#my-svg_statediagram-barbEnd)"/><path d="M168.935,637L176.135,642.833C183.334,648.667,197.734,660.333,233.489,672.79C269.245,685.246,326.357,698.492,354.913,705.115L383.469,711.738" id="edge16" class=" edge-thickness-normal transition" style="fill:none" marker-end="url(#my-svg_statediagram-barbEnd)"/></g><g class="edgeLabels"><g class="edgeLabel"><g class="label" transform="translate(0, 0)"><rect rx="0" ry="0" width="0" height="0"/><text style=""><tspan xml:space="preserve" dy="1em" x="0" class="row"/></text></g></g><g class="edgeLabel"><g class="label" transform="translate(0, 0)"><rect rx="0" ry="0" width="0" height="0"/><text style=""><tspan xml:space="preserve" dy="1em" x="0" class="row"/></text></g></g><g class="edgeLabel"><g class="label" transform="translate(0, 0)"><rect rx="0" ry="0" width="0" height="0"/><text style=""><tspan xml:space="preserve" dy="1em" x="0" class="row"/></text></g></g><g class="edgeLabel"><g class="label" transform="translate(0, 0)"><rect rx="0" ry="0" width="0" height="0"/><text style=""><tspan xml:space="preserve" dy="1em" x="0" class="row"/></text></g></g><g class="edgeLabel"><g class="label" transform="translate(0, 0)"><rect rx="0" ry="0" width="0" height="0"/><text style=""><tspan xml:space="preserve" dy="1em" x="0" class="row"/></text></g></g><g class="edgeLabel"><g class="label" transform="translate(0, 0)"><rect rx="0" ry="0" width="0" height="0"/><text style=""><tspan xml:space="preserve" dy="1em" x="0" class="row"/></text></g></g><g class="edgeLabel"><g class="label" transform="translate(0, 0)"><rect rx="0" ry="0" width="0" height="0"/><text style=""><tspan xml:space="preserve" dy="1em" x="0" class="row"/></text></g></g><g class="edgeLabel"><g class="label" transform="translate(0, 0)"><rect rx="0" ry="0" width="0" height="0"/><text style=""><tspan xml:space="preserve" dy="1em" x="0" class="row"/></text></g></g><g class="edgeLabel"><g class="label" transform="translate(0, 0)"><rect rx="0" ry="0" width="0" height="0"/><text style=""><tspan xml:space="preserve" dy="1em" x="0" class="row"/></text></g></g><g class="edgeLabel"><g class="label" transform="translate(0, 0)"><rect rx="0" ry="0" width="0" height="0"/><text style=""><tspan xml:space="preserve" dy="1em" x="0" class="row"/></text></g></g><g class="edgeLabel"><g class="label" transform="translate(0, 0)"><rect rx="0" ry="0" width="0" height="0"/><text style=""><tspan xml:space="preserve" dy="1em" x="0" class="row"/></text></g></g><g class="edgeLabel" transform="translate(354.20703125, 567)"><g class="label" transform="translate(-90.046875, -10)"><rect rx="0" ry="0" width="179.94033813476562" height="20.000314712524414"/><text style=""><tspan xml:space="preserve" dy="1em" x="0" class="row">transient http/k8s error</tspan></text></g></g><g class="edgeLabel" transform="translate(522.77880859375, 567)"><g class="label" transform="translate(-58.52490234375, -10)"><rect rx="0" ry="0" width="116.95531463623047" height="20.000314712524414"/><text style=""><tspan xml:space="preserve" dy="1em" x="0" class="row">retry decorator</tspan></text></g></g><g class="edgeLabel" transform="translate(463.477294921875, 672)"><g class="label" transform="translate(-44.5078125, -10)"><rect rx="0" ry="0" width="88.95452117919922" height="20.000314712524414"/><text style=""><tspan xml:space="preserve" dy="1em" x="0" class="row">max retries</tspan></text></g></g><g class="edgeLabel"><g class="label" transform="translate(0, 0)"><rect rx="0" ry="0" width="0" height="0"/><text style=""><tspan xml:space="preserve" dy="1em" x="0" class="row"/></text></g></g><g class="edgeLabel" transform="translate(686.3662109375, 567)"><g class="label" transform="translate(-85.0625, -10)"><rect rx="0" ry="0" width="169.97142028808594" height="20.000314712524414"/><text style=""><tspan xml:space="preserve" dy="1em" x="0" class="row">invalid adapter config</tspan></text></g></g><g class="edgeLabel" transform="translate(212.1328125, 672)"><g class="label" transform="translate(-109.59375, -10)"><rect rx="0" ry="0" width="218.98782348632812" height="20.000314712524414"/><text style=""><tspan xml:space="preserve" dy="1em" x="0" class="row">unsupported operation plan</tspan></text></g></g></g><g class="nodes"><g class="node default" id="state-root_start-0" data-node="true" data-id="root_start" transform="translate(545.27099609375, 15)"><circle class="state-start" r="7" width="14" height="14"/></g><g class="node  statediagram-state undefined" id="state-ParseConfig-1" data-node="true" data-id="ParseConfig" transform="translate(545.27099609375, 89.5)"><rect class="basic label-container" style="" x="-57.03125" y="-17.5" width="114.0625" height="35"/><g class="label" style="" transform="translate(-49.53125, -10)"><rect/><text style=""><tspan xml:space="preserve" dy="1em" x="0" class="row">ParseConfig</tspan></text></g></g><g class="node  statediagram-state undefined" id="state-ResolveBindings-2" data-node="true" data-id="ResolveBindings" transform="translate(545.27099609375, 174.5)"><rect class="basic label-container" style="" x="-74.5390625" y="-17.5" width="149.078125" height="35"/><g class="label" style="" transform="translate(-67.0390625, -10)"><rect/><text style=""><tspan xml:space="preserve" dy="1em" x="0" class="row">ResolveBindings</tspan></text></g></g><g class="node  statediagram-state undefined" id="state-BuildRuntime-3" data-node="true" data-id="BuildRuntime" transform="translate(545.27099609375, 259.5)"><rect class="basic label-container" style="" x="-61.03125" y="-17.5" width="122.0625" height="35"/><g class="label" style="" transform="translate(-53.53125, -10)"><rect/><text style=""><tspan xml:space="preserve" dy="1em" x="0" class="row">BuildRuntime</tspan></text></g></g><g class="node  statediagram-state undefined" id="state-RunCommonOps-4" data-node="true" data-id="RunCommonOps" transform="translate(545.27099609375, 344.5)"><rect class="basic label-container" style="" x="-77.03125" y="-17.5" width="154.0625" height="35"/><g class="label" style="" transform="translate(-69.53125, -10)"><rect/><text style=""><tspan xml:space="preserve" dy="1em" x="0" class="row">RunCommonOps</tspan></text></g></g><g class="node  statediagram-state undefined" id="state-RunDownloadClientOps-15" data-node="true" data-id="RunDownloadClientOps" transform="translate(545.27099609375, 429.5)"><rect class="basic label-container" style="" x="-103.5546875" y="-17.5" width="207.109375" height="35"/><g class="label" style="" transform="translate(-96.0546875, -10)"><rect/><text style=""><tspan xml:space="preserve" dy="1em" x="0" class="row">RunDownloadClientOps</tspan></text></g></g><g class="node  statediagram-state undefined" id="state-RunServarrOps-12" data-node="true" data-id="RunServarrOps" transform="translate(379.19140625, 514.5)"><rect class="basic label-container" style="" x="-70.0234375" y="-17.5" width="140.046875" height="35"/><g class="label" style="" transform="translate(-62.5234375, -10)"><rect/><text style=""><tspan xml:space="preserve" dy="1em" x="0" class="row">RunServarrOps</tspan></text></g></g><g class="node  statediagram-state undefined" id="state-RunMediaServerOps-16" data-node="true" data-id="RunMediaServerOps" transform="translate(147.3359375, 619.5)"><rect class="basic label-container" style="" x="-91.5390625" y="-17.5" width="183.078125" height="35"/><g class="label" style="" transform="translate(-84.0390625, -10)"><rect/><text style=""><tspan xml:space="preserve" dy="1em" x="0" class="row">RunMediaServerOps</tspan></text></g></g><g class="node  statediagram-state undefined" id="state-RunAppServices-8" data-node="true" data-id="RunAppServices" transform="translate(82.5390625, 724.5)"><rect class="basic label-container" style="" x="-74.5390625" y="-17.5" width="149.078125" height="35"/><g class="label" style="" transform="translate(-67.0390625, -10)"><rect/><text style=""><tspan xml:space="preserve" dy="1em" x="0" class="row">RunAppServices</tspan></text></g></g><g class="node  statediagram-state undefined" id="state-RunHygiene-9" data-node="true" data-id="RunHygiene" transform="translate(82.5390625, 809.5)"><rect class="basic label-container" style="" x="-57.03125" y="-17.5" width="114.0625" height="35"/><g class="label" style="" transform="translate(-49.53125, -10)"><rect/><text style=""><tspan xml:space="preserve" dy="1em" x="0" class="row">RunHygiene</tspan></text></g></g><g class="node  statediagram-state undefined" id="state-VerifyHealth-10" data-node="true" data-id="VerifyHealth" transform="translate(82.5390625, 894.5)"><rect class="basic label-container" style="" x="-56.03125" y="-17.5" width="112.0625" height="35"/><g class="label" style="" transform="translate(-48.53125, -10)"><rect/><text style=""><tspan xml:space="preserve" dy="1em" x="0" class="row">VerifyHealth</tspan></text></g></g><g class="node default" id="state-root_end-14" data-node="true" data-id="root_end" transform="translate(286.645263671875, 969)"><circle class="state-start" r="7" width="14" height="14"/><circle class="state-end" r="5" width="10" height="10"/></g><g class="node  statediagram-state undefined" id="state-RetryableFailure-13" data-node="true" data-id="RetryableFailure" transform="translate(463.477294921875, 619.5)"><rect class="basic label-container" style="" x="-73.53125" y="-17.5" width="147.0625" height="35"/><g class="label" style="" transform="translate(-66.03125, -10)"><rect/><text style=""><tspan xml:space="preserve" dy="1em" x="0" class="row">RetryableFailure</tspan></text></g></g><g class="node  statediagram-state undefined" id="state-FatalFailure-16" data-node="true" data-id="FatalFailure" transform="translate(438.492919921875, 724.5)"><rect class="basic label-container" style="" x="-55.0234375" y="-17.5" width="110.046875" height="35"/><g class="label" style="" transform="translate(-47.5234375, -10)"><rect/><text style=""><tspan xml:space="preserve" dy="1em" x="0" class="row">FatalFailure</tspan></text></g></g></g></g></g></svg>