<svg id="my-svg" width="100%" xmlns="http://www.w3.org/2000/svg" xmlns:xlink="http://www.w3.org/1999/xlink" class="statediagram" style="max-width: 2581.17px; background-color: white;" viewBox="-8 -8 2581.169921875 1668" role="graphics-document document" aria-roledescription="stateDiagram"><style>#my-svg{font-family:"trebuchet ms",verdana,arial,sans-serif;font-size:18px;fill:#000000;}#my-svg .error-icon{fill:#552222;}#my-svg .error-text{fill:#552222;stroke:#552222;}#my-svg .edge-thickness-normal{stroke-width:2px;}#my-svg .edge-thickness-thick{stroke-width:3.5px;}#my-svg .edge-pattern-solid{stroke-dasharray:0;}#my-svg .edge-pattern-dashed{stroke-dasharray:3;}#my-svg .edge-pattern-dotted{stroke-dasharray:2;}#my-svg .marker{fill:#1f2937;stroke:#1f2937;}#my-svg .marker.cross{stroke:#1f2937;}#my-svg svg{font-family:"trebuchet ms",verdana,arial,sans-serif;font-size:18px;}#my-svg defs #statediagram-barbEnd{fill:#000;stroke:#000;}#my-svg g.stateGroup text{fill:#999;stroke:none;font-size:10px;}#my-svg g.stateGroup text{fill:#000000;stroke:none;font-size:10px;}#my-svg g.stateGroup .state-title{font-weight:bolder;fill:#111111;}#my-svg g.stateGroup rect{fill:#eee;stroke:#999;}#my-svg g.stateGroup line{stroke:#1f2937;stroke-width:1;}#my-svg .transition{stroke:#000;stroke-width:1;fill:none;}#my-svg .stateGroup .composit{fill:#ffffff;border-bottom:1px;}#my-svg .stateGroup .alt-composit{fill:#e0e0e0;border-bottom:1px;}#my-svg .state-note{stroke:#999;fill:#666;}#my-svg .state-note text{fill:#fff;stroke:none;font-size:10px;}#my-svg .stateLabel .box{stroke:none;stroke-width:0;fill:#eee;opacity:0.5;}#my-svg .edgeLabel .label rect{fill:#eee;opacity:0.5;}#my-svg .edgeLabel .label text{fill:#000000;}#my-svg .label div .edgeLabel{color:#000000;}#my-svg .stateLabel text{fill:#111111;font-size:10px;font-weight:bold;}#my-svg .node circle.state-start{fill:#222;stroke:#222;}#my-svg .node .fork-join{fill:#222;stroke:#222;}#my-svg .node circle.state-end{fill:#1f2937;stroke:#ffffff;stroke-width:1.5;}#my-svg .end-state-inner{fill:#ffffff;stroke-width:1.5;}#my-svg .node rect{fill:#eee;stroke:#000;stroke-width:1px;}#my-svg .node polygon{fill:#eee;stroke:#000;stroke-width:1px;}#my-svg #statediagram-barbEnd{fill:#1f2937;}#my-svg .statediagram-cluster rect{fill:#eee;stroke:#000;stroke-width:1px;}#my-svg .cluster-label,#my-svg .nodeLabel{color:#111111;}#my-svg .statediagram-cluster rect.outer{rx:5px;ry:5px;}#my-svg .statediagram-state .divider{stroke:#000;}#my-svg .statediagram-state .title-state{rx:5px;ry:5px;}#my-svg .statediagram-cluster.statediagram-cluster .inner{fill:#ffffff;}#my-svg .statediagram-cluster.statediagram-cluster-alt .inner{fill:#f4f4f4;}#my-svg .statediagram-cluster .inner{rx:0;ry:0;}#my-svg .statediagram-state rect.basic{rx:5px;ry:5px;}#my-svg .statediagram-state rect.divider{stroke-dasharray:10,10;fill:#f4f4f4;}#my-svg .note-edge{stroke-dasharray:5;}#my-svg .statediagram-note rect{fill:#666;stroke:#999;stroke-width:1px;rx:0;ry:0;}#my-svg .statediagram-note rect{fill:#666;stroke:#999;stroke-width:1px;rx:0;ry:0;}#my-svg .statediagram-note text{fill:#fff;}#my-svg .statediagram-note .nodeLabel{color:#fff;}#my-svg .statediagram .edgeLabel{color:red;}#my-svg #dependencyStart,#my-svg #dependencyEnd{fill:#1f2937;stroke:#1f2937;stroke-width:1;}#my-svg .statediagramTitleText{text-anchor:middle;font-size:18px;fill:#000000;}#my-svg :root{--mermaid-font-family:"trebuchet ms",verdana,arial,sans-serif;}</style><g><defs><marker id="my-svg_statediagram-barbEnd" refX="19" refY="7" markerWidth="20" markerHeight="14" markerUnits="strokeWidth" orient="auto"><path d="M 19,7 L9,13 L14,7 L9,1 Z"/></marker></defs><g class="root"><g class="clusters"/><g class="edgePaths"><path d="M1282.605,22L1282.605,26.167C1282.605,30.333,1282.605,38.667,1282.605,47C1282.605,55.333,1282.605,63.667,1282.605,67.833L1282.605,72" id="edge0" class=" edge-thickness-normal transition" style="fill:none" marker-end="url(#my-svg_statediagram-barbEnd)"/><path d="M1215.082,101.12L1175.492,107.934C1135.901,114.747,1056.72,128.373,1017.13,141.02C977.539,153.667,977.539,165.333,977.539,171.167L977.539,177" id="edge1" class=" edge-thickness-normal transition" style="fill:none" marker-end="url(#my-svg_statediagram-barbEnd)"/><path d="M1350.129,96.786L1419.971,104.321C1489.814,111.857,1629.499,126.929,1699.341,143.214C1769.184,159.5,1769.184,177,1769.184,194.5C1769.184,212,1769.184,229.5,1801.373,262.417C1833.562,295.333,1897.941,343.667,1930.131,367.833L1962.32,392" id="edge2" class=" edge-thickness-normal transition" style="fill:none" marker-end="url(#my-svg_statediagram-barbEnd)"/><path d="M1041.219,196.915L1261.289,205.263C1481.359,213.61,1921.499,230.305,2085.65,262.819C2249.8,295.333,2137.962,343.667,2082.042,367.833L2026.123,392" id="edge3" class=" edge-thickness-normal transition" style="fill:none" marker-end="url(#my-svg_statediagram-barbEnd)"/><path d="M1041.219,211.698L1063.005,217.581C1084.792,223.465,1128.365,235.233,1150.151,268.2C1171.938,301.167,1171.938,355.333,1171.938,409.5C1171.938,463.667,1171.938,517.833,1171.938,553.667C1171.938,589.5,1171.938,607,1171.938,624.5C1171.938,642,1171.938,659.5,1186.873,674.083C1201.809,688.667,1231.681,700.333,1246.616,706.167L1261.552,712" id="edge5" class=" edge-thickness-normal transition" style="fill:none" marker-end="url(#my-svg_statediagram-barbEnd)"/><path d="M913.859,198.396L781.448,206.497C649.036,214.597,384.214,230.799,251.802,265.983C119.391,301.167,119.391,355.333,119.391,409.5C119.391,463.667,119.391,517.833,119.391,553.667C119.391,589.5,119.391,607,119.391,624.5C119.391,642,119.391,659.5,119.391,677C119.391,694.5,119.391,712,119.391,727.833C119.391,743.667,119.391,757.833,119.391,772C119.391,786.167,119.391,800.333,119.391,816.167C119.391,832,119.391,849.5,135.288,864.083C151.186,878.667,182.981,890.333,198.878,896.167L214.776,902" id="edge6" class=" edge-thickness-normal transition" style="fill:none" marker-end="url(#my-svg_statediagram-barbEnd)"/><path d="M913.859,201.838L848.538,209.365C783.216,216.892,652.573,231.946,587.251,263.64C521.93,295.333,521.93,343.667,521.93,367.833L521.93,392" id="edge7" class=" edge-thickness-normal transition" style="fill:none" marker-end="url(#my-svg_statediagram-barbEnd)"/><path d="M913.859,208.982L885.999,215.319C858.138,221.655,802.417,234.327,779.132,264.83C755.847,295.333,764.999,343.667,769.575,367.833L774.151,392" id="edge8" class=" edge-thickness-normal transition" style="fill:none" marker-end="url(#my-svg_statediagram-barbEnd)"/><path d="M988.68,212L992.393,217.833C996.107,223.667,1003.534,235.333,1012.381,265.333C1021.228,295.333,1031.496,343.667,1036.629,367.833L1041.763,392" id="edge9" class=" edge-thickness-normal transition" style="fill:none" marker-end="url(#my-svg_statediagram-barbEnd)"/><path d="M787.977,392L802.494,367.833C817.011,343.667,846.044,295.333,871.946,265.333C897.847,235.333,920.616,223.667,932.001,217.833L943.385,212" id="edge10" class=" edge-thickness-normal transition" style="fill:none" marker-end="url(#my-svg_statediagram-barbEnd)"/><path d="M1056.397,392L1071.471,367.833C1086.546,343.667,1116.695,295.333,1112.958,265.333C1109.22,235.333,1071.597,223.667,1052.786,217.833L1033.974,212" id="edge11" class=" edge-thickness-normal transition" style="fill:none" marker-end="url(#my-svg_statediagram-barbEnd)"/><path d="M2004.484,427L2030.52,451.167C2056.557,475.333,2108.631,523.667,2134.667,553.667C2160.704,583.667,2160.704,595.333,2160.704,601.167L2160.704,607" id="edge12" class=" edge-thickness-normal transition" style="fill:none" marker-end="url(#my-svg_statediagram-barbEnd)"/><path d="M2129.161,642L2118.647,647.833C2108.132,653.667,2087.104,665.333,2076.589,677C2066.075,688.667,2066.075,700.333,2066.075,706.167L2066.075,712" id="edge13" class=" edge-thickness-normal transition" style="fill:none" marker-end="url(#my-svg_statediagram-barbEnd)"/><path d="M2066.075,747L2066.075,751.167C2066.075,755.333,2066.075,763.667,2066.075,772C2066.075,780.333,2066.075,788.667,2066.075,792.833L2066.075,797" id="edge14" class=" edge-thickness-normal transition" style="fill:none" marker-end="url(#my-svg_statediagram-barbEnd)"/><path d="M2066.075,832L2066.075,837.833C2066.075,843.667,2066.075,855.333,2066.075,867C2066.075,878.667,2066.075,890.333,2066.075,896.167L2066.075,902" id="edge15" class=" edge-thickness-normal transition" style="fill:none" marker-end="url(#my-svg_statediagram-barbEnd)"/><path d="M2066.075,937L2066.075,942.833C2066.075,948.667,2066.075,960.333,2066.075,972C2066.075,983.667,2066.075,995.333,2066.075,1001.167L2066.075,1007" id="edge16" class=" edge-thickness-normal transition" style="fill:none" marker-end="url(#my-svg_statediagram-barbEnd)"/><path d="M2066.075,1042L2066.075,1047.833C2066.075,1053.667,2066.075,1065.333,2066.075,1077C2066.075,1088.667,2066.075,1100.333,2066.075,1106.167L2066.075,1112" id="edge17" class=" edge-thickness-normal transition" style="fill:none" marker-end="url(#my-svg_statediagram-barbEnd)"/><path d="M2066.075,1147L2066.075,1152.833C2066.075,1158.667,2066.075,1170.333,2066.075,1182C2066.075,1193.667,2066.075,1205.333,2066.075,1211.167L2066.075,1217" id="edge18" class=" edge-thickness-normal transition" style="fill:none" marker-end="url(#my-svg_statediagram-barbEnd)"/><path d="M2066.075,1252L2066.075,1257.833C2066.075,1263.667,2066.075,1275.333,2066.075,1287C2066.075,1298.667,2066.075,1310.333,2066.075,1316.167L2066.075,1322" id="edge19" class=" edge-thickness-normal transition" style="fill:none" marker-end="url(#my-svg_statediagram-barbEnd)"/><path d="M1982.536,1347.877L1909.195,1355.23C1835.855,1362.584,1689.173,1377.292,1615.833,1390.479C1542.492,1403.667,1542.492,1415.333,1542.492,1421.167L1542.492,1427" id="edge20" class=" edge-thickness-normal transition" style="fill:none" marker-end="url(#my-svg_statediagram-barbEnd)"/><path d="M1516.518,1462L1507.86,1467.833C1499.202,1473.667,1481.886,1485.333,1473.228,1497C1464.57,1508.667,1464.57,1520.333,1464.57,1526.167L1464.57,1532" id="edge21" class=" edge-thickness-normal transition" style="fill:none" marker-end="url(#my-svg_statediagram-barbEnd)"/><path d="M1440.781,642L1440.781,647.833C1440.781,653.667,1440.781,665.333,1425.845,677C1410.91,688.667,1381.038,700.333,1366.102,706.167L1351.167,712" id="edge25" class=" edge-thickness-normal transition" style="fill:none" marker-end="url(#my-svg_statediagram-barbEnd)"/><path d="M1306.359,747L1306.359,751.167C1306.359,755.333,1306.359,763.667,1306.359,772C1306.359,780.333,1306.359,788.667,1306.359,792.833L1306.359,797" id="edge26" class=" edge-thickness-normal transition" style="fill:none" marker-end="url(#my-svg_statediagram-barbEnd)"/><path d="M1235.32,818.073L1073.178,826.227C911.036,834.382,586.753,850.691,424.611,864.679C262.469,878.667,262.469,890.333,262.469,896.167L262.469,902" id="edge27" class=" edge-thickness-normal transition" style="fill:none" marker-end="url(#my-svg_statediagram-barbEnd)"/><path d="M310.161,902L326.059,896.167C341.957,890.333,373.752,878.667,389.649,864.083C405.547,849.5,405.547,832,405.547,816.167C405.547,800.333,405.547,786.167,405.547,772C405.547,757.833,405.547,743.667,405.547,727.833C405.547,712,405.547,694.5,405.547,677C405.547,659.5,405.547,642,405.547,624.5C405.547,607,405.547,589.5,405.547,553.667C405.547,517.833,405.547,463.667,405.547,409.5C405.547,355.333,405.547,301.167,490.266,266.307C574.984,231.448,744.422,215.897,829.141,208.121L913.859,200.345" id="edge28" class=" edge-thickness-normal transition" style="fill:none" marker-end="url(#my-svg_statediagram-barbEnd)"/><path d="M1570.753,1462L1580.173,1467.833C1589.593,1473.667,1608.433,1485.333,1624.495,1497C1640.556,1508.667,1653.839,1520.333,1660.481,1526.167L1667.122,1532" id="edge29" class=" edge-thickness-normal transition" style="fill:none" marker-end="url(#my-svg_statediagram-barbEnd)"/><path d="M1695.924,1532L1698.884,1526.167C1701.843,1520.333,1707.761,1508.667,1710.72,1494.083C1713.68,1479.5,1713.68,1462,1713.68,1444.5C1713.68,1427,1713.68,1409.5,1713.68,1392C1713.68,1374.5,1713.68,1357,1713.68,1339.5C1713.68,1322,1713.68,1304.5,1713.68,1287C1713.68,1269.5,1713.68,1252,1713.68,1234.5C1713.68,1217,1713.68,1199.5,1713.68,1182C1713.68,1164.5,1713.68,1147,1713.68,1129.5C1713.68,1112,1713.68,1094.5,1713.68,1077C1713.68,1059.5,1713.68,1042,1713.68,1024.5C1713.68,1007,1713.68,989.5,1713.68,972C1713.68,954.5,1713.68,937,1713.68,919.5C1713.68,902,1713.68,884.5,1713.68,867C1713.68,849.5,1713.68,832,1713.68,816.167C1713.68,800.333,1713.68,786.167,1713.68,772C1713.68,757.833,1713.68,743.667,1713.68,727.833C1713.68,712,1713.68,694.5,1713.68,677C1713.68,659.5,1713.68,642,1713.68,624.5C1713.68,607,1713.68,589.5,1754.124,556.583C1794.567,523.667,1875.455,475.333,1915.899,451.167L1956.343,427" id="edge30" class=" edge-thickness-normal transition" style="fill:none" marker-end="url(#my-svg_statediagram-barbEnd)"/><path d="M2054.185,1357L2050.222,1362.833C2046.259,1368.667,2038.333,1380.333,2042.817,1392C2047.302,1403.667,2064.198,1415.333,2072.646,1421.167L2081.094,1427" id="edge31" class=" edge-thickness-normal transition" style="fill:none" marker-end="url(#my-svg_statediagram-barbEnd)"/><path d="M2131.782,1427L2140.23,1421.167C2148.678,1415.333,2165.574,1403.667,2161.089,1392C2156.605,1380.333,2130.739,1368.667,2117.806,1362.833L2104.873,1357" id="edge32" class=" edge-thickness-normal transition" style="fill:none" marker-end="url(#my-svg_statediagram-barbEnd)"/><path d="M2106.438,1462L2106.438,1467.833C2106.438,1473.667,2106.438,1485.333,2124.277,1497C2142.116,1508.667,2177.794,1520.333,2195.634,1526.167L2213.473,1532" id="edge33" class=" edge-thickness-normal transition" style="fill:none" marker-end="url(#my-svg_statediagram-barbEnd)"/><path d="M1377.398,821.723L1451.618,829.269C1525.839,836.815,1674.279,851.908,1748.499,868.204C1822.719,884.5,1822.719,902,1822.719,919.5C1822.719,937,1822.719,954.5,1822.719,972C1822.719,989.5,1822.719,1007,1822.719,1024.5C1822.719,1042,1822.719,1059.5,1822.719,1077C1822.719,1094.5,1822.719,1112,1822.719,1129.5C1822.719,1147,1822.719,1164.5,1822.719,1182C1822.719,1199.5,1822.719,1217,1822.719,1234.5C1822.719,1252,1822.719,1269.5,1822.719,1287C1822.719,1304.5,1822.719,1322,1822.719,1339.5C1822.719,1357,1822.719,1374.5,1822.719,1392C1822.719,1409.5,1822.719,1427,1822.719,1444.5C1822.719,1462,1822.719,1479.5,1822.719,1497C1822.719,1514.5,1822.719,1532,1822.719,1547.833C1822.719,1563.667,1822.719,1577.833,1887.372,1590.979C1952.025,1604.124,2081.332,1616.248,2145.986,1622.31L2210.639,1628.372" id="edge34" class=" edge-thickness-normal transition" style="fill:none" marker-end="url(#my-svg_statediagram-barbEnd)"/><path d="M2266.99,1567L2266.99,1571.167C2266.99,1575.333,2266.99,1583.667,2267.873,1592C2268.756,1600.333,2270.523,1608.667,2271.406,1612.833L2272.289,1617" id="edge35" class=" edge-thickness-normal transition" style="fill:none" marker-end="url(#my-svg_statediagram-barbEnd)"/><path d="M2341.358,1624.894L2378.66,1619.412C2415.962,1613.929,2490.566,1602.965,2527.868,1590.399C2565.17,1577.833,2565.17,1563.667,2565.17,1547.833C2565.17,1532,2565.17,1514.5,2565.17,1497C2565.17,1479.5,2565.17,1462,2565.17,1444.5C2565.17,1427,2565.17,1409.5,2565.17,1392C2565.17,1374.5,2565.17,1357,2565.17,1339.5C2565.17,1322,2565.17,1304.5,2565.17,1287C2565.17,1269.5,2565.17,1252,2565.17,1234.5C2565.17,1217,2565.17,1199.5,2565.17,1182C2565.17,1164.5,2565.17,1147,2565.17,1129.5C2565.17,1112,2565.17,1094.5,2565.17,1077C2565.17,1059.5,2565.17,1042,2565.17,1024.5C2565.17,1007,2565.17,989.5,2565.17,972C2565.17,954.5,2565.17,937,2565.17,919.5C2565.17,902,2565.17,884.5,2565.17,867C2565.17,849.5,2565.17,832,2565.17,816.167C2565.17,800.333,2565.17,786.167,2565.17,772C2565.17,757.833,2565.17,743.667,2565.17,727.833C2565.17,712,2565.17,694.5,2565.17,677C2565.17,659.5,2565.17,642,2565.17,624.5C2565.17,607,2565.17,589.5,2565.17,553.667C2565.17,517.833,2565.17,463.667,2565.17,409.5C2565.17,355.333,2565.17,301.167,2311.178,265.684C2057.186,230.202,1549.203,213.404,1295.211,205.005L1041.219,196.606" id="edge36" class=" edge-thickness-normal transition" style="fill:none" marker-end="url(#my-svg_statediagram-barbEnd)"/><path d="M2199.135,642L2211.946,647.833C2224.756,653.667,2250.377,665.333,2263.188,679.917C2275.998,694.5,2275.998,712,2275.998,727.833C2275.998,743.667,2275.998,757.833,2275.998,772C2275.998,786.167,2275.998,800.333,2275.998,816.167C2275.998,832,2275.998,849.5,2275.998,867C2275.998,884.5,2275.998,902,2275.998,919.5C2275.998,937,2275.998,954.5,2275.998,972C2275.998,989.5,2275.998,1007,2275.998,1024.5C2275.998,1042,2275.998,1059.5,2275.998,1077C2275.998,1094.5,2275.998,1112,2275.998,1129.5C2275.998,1147,2275.998,1164.5,2275.998,1182C2275.998,1199.5,2275.998,1217,2275.998,1234.5C2275.998,1252,2275.998,1269.5,2275.998,1287C2275.998,1304.5,2275.998,1322,2275.998,1339.5C2275.998,1357,2275.998,1374.5,2275.998,1392C2275.998,1409.5,2275.998,1427,2275.998,1444.5C2275.998,1462,2275.998,1479.5,2274.997,1494.083C2273.996,1508.667,2271.994,1520.333,2270.994,1526.167L2269.993,1532" id="edge37" class=" edge-thickness-normal transition" style="fill:none" marker-end="url(#my-svg_statediagram-barbEnd)"/><path d="M2140.614,825.539L2187.276,832.449C2233.937,839.359,2327.261,853.18,2373.923,868.84C2420.584,884.5,2420.584,902,2420.584,919.5C2420.584,937,2420.584,954.5,2420.584,972C2420.584,989.5,2420.584,1007,2420.584,1024.5C2420.584,1042,2420.584,1059.5,2420.584,1077C2420.584,1094.5,2420.584,1112,2420.584,1129.5C2420.584,1147,2420.584,1164.5,2420.584,1182C2420.584,1199.5,2420.584,1217,2420.584,1234.5C2420.584,1252,2420.584,1269.5,2420.584,1287C2420.584,1304.5,2420.584,1322,2420.584,1339.5C2420.584,1357,2420.584,1374.5,2420.584,1392C2420.584,1409.5,2420.584,1427,2420.584,1444.5C2420.584,1462,2420.584,1479.5,2403.518,1494.083C2386.452,1508.667,2352.32,1520.333,2335.254,1526.167L2318.188,1532" id="edge38" class=" edge-thickness-normal transition" style="fill:none" marker-end="url(#my-svg_statediagram-barbEnd)"/><path d="M1041.219,201.717L1107.813,209.264C1174.406,216.811,1307.594,231.906,1374.188,245.286C1440.781,258.667,1440.781,270.333,1440.781,276.167L1440.781,282" id="edge4" class=" edge-thickness-normal transition" style="fill:none" marker-end="url(#my-svg_statediagram-barbEnd)"/><path d="M1440.781,537L1440.781,542.833C1440.781,548.667,1440.781,560.333,1440.781,572C1440.781,583.667,1440.781,595.333,1440.781,601.167L1440.781,607" id="edge24" class=" edge-thickness-normal transition" style="fill:none" marker-end="url(#my-svg_statediagram-barbEnd)"/></g><g class="edgeLabels"><g class="edgeLabel"><g class="label" transform="translate(0, 0)"><rect rx="0" ry="0" width="0" height="0"/><text style=""><tspan xml:space="preserve" dy="1em" x="0" class="row"/></text></g></g><g class="edgeLabel" transform="translate(977.5390625, 142)"><g class="label" transform="translate(-100.53125, -10)"><rect rx="0" ry="0" width="200.91712951660156" height="20.091712951660156"/><text style=""><tspan xml:space="preserve" dy="1em" x="0" class="row">--serve mode (persistent)</tspan></text></g></g><g class="edgeLabel" transform="translate(1769.18359375, 194.5)"><g class="label" transform="translate(-150.40625, -10)"><rect rx="0" ry="0" width="300.5816345214844" height="20.091712951660156"/><text style=""><tspan xml:space="preserve" dy="1em" x="0" class="row">--auto-run or POST /actions/bootstrap</tspan></text></g></g><g class="edgeLabel" transform="translate(2361.638916015625, 247)"><g class="label" transform="translate(-97.890625, -10)"><rect rx="0" ry="0" width="195.6356658935547" height="20.091712951660156"/><text style=""><tspan xml:space="preserve" dy="1em" x="0" class="row">POST /actions/bootstrap</tspan></text></g></g><g class="edgeLabel" transform="translate(1171.9375, 572)"><g class="label" transform="translate(-114.890625, -10)"><rect rx="0" ry="0" width="230.07054138183594" height="20.091712951660156"/><text style=""><tspan xml:space="preserve" dy="1em" x="0" class="row">POST /actions/auto-indexers</tspan></text></g></g><g class="edgeLabel" transform="translate(119.390625, 677)"><g class="label" transform="translate(-111.390625, -10)"><rect rx="0" ry="0" width="222.6154327392578" height="20.091712951660156"/><text style=""><tspan xml:space="preserve" dy="1em" x="0" class="row">POST /actions/envoy-config</tspan></text></g></g><g class="edgeLabel" transform="translate(521.9296875, 247)"><g class="label" transform="translate(-96.3828125, -10)"><rect rx="0" ry="0" width="192.62559509277344" height="20.091712951660156"/><text style=""><tspan xml:space="preserve" dy="1em" x="0" class="row">POST /actions/reconcile</tspan></text></g></g><g class="edgeLabel" transform="translate(746.6953125, 247)"><g class="label" transform="translate(-108.3828125, -10)"><rect rx="0" ry="0" width="217.05490112304688" height="20.091712951660156"/><text style=""><tspan xml:space="preserve" dy="1em" x="0" class="row">POST /actions/restart-apps</tspan></text></g></g><g class="edgeLabel" transform="translate(1010.9609375, 247)"><g class="label" transform="translate(-115.8828125, -10)"><rect rx="0" ry="0" width="232.04660034179688" height="20.091712951660156"/><text style=""><tspan xml:space="preserve" dy="1em" x="0" class="row">POST /actions/sync-indexers</tspan></text></g></g><g class="edgeLabel"><g class="label" transform="translate(0, 0)"><rect rx="0" ry="0" width="0" height="0"/><text style=""><tspan xml:space="preserve" dy="1em" x="0" class="row"/></text></g></g><g class="edgeLabel"><g class="label" transform="translate(0, 0)"><rect rx="0" ry="0" width="0" height="0"/><text style=""><tspan xml:space="preserve" dy="1em" x="0" class="row"/></text></g></g><g class="edgeLabel"><g class="label" transform="translate(0, 0)"><rect rx="0" ry="0" width="0" height="0"/><text style=""><tspan xml:space="preserve" dy="1em" x="0" class="row"/></text></g></g><g class="edgeLabel"><g class="label" transform="translate(0, 0)"><rect rx="0" ry="0" width="0" height="0"/><text style=""><tspan xml:space="preserve" dy="1em" x="0" class="row"/></text></g></g><g class="edgeLabel"><g class="label" transform="translate(0, 0)"><rect rx="0" ry="0" width="0" height="0"/><text style=""><tspan xml:space="preserve" dy="1em" x="0" class="row"/></text></g></g><g class="edgeLabel"><g class="label" transform="translate(0, 0)"><rect rx="0" ry="0" width="0" height="0"/><text style=""><tspan xml:space="preserve" dy="1em" x="0" class="row"/></text></g></g><g class="edgeLabel" transform="translate(2066.074951171875, 972)"><g class="label" transform="translate(-100.5625, -10)"><rect rx="0" ry="0" width="201.4311065673828" height="20.091712951660156"/><text style=""><tspan xml:space="preserve" dy="1em" x="0" class="row">parallel preflight handlers</tspan></text></g></g><g class="edgeLabel" transform="translate(2066.074951171875, 1077)"><g class="label" transform="translate(-86.5546875, -10)"><rect rx="0" ry="0" width="173.4325714111328" height="20.091712951660156"/><text style=""><tspan xml:space="preserve" dy="1em" x="0" class="row">parallel health checks</tspan></text></g></g><g class="edgeLabel" transform="translate(2066.074951171875, 1182)"><g class="label" transform="translate(-84.796875, -10)"><rect rx="0" ry="0" width="169.4684295654297" height="20.091712951660156"/><text style=""><tspan xml:space="preserve" dy="1em" x="0" class="row">qBit + SAB in parallel</tspan></text></g></g><g class="edgeLabel" transform="translate(2066.074951171875, 1287)"><g class="label" transform="translate(-158.578125, -10)"><rect rx="0" ry="0" width="316.92462158203125" height="20.091712951660156"/><text style=""><tspan xml:space="preserve" dy="1em" x="0" class="row">Sonarr/Radarr/Lidarr/Readarr in parallel</tspan></text></g></g><g class="edgeLabel"><g class="label" transform="translate(0, 0)"><rect rx="0" ry="0" width="0" height="0"/><text style=""><tspan xml:space="preserve" dy="1em" x="0" class="row"/></text></g></g><g class="edgeLabel" transform="translate(1464.5703125, 1497)"><g class="label" transform="translate(-102.578125, -10)"><rect rx="0" ry="0" width="204.99826049804688" height="20.091712951660156"/><text style=""><tspan xml:space="preserve" dy="1em" x="0" class="row">auto-queue finalize action</tspan></text></g></g><g class="edgeLabel" transform="translate(1440.78125, 677)"><g class="label" transform="translate(-87.5390625, -10)"><rect rx="0" ry="0" width="175.39984130859375" height="20.091712951660156"/><text style=""><tspan xml:space="preserve" dy="1em" x="0" class="row">4 parallel test workers</tspan></text></g></g><g class="edgeLabel"><g class="label" transform="translate(0, 0)"><rect rx="0" ry="0" width="0" height="0"/><text style=""><tspan xml:space="preserve" dy="1em" x="0" class="row"/></text></g></g><g class="edgeLabel" transform="translate(262.46875, 867)"><g class="label" transform="translate(-123.078125, -10)"><rect rx="0" ry="0" width="245.9757537841797" height="20.091712951660156"/><text style=""><tspan xml:space="preserve" dy="1em" x="0" class="row">auto-queue after first bootstrap</tspan></text></g></g><g class="edgeLabel"><g class="label" transform="translate(0, 0)"><rect rx="0" ry="0" width="0" height="0"/><text style=""><tspan xml:space="preserve" dy="1em" x="0" class="row"/></text></g></g><g class="edgeLabel" transform="translate(1627.2734375, 1497)"><g class="label" transform="translate(-33.265625, -10)"><rect rx="0" ry="0" width="66.47993469238281" height="20.091712951660156"/><text style=""><tspan xml:space="preserve" dy="1em" x="0" class="row">retry &gt; 0</tspan></text></g></g><g class="edgeLabel" transform="translate(1713.6796875, 1024.5)"><g class="label" transform="translate(-77.8916015625, -10)"><rect rx="0" ry="0" width="155.580078125" height="20.091712951660156"/><text style=""><tspan xml:space="preserve" dy="1em" x="0" class="row">exponential backoff</tspan></text></g></g><g class="edgeLabel" transform="translate(2030.40625, 1392)"><g class="label" transform="translate(-73.5390625, -10)"><rect rx="0" ry="0" width="146.95758056640625" height="20.091712951660156"/><text style=""><tspan xml:space="preserve" dy="1em" x="0" class="row">transient http error</tspan></text></g></g><g class="edgeLabel" transform="translate(2182.47021484375, 1392)"><g class="label" transform="translate(-58.52490234375, -10)"><rect rx="0" ry="0" width="116.96774291992188" height="20.091712951660156"/><text style=""><tspan xml:space="preserve" dy="1em" x="0" class="row">retry decorator</tspan></text></g></g><g class="edgeLabel" transform="translate(2106.438232421875, 1497)"><g class="label" transform="translate(-44.5078125, -10)"><rect rx="0" ry="0" width="89.41060638427734" height="20.091712951660156"/><text style=""><tspan xml:space="preserve" dy="1em" x="0" class="row">max retries</tspan></text></g></g><g class="edgeLabel" transform="translate(1822.71875, 1234.5)"><g class="label" transform="translate(-89.0390625, -10)"><rect rx="0" ry="0" width="178.40345764160156" height="20.091712951660156"/><text style=""><tspan xml:space="preserve" dy="1em" x="0" class="row">notify registered URLs</tspan></text></g></g><g class="edgeLabel"><g class="label" transform="translate(0, 0)"><rect rx="0" ry="0" width="0" height="0"/><text style=""><tspan xml:space="preserve" dy="1em" x="0" class="row"/></text></g></g><g class="edgeLabel"><g class="label" transform="translate(0, 0)"><rect rx="0" ry="0" width="0" height="0"/><text style=""><tspan xml:space="preserve" dy="1em" x="0" class="row"/></text></g></g><g class="edgeLabel" transform="translate(2275.998291015625, 1077)"><g class="label" transform="translate(-82.703125, -10)"><rect rx="0" ry="0" width="165.27650451660156" height="20.091712951660156"/><text style=""><tspan xml:space="preserve" dy="1em" x="0" class="row">invalid service YAML</tspan></text></g></g><g class="edgeLabel" transform="translate(2420.584228515625, 1182)"><g class="label" transform="translate(-124.5859375, -10)"><rect rx="0" ry="0" width="249.43612670898438" height="20.091712951660156"/><text style=""><tspan xml:space="preserve" dy="1em" x="0" class="row">missing or unbound technology</tspan></text></g></g><g class="edgeLabel" transform="translate(1440.78125, 247)"><g class="label" transform="translate(-88.375, -10)"><rect rx="0" ry="0" width="176.63348388671875" height="20.091712951660156"/><text style=""><tspan xml:space="preserve" dy="1em" x="0" class="row">POST /actions/finalize</tspan></text></g></g><g class="edgeLabel" transform="translate(1440.78125, 572)"><g class="label" transform="translate(-118.078125, -10)"><rect rx="0" ry="0" width="236.42929077148438" height="20.091712951660156"/><text style=""><tspan xml:space="preserve" dy="1em" x="0" class="row">auto-queue indexer discovery</tspan></text></g></g></g><g class="nodes"><g class="node default" id="state-root_start-0" data-node="true" data-id="root_start" transform="translate(1282.60546875, 15)"><circle class="state-start" r="7" width="14" height="14"/></g><g class="node  statediagram-state undefined" id="state-StartAPIServer-2" data-node="true" data-id="StartAPIServer" transform="translate(1282.60546875, 89.5)"><rect class="basic label-container" style="" x="-67.5234375" y="-17.5" width="135.046875" height="35"/><g class="label" style="" transform="translate(-60.0234375, -10)"><rect/><text style=""><tspan xml:space="preserve" dy="1em" x="0" class="row">StartAPIServer</tspan></text></g></g><g class="node  statediagram-state undefined" id="state-WaitForAction-36" data-node="true" data-id="WaitForAction" transform="translate(977.5390625, 194.5)"><rect class="basic label-container" style="" x="-63.6796875" y="-17.5" width="127.359375" height="35"/><g class="label" style="" transform="translate(-56.1796875, -10)"><rect/><text style=""><tspan xml:space="preserve" dy="1em" x="0" class="row">WaitForAction</tspan></text></g></g><g class="node  statediagram-state undefined" id="state-ParseConfig-30" data-node="true" data-id="ParseConfig" transform="translate(1985.629638671875, 409.5)"><rect class="basic label-container" style="" x="-57.03125" y="-17.5" width="114.0625" height="35"/><g class="label" style="" transform="translate(-49.53125, -10)"><rect/><text style=""><tspan xml:space="preserve" dy="1em" x="0" class="row">ParseConfig</tspan></text></g></g><g class="root" transform="translate(1199.4375, 274)"><g class="clusters"><g class=" statediagram-state statediagram-cluster " id="RunPostServarr"><rect class="outer" x="8" y="8" width="467.6875" height="255"/><g class="cluster-label" transform="translate(177.8125, 6)"><text style=""><tspan xml:space="preserve" dy="1em" x="0" class="row">RunPostServarr</tspan></text></g><rect class="inner" x="8" y="27" width="467.6875" height="232"/></g></g><g class="edgePaths"><path d="M241.844,68L241.844,72.167C241.844,76.333,241.844,84.667,241.844,93C241.844,101.333,241.844,109.667,241.844,113.833L241.844,118" id="edge22" class=" edge-thickness-normal transition" style="fill:none" marker-end="url(#my-svg_statediagram-barbEnd)"/><path d="M241.844,153L241.844,157.167C241.844,161.333,241.844,169.667,241.844,178C241.844,186.333,241.844,194.667,241.844,198.833L241.844,203" id="edge23" class=" edge-thickness-normal transition" style="fill:none" marker-end="url(#my-svg_statediagram-barbEnd)"/></g><g class="edgeLabels"><g class="edgeLabel"><g class="label" transform="translate(0, 0)"><rect rx="0" ry="0" width="0" height="0"/><text style=""><tspan xml:space="preserve" dy="1em" x="0" class="row"/></text></g></g><g class="edgeLabel"><g class="label" transform="translate(0, 0)"><rect rx="0" ry="0" width="0" height="0"/><text style=""><tspan xml:space="preserve" dy="1em" x="0" class="row"/></text></g></g></g><g class="nodes"><g class="node  statediagram-state undefined" id="state-PostServarrPreMedia-22" data-node="true" data-id="PostServarrPreMedia" transform="translate(241.84375, 50.5)"><rect class="basic label-container" style="" x="-138.0546875" y="-17.5" width="276.109375" height="35"/><g class="label" style="" transform="translate(-130.5546875, -10)"><rect/><text style=""><tspan xml:space="preserve" dy="1em" x="0" class="row">Bazarr + Jellyseerr + Maintainerr</tspan></text></g></g><g class="node  statediagram-state undefined" id="state-MediaServerPlan-23" data-node="true" data-id="MediaServerPlan" transform="translate(241.84375, 135.5)"><rect class="basic label-container" style="" x="-198.84375" y="-17.5" width="397.6875" height="35"/><g class="label" style="" transform="translate(-191.34375, -10)"><rect/><text style=""><tspan xml:space="preserve" dy="1em" x="0" class="row">Jellyfin libraries + plugins + playback + prewarm</tspan></text></g></g><g class="node  statediagram-state undefined" id="state-PostServarrPostMedia-23" data-node="true" data-id="PostServarrPostMedia" transform="translate(241.84375, 220.5)"><rect class="basic label-container" style="" x="-146.578125" y="-17.5" width="293.15625" height="35"/><g class="label" style="" transform="translate(-139.078125, -10)"><rect/><text style=""><tspan xml:space="preserve" dy="1em" x="0" class="row">Homepage + Guardrails + Hygiene</tspan></text></g></g></g></g><g class="node  statediagram-state undefined" id="state-RunIndexerPipeline-26" data-node="true" data-id="RunIndexerPipeline" transform="translate(1306.359375, 729.5)"><rect class="basic label-container" style="" x="-86.0546875" y="-17.5" width="172.109375" height="35"/><g class="label" style="" transform="translate(-78.5546875, -10)"><rect/><text style=""><tspan xml:space="preserve" dy="1em" x="0" class="row">RunIndexerPipeline</tspan></text></g></g><g class="node  statediagram-state undefined" id="state-EnvoyConfigGen-28" data-node="true" data-id="EnvoyConfigGen" transform="translate(262.46875, 919.5)"><rect class="basic label-container" style="" x="-75.546875" y="-17.5" width="151.09375" height="35"/><g class="label" style="" transform="translate(-68.046875, -10)"><rect/><text style=""><tspan xml:space="preserve" dy="1em" x="0" class="row">EnvoyConfigGen</tspan></text></g></g><g class="node  statediagram-state undefined" id="state-Reconcile-7" data-node="true" data-id="Reconcile" transform="translate(521.9296875, 409.5)"><rect class="basic label-container" style="" x="-47.0234375" y="-17.5" width="94.046875" height="35"/><g class="label" style="" transform="translate(-39.5234375, -10)"><rect/><text style=""><tspan xml:space="preserve" dy="1em" x="0" class="row">Reconcile</tspan></text></g></g><g class="node  statediagram-state undefined" id="state-RestartApps-10" data-node="true" data-id="RestartApps" transform="translate(777.46484375, 409.5)"><rect class="basic label-container" style="" x="-57.0234375" y="-17.5" width="114.046875" height="35"/><g class="label" style="" transform="translate(-49.5234375, -10)"><rect/><text style=""><tspan xml:space="preserve" dy="1em" x="0" class="row">RestartApps</tspan></text></g></g><g class="node  statediagram-state undefined" id="state-SyncIndexers-11" data-node="true" data-id="SyncIndexers" transform="translate(1045.48046875, 409.5)"><rect class="basic label-container" style="" x="-62.03125" y="-17.5" width="124.0625" height="35"/><g class="label" style="" transform="translate(-54.53125, -10)"><rect/><text style=""><tspan xml:space="preserve" dy="1em" x="0" class="row">SyncIndexers</tspan></text></g></g><g class="node  statediagram-state undefined" id="state-LoadServiceYAML-37" data-node="true" data-id="LoadServiceYAML" transform="translate(2160.703857421875, 624.5)"><rect class="basic label-container" style="" x="-81.375" y="-17.5" width="162.75" height="35"/><g class="label" style="" transform="translate(-73.875, -10)"><rect/><text style=""><tspan xml:space="preserve" dy="1em" x="0" class="row">LoadServiceYAML</tspan></text></g></g><g class="node  statediagram-state undefined" id="state-MergeHookDefaults-14" data-node="true" data-id="MergeHookDefaults" transform="translate(2066.074951171875, 729.5)"><rect class="basic label-container" style="" x="-87.0390625" y="-17.5" width="174.078125" height="35"/><g class="label" style="" transform="translate(-79.5390625, -10)"><rect/><text style=""><tspan xml:space="preserve" dy="1em" x="0" class="row">MergeHookDefaults</tspan></text></g></g><g class="node  statediagram-state undefined" id="state-ResolveBindings-38" data-node="true" data-id="ResolveBindings" transform="translate(2066.074951171875, 814.5)"><rect class="basic label-container" style="" x="-74.5390625" y="-17.5" width="149.078125" height="35"/><g class="label" style="" transform="translate(-67.0390625, -10)"><rect/><text style=""><tspan xml:space="preserve" dy="1em" x="0" class="row">ResolveBindings</tspan></text></g></g><g class="node  statediagram-state undefined" id="state-BuildRuntime-16" data-node="true" data-id="BuildRuntime" transform="translate(2066.074951171875, 919.5)"><rect class="basic label-container" style="" x="-61.03125" y="-17.5" width="122.0625" height="35"/><g class="label" style="" transform="translate(-53.53125, -10)"><rect/><text style=""><tspan xml:space="preserve" dy="1em" x="0" class="row">BuildRuntime</tspan></text></g></g><g class="node  statediagram-state undefined" id="state-RunPrecheckPlan-17" data-node="true" data-id="RunPrecheckPlan" transform="translate(2066.074951171875, 1024.5)"><rect class="basic label-container" style="" x="-79.546875" y="-17.5" width="159.09375" height="35"/><g class="label" style="" transform="translate(-72.046875, -10)"><rect/><text style=""><tspan xml:space="preserve" dy="1em" x="0" class="row">RunPrecheckPlan</tspan></text></g></g><g class="node  statediagram-state undefined" id="state-WaitForServices-18" data-node="true" data-id="WaitForServices" transform="translate(2066.074951171875, 1129.5)"><rect class="basic label-container" style="" x="-73.1796875" y="-17.5" width="146.359375" height="35"/><g class="label" style="" transform="translate(-65.6796875, -10)"><rect/><text style=""><tspan xml:space="preserve" dy="1em" x="0" class="row">WaitForServices</tspan></text></g></g><g class="node  statediagram-state undefined" id="state-RunDownloadClientPhases-19" data-node="true" data-id="RunDownloadClientPhases" transform="translate(2066.074951171875, 1234.5)"><rect class="basic label-container" style="" x="-117.0703125" y="-17.5" width="234.140625" height="35"/><g class="label" style="" transform="translate(-109.5703125, -10)"><rect/><text style=""><tspan xml:space="preserve" dy="1em" x="0" class="row">RunDownloadClientPhases</tspan></text></g></g><g class="node  statediagram-state undefined" id="state-RunServarrPhases-32" data-node="true" data-id="RunServarrPhases" transform="translate(2066.074951171875, 1339.5)"><rect class="basic label-container" style="" x="-83.5390625" y="-17.5" width="167.078125" height="35"/><g class="label" style="" transform="translate(-76.0390625, -10)"><rect/><text style=""><tspan xml:space="preserve" dy="1em" x="0" class="row">RunServarrPhases</tspan></text></g></g><g class="node  statediagram-state undefined" id="state-BootstrapComplete-29" data-node="true" data-id="BootstrapComplete" transform="translate(1542.4921875, 1444.5)"><rect class="basic label-container" style="" x="-84.546875" y="-17.5" width="169.09375" height="35"/><g class="label" style="" transform="translate(-77.046875, -10)"><rect/><text style=""><tspan xml:space="preserve" dy="1em" x="0" class="row">BootstrapComplete</tspan></text></g></g><g class="node  statediagram-state undefined" id="state-QueueFinalize-21" data-node="true" data-id="QueueFinalize" transform="translate(1464.5703125, 1549.5)"><rect class="basic label-container" style="" x="-65.5390625" y="-17.5" width="131.078125" height="35"/><g class="label" style="" transform="translate(-58.0390625, -10)"><rect/><text style=""><tspan xml:space="preserve" dy="1em" x="0" class="row">QueueFinalize</tspan></text></g></g><g class="node  statediagram-state undefined" id="state-QueueIndexers-25" data-node="true" data-id="QueueIndexers" transform="translate(1440.78125, 624.5)"><rect class="basic label-container" style="" x="-69.046875" y="-17.5" width="138.09375" height="35"/><g class="label" style="" transform="translate(-61.546875, -10)"><rect/><text style=""><tspan xml:space="preserve" dy="1em" x="0" class="row">QueueIndexers</tspan></text></g></g><g class="node  statediagram-state undefined" id="state-ActionComplete-34" data-node="true" data-id="ActionComplete" transform="translate(1306.359375, 814.5)"><rect class="basic label-container" style="" x="-71.0390625" y="-17.5" width="142.078125" height="35"/><g class="label" style="" transform="translate(-63.5390625, -10)"><rect/><text style=""><tspan xml:space="preserve" dy="1em" x="0" class="row">ActionComplete</tspan></text></g></g><g class="node  statediagram-state undefined" id="state-RetryAction-30" data-node="true" data-id="RetryAction" transform="translate(1687.046875, 1549.5)"><rect class="basic label-container" style="" x="-54.0234375" y="-17.5" width="108.046875" height="35"/><g class="label" style="" transform="translate(-46.5234375, -10)"><rect/><text style=""><tspan xml:space="preserve" dy="1em" x="0" class="row">RetryAction</tspan></text></g></g><g class="node  statediagram-state undefined" id="state-RetryableFailure-33" data-node="true" data-id="RetryableFailure" transform="translate(2106.438232421875, 1444.5)"><rect class="basic label-container" style="" x="-73.53125" y="-17.5" width="147.0625" height="35"/><g class="label" style="" transform="translate(-66.03125, -10)"><rect/><text style=""><tspan xml:space="preserve" dy="1em" x="0" class="row">RetryableFailure</tspan></text></g></g><g class="node  statediagram-state undefined" id="state-FatalFailure-38" data-node="true" data-id="FatalFailure" transform="translate(2266.98974609375, 1549.5)"><rect class="basic label-container" style="" x="-55.0234375" y="-17.5" width="110.046875" height="35"/><g class="label" style="" transform="translate(-47.5234375, -10)"><rect/><text style=""><tspan xml:space="preserve" dy="1em" x="0" class="row">FatalFailure</tspan></text></g></g><g class="node  statediagram-state undefined" id="state-FireWebhooks-36" data-node="true" data-id="FireWebhooks" transform="translate(2275.998291015625, 1634.5)"><rect class="basic label-container" style="" x="-65.359375" y="-17.5" width="130.71875" height="35"/><g class="label" style="" transform="translate(-57.859375, -10)"><rect/><text style=""><tspan xml:space="preserve" dy="1em" x="0" class="row">FireWebhooks</tspan></text></g></g></g></g></g></svg>