<svg id="my-svg" width="100%" xmlns="http://www.w3.org/2000/svg" xmlns:xlink="http://www.w3.org/1999/xlink" style="max-width: 1705.61px; background-color: white;" viewBox="-7.5 -8 1705.609375 596" role="graphics-document document" aria-roledescription="flowchart-v2"><style>#my-svg{font-family:"trebuchet ms",verdana,arial,sans-serif;font-size:18px;fill:#000000;}#my-svg .error-icon{fill:#552222;}#my-svg .error-text{fill:#552222;stroke:#552222;}#my-svg .edge-thickness-normal{stroke-width:2px;}#my-svg .edge-thickness-thick{stroke-width:3.5px;}#my-svg .edge-pattern-solid{stroke-dasharray:0;}#my-svg .edge-pattern-dashed{stroke-dasharray:3;}#my-svg .edge-pattern-dotted{stroke-dasharray:2;}#my-svg .marker{fill:#1f2937;stroke:#1f2937;}#my-svg .marker.cross{stroke:#1f2937;}#my-svg svg{font-family:"trebuchet ms",verdana,arial,sans-serif;font-size:18px;}#my-svg .label{font-family:"trebuchet ms",verdana,arial,sans-serif;color:#000000;}#my-svg .cluster-label text{fill:#333;}#my-svg .cluster-label span,#my-svg p{color:#333;}#my-svg .label text,#my-svg span,#my-svg p{fill:#000000;color:#000000;}#my-svg .node rect,#my-svg .node circle,#my-svg .node ellipse,#my-svg .node polygon,#my-svg .node path{fill:#eee;stroke:#999;stroke-width:1px;}#my-svg .flowchart-label text{text-anchor:middle;}#my-svg .node .katex path{fill:#000;stroke:#000;stroke-width:1px;}#my-svg .node .label{text-align:center;}#my-svg .node.clickable{cursor:pointer;}#my-svg .arrowheadPath{fill:#333333;}#my-svg .edgePath .path{stroke:#1f2937;stroke-width:2.0px;}#my-svg .flowchart-link{stroke:#1f2937;fill:none;}#my-svg .edgeLabel{background-color:white;text-align:center;}#my-svg .edgeLabel rect{opacity:0.5;background-color:white;fill:white;}#my-svg .labelBkg{background-color:rgba(255, 255, 255, 0.5);}#my-svg .cluster rect{fill:#f8fafc;stroke:#334155;stroke-width:1px;}#my-svg .cluster text{fill:#333;}#my-svg .cluster span,#my-svg p{color:#333;}#my-svg div.mermaidTooltip{position:absolute;text-align:center;max-width:200px;padding:2px;font-family:"trebuchet ms",verdana,arial,sans-serif;font-size:12px;background:#fef9c3;border:1px solid #707070;border-radius:2px;pointer-events:none;z-index:100;}#my-svg .flowchartTitleText{text-anchor:middle;font-size:18px;fill:#000000;}#my-svg :root{--mermaid-font-family:"trebuchet ms",verdana,arial,sans-serif;}</style><g><marker id="my-svg_flowchart-pointEnd" class="marker flowchart" viewBox="0 0 10 10" refX="6" refY="5" markerUnits="userSpaceOnUse" markerWidth="12" markerHeight="12" orient="auto"><path d="M 0 0 L 10 5 L 0 10 z" class="arrowMarkerPath" style="stroke-width: 1; stroke-dasharray: 1, 0;"/></marker><marker id="my-svg_flowchart-pointStart" class="marker flowchart" viewBox="0 0 10 10" refX="4.5" refY="5" markerUnits="userSpaceOnUse" markerWidth="12" markerHeight="12" orient="auto"><path d="M 0 5 L 10 10 L 10 0 z" class="arrowMarkerPath" style="stroke-width: 1; stroke-dasharray: 1, 0;"/></marker><marker id="my-svg_flowchart-circleEnd" class="marker flowchart" viewBox="0 0 10 10" refX="11" refY="5" markerUnits="userSpaceOnUse" markerWidth="11" markerHeight="11" orient="auto"><circle cx="5" cy="5" r="5" class="arrowMarkerPath" style="stroke-width: 1; stroke-dasharray: 1, 0;"/></marker><marker id="my-svg_flowchart-circleStart" class="marker flowchart" viewBox="0 0 10 10" refX="-1" refY="5" markerUnits="userSpaceOnUse" markerWidth="11" markerHeight="11" orient="auto"><circle cx="5" cy="5" r="5" class="arrowMarkerPath" style="stroke-width: 1; stroke-dasharray: 1, 0;"/></marker><marker id="my-svg_flowchart-crossEnd" class="marker cross flowchart" viewBox="0 0 11 11" refX="12" refY="5.2" markerUnits="userSpaceOnUse" markerWidth="11" markerHeight="11" orient="auto"><path d="M 1,1 l 9,9 M 10,1 l -9,9" class="arrowMarkerPath" style="stroke-width: 2; stroke-dasharray: 1, 0;"/></marker><marker id="my-svg_flowchart-crossStart" class="marker cross flowchart" viewBox="0 0 11 11" refX="-1" refY="5.2" markerUnits="userSpaceOnUse" markerWidth="11" markerHeight="11" orient="auto"><path d="M 1,1 l 9,9 M 10,1 l -9,9" class="arrowMarkerPath" style="stroke-width: 2; stroke-dasharray: 1, 0;"/></marker><g class="root"><g class="clusters"/><g class="edgePaths"><path d="M931.074,35L931.074,39.167C931.074,43.333,931.074,51.667,931.074,59.117C931.074,66.567,931.074,73.133,931.074,76.417L931.074,79.7" id="L-OP-GIT-0" class=" edge-thickness-normal edge-pattern-solid flowchart-link LS-OP LE-GIT" style="fill:none;" marker-end="url(#my-svg_flowchart-pointEnd)"/><path d="M931.074,120L931.074,124.167C931.074,128.333,931.074,136.667,931.074,144.117C931.074,151.567,931.074,158.133,931.074,161.417L931.074,164.7" id="L-GIT-CI-0" class=" edge-thickness-normal edge-pattern-solid flowchart-link LS-GIT LE-CI" style="fill:none;" marker-end="url(#my-svg_flowchart-pointEnd)"/><path d="M873.207,193.155L810.368,199.296C747.529,205.437,621.85,217.718,559.011,227.142C496.172,236.567,496.172,243.133,496.172,246.417L496.172,249.7" id="L-CI-K8S-0" class=" edge-thickness-normal edge-pattern-solid flowchart-link LS-CI LE-K8S" style="fill:none;" marker-end="url(#my-svg_flowchart-pointEnd)"/><path d="M988.941,193.155L1051.781,199.296C1114.62,205.437,1240.298,217.718,1303.137,238.392C1365.977,259.067,1365.977,288.133,1365.977,302.667L1365.977,317.2" id="L-CI-COMPOSE-0" class=" edge-thickness-normal edge-pattern-solid flowchart-link LS-CI LE-COMPOSE" style="fill:none;" marker-end="url(#my-svg_flowchart-pointEnd)"/></g><g class="edgeLabels"><g class="edgeLabel"><g class="label" transform="translate(0, 0)"><rect rx="0" ry="0" width="0" height="0"/><text style=""><tspan xml:space="preserve" dy="1em" x="0" class="row"/></text></g></g><g class="edgeLabel"><g class="label" transform="translate(0, 0)"><rect rx="0" ry="0" width="0" height="0"/><text style=""><tspan xml:space="preserve" dy="1em" x="0" class="row"/></text></g></g><g class="edgeLabel"><g class="label" transform="translate(0, 0)"><rect rx="0" ry="0" width="0" height="0"/><text style=""><tspan xml:space="preserve" dy="1em" x="0" class="row"/></text></g></g><g class="edgeLabel"><g class="label" transform="translate(0, 0)"><rect rx="0" ry="0" width="0" height="0"/><text style=""><tspan xml:space="preserve" dy="1em" x="0" class="row"/></text></g></g></g><g class="nodes"><g class="root" transform="translate(1034.84375, 314.5)"><g class="clusters"><g class="cluster default flowchart-label" id="COMPOSE"><rect style="fill:#fff3e0;stroke:#e65100;stroke-width:2px;" rx="0" ry="0" x="8" y="8" width="647.265625" height="190"/><g class="cluster-label" transform="translate(331.6328125, 8)"><text style=""><tspan xml:space="preserve" dy="1em" x="0" class="row">Docker Compose Path</tspan></text></g></g></g><g class="edgePaths"><path d="M214.063,103L218.229,103C222.396,103,230.729,103,238.179,103C245.629,103,252.196,103,255.479,103L258.763,103" id="L-DC-BOOT3-0" class=" edge-thickness-normal edge-pattern-solid flowchart-link LS-DC LE-BOOT3" style="fill:none;" marker-end="url(#my-svg_flowchart-pointEnd)"/><path d="M375.353,85.5L384.818,81.333C394.282,77.167,413.211,68.833,425.959,64.667C438.707,60.5,445.274,60.5,448.557,60.5L451.841,60.5" id="L-BOOT3-APPS3-0" class=" edge-thickness-normal edge-pattern-solid flowchart-link LS-BOOT3 LE-APPS3" style="fill:none;" marker-end="url(#my-svg_flowchart-pointEnd)"/><path d="M375.353,120.5L384.818,124.667C394.282,128.833,413.211,137.167,426.129,141.333C439.046,145.5,445.951,145.5,449.404,145.5L452.856,145.5" id="L-BOOT3-ENVOY3-0" class=" edge-thickness-normal edge-pattern-solid flowchart-link LS-BOOT3 LE-ENVOY3" style="fill:none;" marker-end="url(#my-svg_flowchart-pointEnd)"/></g><g class="edgeLabels"><g class="edgeLabel"><g class="label" transform="translate(0, 0)"><rect rx="0" ry="0" width="0" height="0"/><text style=""><tspan xml:space="preserve" dy="1em" x="0" class="row"/></text></g></g><g class="edgeLabel"><g class="label" transform="translate(0, 0)"><rect rx="0" ry="0" width="0" height="0"/><text style=""><tspan xml:space="preserve" dy="1em" x="0" class="row"/></text></g></g><g class="edgeLabel"><g class="label" transform="translate(0, 0)"><rect rx="0" ry="0" width="0" height="0"/><text style=""><tspan xml:space="preserve" dy="1em" x="0" class="row"/></text></g></g></g><g class="nodes"><g class="node default default flowchart-label" id="flowchart-DC-11" data-node="true" data-id="DC" transform="translate(123.53125, 103)"><rect class="basic label-container" style="" rx="0" ry="0" x="-90.53125" y="-17.5" width="181.0625" height="35"/><g class="label" style="" transform="translate(0, -10)"><rect/><text style=""><tspan xml:space="preserve" dy="1em" x="0" class="row">docker-compose.yml</tspan></text></g></g><g class="node default default flowchart-label" id="flowchart-BOOT3-12" data-node="true" data-id="BOOT3" transform="translate(335.6015625, 103)"><rect class="basic label-container" style="" rx="0" ry="0" x="-71.5390625" y="-17.5" width="143.078125" height="35"/><g class="label" style="" transform="translate(0, -10)"><rect/><text style=""><tspan xml:space="preserve" dy="1em" x="0" class="row">Controller :9100</tspan></text></g></g><g class="node default default flowchart-label" id="flowchart-APPS3-14" data-node="true" data-id="APPS3" transform="translate(543.703125, 60.5)"><rect class="basic label-container" style="" rx="0" ry="0" x="-86.5625" y="-17.5" width="173.125" height="35"/><g class="label" style="" transform="translate(0, -10)"><rect/><text style=""><tspan xml:space="preserve" dy="1em" x="0" class="row">19 Configured Apps</tspan></text></g></g><g class="node default default flowchart-label" id="flowchart-ENVOY3-13" data-node="true" data-id="ENVOY3" transform="translate(543.703125, 145.5)"><rect class="basic label-container" style="" rx="0" ry="0" x="-85.546875" y="-17.5" width="171.09375" height="35"/><g class="label" style="" transform="translate(0, -10)"><rect/><text style=""><tspan xml:space="preserve" dy="1em" x="0" class="row">Envoy Gateway :80</tspan></text></g></g></g></g><g class="root" transform="translate(-7.5, 247)"><g class="clusters"><g class="cluster default flowchart-label" id="K8S"><rect style="" rx="0" ry="0" x="8" y="8" width="992.34375" height="325"/><g class="cluster-label" transform="translate(504.171875, 8)"><text style=""><tspan xml:space="preserve" dy="1em" x="0" class="row">Kubernetes Path</tspan></text></g></g></g><g class="edgePaths"><path d="M479.172,170.5L483.339,170.5C487.505,170.5,495.839,170.5,503.289,170.5C510.739,170.5,517.305,170.5,520.589,170.5L523.872,170.5" id="L-ENV1-ENV2-0" class=" edge-thickness-normal edge-pattern-solid flowchart-link LS-ENV1 LE-ENV2" style="fill:none;" marker-end="url(#my-svg_flowchart-pointEnd)"/></g><g class="edgeLabels"><g class="edgeLabel"><g class="label" transform="translate(0, 0)"><rect rx="0" ry="0" width="0" height="0"/><text style=""><tspan xml:space="preserve" dy="1em" x="0" class="row"/></text></g></g></g><g class="nodes"><g class="root" transform="translate(25.5, 35)"><g class="clusters"><g class="cluster default flowchart-label" id="ENV1"><rect style="fill:#e8f2ff;stroke:#1f4f99;stroke-width:2px;" rx="0" ry="0" x="8" y="8" width="446.171875" height="255"/><g class="cluster-label" transform="translate(231.0859375, 8)"><text style=""><tspan xml:space="preserve" dy="1em" x="0" class="row">Namespace: media-dev</tspan></text></g></g></g><g class="edgePaths"><path d="M235.094,68L235.094,72.167C235.094,76.333,235.094,84.667,235.094,92.117C235.094,99.567,235.094,106.133,235.094,109.417L235.094,112.7" id="L-K8S1-BOOT1-0" class=" edge-thickness-normal edge-pattern-solid flowchart-link LS-K8S1 LE-BOOT1" style="fill:none;" marker-end="url(#my-svg_flowchart-pointEnd)"/><path d="M192.457,153L182.305,157.167C172.153,161.333,151.85,169.667,141.699,177.117C131.547,184.567,131.547,191.133,131.547,194.417L131.547,197.7" id="L-BOOT1-APPS1-0" class=" edge-thickness-normal edge-pattern-solid flowchart-link LS-BOOT1 LE-APPS1" style="fill:none;" marker-end="url(#my-svg_flowchart-pointEnd)"/><path d="M277.731,153L287.882,157.167C298.034,161.333,318.337,169.667,328.489,177.117C338.641,184.567,338.641,191.133,338.641,194.417L338.641,197.7" id="L-BOOT1-ENVOY1-0" class=" edge-thickness-normal edge-pattern-solid flowchart-link LS-BOOT1 LE-ENVOY1" style="fill:none;" marker-end="url(#my-svg_flowchart-pointEnd)"/></g><g class="edgeLabels"><g class="edgeLabel"><g class="label" transform="translate(0, 0)"><rect rx="0" ry="0" width="0" height="0"/><text style=""><tspan xml:space="preserve" dy="1em" x="0" class="row"/></text></g></g><g class="edgeLabel"><g class="label" transform="translate(0, 0)"><rect rx="0" ry="0" width="0" height="0"/><text style=""><tspan xml:space="preserve" dy="1em" x="0" class="row"/></text></g></g><g class="edgeLabel"><g class="label" transform="translate(0, 0)"><rect rx="0" ry="0" width="0" height="0"/><text style=""><tspan xml:space="preserve" dy="1em" x="0" class="row"/></text></g></g></g><g class="nodes"><g class="node default default flowchart-label" id="flowchart-K8S1-3" data-node="true" data-id="K8S1" transform="translate(235.09375, 50.5)"><rect class="basic label-container" style="" rx="0" ry="0" x="-90.53125" y="-17.5" width="181.0625" height="35"/><g class="label" style="" transform="translate(0, -10)"><rect/><text style=""><tspan xml:space="preserve" dy="1em" x="0" class="row">Kustomize Manifests</tspan></text></g></g><g class="node default default flowchart-label" id="flowchart-BOOT1-4" data-node="true" data-id="BOOT1" transform="translate(235.09375, 135.5)"><rect class="basic label-container" style="" rx="0" ry="0" x="-88.0546875" y="-17.5" width="176.109375" height="35"/><g class="label" style="" transform="translate(0, -10)"><rect/><text style=""><tspan xml:space="preserve" dy="1em" x="0" class="row">Controller API :9100</tspan></text></g></g><g class="node default default flowchart-label" id="flowchart-APPS1-6" data-node="true" data-id="APPS1" transform="translate(131.546875, 220.5)"><rect class="basic label-container" style="" rx="0" ry="0" x="-86.5625" y="-17.5" width="173.125" height="35"/><g class="label" style="" transform="translate(0, -10)"><rect/><text style=""><tspan xml:space="preserve" dy="1em" x="0" class="row">19 Configured Apps</tspan></text></g></g><g class="node default default flowchart-label" id="flowchart-ENVOY1-5" data-node="true" data-id="ENVOY1" transform="translate(338.640625, 220.5)"><rect class="basic label-container" style="" rx="0" ry="0" x="-70.53125" y="-17.5" width="141.0625" height="35"/><g class="label" style="" transform="translate(0, -10)"><rect/><text style=""><tspan xml:space="preserve" dy="1em" x="0" class="row">Envoy Gateway</tspan></text></g></g></g></g><g class="root" transform="translate(521.671875, 35)"><g class="clusters"><g class="cluster default flowchart-label" id="ENV2"><rect style="fill:#e9ffe8;stroke:#1a7f37;stroke-width:2px;" rx="0" ry="0" x="8" y="8" width="446.171875" height="255"/><g class="cluster-label" transform="translate(231.0859375, 8)"><text style=""><tspan xml:space="preserve" dy="1em" x="0" class="row">Namespace: media-stack</tspan></text></g></g></g><g class="edgePaths"><path d="M235.094,68L235.094,72.167C235.094,76.333,235.094,84.667,235.094,92.117C235.094,99.567,235.094,106.133,235.094,109.417L235.094,112.7" id="L-K8S2-BOOT2-0" class=" edge-thickness-normal edge-pattern-solid flowchart-link LS-K8S2 LE-BOOT2" style="fill:none;" marker-end="url(#my-svg_flowchart-pointEnd)"/><path d="M192.457,153L182.305,157.167C172.153,161.333,151.85,169.667,141.699,177.117C131.547,184.567,131.547,191.133,131.547,194.417L131.547,197.7" id="L-BOOT2-APPS2-0" class=" edge-thickness-normal edge-pattern-solid flowchart-link LS-BOOT2 LE-APPS2" style="fill:none;" marker-end="url(#my-svg_flowchart-pointEnd)"/><path d="M277.731,153L287.882,157.167C298.034,161.333,318.337,169.667,328.489,177.117C338.641,184.567,338.641,191.133,338.641,194.417L338.641,197.7" id="L-BOOT2-ENVOY2-0" class=" edge-thickness-normal edge-pattern-solid flowchart-link LS-BOOT2 LE-ENVOY2" style="fill:none;" marker-end="url(#my-svg_flowchart-pointEnd)"/></g><g class="edgeLabels"><g class="edgeLabel"><g class="label" transform="translate(0, 0)"><rect rx="0" ry="0" width="0" height="0"/><text style=""><tspan xml:space="preserve" dy="1em" x="0" class="row"/></text></g></g><g class="edgeLabel"><g class="label" transform="translate(0, 0)"><rect rx="0" ry="0" width="0" height="0"/><text style=""><tspan xml:space="preserve" dy="1em" x="0" class="row"/></text></g></g><g class="edgeLabel"><g class="label" transform="translate(0, 0)"><rect rx="0" ry="0" width="0" height="0"/><text style=""><tspan xml:space="preserve" dy="1em" x="0" class="row"/></text></g></g></g><g class="nodes"><g class="node default default flowchart-label" id="flowchart-K8S2-7" data-node="true" data-id="K8S2" transform="translate(235.09375, 50.5)"><rect class="basic label-container" style="" rx="0" ry="0" x="-90.53125" y="-17.5" width="181.0625" height="35"/><g class="label" style="" transform="translate(0, -10)"><rect/><text style=""><tspan xml:space="preserve" dy="1em" x="0" class="row">Kustomize Manifests</tspan></text></g></g><g class="node default default flowchart-label" id="flowchart-BOOT2-8" data-node="true" data-id="BOOT2" transform="translate(235.09375, 135.5)"><rect class="basic label-container" style="" rx="0" ry="0" x="-88.0546875" y="-17.5" width="176.109375" height="35"/><g class="label" style="" transform="translate(0, -10)"><rect/><text style=""><tspan xml:space="preserve" dy="1em" x="0" class="row">Controller API :9100</tspan></text></g></g><g class="node default default flowchart-label" id="flowchart-APPS2-10" data-node="true" data-id="APPS2" transform="translate(131.546875, 220.5)"><rect class="basic label-container" style="" rx="0" ry="0" x="-86.5625" y="-17.5" width="173.125" height="35"/><g class="label" style="" transform="translate(0, -10)"><rect/><text style=""><tspan xml:space="preserve" dy="1em" x="0" class="row">19 Configured Apps</tspan></text></g></g><g class="node default default flowchart-label" id="flowchart-ENVOY2-9" data-node="true" data-id="ENVOY2" transform="translate(338.640625, 220.5)"><rect class="basic label-container" style="" rx="0" ry="0" x="-70.53125" y="-17.5" width="141.0625" height="35"/><g class="label" style="" transform="translate(0, -10)"><rect/><text style=""><tspan xml:space="preserve" dy="1em" x="0" class="row">Envoy Gateway</tspan></text></g></g></g></g></g></g><g class="node default default flowchart-label" id="flowchart-OP-0" data-node="true" data-id="OP" transform="translate(931.07421875, 17.5)"><rect class="basic label-container" style="" rx="0" ry="0" x="-43.0234375" y="-17.5" width="86.046875" height="35"/><g class="label" style="" transform="translate(0, -10)"><rect/><text style=""><tspan xml:space="preserve" dy="1em" x="0" class="row">Operator</tspan></text></g></g><g class="node default default flowchart-label" id="flowchart-GIT-1" data-node="true" data-id="GIT" transform="translate(931.07421875, 102.5)"><rect class="basic label-container" style="" rx="0" ry="0" x="-64.5234375" y="-17.5" width="129.046875" height="35"/><g class="label" style="" transform="translate(0, -10)"><rect/><text style=""><tspan xml:space="preserve" dy="1em" x="0" class="row">Git Repository</tspan></text></g></g><g class="node default default flowchart-label" id="flowchart-CI-2" data-node="true" data-id="CI" transform="translate(931.07421875, 187.5)"><rect class="basic label-container" style="" rx="0" ry="0" x="-57.8671875" y="-17.5" width="115.734375" height="35"/><g class="label" style="" transform="translate(0, -10)"><rect/><text style=""><tspan xml:space="preserve" dy="1em" x="0" class="row">CI Validation</tspan></text></g></g></g></g></g></svg>