<svg id="my-svg" width="100%" xmlns="http://www.w3.org/2000/svg" xmlns:xlink="http://www.w3.org/1999/xlink" style="max-width: 638.281px; background-color: white;" viewBox="-7.5 -8 638.28125 531" role="graphics-document document" aria-roledescription="flowchart-v2"><style>#my-svg{font-family:"trebuchet ms",verdana,arial,sans-serif;font-size:18px;fill:#000000;}#my-svg .error-icon{fill:#552222;}#my-svg .error-text{fill:#552222;stroke:#552222;}#my-svg .edge-thickness-normal{stroke-width:2px;}#my-svg .edge-thickness-thick{stroke-width:3.5px;}#my-svg .edge-pattern-solid{stroke-dasharray:0;}#my-svg .edge-pattern-dashed{stroke-dasharray:3;}#my-svg .edge-pattern-dotted{stroke-dasharray:2;}#my-svg .marker{fill:#1f2937;stroke:#1f2937;}#my-svg .marker.cross{stroke:#1f2937;}#my-svg svg{font-family:"trebuchet ms",verdana,arial,sans-serif;font-size:18px;}#my-svg .label{font-family:"trebuchet ms",verdana,arial,sans-serif;color:#000000;}#my-svg .cluster-label text{fill:#333;}#my-svg .cluster-label span,#my-svg p{color:#333;}#my-svg .label text,#my-svg span,#my-svg p{fill:#000000;color:#000000;}#my-svg .node rect,#my-svg .node circle,#my-svg .node ellipse,#my-svg .node polygon,#my-svg .node path{fill:#eee;stroke:#999;stroke-width:1px;}#my-svg .flowchart-label text{text-anchor:middle;}#my-svg .node .katex path{fill:#000;stroke:#000;stroke-width:1px;}#my-svg .node .label{text-align:center;}#my-svg .node.clickable{cursor:pointer;}#my-svg .arrowheadPath{fill:#333333;}#my-svg .edgePath .path{stroke:#1f2937;stroke-width:2.0px;}#my-svg .flowchart-link{stroke:#1f2937;fill:none;}#my-svg .edgeLabel{background-color:white;text-align:center;}#my-svg .edgeLabel rect{opacity:0.5;background-color:white;fill:white;}#my-svg .labelBkg{background-color:rgba(255, 255, 255, 0.5);}#my-svg .cluster rect{fill:#f8fafc;stroke:#334155;stroke-width:1px;}#my-svg .cluster text{fill:#333;}#my-svg .cluster span,#my-svg p{color:#333;}#my-svg div.mermaidTooltip{position:absolute;text-align:center;max-width:200px;padding:2px;font-family:"trebuchet ms",verdana,arial,sans-serif;font-size:12px;background:#fef9c3;border:1px solid #707070;border-radius:2px;pointer-events:none;z-index:100;}#my-svg .flowchartTitleText{text-anchor:middle;font-size:18px;fill:#000000;}#my-svg :root{--mermaid-font-family:"trebuchet ms",verdana,arial,sans-serif;}</style><g><marker id="my-svg_flowchart-pointEnd" class="marker flowchart" viewBox="0 0 10 10" refX="6" refY="5" markerUnits="userSpaceOnUse" markerWidth="12" markerHeight="12" orient="auto"><path d="M 0 0 L 10 5 L 0 10 z" class="arrowMarkerPath" style="stroke-width: 1; stroke-dasharray: 1, 0;"/></marker><marker id="my-svg_flowchart-pointStart" class="marker flowchart" viewBox="0 0 10 10" refX="4.5" refY="5" markerUnits="userSpaceOnUse" markerWidth="12" markerHeight="12" orient="auto"><path d="M 0 5 L 10 10 L 10 0 z" class="arrowMarkerPath" style="stroke-width: 1; stroke-dasharray: 1, 0;"/></marker><marker id="my-svg_flowchart-circleEnd" class="marker flowchart" viewBox="0 0 10 10" refX="11" refY="5" markerUnits="userSpaceOnUse" markerWidth="11" markerHeight="11" orient="auto"><circle cx="5" cy="5" r="5" class="arrowMarkerPath" style="stroke-width: 1; stroke-dasharray: 1, 0;"/></marker><marker id="my-svg_flowchart-circleStart" class="marker flowchart" viewBox="0 0 10 10" refX="-1" refY="5" markerUnits="userSpaceOnUse" markerWidth="11" markerHeight="11" orient="auto"><circle cx="5" cy="5" r="5" class="arrowMarkerPath" style="stroke-width: 1; stroke-dasharray: 1, 0;"/></marker><marker id="my-svg_flowchart-crossEnd" class="marker cross flowchart" viewBox="0 0 11 11" refX="12" refY="5.2" markerUnits="userSpaceOnUse" markerWidth="11" markerHeight="11" orient="auto"><path d="M 1,1 l 9,9 M 10,1 l -9,9" class="arrowMarkerPath" style="stroke-width: 2; stroke-dasharray: 1, 0;"/></marker><marker id="my-svg_flowchart-crossStart" class="marker cross flowchart" viewBox="0 0 11 11" refX="-1" refY="5.2" markerUnits="userSpaceOnUse" markerWidth="11" markerHeight="11" orient="auto"><path d="M 1,1 l 9,9 M 10,1 l -9,9" class="arrowMarkerPath" style="stroke-width: 2; stroke-dasharray: 1, 0;"/></marker><g class="root"><g class="clusters"/><g class="edgePaths"><path d="M311.141,35L311.141,39.167C311.141,43.333,311.141,51.667,311.141,59.117C311.141,66.567,311.141,73.133,311.141,76.417L311.141,79.7" id="L-OP-GIT-0" class=" edge-thickness-normal edge-pattern-solid flowchart-link LS-OP LE-GIT" style="fill:none;" marker-end="url(#my-svg_flowchart-pointEnd)"/><path d="M311.141,120L311.141,124.167C311.141,128.333,311.141,136.667,311.141,144.117C311.141,151.567,311.141,158.133,311.141,161.417L311.141,164.7" id="L-GIT-CI-0" class=" edge-thickness-normal edge-pattern-solid flowchart-link LS-GIT LE-CI" style="fill:none;" marker-end="url(#my-svg_flowchart-pointEnd)"/><path d="M311.141,205L311.141,209.167C311.141,213.333,311.141,221.667,311.141,229.117C311.141,236.567,311.141,243.133,311.141,246.417L311.141,249.7" id="L-CI-ENV1-0" class=" edge-thickness-normal edge-pattern-solid flowchart-link LS-CI LE-ENV1" style="fill:none;" marker-end="url(#my-svg_flowchart-pointEnd)"/><path d="M311.141,360L311.141,364.167C311.141,368.333,311.141,376.667,311.141,384.117C311.141,391.567,311.141,398.133,311.141,401.417L311.141,404.7" id="L-ENV1-ENV2-0" class=" edge-thickness-normal edge-pattern-solid flowchart-link LS-ENV1 LE-ENV2" style="fill:none;" marker-end="url(#my-svg_flowchart-pointEnd)"/></g><g class="edgeLabels"><g class="edgeLabel"><g class="label" transform="translate(0, 0)"><rect rx="0" ry="0" width="0" height="0"/><text style=""><tspan xml:space="preserve" dy="1em" x="0" class="row"/></text></g></g><g class="edgeLabel"><g class="label" transform="translate(0, 0)"><rect rx="0" ry="0" width="0" height="0"/><text style=""><tspan xml:space="preserve" dy="1em" x="0" class="row"/></text></g></g><g class="edgeLabel"><g class="label" transform="translate(0, 0)"><rect rx="0" ry="0" width="0" height="0"/><text style=""><tspan xml:space="preserve" dy="1em" x="0" class="row"/></text></g></g><g class="edgeLabel"><g class="label" transform="translate(0, 0)"><rect rx="0" ry="0" width="0" height="0"/><text style=""><tspan xml:space="preserve" dy="1em" x="0" class="row"/></text></g></g></g><g class="nodes"><g class="root" transform="translate(-7.5, 402)"><g class="clusters"><g class="cluster default flowchart-label" id="ENV2"><rect style="fill:#e9ffe8;stroke:#1a7f37;stroke-width:2px;" rx="0" ry="0" x="8" y="8" width="622.28125" height="105"/><g class="cluster-label" transform="translate(319.140625, 8)"><text style=""><tspan xml:space="preserve" dy="1em" x="0" class="row">Namespace: media-stack</tspan></text></g></g></g><g class="edgePaths"><path d="M231.109,60.5L235.276,60.5C239.443,60.5,247.776,60.5,255.226,60.5C262.676,60.5,269.243,60.5,272.526,60.5L275.809,60.5" id="L-K8S2-BOOT2-0" class=" edge-thickness-normal edge-pattern-solid flowchart-link LS-K8S2 LE-BOOT2" style="fill:none;" marker-end="url(#my-svg_flowchart-pointEnd)"/><path d="M407.188,60.5L411.354,60.5C415.521,60.5,423.854,60.5,431.304,60.5C438.754,60.5,445.321,60.5,448.604,60.5L451.888,60.5" id="L-BOOT2-APPS2-0" class=" edge-thickness-normal edge-pattern-solid flowchart-link LS-BOOT2 LE-APPS2" style="fill:none;" marker-end="url(#my-svg_flowchart-pointEnd)"/></g><g class="edgeLabels"><g class="edgeLabel"><g class="label" transform="translate(0, 0)"><rect rx="0" ry="0" width="0" height="0"/><text style=""><tspan xml:space="preserve" dy="1em" x="0" class="row"/></text></g></g><g class="edgeLabel"><g class="label" transform="translate(0, 0)"><rect rx="0" ry="0" width="0" height="0"/><text style=""><tspan xml:space="preserve" dy="1em" x="0" class="row"/></text></g></g></g><g class="nodes"><g class="node default default flowchart-label" id="flowchart-K8S2-6" data-node="true" data-id="K8S2" transform="translate(132.0546875, 60.5)"><rect class="basic label-container" style="" rx="0" ry="0" x="-99.0546875" y="-17.5" width="198.109375" height="35"/><g class="label" style="" transform="translate(0, -10)"><rect/><text style=""><tspan xml:space="preserve" dy="1em" x="0" class="row">Kubernetes Resources</tspan></text></g></g><g class="node default default flowchart-label" id="flowchart-BOOT2-7" data-node="true" data-id="BOOT2" transform="translate(344.1484375, 60.5)"><rect class="basic label-container" style="" rx="0" ry="0" x="-63.0390625" y="-17.5" width="126.078125" height="35"/><g class="label" style="" transform="translate(0, -10)"><rect/><text style=""><tspan xml:space="preserve" dy="1em" x="0" class="row">Bootstrap Job</tspan></text></g></g><g class="node default default flowchart-label" id="flowchart-APPS2-8" data-node="true" data-id="APPS2" transform="translate(531.234375, 60.5)"><rect class="basic label-container" style="" rx="0" ry="0" x="-74.046875" y="-17.5" width="148.09375" height="35"/><g class="label" style="" transform="translate(0, -10)"><rect/><text style=""><tspan xml:space="preserve" dy="1em" x="0" class="row">Configured Apps</tspan></text></g></g></g></g><g class="root" transform="translate(-7.5, 247)"><g class="clusters"><g class="cluster default flowchart-label" id="ENV1"><rect style="fill:#e8f2ff;stroke:#1f4f99;stroke-width:2px;" rx="0" ry="0" x="8" y="8" width="622.28125" height="105"/><g class="cluster-label" transform="translate(319.140625, 8)"><text style=""><tspan xml:space="preserve" dy="1em" x="0" class="row">Namespace: media-stack-dev</tspan></text></g></g></g><g class="edgePaths"><path d="M231.109,60.5L235.276,60.5C239.443,60.5,247.776,60.5,255.226,60.5C262.676,60.5,269.243,60.5,272.526,60.5L275.809,60.5" id="L-K8S1-BOOT1-0" class=" edge-thickness-normal edge-pattern-solid flowchart-link LS-K8S1 LE-BOOT1" style="fill:none;" marker-end="url(#my-svg_flowchart-pointEnd)"/><path d="M407.188,60.5L411.354,60.5C415.521,60.5,423.854,60.5,431.304,60.5C438.754,60.5,445.321,60.5,448.604,60.5L451.888,60.5" id="L-BOOT1-APPS1-0" class=" edge-thickness-normal edge-pattern-solid flowchart-link LS-BOOT1 LE-APPS1" style="fill:none;" marker-end="url(#my-svg_flowchart-pointEnd)"/></g><g class="edgeLabels"><g class="edgeLabel"><g class="label" transform="translate(0, 0)"><rect rx="0" ry="0" width="0" height="0"/><text style=""><tspan xml:space="preserve" dy="1em" x="0" class="row"/></text></g></g><g class="edgeLabel"><g class="label" transform="translate(0, 0)"><rect rx="0" ry="0" width="0" height="0"/><text style=""><tspan xml:space="preserve" dy="1em" x="0" class="row"/></text></g></g></g><g class="nodes"><g class="node default default flowchart-label" id="flowchart-K8S1-3" data-node="true" data-id="K8S1" transform="translate(132.0546875, 60.5)"><rect class="basic label-container" style="" rx="0" ry="0" x="-99.0546875" y="-17.5" width="198.109375" height="35"/><g class="label" style="" transform="translate(0, -10)"><rect/><text style=""><tspan xml:space="preserve" dy="1em" x="0" class="row">Kubernetes Resources</tspan></text></g></g><g class="node default default flowchart-label" id="flowchart-BOOT1-4" data-node="true" data-id="BOOT1" transform="translate(344.1484375, 60.5)"><rect class="basic label-container" style="" rx="0" ry="0" x="-63.0390625" y="-17.5" width="126.078125" height="35"/><g class="label" style="" transform="translate(0, -10)"><rect/><text style=""><tspan xml:space="preserve" dy="1em" x="0" class="row">Bootstrap Job</tspan></text></g></g><g class="node default default flowchart-label" id="flowchart-APPS1-5" data-node="true" data-id="APPS1" transform="translate(531.234375, 60.5)"><rect class="basic label-container" style="" rx="0" ry="0" x="-74.046875" y="-17.5" width="148.09375" height="35"/><g class="label" style="" transform="translate(0, -10)"><rect/><text style=""><tspan xml:space="preserve" dy="1em" x="0" class="row">Configured Apps</tspan></text></g></g></g></g><g class="node default default flowchart-label" id="flowchart-OP-0" data-node="true" data-id="OP" transform="translate(311.140625, 17.5)"><rect class="basic label-container" style="" rx="0" ry="0" x="-43.0234375" y="-17.5" width="86.046875" height="35"/><g class="label" style="" transform="translate(0, -10)"><rect/><text style=""><tspan xml:space="preserve" dy="1em" x="0" class="row">Operator</tspan></text></g></g><g class="node default default flowchart-label" id="flowchart-GIT-1" data-node="true" data-id="GIT" transform="translate(311.140625, 102.5)"><rect class="basic label-container" style="" rx="0" ry="0" x="-64.5234375" y="-17.5" width="129.046875" height="35"/><g class="label" style="" transform="translate(0, -10)"><rect/><text style=""><tspan xml:space="preserve" dy="1em" x="0" class="row">Git Repository</tspan></text></g></g><g class="node default default flowchart-label" id="flowchart-CI-2" data-node="true" data-id="CI" transform="translate(311.140625, 187.5)"><rect class="basic label-container" style="" rx="0" ry="0" x="-57.8671875" y="-17.5" width="115.734375" height="35"/><g class="label" style="" transform="translate(0, -10)"><rect/><text style=""><tspan xml:space="preserve" dy="1em" x="0" class="row">CI Validation</tspan></text></g></g></g></g></g></svg>