<svg id="my-svg" width="100%" xmlns="http://www.w3.org/2000/svg" xmlns:xlink="http://www.w3.org/1999/xlink" style="max-width: 2052.8px; background-color: white;" viewBox="-7.5 -8 2052.796875 922" role="graphics-document document" aria-roledescription="flowchart-v2"><style>#my-svg{font-family:"trebuchet ms",verdana,arial,sans-serif;font-size:18px;fill:#000000;}#my-svg .error-icon{fill:#552222;}#my-svg .error-text{fill:#552222;stroke:#552222;}#my-svg .edge-thickness-normal{stroke-width:2px;}#my-svg .edge-thickness-thick{stroke-width:3.5px;}#my-svg .edge-pattern-solid{stroke-dasharray:0;}#my-svg .edge-pattern-dashed{stroke-dasharray:3;}#my-svg .edge-pattern-dotted{stroke-dasharray:2;}#my-svg .marker{fill:#1f2937;stroke:#1f2937;}#my-svg .marker.cross{stroke:#1f2937;}#my-svg svg{font-family:"trebuchet ms",verdana,arial,sans-serif;font-size:18px;}#my-svg .label{font-family:"trebuchet ms",verdana,arial,sans-serif;color:#000000;}#my-svg .cluster-label text{fill:#333;}#my-svg .cluster-label span,#my-svg p{color:#333;}#my-svg .label text,#my-svg span,#my-svg p{fill:#000000;color:#000000;}#my-svg .node rect,#my-svg .node circle,#my-svg .node ellipse,#my-svg .node polygon,#my-svg .node path{fill:#eee;stroke:#999;stroke-width:1px;}#my-svg .flowchart-label text{text-anchor:middle;}#my-svg .node .katex path{fill:#000;stroke:#000;stroke-width:1px;}#my-svg .node .label{text-align:center;}#my-svg .node.clickable{cursor:pointer;}#my-svg .arrowheadPath{fill:#333333;}#my-svg .edgePath .path{stroke:#1f2937;stroke-width:2.0px;}#my-svg .flowchart-link{stroke:#1f2937;fill:none;}#my-svg .edgeLabel{background-color:white;text-align:center;}#my-svg .edgeLabel rect{opacity:0.5;background-color:white;fill:white;}#my-svg .labelBkg{background-color:rgba(255, 255, 255, 0.5);}#my-svg .cluster rect{fill:#f8fafc;stroke:#334155;stroke-width:1px;}#my-svg .cluster text{fill:#333;}#my-svg .cluster span,#my-svg p{color:#333;}#my-svg div.mermaidTooltip{position:absolute;text-align:center;max-width:200px;padding:2px;font-family:"trebuchet ms",verdana,arial,sans-serif;font-size:12px;background:#fef9c3;border:1px solid #707070;border-radius:2px;pointer-events:none;z-index:100;}#my-svg .flowchartTitleText{text-anchor:middle;font-size:18px;fill:#000000;}#my-svg :root{--mermaid-font-family:"trebuchet ms",verdana,arial,sans-serif;}</style><g><marker id="my-svg_flowchart-pointEnd" class="marker flowchart" viewBox="0 0 10 10" refX="6" refY="5" markerUnits="userSpaceOnUse" markerWidth="12" markerHeight="12" orient="auto"><path d="M 0 0 L 10 5 L 0 10 z" class="arrowMarkerPath" style="stroke-width: 1; stroke-dasharray: 1, 0;"/></marker><marker id="my-svg_flowchart-pointStart" class="marker flowchart" viewBox="0 0 10 10" refX="4.5" refY="5" markerUnits="userSpaceOnUse" markerWidth="12" markerHeight="12" orient="auto"><path d="M 0 5 L 10 10 L 10 0 z" class="arrowMarkerPath" style="stroke-width: 1; stroke-dasharray: 1, 0;"/></marker><marker id="my-svg_flowchart-circleEnd" class="marker flowchart" viewBox="0 0 10 10" refX="11" refY="5" markerUnits="userSpaceOnUse" markerWidth="11" markerHeight="11" orient="auto"><circle cx="5" cy="5" r="5" class="arrowMarkerPath" style="stroke-width: 1; stroke-dasharray: 1, 0;"/></marker><marker id="my-svg_flowchart-circleStart" class="marker flowchart" viewBox="0 0 10 10" refX="-1" refY="5" markerUnits="userSpaceOnUse" markerWidth="11" markerHeight="11" orient="auto"><circle cx="5" cy="5" r="5" class="arrowMarkerPath" style="stroke-width: 1; stroke-dasharray: 1, 0;"/></marker><marker id="my-svg_flowchart-crossEnd" class="marker cross flowchart" viewBox="0 0 11 11" refX="12" refY="5.2" markerUnits="userSpaceOnUse" markerWidth="11" markerHeight="11" orient="auto"><path d="M 1,1 l 9,9 M 10,1 l -9,9" class="arrowMarkerPath" style="stroke-width: 2; stroke-dasharray: 1, 0;"/></marker><marker id="my-svg_flowchart-crossStart" class="marker cross flowchart" viewBox="0 0 11 11" refX="-1" refY="5.2" markerUnits="userSpaceOnUse" markerWidth="11" markerHeight="11" orient="auto"><path d="M 1,1 l 9,9 M 10,1 l -9,9" class="arrowMarkerPath" style="stroke-width: 2; stroke-dasharray: 1, 0;"/></marker><g class="root"><g class="clusters"/><g class="edgePaths"><path d="M786.566,35L786.566,39.167C786.566,43.333,786.566,51.667,786.566,59.117C786.566,66.567,786.566,73.133,786.566,76.417L786.566,79.7" id="L-OP-GIT-0" class=" edge-thickness-normal edge-pattern-solid flowchart-link LS-OP LE-GIT" style="fill:none;" marker-end="url(#my-svg_flowchart-pointEnd)"/><path d="M786.566,120L786.566,124.167C786.566,128.333,786.566,136.667,786.566,144.117C786.566,151.567,786.566,158.133,786.566,161.417L786.566,164.7" id="L-GIT-CI-0" class=" edge-thickness-normal edge-pattern-solid flowchart-link LS-GIT LE-CI" style="fill:none;" marker-end="url(#my-svg_flowchart-pointEnd)"/><path d="M686.785,206.312L616.132,213.26C545.479,220.208,404.173,234.104,333.52,244.335C262.867,254.567,262.867,261.133,262.867,264.417L262.867,267.7" id="L-CI-K8S-0" class=" edge-thickness-normal edge-pattern-solid flowchart-link LS-CI LE-K8S" style="fill:none;" marker-end="url(#my-svg_flowchart-pointEnd)"/><path d="M886.348,206.312L957.001,213.26C1027.654,220.208,1168.96,234.104,1239.613,278.919C1310.266,323.733,1310.266,399.467,1310.266,437.333L1310.266,475.2" id="L-CI-COMPOSE-0" class=" edge-thickness-normal edge-pattern-solid flowchart-link LS-CI LE-COMPOSE" style="fill:none;" marker-end="url(#my-svg_flowchart-pointEnd)"/></g><g class="edgeLabels"><g class="edgeLabel"><g class="label" transform="translate(0, 0)"><rect rx="0" ry="0" width="0" height="0"/><text style=""><tspan xml:space="preserve" dy="1em" x="0" class="row"/></text></g></g><g class="edgeLabel"><g class="label" transform="translate(0, 0)"><rect rx="0" ry="0" width="0" height="0"/><text style=""><tspan xml:space="preserve" dy="1em" x="0" class="row"/></text></g></g><g class="edgeLabel"><g class="label" transform="translate(0, 0)"><rect rx="0" ry="0" width="0" height="0"/><text style=""><tspan xml:space="preserve" dy="1em" x="0" class="row"/></text></g></g><g class="edgeLabel"><g class="label" transform="translate(0, 0)"><rect rx="0" ry="0" width="0" height="0"/><text style=""><tspan xml:space="preserve" dy="1em" x="0" class="row"/></text></g></g></g><g class="nodes"><g class="root" transform="translate(568.234375, 472.5)"><g class="clusters"><g class="cluster default flowchart-label" id="COMPOSE"><rect style="fill:#fff3e0;stroke:#e65100;stroke-width:2px;" rx="0" ry="0" x="8" y="8" width="1461.0625" height="210"/><g class="cluster-label" transform="translate(738.53125, 8)"><text style=""><tspan xml:space="preserve" dy="1em" x="0" class="row">Docker Compose Path</tspan></text></g></g></g><g class="edgePaths"><path d="M237.474,95.5L260.2,86.958C282.925,78.417,328.377,61.333,372.67,52.792C416.964,44.25,460.099,44.25,513.574,44.25C567.049,44.25,630.865,44.25,681.664,52.44C732.463,60.631,770.246,77.011,789.138,85.202L808.03,93.392" id="L-DC-BOOT3-0" class=" edge-thickness-normal edge-pattern-solid flowchart-link LS-DC LE-BOOT3" style="fill:none;" marker-end="url(#my-svg_flowchart-pointEnd)"/><path d="M885.438,95.5L896.164,89.667C906.891,83.833,928.344,72.167,944.644,66.333C960.944,60.5,972.092,60.5,977.665,60.5L983.239,60.5" id="L-BOOT3-APPS3-0" class=" edge-thickness-normal edge-pattern-solid flowchart-link LS-BOOT3 LE-APPS3" style="fill:none;" marker-end="url(#my-svg_flowchart-pointEnd)"/><path d="M885.438,130.5L896.164,136.333C906.891,142.167,928.344,153.833,942.354,159.667C956.364,165.5,962.93,165.5,966.214,165.5L969.497,165.5" id="L-BOOT3-ENVOY3-0" class=" edge-thickness-normal edge-pattern-solid flowchart-link LS-BOOT3 LE-ENVOY3" style="fill:none;" marker-end="url(#my-svg_flowchart-pointEnd)"/><path d="M924.797,113L928.964,113C933.13,113,941.464,113,967.391,113C993.318,113,1036.839,113,1086.865,113C1136.891,113,1193.422,113,1231.488,114.652C1269.555,116.303,1289.156,119.606,1298.957,121.258L1308.758,122.909" id="L-BOOT3-AUTH3-0" class=" edge-thickness-normal edge-pattern-solid flowchart-link LS-BOOT3 LE-AUTH3" style="fill:none;" marker-end="url(#my-svg_flowchart-pointEnd)"/><path d="M264.5,130.5L282.722,134.833C300.943,139.167,337.385,147.833,358.89,152.167C380.395,156.5,386.961,156.5,390.245,156.5L393.528,156.5" id="L-DC-UI3-0" class=" edge-thickness-normal edge-pattern-solid flowchart-link LS-DC LE-UI3" style="fill:none;" marker-end="url(#my-svg_flowchart-pointEnd)"/><path d="M607.641,156.5L622.147,156.5C636.654,156.5,665.667,156.5,695.118,152.4C724.57,148.301,754.46,140.101,769.406,136.002L784.351,131.902" id="L-UI3-BOOT3-0" class=" edge-thickness-normal edge-pattern-solid flowchart-link LS-UI3 LE-BOOT3" style="fill:none;" marker-end="url(#my-svg_flowchart-pointEnd)"/><path d="M1185.922,165.5L1196.594,165.5C1207.266,165.5,1228.609,165.5,1249.094,163.162C1269.578,160.824,1289.203,156.149,1299.016,153.811L1308.829,151.473" id="L-ENVOY3-AUTH3-0" class=" edge-thickness-normal edge-pattern-solid flowchart-link LS-ENVOY3 LE-AUTH3" style="fill:none;" marker-end="url(#my-svg_flowchart-pointEnd)"/></g><g class="edgeLabels"><g class="edgeLabel"><g class="label" transform="translate(0, 0)"><rect rx="0" ry="0" width="0" height="0"/><text style=""><tspan xml:space="preserve" dy="1em" x="0" class="row"/></text></g></g><g class="edgeLabel"><g class="label" transform="translate(0, 0)"><rect rx="0" ry="0" width="0" height="0"/><text style=""><tspan xml:space="preserve" dy="1em" x="0" class="row"/></text></g></g><g class="edgeLabel"><g class="label" transform="translate(0, 0)"><rect rx="0" ry="0" width="0" height="0"/><text style=""><tspan xml:space="preserve" dy="1em" x="0" class="row"/></text></g></g><g class="edgeLabel"><g class="label" transform="translate(0, 0)"><rect rx="0" ry="0" width="0" height="0"/><text style=""><tspan xml:space="preserve" dy="1em" x="0" class="row"/></text></g></g><g class="edgeLabel"><g class="label" transform="translate(0, 0)"><rect rx="0" ry="0" width="0" height="0"/><text style=""><tspan xml:space="preserve" dy="1em" x="0" class="row"/></text></g></g><g class="edgeLabel" transform="translate(694.6796875, 156.5)"><g class="label" transform="translate(-62.0390625, -10)"><rect rx="0" ry="0" width="124.078125" height="20"/><text style=""><tspan xml:space="preserve" dy="1em" x="0" class="row">/api/* via Envoy</tspan></text></g></g><g class="edgeLabel" transform="translate(1249.953125, 165.5)"><g class="label" transform="translate(-39.03125, -10)"><rect rx="0" ry="0" width="78.0625" height="20"/><text style=""><tspan xml:space="preserve" dy="1em" x="0" class="row">ext_authz</tspan></text></g></g></g><g class="nodes"><g class="node default default flowchart-label" id="flowchart-DC-9" data-node="true" data-id="DC" transform="translate(190.9140625, 113)"><rect class="basic label-container" style="" rx="0" ry="0" x="-157.9140625" y="-17.5" width="315.828125" height="35"/><g class="label" style="" transform="translate(0, -10)"><rect/><text style=""><tspan xml:space="preserve" dy="1em" x="0" class="row">docker compose / deploy.py compose</tspan></text></g></g><g class="node default default flowchart-label" id="flowchart-BOOT3-10" data-node="true" data-id="BOOT3" transform="translate(853.2578125, 113)"><rect class="basic label-container" style="" rx="0" ry="0" x="-71.5390625" y="-17.5" width="143.078125" height="35"/><g class="label" style="" transform="translate(0, -10)"><rect/><text style=""><tspan xml:space="preserve" dy="1em" x="0" class="row">Controller :9100</tspan></text></g></g><g class="node default default flowchart-label" id="flowchart-APPS3-14" data-node="true" data-id="APPS3" transform="translate(1080.359375, 60.5)"><rect class="basic label-container" style="" rx="0" ry="0" x="-91.8203125" y="-17.5" width="183.640625" height="35"/><g class="label" style="" transform="translate(0, -10)"><rect/><text style=""><tspan xml:space="preserve" dy="1em" x="0" class="row">~14 Configured Apps</tspan></text></g></g><g class="node default default flowchart-label" id="flowchart-ENVOY3-12" data-node="true" data-id="ENVOY3" transform="translate(1080.359375, 165.5)"><rect class="basic label-container" style="" rx="0" ry="0" x="-105.5625" y="-17.5" width="211.125" height="35"/><g class="label" style="" transform="translate(0, -10)"><rect/><text style=""><tspan xml:space="preserve" dy="1em" x="0" class="row">Envoy Gateway :80/:443</tspan></text></g></g><g class="node default default flowchart-label" id="flowchart-AUTH3-13" data-node="true" data-id="AUTH3" transform="translate(1379.0234375, 134.75)"><rect class="basic label-container" style="" rx="0" ry="0" x="-65.0390625" y="-17.5" width="130.078125" height="35"/><g class="label" style="" transform="translate(0, -10)"><rect/><text style=""><tspan xml:space="preserve" dy="1em" x="0" class="row">Authelia portal</tspan></text></g></g><g class="node default default flowchart-label" id="flowchart-UI3-11" data-node="true" data-id="UI3" transform="translate(503.234375, 156.5)"><rect class="basic label-container" style="" rx="0" ry="0" x="-104.40625" y="-26.5" width="208.8125" height="53"/><g class="label" style="" transform="translate(0, -19)"><rect/><text style=""><tspan xml:space="preserve" dy="1em" x="0" class="row">media-stack-ui</tspan><tspan xml:space="preserve" dy="1em" x="0" class="row">${UI_PORT:-9101}:8080</tspan></text></g></g></g></g><g class="root" transform="translate(-7.5, 265)"><g class="clusters"><g class="cluster default flowchart-label" id="K8S"><rect style="" rx="0" ry="0" x="8" y="8" width="525.734375" height="633"/><g class="cluster-label" transform="translate(270.8671875, 8)"><text style=""><tspan xml:space="preserve" dy="1em" x="0" class="row">Kubernetes Path</tspan></text></g></g></g><g class="edgePaths"/><g class="edgeLabels"/><g class="nodes"><g class="root" transform="translate(25.5, 35)"><g class="clusters"><g class="cluster default flowchart-label" id="NS"><rect style="fill:#e9ffe8;stroke:#1a7f37;stroke-width:2px;" rx="0" ry="0" x="8" y="8" width="467.734375" height="555"/><g class="cluster-label" transform="translate(241.8671875, 8)"><text style=""><tspan xml:space="preserve" dy="1em" x="0" class="row">Namespace: media-stack</tspan></text></g></g></g><g class="edgePaths"><path d="M171.109,85.369L156.16,89.641C141.21,93.913,111.31,102.456,96.36,115.311C81.41,128.167,81.41,145.333,81.41,164.167C81.41,183,81.41,203.5,99.023,219.76C116.635,236.02,151.86,248.04,169.473,254.05L187.086,260.06" id="L-K8S1-BOOT1-0" class=" edge-thickness-normal edge-pattern-solid flowchart-link LS-K8S1 LE-BOOT1" style="fill:none;" marker-end="url(#my-svg_flowchart-pointEnd)"/><path d="M196.384,312L186.123,316.167C175.862,320.333,155.341,328.667,145.081,336.117C134.82,343.567,134.82,350.133,134.82,353.417L134.82,356.7" id="L-BOOT1-APPS1-0" class=" edge-thickness-normal edge-pattern-solid flowchart-link LS-BOOT1 LE-APPS1" style="fill:none;" marker-end="url(#my-svg_flowchart-pointEnd)"/><path d="M316.723,312L325.384,316.167C334.044,320.333,351.366,328.667,360.027,336.117C368.688,343.567,368.688,350.133,368.688,353.417L368.688,356.7" id="L-BOOT1-ENVOY1-0" class=" edge-thickness-normal edge-pattern-solid flowchart-link LS-BOOT1 LE-ENVOY1" style="fill:none;" marker-end="url(#my-svg_flowchart-pointEnd)"/><path d="M261.641,312L261.641,316.167C261.641,320.333,261.641,328.667,261.641,341.417C261.641,354.167,261.641,371.333,261.641,390.167C261.641,409,261.641,429.5,265.325,444.866C269.009,460.233,276.377,470.466,280.06,475.582L283.744,480.699" id="L-BOOT1-AUTH1-0" class=" edge-thickness-normal edge-pattern-solid flowchart-link LS-BOOT1 LE-AUTH1" style="fill:none;" marker-end="url(#my-svg_flowchart-pointEnd)"/><path d="M312.613,86L320.627,90.167C328.641,94.333,344.67,102.667,352.685,110.117C360.699,117.567,360.699,124.133,360.699,127.417L360.699,130.7" id="L-K8S1-UI1-0" class=" edge-thickness-normal edge-pattern-solid flowchart-link LS-K8S1 LE-UI1" style="fill:none;" marker-end="url(#my-svg_flowchart-pointEnd)"/><path d="M360.699,189L360.699,194.833C360.699,200.667,360.699,212.333,352.054,223.534C343.409,234.735,326.118,245.47,317.473,250.837L308.827,256.204" id="L-UI1-BOOT1-0" class=" edge-thickness-normal edge-pattern-solid flowchart-link LS-UI1 LE-BOOT1" style="fill:none;" marker-end="url(#my-svg_flowchart-pointEnd)"/><path d="M368.688,415L368.688,420.833C368.688,426.667,368.688,438.333,363.365,449.382C358.043,460.43,347.398,470.86,342.075,476.076L336.753,481.291" id="L-ENVOY1-AUTH1-0" class=" edge-thickness-normal edge-pattern-solid flowchart-link LS-ENVOY1 LE-AUTH1" style="fill:none;" marker-end="url(#my-svg_flowchart-pointEnd)"/></g><g class="edgeLabels"><g class="edgeLabel"><g class="label" transform="translate(0, 0)"><rect rx="0" ry="0" width="0" height="0"/><text style=""><tspan xml:space="preserve" dy="1em" x="0" class="row"/></text></g></g><g class="edgeLabel"><g class="label" transform="translate(0, 0)"><rect rx="0" ry="0" width="0" height="0"/><text style=""><tspan xml:space="preserve" dy="1em" x="0" class="row"/></text></g></g><g class="edgeLabel"><g class="label" transform="translate(0, 0)"><rect rx="0" ry="0" width="0" height="0"/><text style=""><tspan xml:space="preserve" dy="1em" x="0" class="row"/></text></g></g><g class="edgeLabel"><g class="label" transform="translate(0, 0)"><rect rx="0" ry="0" width="0" height="0"/><text style=""><tspan xml:space="preserve" dy="1em" x="0" class="row"/></text></g></g><g class="edgeLabel"><g class="label" transform="translate(0, 0)"><rect rx="0" ry="0" width="0" height="0"/><text style=""><tspan xml:space="preserve" dy="1em" x="0" class="row"/></text></g></g><g class="edgeLabel" transform="translate(360.69921875, 224)"><g class="label" transform="translate(-62.0390625, -10)"><rect rx="0" ry="0" width="124.078125" height="20"/><text style=""><tspan xml:space="preserve" dy="1em" x="0" class="row">/api/* via Envoy</tspan></text></g></g><g class="edgeLabel" transform="translate(368.6875, 450)"><g class="label" transform="translate(-39.03125, -10)"><rect rx="0" ry="0" width="78.0625" height="20"/><text style=""><tspan xml:space="preserve" dy="1em" x="0" class="row">ext_authz</tspan></text></g></g></g><g class="nodes"><g class="node default default flowchart-label" id="flowchart-K8S1-3" data-node="true" data-id="K8S1" transform="translate(261.640625, 59.5)"><rect class="basic label-container" style="" rx="0" ry="0" x="-90.53125" y="-26.5" width="181.0625" height="53"/><g class="label" style="" transform="translate(0, -19)"><rect/><text style=""><tspan xml:space="preserve" dy="1em" x="0" class="row">Kustomize Manifests</tspan><tspan xml:space="preserve" dy="1em" x="0" class="row">deploy/k8s/</tspan></text></g></g><g class="node default default flowchart-label" id="flowchart-BOOT1-4" data-node="true" data-id="BOOT1" transform="translate(261.640625, 285.5)"><rect class="basic label-container" style="" rx="0" ry="0" x="-69.5390625" y="-26.5" width="139.078125" height="53"/><g class="label" style="" transform="translate(0, -19)"><rect/><text style=""><tspan xml:space="preserve" dy="1em" x="0" class="row">Controller API</tspan><tspan xml:space="preserve" dy="1em" x="0" class="row">:9100 ClusterIP</tspan></text></g></g><g class="node default default flowchart-label" id="flowchart-APPS1-8" data-node="true" data-id="APPS1" transform="translate(134.8203125, 388.5)"><rect class="basic label-container" style="" rx="0" ry="0" x="-91.8203125" y="-26.5" width="183.640625" height="53"/><g class="label" style="" transform="translate(0, -19)"><rect/><text style=""><tspan xml:space="preserve" dy="1em" x="0" class="row">~14 Configured Apps</tspan><tspan xml:space="preserve" dy="1em" x="0" class="row">+ optional services</tspan></text></g></g><g class="node default default flowchart-label" id="flowchart-ENVOY1-6" data-node="true" data-id="ENVOY1" transform="translate(368.6875, 388.5)"><rect class="basic label-container" style="" rx="0" ry="0" x="-72.046875" y="-26.5" width="144.09375" height="53"/><g class="label" style="" transform="translate(0, -19)"><rect/><text style=""><tspan xml:space="preserve" dy="1em" x="0" class="row">Envoy Gateway</tspan><tspan xml:space="preserve" dy="1em" x="0" class="row">Ingress :80/:443</tspan></text></g></g><g class="node default default flowchart-label" id="flowchart-AUTH1-7" data-node="true" data-id="AUTH1" transform="translate(305.921875, 511.5)"><rect class="basic label-container" style="" rx="0" ry="0" x="-71.546875" y="-26.5" width="143.09375" height="53"/><g class="label" style="" transform="translate(0, -19)"><rect/><text style=""><tspan xml:space="preserve" dy="1em" x="0" class="row">Authelia</tspan><tspan xml:space="preserve" dy="1em" x="0" class="row">ext_authz portal</tspan></text></g></g><g class="node default default flowchart-label" id="flowchart-UI1-5" data-node="true" data-id="UI1" transform="translate(360.69921875, 162.5)"><rect class="basic label-container" style="" rx="0" ry="0" x="-69.5390625" y="-26.5" width="139.078125" height="53"/><g class="label" style="" transform="translate(0, -19)"><rect/><text style=""><tspan xml:space="preserve" dy="1em" x="0" class="row">media-stack-ui</tspan><tspan xml:space="preserve" dy="1em" x="0" class="row">:8080 ClusterIP</tspan></text></g></g></g></g></g></g><g class="node default default flowchart-label" id="flowchart-OP-0" data-node="true" data-id="OP" transform="translate(786.56640625, 17.5)"><rect class="basic label-container" style="" rx="0" ry="0" x="-43.0234375" y="-17.5" width="86.046875" height="35"/><g class="label" style="" transform="translate(0, -10)"><rect/><text style=""><tspan xml:space="preserve" dy="1em" x="0" class="row">Operator</tspan></text></g></g><g class="node default default flowchart-label" id="flowchart-GIT-1" data-node="true" data-id="GIT" transform="translate(786.56640625, 102.5)"><rect class="basic label-container" style="" rx="0" ry="0" x="-64.5234375" y="-17.5" width="129.046875" height="35"/><g class="label" style="" transform="translate(0, -10)"><rect/><text style=""><tspan xml:space="preserve" dy="1em" x="0" class="row">Git Repository</tspan></text></g></g><g class="node default default flowchart-label" id="flowchart-CI-2" data-node="true" data-id="CI" transform="translate(786.56640625, 196.5)"><rect class="basic label-container" style="" rx="0" ry="0" x="-99.78125" y="-26.5" width="199.5625" height="53"/><g class="label" style="" transform="translate(0, -19)"><rect/><text style=""><tspan xml:space="preserve" dy="1em" x="0" class="row">CI Validation</tspan><tspan xml:space="preserve" dy="1em" x="0" class="row">+ ratchets / pre-commit</tspan></text></g></g></g></g></g></svg>