<svg aria-roledescription="flowchart-v2" role="graphics-document document" viewBox="-8 -8 1137.859375 1266" style="max-width: 1137.86px; background-color: white;" xmlns:xlink="http://www.w3.org/1999/xlink" xmlns="http://www.w3.org/2000/svg" width="100%" id="my-svg"><style>#my-svg{font-family:"trebuchet ms",verdana,arial,sans-serif;font-size:16px;fill:#333;}#my-svg .error-icon{fill:#552222;}#my-svg .error-text{fill:#552222;stroke:#552222;}#my-svg .edge-thickness-normal{stroke-width:2px;}#my-svg .edge-thickness-thick{stroke-width:3.5px;}#my-svg .edge-pattern-solid{stroke-dasharray:0;}#my-svg .edge-pattern-dashed{stroke-dasharray:3;}#my-svg .edge-pattern-dotted{stroke-dasharray:2;}#my-svg .marker{fill:#333333;stroke:#333333;}#my-svg .marker.cross{stroke:#333333;}#my-svg svg{font-family:"trebuchet ms",verdana,arial,sans-serif;font-size:16px;}#my-svg .label{font-family:"trebuchet ms",verdana,arial,sans-serif;color:#333;}#my-svg .cluster-label text{fill:#333;}#my-svg .cluster-label span,#my-svg p{color:#333;}#my-svg .label text,#my-svg span,#my-svg p{fill:#333;color:#333;}#my-svg .node rect,#my-svg .node circle,#my-svg .node ellipse,#my-svg .node polygon,#my-svg .node path{fill:#ECECFF;stroke:#9370DB;stroke-width:1px;}#my-svg .flowchart-label text{text-anchor:middle;}#my-svg .node .katex path{fill:#000;stroke:#000;stroke-width:1px;}#my-svg .node .label{text-align:center;}#my-svg .node.clickable{cursor:pointer;}#my-svg .arrowheadPath{fill:#333333;}#my-svg .edgePath .path{stroke:#333333;stroke-width:2.0px;}#my-svg .flowchart-link{stroke:#333333;fill:none;}#my-svg .edgeLabel{background-color:#e8e8e8;text-align:center;}#my-svg .edgeLabel rect{opacity:0.5;background-color:#e8e8e8;fill:#e8e8e8;}#my-svg .labelBkg{background-color:rgba(232, 232, 232, 0.5);}#my-svg .cluster rect{fill:#ffffde;stroke:#aaaa33;stroke-width:1px;}#my-svg .cluster text{fill:#333;}#my-svg .cluster span,#my-svg p{color:#333;}#my-svg div.mermaidTooltip{position:absolute;text-align:center;max-width:200px;padding:2px;font-family:"trebuchet ms",verdana,arial,sans-serif;font-size:12px;background:hsl(80, 100%, 96.2745098039%);border:1px solid #aaaa33;border-radius:2px;pointer-events:none;z-index:100;}#my-svg .flowchartTitleText{text-anchor:middle;font-size:18px;fill:#333;}#my-svg :root{--mermaid-font-family:"trebuchet ms",verdana,arial,sans-serif;}</style><g><marker orient="auto" markerHeight="12" markerWidth="12" markerUnits="userSpaceOnUse" refY="5" refX="6" viewBox="0 0 10 10" class="marker flowchart" id="my-svg_flowchart-pointEnd"><path style="stroke-width: 1; stroke-dasharray: 1, 0;" class="arrowMarkerPath" d="M 0 0 L 10 5 L 0 10 z"/></marker><marker orient="auto" markerHeight="12" markerWidth="12" markerUnits="userSpaceOnUse" refY="5" refX="4.5" viewBox="0 0 10 10" class="marker flowchart" id="my-svg_flowchart-pointStart"><path style="stroke-width: 1; stroke-dasharray: 1, 0;" class="arrowMarkerPath" d="M 0 5 L 10 10 L 10 0 z"/></marker><marker orient="auto" markerHeight="11" markerWidth="11" markerUnits="userSpaceOnUse" refY="5" refX="11" viewBox="0 0 10 10" class="marker flowchart" id="my-svg_flowchart-circleEnd"><circle style="stroke-width: 1; stroke-dasharray: 1, 0;" class="arrowMarkerPath" r="5" cy="5" cx="5"/></marker><marker orient="auto" markerHeight="11" markerWidth="11" markerUnits="userSpaceOnUse" refY="5" refX="-1" viewBox="0 0 10 10" class="marker flowchart" id="my-svg_flowchart-circleStart"><circle style="stroke-width: 1; stroke-dasharray: 1, 0;" class="arrowMarkerPath" r="5" cy="5" cx="5"/></marker><marker orient="auto" markerHeight="11" markerWidth="11" markerUnits="userSpaceOnUse" refY="5.2" refX="12" viewBox="0 0 11 11" class="marker cross flowchart" id="my-svg_flowchart-crossEnd"><path style="stroke-width: 2; stroke-dasharray: 1, 0;" class="arrowMarkerPath" d="M 1,1 l 9,9 M 10,1 l -9,9"/></marker><marker orient="auto" markerHeight="11" markerWidth="11" markerUnits="userSpaceOnUse" refY="5.2" refX="-1" viewBox="0 0 11 11" class="marker cross flowchart" id="my-svg_flowchart-crossStart"><path style="stroke-width: 2; stroke-dasharray: 1, 0;" class="arrowMarkerPath" d="M 1,1 l 9,9 M 10,1 l -9,9"/></marker><g class="root"><g class="clusters"><g id="Apps" class="cluster default flowchart-label"><rect height="919.75" width="865.75" y="330.25" x="256.109375" ry="0" rx="0" style=""/><g transform="translate(600.0546875, 330.25)" class="cluster-label"><foreignObject height="18" width="177.859375"><div style="display: inline-block; white-space: nowrap;" xmlns="http://www.w3.org/1999/xhtml"><span class="nodeLabel">Media Stack Namespace</span></div></foreignObject></g></g><g id="Edge" class="cluster default flowchart-label"><rect height="310.25" width="216.171875" y="0" x="256.109375" ry="0" rx="0" style=""/><g transform="translate(317.9453125, 0)" class="cluster-label"><foreignObject height="18" width="92.5"><div style="display: inline-block; white-space: nowrap;" xmlns="http://www.w3.org/1999/xhtml"><span class="nodeLabel">Cluster Edge</span></div></foreignObject></g></g><g id="Clients" class="cluster default flowchart-label"><rect height="204" width="206.109375" y="49.75" x="0" ry="0" rx="0" style=""/><g transform="translate(78.6015625, 49.75)" class="cluster-label"><foreignObject height="18" width="48.90625"><div style="display: inline-block; white-space: nowrap;" xmlns="http://www.w3.org/1999/xhtml"><span class="nodeLabel">Clients</span></div></foreignObject></g></g></g><g class="edgePaths"><path marker-end="url(#my-svg_flowchart-pointEnd)" style="fill:none;" class="edge-thickness-normal edge-pattern-solid flowchart-link LS-TV LE-Ingress" id="L-TV-Ingress-0" d="M181.109,110.25L185.276,110.25C189.443,110.25,197.776,110.25,206.109,110.25C214.443,110.25,222.776,110.25,231.109,110.25C239.443,110.25,247.776,110.25,257.322,111.457C266.867,112.664,277.625,115.077,283.004,116.284L288.383,117.491"/><path marker-end="url(#my-svg_flowchart-pointEnd)" style="fill:none;" class="edge-thickness-normal edge-pattern-solid flowchart-link LS-Browser LE-Ingress" id="L-Browser-Ingress-0" d="M165.688,202.25L172.424,202.25C179.161,202.25,192.635,202.25,203.539,202.25C214.443,202.25,222.776,202.25,231.109,202.25C239.443,202.25,247.776,202.25,262.428,195.677C277.081,189.105,298.052,175.96,308.537,169.387L319.023,162.815"/><path marker-end="url(#my-svg_flowchart-pointEnd)" style="fill:none;" class="edge-thickness-normal edge-pattern-solid flowchart-link LS-Ingress LE-Homepage" id="L-Ingress-Homepage-0" d="M393.361,109L406.515,97.5C419.668,86,445.975,63,471.373,108.458C496.771,153.917,521.26,267.833,550.35,324.792C579.439,381.75,613.128,381.75,629.973,381.75L646.817,381.75"/><path marker-end="url(#my-svg_flowchart-pointEnd)" style="fill:none;" class="edge-thickness-normal edge-pattern-solid flowchart-link LS-Ingress LE-Jellyseerr" id="L-Ingress-Jellyseerr-0" d="M434.836,151.166L441.077,152.638C447.318,154.111,459.799,157.055,478.285,249.611C496.771,342.167,521.26,524.333,551.167,615.417C581.074,706.5,616.399,706.5,634.061,706.5L651.723,706.5"/><path marker-end="url(#my-svg_flowchart-pointEnd)" style="fill:none;" class="edge-thickness-normal edge-pattern-solid flowchart-link LS-Ingress LE-Jellyfin" id="L-Ingress-Jellyfin-0" d="M401.191,109L413.04,100.833C424.888,92.667,448.585,76.333,472.678,130.375C496.771,184.417,521.26,308.833,559.007,371.042C596.753,433.25,647.755,433.25,690.68,433.25C733.604,433.25,768.451,433.25,789.899,433.25C811.348,433.25,819.399,433.25,823.424,433.25L827.45,433.25"/><path marker-end="url(#my-svg_flowchart-pointEnd)" style="fill:none;" class="edge-thickness-normal edge-pattern-solid flowchart-link LS-Ingress LE-Sonarr" id="L-Ingress-Sonarr-0" d="M434.836,125.023L441.077,124.186C447.318,123.349,459.799,121.674,478.285,196.171C496.771,270.667,521.26,421.333,559.007,496.667C596.753,572,647.755,572,690.68,572C733.604,572,768.451,572,794.471,590.656C820.492,609.312,837.686,646.624,846.284,665.28L854.881,683.937"/><path marker-end="url(#my-svg_flowchart-pointEnd)" style="fill:none;" class="edge-thickness-normal edge-pattern-solid flowchart-link LS-Ingress LE-Radarr" id="L-Ingress-Radarr-0" d="M424.771,160L432.689,163.333C440.608,166.667,456.444,173.333,476.608,277.75C496.771,382.167,521.26,584.333,559.007,685.417C596.753,786.5,647.755,786.5,690.68,786.5C733.604,786.5,768.451,786.5,793.331,795.73C818.211,804.959,833.126,823.418,840.583,832.648L848.041,841.877"/><path marker-end="url(#my-svg_flowchart-pointEnd)" style="fill:none;" class="edge-thickness-normal edge-pattern-solid flowchart-link LS-Ingress LE-Lidarr" id="L-Ingress-Lidarr-0" d="M390.32,160L403.98,173.333C417.641,186.667,444.961,213.333,470.866,352.375C496.771,491.417,521.26,742.833,559.007,868.542C596.753,994.25,647.755,994.25,690.68,994.25C733.604,994.25,768.451,994.25,790.614,995.891C812.778,997.531,822.26,1000.812,827.001,1002.453L831.741,1004.093"/><path marker-end="url(#my-svg_flowchart-pointEnd)" style="fill:none;" class="edge-thickness-normal edge-pattern-solid flowchart-link LS-Ingress LE-Readarr" id="L-Ingress-Readarr-0" d="M383.138,160L397.995,180C412.853,200,442.567,240,469.669,403.083C496.771,566.167,521.26,852.333,559.007,995.417C596.753,1138.5,647.755,1138.5,690.68,1138.5C733.604,1138.5,768.451,1138.5,791.003,1141.737C813.556,1144.974,823.815,1151.448,828.944,1154.685L834.074,1157.922"/><path marker-end="url(#my-svg_flowchart-pointEnd)" style="fill:none;" class="edge-thickness-normal edge-pattern-solid flowchart-link LS-Ingress LE-Bazarr" id="L-Ingress-Bazarr-0" d="M406.275,160L417.276,166.667C428.277,173.333,450.279,186.667,473.525,300.375C496.771,414.083,521.26,628.167,552.946,735.208C584.632,842.25,623.514,842.25,642.954,842.25L662.395,842.25"/><path marker-end="url(#my-svg_flowchart-pointEnd)" style="fill:none;" class="edge-thickness-normal edge-pattern-solid flowchart-link LS-Ingress LE-Prowlarr" id="L-Ingress-Prowlarr-0" d="M396.431,160L409.073,170C421.715,180,446.998,200,471.884,323.042C496.771,446.083,521.26,672.167,551.923,788.458C582.586,904.75,619.421,911.25,637.839,914.5L656.257,917.75"/><path marker-end="url(#my-svg_flowchart-pointEnd)" style="fill:none;" class="edge-thickness-normal edge-pattern-solid flowchart-link LS-Ingress LE-QB" id="L-Ingress-QB-0" d="M434.836,111.952L441.077,109.96C447.318,107.968,459.799,103.984,478.285,174.7C496.771,245.417,521.26,390.833,559.007,463.542C596.753,536.25,647.755,536.25,690.68,536.25C733.604,536.25,768.451,536.25,796.108,536.25C823.766,536.25,844.234,536.25,864.703,536.25C885.172,536.25,905.641,536.25,931.186,591.316C956.732,646.381,987.354,756.512,1002.665,811.578L1017.977,866.644"/><path marker-end="url(#my-svg_flowchart-pointEnd)" style="fill:none;" class="edge-thickness-normal edge-pattern-solid flowchart-link LS-Ingress LE-SAB" id="L-Ingress-SAB-0" d="M386.157,160L400.511,176.667C414.865,193.333,443.573,226.667,470.172,382.875C496.771,539.083,521.26,818.167,559.007,957.708C596.753,1097.25,647.755,1097.25,690.68,1097.25C733.604,1097.25,768.451,1097.25,796.108,1097.25C823.766,1097.25,844.234,1097.25,864.703,1097.25C885.172,1097.25,905.641,1097.25,926.153,1102.632C946.666,1108.014,967.222,1118.778,977.5,1124.16L987.778,1129.541"/><path marker-end="url(#my-svg_flowchart-pointEnd)" style="fill:none;" class="edge-thickness-normal edge-pattern-solid flowchart-link LS-Ingress LE-Maintainerr" id="L-Ingress-Maintainerr-0" d="M434.836,138.095L441.077,138.412C447.318,138.73,459.799,139.365,478.285,220.266C496.771,301.167,521.26,462.333,544.867,542.917C568.473,623.5,591.196,623.5,602.557,623.5L613.919,623.5"/><path marker-end="url(#my-svg_flowchart-pointEnd)" style="fill:none;" class="edge-thickness-normal edge-pattern-solid flowchart-link LS-Ingress LE-Plex" id="L-Ingress-Plex-0" d="M414.768,109L424.353,104.167C433.939,99.333,453.11,89.667,474.94,152.292C496.771,214.917,521.26,349.833,548.942,417.292C576.624,484.75,607.498,484.75,622.935,484.75L638.372,484.75"/><path marker-end="url(#my-svg_flowchart-pointEnd)" style="fill:none;" class="edge-thickness-normal edge-pattern-solid flowchart-link LS-Jellyseerr LE-Sonarr" id="L-Jellyseerr-Sonarr-0" d="M740.492,706.5L750.96,706.5C761.427,706.5,782.362,706.5,796.928,706.417C811.494,706.333,819.691,706.166,823.79,706.083L827.889,705.999"/><path marker-end="url(#my-svg_flowchart-pointEnd)" style="fill:none;" class="edge-thickness-normal edge-pattern-solid flowchart-link LS-Jellyseerr LE-Radarr" id="L-Jellyseerr-Radarr-0" d="M714.439,723L729.248,738.583C744.058,754.167,773.677,785.333,794.344,805.304C815.01,825.274,826.722,834.048,832.579,838.435L838.435,842.822"/><path marker-end="url(#my-svg_flowchart-pointEnd)" style="fill:none;" class="edge-thickness-normal edge-pattern-solid flowchart-link LS-Jellyseerr LE-Jellyfin" id="L-Jellyseerr-Jellyfin-0" d="M706.904,690L722.969,657.458C739.035,624.917,771.166,559.833,794.096,520.417C817.026,481,830.755,467.25,837.619,460.375L844.483,453.501"/><path marker-end="url(#my-svg_flowchart-pointEnd)" style="fill:none;" class="edge-thickness-normal edge-pattern-solid flowchart-link LS-Prowlarr LE-Sonarr" id="L-Prowlarr-Sonarr-0" d="M707.437,908.75L723.413,878.375C739.39,848,771.343,787.25,791.467,755.44C811.591,723.63,819.885,720.76,824.032,719.325L828.179,717.889"/><path marker-end="url(#my-svg_flowchart-pointEnd)" style="fill:none;" class="edge-thickness-normal edge-pattern-solid flowchart-link LS-Prowlarr LE-Radarr" id="L-Prowlarr-Radarr-0" d="M719.602,908.75L733.552,897.708C747.501,886.667,775.399,864.583,793.417,854.867C811.435,845.151,819.573,847.801,823.642,849.126L827.711,850.452"/><path marker-end="url(#my-svg_flowchart-pointEnd)" style="fill:none;" class="edge-thickness-normal edge-pattern-solid flowchart-link LS-Prowlarr LE-Lidarr" id="L-Prowlarr-Lidarr-0" d="M716.963,941.75L731.352,954.792C745.741,967.833,774.519,993.917,793.602,1006.614C812.686,1019.312,822.075,1018.624,826.77,1018.28L831.464,1017.936"/><path marker-end="url(#my-svg_flowchart-pointEnd)" style="fill:none;" class="edge-thickness-normal edge-pattern-solid flowchart-link LS-Prowlarr LE-Readarr" id="L-Prowlarr-Readarr-0" d="M705.569,941.75L721.857,981.208C738.145,1020.667,770.721,1099.583,790.292,1138.975C809.864,1178.366,816.431,1178.233,819.714,1178.166L822.998,1178.099"/><path marker-end="url(#my-svg_flowchart-pointEnd)" style="fill:none;" class="edge-thickness-normal edge-pattern-solid flowchart-link LS-Flare LE-Prowlarr" id="L-Flare-Prowlarr-0" d="M447.281,954L451.448,954C455.615,954,463.948,954,480.359,954C496.771,954,521.26,954,551.925,950.539C582.589,947.078,619.428,940.156,637.848,936.695L656.268,933.234"/><path marker-end="url(#my-svg_flowchart-pointEnd)" style="fill:none;" class="edge-thickness-normal edge-pattern-solid flowchart-link LS-Bazarr LE-Sonarr" id="L-Bazarr-Sonarr-0" d="M716.772,825.75L731.193,812.542C745.614,799.333,774.455,772.917,794.283,756.076C814.112,739.235,824.926,731.97,830.334,728.338L835.741,724.705"/><path marker-end="url(#my-svg_flowchart-pointEnd)" style="fill:none;" class="edge-thickness-normal edge-pattern-solid flowchart-link LS-Bazarr LE-Radarr" id="L-Bazarr-Radarr-0" d="M729.82,848.267L742.066,850.639C754.313,853.011,778.805,857.756,795.076,860.128C811.348,862.5,819.399,862.5,823.424,862.5L827.45,862.5"/><path marker-end="url(#my-svg_flowchart-pointEnd)" style="fill:none;" class="edge-thickness-normal edge-pattern-solid flowchart-link LS-Sonarr LE-QB" id="L-Sonarr-QB-0" d="M896.219,705.25L901.201,705.25C906.182,705.25,916.146,705.25,935.553,732.221C954.96,759.192,983.81,813.134,998.235,840.105L1012.66,867.076"/><path marker-end="url(#my-svg_flowchart-pointEnd)" style="fill:none;" class="edge-thickness-normal edge-pattern-solid flowchart-link LS-Radarr LE-QB" id="L-Radarr-QB-0" d="M896.656,862.5L901.565,862.5C906.474,862.5,916.292,862.5,929.258,864.62C942.224,866.74,958.338,870.979,966.395,873.099L974.453,875.219"/><path marker-end="url(#my-svg_flowchart-pointEnd)" style="fill:none;" class="edge-thickness-normal edge-pattern-solid flowchart-link LS-Lidarr LE-QB" id="L-Lidarr-QB-0" d="M873.689,999L882.426,982.958C891.163,966.917,908.636,934.833,925.41,917.601C942.185,900.368,958.26,897.987,966.298,896.796L974.335,895.605"/><path marker-end="url(#my-svg_flowchart-pointEnd)" style="fill:none;" class="edge-thickness-normal edge-pattern-solid flowchart-link LS-Readarr LE-QB" id="L-Readarr-QB-0" d="M868.684,1160.75L878.255,1121.083C887.826,1081.417,906.968,1002.083,924.617,959.569C942.266,917.055,958.423,911.36,966.501,908.512L974.58,905.665"/><path marker-end="url(#my-svg_flowchart-pointEnd)" style="fill:none;" class="edge-thickness-normal edge-pattern-solid flowchart-link LS-Sonarr LE-SAB" id="L-Sonarr-SAB-0" d="M867.162,721.75L876.987,787.667C886.811,853.583,906.46,985.417,923.143,1053.523C939.825,1121.629,953.541,1126.009,960.399,1128.198L967.257,1130.388"/><path marker-end="url(#my-svg_flowchart-pointEnd)" style="fill:none;" class="edge-thickness-normal edge-pattern-solid flowchart-link LS-Radarr LE-SAB" id="L-Radarr-SAB-0" d="M868.391,879L878.011,922.042C887.63,965.083,906.87,1051.167,919.779,1094.586C932.688,1138.006,939.266,1138.762,942.555,1139.14L945.844,1139.518"/><path marker-end="url(#my-svg_flowchart-pointEnd)" style="fill:none;" class="edge-thickness-normal edge-pattern-solid flowchart-link LS-Lidarr LE-SAB" id="L-Lidarr-SAB-0" d="M871.851,1032L880.894,1052.875C889.937,1073.75,908.023,1115.5,920.353,1136.081C932.683,1156.662,939.257,1156.075,942.544,1155.781L945.83,1155.487"/><path marker-end="url(#my-svg_flowchart-pointEnd)" style="fill:none;" class="edge-thickness-normal edge-pattern-solid flowchart-link LS-Readarr LE-SAB" id="L-Readarr-SAB-0" d="M901.109,1177.25L905.276,1177.25C909.443,1177.25,917.776,1177.25,928.046,1175.457C938.315,1173.665,950.521,1170.079,956.624,1168.286L962.727,1166.494"/><path marker-end="url(#my-svg_flowchart-pointEnd)" style="fill:none;" class="edge-thickness-normal edge-pattern-solid flowchart-link LS-Unpackerr LE-QB" id="L-Unpackerr-QB-0" d="M715.504,1029.25L730.136,1014.833C744.769,1000.417,774.033,971.583,798.899,957.167C823.766,942.75,844.234,942.75,864.703,942.75C885.172,942.75,905.641,942.75,926.477,936.846C947.314,930.943,968.518,919.136,979.12,913.232L989.722,907.328"/><path marker-end="url(#my-svg_flowchart-pointEnd)" style="fill:none;" class="edge-thickness-normal edge-pattern-solid flowchart-link LS-Unpackerr LE-SAB" id="L-Unpackerr-SAB-0" d="M708.12,1062.25L723.982,1090.208C739.845,1118.167,771.571,1174.083,797.668,1202.042C823.766,1230,844.234,1230,864.703,1230C885.172,1230,905.641,1230,928.206,1219.732C950.772,1209.464,975.434,1188.928,987.765,1178.66L1000.096,1168.391"/><path marker-end="url(#my-svg_flowchart-pointEnd)" style="fill:none;" class="edge-thickness-normal edge-pattern-solid flowchart-link LS-Unpackerr LE-Sonarr" id="L-Unpackerr-Sonarr-0" d="M704.935,1029.25L721.328,985.458C737.722,941.667,770.509,854.083,793.755,803.457C817.001,752.831,830.705,739.162,837.557,732.327L844.409,725.493"/><path marker-end="url(#my-svg_flowchart-pointEnd)" style="fill:none;" class="edge-thickness-normal edge-pattern-solid flowchart-link LS-Unpackerr LE-Radarr" id="L-Unpackerr-Radarr-0" d="M710.82,1029.25L726.233,1008.167C741.646,987.083,772.471,944.917,793.184,920.359C813.897,895.802,824.497,888.854,829.798,885.38L835.098,881.905"/><path marker-end="url(#my-svg_flowchart-pointEnd)" style="fill:none;" class="edge-thickness-normal edge-pattern-solid flowchart-link LS-Unpackerr LE-Lidarr" id="L-Unpackerr-Lidarr-0" d="M775.18,1045.75L779.866,1045.75C784.552,1045.75,793.924,1045.75,803.394,1043.394C812.863,1041.037,822.429,1036.325,827.212,1033.969L831.996,1031.612"/><path marker-end="url(#my-svg_flowchart-pointEnd)" style="fill:none;" class="edge-thickness-normal edge-pattern-solid flowchart-link LS-Unpackerr LE-Readarr" id="L-Unpackerr-Readarr-0" d="M709.64,1062.25L725.25,1085.917C740.859,1109.583,772.078,1156.917,791.046,1179.107C810.013,1201.297,816.729,1198.344,820.087,1196.867L823.445,1195.391"/></g><g class="edgeLabels"><g class="edgeLabel"><g transform="translate(0, 0)" class="label"><foreignObject height="0" width="0"><div style="display: inline-block; white-space: nowrap;" xmlns="http://www.w3.org/1999/xhtml"><span class="edgeLabel"></span></div></foreignObject></g></g><g class="edgeLabel"><g transform="translate(0, 0)" class="label"><foreignObject height="0" width="0"><div style="display: inline-block; white-space: nowrap;" xmlns="http://www.w3.org/1999/xhtml"><span class="edgeLabel"></span></div></foreignObject></g></g><g class="edgeLabel"><g transform="translate(0, 0)" class="label"><foreignObject height="0" width="0"><div style="display: inline-block; white-space: nowrap;" xmlns="http://www.w3.org/1999/xhtml"><span class="edgeLabel"></span></div></foreignObject></g></g><g class="edgeLabel"><g transform="translate(0, 0)" class="label"><foreignObject height="0" width="0"><div style="display: inline-block; white-space: nowrap;" xmlns="http://www.w3.org/1999/xhtml"><span class="edgeLabel"></span></div></foreignObject></g></g><g class="edgeLabel"><g transform="translate(0, 0)" class="label"><foreignObject height="0" width="0"><div style="display: inline-block; white-space: nowrap;" xmlns="http://www.w3.org/1999/xhtml"><span class="edgeLabel"></span></div></foreignObject></g></g><g class="edgeLabel"><g transform="translate(0, 0)" class="label"><foreignObject height="0" width="0"><div style="display: inline-block; white-space: nowrap;" xmlns="http://www.w3.org/1999/xhtml"><span class="edgeLabel"></span></div></foreignObject></g></g><g class="edgeLabel"><g transform="translate(0, 0)" class="label"><foreignObject height="0" width="0"><div style="display: inline-block; white-space: nowrap;" xmlns="http://www.w3.org/1999/xhtml"><span class="edgeLabel"></span></div></foreignObject></g></g><g class="edgeLabel"><g transform="translate(0, 0)" class="label"><foreignObject height="0" width="0"><div style="display: inline-block; white-space: nowrap;" xmlns="http://www.w3.org/1999/xhtml"><span class="edgeLabel"></span></div></foreignObject></g></g><g class="edgeLabel"><g transform="translate(0, 0)" class="label"><foreignObject height="0" width="0"><div style="display: inline-block; white-space: nowrap;" xmlns="http://www.w3.org/1999/xhtml"><span class="edgeLabel"></span></div></foreignObject></g></g><g class="edgeLabel"><g transform="translate(0, 0)" class="label"><foreignObject height="0" width="0"><div style="display: inline-block; white-space: nowrap;" xmlns="http://www.w3.org/1999/xhtml"><span class="edgeLabel"></span></div></foreignObject></g></g><g class="edgeLabel"><g transform="translate(0, 0)" class="label"><foreignObject height="0" width="0"><div style="display: inline-block; white-space: nowrap;" xmlns="http://www.w3.org/1999/xhtml"><span class="edgeLabel"></span></div></foreignObject></g></g><g class="edgeLabel"><g transform="translate(0, 0)" class="label"><foreignObject height="0" width="0"><div style="display: inline-block; white-space: nowrap;" xmlns="http://www.w3.org/1999/xhtml"><span class="edgeLabel"></span></div></foreignObject></g></g><g class="edgeLabel"><g transform="translate(0, 0)" class="label"><foreignObject height="0" width="0"><div style="display: inline-block; white-space: nowrap;" xmlns="http://www.w3.org/1999/xhtml"><span class="edgeLabel"></span></div></foreignObject></g></g><g class="edgeLabel"><g transform="translate(0, 0)" class="label"><foreignObject height="0" width="0"><div style="display: inline-block; white-space: nowrap;" xmlns="http://www.w3.org/1999/xhtml"><span class="edgeLabel"></span></div></foreignObject></g></g><g class="edgeLabel"><g transform="translate(0, 0)" class="label"><foreignObject height="0" width="0"><div style="display: inline-block; white-space: nowrap;" xmlns="http://www.w3.org/1999/xhtml"><span class="edgeLabel"></span></div></foreignObject></g></g><g class="edgeLabel"><g transform="translate(0, 0)" class="label"><foreignObject height="0" width="0"><div style="display: inline-block; white-space: nowrap;" xmlns="http://www.w3.org/1999/xhtml"><span class="edgeLabel"></span></div></foreignObject></g></g><g class="edgeLabel"><g transform="translate(0, 0)" class="label"><foreignObject height="0" width="0"><div style="display: inline-block; white-space: nowrap;" xmlns="http://www.w3.org/1999/xhtml"><span class="edgeLabel"></span></div></foreignObject></g></g><g class="edgeLabel"><g transform="translate(0, 0)" class="label"><foreignObject height="0" width="0"><div style="display: inline-block; white-space: nowrap;" xmlns="http://www.w3.org/1999/xhtml"><span class="edgeLabel"></span></div></foreignObject></g></g><g class="edgeLabel"><g transform="translate(0, 0)" class="label"><foreignObject height="0" width="0"><div style="display: inline-block; white-space: nowrap;" xmlns="http://www.w3.org/1999/xhtml"><span class="edgeLabel"></span></div></foreignObject></g></g><g class="edgeLabel"><g transform="translate(0, 0)" class="label"><foreignObject height="0" width="0"><div style="display: inline-block; white-space: nowrap;" xmlns="http://www.w3.org/1999/xhtml"><span class="edgeLabel"></span></div></foreignObject></g></g><g class="edgeLabel"><g transform="translate(0, 0)" class="label"><foreignObject height="0" width="0"><div style="display: inline-block; white-space: nowrap;" xmlns="http://www.w3.org/1999/xhtml"><span class="edgeLabel"></span></div></foreignObject></g></g><g class="edgeLabel"><g transform="translate(0, 0)" class="label"><foreignObject height="0" width="0"><div style="display: inline-block; white-space: nowrap;" xmlns="http://www.w3.org/1999/xhtml"><span class="edgeLabel"></span></div></foreignObject></g></g><g transform="translate(545.75, 954)" class="edgeLabel"><g transform="translate(-48.46875, -9)" class="label"><foreignObject height="18" width="96.9375"><div style="display: inline-block; white-space: nowrap;" xmlns="http://www.w3.org/1999/xhtml"><span class="edgeLabel">Indexer proxy</span></div></foreignObject></g></g><g class="edgeLabel"><g transform="translate(0, 0)" class="label"><foreignObject height="0" width="0"><div style="display: inline-block; white-space: nowrap;" xmlns="http://www.w3.org/1999/xhtml"><span class="edgeLabel"></span></div></foreignObject></g></g><g class="edgeLabel"><g transform="translate(0, 0)" class="label"><foreignObject height="0" width="0"><div style="display: inline-block; white-space: nowrap;" xmlns="http://www.w3.org/1999/xhtml"><span class="edgeLabel"></span></div></foreignObject></g></g><g class="edgeLabel"><g transform="translate(0, 0)" class="label"><foreignObject height="0" width="0"><div style="display: inline-block; white-space: nowrap;" xmlns="http://www.w3.org/1999/xhtml"><span class="edgeLabel"></span></div></foreignObject></g></g><g class="edgeLabel"><g transform="translate(0, 0)" class="label"><foreignObject height="0" width="0"><div style="display: inline-block; white-space: nowrap;" xmlns="http://www.w3.org/1999/xhtml"><span class="edgeLabel"></span></div></foreignObject></g></g><g class="edgeLabel"><g transform="translate(0, 0)" class="label"><foreignObject height="0" width="0"><div style="display: inline-block; white-space: nowrap;" xmlns="http://www.w3.org/1999/xhtml"><span class="edgeLabel"></span></div></foreignObject></g></g><g class="edgeLabel"><g transform="translate(0, 0)" class="label"><foreignObject height="0" width="0"><div style="display: inline-block; white-space: nowrap;" xmlns="http://www.w3.org/1999/xhtml"><span class="edgeLabel"></span></div></foreignObject></g></g><g class="edgeLabel"><g transform="translate(0, 0)" class="label"><foreignObject height="0" width="0"><div style="display: inline-block; white-space: nowrap;" xmlns="http://www.w3.org/1999/xhtml"><span class="edgeLabel"></span></div></foreignObject></g></g><g class="edgeLabel"><g transform="translate(0, 0)" class="label"><foreignObject height="0" width="0"><div style="display: inline-block; white-space: nowrap;" xmlns="http://www.w3.org/1999/xhtml"><span class="edgeLabel"></span></div></foreignObject></g></g><g class="edgeLabel"><g transform="translate(0, 0)" class="label"><foreignObject height="0" width="0"><div style="display: inline-block; white-space: nowrap;" xmlns="http://www.w3.org/1999/xhtml"><span class="edgeLabel"></span></div></foreignObject></g></g><g class="edgeLabel"><g transform="translate(0, 0)" class="label"><foreignObject height="0" width="0"><div style="display: inline-block; white-space: nowrap;" xmlns="http://www.w3.org/1999/xhtml"><span class="edgeLabel"></span></div></foreignObject></g></g><g class="edgeLabel"><g transform="translate(0, 0)" class="label"><foreignObject height="0" width="0"><div style="display: inline-block; white-space: nowrap;" xmlns="http://www.w3.org/1999/xhtml"><span class="edgeLabel"></span></div></foreignObject></g></g><g class="edgeLabel"><g transform="translate(0, 0)" class="label"><foreignObject height="0" width="0"><div style="display: inline-block; white-space: nowrap;" xmlns="http://www.w3.org/1999/xhtml"><span class="edgeLabel"></span></div></foreignObject></g></g><g class="edgeLabel"><g transform="translate(0, 0)" class="label"><foreignObject height="0" width="0"><div style="display: inline-block; white-space: nowrap;" xmlns="http://www.w3.org/1999/xhtml"><span class="edgeLabel"></span></div></foreignObject></g></g><g class="edgeLabel"><g transform="translate(0, 0)" class="label"><foreignObject height="0" width="0"><div style="display: inline-block; white-space: nowrap;" xmlns="http://www.w3.org/1999/xhtml"><span class="edgeLabel"></span></div></foreignObject></g></g><g class="edgeLabel"><g transform="translate(0, 0)" class="label"><foreignObject height="0" width="0"><div style="display: inline-block; white-space: nowrap;" xmlns="http://www.w3.org/1999/xhtml"><span class="edgeLabel"></span></div></foreignObject></g></g><g class="edgeLabel"><g transform="translate(0, 0)" class="label"><foreignObject height="0" width="0"><div style="display: inline-block; white-space: nowrap;" xmlns="http://www.w3.org/1999/xhtml"><span class="edgeLabel"></span></div></foreignObject></g></g></g><g class="nodes"><g transform="translate(698.7578125, 381.75)" data-id="Homepage" data-node="true" id="flowchart-Homepage-3" class="node default default flowchart-label"><rect height="33" width="93.28125" y="-16.5" x="-46.640625" ry="0" rx="0" style="" class="basic label-container"/><g transform="translate(-39.140625, -9)" style="" class="label"><rect/><foreignObject height="18" width="78.28125"><div style="display: inline-block; white-space: nowrap;" xmlns="http://www.w3.org/1999/xhtml"><span class="nodeLabel">Homepage</span></div></foreignObject></g></g><g transform="translate(698.7578125, 706.5)" data-id="Jellyseerr" data-node="true" id="flowchart-Jellyseerr-4" class="node default default flowchart-label"><rect height="33" width="83.46875" y="-16.5" x="-41.734375" ry="0" rx="0" style="" class="basic label-container"/><g transform="translate(-34.234375, -9)" style="" class="label"><rect/><foreignObject height="18" width="68.46875"><div style="display: inline-block; white-space: nowrap;" xmlns="http://www.w3.org/1999/xhtml"><span class="nodeLabel">Jellyseerr</span></div></foreignObject></g></g><g transform="translate(864.703125, 433.25)" data-id="Jellyfin" data-node="true" id="flowchart-Jellyfin-5" class="node default default flowchart-label"><rect height="33" width="63.90625" y="-16.5" x="-31.953125" ry="0" rx="0" style="" class="basic label-container"/><g transform="translate(-24.453125, -9)" style="" class="label"><rect/><foreignObject height="18" width="48.90625"><div style="display: inline-block; white-space: nowrap;" xmlns="http://www.w3.org/1999/xhtml"><span class="nodeLabel">Jellyfin</span></div></foreignObject></g></g><g transform="translate(698.7578125, 484.75)" data-id="Plex" data-node="true" id="flowchart-Plex-6" class="node default default flowchart-label"><rect height="33" width="110.171875" y="-16.5" x="-55.0859375" ry="0" rx="0" style="" class="basic label-container"/><g transform="translate(-47.5859375, -9)" style="" class="label"><rect/><foreignObject height="18" width="95.171875"><div style="display: inline-block; white-space: nowrap;" xmlns="http://www.w3.org/1999/xhtml"><span class="nodeLabel">Plex Optional</span></div></foreignObject></g></g><g transform="translate(864.703125, 705.25)" data-id="Sonarr" data-node="true" id="flowchart-Sonarr-7" class="node default default flowchart-label"><rect height="33" width="63.03125" y="-16.5" x="-31.515625" ry="0" rx="0" style="" class="basic label-container"/><g transform="translate(-24.015625, -9)" style="" class="label"><rect/><foreignObject height="18" width="48.03125"><div style="display: inline-block; white-space: nowrap;" xmlns="http://www.w3.org/1999/xhtml"><span class="nodeLabel">Sonarr</span></div></foreignObject></g></g><g transform="translate(864.703125, 862.5)" data-id="Radarr" data-node="true" id="flowchart-Radarr-8" class="node default default flowchart-label"><rect height="33" width="63.90625" y="-16.5" x="-31.953125" ry="0" rx="0" style="" class="basic label-container"/><g transform="translate(-24.453125, -9)" style="" class="label"><rect/><foreignObject height="18" width="48.90625"><div style="display: inline-block; white-space: nowrap;" xmlns="http://www.w3.org/1999/xhtml"><span class="nodeLabel">Radarr</span></div></foreignObject></g></g><g transform="translate(864.703125, 1015.5)" data-id="Lidarr" data-node="true" id="flowchart-Lidarr-9" class="node default default flowchart-label"><rect height="33" width="55.90625" y="-16.5" x="-27.953125" ry="0" rx="0" style="" class="basic label-container"/><g transform="translate(-20.453125, -9)" style="" class="label"><rect/><foreignObject height="18" width="40.90625"><div style="display: inline-block; white-space: nowrap;" xmlns="http://www.w3.org/1999/xhtml"><span class="nodeLabel">Lidarr</span></div></foreignObject></g></g><g transform="translate(864.703125, 1177.25)" data-id="Readarr" data-node="true" id="flowchart-Readarr-10" class="node default default flowchart-label"><rect height="33" width="72.8125" y="-16.5" x="-36.40625" ry="0" rx="0" style="" class="basic label-container"/><g transform="translate(-28.90625, -9)" style="" class="label"><rect/><foreignObject height="18" width="57.8125"><div style="display: inline-block; white-space: nowrap;" xmlns="http://www.w3.org/1999/xhtml"><span class="nodeLabel">Readarr</span></div></foreignObject></g></g><g transform="translate(698.7578125, 842.25)" data-id="Bazarr" data-node="true" id="flowchart-Bazarr-11" class="node default default flowchart-label"><rect height="33" width="62.125" y="-16.5" x="-31.0625" ry="0" rx="0" style="" class="basic label-container"/><g transform="translate(-23.5625, -9)" style="" class="label"><rect/><foreignObject height="18" width="47.125"><div style="display: inline-block; white-space: nowrap;" xmlns="http://www.w3.org/1999/xhtml"><span class="nodeLabel">Bazarr</span></div></foreignObject></g></g><g transform="translate(698.7578125, 925.25)" data-id="Prowlarr" data-node="true" id="flowchart-Prowlarr-12" class="node default default flowchart-label"><rect height="33" width="74.5625" y="-16.5" x="-37.28125" ry="0" rx="0" style="" class="basic label-container"/><g transform="translate(-29.78125, -9)" style="" class="label"><rect/><foreignObject height="18" width="59.5625"><div style="display: inline-block; white-space: nowrap;" xmlns="http://www.w3.org/1999/xhtml"><span class="nodeLabel">Prowlarr</span></div></foreignObject></g></g><g transform="translate(1023.984375, 888.25)" data-id="QB" data-node="true" id="flowchart-QB-13" class="node default default flowchart-label"><rect height="33" width="88.8125" y="-16.5" x="-44.40625" ry="0" rx="0" style="" class="basic label-container"/><g transform="translate(-36.90625, -9)" style="" class="label"><rect/><foreignObject height="18" width="73.8125"><div style="display: inline-block; white-space: nowrap;" xmlns="http://www.w3.org/1999/xhtml"><span class="nodeLabel">qBittorrent</span></div></foreignObject></g></g><g transform="translate(1023.984375, 1148.5)" data-id="SAB" data-node="true" id="flowchart-SAB-14" class="node default default flowchart-label"><rect height="33" width="145.75" y="-16.5" x="-72.875" ry="0" rx="0" style="" class="basic label-container"/><g transform="translate(-65.375, -9)" style="" class="label"><rect/><foreignObject height="18" width="130.75"><div style="display: inline-block; white-space: nowrap;" xmlns="http://www.w3.org/1999/xhtml"><span class="nodeLabel">SABnzbd Optional</span></div></foreignObject></g></g><g transform="translate(698.7578125, 623.5)" data-id="Maintainerr" data-node="true" id="flowchart-Maintainerr-15" class="node default default flowchart-label"><rect height="33" width="159.078125" y="-16.5" x="-79.5390625" ry="0" rx="0" style="" class="basic label-container"/><g transform="translate(-72.0390625, -9)" style="" class="label"><rect/><foreignObject height="18" width="144.078125"><div style="display: inline-block; white-space: nowrap;" xmlns="http://www.w3.org/1999/xhtml"><span class="nodeLabel">Maintainerr Optional</span></div></foreignObject></g></g><g transform="translate(698.7578125, 1045.75)" data-id="Unpackerr" data-node="true" id="flowchart-Unpackerr-16" class="node default default flowchart-label"><rect height="33" width="152.84375" y="-16.5" x="-76.421875" ry="0" rx="0" style="" class="basic label-container"/><g transform="translate(-68.921875, -9)" style="" class="label"><rect/><foreignObject height="18" width="137.84375"><div style="display: inline-block; white-space: nowrap;" xmlns="http://www.w3.org/1999/xhtml"><span class="nodeLabel">Unpackerr Optional</span></div></foreignObject></g></g><g transform="translate(364.1953125, 954)" data-id="Flare" data-node="true" id="flowchart-Flare-17" class="node default default flowchart-label"><rect height="33" width="166.171875" y="-16.5" x="-83.0859375" ry="0" rx="0" style="" class="basic label-container"/><g transform="translate(-75.5859375, -9)" style="" class="label"><rect/><foreignObject height="18" width="151.171875"><div style="display: inline-block; white-space: nowrap;" xmlns="http://www.w3.org/1999/xhtml"><span class="nodeLabel">FlareSolverr Optional</span></div></foreignObject></g></g><g transform="translate(364.1953125, 134.5)" data-id="Ingress" data-node="true" id="flowchart-Ingress-2" class="node default default flowchart-label"><rect height="51" width="141.28125" y="-25.5" x="-70.640625" ry="0" rx="0" style="" class="basic label-container"/><g transform="translate(-63.140625, -18)" style="" class="label"><rect/><foreignObject height="36" width="126.28125"><div style="display: inline-block; white-space: nowrap;" xmlns="http://www.w3.org/1999/xhtml"><span class="nodeLabel">Ingress Controller<br />public/nginx</span></div></foreignObject></g></g><g transform="translate(103.0546875, 110.25)" data-id="TV" data-node="true" id="flowchart-TV-0" class="node default default flowchart-label"><rect height="51" width="156.109375" y="-25.5" x="-78.0546875" ry="0" rx="0" style="" class="basic label-container"/><g transform="translate(-70.5546875, -18)" style="" class="label"><rect/><foreignObject height="36" width="141.109375"><div style="display: inline-block; white-space: nowrap;" xmlns="http://www.w3.org/1999/xhtml"><span class="nodeLabel">TV Apps<br />Samsung/Vizio/TCL</span></div></foreignObject></g></g><g transform="translate(103.0546875, 202.25)" data-id="Browser" data-node="true" id="flowchart-Browser-1" class="node default default flowchart-label"><rect height="33" width="125.265625" y="-16.5" x="-62.6328125" ry="0" rx="0" style="" class="basic label-container"/><g transform="translate(-55.1328125, -9)" style="" class="label"><rect/><foreignObject height="18" width="110.265625"><div style="display: inline-block; white-space: nowrap;" xmlns="http://www.w3.org/1999/xhtml"><span class="nodeLabel">Browser/Mobile</span></div></foreignObject></g></g></g></g></g></svg>