<svg id="my-svg" width="100%" xmlns="http://www.w3.org/2000/svg" xmlns:xlink="http://www.w3.org/1999/xlink" style="max-width: 1437.95px; background-color: white;" viewBox="-8 -8 1437.953125 1459.25" role="graphics-document document" aria-roledescription="flowchart-v2"><style>#my-svg{font-family:"trebuchet ms",verdana,arial,sans-serif;font-size:18px;fill:#000000;}#my-svg .error-icon{fill:#552222;}#my-svg .error-text{fill:#552222;stroke:#552222;}#my-svg .edge-thickness-normal{stroke-width:2px;}#my-svg .edge-thickness-thick{stroke-width:3.5px;}#my-svg .edge-pattern-solid{stroke-dasharray:0;}#my-svg .edge-pattern-dashed{stroke-dasharray:3;}#my-svg .edge-pattern-dotted{stroke-dasharray:2;}#my-svg .marker{fill:#1f2937;stroke:#1f2937;}#my-svg .marker.cross{stroke:#1f2937;}#my-svg svg{font-family:"trebuchet ms",verdana,arial,sans-serif;font-size:18px;}#my-svg .label{font-family:"trebuchet ms",verdana,arial,sans-serif;color:#000000;}#my-svg .cluster-label text{fill:#333;}#my-svg .cluster-label span,#my-svg p{color:#333;}#my-svg .label text,#my-svg span,#my-svg p{fill:#000000;color:#000000;}#my-svg .node rect,#my-svg .node circle,#my-svg .node ellipse,#my-svg .node polygon,#my-svg .node path{fill:#eee;stroke:#999;stroke-width:1px;}#my-svg .flowchart-label text{text-anchor:middle;}#my-svg .node .katex path{fill:#000;stroke:#000;stroke-width:1px;}#my-svg .node .label{text-align:center;}#my-svg .node.clickable{cursor:pointer;}#my-svg .arrowheadPath{fill:#333333;}#my-svg .edgePath .path{stroke:#1f2937;stroke-width:2.0px;}#my-svg .flowchart-link{stroke:#1f2937;fill:none;}#my-svg .edgeLabel{background-color:white;text-align:center;}#my-svg .edgeLabel rect{opacity:0.5;background-color:white;fill:white;}#my-svg .labelBkg{background-color:rgba(255, 255, 255, 0.5);}#my-svg .cluster rect{fill:#f8fafc;stroke:#334155;stroke-width:1px;}#my-svg .cluster text{fill:#333;}#my-svg .cluster span,#my-svg p{color:#333;}#my-svg div.mermaidTooltip{position:absolute;text-align:center;max-width:200px;padding:2px;font-family:"trebuchet ms",verdana,arial,sans-serif;font-size:12px;background:#fef9c3;border:1px solid #707070;border-radius:2px;pointer-events:none;z-index:100;}#my-svg .flowchartTitleText{text-anchor:middle;font-size:18px;fill:#000000;}#my-svg :root{--mermaid-font-family:"trebuchet ms",verdana,arial,sans-serif;}</style><g><marker id="my-svg_flowchart-pointEnd" class="marker flowchart" viewBox="0 0 10 10" refX="6" refY="5" markerUnits="userSpaceOnUse" markerWidth="12" markerHeight="12" orient="auto"><path d="M 0 0 L 10 5 L 0 10 z" class="arrowMarkerPath" style="stroke-width: 1; stroke-dasharray: 1, 0;"/></marker><marker id="my-svg_flowchart-pointStart" class="marker flowchart" viewBox="0 0 10 10" refX="4.5" refY="5" markerUnits="userSpaceOnUse" markerWidth="12" markerHeight="12" orient="auto"><path d="M 0 5 L 10 10 L 10 0 z" class="arrowMarkerPath" style="stroke-width: 1; stroke-dasharray: 1, 0;"/></marker><marker id="my-svg_flowchart-circleEnd" class="marker flowchart" viewBox="0 0 10 10" refX="11" refY="5" markerUnits="userSpaceOnUse" markerWidth="11" markerHeight="11" orient="auto"><circle cx="5" cy="5" r="5" class="arrowMarkerPath" style="stroke-width: 1; stroke-dasharray: 1, 0;"/></marker><marker id="my-svg_flowchart-circleStart" class="marker flowchart" viewBox="0 0 10 10" refX="-1" refY="5" markerUnits="userSpaceOnUse" markerWidth="11" markerHeight="11" orient="auto"><circle cx="5" cy="5" r="5" class="arrowMarkerPath" style="stroke-width: 1; stroke-dasharray: 1, 0;"/></marker><marker id="my-svg_flowchart-crossEnd" class="marker cross flowchart" viewBox="0 0 11 11" refX="12" refY="5.2" markerUnits="userSpaceOnUse" markerWidth="11" markerHeight="11" orient="auto"><path d="M 1,1 l 9,9 M 10,1 l -9,9" class="arrowMarkerPath" style="stroke-width: 2; stroke-dasharray: 1, 0;"/></marker><marker id="my-svg_flowchart-crossStart" class="marker cross flowchart" viewBox="0 0 11 11" refX="-1" refY="5.2" markerUnits="userSpaceOnUse" markerWidth="11" markerHeight="11" orient="auto"><path d="M 1,1 l 9,9 M 10,1 l -9,9" class="arrowMarkerPath" style="stroke-width: 2; stroke-dasharray: 1, 0;"/></marker><g class="root"><g class="clusters"><g class="cluster default flowchart-label" id="Apps"><rect style="" rx="0" ry="0" x="273.75" y="370.75" width="1148.203125" height="1072.5"/><g class="cluster-label" transform="translate(847.8515625, 370.75)"><text style=""><tspan xml:space="preserve" dy="1em" x="0" class="row">Media Stack Namespace</tspan></text></g></g><g class="cluster default flowchart-label" id="Edge"><rect style="" rx="0" ry="0" x="273.75" y="0" width="264.625" height="350.75"/><g class="cluster-label" transform="translate(406.0625, 0)"><text style=""><tspan xml:space="preserve" dy="1em" x="0" class="row">Cluster Edge</tspan></text></g></g><g class="cluster default flowchart-label" id="Clients"><rect style="" rx="0" ry="0" x="0" y="59.25" width="223.75" height="208"/><g class="cluster-label" transform="translate(111.875, 59.25)"><text style=""><tspan xml:space="preserve" dy="1em" x="0" class="row">Clients</tspan></text></g></g></g><g class="edgePaths"><path d="M198.75,120.75L202.917,120.75C207.083,120.75,215.417,120.75,223.75,120.75C232.083,120.75,240.417,120.75,248.75,120.75C257.083,120.75,265.417,120.75,273.465,121.74C281.512,122.73,289.275,124.71,293.156,125.7L297.037,126.69" id="L-TV-Envoy-0" class=" edge-thickness-normal edge-pattern-solid flowchart-link LS-TV LE-Envoy" style="fill:none;" marker-end="url(#my-svg_flowchart-pointEnd)"/><path d="M181.398,214.75L188.457,214.75C195.516,214.75,209.633,214.75,220.858,214.75C232.083,214.75,240.417,214.75,248.75,214.75C257.083,214.75,265.417,214.75,281.132,209.491C296.848,204.232,319.946,193.714,331.495,188.455L343.044,183.196" id="L-Browser-Envoy-0" class=" edge-thickness-normal edge-pattern-solid flowchart-link LS-Browser LE-Envoy" style="fill:none;" marker-end="url(#my-svg_flowchart-pointEnd)"/><path d="M436.685,128L453.633,113.333C470.582,98.667,504.478,69.333,534.682,117.5C564.885,165.667,591.396,291.333,639.016,354.167C686.635,417,755.365,417,827.096,417C898.828,417,973.563,417,1026.331,420.9C1079.1,424.8,1109.903,432.6,1125.304,436.5L1140.706,440.4" id="L-Envoy-Homepage-0" class=" edge-thickness-normal edge-pattern-solid flowchart-link LS-Envoy LE-Homepage" style="fill:none;" marker-end="url(#my-svg_flowchart-pointEnd)"/><path d="M483.124,181L492.332,184.167C501.541,187.333,519.958,193.667,542.422,313.208C564.885,432.75,591.396,665.5,630.463,781.875C669.53,898.25,721.154,898.25,746.966,898.25L772.778,898.25" id="L-Envoy-Jellyseerr-0" class=" edge-thickness-normal edge-pattern-solid flowchart-link LS-Envoy LE-Jellyseerr" style="fill:none;" marker-end="url(#my-svg_flowchart-pointEnd)"/><path d="M470.398,128L481.727,123.333C493.057,118.667,515.716,109.333,540.301,192.167C564.885,275,591.396,450,639.016,537.5C686.635,625,755.365,625,827.096,625C898.828,625,973.563,625,1029.058,625.76C1084.553,626.52,1120.808,628.04,1138.936,628.8L1157.064,629.56" id="L-Envoy-Jellyfin-0" class=" edge-thickness-normal edge-pattern-solid flowchart-link LS-Envoy LE-Jellyfin" style="fill:none;" marker-end="url(#my-svg_flowchart-pointEnd)"/><path d="M513.375,175.182L517.542,175.985C521.708,176.788,530.042,178.394,547.464,290.155C564.885,401.917,591.396,623.833,639.016,734.792C686.635,845.75,755.365,845.75,827.096,845.75C898.828,845.75,973.563,845.75,1029.173,850.859C1084.783,855.968,1121.269,866.186,1139.512,871.295L1157.755,876.404" id="L-Envoy-Sonarr-0" class=" edge-thickness-normal edge-pattern-solid flowchart-link LS-Envoy LE-Sonarr" style="fill:none;" marker-end="url(#my-svg_flowchart-pointEnd)"/><path d="M459.594,181L472.724,187.5C485.854,194,512.115,207,538.5,339.875C564.885,472.75,591.396,725.5,639.016,851.875C686.635,978.25,755.365,978.25,827.096,978.25C898.828,978.25,973.563,978.25,1029.114,985.111C1084.665,991.972,1121.033,1005.695,1139.217,1012.556L1157.401,1019.417" id="L-Envoy-Radarr-0" class=" edge-thickness-normal edge-pattern-solid flowchart-link LS-Envoy LE-Radarr" style="fill:none;" marker-end="url(#my-svg_flowchart-pointEnd)"/><path d="M434.001,181L451.397,197.5C468.792,214,503.584,247,534.235,414.333C564.885,581.667,591.396,883.333,639.016,1034.167C686.635,1185,755.365,1185,827.096,1185C898.828,1185,973.563,1185,1029.809,1186.266C1086.055,1187.533,1123.813,1190.066,1142.692,1191.332L1161.571,1192.598" id="L-Envoy-Lidarr-0" class=" edge-thickness-normal edge-pattern-solid flowchart-link LS-Envoy LE-Lidarr" style="fill:none;" marker-end="url(#my-svg_flowchart-pointEnd)"/><path d="M427.248,181L445.77,204.167C464.291,227.333,501.333,273.667,533.109,465.292C564.885,656.917,591.396,993.833,639.016,1162.292C686.635,1330.75,755.365,1330.75,827.096,1330.75C898.828,1330.75,973.563,1330.75,1028.252,1335.311C1082.942,1339.871,1117.587,1348.993,1134.909,1353.554L1152.232,1358.114" id="L-Envoy-Readarr-0" class=" edge-thickness-normal edge-pattern-solid flowchart-link LS-Envoy LE-Readarr" style="fill:none;" marker-end="url(#my-svg_flowchart-pointEnd)"/><path d="M447.072,181L462.289,190.833C477.506,200.667,507.941,220.333,536.413,362.583C564.885,504.833,591.396,769.667,632.464,902.083C673.532,1034.5,729.157,1034.5,756.97,1034.5L784.783,1034.5" id="L-Envoy-Bazarr-0" class=" edge-thickness-normal edge-pattern-solid flowchart-link LS-Envoy LE-Bazarr" style="fill:none;" marker-end="url(#my-svg_flowchart-pointEnd)"/><path d="M439.297,181L455.81,194.167C472.323,207.333,505.349,233.667,535.117,384.667C564.885,535.667,591.396,811.333,631.308,953.368C671.221,1095.404,724.536,1103.807,751.193,1108.009L777.851,1112.211" id="L-Envoy-Prowlarr-0" class=" edge-thickness-normal edge-pattern-solid flowchart-link LS-Envoy LE-Prowlarr" style="fill:none;" marker-end="url(#my-svg_flowchart-pointEnd)"/><path d="M513.375,158.961L517.542,159.134C521.708,159.307,530.042,159.654,547.464,268.993C564.885,378.333,591.396,596.667,639.016,705.833C686.635,815,755.365,815,827.096,815C898.828,815,973.563,815,1035.776,815C1097.99,815,1147.682,815,1185.284,815C1222.885,815,1248.396,815,1272.414,854.484C1296.432,893.968,1318.958,972.936,1330.221,1012.419L1341.484,1051.903" id="L-Envoy-QB-0" class=" edge-thickness-normal edge-pattern-solid flowchart-link LS-Envoy LE-QB" style="fill:none;" marker-end="url(#my-svg_flowchart-pointEnd)"/><path d="M430.161,181L448.196,200.833C466.232,220.667,502.304,260.333,533.594,445.167C564.885,630,591.396,960,639.016,1125C686.635,1290,755.365,1290,827.096,1290C898.828,1290,973.563,1290,1035.776,1290C1097.99,1290,1147.682,1290,1185.284,1290C1222.885,1290,1248.396,1290,1268.506,1295.042C1288.615,1300.084,1303.324,1310.169,1310.679,1315.211L1318.033,1320.253" id="L-Envoy-SAB-0" class=" edge-thickness-normal edge-pattern-solid flowchart-link LS-Envoy LE-SAB" style="fill:none;" marker-end="url(#my-svg_flowchart-pointEnd)"/><path d="M507.694,128L512.807,126.667C517.921,125.333,528.148,122.667,546.517,214.25C564.885,305.833,591.396,491.667,632.213,584.583C673.03,677.5,728.154,677.5,755.716,677.5L783.278,677.5" id="L-Envoy-Tautulli-0" class=" edge-thickness-normal edge-pattern-solid flowchart-link LS-Envoy LE-Tautulli" style="fill:none;" marker-end="url(#my-svg_flowchart-pointEnd)"/><path d="M513.375,142.74L517.542,142.283C521.708,141.826,530.042,140.913,547.464,244.207C564.885,347.5,591.396,555,629.378,658.75C667.361,762.5,716.816,762.5,741.543,762.5L766.27,762.5" id="L-Envoy-Maintainerr-0" class=" edge-thickness-normal edge-pattern-solid flowchart-link LS-Envoy LE-Maintainerr" style="fill:none;" marker-end="url(#my-svg_flowchart-pointEnd)"/><path d="M443.166,128L459.034,116.667C474.902,105.333,506.639,82.667,535.762,139.583C564.885,196.5,591.396,333,627.96,401.25C664.525,469.5,711.144,469.5,734.453,469.5L757.763,469.5" id="L-Envoy-Plex-0" class=" edge-thickness-normal edge-pattern-solid flowchart-link LS-Envoy LE-Plex" style="fill:none;" marker-end="url(#my-svg_flowchart-pointEnd)"/><path d="M453.127,128L467.335,120C481.543,112,509.959,96,537.422,168.583C564.885,241.167,591.396,402.333,617.023,482.917C642.65,563.5,667.394,563.5,679.766,563.5L692.138,563.5" id="L-Envoy-Bootstrap-0" class=" edge-thickness-normal edge-pattern-solid flowchart-link LS-Envoy LE-Bootstrap" style="fill:none;" marker-end="url(#my-svg_flowchart-pointEnd)"/><path d="M870.109,898.25L899.807,898.25C929.505,898.25,988.901,898.25,1036.812,896.937C1084.722,895.623,1121.147,892.997,1139.36,891.683L1157.573,890.37" id="L-Jellyseerr-Sonarr-0" class=" edge-thickness-normal edge-pattern-solid flowchart-link LS-Jellyseerr LE-Sonarr" style="fill:none;" marker-end="url(#my-svg_flowchart-pointEnd)"/><path d="M861.284,915.75L892.453,930.417C923.622,945.083,985.959,974.417,1035.273,992.826C1084.587,1011.236,1120.878,1018.721,1139.023,1022.464L1157.169,1026.207" id="L-Jellyseerr-Radarr-0" class=" edge-thickness-normal edge-pattern-solid flowchart-link LS-Jellyseerr LE-Radarr" style="fill:none;" marker-end="url(#my-svg_flowchart-pointEnd)"/><path d="M846.324,880.75L879.986,854.25C913.648,827.75,980.972,774.75,1033.921,736.542C1086.87,698.333,1125.444,674.917,1144.73,663.209L1164.017,651.5" id="L-Jellyseerr-Jellyfin-0" class=" edge-thickness-normal edge-pattern-solid flowchart-link LS-Jellyseerr LE-Jellyfin" style="fill:none;" marker-end="url(#my-svg_flowchart-pointEnd)"/><path d="M843.59,1102L877.708,1071.375C911.825,1040.75,980.061,979.5,1032.408,945.115C1084.754,910.73,1121.211,903.21,1139.44,899.45L1157.668,895.69" id="L-Prowlarr-Sonarr-0" class=" edge-thickness-normal edge-pattern-solid flowchart-link LS-Prowlarr LE-Sonarr" style="fill:none;" marker-end="url(#my-svg_flowchart-pointEnd)"/><path d="M865.102,1102.444L895.634,1089.745C926.167,1077.046,987.232,1051.648,1035.893,1039.952C1084.554,1028.256,1120.811,1030.263,1138.939,1031.266L1157.067,1032.269" id="L-Prowlarr-Radarr-0" class=" edge-thickness-normal edge-pattern-solid flowchart-link LS-Prowlarr LE-Radarr" style="fill:none;" marker-end="url(#my-svg_flowchart-pointEnd)"/><path d="M865.102,1136.282L895.634,1148.776C926.167,1161.271,987.232,1186.261,1036.647,1196.697C1086.061,1207.134,1123.826,1203.017,1142.708,1200.959L1161.591,1198.901" id="L-Prowlarr-Lidarr-0" class=" edge-thickness-normal edge-pattern-solid flowchart-link LS-Prowlarr LE-Lidarr" style="fill:none;" marker-end="url(#my-svg_flowchart-pointEnd)"/><path d="M839.71,1137L874.474,1175.958C909.239,1214.917,978.768,1292.833,1030.826,1331.705C1082.884,1370.576,1117.47,1370.402,1134.764,1370.315L1152.057,1370.228" id="L-Prowlarr-Readarr-0" class=" edge-thickness-normal edge-pattern-solid flowchart-link LS-Prowlarr LE-Readarr" style="fill:none;" marker-end="url(#my-svg_flowchart-pointEnd)"/><path d="M462.578,1143.75L475.211,1143.75C487.844,1143.75,513.109,1143.75,538.997,1143.75C564.885,1143.75,591.396,1143.75,631.304,1140.615C671.212,1137.481,724.517,1131.211,751.17,1128.077L777.822,1124.942" id="L-Flare-Prowlarr-0" class=" edge-thickness-normal edge-pattern-solid flowchart-link LS-Flare LE-Prowlarr" style="fill:none;" marker-end="url(#my-svg_flowchart-pointEnd)"/><path d="M858.104,1019.899L889.803,1006.291C921.502,992.683,984.899,965.466,1034.856,945.643C1084.812,925.819,1121.327,913.389,1139.584,907.173L1157.842,900.958" id="L-Bazarr-Sonarr-0" class=" edge-thickness-normal edge-pattern-solid flowchart-link LS-Bazarr LE-Sonarr" style="fill:none;" marker-end="url(#my-svg_flowchart-pointEnd)"/><path d="M858.104,1036.282L889.803,1037.944C921.502,1039.605,984.899,1042.927,1034.728,1043.16C1084.557,1043.392,1120.816,1040.534,1138.946,1039.105L1157.076,1037.676" id="L-Bazarr-Radarr-0" class=" edge-thickness-normal edge-pattern-solid flowchart-link LS-Bazarr LE-Radarr" style="fill:none;" marker-end="url(#my-svg_flowchart-pointEnd)"/><path d="M1231.891,887.5L1238.894,887.5C1245.896,887.5,1259.901,887.5,1277.761,914.929C1295.621,942.357,1317.337,997.215,1328.194,1024.643L1339.052,1052.072" id="L-Sonarr-QB-0" class=" edge-thickness-normal edge-pattern-solid flowchart-link LS-Sonarr LE-QB" style="fill:none;" marker-end="url(#my-svg_flowchart-pointEnd)"/><path d="M1232.391,1034.5L1239.31,1034.5C1246.229,1034.5,1260.068,1034.5,1273.15,1037.83C1286.231,1041.16,1298.557,1047.82,1304.719,1051.15L1310.882,1054.48" id="L-Radarr-QB-0" class=" edge-thickness-normal edge-pattern-solid flowchart-link LS-Radarr LE-QB" style="fill:none;" marker-end="url(#my-svg_flowchart-pointEnd)"/><path d="M1210.441,1177.5L1221.019,1163.333C1231.596,1149.167,1252.751,1120.833,1266.637,1105.862C1280.523,1090.891,1287.14,1089.282,1290.448,1088.478L1293.756,1087.673" id="L-Lidarr-QB-0" class=" edge-thickness-normal edge-pattern-solid flowchart-link LS-Lidarr LE-QB" style="fill:none;" marker-end="url(#my-svg_flowchart-pointEnd)"/><path d="M1202.576,1352.5L1214.465,1312.5C1226.353,1272.5,1250.13,1192.5,1267.888,1149.487C1285.646,1106.473,1297.385,1100.447,1303.255,1097.434L1309.125,1094.42" id="L-Readarr-QB-0" class=" edge-thickness-normal edge-pattern-solid flowchart-link LS-Readarr LE-QB" style="fill:none;" marker-end="url(#my-svg_flowchart-pointEnd)"/><path d="M1200.545,905L1212.772,972.5C1224.999,1040,1249.452,1175,1266.18,1244.369C1282.907,1313.739,1291.907,1317.478,1296.408,1319.347L1300.908,1321.217" id="L-Sonarr-SAB-0" class=" edge-thickness-normal edge-pattern-solid flowchart-link LS-Sonarr LE-SAB" style="fill:none;" marker-end="url(#my-svg_flowchart-pointEnd)"/><path d="M1201.907,1052L1213.907,1098.333C1225.907,1144.667,1249.907,1237.333,1265.864,1284.241C1281.822,1331.15,1289.738,1332.299,1293.696,1332.874L1297.653,1333.449" id="L-Radarr-SAB-0" class=" edge-thickness-normal edge-pattern-solid flowchart-link LS-Radarr LE-SAB" style="fill:none;" marker-end="url(#my-svg_flowchart-pointEnd)"/><path d="M1206.016,1212.5L1217.331,1235.417C1228.646,1258.333,1251.276,1304.167,1266.547,1326.589C1281.817,1349.011,1289.728,1348.023,1293.684,1347.529L1297.639,1347.034" id="L-Lidarr-SAB-0" class=" edge-thickness-normal edge-pattern-solid flowchart-link LS-Lidarr LE-SAB" style="fill:none;" marker-end="url(#my-svg_flowchart-pointEnd)"/><path d="M1237.393,1370L1243.479,1370C1249.564,1370,1261.735,1370,1271.955,1368.366C1282.175,1366.733,1290.444,1363.465,1294.579,1361.831L1298.713,1360.198" id="L-Readarr-SAB-0" class=" edge-thickness-normal edge-pattern-solid flowchart-link LS-Readarr LE-SAB" style="fill:none;" marker-end="url(#my-svg_flowchart-pointEnd)"/><path d="M861.461,1220L892.6,1205.417C923.74,1190.833,986.018,1161.667,1042.004,1147.083C1097.99,1132.5,1147.682,1132.5,1185.284,1132.5C1222.885,1132.5,1248.396,1132.5,1269.071,1126.295C1289.745,1120.09,1305.584,1107.679,1313.504,1101.474L1321.423,1095.269" id="L-Unpackerr-QB-0" class=" edge-thickness-normal edge-pattern-solid flowchart-link LS-Unpackerr LE-QB" style="fill:none;" marker-end="url(#my-svg_flowchart-pointEnd)"/><path d="M845.217,1255L879.063,1283.042C912.91,1311.083,980.603,1367.167,1039.297,1395.208C1097.99,1423.25,1147.682,1423.25,1185.284,1423.25C1222.885,1423.25,1248.396,1423.25,1270.281,1413.074C1292.167,1402.898,1310.428,1382.547,1319.558,1372.371L1328.688,1362.195" id="L-Unpackerr-SAB-0" class=" edge-thickness-normal edge-pattern-solid flowchart-link LS-Unpackerr LE-SAB" style="fill:none;" marker-end="url(#my-svg_flowchart-pointEnd)"/><path d="M838.144,1220L873.17,1176.375C908.195,1132.75,978.246,1045.5,1031.567,993.192C1084.888,940.884,1121.479,923.519,1139.775,914.836L1158.071,906.153" id="L-Unpackerr-Sonarr-0" class=" edge-thickness-normal edge-pattern-solid flowchart-link LS-Unpackerr LE-Sonarr" style="fill:none;" marker-end="url(#my-svg_flowchart-pointEnd)"/><path d="M851.153,1220L884.01,1198.75C916.867,1177.5,982.582,1135,1033.627,1106.674C1084.671,1078.348,1121.046,1064.197,1139.233,1057.121L1157.42,1050.045" id="L-Unpackerr-Radarr-0" class=" edge-thickness-normal edge-pattern-solid flowchart-link LS-Unpackerr LE-Radarr" style="fill:none;" marker-end="url(#my-svg_flowchart-pointEnd)"/><path d="M873.112,1237.5L902.309,1237.5C931.507,1237.5,989.902,1237.5,1038.01,1232.109C1086.119,1226.718,1123.941,1215.935,1142.852,1210.544L1161.762,1205.153" id="L-Unpackerr-Lidarr-0" class=" edge-thickness-normal edge-pattern-solid flowchart-link LS-Unpackerr LE-Lidarr" style="fill:none;" marker-end="url(#my-svg_flowchart-pointEnd)"/><path d="M848.693,1255L881.96,1278.667C915.228,1302.333,981.762,1349.667,1032.337,1370.199C1082.912,1390.731,1117.527,1384.462,1134.834,1381.327L1152.142,1378.192" id="L-Unpackerr-Readarr-0" class=" edge-thickness-normal edge-pattern-solid flowchart-link LS-Unpackerr LE-Readarr" style="fill:none;" marker-end="url(#my-svg_flowchart-pointEnd)"/><path d="M956.05,563.5Z" id="L-Bootstrap-Apps-0" class=" edge-thickness-normal edge-pattern-solid flowchart-link LS-Bootstrap LE-Apps" style="fill:none;" marker-end="url(#my-svg_flowchart-pointEnd)"/></g><g class="edgeLabels"><g class="edgeLabel"><g class="label" transform="translate(0, 0)"><rect rx="0" ry="0" width="0" height="0"/><text style=""><tspan xml:space="preserve" dy="1em" x="0" class="row"/></text></g></g><g class="edgeLabel"><g class="label" transform="translate(0, 0)"><rect rx="0" ry="0" width="0" height="0"/><text style=""><tspan xml:space="preserve" dy="1em" x="0" class="row"/></text></g></g><g class="edgeLabel"><g class="label" transform="translate(0, 0)"><rect rx="0" ry="0" width="0" height="0"/><text style=""><tspan xml:space="preserve" dy="1em" x="0" class="row"/></text></g></g><g class="edgeLabel"><g class="label" transform="translate(0, 0)"><rect rx="0" ry="0" width="0" height="0"/><text style=""><tspan xml:space="preserve" dy="1em" x="0" class="row"/></text></g></g><g class="edgeLabel"><g class="label" transform="translate(0, 0)"><rect rx="0" ry="0" width="0" height="0"/><text style=""><tspan xml:space="preserve" dy="1em" x="0" class="row"/></text></g></g><g class="edgeLabel"><g class="label" transform="translate(0, 0)"><rect rx="0" ry="0" width="0" height="0"/><text style=""><tspan xml:space="preserve" dy="1em" x="0" class="row"/></text></g></g><g class="edgeLabel"><g class="label" transform="translate(0, 0)"><rect rx="0" ry="0" width="0" height="0"/><text style=""><tspan xml:space="preserve" dy="1em" x="0" class="row"/></text></g></g><g class="edgeLabel"><g class="label" transform="translate(0, 0)"><rect rx="0" ry="0" width="0" height="0"/><text style=""><tspan xml:space="preserve" dy="1em" x="0" class="row"/></text></g></g><g class="edgeLabel"><g class="label" transform="translate(0, 0)"><rect rx="0" ry="0" width="0" height="0"/><text style=""><tspan xml:space="preserve" dy="1em" x="0" class="row"/></text></g></g><g class="edgeLabel"><g class="label" transform="translate(0, 0)"><rect rx="0" ry="0" width="0" height="0"/><text style=""><tspan xml:space="preserve" dy="1em" x="0" class="row"/></text></g></g><g class="edgeLabel"><g class="label" transform="translate(0, 0)"><rect rx="0" ry="0" width="0" height="0"/><text style=""><tspan xml:space="preserve" dy="1em" x="0" class="row"/></text></g></g><g class="edgeLabel"><g class="label" transform="translate(0, 0)"><rect rx="0" ry="0" width="0" height="0"/><text style=""><tspan xml:space="preserve" dy="1em" x="0" class="row"/></text></g></g><g class="edgeLabel"><g class="label" transform="translate(0, 0)"><rect rx="0" ry="0" width="0" height="0"/><text style=""><tspan xml:space="preserve" dy="1em" x="0" class="row"/></text></g></g><g class="edgeLabel"><g class="label" transform="translate(0, 0)"><rect rx="0" ry="0" width="0" height="0"/><text style=""><tspan xml:space="preserve" dy="1em" x="0" class="row"/></text></g></g><g class="edgeLabel"><g class="label" transform="translate(0, 0)"><rect rx="0" ry="0" width="0" height="0"/><text style=""><tspan xml:space="preserve" dy="1em" x="0" class="row"/></text></g></g><g class="edgeLabel"><g class="label" transform="translate(0, 0)"><rect rx="0" ry="0" width="0" height="0"/><text style=""><tspan xml:space="preserve" dy="1em" x="0" class="row"/></text></g></g><g class="edgeLabel"><g class="label" transform="translate(0, 0)"><rect rx="0" ry="0" width="0" height="0"/><text style=""><tspan xml:space="preserve" dy="1em" x="0" class="row"/></text></g></g><g class="edgeLabel"><g class="label" transform="translate(0, 0)"><rect rx="0" ry="0" width="0" height="0"/><text style=""><tspan xml:space="preserve" dy="1em" x="0" class="row"/></text></g></g><g class="edgeLabel"><g class="label" transform="translate(0, 0)"><rect rx="0" ry="0" width="0" height="0"/><text style=""><tspan xml:space="preserve" dy="1em" x="0" class="row"/></text></g></g><g class="edgeLabel"><g class="label" transform="translate(0, 0)"><rect rx="0" ry="0" width="0" height="0"/><text style=""><tspan xml:space="preserve" dy="1em" x="0" class="row"/></text></g></g><g class="edgeLabel"><g class="label" transform="translate(0, 0)"><rect rx="0" ry="0" width="0" height="0"/><text style=""><tspan xml:space="preserve" dy="1em" x="0" class="row"/></text></g></g><g class="edgeLabel"><g class="label" transform="translate(0, 0)"><rect rx="0" ry="0" width="0" height="0"/><text style=""><tspan xml:space="preserve" dy="1em" x="0" class="row"/></text></g></g><g class="edgeLabel"><g class="label" transform="translate(0, 0)"><rect rx="0" ry="0" width="0" height="0"/><text style=""><tspan xml:space="preserve" dy="1em" x="0" class="row"/></text></g></g><g class="edgeLabel"><g class="label" transform="translate(0, 0)"><rect rx="0" ry="0" width="0" height="0"/><text style=""><tspan xml:space="preserve" dy="1em" x="0" class="row"/></text></g></g><g class="edgeLabel" transform="translate(617.90625, 1143.75)"><g class="label" transform="translate(-54.53125, -10)"><rect rx="0" ry="0" width="109.0625" height="20"/><text style=""><tspan xml:space="preserve" dy="1em" x="0" class="row">Indexer proxy</tspan></text></g></g><g class="edgeLabel"><g class="label" transform="translate(0, 0)"><rect rx="0" ry="0" width="0" height="0"/><text style=""><tspan xml:space="preserve" dy="1em" x="0" class="row"/></text></g></g><g class="edgeLabel"><g class="label" transform="translate(0, 0)"><rect rx="0" ry="0" width="0" height="0"/><text style=""><tspan xml:space="preserve" dy="1em" x="0" class="row"/></text></g></g><g class="edgeLabel"><g class="label" transform="translate(0, 0)"><rect rx="0" ry="0" width="0" height="0"/><text style=""><tspan xml:space="preserve" dy="1em" x="0" class="row"/></text></g></g><g class="edgeLabel"><g class="label" transform="translate(0, 0)"><rect rx="0" ry="0" width="0" height="0"/><text style=""><tspan xml:space="preserve" dy="1em" x="0" class="row"/></text></g></g><g class="edgeLabel"><g class="label" transform="translate(0, 0)"><rect rx="0" ry="0" width="0" height="0"/><text style=""><tspan xml:space="preserve" dy="1em" x="0" class="row"/></text></g></g><g class="edgeLabel"><g class="label" transform="translate(0, 0)"><rect rx="0" ry="0" width="0" height="0"/><text style=""><tspan xml:space="preserve" dy="1em" x="0" class="row"/></text></g></g><g class="edgeLabel"><g class="label" transform="translate(0, 0)"><rect rx="0" ry="0" width="0" height="0"/><text style=""><tspan xml:space="preserve" dy="1em" x="0" class="row"/></text></g></g><g class="edgeLabel"><g class="label" transform="translate(0, 0)"><rect rx="0" ry="0" width="0" height="0"/><text style=""><tspan xml:space="preserve" dy="1em" x="0" class="row"/></text></g></g><g class="edgeLabel"><g class="label" transform="translate(0, 0)"><rect rx="0" ry="0" width="0" height="0"/><text style=""><tspan xml:space="preserve" dy="1em" x="0" class="row"/></text></g></g><g class="edgeLabel"><g class="label" transform="translate(0, 0)"><rect rx="0" ry="0" width="0" height="0"/><text style=""><tspan xml:space="preserve" dy="1em" x="0" class="row"/></text></g></g><g class="edgeLabel"><g class="label" transform="translate(0, 0)"><rect rx="0" ry="0" width="0" height="0"/><text style=""><tspan xml:space="preserve" dy="1em" x="0" class="row"/></text></g></g><g class="edgeLabel"><g class="label" transform="translate(0, 0)"><rect rx="0" ry="0" width="0" height="0"/><text style=""><tspan xml:space="preserve" dy="1em" x="0" class="row"/></text></g></g><g class="edgeLabel"><g class="label" transform="translate(0, 0)"><rect rx="0" ry="0" width="0" height="0"/><text style=""><tspan xml:space="preserve" dy="1em" x="0" class="row"/></text></g></g><g class="edgeLabel"><g class="label" transform="translate(0, 0)"><rect rx="0" ry="0" width="0" height="0"/><text style=""><tspan xml:space="preserve" dy="1em" x="0" class="row"/></text></g></g><g class="edgeLabel"><g class="label" transform="translate(0, 0)"><rect rx="0" ry="0" width="0" height="0"/><text style=""><tspan xml:space="preserve" dy="1em" x="0" class="row"/></text></g></g><g class="edgeLabel"><g class="label" transform="translate(0, 0)"><rect rx="0" ry="0" width="0" height="0"/><text style=""><tspan xml:space="preserve" dy="1em" x="0" class="row"/></text></g></g><g class="edgeLabel" transform="translate(950.75, 563.5)"><g class="label" transform="translate(-72.546875, -10)"><rect rx="0" ry="0" width="145.09375" height="20"/><text style=""><tspan xml:space="preserve" dy="1em" x="0" class="row">Configure all apps</tspan></text></g></g></g><g class="nodes"><g class="node default default flowchart-label" id="flowchart-Homepage-3" data-node="true" data-id="Homepage" transform="translate(1197.375, 454.75)"><rect class="basic label-container" style="" rx="0" ry="0" x="-51.53125" y="-17.5" width="103.0625" height="35"/><g class="label" style="" transform="translate(0, -10)"><rect/><text style=""><tspan xml:space="preserve" dy="1em" x="0" class="row">Homepage</tspan></text></g></g><g class="node default default flowchart-label" id="flowchart-Jellyseerr-4" data-node="true" data-id="Jellyseerr" transform="translate(824.09375, 898.25)"><rect class="basic label-container" style="" rx="0" ry="0" x="-46.015625" y="-17.5" width="92.03125" height="35"/><g class="label" style="" transform="translate(0, -10)"><rect/><text style=""><tspan xml:space="preserve" dy="1em" x="0" class="row">Jellyseerr</tspan></text></g></g><g class="node default default flowchart-label" id="flowchart-Jellyfin-5" data-node="true" data-id="Jellyfin" transform="translate(1197.375, 631.25)"><rect class="basic label-container" style="" rx="0" ry="0" x="-35.015625" y="-17.5" width="70.03125" height="35"/><g class="label" style="" transform="translate(0, -10)"><rect/><text style=""><tspan xml:space="preserve" dy="1em" x="0" class="row">Jellyfin</tspan></text></g></g><g class="node default default flowchart-label" id="flowchart-Plex-6" data-node="true" data-id="Plex" transform="translate(824.09375, 469.5)"><rect class="basic label-container" style="" rx="0" ry="0" x="-61.03125" y="-17.5" width="122.0625" height="35"/><g class="label" style="" transform="translate(0, -10)"><rect/><text style=""><tspan xml:space="preserve" dy="1em" x="0" class="row">Plex Optional</tspan></text></g></g><g class="node default default flowchart-label" id="flowchart-Sonarr-7" data-node="true" data-id="Sonarr" transform="translate(1197.375, 887.5)"><rect class="basic label-container" style="" rx="0" ry="0" x="-34.51611328125" y="-17.5" width="69.0322265625" height="35"/><g class="label" style="" transform="translate(0, -10)"><rect/><text style=""><tspan xml:space="preserve" dy="1em" x="0" class="row">Sonarr</tspan></text></g></g><g class="node default default flowchart-label" id="flowchart-Radarr-8" data-node="true" data-id="Radarr" transform="translate(1197.375, 1034.5)"><rect class="basic label-container" style="" rx="0" ry="0" x="-35.015625" y="-17.5" width="70.03125" height="35"/><g class="label" style="" transform="translate(0, -10)"><rect/><text style=""><tspan xml:space="preserve" dy="1em" x="0" class="row">Radarr</tspan></text></g></g><g class="node default default flowchart-label" id="flowchart-Lidarr-9" data-node="true" data-id="Lidarr" transform="translate(1197.375, 1195)"><rect class="basic label-container" style="" rx="0" ry="0" x="-30.515625" y="-17.5" width="61.03125" height="35"/><g class="label" style="" transform="translate(0, -10)"><rect/><text style=""><tspan xml:space="preserve" dy="1em" x="0" class="row">Lidarr</tspan></text></g></g><g class="node default default flowchart-label" id="flowchart-Readarr-10" data-node="true" data-id="Readarr" transform="translate(1197.375, 1370)"><rect class="basic label-container" style="" rx="0" ry="0" x="-40.01806640625" y="-17.5" width="80.0361328125" height="35"/><g class="label" style="" transform="translate(0, -10)"><rect/><text style=""><tspan xml:space="preserve" dy="1em" x="0" class="row">Readarr</tspan></text></g></g><g class="node default default flowchart-label" id="flowchart-Bazarr-11" data-node="true" data-id="Bazarr" transform="translate(824.09375, 1034.5)"><rect class="basic label-container" style="" rx="0" ry="0" x="-34.0107421875" y="-17.5" width="68.021484375" height="35"/><g class="label" style="" transform="translate(0, -10)"><rect/><text style=""><tspan xml:space="preserve" dy="1em" x="0" class="row">Bazarr</tspan></text></g></g><g class="node default default flowchart-label" id="flowchart-Prowlarr-12" data-node="true" data-id="Prowlarr" transform="translate(824.09375, 1119.5)"><rect class="basic label-container" style="" rx="0" ry="0" x="-41.0078125" y="-17.5" width="82.015625" height="35"/><g class="label" style="" transform="translate(0, -10)"><rect/><text style=""><tspan xml:space="preserve" dy="1em" x="0" class="row">Prowlarr</tspan></text></g></g><g class="node default default flowchart-label" id="flowchart-QB-13" data-node="true" data-id="QB" transform="translate(1347.9296875, 1074.5)"><rect class="basic label-container" style="" rx="0" ry="0" x="-49.0234375" y="-17.5" width="98.046875" height="35"/><g class="label" style="" transform="translate(0, -10)"><rect/><text style=""><tspan xml:space="preserve" dy="1em" x="0" class="row">qBittorrent</tspan></text></g></g><g class="node default default flowchart-label" id="flowchart-SAB-14" data-node="true" data-id="SAB" transform="translate(1347.9296875, 1340.75)"><rect class="basic label-container" style="" rx="0" ry="0" x="-45.03125" y="-17.5" width="90.0625" height="35"/><g class="label" style="" transform="translate(0, -10)"><rect/><text style=""><tspan xml:space="preserve" dy="1em" x="0" class="row">SABnzbd</tspan></text></g></g><g class="node default default flowchart-label" id="flowchart-Tautulli-15" data-node="true" data-id="Tautulli" transform="translate(824.09375, 677.5)"><rect class="basic label-container" style="" rx="0" ry="0" x="-35.515625" y="-17.5" width="71.03125" height="35"/><g class="label" style="" transform="translate(0, -10)"><rect/><text style=""><tspan xml:space="preserve" dy="1em" x="0" class="row">Tautulli</tspan></text></g></g><g class="node default default flowchart-label" id="flowchart-Maintainerr-16" data-node="true" data-id="Maintainerr" transform="translate(824.09375, 762.5)"><rect class="basic label-container" style="" rx="0" ry="0" x="-52.5234375" y="-17.5" width="105.046875" height="35"/><g class="label" style="" transform="translate(0, -10)"><rect/><text style=""><tspan xml:space="preserve" dy="1em" x="0" class="row">Maintainerr</tspan></text></g></g><g class="node default default flowchart-label" id="flowchart-Unpackerr-17" data-node="true" data-id="Unpackerr" transform="translate(824.09375, 1237.5)"><rect class="basic label-container" style="" rx="0" ry="0" x="-49.01806640625" y="-17.5" width="98.0361328125" height="35"/><g class="label" style="" transform="translate(0, -10)"><rect/><text style=""><tspan xml:space="preserve" dy="1em" x="0" class="row">Unpackerr</tspan></text></g></g><g class="node default default flowchart-label" id="flowchart-Flare-18" data-node="true" data-id="Flare" transform="translate(406.0625, 1143.75)"><rect class="basic label-container" style="" rx="0" ry="0" x="-56.515625" y="-17.5" width="113.03125" height="35"/><g class="label" style="" transform="translate(0, -10)"><rect/><text style=""><tspan xml:space="preserve" dy="1em" x="0" class="row">FlareSolverr</tspan></text></g></g><g class="node default default flowchart-label" id="flowchart-Bootstrap-19" data-node="true" data-id="Bootstrap" transform="translate(824.09375, 563.5)"><rect class="basic label-container" style="" rx="0" ry="0" x="-126.65625" y="-26.5" width="253.3125" height="53"/><g class="label" style="" transform="translate(0, -19)"><rect/><text style=""><tspan xml:space="preserve" dy="1em" x="0" class="row">Controller</tspan><tspan xml:space="preserve" dy="1em" x="0" class="row">HTTP API + Dashboard :9100</tspan></text></g></g><g class="node default default flowchart-label" id="flowchart-Envoy-2" data-node="true" data-id="Envoy" transform="translate(406.0625, 154.5)"><rect class="basic label-container" style="" rx="0" ry="0" x="-107.3125" y="-26.5" width="214.625" height="53"/><g class="label" style="" transform="translate(0, -19)"><rect/><text style=""><tspan xml:space="preserve" dy="1em" x="0" class="row">Envoy Gateway</tspan><tspan xml:space="preserve" dy="1em" x="0" class="row">host + path-prefix routing</tspan></text></g></g><g class="node default default flowchart-label" id="flowchart-TV-0" data-node="true" data-id="TV" transform="translate(111.875, 120.75)"><rect class="basic label-container" style="" rx="0" ry="0" x="-86.875" y="-26.5" width="173.75" height="53"/><g class="label" style="" transform="translate(0, -19)"><rect/><text style=""><tspan xml:space="preserve" dy="1em" x="0" class="row">TV Apps</tspan><tspan xml:space="preserve" dy="1em" x="0" class="row">Samsung/Vizio/TCL</tspan></text></g></g><g class="node default default flowchart-label" id="flowchart-Browser-1" data-node="true" data-id="Browser" transform="translate(111.875, 214.75)"><rect class="basic label-container" style="" rx="0" ry="0" x="-69.5234375" y="-17.5" width="139.046875" height="35"/><g class="label" style="" transform="translate(0, -10)"><rect/><text style=""><tspan xml:space="preserve" dy="1em" x="0" class="row">Browser/Mobile</tspan></text></g></g></g></g></g></svg>