<svg id="my-svg" width="100%" xmlns="http://www.w3.org/2000/svg" xmlns:xlink="http://www.w3.org/1999/xlink" style="max-width: 1228.11px; background-color: white;" viewBox="-8 -8 1228.1142578125 1280" role="graphics-document document" aria-roledescription="flowchart-v2"><style>#my-svg{font-family:"trebuchet ms",verdana,arial,sans-serif;font-size:18px;fill:#000000;}#my-svg .error-icon{fill:#552222;}#my-svg .error-text{fill:#552222;stroke:#552222;}#my-svg .edge-thickness-normal{stroke-width:2px;}#my-svg .edge-thickness-thick{stroke-width:3.5px;}#my-svg .edge-pattern-solid{stroke-dasharray:0;}#my-svg .edge-pattern-dashed{stroke-dasharray:3;}#my-svg .edge-pattern-dotted{stroke-dasharray:2;}#my-svg .marker{fill:#1f2937;stroke:#1f2937;}#my-svg .marker.cross{stroke:#1f2937;}#my-svg svg{font-family:"trebuchet ms",verdana,arial,sans-serif;font-size:18px;}#my-svg .label{font-family:"trebuchet ms",verdana,arial,sans-serif;color:#000000;}#my-svg .cluster-label text{fill:#333;}#my-svg .cluster-label span,#my-svg p{color:#333;}#my-svg .label text,#my-svg span,#my-svg p{fill:#000000;color:#000000;}#my-svg .node rect,#my-svg .node circle,#my-svg .node ellipse,#my-svg .node polygon,#my-svg .node path{fill:#eee;stroke:#999;stroke-width:1px;}#my-svg .flowchart-label text{text-anchor:middle;}#my-svg .node .katex path{fill:#000;stroke:#000;stroke-width:1px;}#my-svg .node .label{text-align:center;}#my-svg .node.clickable{cursor:pointer;}#my-svg .arrowheadPath{fill:#333333;}#my-svg .edgePath .path{stroke:#1f2937;stroke-width:2.0px;}#my-svg .flowchart-link{stroke:#1f2937;fill:none;}#my-svg .edgeLabel{background-color:white;text-align:center;}#my-svg .edgeLabel rect{opacity:0.5;background-color:white;fill:white;}#my-svg .labelBkg{background-color:rgba(255, 255, 255, 0.5);}#my-svg .cluster rect{fill:#f8fafc;stroke:#334155;stroke-width:1px;}#my-svg .cluster text{fill:#333;}#my-svg .cluster span,#my-svg p{color:#333;}#my-svg div.mermaidTooltip{position:absolute;text-align:center;max-width:200px;padding:2px;font-family:"trebuchet ms",verdana,arial,sans-serif;font-size:12px;background:#fef9c3;border:1px solid #707070;border-radius:2px;pointer-events:none;z-index:100;}#my-svg .flowchartTitleText{text-anchor:middle;font-size:18px;fill:#000000;}#my-svg :root{--mermaid-font-family:"trebuchet ms",verdana,arial,sans-serif;}</style><g><marker id="my-svg_flowchart-pointEnd" class="marker flowchart" viewBox="0 0 10 10" refX="6" refY="5" markerUnits="userSpaceOnUse" markerWidth="12" markerHeight="12" orient="auto"><path d="M 0 0 L 10 5 L 0 10 z" class="arrowMarkerPath" style="stroke-width: 1; stroke-dasharray: 1, 0;"/></marker><marker id="my-svg_flowchart-pointStart" class="marker flowchart" viewBox="0 0 10 10" refX="4.5" refY="5" markerUnits="userSpaceOnUse" markerWidth="12" markerHeight="12" orient="auto"><path d="M 0 5 L 10 10 L 10 0 z" class="arrowMarkerPath" style="stroke-width: 1; stroke-dasharray: 1, 0;"/></marker><marker id="my-svg_flowchart-circleEnd" class="marker flowchart" viewBox="0 0 10 10" refX="11" refY="5" markerUnits="userSpaceOnUse" markerWidth="11" markerHeight="11" orient="auto"><circle cx="5" cy="5" r="5" class="arrowMarkerPath" style="stroke-width: 1; stroke-dasharray: 1, 0;"/></marker><marker id="my-svg_flowchart-circleStart" class="marker flowchart" viewBox="0 0 10 10" refX="-1" refY="5" markerUnits="userSpaceOnUse" markerWidth="11" markerHeight="11" orient="auto"><circle cx="5" cy="5" r="5" class="arrowMarkerPath" style="stroke-width: 1; stroke-dasharray: 1, 0;"/></marker><marker id="my-svg_flowchart-crossEnd" class="marker cross flowchart" viewBox="0 0 11 11" refX="12" refY="5.2" markerUnits="userSpaceOnUse" markerWidth="11" markerHeight="11" orient="auto"><path d="M 1,1 l 9,9 M 10,1 l -9,9" class="arrowMarkerPath" style="stroke-width: 2; stroke-dasharray: 1, 0;"/></marker><marker id="my-svg_flowchart-crossStart" class="marker cross flowchart" viewBox="0 0 11 11" refX="-1" refY="5.2" markerUnits="userSpaceOnUse" markerWidth="11" markerHeight="11" orient="auto"><path d="M 1,1 l 9,9 M 10,1 l -9,9" class="arrowMarkerPath" style="stroke-width: 2; stroke-dasharray: 1, 0;"/></marker><g class="root"><g class="clusters"><g class="cluster default flowchart-label" id="Apps"><rect style="" rx="0" ry="0" x="273.75" y="330.75" width="938.3642578125" height="933.25"/><g class="cluster-label" transform="translate(742.93212890625, 330.75)"><text style=""><tspan xml:space="preserve" dy="1em" x="0" class="row">Media Stack Namespace</tspan></text></g></g><g class="cluster default flowchart-label" id="Edge"><rect style="" rx="0" ry="0" x="273.75" y="0" width="235.078125" height="310.75"/><g class="cluster-label" transform="translate(391.2890625, 0)"><text style=""><tspan xml:space="preserve" dy="1em" x="0" class="row">Cluster Edge</tspan></text></g></g><g class="cluster default flowchart-label" id="Clients"><rect style="" rx="0" ry="0" x="0" y="49.25" width="223.75" height="208"/><g class="cluster-label" transform="translate(111.875, 49.25)"><text style=""><tspan xml:space="preserve" dy="1em" x="0" class="row">Clients</tspan></text></g></g></g><g class="edgePaths"><path d="M198.75,110.75L202.917,110.75C207.083,110.75,215.417,110.75,223.75,110.75C232.083,110.75,240.417,110.75,248.75,110.75C257.083,110.75,265.417,110.75,275.219,111.889C285.021,113.027,296.292,115.305,301.927,116.443L307.562,117.582" id="L-TV-Ingress-0" class=" edge-thickness-normal edge-pattern-solid flowchart-link LS-TV LE-Ingress" style="fill:none;" marker-end="url(#my-svg_flowchart-pointEnd)"/><path d="M181.398,204.75L188.457,204.75C195.516,204.75,209.633,204.75,220.858,204.75C232.083,204.75,240.417,204.75,248.75,204.75C257.083,204.75,265.417,204.75,281.025,197.912C296.634,191.073,319.517,177.396,330.959,170.558L342.401,163.719" id="L-Browser-Ingress-0" class=" edge-thickness-normal edge-pattern-solid flowchart-link LS-Browser LE-Ingress" style="fill:none;" marker-end="url(#my-svg_flowchart-pointEnd)"/><path d="M424.25,108L438.346,96.667C452.443,85.333,480.635,62.667,507.987,108.542C535.339,154.417,561.849,268.833,593.645,326.042C625.442,383.25,662.524,383.25,681.065,383.25L699.606,383.25" id="L-Ingress-Homepage-0" class=" edge-thickness-normal edge-pattern-solid flowchart-link LS-Ingress LE-Homepage" style="fill:none;" marker-end="url(#my-svg_flowchart-pointEnd)"/><path d="M469.821,151.537L476.322,152.948C482.823,154.358,495.826,157.179,515.582,251.006C535.339,344.833,561.849,529.667,594.565,622.083C627.28,714.5,666.201,714.5,685.661,714.5L705.122,714.5" id="L-Ingress-Jellyseerr-0" class=" edge-thickness-normal edge-pattern-solid flowchart-link LS-Ingress LE-Jellyseerr" style="fill:none;" marker-end="url(#my-svg_flowchart-pointEnd)"/><path d="M433.098,108L445.72,100C458.342,92,483.585,76,509.462,130.625C535.339,185.25,561.849,310.5,603.117,373.125C644.385,435.75,700.411,435.75,747.349,435.75C794.286,435.75,832.135,435.75,855.177,435.75C878.219,435.75,886.453,435.75,890.57,435.75L894.687,435.75" id="L-Ingress-Jellyfin-0" class=" edge-thickness-normal edge-pattern-solid flowchart-link LS-Ingress LE-Jellyfin" style="fill:none;" marker-end="url(#my-svg_flowchart-pointEnd)"/><path d="M469.821,124.812L476.322,124.01C482.823,123.208,495.826,121.604,515.582,196.969C535.339,272.333,561.849,424.667,603.117,500.833C644.385,577,700.411,577,747.349,577C794.286,577,832.135,577,860.118,595.912C888.1,614.823,906.216,652.647,915.274,671.558L924.331,690.47" id="L-Ingress-Sonarr-0" class=" edge-thickness-normal edge-pattern-solid flowchart-link LS-Ingress LE-Sonarr" style="fill:none;" marker-end="url(#my-svg_flowchart-pointEnd)"/><path d="M459.746,161L467.926,164.167C476.107,167.333,492.467,173.667,513.903,279.25C535.339,384.833,561.849,589.667,603.117,692.083C644.385,794.5,700.411,794.5,747.349,794.5C794.286,794.5,832.135,794.5,858.864,803.742C885.592,812.984,901.199,831.467,909.003,840.709L916.806,849.951" id="L-Ingress-Radarr-0" class=" edge-thickness-normal edge-pattern-solid flowchart-link LS-Ingress LE-Radarr" style="fill:none;" marker-end="url(#my-svg_flowchart-pointEnd)"/><path d="M420.813,161L435.482,174.167C450.151,187.333,479.49,213.667,507.414,354.458C535.339,495.25,561.849,750.5,603.117,878.125C644.385,1005.75,700.411,1005.75,747.349,1005.75C794.286,1005.75,832.135,1005.75,855.969,1007.317C879.802,1008.883,889.62,1012.017,894.529,1013.583L899.438,1015.15" id="L-Ingress-Lidarr-0" class=" edge-thickness-normal edge-pattern-solid flowchart-link LS-Ingress LE-Lidarr" style="fill:none;" marker-end="url(#my-svg_flowchart-pointEnd)"/><path d="M412.697,161L428.718,180.833C444.74,200.667,476.784,240.333,506.061,405.417C535.339,570.5,561.849,861,603.117,1006.25C644.385,1151.5,700.411,1151.5,747.349,1151.5C794.286,1151.5,832.135,1151.5,856.309,1154.668C880.482,1157.837,890.979,1164.174,896.228,1167.342L901.476,1170.511" id="L-Ingress-Readarr-0" class=" edge-thickness-normal edge-pattern-solid flowchart-link LS-Ingress LE-Readarr" style="fill:none;" marker-end="url(#my-svg_flowchart-pointEnd)"/><path d="M438.843,161L450.507,167.5C462.171,174,485.5,187,510.419,301.958C535.339,416.917,561.849,633.833,596.565,742.292C631.282,850.75,674.204,850.75,695.666,850.75L717.127,850.75" id="L-Ingress-Bazarr-0" class=" edge-thickness-normal edge-pattern-solid flowchart-link LS-Ingress LE-Bazarr" style="fill:none;" marker-end="url(#my-svg_flowchart-pointEnd)"/><path d="M427.719,161L441.237,170.833C454.756,180.667,481.792,200.333,508.565,324.792C535.339,449.25,561.849,678.5,595.411,796.508C628.973,914.516,669.588,921.282,689.895,924.665L710.202,928.048" id="L-Ingress-Prowlarr-0" class=" edge-thickness-normal edge-pattern-solid flowchart-link LS-Ingress LE-Prowlarr" style="fill:none;" marker-end="url(#my-svg_flowchart-pointEnd)"/><path d="M469.821,111.449L476.322,109.541C482.823,107.633,495.826,103.816,515.582,175.367C535.339,246.917,561.849,393.833,603.117,467.292C644.385,540.75,700.411,540.75,747.349,540.75C794.286,540.75,832.135,540.75,861.896,540.75C891.657,540.75,913.33,540.75,935.002,540.75C956.675,540.75,978.348,540.75,1005.741,596.487C1033.134,652.223,1066.247,763.696,1082.803,819.433L1099.36,875.169" id="L-Ingress-QB-0" class=" edge-thickness-normal edge-pattern-solid flowchart-link LS-Ingress LE-QB" style="fill:none;" marker-end="url(#my-svg_flowchart-pointEnd)"/><path d="M416.108,161L431.561,177.5C447.015,194,477.921,227,506.63,385.292C535.339,543.583,561.849,827.167,603.117,968.958C644.385,1110.75,700.411,1110.75,747.349,1110.75C794.286,1110.75,832.135,1110.75,861.896,1110.75C891.657,1110.75,913.33,1110.75,935.002,1110.75C956.675,1110.75,978.348,1110.75,999.967,1115.91C1021.587,1121.071,1043.153,1131.391,1053.936,1136.552L1064.719,1141.712" id="L-Ingress-SAB-0" class=" edge-thickness-normal edge-pattern-solid flowchart-link LS-Ingress LE-SAB" style="fill:none;" marker-end="url(#my-svg_flowchart-pointEnd)"/><path d="M469.821,138.175L476.322,138.479C482.823,138.783,495.826,139.392,515.582,221.279C535.339,303.167,561.849,466.333,587.476,547.917C613.103,629.5,637.847,629.5,650.219,629.5L662.591,629.5" id="L-Ingress-Maintainerr-0" class=" edge-thickness-normal edge-pattern-solid flowchart-link LS-Ingress LE-Maintainerr" style="fill:none;" marker-end="url(#my-svg_flowchart-pointEnd)"/><path d="M448.441,108L458.506,103.333C468.57,98.667,488.699,89.333,512.019,152.708C535.339,216.083,561.849,352.167,592.062,420.208C622.275,488.25,656.191,488.25,673.148,488.25L690.106,488.25" id="L-Ingress-Plex-0" class=" edge-thickness-normal edge-pattern-solid flowchart-link LS-Ingress LE-Plex" style="fill:none;" marker-end="url(#my-svg_flowchart-pointEnd)"/><path d="M802.453,714.5L813.708,714.5C824.964,714.5,847.474,714.5,862.93,714.387C878.386,714.274,886.787,714.048,890.988,713.935L895.188,713.822" id="L-Jellyseerr-Sonarr-0" class=" edge-thickness-normal edge-pattern-solid flowchart-link LS-Jellyseerr LE-Sonarr" style="fill:none;" marker-end="url(#my-svg_flowchart-pointEnd)"/><path d="M774.502,732L790.416,747.417C806.329,762.833,838.157,793.667,860.156,813.483C882.156,833.298,894.327,842.097,900.413,846.496L906.498,850.895" id="L-Jellyseerr-Radarr-0" class=" edge-thickness-normal edge-pattern-solid flowchart-link LS-Jellyseerr LE-Radarr" style="fill:none;" marker-end="url(#my-svg_flowchart-pointEnd)"/><path d="M765.626,697L783.019,663.875C800.412,630.75,835.198,564.5,859.757,524.487C884.315,484.474,898.646,470.699,905.811,463.811L912.976,456.923" id="L-Jellyseerr-Jellyfin-0" class=" edge-thickness-normal edge-pattern-solid flowchart-link LS-Jellyseerr LE-Jellyfin" style="fill:none;" marker-end="url(#my-svg_flowchart-pointEnd)"/><path d="M766.311,918.25L783.59,887.625C800.869,857,835.427,795.75,856.951,763.705C878.476,731.659,886.968,728.819,891.214,727.398L895.46,725.978" id="L-Prowlarr-Sonarr-0" class=" edge-thickness-normal edge-pattern-solid flowchart-link LS-Prowlarr LE-Sonarr" style="fill:none;" marker-end="url(#my-svg_flowchart-pointEnd)"/><path d="M780.023,918.25L795.016,907.125C810.01,896,839.997,873.75,859.147,863.903C878.297,854.057,886.609,856.614,890.765,857.892L894.921,859.171" id="L-Prowlarr-Radarr-0" class=" edge-thickness-normal edge-pattern-solid flowchart-link LS-Prowlarr LE-Radarr" style="fill:none;" marker-end="url(#my-svg_flowchart-pointEnd)"/><path d="M777.082,953.25L792.566,966.375C808.05,979.5,839.017,1005.75,859.371,1018.463C879.725,1031.176,889.465,1030.352,894.335,1029.94L899.206,1029.528" id="L-Prowlarr-Lidarr-0" class=" edge-thickness-normal edge-pattern-solid flowchart-link LS-Prowlarr LE-Lidarr" style="fill:none;" marker-end="url(#my-svg_flowchart-pointEnd)"/><path d="M764.207,953.25L781.837,992.958C799.466,1032.667,834.725,1112.083,855.638,1151.754C876.551,1191.424,883.118,1191.349,886.401,1191.311L889.685,1191.273" id="L-Prowlarr-Readarr-0" class=" edge-thickness-normal edge-pattern-solid flowchart-link LS-Prowlarr LE-Readarr" style="fill:none;" marker-end="url(#my-svg_flowchart-pointEnd)"/><path d="M483.828,964.5L487.995,964.5C492.161,964.5,500.495,964.5,517.917,964.5C535.339,964.5,561.849,964.5,595.412,961.026C628.975,957.553,669.59,950.605,689.898,947.132L710.206,943.658" id="L-Flare-Prowlarr-0" class=" edge-thickness-normal edge-pattern-solid flowchart-link LS-Flare LE-Prowlarr" style="fill:none;" marker-end="url(#my-svg_flowchart-pointEnd)"/><path d="M777.082,833.25L792.566,820.125C808.05,807,839.017,780.75,860.052,764.061C881.086,747.371,892.188,740.242,897.739,736.678L903.29,733.114" id="L-Bazarr-Sonarr-0" class=" edge-thickness-normal edge-pattern-solid flowchart-link LS-Bazarr LE-Sonarr" style="fill:none;" marker-end="url(#my-svg_flowchart-pointEnd)"/><path d="M790.448,856.965L803.704,859.388C816.96,861.81,843.472,866.655,860.845,869.078C878.219,871.5,886.453,871.5,890.57,871.5L894.687,871.5" id="L-Bazarr-Radarr-0" class=" edge-thickness-normal edge-pattern-solid flowchart-link LS-Bazarr LE-Radarr" style="fill:none;" marker-end="url(#my-svg_flowchart-pointEnd)"/><path d="M969.519,712.75L974.602,712.75C979.686,712.75,989.853,712.75,1010.5,739.9C1031.147,767.051,1062.274,821.351,1077.837,848.502L1093.4,875.652" id="L-Sonarr-QB-0" class=" edge-thickness-normal edge-pattern-solid flowchart-link LS-Sonarr LE-QB" style="fill:none;" marker-end="url(#my-svg_flowchart-pointEnd)"/><path d="M970.018,871.5L975.018,871.5C980.019,871.5,990.02,871.5,1003.667,873.64C1017.313,875.781,1034.606,880.061,1043.253,882.201L1051.899,884.342" id="L-Radarr-QB-0" class=" edge-thickness-normal edge-pattern-solid flowchart-link LS-Radarr LE-QB" style="fill:none;" marker-end="url(#my-svg_flowchart-pointEnd)"/><path d="M945.049,1009L954.211,993.042C963.373,977.083,981.697,945.167,999.489,927.947C1017.28,910.727,1034.54,908.205,1043.17,906.943L1051.8,905.682" id="L-Lidarr-QB-0" class=" edge-thickness-normal edge-pattern-solid flowchart-link LS-Lidarr LE-QB" style="fill:none;" marker-end="url(#my-svg_flowchart-pointEnd)"/><path d="M939.421,1173.25L949.521,1133.25C959.621,1093.25,979.821,1013.25,998.587,970.349C1017.353,927.448,1034.686,921.646,1043.352,918.745L1052.018,915.843" id="L-Readarr-QB-0" class=" edge-thickness-normal edge-pattern-solid flowchart-link LS-Readarr LE-QB" style="fill:none;" marker-end="url(#my-svg_flowchart-pointEnd)"/><path d="M937.724,730.25L948.107,797C958.49,863.75,979.255,997.25,996.405,1065.962C1013.555,1134.675,1027.09,1138.599,1033.858,1140.562L1040.625,1142.524" id="L-Sonarr-SAB-0" class=" edge-thickness-normal edge-pattern-solid flowchart-link LS-Sonarr LE-SAB" style="fill:none;" marker-end="url(#my-svg_flowchart-pointEnd)"/><path d="M939.077,889L949.234,932.625C959.391,976.25,979.706,1063.5,993.151,1107.458C1006.596,1151.417,1013.172,1152.083,1016.46,1152.416L1019.748,1152.75" id="L-Radarr-SAB-0" class=" edge-thickness-normal edge-pattern-solid flowchart-link LS-Radarr LE-SAB" style="fill:none;" marker-end="url(#my-svg_flowchart-pointEnd)"/><path d="M942.89,1044L952.412,1065.125C961.934,1086.25,980.977,1128.5,993.785,1149.338C1006.594,1170.177,1013.167,1169.603,1016.454,1169.317L1019.741,1169.03" id="L-Lidarr-SAB-0" class=" edge-thickness-normal edge-pattern-solid flowchart-link LS-Lidarr LE-SAB" style="fill:none;" marker-end="url(#my-svg_flowchart-pointEnd)"/><path d="M975.021,1190.75L979.187,1190.75C983.354,1190.75,991.687,1190.75,1002.102,1189.027C1012.517,1187.303,1025.014,1183.856,1031.263,1182.133L1037.511,1180.409" id="L-Readarr-SAB-0" class=" edge-thickness-normal edge-pattern-solid flowchart-link LS-Readarr LE-SAB" style="fill:none;" marker-end="url(#my-svg_flowchart-pointEnd)"/><path d="M775.362,1040.75L791.132,1026.167C806.903,1011.583,838.444,982.417,865.05,967.833C891.657,953.25,913.33,953.25,935.002,953.25C956.675,953.25,978.348,953.25,1000.503,947.326C1022.658,941.403,1045.296,929.555,1056.615,923.631L1067.933,917.708" id="L-Unpackerr-QB-0" class=" edge-thickness-normal edge-pattern-solid flowchart-link LS-Unpackerr LE-QB" style="fill:none;" marker-end="url(#my-svg_flowchart-pointEnd)"/><path d="M767.135,1075.75L784.277,1103.792C801.418,1131.833,835.701,1187.917,863.679,1215.958C891.657,1244,913.33,1244,935.002,1244C956.675,1244,978.348,1244,1002.412,1233.709C1026.477,1223.418,1052.933,1202.836,1066.161,1192.545L1079.389,1182.254" id="L-Unpackerr-SAB-0" class=" edge-thickness-normal edge-pattern-solid flowchart-link LS-Unpackerr LE-SAB" style="fill:none;" marker-end="url(#my-svg_flowchart-pointEnd)"/><path d="M763.44,1040.75L781.198,996.375C798.955,952,834.47,863.25,859.352,812.108C884.234,760.967,898.484,747.433,905.608,740.667L912.733,733.9" id="L-Unpackerr-Sonarr-0" class=" edge-thickness-normal edge-pattern-solid flowchart-link LS-Unpackerr LE-Sonarr" style="fill:none;" marker-end="url(#my-svg_flowchart-pointEnd)"/><path d="M770.141,1040.75L786.782,1019.5C803.422,998.25,836.703,955.75,858.895,930.936C881.086,906.121,892.188,898.992,897.739,895.428L903.29,891.864" id="L-Unpackerr-Radarr-0" class=" edge-thickness-normal edge-pattern-solid flowchart-link LS-Unpackerr LE-Radarr" style="fill:none;" marker-end="url(#my-svg_flowchart-pointEnd)"/><path d="M841.477,1058.25L846.228,1058.25C850.979,1058.25,860.482,1058.25,870.19,1055.83C879.898,1053.409,889.811,1048.568,894.768,1046.148L899.724,1043.727" id="L-Unpackerr-Lidarr-0" class=" edge-thickness-normal edge-pattern-solid flowchart-link LS-Unpackerr LE-Lidarr" style="fill:none;" marker-end="url(#my-svg_flowchart-pointEnd)"/><path d="M768.896,1075.75L785.744,1099.417C802.592,1123.083,836.288,1170.417,856.487,1192.692C876.686,1214.967,883.388,1212.184,886.739,1210.792L890.09,1209.401" id="L-Unpackerr-Readarr-0" class=" edge-thickness-normal edge-pattern-solid flowchart-link LS-Unpackerr LE-Readarr" style="fill:none;" marker-end="url(#my-svg_flowchart-pointEnd)"/></g><g class="edgeLabels"><g class="edgeLabel"><g class="label" transform="translate(0, 0)"><rect rx="0" ry="0" width="0" height="0"/><text style=""><tspan xml:space="preserve" dy="1em" x="0" class="row"/></text></g></g><g class="edgeLabel"><g class="label" transform="translate(0, 0)"><rect rx="0" ry="0" width="0" height="0"/><text style=""><tspan xml:space="preserve" dy="1em" x="0" class="row"/></text></g></g><g class="edgeLabel"><g class="label" transform="translate(0, 0)"><rect rx="0" ry="0" width="0" height="0"/><text style=""><tspan xml:space="preserve" dy="1em" x="0" class="row"/></text></g></g><g class="edgeLabel"><g class="label" transform="translate(0, 0)"><rect rx="0" ry="0" width="0" height="0"/><text style=""><tspan xml:space="preserve" dy="1em" x="0" class="row"/></text></g></g><g class="edgeLabel"><g class="label" transform="translate(0, 0)"><rect rx="0" ry="0" width="0" height="0"/><text style=""><tspan xml:space="preserve" dy="1em" x="0" class="row"/></text></g></g><g class="edgeLabel"><g class="label" transform="translate(0, 0)"><rect rx="0" ry="0" width="0" height="0"/><text style=""><tspan xml:space="preserve" dy="1em" x="0" class="row"/></text></g></g><g class="edgeLabel"><g class="label" transform="translate(0, 0)"><rect rx="0" ry="0" width="0" height="0"/><text style=""><tspan xml:space="preserve" dy="1em" x="0" class="row"/></text></g></g><g class="edgeLabel"><g class="label" transform="translate(0, 0)"><rect rx="0" ry="0" width="0" height="0"/><text style=""><tspan xml:space="preserve" dy="1em" x="0" class="row"/></text></g></g><g class="edgeLabel"><g class="label" transform="translate(0, 0)"><rect rx="0" ry="0" width="0" height="0"/><text style=""><tspan xml:space="preserve" dy="1em" x="0" class="row"/></text></g></g><g class="edgeLabel"><g class="label" transform="translate(0, 0)"><rect rx="0" ry="0" width="0" height="0"/><text style=""><tspan xml:space="preserve" dy="1em" x="0" class="row"/></text></g></g><g class="edgeLabel"><g class="label" transform="translate(0, 0)"><rect rx="0" ry="0" width="0" height="0"/><text style=""><tspan xml:space="preserve" dy="1em" x="0" class="row"/></text></g></g><g class="edgeLabel"><g class="label" transform="translate(0, 0)"><rect rx="0" ry="0" width="0" height="0"/><text style=""><tspan xml:space="preserve" dy="1em" x="0" class="row"/></text></g></g><g class="edgeLabel"><g class="label" transform="translate(0, 0)"><rect rx="0" ry="0" width="0" height="0"/><text style=""><tspan xml:space="preserve" dy="1em" x="0" class="row"/></text></g></g><g class="edgeLabel"><g class="label" transform="translate(0, 0)"><rect rx="0" ry="0" width="0" height="0"/><text style=""><tspan xml:space="preserve" dy="1em" x="0" class="row"/></text></g></g><g class="edgeLabel"><g class="label" transform="translate(0, 0)"><rect rx="0" ry="0" width="0" height="0"/><text style=""><tspan xml:space="preserve" dy="1em" x="0" class="row"/></text></g></g><g class="edgeLabel"><g class="label" transform="translate(0, 0)"><rect rx="0" ry="0" width="0" height="0"/><text style=""><tspan xml:space="preserve" dy="1em" x="0" class="row"/></text></g></g><g class="edgeLabel"><g class="label" transform="translate(0, 0)"><rect rx="0" ry="0" width="0" height="0"/><text style=""><tspan xml:space="preserve" dy="1em" x="0" class="row"/></text></g></g><g class="edgeLabel"><g class="label" transform="translate(0, 0)"><rect rx="0" ry="0" width="0" height="0"/><text style=""><tspan xml:space="preserve" dy="1em" x="0" class="row"/></text></g></g><g class="edgeLabel"><g class="label" transform="translate(0, 0)"><rect rx="0" ry="0" width="0" height="0"/><text style=""><tspan xml:space="preserve" dy="1em" x="0" class="row"/></text></g></g><g class="edgeLabel"><g class="label" transform="translate(0, 0)"><rect rx="0" ry="0" width="0" height="0"/><text style=""><tspan xml:space="preserve" dy="1em" x="0" class="row"/></text></g></g><g class="edgeLabel"><g class="label" transform="translate(0, 0)"><rect rx="0" ry="0" width="0" height="0"/><text style=""><tspan xml:space="preserve" dy="1em" x="0" class="row"/></text></g></g><g class="edgeLabel"><g class="label" transform="translate(0, 0)"><rect rx="0" ry="0" width="0" height="0"/><text style=""><tspan xml:space="preserve" dy="1em" x="0" class="row"/></text></g></g><g class="edgeLabel" transform="translate(588.359375, 964.5)"><g class="label" transform="translate(-54.53125, -10)"><rect rx="0" ry="0" width="108.97008514404297" height="20.000246047973633"/><text style=""><tspan xml:space="preserve" dy="1em" x="0" class="row">Indexer proxy</tspan></text></g></g><g class="edgeLabel"><g class="label" transform="translate(0, 0)"><rect rx="0" ry="0" width="0" height="0"/><text style=""><tspan xml:space="preserve" dy="1em" x="0" class="row"/></text></g></g><g class="edgeLabel"><g class="label" transform="translate(0, 0)"><rect rx="0" ry="0" width="0" height="0"/><text style=""><tspan xml:space="preserve" dy="1em" x="0" class="row"/></text></g></g><g class="edgeLabel"><g class="label" transform="translate(0, 0)"><rect rx="0" ry="0" width="0" height="0"/><text style=""><tspan xml:space="preserve" dy="1em" x="0" class="row"/></text></g></g><g class="edgeLabel"><g class="label" transform="translate(0, 0)"><rect rx="0" ry="0" width="0" height="0"/><text style=""><tspan xml:space="preserve" dy="1em" x="0" class="row"/></text></g></g><g class="edgeLabel"><g class="label" transform="translate(0, 0)"><rect rx="0" ry="0" width="0" height="0"/><text style=""><tspan xml:space="preserve" dy="1em" x="0" class="row"/></text></g></g><g class="edgeLabel"><g class="label" transform="translate(0, 0)"><rect rx="0" ry="0" width="0" height="0"/><text style=""><tspan xml:space="preserve" dy="1em" x="0" class="row"/></text></g></g><g class="edgeLabel"><g class="label" transform="translate(0, 0)"><rect rx="0" ry="0" width="0" height="0"/><text style=""><tspan xml:space="preserve" dy="1em" x="0" class="row"/></text></g></g><g class="edgeLabel"><g class="label" transform="translate(0, 0)"><rect rx="0" ry="0" width="0" height="0"/><text style=""><tspan xml:space="preserve" dy="1em" x="0" class="row"/></text></g></g><g class="edgeLabel"><g class="label" transform="translate(0, 0)"><rect rx="0" ry="0" width="0" height="0"/><text style=""><tspan xml:space="preserve" dy="1em" x="0" class="row"/></text></g></g><g class="edgeLabel"><g class="label" transform="translate(0, 0)"><rect rx="0" ry="0" width="0" height="0"/><text style=""><tspan xml:space="preserve" dy="1em" x="0" class="row"/></text></g></g><g class="edgeLabel"><g class="label" transform="translate(0, 0)"><rect rx="0" ry="0" width="0" height="0"/><text style=""><tspan xml:space="preserve" dy="1em" x="0" class="row"/></text></g></g><g class="edgeLabel"><g class="label" transform="translate(0, 0)"><rect rx="0" ry="0" width="0" height="0"/><text style=""><tspan xml:space="preserve" dy="1em" x="0" class="row"/></text></g></g><g class="edgeLabel"><g class="label" transform="translate(0, 0)"><rect rx="0" ry="0" width="0" height="0"/><text style=""><tspan xml:space="preserve" dy="1em" x="0" class="row"/></text></g></g><g class="edgeLabel"><g class="label" transform="translate(0, 0)"><rect rx="0" ry="0" width="0" height="0"/><text style=""><tspan xml:space="preserve" dy="1em" x="0" class="row"/></text></g></g><g class="edgeLabel"><g class="label" transform="translate(0, 0)"><rect rx="0" ry="0" width="0" height="0"/><text style=""><tspan xml:space="preserve" dy="1em" x="0" class="row"/></text></g></g><g class="edgeLabel"><g class="label" transform="translate(0, 0)"><rect rx="0" ry="0" width="0" height="0"/><text style=""><tspan xml:space="preserve" dy="1em" x="0" class="row"/></text></g></g></g><g class="nodes"><g class="node default default flowchart-label" id="flowchart-Homepage-3" data-node="true" data-id="Homepage" transform="translate(756.4375, 383.25)"><rect class="basic label-container" style="" rx="0" ry="0" x="-51.53125" y="-17.5" width="103.0625" height="35"/><g class="label" style="" transform="translate(0, -10)"><rect/><text style=""><tspan xml:space="preserve" dy="1em" x="0" class="row">Homepage</tspan></text></g></g><g class="node default default flowchart-label" id="flowchart-Jellyseerr-4" data-node="true" data-id="Jellyseerr" transform="translate(756.4375, 714.5)"><rect class="basic label-container" style="" rx="0" ry="0" x="-46.015625" y="-17.5" width="92.03125" height="35"/><g class="label" style="" transform="translate(0, -10)"><rect/><text style=""><tspan xml:space="preserve" dy="1em" x="0" class="row">Jellyseerr</tspan></text></g></g><g class="node default default flowchart-label" id="flowchart-Jellyfin-5" data-node="true" data-id="Jellyfin" transform="translate(935.00244140625, 435.75)"><rect class="basic label-container" style="" rx="0" ry="0" x="-35.015625" y="-17.5" width="70.03125" height="35"/><g class="label" style="" transform="translate(0, -10)"><rect/><text style=""><tspan xml:space="preserve" dy="1em" x="0" class="row">Jellyfin</tspan></text></g></g><g class="node default default flowchart-label" id="flowchart-Plex-6" data-node="true" data-id="Plex" transform="translate(756.4375, 488.25)"><rect class="basic label-container" style="" rx="0" ry="0" x="-61.03125" y="-17.5" width="122.0625" height="35"/><g class="label" style="" transform="translate(0, -10)"><rect/><text style=""><tspan xml:space="preserve" dy="1em" x="0" class="row">Plex Optional</tspan></text></g></g><g class="node default default flowchart-label" id="flowchart-Sonarr-7" data-node="true" data-id="Sonarr" transform="translate(935.00244140625, 712.75)"><rect class="basic label-container" style="" rx="0" ry="0" x="-34.51611328125" y="-17.5" width="69.0322265625" height="35"/><g class="label" style="" transform="translate(0, -10)"><rect/><text style=""><tspan xml:space="preserve" dy="1em" x="0" class="row">Sonarr</tspan></text></g></g><g class="node default default flowchart-label" id="flowchart-Radarr-8" data-node="true" data-id="Radarr" transform="translate(935.00244140625, 871.5)"><rect class="basic label-container" style="" rx="0" ry="0" x="-35.015625" y="-17.5" width="70.03125" height="35"/><g class="label" style="" transform="translate(0, -10)"><rect/><text style=""><tspan xml:space="preserve" dy="1em" x="0" class="row">Radarr</tspan></text></g></g><g class="node default default flowchart-label" id="flowchart-Lidarr-9" data-node="true" data-id="Lidarr" transform="translate(935.00244140625, 1026.5)"><rect class="basic label-container" style="" rx="0" ry="0" x="-30.515625" y="-17.5" width="61.03125" height="35"/><g class="label" style="" transform="translate(0, -10)"><rect/><text style=""><tspan xml:space="preserve" dy="1em" x="0" class="row">Lidarr</tspan></text></g></g><g class="node default default flowchart-label" id="flowchart-Readarr-10" data-node="true" data-id="Readarr" transform="translate(935.00244140625, 1190.75)"><rect class="basic label-container" style="" rx="0" ry="0" x="-40.01806640625" y="-17.5" width="80.0361328125" height="35"/><g class="label" style="" transform="translate(0, -10)"><rect/><text style=""><tspan xml:space="preserve" dy="1em" x="0" class="row">Readarr</tspan></text></g></g><g class="node default default flowchart-label" id="flowchart-Bazarr-11" data-node="true" data-id="Bazarr" transform="translate(756.4375, 850.75)"><rect class="basic label-container" style="" rx="0" ry="0" x="-34.0107421875" y="-17.5" width="68.021484375" height="35"/><g class="label" style="" transform="translate(0, -10)"><rect/><text style=""><tspan xml:space="preserve" dy="1em" x="0" class="row">Bazarr</tspan></text></g></g><g class="node default default flowchart-label" id="flowchart-Prowlarr-12" data-node="true" data-id="Prowlarr" transform="translate(756.4375, 935.75)"><rect class="basic label-container" style="" rx="0" ry="0" x="-41.0078125" y="-17.5" width="82.015625" height="35"/><g class="label" style="" transform="translate(0, -10)"><rect/><text style=""><tspan xml:space="preserve" dy="1em" x="0" class="row">Prowlarr</tspan></text></g></g><g class="node default default flowchart-label" id="flowchart-QB-13" data-node="true" data-id="QB" transform="translate(1106.0673828125, 897.75)"><rect class="basic label-container" style="" rx="0" ry="0" x="-49.0234375" y="-17.5" width="98.046875" height="35"/><g class="label" style="" transform="translate(0, -10)"><rect/><text style=""><tspan xml:space="preserve" dy="1em" x="0" class="row">qBittorrent</tspan></text></g></g><g class="node default default flowchart-label" id="flowchart-SAB-14" data-node="true" data-id="SAB" transform="translate(1106.0673828125, 1161.5)"><rect class="basic label-container" style="" rx="0" ry="0" x="-81.046875" y="-17.5" width="162.09375" height="35"/><g class="label" style="" transform="translate(0, -10)"><rect/><text style=""><tspan xml:space="preserve" dy="1em" x="0" class="row">SABnzbd Optional</tspan></text></g></g><g class="node default default flowchart-label" id="flowchart-Maintainerr-15" data-node="true" data-id="Maintainerr" transform="translate(756.4375, 629.5)"><rect class="basic label-container" style="" rx="0" ry="0" x="-88.546875" y="-17.5" width="177.09375" height="35"/><g class="label" style="" transform="translate(0, -10)"><rect/><text style=""><tspan xml:space="preserve" dy="1em" x="0" class="row">Maintainerr Optional</tspan></text></g></g><g class="node default default flowchart-label" id="flowchart-Unpackerr-16" data-node="true" data-id="Unpackerr" transform="translate(756.4375, 1058.25)"><rect class="basic label-container" style="" rx="0" ry="0" x="-85.0390625" y="-17.5" width="170.078125" height="35"/><g class="label" style="" transform="translate(0, -10)"><rect/><text style=""><tspan xml:space="preserve" dy="1em" x="0" class="row">Unpackerr Optional</tspan></text></g></g><g class="node default default flowchart-label" id="flowchart-Flare-17" data-node="true" data-id="Flare" transform="translate(391.2890625, 964.5)"><rect class="basic label-container" style="" rx="0" ry="0" x="-92.5390625" y="-17.5" width="185.078125" height="35"/><g class="label" style="" transform="translate(0, -10)"><rect/><text style=""><tspan xml:space="preserve" dy="1em" x="0" class="row">FlareSolverr Optional</tspan></text></g></g><g class="node default default flowchart-label" id="flowchart-Ingress-2" data-node="true" data-id="Ingress" transform="translate(391.2890625, 134.5)"><rect class="basic label-container" style="" rx="0" ry="0" x="-78.53173828125" y="-26.5" width="157.0634765625" height="53"/><g class="label" style="" transform="translate(0, -19)"><rect/><text style=""><tspan xml:space="preserve" dy="1em" x="0" class="row">Ingress Controller</tspan><tspan xml:space="preserve" dy="1em" x="0" class="row">public/nginx</tspan></text></g></g><g class="node default default flowchart-label" id="flowchart-TV-0" data-node="true" data-id="TV" transform="translate(111.875, 110.75)"><rect class="basic label-container" style="" rx="0" ry="0" x="-86.875" y="-26.5" width="173.75" height="53"/><g class="label" style="" transform="translate(0, -19)"><rect/><text style=""><tspan xml:space="preserve" dy="1em" x="0" class="row">TV Apps</tspan><tspan xml:space="preserve" dy="1em" x="0" class="row">Samsung/Vizio/TCL</tspan></text></g></g><g class="node default default flowchart-label" id="flowchart-Browser-1" data-node="true" data-id="Browser" transform="translate(111.875, 204.75)"><rect class="basic label-container" style="" rx="0" ry="0" x="-69.5234375" y="-17.5" width="139.046875" height="35"/><g class="label" style="" transform="translate(0, -10)"><rect/><text style=""><tspan xml:space="preserve" dy="1em" x="0" class="row">Browser/Mobile</tspan></text></g></g></g></g></g></svg>