<svg aria-roledescription="flowchart-v2" role="graphics-document document" viewBox="-8 -8 1034.6875 1131.25" style="max-width: 1034.69px; background-color: white;" xmlns:xlink="http://www.w3.org/1999/xlink" xmlns="http://www.w3.org/2000/svg" width="100%" id="my-svg"><style>#my-svg{font-family:"trebuchet ms",verdana,arial,sans-serif;font-size:16px;fill:#333;}#my-svg .error-icon{fill:#552222;}#my-svg .error-text{fill:#552222;stroke:#552222;}#my-svg .edge-thickness-normal{stroke-width:2px;}#my-svg .edge-thickness-thick{stroke-width:3.5px;}#my-svg .edge-pattern-solid{stroke-dasharray:0;}#my-svg .edge-pattern-dashed{stroke-dasharray:3;}#my-svg .edge-pattern-dotted{stroke-dasharray:2;}#my-svg .marker{fill:#333333;stroke:#333333;}#my-svg .marker.cross{stroke:#333333;}#my-svg svg{font-family:"trebuchet ms",verdana,arial,sans-serif;font-size:16px;}#my-svg .label{font-family:"trebuchet ms",verdana,arial,sans-serif;color:#333;}#my-svg .cluster-label text{fill:#333;}#my-svg .cluster-label span,#my-svg p{color:#333;}#my-svg .label text,#my-svg span,#my-svg p{fill:#333;color:#333;}#my-svg .node rect,#my-svg .node circle,#my-svg .node ellipse,#my-svg .node polygon,#my-svg .node path{fill:#ECECFF;stroke:#9370DB;stroke-width:1px;}#my-svg .flowchart-label text{text-anchor:middle;}#my-svg .node .katex path{fill:#000;stroke:#000;stroke-width:1px;}#my-svg .node .label{text-align:center;}#my-svg .node.clickable{cursor:pointer;}#my-svg .arrowheadPath{fill:#333333;}#my-svg .edgePath .path{stroke:#333333;stroke-width:2.0px;}#my-svg .flowchart-link{stroke:#333333;fill:none;}#my-svg .edgeLabel{background-color:#e8e8e8;text-align:center;}#my-svg .edgeLabel rect{opacity:0.5;background-color:#e8e8e8;fill:#e8e8e8;}#my-svg .labelBkg{background-color:rgba(232, 232, 232, 0.5);}#my-svg .cluster rect{fill:#ffffde;stroke:#aaaa33;stroke-width:1px;}#my-svg .cluster text{fill:#333;}#my-svg .cluster span,#my-svg p{color:#333;}#my-svg div.mermaidTooltip{position:absolute;text-align:center;max-width:200px;padding:2px;font-family:"trebuchet ms",verdana,arial,sans-serif;font-size:12px;background:hsl(80, 100%, 96.2745098039%);border:1px solid #aaaa33;border-radius:2px;pointer-events:none;z-index:100;}#my-svg .flowchartTitleText{text-anchor:middle;font-size:18px;fill:#333;}#my-svg :root{--mermaid-font-family:"trebuchet ms",verdana,arial,sans-serif;}</style><g><marker orient="auto" markerHeight="12" markerWidth="12" markerUnits="userSpaceOnUse" refY="5" refX="6" viewBox="0 0 10 10" class="marker flowchart" id="my-svg_flowchart-pointEnd"><path style="stroke-width: 1; stroke-dasharray: 1, 0;" class="arrowMarkerPath" d="M 0 0 L 10 5 L 0 10 z"/></marker><marker orient="auto" markerHeight="12" markerWidth="12" markerUnits="userSpaceOnUse" refY="5" refX="4.5" viewBox="0 0 10 10" class="marker flowchart" id="my-svg_flowchart-pointStart"><path style="stroke-width: 1; stroke-dasharray: 1, 0;" class="arrowMarkerPath" d="M 0 5 L 10 10 L 10 0 z"/></marker><marker orient="auto" markerHeight="11" markerWidth="11" markerUnits="userSpaceOnUse" refY="5" refX="11" viewBox="0 0 10 10" class="marker flowchart" id="my-svg_flowchart-circleEnd"><circle style="stroke-width: 1; stroke-dasharray: 1, 0;" class="arrowMarkerPath" r="5" cy="5" cx="5"/></marker><marker orient="auto" markerHeight="11" markerWidth="11" markerUnits="userSpaceOnUse" refY="5" refX="-1" viewBox="0 0 10 10" class="marker flowchart" id="my-svg_flowchart-circleStart"><circle style="stroke-width: 1; stroke-dasharray: 1, 0;" class="arrowMarkerPath" r="5" cy="5" cx="5"/></marker><marker orient="auto" markerHeight="11" markerWidth="11" markerUnits="userSpaceOnUse" refY="5.2" refX="12" viewBox="0 0 11 11" class="marker cross flowchart" id="my-svg_flowchart-crossEnd"><path style="stroke-width: 2; stroke-dasharray: 1, 0;" class="arrowMarkerPath" d="M 1,1 l 9,9 M 10,1 l -9,9"/></marker><marker orient="auto" markerHeight="11" markerWidth="11" markerUnits="userSpaceOnUse" refY="5.2" refX="-1" viewBox="0 0 11 11" class="marker cross flowchart" id="my-svg_flowchart-crossStart"><path style="stroke-width: 2; stroke-dasharray: 1, 0;" class="arrowMarkerPath" d="M 1,1 l 9,9 M 10,1 l -9,9"/></marker><g class="root"><g class="clusters"><g id="Apps" class="cluster default flowchart-label"><rect height="795.25" width="762.578125" y="320" x="256.109375" ry="0" rx="0" style=""/><g transform="translate(548.46875, 320)" class="cluster-label"><foreignObject height="18" width="177.859375"><div style="display: inline-block; white-space: nowrap;" xmlns="http://www.w3.org/1999/xhtml"><span class="nodeLabel">Media Stack Namespace</span></div></foreignObject></g></g><g id="Edge" class="cluster default flowchart-label"><rect height="300" width="216.171875" y="0" x="256.109375" ry="0" rx="0" style=""/><g transform="translate(317.9453125, 0)" class="cluster-label"><foreignObject height="18" width="92.5"><div style="display: inline-block; white-space: nowrap;" xmlns="http://www.w3.org/1999/xhtml"><span class="nodeLabel">Cluster Edge</span></div></foreignObject></g></g><g id="Clients" class="cluster default flowchart-label"><rect height="204" width="206.109375" y="53.5" x="0" ry="0" rx="0" style=""/><g transform="translate(78.6015625, 53.5)" class="cluster-label"><foreignObject height="18" width="48.90625"><div style="display: inline-block; white-space: nowrap;" xmlns="http://www.w3.org/1999/xhtml"><span class="nodeLabel">Clients</span></div></foreignObject></g></g></g><g class="edgePaths"><path marker-end="url(#my-svg_flowchart-pointEnd)" style="fill:none;" class="edge-thickness-normal edge-pattern-solid flowchart-link LS-TV LE-Ingress" id="L-TV-Ingress-0" d="M181.109,114L185.276,114C189.443,114,197.776,114,206.109,114C214.443,114,222.776,114,231.109,114C239.443,114,247.776,114,257.346,115.8C266.915,117.599,277.721,121.198,283.123,122.998L288.526,124.797"/><path marker-end="url(#my-svg_flowchart-pointEnd)" style="fill:none;" class="edge-thickness-normal edge-pattern-solid flowchart-link LS-Browser LE-Ingress" id="L-Browser-Ingress-0" d="M165.688,206L172.424,206C179.161,206,192.635,206,203.539,206C214.443,206,222.776,206,231.109,206C239.443,206,247.776,206,260.97,201.323C274.163,196.646,292.218,187.292,301.245,182.615L310.272,177.938"/><path marker-end="url(#my-svg_flowchart-pointEnd)" style="fill:none;" class="edge-thickness-normal edge-pattern-solid flowchart-link LS-Ingress LE-Homepage" id="L-Ingress-Homepage-0" d="M389.252,124.5L403.09,110.417C416.928,96.333,444.605,68.167,462.61,109.333C480.615,150.5,488.948,261,501.361,316.25C513.775,371.5,530.269,371.5,538.516,371.5L546.763,371.5"/><path marker-end="url(#my-svg_flowchart-pointEnd)" style="fill:none;" class="edge-thickness-normal edge-pattern-solid flowchart-link LS-Ingress LE-Jellyseerr" id="L-Ingress-Jellyseerr-0" d="M434.836,156.536L441.077,157.113C447.318,157.69,459.799,158.845,470.207,247.881C480.615,336.917,488.948,513.833,502.179,602.292C515.41,690.75,533.54,690.75,542.604,690.75L551.669,690.75"/><path marker-end="url(#my-svg_flowchart-pointEnd)" style="fill:none;" class="edge-thickness-normal edge-pattern-solid flowchart-link LS-Ingress LE-Jellyfin" id="L-Ingress-Jellyfin-0" d="M394.82,124.5L407.73,113.75C420.64,103,446.461,81.5,463.538,131.25C480.615,181,488.948,302,510.018,362.5C531.089,423,564.896,423,598.703,423C632.51,423,666.318,423,687.249,423.295C708.181,423.59,716.237,424.181,720.264,424.476L724.292,424.771"/><path marker-end="url(#my-svg_flowchart-pointEnd)" style="fill:none;" class="edge-thickness-normal edge-pattern-solid flowchart-link LS-Ingress LE-Sonarr" id="L-Ingress-Sonarr-0" d="M434.836,143.464L441.077,142.887C447.318,142.31,459.799,141.155,470.207,223.786C480.615,306.417,488.948,472.833,510.018,556.042C531.089,639.25,564.896,639.25,598.703,639.25C632.51,639.25,666.318,639.25,689.5,644.516C712.682,649.781,725.239,660.313,731.518,665.579L737.797,670.844"/><path marker-end="url(#my-svg_flowchart-pointEnd)" style="fill:none;" class="edge-thickness-normal edge-pattern-solid flowchart-link LS-Ingress LE-Radarr" id="L-Ingress-Radarr-0" d="M434.836,169.607L441.077,171.339C447.318,173.071,459.799,176.536,470.207,273.393C480.615,370.25,488.948,560.5,510.018,655.625C531.089,750.75,564.896,750.75,598.703,750.75C632.51,750.75,666.318,750.75,687.344,752.865C708.371,754.98,716.617,759.21,720.739,761.325L724.862,763.44"/><path marker-end="url(#my-svg_flowchart-pointEnd)" style="fill:none;" class="edge-thickness-normal edge-pattern-solid flowchart-link LS-Ingress LE-Lidarr" id="L-Ingress-Lidarr-0" d="M394.82,175.5L407.73,186.25C420.64,197,446.461,218.5,463.538,349.417C480.615,480.333,488.948,720.667,510.018,840.833C531.089,961,564.896,961,598.703,961C632.51,961,666.318,961,687.956,962.523C709.594,964.046,719.063,967.091,723.798,968.614L728.533,970.137"/><path marker-end="url(#my-svg_flowchart-pointEnd)" style="fill:none;" class="edge-thickness-normal edge-pattern-solid flowchart-link LS-Ingress LE-Readarr" id="L-Ingress-Readarr-0" d="M389.252,175.5L403.09,189.583C416.928,203.667,444.605,231.833,462.61,374.667C480.615,517.5,488.948,775,510.018,903.75C531.089,1032.5,564.896,1032.5,598.703,1032.5C632.51,1032.5,666.318,1032.5,687.265,1034.558C708.212,1036.615,716.298,1040.731,720.342,1042.788L724.385,1044.846"/><path marker-end="url(#my-svg_flowchart-pointEnd)" style="fill:none;" class="edge-thickness-normal edge-pattern-solid flowchart-link LS-Ingress LE-Bazarr" id="L-Ingress-Bazarr-0" d="M419.319,124.5L428.146,120.417C436.973,116.333,454.627,108.167,467.621,180.333C480.615,252.5,488.948,405,503.958,481.25C518.968,557.5,540.654,557.5,551.497,557.5L562.341,557.5"/><path marker-end="url(#my-svg_flowchart-pointEnd)" style="fill:none;" class="edge-thickness-normal edge-pattern-solid flowchart-link LS-Ingress LE-Prowlarr" id="L-Ingress-Prowlarr-0" d="M419.319,175.5L428.146,179.583C436.973,183.667,454.627,191.833,467.621,293.667C480.615,395.5,488.948,591,502.932,690.275C516.916,789.549,536.55,792.598,546.367,794.123L556.185,795.647"/><path marker-end="url(#my-svg_flowchart-pointEnd)" style="fill:none;" class="edge-thickness-normal edge-pattern-solid flowchart-link LS-Ingress LE-QB" id="L-Ingress-QB-0" d="M434.836,130.393L441.077,128.661C447.318,126.929,459.799,123.464,470.207,203.232C480.615,283,488.948,446,510.018,527.5C531.089,609,564.896,609,598.703,609C632.51,609,666.318,609,693.456,609C720.594,609,741.063,609,761.531,609C782,609,802.469,609,827.131,636.013C851.793,663.025,880.648,717.05,895.075,744.063L909.503,771.075"/><path marker-end="url(#my-svg_flowchart-pointEnd)" style="fill:none;" class="edge-thickness-normal edge-pattern-solid flowchart-link LS-Ingress LE-SAB" id="L-Ingress-SAB-0" d="M403.569,175.5L415.021,182.917C426.473,190.333,449.377,205.167,464.996,318.917C480.615,432.667,488.948,645.333,510.018,751.667C531.089,858,564.896,858,598.703,858C632.51,858,666.318,858,693.456,858C720.594,858,741.063,858,761.531,858C782,858,802.469,858,824.538,866.646C846.607,875.291,870.277,892.582,882.111,901.228L893.946,909.874"/><path marker-end="url(#my-svg_flowchart-pointEnd)" style="fill:none;" class="edge-thickness-normal edge-pattern-solid flowchart-link LS-Ingress LE-Plex" id="L-Ingress-Plex-0" d="M403.569,124.5L415.021,117.083C426.473,109.667,449.377,94.833,464.996,153.167C480.615,211.5,488.948,343,499.954,408.75C510.96,474.5,524.639,474.5,531.478,474.5L538.317,474.5"/><path marker-end="url(#my-svg_flowchart-pointEnd)" style="fill:none;" class="edge-thickness-normal edge-pattern-solid flowchart-link LS-Jellyseerr LE-Sonarr" id="L-Jellyseerr-Sonarr-0" d="M640.438,690.75L650.385,690.75C660.333,690.75,680.229,690.75,694.276,690.75C708.322,690.75,716.519,690.75,720.617,690.75L724.716,690.75"/><path marker-end="url(#my-svg_flowchart-pointEnd)" style="fill:none;" class="edge-thickness-normal edge-pattern-solid flowchart-link LS-Jellyseerr LE-Radarr" id="L-Jellyseerr-Radarr-0" d="M618.219,707.25L631.87,718.792C645.521,730.333,672.823,753.417,690.503,765.336C708.184,777.255,716.242,778.009,720.272,778.387L724.301,778.764"/><path marker-end="url(#my-svg_flowchart-pointEnd)" style="fill:none;" class="edge-thickness-normal edge-pattern-solid flowchart-link LS-Jellyseerr LE-Jellyfin" id="L-Jellyseerr-Jellyfin-0" d="M608.279,674.25L623.587,647.875C638.895,621.5,669.51,568.75,692.64,531.101C715.77,493.451,731.416,470.903,739.239,459.629L747.061,448.354"/><path marker-end="url(#my-svg_flowchart-pointEnd)" style="fill:none;" class="edge-thickness-normal edge-pattern-solid flowchart-link LS-Prowlarr LE-Sonarr" id="L-Prowlarr-Sonarr-0" d="M616.992,785.75L630.848,773.25C644.703,760.75,672.414,735.75,690.411,721.901C708.409,708.052,716.692,705.354,720.834,704.005L724.976,702.656"/><path marker-end="url(#my-svg_flowchart-pointEnd)" style="fill:none;" class="edge-thickness-normal edge-pattern-solid flowchart-link LS-Prowlarr LE-Radarr" id="L-Prowlarr-Radarr-0" d="M635.984,802.25L646.674,802.25C657.365,802.25,678.745,802.25,693.504,800.925C708.263,799.599,716.401,796.949,720.47,795.624L724.539,794.298"/><path marker-end="url(#my-svg_flowchart-pointEnd)" style="fill:none;" class="edge-thickness-normal edge-pattern-solid flowchart-link LS-Prowlarr LE-Lidarr" id="L-Prowlarr-Lidarr-0" d="M608.065,818.75L623.408,845.792C638.752,872.833,669.438,926.917,689.474,953.939C709.509,980.962,718.894,980.924,723.586,980.904L728.278,980.885"/><path marker-end="url(#my-svg_flowchart-pointEnd)" style="fill:none;" class="edge-thickness-normal edge-pattern-solid flowchart-link LS-Prowlarr LE-Readarr" id="L-Prowlarr-Readarr-0" d="M605.096,818.75L620.935,859.625C636.773,900.5,668.449,982.25,687.57,1023.112C706.692,1063.973,713.258,1063.947,716.542,1063.933L719.825,1063.92"/><path marker-end="url(#my-svg_flowchart-pointEnd)" style="fill:none;" class="edge-thickness-normal edge-pattern-solid flowchart-link LS-Flare LE-Prowlarr" id="L-Flare-Prowlarr-0" d="M447.281,818L451.448,818C455.615,818,463.948,818,472.281,818C480.615,818,488.948,818,502.932,816.475C516.916,814.951,536.55,811.902,546.367,810.377L556.185,808.853"/><path marker-end="url(#my-svg_flowchart-pointEnd)" style="fill:none;" class="edge-thickness-normal edge-pattern-solid flowchart-link LS-Sonarr LE-QB" id="L-Sonarr-QB-0" d="M793.047,690.75L798.029,690.75C803.01,690.75,812.974,690.75,831.003,704.281C849.033,717.812,875.128,744.873,888.175,758.404L901.223,771.935"/><path marker-end="url(#my-svg_flowchart-pointEnd)" style="fill:none;" class="edge-thickness-normal edge-pattern-solid flowchart-link LS-Radarr LE-QB" id="L-Radarr-QB-0" d="M793.484,782.25L798.393,782.25C803.302,782.25,813.12,782.25,826.061,783.071C839.003,783.891,855.068,785.533,863.101,786.354L871.134,787.174"/><path marker-end="url(#my-svg_flowchart-pointEnd)" style="fill:none;" class="edge-thickness-normal edge-pattern-solid flowchart-link LS-Lidarr LE-QB" id="L-Lidarr-QB-0" d="M767.757,964.25L776.954,939.875C786.15,915.5,804.544,866.75,821.798,840.255C839.052,813.76,855.166,809.521,863.223,807.401L871.281,805.281"/><path marker-end="url(#my-svg_flowchart-pointEnd)" style="fill:none;" class="edge-thickness-normal edge-pattern-solid flowchart-link LS-Readarr LE-QB" id="L-Readarr-QB-0" d="M766.019,1047.25L775.506,1012.375C784.992,977.5,803.965,907.75,823.08,868.374C842.196,828.998,861.454,819.996,871.083,815.495L880.712,810.994"/><path marker-end="url(#my-svg_flowchart-pointEnd)" style="fill:none;" class="edge-thickness-normal edge-pattern-solid flowchart-link LS-Sonarr LE-SAB" id="L-Sonarr-SAB-0" d="M766.26,707.25L775.707,740.208C785.153,773.167,804.045,839.083,817.961,873.161C831.877,907.238,840.816,909.475,845.286,910.594L849.755,911.713"/><path marker-end="url(#my-svg_flowchart-pointEnd)" style="fill:none;" class="edge-thickness-normal edge-pattern-solid flowchart-link LS-Radarr LE-SAB" id="L-Radarr-SAB-0" d="M768.629,798.75L777.68,819.792C786.732,840.833,804.835,882.917,817.17,904.109C829.506,925.302,836.075,925.604,839.359,925.755L842.643,925.906"/><path marker-end="url(#my-svg_flowchart-pointEnd)" style="fill:none;" class="edge-thickness-normal edge-pattern-solid flowchart-link LS-Lidarr LE-SAB" id="L-Lidarr-SAB-0" d="M789.484,980.75L795.06,980.75C800.635,980.75,811.786,980.75,827.64,975.368C843.494,969.986,864.05,959.222,874.328,953.84L884.606,948.459"/><path marker-end="url(#my-svg_flowchart-pointEnd)" style="fill:none;" class="edge-thickness-normal edge-pattern-solid flowchart-link LS-Readarr LE-SAB" id="L-Readarr-SAB-0" d="M797.938,1063.75L802.104,1063.75C806.271,1063.75,814.604,1063.75,832.558,1044.839C850.512,1025.928,878.086,988.105,891.874,969.194L905.661,950.283"/><path marker-end="url(#my-svg_flowchart-pointEnd)" style="fill:none;" class="edge-thickness-normal edge-pattern-solid flowchart-link LS-Unpackerr LE-Sonarr" id="L-Unpackerr-Sonarr-0" d="M608.065,893L623.408,865.958C638.752,838.917,669.438,784.833,690.054,754.357C710.67,723.881,721.215,717.012,726.488,713.577L731.76,710.143"/><path marker-end="url(#my-svg_flowchart-pointEnd)" style="fill:none;" class="edge-thickness-normal edge-pattern-solid flowchart-link LS-Unpackerr LE-Radarr" id="L-Unpackerr-Radarr-0" d="M619.236,893L632.718,882.167C646.199,871.333,673.162,849.667,692.479,834.486C711.795,819.305,723.465,810.611,729.3,806.264L735.135,801.916"/><path marker-end="url(#my-svg_flowchart-pointEnd)" style="fill:none;" class="edge-thickness-normal edge-pattern-solid flowchart-link LS-Unpackerr LE-Lidarr" id="L-Unpackerr-Lidarr-0" d="M614.95,926L629.146,940.417C643.342,954.833,671.733,983.667,690.72,995.606C709.707,1007.546,719.288,1002.592,724.079,1000.114L728.87,997.637"/><path marker-end="url(#my-svg_flowchart-pointEnd)" style="fill:none;" class="edge-thickness-normal edge-pattern-solid flowchart-link LS-Unpackerr LE-Readarr" id="L-Unpackerr-Readarr-0" d="M608,926L623.354,953.25C638.708,980.5,669.417,1035,688.123,1060.844C706.829,1086.689,713.533,1083.877,716.885,1082.472L720.237,1081.066"/></g><g class="edgeLabels"><g class="edgeLabel"><g transform="translate(0, 0)" class="label"><foreignObject height="0" width="0"><div style="display: inline-block; white-space: nowrap;" xmlns="http://www.w3.org/1999/xhtml"><span class="edgeLabel"></span></div></foreignObject></g></g><g class="edgeLabel"><g transform="translate(0, 0)" class="label"><foreignObject height="0" width="0"><div style="display: inline-block; white-space: nowrap;" xmlns="http://www.w3.org/1999/xhtml"><span class="edgeLabel"></span></div></foreignObject></g></g><g class="edgeLabel"><g transform="translate(0, 0)" class="label"><foreignObject height="0" width="0"><div style="display: inline-block; white-space: nowrap;" xmlns="http://www.w3.org/1999/xhtml"><span class="edgeLabel"></span></div></foreignObject></g></g><g class="edgeLabel"><g transform="translate(0, 0)" class="label"><foreignObject height="0" width="0"><div style="display: inline-block; white-space: nowrap;" xmlns="http://www.w3.org/1999/xhtml"><span class="edgeLabel"></span></div></foreignObject></g></g><g class="edgeLabel"><g transform="translate(0, 0)" class="label"><foreignObject height="0" width="0"><div style="display: inline-block; white-space: nowrap;" xmlns="http://www.w3.org/1999/xhtml"><span class="edgeLabel"></span></div></foreignObject></g></g><g class="edgeLabel"><g transform="translate(0, 0)" class="label"><foreignObject height="0" width="0"><div style="display: inline-block; white-space: nowrap;" xmlns="http://www.w3.org/1999/xhtml"><span class="edgeLabel"></span></div></foreignObject></g></g><g class="edgeLabel"><g transform="translate(0, 0)" class="label"><foreignObject height="0" width="0"><div style="display: inline-block; white-space: nowrap;" xmlns="http://www.w3.org/1999/xhtml"><span class="edgeLabel"></span></div></foreignObject></g></g><g class="edgeLabel"><g transform="translate(0, 0)" class="label"><foreignObject height="0" width="0"><div style="display: inline-block; white-space: nowrap;" xmlns="http://www.w3.org/1999/xhtml"><span class="edgeLabel"></span></div></foreignObject></g></g><g class="edgeLabel"><g transform="translate(0, 0)" class="label"><foreignObject height="0" width="0"><div style="display: inline-block; white-space: nowrap;" xmlns="http://www.w3.org/1999/xhtml"><span class="edgeLabel"></span></div></foreignObject></g></g><g class="edgeLabel"><g transform="translate(0, 0)" class="label"><foreignObject height="0" width="0"><div style="display: inline-block; white-space: nowrap;" xmlns="http://www.w3.org/1999/xhtml"><span class="edgeLabel"></span></div></foreignObject></g></g><g class="edgeLabel"><g transform="translate(0, 0)" class="label"><foreignObject height="0" width="0"><div style="display: inline-block; white-space: nowrap;" xmlns="http://www.w3.org/1999/xhtml"><span class="edgeLabel"></span></div></foreignObject></g></g><g class="edgeLabel"><g transform="translate(0, 0)" class="label"><foreignObject height="0" width="0"><div style="display: inline-block; white-space: nowrap;" xmlns="http://www.w3.org/1999/xhtml"><span class="edgeLabel"></span></div></foreignObject></g></g><g class="edgeLabel"><g transform="translate(0, 0)" class="label"><foreignObject height="0" width="0"><div style="display: inline-block; white-space: nowrap;" xmlns="http://www.w3.org/1999/xhtml"><span class="edgeLabel"></span></div></foreignObject></g></g><g class="edgeLabel"><g transform="translate(0, 0)" class="label"><foreignObject height="0" width="0"><div style="display: inline-block; white-space: nowrap;" xmlns="http://www.w3.org/1999/xhtml"><span class="edgeLabel"></span></div></foreignObject></g></g><g class="edgeLabel"><g transform="translate(0, 0)" class="label"><foreignObject height="0" width="0"><div style="display: inline-block; white-space: nowrap;" xmlns="http://www.w3.org/1999/xhtml"><span class="edgeLabel"></span></div></foreignObject></g></g><g class="edgeLabel"><g transform="translate(0, 0)" class="label"><foreignObject height="0" width="0"><div style="display: inline-block; white-space: nowrap;" xmlns="http://www.w3.org/1999/xhtml"><span class="edgeLabel"></span></div></foreignObject></g></g><g class="edgeLabel"><g transform="translate(0, 0)" class="label"><foreignObject height="0" width="0"><div style="display: inline-block; white-space: nowrap;" xmlns="http://www.w3.org/1999/xhtml"><span class="edgeLabel"></span></div></foreignObject></g></g><g class="edgeLabel"><g transform="translate(0, 0)" class="label"><foreignObject height="0" width="0"><div style="display: inline-block; white-space: nowrap;" xmlns="http://www.w3.org/1999/xhtml"><span class="edgeLabel"></span></div></foreignObject></g></g><g class="edgeLabel"><g transform="translate(0, 0)" class="label"><foreignObject height="0" width="0"><div style="display: inline-block; white-space: nowrap;" xmlns="http://www.w3.org/1999/xhtml"><span class="edgeLabel"></span></div></foreignObject></g></g><g class="edgeLabel"><g transform="translate(0, 0)" class="label"><foreignObject height="0" width="0"><div style="display: inline-block; white-space: nowrap;" xmlns="http://www.w3.org/1999/xhtml"><span class="edgeLabel"></span></div></foreignObject></g></g><g class="edgeLabel"><g transform="translate(0, 0)" class="label"><foreignObject height="0" width="0"><div style="display: inline-block; white-space: nowrap;" xmlns="http://www.w3.org/1999/xhtml"><span class="edgeLabel"></span></div></foreignObject></g></g><g class="edgeLabel"><g transform="translate(0, 0)" class="label"><foreignObject height="0" width="0"><div style="display: inline-block; white-space: nowrap;" xmlns="http://www.w3.org/1999/xhtml"><span class="edgeLabel"></span></div></foreignObject></g></g><g class="edgeLabel"><g transform="translate(0, 0)" class="label"><foreignObject height="0" width="0"><div style="display: inline-block; white-space: nowrap;" xmlns="http://www.w3.org/1999/xhtml"><span class="edgeLabel"></span></div></foreignObject></g></g><g class="edgeLabel"><g transform="translate(0, 0)" class="label"><foreignObject height="0" width="0"><div style="display: inline-block; white-space: nowrap;" xmlns="http://www.w3.org/1999/xhtml"><span class="edgeLabel"></span></div></foreignObject></g></g><g class="edgeLabel"><g transform="translate(0, 0)" class="label"><foreignObject height="0" width="0"><div style="display: inline-block; white-space: nowrap;" xmlns="http://www.w3.org/1999/xhtml"><span class="edgeLabel"></span></div></foreignObject></g></g><g class="edgeLabel"><g transform="translate(0, 0)" class="label"><foreignObject height="0" width="0"><div style="display: inline-block; white-space: nowrap;" xmlns="http://www.w3.org/1999/xhtml"><span class="edgeLabel"></span></div></foreignObject></g></g><g class="edgeLabel"><g transform="translate(0, 0)" class="label"><foreignObject height="0" width="0"><div style="display: inline-block; white-space: nowrap;" xmlns="http://www.w3.org/1999/xhtml"><span class="edgeLabel"></span></div></foreignObject></g></g><g class="edgeLabel"><g transform="translate(0, 0)" class="label"><foreignObject height="0" width="0"><div style="display: inline-block; white-space: nowrap;" xmlns="http://www.w3.org/1999/xhtml"><span class="edgeLabel"></span></div></foreignObject></g></g><g class="edgeLabel"><g transform="translate(0, 0)" class="label"><foreignObject height="0" width="0"><div style="display: inline-block; white-space: nowrap;" xmlns="http://www.w3.org/1999/xhtml"><span class="edgeLabel"></span></div></foreignObject></g></g><g class="edgeLabel"><g transform="translate(0, 0)" class="label"><foreignObject height="0" width="0"><div style="display: inline-block; white-space: nowrap;" xmlns="http://www.w3.org/1999/xhtml"><span class="edgeLabel"></span></div></foreignObject></g></g><g class="edgeLabel"><g transform="translate(0, 0)" class="label"><foreignObject height="0" width="0"><div style="display: inline-block; white-space: nowrap;" xmlns="http://www.w3.org/1999/xhtml"><span class="edgeLabel"></span></div></foreignObject></g></g><g class="edgeLabel"><g transform="translate(0, 0)" class="label"><foreignObject height="0" width="0"><div style="display: inline-block; white-space: nowrap;" xmlns="http://www.w3.org/1999/xhtml"><span class="edgeLabel"></span></div></foreignObject></g></g><g class="edgeLabel"><g transform="translate(0, 0)" class="label"><foreignObject height="0" width="0"><div style="display: inline-block; white-space: nowrap;" xmlns="http://www.w3.org/1999/xhtml"><span class="edgeLabel"></span></div></foreignObject></g></g><g class="edgeLabel"><g transform="translate(0, 0)" class="label"><foreignObject height="0" width="0"><div style="display: inline-block; white-space: nowrap;" xmlns="http://www.w3.org/1999/xhtml"><span class="edgeLabel"></span></div></foreignObject></g></g></g><g class="nodes"><g transform="translate(598.703125, 371.5)" data-id="Homepage" data-node="true" id="flowchart-Homepage-3" class="node default default flowchart-label"><rect height="33" width="93.28125" y="-16.5" x="-46.640625" ry="0" rx="0" style="" class="basic label-container"/><g transform="translate(-39.140625, -9)" style="" class="label"><rect/><foreignObject height="18" width="78.28125"><div style="display: inline-block; white-space: nowrap;" xmlns="http://www.w3.org/1999/xhtml"><span class="nodeLabel">Homepage</span></div></foreignObject></g></g><g transform="translate(598.703125, 690.75)" data-id="Jellyseerr" data-node="true" id="flowchart-Jellyseerr-4" class="node default default flowchart-label"><rect height="33" width="83.46875" y="-16.5" x="-41.734375" ry="0" rx="0" style="" class="basic label-container"/><g transform="translate(-34.234375, -9)" style="" class="label"><rect/><foreignObject height="18" width="68.46875"><div style="display: inline-block; white-space: nowrap;" xmlns="http://www.w3.org/1999/xhtml"><span class="nodeLabel">Jellyseerr</span></div></foreignObject></g></g><g transform="translate(761.53125, 427.5)" data-id="Jellyfin" data-node="true" id="flowchart-Jellyfin-5" class="node default default flowchart-label"><rect height="33" width="63.90625" y="-16.5" x="-31.953125" ry="0" rx="0" style="" class="basic label-container"/><g transform="translate(-24.453125, -9)" style="" class="label"><rect/><foreignObject height="18" width="48.90625"><div style="display: inline-block; white-space: nowrap;" xmlns="http://www.w3.org/1999/xhtml"><span class="nodeLabel">Jellyfin</span></div></foreignObject></g></g><g transform="translate(598.703125, 474.5)" data-id="Plex" data-node="true" id="flowchart-Plex-6" class="node default default flowchart-label"><rect height="33" width="110.171875" y="-16.5" x="-55.0859375" ry="0" rx="0" style="" class="basic label-container"/><g transform="translate(-47.5859375, -9)" style="" class="label"><rect/><foreignObject height="18" width="95.171875"><div style="display: inline-block; white-space: nowrap;" xmlns="http://www.w3.org/1999/xhtml"><span class="nodeLabel">Plex Optional</span></div></foreignObject></g></g><g transform="translate(761.53125, 690.75)" data-id="Sonarr" data-node="true" id="flowchart-Sonarr-7" class="node default default flowchart-label"><rect height="33" width="63.03125" y="-16.5" x="-31.515625" ry="0" rx="0" style="" class="basic label-container"/><g transform="translate(-24.015625, -9)" style="" class="label"><rect/><foreignObject height="18" width="48.03125"><div style="display: inline-block; white-space: nowrap;" xmlns="http://www.w3.org/1999/xhtml"><span class="nodeLabel">Sonarr</span></div></foreignObject></g></g><g transform="translate(761.53125, 782.25)" data-id="Radarr" data-node="true" id="flowchart-Radarr-8" class="node default default flowchart-label"><rect height="33" width="63.90625" y="-16.5" x="-31.953125" ry="0" rx="0" style="" class="basic label-container"/><g transform="translate(-24.453125, -9)" style="" class="label"><rect/><foreignObject height="18" width="48.90625"><div style="display: inline-block; white-space: nowrap;" xmlns="http://www.w3.org/1999/xhtml"><span class="nodeLabel">Radarr</span></div></foreignObject></g></g><g transform="translate(761.53125, 980.75)" data-id="Lidarr" data-node="true" id="flowchart-Lidarr-9" class="node default default flowchart-label"><rect height="33" width="55.90625" y="-16.5" x="-27.953125" ry="0" rx="0" style="" class="basic label-container"/><g transform="translate(-20.453125, -9)" style="" class="label"><rect/><foreignObject height="18" width="40.90625"><div style="display: inline-block; white-space: nowrap;" xmlns="http://www.w3.org/1999/xhtml"><span class="nodeLabel">Lidarr</span></div></foreignObject></g></g><g transform="translate(761.53125, 1063.75)" data-id="Readarr" data-node="true" id="flowchart-Readarr-10" class="node default default flowchart-label"><rect height="33" width="72.8125" y="-16.5" x="-36.40625" ry="0" rx="0" style="" class="basic label-container"/><g transform="translate(-28.90625, -9)" style="" class="label"><rect/><foreignObject height="18" width="57.8125"><div style="display: inline-block; white-space: nowrap;" xmlns="http://www.w3.org/1999/xhtml"><span class="nodeLabel">Readarr</span></div></foreignObject></g></g><g transform="translate(598.703125, 557.5)" data-id="Bazarr" data-node="true" id="flowchart-Bazarr-11" class="node default default flowchart-label"><rect height="33" width="62.125" y="-16.5" x="-31.0625" ry="0" rx="0" style="" class="basic label-container"/><g transform="translate(-23.5625, -9)" style="" class="label"><rect/><foreignObject height="18" width="47.125"><div style="display: inline-block; white-space: nowrap;" xmlns="http://www.w3.org/1999/xhtml"><span class="nodeLabel">Bazarr</span></div></foreignObject></g></g><g transform="translate(598.703125, 802.25)" data-id="Prowlarr" data-node="true" id="flowchart-Prowlarr-12" class="node default default flowchart-label"><rect height="33" width="74.5625" y="-16.5" x="-37.28125" ry="0" rx="0" style="" class="basic label-container"/><g transform="translate(-29.78125, -9)" style="" class="label"><rect/><foreignObject height="18" width="59.5625"><div style="display: inline-block; white-space: nowrap;" xmlns="http://www.w3.org/1999/xhtml"><span class="nodeLabel">Prowlarr</span></div></foreignObject></g></g><g transform="translate(920.8125, 792.25)" data-id="QB" data-node="true" id="flowchart-QB-13" class="node default default flowchart-label"><rect height="33" width="88.8125" y="-16.5" x="-44.40625" ry="0" rx="0" style="" class="basic label-container"/><g transform="translate(-36.90625, -9)" style="" class="label"><rect/><foreignObject height="18" width="73.8125"><div style="display: inline-block; white-space: nowrap;" xmlns="http://www.w3.org/1999/xhtml"><span class="nodeLabel">qBittorrent</span></div></foreignObject></g></g><g transform="translate(920.8125, 929.5)" data-id="SAB" data-node="true" id="flowchart-SAB-14" class="node default default flowchart-label"><rect height="33" width="145.75" y="-16.5" x="-72.875" ry="0" rx="0" style="" class="basic label-container"/><g transform="translate(-65.375, -9)" style="" class="label"><rect/><foreignObject height="18" width="130.75"><div style="display: inline-block; white-space: nowrap;" xmlns="http://www.w3.org/1999/xhtml"><span class="nodeLabel">SABnzbd Optional</span></div></foreignObject></g></g><g transform="translate(598.703125, 909.5)" data-id="Unpackerr" data-node="true" id="flowchart-Unpackerr-15" class="node default default flowchart-label"><rect height="33" width="152.84375" y="-16.5" x="-76.421875" ry="0" rx="0" style="" class="basic label-container"/><g transform="translate(-68.921875, -9)" style="" class="label"><rect/><foreignObject height="18" width="137.84375"><div style="display: inline-block; white-space: nowrap;" xmlns="http://www.w3.org/1999/xhtml"><span class="nodeLabel">Unpackerr Optional</span></div></foreignObject></g></g><g transform="translate(364.1953125, 818)" data-id="Flare" data-node="true" id="flowchart-Flare-16" class="node default default flowchart-label"><rect height="33" width="166.171875" y="-16.5" x="-83.0859375" ry="0" rx="0" style="" class="basic label-container"/><g transform="translate(-75.5859375, -9)" style="" class="label"><rect/><foreignObject height="18" width="151.171875"><div style="display: inline-block; white-space: nowrap;" xmlns="http://www.w3.org/1999/xhtml"><span class="nodeLabel">FlareSolverr Optional</span></div></foreignObject></g></g><g transform="translate(364.1953125, 150)" data-id="Ingress" data-node="true" id="flowchart-Ingress-2" class="node default default flowchart-label"><rect height="51" width="141.28125" y="-25.5" x="-70.640625" ry="0" rx="0" style="" class="basic label-container"/><g transform="translate(-63.140625, -18)" style="" class="label"><rect/><foreignObject height="36" width="126.28125"><div style="display: inline-block; white-space: nowrap;" xmlns="http://www.w3.org/1999/xhtml"><span class="nodeLabel">Ingress Controller<br />public/nginx</span></div></foreignObject></g></g><g transform="translate(103.0546875, 114)" data-id="TV" data-node="true" id="flowchart-TV-0" class="node default default flowchart-label"><rect height="51" width="156.109375" y="-25.5" x="-78.0546875" ry="0" rx="0" style="" class="basic label-container"/><g transform="translate(-70.5546875, -18)" style="" class="label"><rect/><foreignObject height="36" width="141.109375"><div style="display: inline-block; white-space: nowrap;" xmlns="http://www.w3.org/1999/xhtml"><span class="nodeLabel">TV Apps<br />Samsung/Vizio/TCL</span></div></foreignObject></g></g><g transform="translate(103.0546875, 206)" data-id="Browser" data-node="true" id="flowchart-Browser-1" class="node default default flowchart-label"><rect height="33" width="125.265625" y="-16.5" x="-62.6328125" ry="0" rx="0" style="" class="basic label-container"/><g transform="translate(-55.1328125, -9)" style="" class="label"><rect/><foreignObject height="18" width="110.265625"><div style="display: inline-block; white-space: nowrap;" xmlns="http://www.w3.org/1999/xhtml"><span class="nodeLabel">Browser/Mobile</span></div></foreignObject></g></g></g></g></g></svg>