<svg id="my-svg" width="100%" xmlns="http://www.w3.org/2000/svg" xmlns:xlink="http://www.w3.org/1999/xlink" style="max-width: 1566.02px; background-color: white;" viewBox="-8 -8 1566.015625 1538" role="graphics-document document" aria-roledescription="flowchart-v2"><style>#my-svg{font-family:"trebuchet ms",verdana,arial,sans-serif;font-size:18px;fill:#000000;}#my-svg .error-icon{fill:#552222;}#my-svg .error-text{fill:#552222;stroke:#552222;}#my-svg .edge-thickness-normal{stroke-width:2px;}#my-svg .edge-thickness-thick{stroke-width:3.5px;}#my-svg .edge-pattern-solid{stroke-dasharray:0;}#my-svg .edge-pattern-dashed{stroke-dasharray:3;}#my-svg .edge-pattern-dotted{stroke-dasharray:2;}#my-svg .marker{fill:#1f2937;stroke:#1f2937;}#my-svg .marker.cross{stroke:#1f2937;}#my-svg svg{font-family:"trebuchet ms",verdana,arial,sans-serif;font-size:18px;}#my-svg .label{font-family:"trebuchet ms",verdana,arial,sans-serif;color:#000000;}#my-svg .cluster-label text{fill:#333;}#my-svg .cluster-label span,#my-svg p{color:#333;}#my-svg .label text,#my-svg span,#my-svg p{fill:#000000;color:#000000;}#my-svg .node rect,#my-svg .node circle,#my-svg .node ellipse,#my-svg .node polygon,#my-svg .node path{fill:#eee;stroke:#999;stroke-width:1px;}#my-svg .flowchart-label text{text-anchor:middle;}#my-svg .node .katex path{fill:#000;stroke:#000;stroke-width:1px;}#my-svg .node .label{text-align:center;}#my-svg .node.clickable{cursor:pointer;}#my-svg .arrowheadPath{fill:#333333;}#my-svg .edgePath .path{stroke:#1f2937;stroke-width:2.0px;}#my-svg .flowchart-link{stroke:#1f2937;fill:none;}#my-svg .edgeLabel{background-color:white;text-align:center;}#my-svg .edgeLabel rect{opacity:0.5;background-color:white;fill:white;}#my-svg .labelBkg{background-color:rgba(255, 255, 255, 0.5);}#my-svg .cluster rect{fill:#f8fafc;stroke:#334155;stroke-width:1px;}#my-svg .cluster text{fill:#333;}#my-svg .cluster span,#my-svg p{color:#333;}#my-svg div.mermaidTooltip{position:absolute;text-align:center;max-width:200px;padding:2px;font-family:"trebuchet ms",verdana,arial,sans-serif;font-size:12px;background:#fef9c3;border:1px solid #707070;border-radius:2px;pointer-events:none;z-index:100;}#my-svg .flowchartTitleText{text-anchor:middle;font-size:18px;fill:#000000;}#my-svg :root{--mermaid-font-family:"trebuchet ms",verdana,arial,sans-serif;}</style><g><marker id="my-svg_flowchart-pointEnd" class="marker flowchart" viewBox="0 0 10 10" refX="6" refY="5" markerUnits="userSpaceOnUse" markerWidth="12" markerHeight="12" orient="auto"><path d="M 0 0 L 10 5 L 0 10 z" class="arrowMarkerPath" style="stroke-width: 1; stroke-dasharray: 1, 0;"/></marker><marker id="my-svg_flowchart-pointStart" class="marker flowchart" viewBox="0 0 10 10" refX="4.5" refY="5" markerUnits="userSpaceOnUse" markerWidth="12" markerHeight="12" orient="auto"><path d="M 0 5 L 10 10 L 10 0 z" class="arrowMarkerPath" style="stroke-width: 1; stroke-dasharray: 1, 0;"/></marker><marker id="my-svg_flowchart-circleEnd" class="marker flowchart" viewBox="0 0 10 10" refX="11" refY="5" markerUnits="userSpaceOnUse" markerWidth="11" markerHeight="11" orient="auto"><circle cx="5" cy="5" r="5" class="arrowMarkerPath" style="stroke-width: 1; stroke-dasharray: 1, 0;"/></marker><marker id="my-svg_flowchart-circleStart" class="marker flowchart" viewBox="0 0 10 10" refX="-1" refY="5" markerUnits="userSpaceOnUse" markerWidth="11" markerHeight="11" orient="auto"><circle cx="5" cy="5" r="5" class="arrowMarkerPath" style="stroke-width: 1; stroke-dasharray: 1, 0;"/></marker><marker id="my-svg_flowchart-crossEnd" class="marker cross flowchart" viewBox="0 0 11 11" refX="12" refY="5.2" markerUnits="userSpaceOnUse" markerWidth="11" markerHeight="11" orient="auto"><path d="M 1,1 l 9,9 M 10,1 l -9,9" class="arrowMarkerPath" style="stroke-width: 2; stroke-dasharray: 1, 0;"/></marker><marker id="my-svg_flowchart-crossStart" class="marker cross flowchart" viewBox="0 0 11 11" refX="-1" refY="5.2" markerUnits="userSpaceOnUse" markerWidth="11" markerHeight="11" orient="auto"><path d="M 1,1 l 9,9 M 10,1 l -9,9" class="arrowMarkerPath" style="stroke-width: 2; stroke-dasharray: 1, 0;"/></marker><g class="root"><g class="clusters"><g class="cluster default flowchart-label" id="Apps"><rect style="" rx="0" ry="0" x="273.75" y="390.75" width="1276.265625" height="1131.25"/><g class="cluster-label" transform="translate(911.8828125, 390.75)"><text style=""><tspan xml:space="preserve" dy="1em" x="0" class="row">Media Stack Namespace</tspan></text></g></g><g class="cluster default flowchart-label" id="Edge"><rect style="" rx="0" ry="0" x="273.75" y="0" width="264.625" height="370.75"/><g class="cluster-label" transform="translate(406.0625, 0)"><text style=""><tspan xml:space="preserve" dy="1em" x="0" class="row">Cluster Edge</tspan></text></g></g><g class="cluster default flowchart-label" id="Clients"><rect style="" rx="0" ry="0" x="0" y="59.25" width="223.75" height="208"/><g class="cluster-label" transform="translate(111.875, 59.25)"><text style=""><tspan xml:space="preserve" dy="1em" x="0" class="row">Clients</tspan></text></g></g></g><g class="edgePaths"><path d="M198.75,120.75L202.917,120.75C207.083,120.75,215.417,120.75,223.75,120.75C232.083,120.75,240.417,120.75,248.75,120.75C257.083,120.75,265.417,120.75,277.439,123.348C289.462,125.945,305.175,131.141,313.031,133.738L320.887,136.336" id="L-TV-Envoy-0" class=" edge-thickness-normal edge-pattern-solid flowchart-link LS-TV LE-Envoy" style="fill:none;" marker-end="url(#my-svg_flowchart-pointEnd)"/><path d="M181.398,214.75L188.457,214.75C195.516,214.75,209.633,214.75,220.858,214.75C232.083,214.75,240.417,214.75,248.75,214.75C257.083,214.75,265.417,214.75,279.18,211.105C292.944,207.461,312.137,200.171,321.734,196.526L331.331,192.882" id="L-Browser-Envoy-0" class=" edge-thickness-normal edge-pattern-solid flowchart-link LS-Browser LE-Envoy" style="fill:none;" marker-end="url(#my-svg_flowchart-pointEnd)"/><path d="M447.557,138L462.693,128.333C477.83,118.667,508.102,99.333,536.494,166.667C564.885,234,591.396,388,633.329,465C675.263,542,732.62,542,784.307,542C835.995,542,882.013,542,933.717,542C985.422,542,1042.813,542,1108.875,542C1174.938,542,1249.672,542,1306.551,554.401C1363.43,566.802,1402.454,591.605,1421.965,604.006L1441.477,616.407" id="L-Envoy-Homepage-0" class=" edge-thickness-normal edge-pattern-solid flowchart-link LS-Envoy LE-Homepage" style="fill:none;" marker-end="url(#my-svg_flowchart-pointEnd)"/><path d="M469.239,191L480.761,195.833C492.284,200.667,515.33,210.333,540.107,341.333C564.885,472.333,591.396,724.667,624.777,850.833C658.158,977,698.409,977,718.535,977L738.661,977" id="L-Envoy-Jellyseerr-0" class=" edge-thickness-normal edge-pattern-solid flowchart-link LS-Envoy LE-Jellyseerr" style="fill:none;" marker-end="url(#my-svg_flowchart-pointEnd)"/><path d="M434.225,138L451.584,121.667C468.942,105.333,503.658,72.667,534.272,122.5C564.885,172.333,591.396,304.667,633.329,370.833C675.263,437,732.62,437,784.307,437C835.995,437,882.013,437,926.999,437.798C971.984,438.596,1015.938,440.191,1037.914,440.989L1059.891,441.787" id="L-Envoy-Jellyfin-0" class=" edge-thickness-normal edge-pattern-solid flowchart-link LS-Envoy LE-Jellyfin" style="fill:none;" marker-end="url(#my-svg_flowchart-pointEnd)"/><path d="M504.831,191L510.422,192.5C516.012,194,527.194,197,546.04,319.25C564.885,441.5,591.396,683,633.329,803.75C675.263,924.5,732.62,924.5,784.307,924.5C835.995,924.5,882.013,924.5,927.106,929.855C972.2,935.21,1016.368,945.921,1038.452,951.276L1060.536,956.631" id="L-Envoy-Sonarr-0" class=" edge-thickness-normal edge-pattern-solid flowchart-link LS-Envoy LE-Sonarr" style="fill:none;" marker-end="url(#my-svg_flowchart-pointEnd)"/><path d="M452.503,191L466.815,199.167C481.127,207.333,509.751,223.667,537.318,368C564.885,512.333,591.396,784.667,633.329,920.833C675.263,1057,732.62,1057,784.307,1057C835.995,1057,882.013,1057,927.031,1063.136C972.048,1069.272,1016.065,1081.543,1038.074,1087.679L1060.082,1093.815" id="L-Envoy-Radarr-0" class=" edge-thickness-normal edge-pattern-solid flowchart-link LS-Envoy LE-Radarr" style="fill:none;" marker-end="url(#my-svg_flowchart-pointEnd)"/><path d="M431.939,191L449.678,209.167C467.418,227.333,502.896,263.667,533.891,442.458C564.885,621.25,591.396,942.5,633.329,1103.125C675.263,1263.75,732.62,1263.75,784.307,1263.75C835.995,1263.75,882.013,1263.75,927.75,1265.07C973.486,1266.39,1018.941,1269.03,1041.669,1270.35L1064.396,1271.67" id="L-Envoy-Lidarr-0" class=" edge-thickness-normal edge-pattern-solid flowchart-link LS-Envoy LE-Lidarr" style="fill:none;" marker-end="url(#my-svg_flowchart-pointEnd)"/><path d="M426.041,191L444.764,215.833C463.486,240.667,500.93,290.333,532.908,493.417C564.885,696.5,591.396,1053,633.329,1231.25C675.263,1409.5,732.62,1409.5,784.307,1409.5C835.995,1409.5,882.013,1409.5,926.187,1414.325C970.36,1419.15,1012.689,1428.799,1033.853,1433.624L1055.018,1438.449" id="L-Envoy-Readarr-0" class=" edge-thickness-normal edge-pattern-solid flowchart-link LS-Envoy LE-Readarr" style="fill:none;" marker-end="url(#my-svg_flowchart-pointEnd)"/><path d="M442.777,191L458.71,202.5C474.643,214,506.509,237,535.697,390.708C564.885,544.417,591.396,828.833,626.778,971.042C662.159,1113.25,706.413,1113.25,728.539,1113.25L750.666,1113.25" id="L-Envoy-Bazarr-0" class=" edge-thickness-normal edge-pattern-solid flowchart-link LS-Envoy LE-Bazarr" style="fill:none;" marker-end="url(#my-svg_flowchart-pointEnd)"/><path d="M436.42,191L453.412,205.833C470.405,220.667,504.39,250.333,534.638,412.792C564.885,575.25,591.396,870.5,625.627,1022.087C659.858,1173.674,701.809,1181.597,722.785,1185.559L743.761,1189.521" id="L-Envoy-Prowlarr-0" class=" edge-thickness-normal edge-pattern-solid flowchart-link LS-Envoy LE-Prowlarr" style="fill:none;" marker-end="url(#my-svg_flowchart-pointEnd)"/><path d="M513.375,177.071L517.542,177.559C521.708,178.048,530.042,179.024,547.464,298.47C564.885,417.917,591.396,655.833,633.329,774.792C675.263,893.75,732.62,893.75,784.307,893.75C835.995,893.75,882.013,893.75,933.717,893.75C985.422,893.75,1042.813,893.75,1108.875,893.75C1174.938,893.75,1249.672,893.75,1309.596,929.876C1369.521,966.001,1414.635,1038.253,1437.193,1074.379L1459.75,1110.504" id="L-Envoy-QB-0" class=" edge-thickness-normal edge-pattern-solid flowchart-link LS-Envoy LE-QB" style="fill:none;" marker-end="url(#my-svg_flowchart-pointEnd)"/><path d="M428.611,191L446.905,212.5C465.199,234,501.787,277,533.336,473.292C564.885,669.583,591.396,1019.167,633.329,1193.958C675.263,1368.75,732.62,1368.75,784.307,1368.75C835.995,1368.75,882.013,1368.75,933.717,1368.75C985.422,1368.75,1042.813,1368.75,1108.875,1368.75C1174.938,1368.75,1249.672,1368.75,1303.543,1374.285C1357.414,1379.82,1390.421,1390.891,1406.925,1396.426L1423.428,1401.961" id="L-Envoy-SAB-0" class=" edge-thickness-normal edge-pattern-solid flowchart-link LS-Envoy LE-SAB" style="fill:none;" marker-end="url(#my-svg_flowchart-pointEnd)"/><path d="M484.855,138L493.775,135C502.695,132,520.535,126,542.71,208.875C564.885,291.75,591.396,463.5,626.527,549.375C661.658,635.25,705.409,635.25,727.285,635.25L749.161,635.25" id="L-Envoy-Tautulli-0" class=" edge-thickness-normal edge-pattern-solid flowchart-link LS-Envoy LE-Tautulli" style="fill:none;" marker-end="url(#my-svg_flowchart-pointEnd)"/><path d="M513.375,144.629L517.542,143.858C521.708,143.086,530.042,141.543,547.464,237.48C564.885,333.417,591.396,526.833,623.692,623.542C655.989,720.25,694.071,720.25,713.112,720.25L732.153,720.25" id="L-Envoy-Maintainerr-0" class=" edge-thickness-normal edge-pattern-solid flowchart-link LS-Envoy LE-Maintainerr" style="fill:none;" marker-end="url(#my-svg_flowchart-pointEnd)"/><path d="M439.615,138L456.075,125C472.535,112,505.455,86,535.17,144.583C564.885,203.167,591.396,346.333,622.274,417.917C653.153,489.5,688.399,489.5,706.022,489.5L723.645,489.5" id="L-Envoy-Plex-0" class=" edge-thickness-normal edge-pattern-solid flowchart-link LS-Envoy LE-Plex" style="fill:none;" marker-end="url(#my-svg_flowchart-pointEnd)"/><path d="M513.375,160.85L517.542,160.709C521.708,160.567,530.042,160.283,547.464,270.683C564.885,381.083,591.396,602.167,617.023,712.708C642.65,823.25,667.394,823.25,679.766,823.25L692.138,823.25" id="L-Envoy-UI-0" class=" edge-thickness-normal edge-pattern-solid flowchart-link LS-Envoy LE-UI" style="fill:none;" marker-end="url(#my-svg_flowchart-pointEnd)"/><path d="M460.423,138L473.415,131.667C486.407,125.333,512.391,112.667,538.638,186.792C564.885,260.917,591.396,421.833,633.329,502.292C675.263,582.75,732.62,582.75,784.307,582.75C835.995,582.75,882.013,582.75,923.952,592.068C965.892,601.386,1003.752,620.023,1022.682,629.341L1041.613,638.659" id="L-Envoy-Bootstrap-0" class=" edge-thickness-normal edge-pattern-solid flowchart-link LS-Envoy LE-Bootstrap" style="fill:none;" marker-end="url(#my-svg_flowchart-pointEnd)"/><path d="M882.516,823.25L890.102,823.25C897.688,823.25,912.859,823.25,943.603,802.301C974.347,781.352,1020.663,739.454,1043.821,718.505L1066.979,697.556" id="L-UI-Bootstrap-0" class=" edge-thickness-normal edge-pattern-solid flowchart-link LS-UI LE-Bootstrap" style="fill:none;" marker-end="url(#my-svg_flowchart-pointEnd)"/><path d="M835.992,977L851.332,977C866.672,977,897.352,977,934.752,975.623C972.153,974.245,1016.275,971.49,1038.336,970.113L1060.397,968.735" id="L-Jellyseerr-Sonarr-0" class=" edge-thickness-normal edge-pattern-solid flowchart-link LS-Jellyseerr LE-Sonarr" style="fill:none;" marker-end="url(#my-svg_flowchart-pointEnd)"/><path d="M812.877,994.5L832.069,1009.167C851.262,1023.833,889.646,1053.167,930.822,1070.706C971.998,1088.246,1015.965,1093.992,1037.949,1096.864L1059.932,1099.737" id="L-Jellyseerr-Radarr-0" class=" edge-thickness-normal edge-pattern-solid flowchart-link LS-Jellyseerr LE-Radarr" style="fill:none;" marker-end="url(#my-svg_flowchart-pointEnd)"/><path d="M794.997,959.5L817.169,882.208C839.342,804.917,883.686,650.333,927.873,566.329C972.06,482.324,1016.089,468.899,1038.103,462.186L1060.118,455.473" id="L-Jellyseerr-Jellyfin-0" class=" edge-thickness-normal edge-pattern-solid flowchart-link LS-Jellyseerr LE-Jellyfin" style="fill:none;" marker-end="url(#my-svg_flowchart-pointEnd)"/><path d="M801.981,1180.75L822.99,1150.125C843.998,1119.5,886.015,1058.25,929.096,1023.683C972.177,989.115,1016.323,981.231,1038.397,977.289L1060.47,973.346" id="L-Prowlarr-Sonarr-0" class=" edge-thickness-normal edge-pattern-solid flowchart-link LS-Prowlarr LE-Sonarr" style="fill:none;" marker-end="url(#my-svg_flowchart-pointEnd)"/><path d="M815.885,1180.75L834.576,1168.125C853.267,1155.5,890.649,1130.25,931.316,1117.625C971.983,1105,1015.935,1105,1037.911,1105L1059.888,1105" id="L-Prowlarr-Radarr-0" class=" edge-thickness-normal edge-pattern-solid flowchart-link LS-Prowlarr LE-Radarr" style="fill:none;" marker-end="url(#my-svg_flowchart-pointEnd)"/><path d="M816.309,1215.75L834.929,1228.125C853.549,1240.5,890.79,1265.25,932.141,1275.48C973.491,1285.709,1018.951,1281.419,1041.681,1279.273L1064.411,1277.128" id="L-Prowlarr-Lidarr-0" class=" edge-thickness-normal edge-pattern-solid flowchart-link LS-Prowlarr LE-Lidarr" style="fill:none;" marker-end="url(#my-svg_flowchart-pointEnd)"/><path d="M799.592,1215.75L820.999,1254.708C842.405,1293.667,885.218,1371.583,927.767,1410.45C970.316,1449.316,1012.6,1449.132,1033.743,1449.04L1054.885,1448.947" id="L-Prowlarr-Readarr-0" class=" edge-thickness-normal edge-pattern-solid flowchart-link LS-Prowlarr LE-Readarr" style="fill:none;" marker-end="url(#my-svg_flowchart-pointEnd)"/><path d="M462.578,1222.5L475.211,1222.5C487.844,1222.5,513.109,1222.5,538.997,1222.5C564.885,1222.5,591.396,1222.5,625.62,1219.545C659.844,1216.59,701.782,1210.679,722.752,1207.724L743.721,1204.769" id="L-Flare-Prowlarr-0" class=" edge-thickness-normal edge-pattern-solid flowchart-link LS-Flare LE-Prowlarr" style="fill:none;" marker-end="url(#my-svg_flowchart-pointEnd)"/><path d="M815.077,1095.75L833.903,1082.625C852.729,1069.5,890.38,1043.25,931.301,1023.612C972.222,1003.974,1016.413,990.948,1038.508,984.435L1060.603,977.923" id="L-Bazarr-Sonarr-0" class=" edge-thickness-normal edge-pattern-solid flowchart-link LS-Bazarr LE-Sonarr" style="fill:none;" marker-end="url(#my-svg_flowchart-pointEnd)"/><path d="M823.987,1116.145L841.328,1117.621C858.669,1119.096,893.35,1122.048,932.673,1120.971C971.995,1119.893,1015.959,1114.786,1037.941,1112.233L1059.923,1109.679" id="L-Bazarr-Radarr-0" class=" edge-thickness-normal edge-pattern-solid flowchart-link LS-Bazarr LE-Radarr" style="fill:none;" marker-end="url(#my-svg_flowchart-pointEnd)"/><path d="M1134.719,966.25L1166.334,966.25C1197.948,966.25,1261.177,966.25,1314.433,990.384C1367.689,1014.518,1410.971,1062.786,1432.612,1086.92L1454.254,1111.054" id="L-Sonarr-QB-0" class=" edge-thickness-normal edge-pattern-solid flowchart-link LS-Sonarr LE-QB" style="fill:none;" marker-end="url(#my-svg_flowchart-pointEnd)"/><path d="M1135.219,1105L1166.75,1105C1198.281,1105,1261.344,1105,1308.682,1107.916C1356.02,1110.832,1387.635,1116.664,1403.442,1119.579L1419.249,1122.495" id="L-Radarr-QB-0" class=" edge-thickness-normal edge-pattern-solid flowchart-link LS-Radarr LE-QB" style="fill:none;" marker-end="url(#my-svg_flowchart-pointEnd)"/><path d="M1130.719,1259.799L1163,1245.041C1195.281,1230.283,1259.844,1200.766,1307.946,1181.896C1356.048,1163.025,1387.69,1154.801,1403.511,1150.688L1419.331,1146.576" id="L-Lidarr-QB-0" class=" edge-thickness-normal edge-pattern-solid flowchart-link LS-Lidarr LE-QB" style="fill:none;" marker-end="url(#my-svg_flowchart-pointEnd)"/><path d="M1115.44,1431.25L1150.268,1391.25C1185.096,1351.25,1254.751,1271.25,1306.202,1224.699C1357.653,1178.148,1390.9,1165.045,1407.524,1158.494L1424.147,1151.943" id="L-Readarr-QB-0" class=" edge-thickness-normal edge-pattern-solid flowchart-link LS-Readarr LE-QB" style="fill:none;" marker-end="url(#my-svg_flowchart-pointEnd)"/><path d="M1109.49,983.75L1145.309,1051.25C1181.129,1118.75,1252.767,1253.75,1305.062,1324.565C1357.357,1395.381,1390.307,1402.012,1406.782,1405.327L1423.257,1408.642" id="L-Sonarr-SAB-0" class=" edge-thickness-normal edge-pattern-solid flowchart-link LS-Sonarr LE-SAB" style="fill:none;" marker-end="url(#my-svg_flowchart-pointEnd)"/><path d="M1113.12,1122.5L1148.335,1170.208C1183.549,1217.917,1253.978,1313.333,1305.652,1362.146C1357.326,1410.958,1390.245,1413.166,1406.705,1414.271L1423.165,1415.375" id="L-Radarr-SAB-0" class=" edge-thickness-normal edge-pattern-solid flowchart-link LS-Radarr LE-SAB" style="fill:none;" marker-end="url(#my-svg_flowchart-pointEnd)"/><path d="M1125.516,1291.25L1158.665,1314.167C1191.813,1337.083,1258.11,1382.917,1307.718,1404.729C1357.326,1426.542,1390.245,1424.334,1406.705,1423.229L1423.165,1422.125" id="L-Lidarr-SAB-0" class=" edge-thickness-normal edge-pattern-solid flowchart-link LS-Lidarr LE-SAB" style="fill:none;" marker-end="url(#my-svg_flowchart-pointEnd)"/><path d="M1140.221,1448.75L1170.919,1448.75C1201.616,1448.75,1263.011,1448.75,1310.184,1445.435C1357.357,1442.119,1390.307,1435.488,1406.782,1432.173L1423.257,1428.858" id="L-Readarr-SAB-0" class=" edge-thickness-normal edge-pattern-solid flowchart-link LS-Readarr LE-SAB" style="fill:none;" marker-end="url(#my-svg_flowchart-pointEnd)"/><path d="M812.986,1298.75L832.16,1284.167C851.334,1269.583,889.683,1240.417,937.552,1225.833C985.422,1211.25,1042.813,1211.25,1108.875,1211.25C1174.938,1211.25,1249.672,1211.25,1305.583,1201.454C1361.494,1191.659,1398.582,1172.067,1417.126,1162.271L1435.67,1152.476" id="L-Unpackerr-QB-0" class=" edge-thickness-normal edge-pattern-solid flowchart-link LS-Unpackerr LE-QB" style="fill:none;" marker-end="url(#my-svg_flowchart-pointEnd)"/><path d="M802.983,1333.75L823.824,1361.792C844.666,1389.833,886.349,1445.917,935.885,1473.958C985.422,1502,1042.813,1502,1108.875,1502C1174.938,1502,1249.672,1502,1305.891,1491.472C1362.111,1480.945,1399.815,1459.889,1418.667,1449.362L1437.519,1438.834" id="L-Unpackerr-SAB-0" class=" edge-thickness-normal edge-pattern-solid flowchart-link LS-Unpackerr LE-SAB" style="fill:none;" marker-end="url(#my-svg_flowchart-pointEnd)"/><path d="M798.628,1298.75L820.195,1255.125C841.763,1211.5,884.897,1124.25,928.59,1071.533C972.282,1018.816,1016.534,1000.632,1038.659,991.54L1060.785,982.448" id="L-Unpackerr-Sonarr-0" class=" edge-thickness-normal edge-pattern-solid flowchart-link LS-Unpackerr LE-Sonarr" style="fill:none;" marker-end="url(#my-svg_flowchart-pointEnd)"/><path d="M806.638,1298.75L826.87,1277.5C847.103,1256.25,887.567,1213.75,929.834,1184.021C972.101,1154.292,1016.171,1137.335,1038.206,1128.856L1060.241,1120.377" id="L-Unpackerr-Radarr-0" class=" edge-thickness-normal edge-pattern-solid flowchart-link LS-Unpackerr LE-Radarr" style="fill:none;" marker-end="url(#my-svg_flowchart-pointEnd)"/><path d="M838.995,1316.25L853.834,1316.25C868.674,1316.25,898.352,1316.25,935.944,1310.634C973.535,1305.018,1019.038,1293.785,1041.79,1288.169L1064.542,1282.553" id="L-Unpackerr-Lidarr-0" class=" edge-thickness-normal edge-pattern-solid flowchart-link LS-Unpackerr LE-Lidarr" style="fill:none;" marker-end="url(#my-svg_flowchart-pointEnd)"/><path d="M805.124,1333.75L825.608,1357.417C846.093,1381.083,887.062,1428.417,928.7,1448.766C970.337,1469.116,1012.643,1462.481,1033.796,1459.164L1054.949,1455.847" id="L-Unpackerr-Readarr-0" class=" edge-thickness-normal edge-pattern-solid flowchart-link LS-Unpackerr LE-Readarr" style="fill:none;" marker-end="url(#my-svg_flowchart-pointEnd)"/><path d="M1232.159,667.5Z" id="L-Bootstrap-Apps-0" class=" edge-thickness-normal edge-pattern-solid flowchart-link LS-Bootstrap LE-Apps" style="fill:none;" marker-end="url(#my-svg_flowchart-pointEnd)"/></g><g class="edgeLabels"><g class="edgeLabel"><g class="label" transform="translate(0, 0)"><rect rx="0" ry="0" width="0" height="0"/><text style=""><tspan xml:space="preserve" dy="1em" x="0" class="row"/></text></g></g><g class="edgeLabel"><g class="label" transform="translate(0, 0)"><rect rx="0" ry="0" width="0" height="0"/><text style=""><tspan xml:space="preserve" dy="1em" x="0" class="row"/></text></g></g><g class="edgeLabel"><g class="label" transform="translate(0, 0)"><rect rx="0" ry="0" width="0" height="0"/><text style=""><tspan xml:space="preserve" dy="1em" x="0" class="row"/></text></g></g><g class="edgeLabel"><g class="label" transform="translate(0, 0)"><rect rx="0" ry="0" width="0" height="0"/><text style=""><tspan xml:space="preserve" dy="1em" x="0" class="row"/></text></g></g><g class="edgeLabel"><g class="label" transform="translate(0, 0)"><rect rx="0" ry="0" width="0" height="0"/><text style=""><tspan xml:space="preserve" dy="1em" x="0" class="row"/></text></g></g><g class="edgeLabel"><g class="label" transform="translate(0, 0)"><rect rx="0" ry="0" width="0" height="0"/><text style=""><tspan xml:space="preserve" dy="1em" x="0" class="row"/></text></g></g><g class="edgeLabel"><g class="label" transform="translate(0, 0)"><rect rx="0" ry="0" width="0" height="0"/><text style=""><tspan xml:space="preserve" dy="1em" x="0" class="row"/></text></g></g><g class="edgeLabel"><g class="label" transform="translate(0, 0)"><rect rx="0" ry="0" width="0" height="0"/><text style=""><tspan xml:space="preserve" dy="1em" x="0" class="row"/></text></g></g><g class="edgeLabel"><g class="label" transform="translate(0, 0)"><rect rx="0" ry="0" width="0" height="0"/><text style=""><tspan xml:space="preserve" dy="1em" x="0" class="row"/></text></g></g><g class="edgeLabel"><g class="label" transform="translate(0, 0)"><rect rx="0" ry="0" width="0" height="0"/><text style=""><tspan xml:space="preserve" dy="1em" x="0" class="row"/></text></g></g><g class="edgeLabel"><g class="label" transform="translate(0, 0)"><rect rx="0" ry="0" width="0" height="0"/><text style=""><tspan xml:space="preserve" dy="1em" x="0" class="row"/></text></g></g><g class="edgeLabel"><g class="label" transform="translate(0, 0)"><rect rx="0" ry="0" width="0" height="0"/><text style=""><tspan xml:space="preserve" dy="1em" x="0" class="row"/></text></g></g><g class="edgeLabel"><g class="label" transform="translate(0, 0)"><rect rx="0" ry="0" width="0" height="0"/><text style=""><tspan xml:space="preserve" dy="1em" x="0" class="row"/></text></g></g><g class="edgeLabel"><g class="label" transform="translate(0, 0)"><rect rx="0" ry="0" width="0" height="0"/><text style=""><tspan xml:space="preserve" dy="1em" x="0" class="row"/></text></g></g><g class="edgeLabel"><g class="label" transform="translate(0, 0)"><rect rx="0" ry="0" width="0" height="0"/><text style=""><tspan xml:space="preserve" dy="1em" x="0" class="row"/></text></g></g><g class="edgeLabel"><g class="label" transform="translate(0, 0)"><rect rx="0" ry="0" width="0" height="0"/><text style=""><tspan xml:space="preserve" dy="1em" x="0" class="row"/></text></g></g><g class="edgeLabel"><g class="label" transform="translate(0, 0)"><rect rx="0" ry="0" width="0" height="0"/><text style=""><tspan xml:space="preserve" dy="1em" x="0" class="row"/></text></g></g><g class="edgeLabel"><g class="label" transform="translate(0, 0)"><rect rx="0" ry="0" width="0" height="0"/><text style=""><tspan xml:space="preserve" dy="1em" x="0" class="row"/></text></g></g><g class="edgeLabel" transform="translate(928.03125, 823.25)"><g class="label" transform="translate(-20.515625, -10)"><rect rx="0" ry="0" width="41.03125" height="20"/><text style=""><tspan xml:space="preserve" dy="1em" x="0" class="row">/api/*</tspan></text></g></g><g class="edgeLabel"><g class="label" transform="translate(0, 0)"><rect rx="0" ry="0" width="0" height="0"/><text style=""><tspan xml:space="preserve" dy="1em" x="0" class="row"/></text></g></g><g class="edgeLabel"><g class="label" transform="translate(0, 0)"><rect rx="0" ry="0" width="0" height="0"/><text style=""><tspan xml:space="preserve" dy="1em" x="0" class="row"/></text></g></g><g class="edgeLabel"><g class="label" transform="translate(0, 0)"><rect rx="0" ry="0" width="0" height="0"/><text style=""><tspan xml:space="preserve" dy="1em" x="0" class="row"/></text></g></g><g class="edgeLabel"><g class="label" transform="translate(0, 0)"><rect rx="0" ry="0" width="0" height="0"/><text style=""><tspan xml:space="preserve" dy="1em" x="0" class="row"/></text></g></g><g class="edgeLabel"><g class="label" transform="translate(0, 0)"><rect rx="0" ry="0" width="0" height="0"/><text style=""><tspan xml:space="preserve" dy="1em" x="0" class="row"/></text></g></g><g class="edgeLabel"><g class="label" transform="translate(0, 0)"><rect rx="0" ry="0" width="0" height="0"/><text style=""><tspan xml:space="preserve" dy="1em" x="0" class="row"/></text></g></g><g class="edgeLabel"><g class="label" transform="translate(0, 0)"><rect rx="0" ry="0" width="0" height="0"/><text style=""><tspan xml:space="preserve" dy="1em" x="0" class="row"/></text></g></g><g class="edgeLabel" transform="translate(617.90625, 1222.5)"><g class="label" transform="translate(-54.53125, -10)"><rect rx="0" ry="0" width="109.0625" height="20"/><text style=""><tspan xml:space="preserve" dy="1em" x="0" class="row">Indexer proxy</tspan></text></g></g><g class="edgeLabel"><g class="label" transform="translate(0, 0)"><rect rx="0" ry="0" width="0" height="0"/><text style=""><tspan xml:space="preserve" dy="1em" x="0" class="row"/></text></g></g><g class="edgeLabel"><g class="label" transform="translate(0, 0)"><rect rx="0" ry="0" width="0" height="0"/><text style=""><tspan xml:space="preserve" dy="1em" x="0" class="row"/></text></g></g><g class="edgeLabel"><g class="label" transform="translate(0, 0)"><rect rx="0" ry="0" width="0" height="0"/><text style=""><tspan xml:space="preserve" dy="1em" x="0" class="row"/></text></g></g><g class="edgeLabel"><g class="label" transform="translate(0, 0)"><rect rx="0" ry="0" width="0" height="0"/><text style=""><tspan xml:space="preserve" dy="1em" x="0" class="row"/></text></g></g><g class="edgeLabel"><g class="label" transform="translate(0, 0)"><rect rx="0" ry="0" width="0" height="0"/><text style=""><tspan xml:space="preserve" dy="1em" x="0" class="row"/></text></g></g><g class="edgeLabel"><g class="label" transform="translate(0, 0)"><rect rx="0" ry="0" width="0" height="0"/><text style=""><tspan xml:space="preserve" dy="1em" x="0" class="row"/></text></g></g><g class="edgeLabel"><g class="label" transform="translate(0, 0)"><rect rx="0" ry="0" width="0" height="0"/><text style=""><tspan xml:space="preserve" dy="1em" x="0" class="row"/></text></g></g><g class="edgeLabel"><g class="label" transform="translate(0, 0)"><rect rx="0" ry="0" width="0" height="0"/><text style=""><tspan xml:space="preserve" dy="1em" x="0" class="row"/></text></g></g><g class="edgeLabel"><g class="label" transform="translate(0, 0)"><rect rx="0" ry="0" width="0" height="0"/><text style=""><tspan xml:space="preserve" dy="1em" x="0" class="row"/></text></g></g><g class="edgeLabel"><g class="label" transform="translate(0, 0)"><rect rx="0" ry="0" width="0" height="0"/><text style=""><tspan xml:space="preserve" dy="1em" x="0" class="row"/></text></g></g><g class="edgeLabel"><g class="label" transform="translate(0, 0)"><rect rx="0" ry="0" width="0" height="0"/><text style=""><tspan xml:space="preserve" dy="1em" x="0" class="row"/></text></g></g><g class="edgeLabel"><g class="label" transform="translate(0, 0)"><rect rx="0" ry="0" width="0" height="0"/><text style=""><tspan xml:space="preserve" dy="1em" x="0" class="row"/></text></g></g><g class="edgeLabel"><g class="label" transform="translate(0, 0)"><rect rx="0" ry="0" width="0" height="0"/><text style=""><tspan xml:space="preserve" dy="1em" x="0" class="row"/></text></g></g><g class="edgeLabel"><g class="label" transform="translate(0, 0)"><rect rx="0" ry="0" width="0" height="0"/><text style=""><tspan xml:space="preserve" dy="1em" x="0" class="row"/></text></g></g><g class="edgeLabel"><g class="label" transform="translate(0, 0)"><rect rx="0" ry="0" width="0" height="0"/><text style=""><tspan xml:space="preserve" dy="1em" x="0" class="row"/></text></g></g><g class="edgeLabel"><g class="label" transform="translate(0, 0)"><rect rx="0" ry="0" width="0" height="0"/><text style=""><tspan xml:space="preserve" dy="1em" x="0" class="row"/></text></g></g><g class="edgeLabel" transform="translate(1226.859375, 667.5)"><g class="label" transform="translate(-72.546875, -10)"><rect rx="0" ry="0" width="145.09375" height="20"/><text style=""><tspan xml:space="preserve" dy="1em" x="0" class="row">Configure all apps</tspan></text></g></g></g><g class="nodes"><g class="node default default flowchart-label" id="flowchart-Homepage-3" data-node="true" data-id="Homepage" transform="translate(1473.484375, 636.75)"><rect class="basic label-container" style="" rx="0" ry="0" x="-51.53125" y="-17.5" width="103.0625" height="35"/><g class="label" style="" transform="translate(0, -10)"><rect/><text style=""><tspan xml:space="preserve" dy="1em" x="0" class="row">Homepage</tspan></text></g></g><g class="node default default flowchart-label" id="flowchart-Jellyseerr-4" data-node="true" data-id="Jellyseerr" transform="translate(789.9765625, 977)"><rect class="basic label-container" style="" rx="0" ry="0" x="-46.015625" y="-17.5" width="92.03125" height="35"/><g class="label" style="" transform="translate(0, -10)"><rect/><text style=""><tspan xml:space="preserve" dy="1em" x="0" class="row">Jellyseerr</tspan></text></g></g><g class="node default default flowchart-label" id="flowchart-Jellyfin-5" data-node="true" data-id="Jellyfin" transform="translate(1100.203125, 443.25)"><rect class="basic label-container" style="" rx="0" ry="0" x="-35.015625" y="-17.5" width="70.03125" height="35"/><g class="label" style="" transform="translate(0, -10)"><rect/><text style=""><tspan xml:space="preserve" dy="1em" x="0" class="row">Jellyfin</tspan></text></g></g><g class="node default default flowchart-label" id="flowchart-Plex-6" data-node="true" data-id="Plex" transform="translate(789.9765625, 489.5)"><rect class="basic label-container" style="" rx="0" ry="0" x="-61.03125" y="-17.5" width="122.0625" height="35"/><g class="label" style="" transform="translate(0, -10)"><rect/><text style=""><tspan xml:space="preserve" dy="1em" x="0" class="row">Plex Optional</tspan></text></g></g><g class="node default default flowchart-label" id="flowchart-Sonarr-7" data-node="true" data-id="Sonarr" transform="translate(1100.203125, 966.25)"><rect class="basic label-container" style="" rx="0" ry="0" x="-34.51611328125" y="-17.5" width="69.0322265625" height="35"/><g class="label" style="" transform="translate(0, -10)"><rect/><text style=""><tspan xml:space="preserve" dy="1em" x="0" class="row">Sonarr</tspan></text></g></g><g class="node default default flowchart-label" id="flowchart-Radarr-8" data-node="true" data-id="Radarr" transform="translate(1100.203125, 1105)"><rect class="basic label-container" style="" rx="0" ry="0" x="-35.015625" y="-17.5" width="70.03125" height="35"/><g class="label" style="" transform="translate(0, -10)"><rect/><text style=""><tspan xml:space="preserve" dy="1em" x="0" class="row">Radarr</tspan></text></g></g><g class="node default default flowchart-label" id="flowchart-Lidarr-9" data-node="true" data-id="Lidarr" transform="translate(1100.203125, 1273.75)"><rect class="basic label-container" style="" rx="0" ry="0" x="-30.515625" y="-17.5" width="61.03125" height="35"/><g class="label" style="" transform="translate(0, -10)"><rect/><text style=""><tspan xml:space="preserve" dy="1em" x="0" class="row">Lidarr</tspan></text></g></g><g class="node default default flowchart-label" id="flowchart-Readarr-10" data-node="true" data-id="Readarr" transform="translate(1100.203125, 1448.75)"><rect class="basic label-container" style="" rx="0" ry="0" x="-40.01806640625" y="-17.5" width="80.0361328125" height="35"/><g class="label" style="" transform="translate(0, -10)"><rect/><text style=""><tspan xml:space="preserve" dy="1em" x="0" class="row">Readarr</tspan></text></g></g><g class="node default default flowchart-label" id="flowchart-Bazarr-11" data-node="true" data-id="Bazarr" transform="translate(789.9765625, 1113.25)"><rect class="basic label-container" style="" rx="0" ry="0" x="-34.0107421875" y="-17.5" width="68.021484375" height="35"/><g class="label" style="" transform="translate(0, -10)"><rect/><text style=""><tspan xml:space="preserve" dy="1em" x="0" class="row">Bazarr</tspan></text></g></g><g class="node default default flowchart-label" id="flowchart-Prowlarr-12" data-node="true" data-id="Prowlarr" transform="translate(789.9765625, 1198.25)"><rect class="basic label-container" style="" rx="0" ry="0" x="-41.0078125" y="-17.5" width="82.015625" height="35"/><g class="label" style="" transform="translate(0, -10)"><rect/><text style=""><tspan xml:space="preserve" dy="1em" x="0" class="row">Prowlarr</tspan></text></g></g><g class="node default default flowchart-label" id="flowchart-QB-13" data-node="true" data-id="QB" transform="translate(1473.484375, 1132.5)"><rect class="basic label-container" style="" rx="0" ry="0" x="-49.0234375" y="-17.5" width="98.046875" height="35"/><g class="label" style="" transform="translate(0, -10)"><rect/><text style=""><tspan xml:space="preserve" dy="1em" x="0" class="row">qBittorrent</tspan></text></g></g><g class="node default default flowchart-label" id="flowchart-SAB-14" data-node="true" data-id="SAB" transform="translate(1473.484375, 1418.75)"><rect class="basic label-container" style="" rx="0" ry="0" x="-45.03125" y="-17.5" width="90.0625" height="35"/><g class="label" style="" transform="translate(0, -10)"><rect/><text style=""><tspan xml:space="preserve" dy="1em" x="0" class="row">SABnzbd</tspan></text></g></g><g class="node default default flowchart-label" id="flowchart-Tautulli-15" data-node="true" data-id="Tautulli" transform="translate(789.9765625, 635.25)"><rect class="basic label-container" style="" rx="0" ry="0" x="-35.515625" y="-17.5" width="71.03125" height="35"/><g class="label" style="" transform="translate(0, -10)"><rect/><text style=""><tspan xml:space="preserve" dy="1em" x="0" class="row">Tautulli</tspan></text></g></g><g class="node default default flowchart-label" id="flowchart-Maintainerr-16" data-node="true" data-id="Maintainerr" transform="translate(789.9765625, 720.25)"><rect class="basic label-container" style="" rx="0" ry="0" x="-52.5234375" y="-17.5" width="105.046875" height="35"/><g class="label" style="" transform="translate(0, -10)"><rect/><text style=""><tspan xml:space="preserve" dy="1em" x="0" class="row">Maintainerr</tspan></text></g></g><g class="node default default flowchart-label" id="flowchart-Unpackerr-17" data-node="true" data-id="Unpackerr" transform="translate(789.9765625, 1316.25)"><rect class="basic label-container" style="" rx="0" ry="0" x="-49.01806640625" y="-17.5" width="98.0361328125" height="35"/><g class="label" style="" transform="translate(0, -10)"><rect/><text style=""><tspan xml:space="preserve" dy="1em" x="0" class="row">Unpackerr</tspan></text></g></g><g class="node default default flowchart-label" id="flowchart-Flare-18" data-node="true" data-id="Flare" transform="translate(406.0625, 1222.5)"><rect class="basic label-container" style="" rx="0" ry="0" x="-56.515625" y="-17.5" width="113.03125" height="35"/><g class="label" style="" transform="translate(0, -10)"><rect/><text style=""><tspan xml:space="preserve" dy="1em" x="0" class="row">FlareSolverr</tspan></text></g></g><g class="node default default flowchart-label" id="flowchart-UI-19" data-node="true" data-id="UI" transform="translate(789.9765625, 823.25)"><rect class="basic label-container" style="" rx="0" ry="0" x="-92.5390625" y="-35.5" width="185.078125" height="71"/><g class="label" style="" transform="translate(0, -28)"><rect/><text style=""><tspan xml:space="preserve" dy="1em" x="0" class="row">media-stack-ui</tspan><tspan xml:space="preserve" dy="1em" x="0" class="row">SPA :8080</tspan><tspan xml:space="preserve" dy="1em" x="0" class="row">reverse-proxies /api/*</tspan></text></g></g><g class="node default default flowchart-label" id="flowchart-Bootstrap-20" data-node="true" data-id="Bootstrap" transform="translate(1100.203125, 667.5)"><rect class="basic label-container" style="" rx="0" ry="0" x="-126.65625" y="-26.5" width="253.3125" height="53"/><g class="label" style="" transform="translate(0, -19)"><rect/><text style=""><tspan xml:space="preserve" dy="1em" x="0" class="row">Controller</tspan><tspan xml:space="preserve" dy="1em" x="0" class="row">HTTP API + Dashboard :9100</tspan></text></g></g><g class="node default default flowchart-label" id="flowchart-Envoy-2" data-node="true" data-id="Envoy" transform="translate(406.0625, 164.5)"><rect class="basic label-container" style="" rx="0" ry="0" x="-107.3125" y="-26.5" width="214.625" height="53"/><g class="label" style="" transform="translate(0, -19)"><rect/><text style=""><tspan xml:space="preserve" dy="1em" x="0" class="row">Envoy Gateway</tspan><tspan xml:space="preserve" dy="1em" x="0" class="row">host + path-prefix routing</tspan></text></g></g><g class="node default default flowchart-label" id="flowchart-TV-0" data-node="true" data-id="TV" transform="translate(111.875, 120.75)"><rect class="basic label-container" style="" rx="0" ry="0" x="-86.875" y="-26.5" width="173.75" height="53"/><g class="label" style="" transform="translate(0, -19)"><rect/><text style=""><tspan xml:space="preserve" dy="1em" x="0" class="row">TV Apps</tspan><tspan xml:space="preserve" dy="1em" x="0" class="row">Samsung/Vizio/TCL</tspan></text></g></g><g class="node default default flowchart-label" id="flowchart-Browser-1" data-node="true" data-id="Browser" transform="translate(111.875, 214.75)"><rect class="basic label-container" style="" rx="0" ry="0" x="-69.5234375" y="-17.5" width="139.046875" height="35"/><g class="label" style="" transform="translate(0, -10)"><rect/><text style=""><tspan xml:space="preserve" dy="1em" x="0" class="row">Browser/Mobile</tspan></text></g></g></g></g></g></svg>