<svg id="my-svg" width="100%" xmlns="http://www.w3.org/2000/svg" xmlns:xlink="http://www.w3.org/1999/xlink" style="max-width: 832.271px; background-color: white;" viewBox="-8 -8 832.2705078125 809.75" role="graphics-document document" aria-roledescription="flowchart-v2"><style>#my-svg{font-family:"trebuchet ms",verdana,arial,sans-serif;font-size:18px;fill:#000000;}#my-svg .error-icon{fill:#552222;}#my-svg .error-text{fill:#552222;stroke:#552222;}#my-svg .edge-thickness-normal{stroke-width:2px;}#my-svg .edge-thickness-thick{stroke-width:3.5px;}#my-svg .edge-pattern-solid{stroke-dasharray:0;}#my-svg .edge-pattern-dashed{stroke-dasharray:3;}#my-svg .edge-pattern-dotted{stroke-dasharray:2;}#my-svg .marker{fill:#1f2937;stroke:#1f2937;}#my-svg .marker.cross{stroke:#1f2937;}#my-svg svg{font-family:"trebuchet ms",verdana,arial,sans-serif;font-size:18px;}#my-svg .label{font-family:"trebuchet ms",verdana,arial,sans-serif;color:#000000;}#my-svg .cluster-label text{fill:#333;}#my-svg .cluster-label span,#my-svg p{color:#333;}#my-svg .label text,#my-svg span,#my-svg p{fill:#000000;color:#000000;}#my-svg .node rect,#my-svg .node circle,#my-svg .node ellipse,#my-svg .node polygon,#my-svg .node path{fill:#eee;stroke:#999;stroke-width:1px;}#my-svg .flowchart-label text{text-anchor:middle;}#my-svg .node .katex path{fill:#000;stroke:#000;stroke-width:1px;}#my-svg .node .label{text-align:center;}#my-svg .node.clickable{cursor:pointer;}#my-svg .arrowheadPath{fill:#333333;}#my-svg .edgePath .path{stroke:#1f2937;stroke-width:2.0px;}#my-svg .flowchart-link{stroke:#1f2937;fill:none;}#my-svg .edgeLabel{background-color:white;text-align:center;}#my-svg .edgeLabel rect{opacity:0.5;background-color:white;fill:white;}#my-svg .labelBkg{background-color:rgba(255, 255, 255, 0.5);}#my-svg .cluster rect{fill:#f8fafc;stroke:#334155;stroke-width:1px;}#my-svg .cluster text{fill:#333;}#my-svg .cluster span,#my-svg p{color:#333;}#my-svg div.mermaidTooltip{position:absolute;text-align:center;max-width:200px;padding:2px;font-family:"trebuchet ms",verdana,arial,sans-serif;font-size:12px;background:#fef9c3;border:1px solid #707070;border-radius:2px;pointer-events:none;z-index:100;}#my-svg .flowchartTitleText{text-anchor:middle;font-size:18px;fill:#000000;}#my-svg :root{--mermaid-font-family:"trebuchet ms",verdana,arial,sans-serif;}</style><g><marker id="my-svg_flowchart-pointEnd" class="marker flowchart" viewBox="0 0 10 10" refX="6" refY="5" markerUnits="userSpaceOnUse" markerWidth="12" markerHeight="12" orient="auto"><path d="M 0 0 L 10 5 L 0 10 z" class="arrowMarkerPath" style="stroke-width: 1; stroke-dasharray: 1, 0;"/></marker><marker id="my-svg_flowchart-pointStart" class="marker flowchart" viewBox="0 0 10 10" refX="4.5" refY="5" markerUnits="userSpaceOnUse" markerWidth="12" markerHeight="12" orient="auto"><path d="M 0 5 L 10 10 L 10 0 z" class="arrowMarkerPath" style="stroke-width: 1; stroke-dasharray: 1, 0;"/></marker><marker id="my-svg_flowchart-circleEnd" class="marker flowchart" viewBox="0 0 10 10" refX="11" refY="5" markerUnits="userSpaceOnUse" markerWidth="11" markerHeight="11" orient="auto"><circle cx="5" cy="5" r="5" class="arrowMarkerPath" style="stroke-width: 1; stroke-dasharray: 1, 0;"/></marker><marker id="my-svg_flowchart-circleStart" class="marker flowchart" viewBox="0 0 10 10" refX="-1" refY="5" markerUnits="userSpaceOnUse" markerWidth="11" markerHeight="11" orient="auto"><circle cx="5" cy="5" r="5" class="arrowMarkerPath" style="stroke-width: 1; stroke-dasharray: 1, 0;"/></marker><marker id="my-svg_flowchart-crossEnd" class="marker cross flowchart" viewBox="0 0 11 11" refX="12" refY="5.2" markerUnits="userSpaceOnUse" markerWidth="11" markerHeight="11" orient="auto"><path d="M 1,1 l 9,9 M 10,1 l -9,9" class="arrowMarkerPath" style="stroke-width: 2; stroke-dasharray: 1, 0;"/></marker><marker id="my-svg_flowchart-crossStart" class="marker cross flowchart" viewBox="0 0 11 11" refX="-1" refY="5.2" markerUnits="userSpaceOnUse" markerWidth="11" markerHeight="11" orient="auto"><path d="M 1,1 l 9,9 M 10,1 l -9,9" class="arrowMarkerPath" style="stroke-width: 2; stroke-dasharray: 1, 0;"/></marker><g class="root"><g class="clusters"><g class="cluster default flowchart-label" id="Storage"><rect style="" rx="0" ry="0" x="467.1142578125" y="0" width="349.15625" height="793.75"/><g class="cluster-label" transform="translate(641.6923828125, 0)"><text style=""><tspan xml:space="preserve" dy="1em" x="0" class="row">PVC-backed Storage (StorageClass-driven)</tspan></text></g></g></g><g class="edgePaths"><path d="M92.164,253.75L106.978,235.417C121.792,217.083,151.419,180.417,170.433,162.083C189.448,143.75,197.848,143.75,202.049,143.75L206.249,143.75" id="L-Prowlarr-Sonarr-0" class=" edge-thickness-normal edge-pattern-solid flowchart-link LS-Prowlarr LE-Sonarr" style="fill:none;" marker-end="url(#my-svg_flowchart-pointEnd)"/><path d="M120.445,253.75L130.545,249.583C140.646,245.417,160.846,237.083,175.064,232.917C189.281,228.75,197.515,228.75,201.632,228.75L205.749,228.75" id="L-Prowlarr-Radarr-0" class=" edge-thickness-normal edge-pattern-solid flowchart-link LS-Prowlarr LE-Radarr" style="fill:none;" marker-end="url(#my-svg_flowchart-pointEnd)"/><path d="M120.445,288.75L130.545,292.917C140.646,297.083,160.846,305.417,175.814,309.583C190.781,313.75,200.515,313.75,205.382,313.75L210.249,313.75" id="L-Prowlarr-Lidarr-0" class=" edge-thickness-normal edge-pattern-solid flowchart-link LS-Prowlarr LE-Lidarr" style="fill:none;" marker-end="url(#my-svg_flowchart-pointEnd)"/><path d="M92.164,288.75L106.978,307.083C121.792,325.417,151.419,362.083,169.516,380.417C187.614,398.75,194.18,398.75,197.464,398.75L200.747,398.75" id="L-Prowlarr-Readarr-0" class=" edge-thickness-normal edge-pattern-solid flowchart-link LS-Prowlarr LE-Readarr" style="fill:none;" marker-end="url(#my-svg_flowchart-pointEnd)"/><path d="M257.303,126.25L266.266,112.292C275.229,98.333,293.156,70.417,314.556,63.522C335.956,56.627,360.829,70.755,373.266,77.819L385.703,84.882" id="L-Sonarr-QB-0" class=" edge-thickness-normal edge-pattern-solid flowchart-link LS-Sonarr LE-QB" style="fill:none;" marker-end="url(#my-svg_flowchart-pointEnd)"/><path d="M254.572,211.25L263.99,191.875C273.409,172.5,292.246,133.75,310.954,115.219C329.662,96.688,348.241,98.377,357.531,99.221L366.82,100.065" id="L-Radarr-QB-0" class=" edge-thickness-normal edge-pattern-solid flowchart-link LS-Radarr LE-QB" style="fill:none;" marker-end="url(#my-svg_flowchart-pointEnd)"/><path d="M252.174,296.25L261.992,268.125C271.81,240,291.447,183.75,310.569,153.723C329.691,123.695,348.298,119.89,357.602,117.988L366.906,116.086" id="L-Lidarr-QB-0" class=" edge-thickness-normal edge-pattern-solid flowchart-link LS-Lidarr LE-QB" style="fill:none;" marker-end="url(#my-svg_flowchart-pointEnd)"/><path d="M250.594,381.25L260.675,342.292C270.757,303.333,290.92,225.417,310.966,182.61C331.011,139.803,350.94,132.106,360.904,128.258L370.868,124.41" id="L-Readarr-QB-0" class=" edge-thickness-normal edge-pattern-solid flowchart-link LS-Readarr LE-QB" style="fill:none;" marker-end="url(#my-svg_flowchart-pointEnd)"/><path d="M280.581,156.358L285.665,158.215C290.748,160.072,300.916,163.786,320.603,179.412C340.29,195.038,369.498,222.576,384.101,236.345L398.705,250.114" id="L-Sonarr-SAB-0" class=" edge-thickness-normal edge-pattern-solid flowchart-link LS-Sonarr LE-SAB" style="fill:none;" marker-end="url(#my-svg_flowchart-pointEnd)"/><path d="M281.081,228.75L286.081,228.75C291.081,228.75,301.082,228.75,316.047,232.598C331.011,236.447,350.94,244.144,360.904,247.992L370.868,251.84" id="L-Radarr-SAB-0" class=" edge-thickness-normal edge-pattern-solid flowchart-link LS-Radarr LE-SAB" style="fill:none;" marker-end="url(#my-svg_flowchart-pointEnd)"/><path d="M276.581,313.75L282.331,313.75C288.081,313.75,299.582,313.75,315.297,309.902C331.011,306.053,350.94,298.356,360.904,294.508L370.868,290.66" id="L-Lidarr-SAB-0" class=" edge-thickness-normal edge-pattern-solid flowchart-link LS-Lidarr LE-SAB" style="fill:none;" marker-end="url(#my-svg_flowchart-pointEnd)"/><path d="M286.083,397.211L290.25,397.051C294.416,396.891,302.75,396.57,322.105,379.157C341.46,361.743,371.837,327.235,387.026,309.982L402.215,292.728" id="L-Readarr-SAB-0" class=" edge-thickness-normal edge-pattern-solid flowchart-link LS-Readarr LE-SAB" style="fill:none;" marker-end="url(#my-svg_flowchart-pointEnd)"/><path d="M470.146,105L480.315,105C490.484,105,510.823,105,525.159,105C539.494,105,547.828,105,557.748,107.186C567.668,109.372,579.176,113.745,584.929,115.931L590.683,118.117" id="L-QB-TOR-0" class=" edge-thickness-normal edge-pattern-solid flowchart-link LS-QB LE-TOR" style="fill:none;" marker-end="url(#my-svg_flowchart-pointEnd)"/><path d="M502.169,271.25L507.001,271.25C511.833,271.25,521.497,271.25,530.496,271.25C539.494,271.25,547.828,271.25,560.745,276.621C573.662,281.992,591.164,292.735,599.914,298.106L608.665,303.477" id="L-SAB-USN-0" class=" edge-thickness-normal edge-pattern-solid flowchart-link LS-SAB LE-USN" style="fill:none;" marker-end="url(#my-svg_flowchart-pointEnd)"/><path d="M428.942,401.25L445.979,363.125C463.015,325,497.088,248.75,518.291,210.625C539.494,172.5,547.828,172.5,558.305,169.918C568.781,167.336,581.401,162.171,587.711,159.589L594.022,157.007" id="L-Unpackerr-TOR-0" class=" edge-thickness-normal edge-pattern-solid flowchart-link LS-Unpackerr LE-TOR" style="fill:none;" marker-end="url(#my-svg_flowchart-pointEnd)"/><path d="M506.161,423.58L510.328,423.817C514.494,424.053,522.828,424.527,531.161,424.763C539.494,425,547.828,425,563.216,411.716C578.604,398.433,601.046,371.866,612.268,358.582L623.489,345.299" id="L-Unpackerr-USN-0" class=" edge-thickness-normal edge-pattern-solid flowchart-link LS-Unpackerr LE-USN" style="fill:none;" marker-end="url(#my-svg_flowchart-pointEnd)"/><path d="M249.5,161.25L259.764,213.542C270.028,265.833,290.555,370.417,319.159,422.708C347.763,475,384.442,475,421.122,475C457.802,475,494.481,475,516.988,475C539.494,475,547.828,475,562.319,484.204C576.809,493.408,597.458,511.815,607.782,521.019L618.106,530.223" id="L-Sonarr-MED-0" class=" edge-thickness-normal edge-pattern-solid flowchart-link LS-Sonarr LE-MED" style="fill:none;" marker-end="url(#my-svg_flowchart-pointEnd)"/><path d="M250.338,246.25L260.463,287.708C270.587,329.167,290.835,412.083,319.299,453.542C347.763,495,384.442,495,421.122,495C457.802,495,494.481,495,516.988,495C539.494,495,547.828,495,561.077,500.973C574.326,506.946,592.49,518.892,601.572,524.865L610.654,530.838" id="L-Radarr-MED-0" class=" edge-thickness-normal edge-pattern-solid flowchart-link LS-Radarr LE-MED" style="fill:none;" marker-end="url(#my-svg_flowchart-pointEnd)"/><path d="M251.719,331.25L261.613,361.875C271.507,392.5,291.295,453.75,319.529,484.375C347.763,515,384.442,515,421.122,515C457.802,515,494.481,515,516.988,515C539.494,515,547.828,515,559.684,518.259C571.54,521.518,586.918,528.036,594.608,531.294L602.297,534.553" id="L-Lidarr-MED-0" class=" edge-thickness-normal edge-pattern-solid flowchart-link LS-Lidarr LE-MED" style="fill:none;" marker-end="url(#my-svg_flowchart-pointEnd)"/><path d="M253.526,416.25L263.119,438.75C272.712,461.25,291.897,506.25,319.83,528.75C347.763,551.25,384.442,551.25,421.122,551.25C457.802,551.25,494.481,551.25,516.988,551.25C539.494,551.25,547.828,551.25,559.614,551.25C571.4,551.25,586.638,551.25,594.257,551.25L601.877,551.25" id="L-Readarr-MED-0" class=" edge-thickness-normal edge-pattern-solid flowchart-link LS-Readarr LE-MED" style="fill:none;" marker-end="url(#my-svg_flowchart-pointEnd)"/><path d="M455.133,603.75L467.804,603.75C480.476,603.75,505.818,603.75,522.656,603.75C539.494,603.75,547.828,603.75,560.745,598.379C573.662,593.008,591.164,582.265,599.914,576.894L608.665,571.523" id="L-Bazarr-MED-0" class=" edge-thickness-normal edge-pattern-solid flowchart-link LS-Bazarr LE-MED" style="fill:none;" marker-end="url(#my-svg_flowchart-pointEnd)"/><path d="M456.138,688.75L468.642,688.75C481.146,688.75,506.153,688.75,522.824,688.75C539.494,688.75,547.828,688.75,563.969,669.5C580.11,650.25,604.058,611.75,616.033,592.5L628.007,573.25" id="L-Jellyfin-MED-0" class=" edge-thickness-normal edge-pattern-solid flowchart-link LS-Jellyfin LE-MED" style="fill:none;" marker-end="url(#my-svg_flowchart-pointEnd)"/><path d="M482.153,773.75L490.321,773.75C498.489,773.75,514.825,773.75,527.16,773.75C539.494,773.75,547.828,773.75,564.812,740.408C581.795,707.066,607.429,640.381,620.246,607.039L633.064,573.697" id="L-Plex-MED-0" class=" edge-thickness-normal edge-pattern-solid flowchart-link LS-Plex LE-MED" style="fill:none;" marker-end="url(#my-svg_flowchart-pointEnd)"/></g><g class="edgeLabels"><g class="edgeLabel"><g class="label" transform="translate(0, 0)"><rect rx="0" ry="0" width="0" height="0"/><text style=""><tspan xml:space="preserve" dy="1em" x="0" class="row"/></text></g></g><g class="edgeLabel"><g class="label" transform="translate(0, 0)"><rect rx="0" ry="0" width="0" height="0"/><text style=""><tspan xml:space="preserve" dy="1em" x="0" class="row"/></text></g></g><g class="edgeLabel"><g class="label" transform="translate(0, 0)"><rect rx="0" ry="0" width="0" height="0"/><text style=""><tspan xml:space="preserve" dy="1em" x="0" class="row"/></text></g></g><g class="edgeLabel"><g class="label" transform="translate(0, 0)"><rect rx="0" ry="0" width="0" height="0"/><text style=""><tspan xml:space="preserve" dy="1em" x="0" class="row"/></text></g></g><g class="edgeLabel"><g class="label" transform="translate(0, 0)"><rect rx="0" ry="0" width="0" height="0"/><text style=""><tspan xml:space="preserve" dy="1em" x="0" class="row"/></text></g></g><g class="edgeLabel"><g class="label" transform="translate(0, 0)"><rect rx="0" ry="0" width="0" height="0"/><text style=""><tspan xml:space="preserve" dy="1em" x="0" class="row"/></text></g></g><g class="edgeLabel"><g class="label" transform="translate(0, 0)"><rect rx="0" ry="0" width="0" height="0"/><text style=""><tspan xml:space="preserve" dy="1em" x="0" class="row"/></text></g></g><g class="edgeLabel"><g class="label" transform="translate(0, 0)"><rect rx="0" ry="0" width="0" height="0"/><text style=""><tspan xml:space="preserve" dy="1em" x="0" class="row"/></text></g></g><g class="edgeLabel"><g class="label" transform="translate(0, 0)"><rect rx="0" ry="0" width="0" height="0"/><text style=""><tspan xml:space="preserve" dy="1em" x="0" class="row"/></text></g></g><g class="edgeLabel"><g class="label" transform="translate(0, 0)"><rect rx="0" ry="0" width="0" height="0"/><text style=""><tspan xml:space="preserve" dy="1em" x="0" class="row"/></text></g></g><g class="edgeLabel"><g class="label" transform="translate(0, 0)"><rect rx="0" ry="0" width="0" height="0"/><text style=""><tspan xml:space="preserve" dy="1em" x="0" class="row"/></text></g></g><g class="edgeLabel"><g class="label" transform="translate(0, 0)"><rect rx="0" ry="0" width="0" height="0"/><text style=""><tspan xml:space="preserve" dy="1em" x="0" class="row"/></text></g></g><g class="edgeLabel"><g class="label" transform="translate(0, 0)"><rect rx="0" ry="0" width="0" height="0"/><text style=""><tspan xml:space="preserve" dy="1em" x="0" class="row"/></text></g></g><g class="edgeLabel"><g class="label" transform="translate(0, 0)"><rect rx="0" ry="0" width="0" height="0"/><text style=""><tspan xml:space="preserve" dy="1em" x="0" class="row"/></text></g></g><g class="edgeLabel"><g class="label" transform="translate(0, 0)"><rect rx="0" ry="0" width="0" height="0"/><text style=""><tspan xml:space="preserve" dy="1em" x="0" class="row"/></text></g></g><g class="edgeLabel"><g class="label" transform="translate(0, 0)"><rect rx="0" ry="0" width="0" height="0"/><text style=""><tspan xml:space="preserve" dy="1em" x="0" class="row"/></text></g></g><g class="edgeLabel"><g class="label" transform="translate(0, 0)"><rect rx="0" ry="0" width="0" height="0"/><text style=""><tspan xml:space="preserve" dy="1em" x="0" class="row"/></text></g></g><g class="edgeLabel"><g class="label" transform="translate(0, 0)"><rect rx="0" ry="0" width="0" height="0"/><text style=""><tspan xml:space="preserve" dy="1em" x="0" class="row"/></text></g></g><g class="edgeLabel"><g class="label" transform="translate(0, 0)"><rect rx="0" ry="0" width="0" height="0"/><text style=""><tspan xml:space="preserve" dy="1em" x="0" class="row"/></text></g></g><g class="edgeLabel"><g class="label" transform="translate(0, 0)"><rect rx="0" ry="0" width="0" height="0"/><text style=""><tspan xml:space="preserve" dy="1em" x="0" class="row"/></text></g></g><g class="edgeLabel"><g class="label" transform="translate(0, 0)"><rect rx="0" ry="0" width="0" height="0"/><text style=""><tspan xml:space="preserve" dy="1em" x="0" class="row"/></text></g></g><g class="edgeLabel"><g class="label" transform="translate(0, 0)"><rect rx="0" ry="0" width="0" height="0"/><text style=""><tspan xml:space="preserve" dy="1em" x="0" class="row"/></text></g></g><g class="edgeLabel"><g class="label" transform="translate(0, 0)"><rect rx="0" ry="0" width="0" height="0"/><text style=""><tspan xml:space="preserve" dy="1em" x="0" class="row"/></text></g></g></g><g class="nodes"><g class="node default default flowchart-label" id="flowchart-CFG-0" data-node="true" data-id="CFG" transform="translate(641.6923828125, 52.5)"><rect class="basic label-container" style="" rx="0" ry="0" x="-34.0234375" y="-17.5" width="68.046875" height="35"/><g class="label" style="" transform="translate(0, -10)"><rect/><text style=""><tspan xml:space="preserve" dy="1em" x="0" class="row">config/</tspan></text></g></g><g class="node default default flowchart-label" id="flowchart-TOR-1" data-node="true" data-id="TOR" transform="translate(641.6923828125, 137.5)"><rect class="basic label-container" style="" rx="0" ry="0" x="-60.53125" y="-17.5" width="121.0625" height="35"/><g class="label" style="" transform="translate(0, -10)"><rect/><text style=""><tspan xml:space="preserve" dy="1em" x="0" class="row">data/torrents/</tspan></text></g></g><g class="node default default flowchart-label" id="flowchart-USN-2" data-node="true" data-id="USN" transform="translate(641.6923828125, 323.75)"><rect class="basic label-container" style="" rx="0" ry="0" x="-57.046875" y="-17.5" width="114.09375" height="35"/><g class="label" style="" transform="translate(0, -10)"><rect/><text style=""><tspan xml:space="preserve" dy="1em" x="0" class="row">data/usenet/</tspan></text></g></g><g class="node default default flowchart-label" id="flowchart-MED-3" data-node="true" data-id="MED" transform="translate(641.6923828125, 551.25)"><rect class="basic label-container" style="" rx="0" ry="0" x="-34.515625" y="-17.5" width="69.03125" height="35"/><g class="label" style="" transform="translate(0, -10)"><rect/><text style=""><tspan xml:space="preserve" dy="1em" x="0" class="row">media/</tspan></text></g></g><g class="node default default flowchart-label" id="flowchart-Prowlarr-4" data-node="true" data-id="Prowlarr" transform="translate(78.0234375, 271.25)"><rect class="basic label-container" style="" rx="0" ry="0" x="-78.0234375" y="-17.5" width="156.046875" height="35"/><g class="label" style="" transform="translate(0, -10)"><rect/><text style=""><tspan xml:space="preserve" dy="1em" x="0" class="row">Prowlarr Indexers</tspan></text></g></g><g class="node default default flowchart-label" id="flowchart-Sonarr-5" data-node="true" data-id="Sonarr" transform="translate(246.06494140625, 143.75)"><rect class="basic label-container" style="" rx="0" ry="0" x="-34.51611328125" y="-17.5" width="69.0322265625" height="35"/><g class="label" style="" transform="translate(0, -10)"><rect/><text style=""><tspan xml:space="preserve" dy="1em" x="0" class="row">Sonarr</tspan></text></g></g><g class="node default default flowchart-label" id="flowchart-Radarr-7" data-node="true" data-id="Radarr" transform="translate(246.06494140625, 228.75)"><rect class="basic label-container" style="" rx="0" ry="0" x="-35.015625" y="-17.5" width="70.03125" height="35"/><g class="label" style="" transform="translate(0, -10)"><rect/><text style=""><tspan xml:space="preserve" dy="1em" x="0" class="row">Radarr</tspan></text></g></g><g class="node default default flowchart-label" id="flowchart-Lidarr-9" data-node="true" data-id="Lidarr" transform="translate(246.06494140625, 313.75)"><rect class="basic label-container" style="" rx="0" ry="0" x="-30.515625" y="-17.5" width="61.03125" height="35"/><g class="label" style="" transform="translate(0, -10)"><rect/><text style=""><tspan xml:space="preserve" dy="1em" x="0" class="row">Lidarr</tspan></text></g></g><g class="node default default flowchart-label" id="flowchart-Readarr-11" data-node="true" data-id="Readarr" transform="translate(246.06494140625, 398.75)"><rect class="basic label-container" style="" rx="0" ry="0" x="-40.01806640625" y="-17.5" width="80.0361328125" height="35"/><g class="label" style="" transform="translate(0, -10)"><rect/><text style=""><tspan xml:space="preserve" dy="1em" x="0" class="row">Readarr</tspan></text></g></g><g class="node default default flowchart-label" id="flowchart-QB-13" data-node="true" data-id="QB" transform="translate(421.1220703125, 105)"><rect class="basic label-container" style="" rx="0" ry="0" x="-49.0234375" y="-17.5" width="98.046875" height="35"/><g class="label" style="" transform="translate(0, -10)"><rect/><text style=""><tspan xml:space="preserve" dy="1em" x="0" class="row">qBittorrent</tspan></text></g></g><g class="node default default flowchart-label" id="flowchart-SAB-21" data-node="true" data-id="SAB" transform="translate(421.1220703125, 271.25)"><rect class="basic label-container" style="" rx="0" ry="0" x="-81.046875" y="-17.5" width="162.09375" height="35"/><g class="label" style="" transform="translate(0, -10)"><rect/><text style=""><tspan xml:space="preserve" dy="1em" x="0" class="row">SABnzbd Optional</tspan></text></g></g><g class="node default default flowchart-label" id="flowchart-Unpackerr-32" data-node="true" data-id="Unpackerr" transform="translate(421.1220703125, 418.75)"><rect class="basic label-container" style="" rx="0" ry="0" x="-85.0390625" y="-17.5" width="170.078125" height="35"/><g class="label" style="" transform="translate(0, -10)"><rect/><text style=""><tspan xml:space="preserve" dy="1em" x="0" class="row">Unpackerr Optional</tspan></text></g></g><g class="node default default flowchart-label" id="flowchart-Bazarr-44" data-node="true" data-id="Bazarr" transform="translate(421.1220703125, 603.75)"><rect class="basic label-container" style="" rx="0" ry="0" x="-34.0107421875" y="-17.5" width="68.021484375" height="35"/><g class="label" style="" transform="translate(0, -10)"><rect/><text style=""><tspan xml:space="preserve" dy="1em" x="0" class="row">Bazarr</tspan></text></g></g><g class="node default default flowchart-label" id="flowchart-Jellyfin-46" data-node="true" data-id="Jellyfin" transform="translate(421.1220703125, 688.75)"><rect class="basic label-container" style="" rx="0" ry="0" x="-35.015625" y="-17.5" width="70.03125" height="35"/><g class="label" style="" transform="translate(0, -10)"><rect/><text style=""><tspan xml:space="preserve" dy="1em" x="0" class="row">Jellyfin</tspan></text></g></g><g class="node default default flowchart-label" id="flowchart-Plex-48" data-node="true" data-id="Plex" transform="translate(421.1220703125, 773.75)"><rect class="basic label-container" style="" rx="0" ry="0" x="-61.03125" y="-17.5" width="122.0625" height="35"/><g class="label" style="" transform="translate(0, -10)"><rect/><text style=""><tspan xml:space="preserve" dy="1em" x="0" class="row">Plex Optional</tspan></text></g></g></g></g></g></svg>