<svg id="my-svg" width="100%" xmlns="http://www.w3.org/2000/svg" xmlns:xlink="http://www.w3.org/1999/xlink" style="max-width: 3426.25px; background-color: white;" viewBox="-8 -8 3426.2451171875 1586" role="graphics-document document" aria-roledescription="flowchart-v2"><style>#my-svg{font-family:"trebuchet ms",verdana,arial,sans-serif;font-size:18px;fill:#000000;}#my-svg .error-icon{fill:#552222;}#my-svg .error-text{fill:#552222;stroke:#552222;}#my-svg .edge-thickness-normal{stroke-width:2px;}#my-svg .edge-thickness-thick{stroke-width:3.5px;}#my-svg .edge-pattern-solid{stroke-dasharray:0;}#my-svg .edge-pattern-dashed{stroke-dasharray:3;}#my-svg .edge-pattern-dotted{stroke-dasharray:2;}#my-svg .marker{fill:#1f2937;stroke:#1f2937;}#my-svg .marker.cross{stroke:#1f2937;}#my-svg svg{font-family:"trebuchet ms",verdana,arial,sans-serif;font-size:18px;}#my-svg .label{font-family:"trebuchet ms",verdana,arial,sans-serif;color:#000000;}#my-svg .cluster-label text{fill:#333;}#my-svg .cluster-label span,#my-svg p{color:#333;}#my-svg .label text,#my-svg span,#my-svg p{fill:#000000;color:#000000;}#my-svg .node rect,#my-svg .node circle,#my-svg .node ellipse,#my-svg .node polygon,#my-svg .node path{fill:#eee;stroke:#999;stroke-width:1px;}#my-svg .flowchart-label text{text-anchor:middle;}#my-svg .node .katex path{fill:#000;stroke:#000;stroke-width:1px;}#my-svg .node .label{text-align:center;}#my-svg .node.clickable{cursor:pointer;}#my-svg .arrowheadPath{fill:#333333;}#my-svg .edgePath .path{stroke:#1f2937;stroke-width:2.0px;}#my-svg .flowchart-link{stroke:#1f2937;fill:none;}#my-svg .edgeLabel{background-color:white;text-align:center;}#my-svg .edgeLabel rect{opacity:0.5;background-color:white;fill:white;}#my-svg .labelBkg{background-color:rgba(255, 255, 255, 0.5);}#my-svg .cluster rect{fill:#f8fafc;stroke:#334155;stroke-width:1px;}#my-svg .cluster text{fill:#333;}#my-svg .cluster span,#my-svg p{color:#333;}#my-svg div.mermaidTooltip{position:absolute;text-align:center;max-width:200px;padding:2px;font-family:"trebuchet ms",verdana,arial,sans-serif;font-size:12px;background:#fef9c3;border:1px solid #707070;border-radius:2px;pointer-events:none;z-index:100;}#my-svg .flowchartTitleText{text-anchor:middle;font-size:18px;fill:#000000;}#my-svg :root{--mermaid-font-family:"trebuchet ms",verdana,arial,sans-serif;}</style><g><marker id="my-svg_flowchart-pointEnd" class="marker flowchart" viewBox="0 0 10 10" refX="6" refY="5" markerUnits="userSpaceOnUse" markerWidth="12" markerHeight="12" orient="auto"><path d="M 0 0 L 10 5 L 0 10 z" class="arrowMarkerPath" style="stroke-width: 1; stroke-dasharray: 1, 0;"/></marker><marker id="my-svg_flowchart-pointStart" class="marker flowchart" viewBox="0 0 10 10" refX="4.5" refY="5" markerUnits="userSpaceOnUse" markerWidth="12" markerHeight="12" orient="auto"><path d="M 0 5 L 10 10 L 10 0 z" class="arrowMarkerPath" style="stroke-width: 1; stroke-dasharray: 1, 0;"/></marker><marker id="my-svg_flowchart-circleEnd" class="marker flowchart" viewBox="0 0 10 10" refX="11" refY="5" markerUnits="userSpaceOnUse" markerWidth="11" markerHeight="11" orient="auto"><circle cx="5" cy="5" r="5" class="arrowMarkerPath" style="stroke-width: 1; stroke-dasharray: 1, 0;"/></marker><marker id="my-svg_flowchart-circleStart" class="marker flowchart" viewBox="0 0 10 10" refX="-1" refY="5" markerUnits="userSpaceOnUse" markerWidth="11" markerHeight="11" orient="auto"><circle cx="5" cy="5" r="5" class="arrowMarkerPath" style="stroke-width: 1; stroke-dasharray: 1, 0;"/></marker><marker id="my-svg_flowchart-crossEnd" class="marker cross flowchart" viewBox="0 0 11 11" refX="12" refY="5.2" markerUnits="userSpaceOnUse" markerWidth="11" markerHeight="11" orient="auto"><path d="M 1,1 l 9,9 M 10,1 l -9,9" class="arrowMarkerPath" style="stroke-width: 2; stroke-dasharray: 1, 0;"/></marker><marker id="my-svg_flowchart-crossStart" class="marker cross flowchart" viewBox="0 0 11 11" refX="-1" refY="5.2" markerUnits="userSpaceOnUse" markerWidth="11" markerHeight="11" orient="auto"><path d="M 1,1 l 9,9 M 10,1 l -9,9" class="arrowMarkerPath" style="stroke-width: 2; stroke-dasharray: 1, 0;"/></marker><g class="root"><g class="clusters"><g class="cluster default flowchart-label" id="Z5"><rect style="" rx="0" ry="0" x="512.21484375" y="1467" width="1991.64990234375" height="103"/><g class="cluster-label" transform="translate(1508.039794921875, 1467)"><text style=""><tspan xml:space="preserve" dy="1em" x="0" class="row">Zone 5: External Providers</tspan></text></g></g><g class="cluster default flowchart-label" id="Z4"><rect style="" rx="0" ry="0" x="2523.86474609375" y="1467" width="868.8642578125" height="103"/><g class="cluster-label" transform="translate(2958.296875, 1467)"><text style=""><tspan xml:space="preserve" dy="1em" x="0" class="row">Zone 4: Storage/Data Plane (PVC-backed)</tspan></text></g></g><g class="cluster default flowchart-label" id="Z3"><rect style="" rx="0" ry="0" x="979.357666015625" y="637" width="2382.363525390625" height="760"/><g class="cluster-label" transform="translate(2170.5394287109375, 637)"><text style=""><tspan xml:space="preserve" dy="1em" x="0" class="row">Zone 3: Pod CIDR (example 10.1.0.0/16)</tspan></text></g></g><g class="cluster default flowchart-label" id="Z2"><rect style="" rx="0" ry="0" x="171.810791015625" y="828" width="787.546875" height="421"/><g class="cluster-label" transform="translate(565.584228515625, 828)"><text style=""><tspan xml:space="preserve" dy="1em" x="0" class="row">Zone 2: Service CIDR (example 10.152.183.0/24)</tspan></text></g></g><g class="cluster default flowchart-label" id="Z1"><rect style="" rx="0" ry="0" x="428.576416015625" y="428" width="443.3125" height="330"/><g class="cluster-label" transform="translate(650.232666015625, 428)"><text style=""><tspan xml:space="preserve" dy="1em" x="0" class="row">Zone 1: Kubernetes Edge (node IPs, e.g. 192.168.1.60)</tspan></text></g></g><g class="cluster default flowchart-label" id="Z0"><rect style="" rx="0" ry="0" x="113.236572265625" y="177" width="386.734375" height="390"/><g class="cluster-label" transform="translate(306.603759765625, 177)"><text style=""><tspan xml:space="preserve" dy="1em" x="0" class="row">Zone 0: Clients + LAN (example 192.168.1.0/24)</tspan></text></g></g></g><g class="edgePaths"><path d="M306.604,255L306.604,260.833C306.604,266.667,306.604,278.333,306.604,289.117C306.604,299.9,306.604,309.8,306.604,314.75L306.604,319.7" id="L-U-DNS-0" class=" edge-thickness-normal edge-pattern-solid flowchart-link LS-U LE-DNS" style="fill:none;" marker-end="url(#my-svg_flowchart-pointEnd)"/><path d="M306.604,378L306.604,382.167C306.604,386.333,306.604,394.667,306.604,403C306.604,411.333,306.604,419.667,306.604,431.617C306.604,443.567,306.604,459.133,306.604,466.917L306.604,474.7" id="L-DNS-FW-0" class=" edge-thickness-normal edge-pattern-solid flowchart-link LS-DNS LE-FW" style="fill:none;" marker-end="url(#my-svg_flowchart-pointEnd)"/><path d="M306.604,515L306.604,523.667C306.604,532.333,306.604,549.667,343.325,564.167C380.046,578.667,453.489,590.333,490.211,602C526.932,613.667,526.932,625.333,534.008,634.919C541.083,644.506,555.235,652.011,562.31,655.764L569.386,659.517" id="L-FW-INGR-0" class=" edge-thickness-normal edge-pattern-solid flowchart-link LS-FW LE-INGR" style="fill:none;" marker-end="url(#my-svg_flowchart-pointEnd)"/><path d="M641.002,542L641.002,546.167C641.002,550.333,641.002,558.667,641.002,568.667C641.002,578.667,641.002,590.333,641.002,602C641.002,613.667,641.002,625.333,641.002,634.45C641.002,643.567,641.002,650.133,641.002,653.417L641.002,656.7" id="L-HOSTS-INGR-0" class=" edge-thickness-normal edge-pattern-dotted flowchart-link LS-HOSTS LE-INGR" style="fill:none;stroke-width:2px;stroke-dasharray:3;" marker-end="url(#my-svg_flowchart-pointEnd)"/><path d="M605.326,733L601.138,737.167C596.951,741.333,588.576,749.667,533.955,759.667C479.334,769.667,378.467,781.333,328.033,793C277.6,804.667,277.6,816.333,277.6,832.25C277.6,848.167,277.6,868.333,277.6,890.167C277.6,912,277.6,935.5,277.6,959C277.6,982.5,277.6,1006,277.6,1029.5C277.6,1053,277.6,1076.5,281.864,1093.403C286.128,1110.306,294.656,1120.611,298.92,1125.764L303.185,1130.917" id="L-INGR-S_UI-0" class=" edge-thickness-normal edge-pattern-solid flowchart-link LS-INGR LE-S_UI" style="fill:none;" marker-end="url(#my-svg_flowchart-pointEnd)"/><path d="M622.929,733L620.808,737.167C618.686,741.333,614.444,749.667,612.323,759.667C610.201,769.667,610.201,781.333,610.201,793C610.201,804.667,610.201,816.333,610.201,832.25C610.201,848.167,610.201,868.333,610.201,890.167C610.201,912,610.201,935.5,610.201,959C610.201,982.5,610.201,1006,610.201,1029.5C610.201,1053,610.201,1076.5,617.085,1093.545C623.969,1110.59,637.737,1121.179,644.621,1126.474L651.504,1131.769" id="L-INGR-S_AUT-0" class=" edge-thickness-normal edge-pattern-solid flowchart-link LS-INGR LE-S_AUT" style="fill:none;" marker-end="url(#my-svg_flowchart-pointEnd)"/><path d="M687.963,733L693.474,737.167C698.986,741.333,710.01,749.667,715.522,759.667C721.033,769.667,721.033,781.333,721.033,793C721.033,804.667,721.033,816.333,724.783,825.725C728.532,835.117,736.032,842.234,739.781,845.793L743.531,849.351" id="L-INGR-S_DL-0" class=" edge-thickness-normal edge-pattern-solid flowchart-link LS-INGR LE-S_DL" style="fill:none;" marker-end="url(#my-svg_flowchart-pointEnd)"/><path d="M343.389,1224L343.389,1228.167C343.389,1232.333,343.389,1240.667,676.827,1250.667C1010.265,1260.667,1677.141,1272.333,2026.802,1283.714C2376.463,1295.095,2408.909,1306.19,2425.132,1311.738L2441.355,1317.285" id="L-S_UI-P_UI-0" class=" edge-thickness-normal edge-pattern-solid flowchart-link LS-S_UI LE-P_UI" style="fill:none;" marker-end="url(#my-svg_flowchart-pointEnd)"/><path d="M826.623,1171.284L990.121,1159.404C1153.618,1147.523,1480.613,1123.761,1644.11,1100.131C1807.608,1076.5,1807.608,1053,1807.608,1029.5C1807.608,1006,1807.608,982.5,1807.608,959C1807.608,935.5,1807.608,912,1807.608,890.167C1807.608,868.333,1807.608,848.167,1807.608,832.25C1807.608,816.333,1807.608,804.667,1807.608,793C1807.608,781.333,1807.608,769.667,1764.778,756.62C1721.947,743.574,1636.287,729.148,1593.457,721.935L1550.626,714.722" id="L-S_AUT-P_AUT-0" class=" edge-thickness-normal edge-pattern-solid flowchart-link LS-S_AUT LE-P_AUT" style="fill:none;" marker-end="url(#my-svg_flowchart-pointEnd)"/><path d="M784.78,924L784.78,929.833C784.78,935.667,784.78,947.333,978.664,963.733C1172.547,980.132,1560.315,1001.264,1754.199,1011.83L1948.083,1022.396" id="L-S_DL-P_DL-0" class=" edge-thickness-normal edge-pattern-solid flowchart-link LS-S_DL LE-P_DL" style="fill:none;" marker-end="url(#my-svg_flowchart-pointEnd)"/><path d="M1351.334,713.236L1305.329,720.696C1259.323,728.157,1167.311,743.079,1121.306,756.373C1075.3,769.667,1075.3,781.333,1075.3,793C1075.3,804.667,1075.3,816.333,1051.008,827.225C1026.715,838.118,978.131,848.235,953.839,853.294L929.546,858.353" id="L-P_AUT-S_DL-0" class=" edge-thickness-normal edge-pattern-solid flowchart-link LS-P_AUT LE-S_DL" style="fill:none;" marker-end="url(#my-svg_flowchart-pointEnd)"/><path d="M1516.834,724L1531.475,729.667C1546.115,735.333,1575.397,746.667,1590.038,758.167C1604.678,769.667,1604.678,781.333,1604.678,793C1604.678,804.667,1604.678,816.333,1604.678,832.25C1604.678,848.167,1604.678,868.333,1604.678,890.167C1604.678,912,1604.678,935.5,1604.678,959C1604.678,982.5,1604.678,1006,1604.678,1029.5C1604.678,1053,1604.678,1076.5,1475.882,1099.74C1347.086,1122.981,1089.494,1145.962,960.698,1157.452L831.902,1168.942" id="L-P_AUT-S_AUT-0" class=" edge-thickness-normal edge-pattern-solid flowchart-link LS-P_AUT LE-S_AUT" style="fill:none;" marker-end="url(#my-svg_flowchart-pointEnd)"/><path d="M1410.492,724L1402.393,729.667C1394.294,735.333,1378.095,746.667,1369.996,758.167C1361.897,769.667,1361.897,781.333,1361.897,793C1361.897,804.667,1361.897,816.333,1361.897,832.25C1361.897,848.167,1361.897,868.333,1361.897,890.167C1361.897,912,1361.897,935.5,1361.897,959C1361.897,982.5,1361.897,1006,1361.897,1029.5C1361.897,1053,1361.897,1076.5,1215.789,1099.654C1069.682,1122.809,777.466,1145.618,631.359,1157.022L485.251,1168.427" id="L-P_AUT-S_UI-0" class=" edge-thickness-normal edge-pattern-solid flowchart-link LS-P_AUT LE-S_UI" style="fill:none;" marker-end="url(#my-svg_flowchart-pointEnd)"/><path d="M1953.375,1050.844L1905.375,1059.037C1857.375,1067.23,1761.374,1083.615,1574.462,1103.41C1387.551,1123.205,1109.728,1146.41,970.816,1158.013L831.905,1169.615" id="L-P_DL-S_AUT-0" class=" edge-thickness-normal edge-pattern-solid flowchart-link LS-P_DL LE-S_AUT" style="fill:none;" marker-end="url(#my-svg_flowchart-pointEnd)"/><path d="M1953.375,1042.943L1864.912,1052.453C1776.448,1061.962,1599.52,1080.981,1354.833,1101.999C1110.146,1123.017,797.699,1146.033,641.476,1157.541L485.253,1169.05" id="L-P_DL-S_UI-0" class=" edge-thickness-normal edge-pattern-solid flowchart-link LS-P_DL LE-S_UI" style="fill:none;" marker-end="url(#my-svg_flowchart-pointEnd)"/><path d="M1753.795,719.364L1708.71,725.803C1663.626,732.243,1573.457,745.121,1528.372,757.394C1483.288,769.667,1483.288,781.333,1483.288,793C1483.288,804.667,1483.288,816.333,1483.288,832.25C1483.288,848.167,1483.288,868.333,1483.288,890.167C1483.288,912,1483.288,935.5,1483.288,959C1483.288,982.5,1483.288,1006,1483.288,1029.5C1483.288,1053,1483.288,1076.5,1316.949,1099.851C1150.61,1123.202,817.932,1146.404,651.593,1158.005L485.254,1169.606" id="L-P_JOB-S_UI-0" class=" edge-thickness-normal edge-pattern-solid flowchart-link LS-P_JOB LE-S_UI" style="fill:none;" marker-end="url(#my-svg_flowchart-pointEnd)"/><path d="M1827.678,724L1810.743,729.667C1793.808,735.333,1759.939,746.667,1743.004,758.167C1726.069,769.667,1726.069,781.333,1726.069,793C1726.069,804.667,1726.069,816.333,1726.069,832.25C1726.069,848.167,1726.069,868.333,1726.069,890.167C1726.069,912,1726.069,935.5,1726.069,959C1726.069,982.5,1726.069,1006,1726.069,1029.5C1726.069,1053,1726.069,1076.5,1577.042,1099.951C1428.015,1123.403,1129.961,1146.805,980.934,1158.506L831.907,1170.208" id="L-P_JOB-S_AUT-0" class=" edge-thickness-normal edge-pattern-solid flowchart-link LS-P_JOB LE-S_AUT" style="fill:none;" marker-end="url(#my-svg_flowchart-pointEnd)"/><path d="M1753.795,712.282L1674.889,719.902C1595.983,727.521,1438.17,742.761,1359.264,756.214C1280.358,769.667,1280.358,781.333,1280.358,793C1280.358,804.667,1280.358,816.333,1221.901,829.303C1163.445,842.273,1046.532,856.545,988.075,863.682L929.619,870.818" id="L-P_JOB-S_DL-0" class=" edge-thickness-normal edge-pattern-solid flowchart-link LS-P_JOB LE-S_DL" style="fill:none;" marker-end="url(#my-svg_flowchart-pointEnd)"/><path d="M2558.608,1372L2564.071,1376.167C2569.533,1380.333,2580.459,1388.667,2585.922,1398.667C2591.384,1408.667,2591.384,1420.333,2591.384,1432C2591.384,1443.667,2591.384,1455.333,2598.338,1464.914C2605.291,1474.495,2619.198,1481.99,2626.152,1485.738L2633.105,1489.485" id="L-P_UI-PVC_CFG-0" class=" edge-thickness-normal edge-pattern-solid flowchart-link LS-P_UI LE-PVC_CFG" style="fill:none;" marker-end="url(#my-svg_flowchart-pointEnd)"/><path d="M1545.4,702.078L1742.93,711.399C1940.46,720.719,2335.52,739.359,2533.05,754.513C2730.581,769.667,2730.581,781.333,2730.581,793C2730.581,804.667,2730.581,816.333,2730.581,832.25C2730.581,848.167,2730.581,868.333,2730.581,890.167C2730.581,912,2730.581,935.5,2730.581,959C2730.581,982.5,2730.581,1006,2730.581,1029.5C2730.581,1053,2730.581,1076.5,2730.581,1101.5C2730.581,1126.5,2730.581,1153,2730.581,1177.833C2730.581,1202.667,2730.581,1225.833,2730.581,1243.25C2730.581,1260.667,2730.581,1272.333,2730.581,1288.417C2730.581,1304.5,2730.581,1325,2730.581,1343.833C2730.581,1362.667,2730.581,1379.833,2730.581,1394.25C2730.581,1408.667,2730.581,1420.333,2730.581,1432C2730.581,1443.667,2730.581,1455.333,2727.621,1464.659C2724.661,1473.986,2718.742,1480.971,2715.782,1484.464L2712.822,1487.957" id="L-P_AUT-PVC_CFG-0" class=" edge-thickness-normal edge-pattern-solid flowchart-link LS-P_AUT LE-PVC_CFG" style="fill:none;" marker-end="url(#my-svg_flowchart-pointEnd)"/><path d="M2203.489,1042.617L2294.671,1052.181C2385.853,1061.745,2568.217,1080.872,2659.399,1103.686C2750.581,1126.5,2750.581,1153,2750.581,1177.833C2750.581,1202.667,2750.581,1225.833,2750.581,1243.25C2750.581,1260.667,2750.581,1272.333,2750.581,1288.417C2750.581,1304.5,2750.581,1325,2750.581,1343.833C2750.581,1362.667,2750.581,1379.833,2750.581,1394.25C2750.581,1408.667,2750.581,1420.333,2750.581,1432C2750.581,1443.667,2750.581,1455.333,2746.118,1464.778C2741.656,1474.222,2732.732,1481.444,2728.269,1485.055L2723.807,1488.666" id="L-P_DL-PVC_CFG-0" class=" edge-thickness-normal edge-pattern-solid flowchart-link LS-P_DL LE-PVC_CFG" style="fill:none;" marker-end="url(#my-svg_flowchart-pointEnd)"/><path d="M2059.951,708.223L2178.389,716.519C2296.828,724.815,2533.704,741.408,2652.142,755.537C2770.581,769.667,2770.581,781.333,2770.581,793C2770.581,804.667,2770.581,816.333,2770.581,832.25C2770.581,848.167,2770.581,868.333,2770.581,890.167C2770.581,912,2770.581,935.5,2770.581,959C2770.581,982.5,2770.581,1006,2770.581,1029.5C2770.581,1053,2770.581,1076.5,2770.581,1101.5C2770.581,1126.5,2770.581,1153,2770.581,1177.833C2770.581,1202.667,2770.581,1225.833,2770.581,1243.25C2770.581,1260.667,2770.581,1272.333,2770.581,1288.417C2770.581,1304.5,2770.581,1325,2770.581,1343.833C2770.581,1362.667,2770.581,1379.833,2770.581,1394.25C2770.581,1408.667,2770.581,1420.333,2770.581,1432C2770.581,1443.667,2770.581,1455.333,2764.566,1464.87C2758.551,1474.407,2746.521,1481.814,2740.506,1485.518L2734.491,1489.221" id="L-P_JOB-PVC_CFG-0" class=" edge-thickness-normal edge-pattern-solid flowchart-link LS-P_JOB LE-PVC_CFG" style="fill:none;" marker-end="url(#my-svg_flowchart-pointEnd)"/><path d="M2203.489,1041.175L2308.509,1050.979C2413.53,1060.783,2623.571,1080.392,2728.591,1103.446C2833.612,1126.5,2833.612,1153,2833.612,1177.833C2833.612,1202.667,2833.612,1225.833,2833.612,1243.25C2833.612,1260.667,2833.612,1272.333,2833.612,1288.417C2833.612,1304.5,2833.612,1325,2833.612,1343.833C2833.612,1362.667,2833.612,1379.833,2833.612,1394.25C2833.612,1408.667,2833.612,1420.333,2833.612,1432C2833.612,1443.667,2833.612,1455.333,2839.631,1464.87C2845.65,1474.407,2857.688,1481.815,2863.708,1485.519L2869.727,1489.222" id="L-P_DL-PVC_DATA-0" class=" edge-thickness-normal edge-pattern-solid flowchart-link LS-P_DL LE-PVC_DATA" style="fill:none;" marker-end="url(#my-svg_flowchart-pointEnd)"/><path d="M1545.4,701.399L1780.153,710.833C2014.907,720.266,2484.414,739.133,2719.167,754.4C2953.921,769.667,2953.921,781.333,2953.921,793C2953.921,804.667,2953.921,816.333,2953.921,832.25C2953.921,848.167,2953.921,868.333,2953.921,890.167C2953.921,912,2953.921,935.5,2953.921,959C2953.921,982.5,2953.921,1006,2953.921,1029.5C2953.921,1053,2953.921,1076.5,2953.921,1101.5C2953.921,1126.5,2953.921,1153,2953.921,1177.833C2953.921,1202.667,2953.921,1225.833,2953.921,1243.25C2953.921,1260.667,2953.921,1272.333,2953.921,1288.417C2953.921,1304.5,2953.921,1325,2953.921,1343.833C2953.921,1362.667,2953.921,1379.833,2953.921,1394.25C2953.921,1408.667,2953.921,1420.333,2953.921,1432C2953.921,1443.667,2953.921,1455.333,2951.47,1464.613C2949.02,1473.893,2944.119,1480.787,2941.669,1484.234L2939.218,1487.68" id="L-P_AUT-PVC_DATA-0" class=" edge-thickness-normal edge-pattern-solid flowchart-link LS-P_AUT LE-PVC_DATA" style="fill:none;" marker-end="url(#my-svg_flowchart-pointEnd)"/><path d="M1545.4,700.918L1815.502,710.431C2085.605,719.945,2625.809,738.973,2895.912,754.32C3166.014,769.667,3166.014,781.333,3166.014,793C3166.014,804.667,3166.014,816.333,3166.014,832.25C3166.014,848.167,3166.014,868.333,3166.014,890.167C3166.014,912,3166.014,935.5,3166.014,959C3166.014,982.5,3166.014,1006,3166.014,1029.5C3166.014,1053,3166.014,1076.5,3166.014,1101.5C3166.014,1126.5,3166.014,1153,3166.014,1177.833C3166.014,1202.667,3166.014,1225.833,3166.014,1243.25C3166.014,1260.667,3166.014,1272.333,3166.014,1288.417C3166.014,1304.5,3166.014,1325,3166.014,1343.833C3166.014,1362.667,3166.014,1379.833,3166.014,1394.25C3166.014,1408.667,3166.014,1420.333,3166.014,1432C3166.014,1443.667,3166.014,1455.333,3169.945,1464.739C3173.876,1474.145,3181.738,1481.29,3185.669,1484.863L3189.601,1488.435" id="L-P_AUT-PVC_MEDIA-0" class=" edge-thickness-normal edge-pattern-solid flowchart-link LS-P_AUT LE-PVC_MEDIA" style="fill:none;" marker-end="url(#my-svg_flowchart-pointEnd)"/><path d="M2639.921,1353.786L2740.796,1360.989C2841.67,1368.191,3043.418,1382.595,3144.292,1395.631C3245.167,1408.667,3245.167,1420.333,3245.167,1432C3245.167,1443.667,3245.167,1455.333,3243.701,1464.524C3242.235,1473.714,3239.304,1480.428,3237.838,1483.786L3236.372,1487.143" id="L-P_UI-PVC_MEDIA-0" class=" edge-thickness-normal edge-pattern-solid flowchart-link LS-P_UI LE-PVC_MEDIA" style="fill:none;" marker-end="url(#my-svg_flowchart-pointEnd)"/><path d="M2059.951,705.497L2227.455,714.247C2394.959,722.998,2729.967,740.499,2897.471,755.083C3064.975,769.667,3064.975,781.333,3064.975,793C3064.975,804.667,3064.975,816.333,3064.975,832.25C3064.975,848.167,3064.975,868.333,3064.975,890.167C3064.975,912,3064.975,935.5,3064.975,959C3064.975,982.5,3064.975,1006,3064.975,1029.5C3064.975,1053,3064.975,1076.5,3064.975,1101.5C3064.975,1126.5,3064.975,1153,3064.975,1177.833C3064.975,1202.667,3064.975,1225.833,3064.975,1243.25C3064.975,1260.667,3064.975,1272.333,3064.975,1288.417C3064.975,1304.5,3064.975,1325,3064.975,1343.833C3064.975,1362.667,3064.975,1379.833,3064.975,1394.25C3064.975,1408.667,3064.975,1420.333,3064.975,1432C3064.975,1443.667,3064.975,1455.333,3053.862,1465.042C3042.749,1474.752,3020.522,1482.503,3009.409,1486.379L2998.296,1490.255" id="L-P_JOB-PVC_DATA-0" class=" edge-thickness-normal edge-pattern-solid flowchart-link LS-P_JOB LE-PVC_DATA" style="fill:none;" marker-end="url(#my-svg_flowchart-pointEnd)"/><path d="M2059.951,704.1L2268.324,713.083C2476.697,722.066,2893.444,740.033,3101.817,754.85C3310.19,769.667,3310.19,781.333,3310.19,793C3310.19,804.667,3310.19,816.333,3310.19,832.25C3310.19,848.167,3310.19,868.333,3310.19,890.167C3310.19,912,3310.19,935.5,3310.19,959C3310.19,982.5,3310.19,1006,3310.19,1029.5C3310.19,1053,3310.19,1076.5,3310.19,1101.5C3310.19,1126.5,3310.19,1153,3310.19,1177.833C3310.19,1202.667,3310.19,1225.833,3310.19,1243.25C3310.19,1260.667,3310.19,1272.333,3310.19,1288.417C3310.19,1304.5,3310.19,1325,3310.19,1343.833C3310.19,1362.667,3310.19,1379.833,3310.19,1394.25C3310.19,1408.667,3310.19,1420.333,3310.19,1432C3310.19,1443.667,3310.19,1455.333,3303.871,1464.885C3297.553,1474.437,3284.915,1481.875,3278.597,1485.593L3272.278,1489.312" id="L-P_JOB-PVC_MEDIA-0" class=" edge-thickness-normal edge-pattern-solid flowchart-link LS-P_JOB LE-PVC_MEDIA" style="fill:none;" marker-end="url(#my-svg_flowchart-pointEnd)"/><path d="M1545.4,712.98L1592.435,720.483C1639.469,727.986,1733.539,742.993,1780.573,756.33C1827.608,769.667,1827.608,781.333,1827.608,793C1827.608,804.667,1827.608,816.333,1827.608,832.25C1827.608,848.167,1827.608,868.333,1827.608,890.167C1827.608,912,1827.608,935.5,1827.608,959C1827.608,982.5,1827.608,1006,1827.608,1029.5C1827.608,1053,1827.608,1076.5,1827.608,1101.5C1827.608,1126.5,1827.608,1153,1827.608,1177.833C1827.608,1202.667,1827.608,1225.833,1827.608,1243.25C1827.608,1260.667,1827.608,1272.333,1827.608,1288.417C1827.608,1304.5,1827.608,1325,1827.608,1343.833C1827.608,1362.667,1827.608,1379.833,1622.294,1394.25C1416.98,1408.667,1006.352,1420.333,801.038,1432C595.724,1443.667,595.724,1455.333,601.764,1466.264C607.803,1477.194,619.882,1487.388,625.921,1492.485L631.96,1497.582" id="L-P_AUT-IDX-0" class=" edge-thickness-normal edge-pattern-solid flowchart-link LS-P_AUT LE-IDX" style="fill:none;" marker-end="url(#my-svg_flowchart-pointEnd)"/><path d="M1545.4,712.204L1595.768,719.837C1646.136,727.469,1746.872,742.735,1797.24,756.201C1847.608,769.667,1847.608,781.333,1847.608,793C1847.608,804.667,1847.608,816.333,1847.608,832.25C1847.608,848.167,1847.608,868.333,1847.608,890.167C1847.608,912,1847.608,935.5,1847.608,959C1847.608,982.5,1847.608,1006,1847.608,1029.5C1847.608,1053,1847.608,1076.5,1847.608,1101.5C1847.608,1126.5,1847.608,1153,1847.608,1177.833C1847.608,1202.667,1847.608,1225.833,1847.608,1243.25C1847.608,1260.667,1847.608,1272.333,1847.608,1288.417C1847.608,1304.5,1847.608,1325,1847.608,1343.833C1847.608,1362.667,1847.608,1379.833,1847.608,1394.25C1847.608,1408.667,1847.608,1420.333,1847.608,1432C1847.608,1443.667,1847.608,1455.333,1848.249,1464.466C1848.889,1473.599,1850.171,1480.198,1850.811,1483.498L1851.452,1486.797" id="L-P_AUT-META-0" class=" edge-thickness-normal edge-pattern-solid flowchart-link LS-P_AUT LE-META" style="fill:none;" marker-end="url(#my-svg_flowchart-pointEnd)"/><path d="M2407.808,1356.432L2336.024,1363.193C2264.24,1369.954,2120.672,1383.477,2048.888,1396.072C1977.104,1408.667,1977.104,1420.333,1977.104,1432C1977.104,1443.667,1977.104,1455.333,1968.247,1464.984C1959.39,1474.634,1941.677,1482.268,1932.82,1486.085L1923.963,1489.902" id="L-P_UI-META-0" class=" edge-thickness-normal edge-pattern-solid flowchart-link LS-P_UI LE-META" style="fill:none;" marker-end="url(#my-svg_flowchart-pointEnd)"/><path d="M2407.808,1356.847L2339.357,1363.539C2270.907,1370.231,2134.005,1383.616,2065.555,1396.141C1997.104,1408.667,1997.104,1420.333,1997.104,1432C1997.104,1443.667,1997.104,1455.333,2011.686,1466.528C2026.267,1477.724,2055.431,1488.447,2070.013,1493.809L2084.594,1499.171" id="L-P_UI-IPTV-0" class=" edge-thickness-normal edge-pattern-solid flowchart-link LS-P_UI LE-IPTV" style="fill:none;" marker-end="url(#my-svg_flowchart-pointEnd)"/><path d="M2052.126,724L2083.187,729.667C2114.247,735.333,2176.368,746.667,2207.428,758.167C2238.489,769.667,2238.489,781.333,2238.489,793C2238.489,804.667,2238.489,816.333,2238.489,832.25C2238.489,848.167,2238.489,868.333,2238.489,890.167C2238.489,912,2238.489,935.5,2238.489,959C2238.489,982.5,2238.489,1006,2238.489,1029.5C2238.489,1053,2238.489,1076.5,2238.489,1101.5C2238.489,1126.5,2238.489,1153,2238.489,1177.833C2238.489,1202.667,2238.489,1225.833,2238.489,1243.25C2238.489,1260.667,2238.489,1272.333,2238.489,1288.417C2238.489,1304.5,2238.489,1325,2238.489,1343.833C2238.489,1362.667,2238.489,1379.833,2238.489,1394.25C2238.489,1408.667,2238.489,1420.333,2238.489,1432C2238.489,1443.667,2238.489,1455.333,2228.127,1466.433C2217.765,1477.533,2197.041,1488.066,2186.679,1493.332L2176.317,1498.599" id="L-P_JOB-IPTV-0" class=" edge-thickness-normal edge-pattern-solid flowchart-link LS-P_JOB LE-IPTV" style="fill:none;" marker-end="url(#my-svg_flowchart-pointEnd)"/><path d="M2059.951,723.839L2093.041,729.533C2126.13,735.226,2192.31,746.613,2225.399,758.14C2258.489,769.667,2258.489,781.333,2258.489,793C2258.489,804.667,2258.489,816.333,2258.489,832.25C2258.489,848.167,2258.489,868.333,2258.489,890.167C2258.489,912,2258.489,935.5,2258.489,959C2258.489,982.5,2258.489,1006,2258.489,1029.5C2258.489,1053,2258.489,1076.5,2258.489,1101.5C2258.489,1126.5,2258.489,1153,2258.489,1177.833C2258.489,1202.667,2258.489,1225.833,2258.489,1243.25C2258.489,1260.667,2258.489,1272.333,2258.489,1288.417C2258.489,1304.5,2258.489,1325,2258.489,1343.833C2258.489,1362.667,2258.489,1379.833,2258.489,1394.25C2258.489,1408.667,2258.489,1420.333,2258.489,1432C2258.489,1443.667,2258.489,1455.333,2268.851,1466.433C2279.213,1477.533,2299.936,1488.066,2310.298,1493.332L2320.66,1498.599" id="L-P_JOB-NTFY-0" class=" edge-thickness-normal edge-pattern-solid flowchart-link LS-P_JOB LE-NTFY" style="fill:none;" marker-end="url(#my-svg_flowchart-pointEnd)"/><path d="M2478.316,1372L2471.154,1376.167C2463.992,1380.333,2449.669,1388.667,2442.507,1398.667C2435.345,1408.667,2435.345,1420.333,2435.345,1432C2435.345,1443.667,2435.345,1455.333,2427.764,1466.336C2420.184,1477.338,2405.022,1487.676,2397.442,1492.845L2389.861,1498.014" id="L-P_UI-NTFY-0" class=" edge-thickness-normal edge-pattern-solid flowchart-link LS-P_UI LE-NTFY" style="fill:none;" marker-end="url(#my-svg_flowchart-pointEnd)"/><path d="M283.857,107L287.648,112.833C291.439,118.667,299.022,130.333,302.813,142C306.604,153.667,306.604,165.333,306.604,171.167L306.604,177" id="L-LEG-Z0-0" class=" edge-thickness-normal edge-pattern-dotted flowchart-link LS-LEG LE-Z0" style="fill:none;stroke-width:2px;stroke-dasharray:3;"/><path d="M446.181,85.101L505.329,94.584C564.476,104.067,682.77,123.034,741.917,138.35C801.065,153.667,801.065,165.333,801.065,179.75C801.065,194.167,801.065,211.333,801.065,230.167C801.065,249,801.065,269.5,801.065,290C801.065,310.5,801.065,331,801.065,349.833C801.065,368.667,801.065,385.833,801.065,398.583C801.065,411.333,801.065,419.667,801.065,423.833L801.065,428" id="L-LEG-Z1-0" class=" edge-thickness-normal edge-pattern-dotted flowchart-link LS-LEG LE-Z1" style="fill:none;stroke-width:2px;stroke-dasharray:3;"/><path d="M179.398,107L171.8,112.833C164.201,118.667,149.004,130.333,141.405,142C133.807,153.667,133.807,165.333,133.807,179.75C133.807,194.167,133.807,211.333,133.807,230.167C133.807,249,133.807,269.5,133.807,290C133.807,310.5,133.807,331,133.807,349.833C133.807,368.667,133.807,385.833,133.807,398.583C133.807,411.333,133.807,419.667,133.807,435.417C133.807,451.167,133.807,474.333,133.807,497.5C133.807,520.667,133.807,543.833,133.807,561.25C133.807,578.667,133.807,590.333,133.807,602C133.807,613.667,133.807,625.333,133.807,641.25C133.807,657.167,133.807,677.333,133.807,697.5C133.807,717.667,133.807,737.833,161.106,753.75C188.405,769.667,243.002,781.333,270.301,793C297.6,804.667,297.6,816.333,297.6,822.167L297.6,828" id="L-LEG-Z2-0" class=" edge-thickness-normal edge-pattern-dotted flowchart-link LS-LEG LE-Z2" style="fill:none;stroke-width:2px;stroke-dasharray:3;"/><path d="M446.181,60.78L812.66,74.317C1179.138,87.853,1912.095,114.927,2278.574,134.297C2645.052,153.667,2645.052,165.333,2645.052,179.75C2645.052,194.167,2645.052,211.333,2645.052,230.167C2645.052,249,2645.052,269.5,2645.052,290C2645.052,310.5,2645.052,331,2645.052,349.833C2645.052,368.667,2645.052,385.833,2645.052,398.583C2645.052,411.333,2645.052,419.667,2645.052,435.417C2645.052,451.167,2645.052,474.333,2645.052,497.5C2645.052,520.667,2645.052,543.833,2645.052,561.25C2645.052,578.667,2645.052,590.333,2645.052,602C2645.052,613.667,2645.052,625.333,2645.052,631.167L2645.052,637" id="L-LEG-Z3-0" class=" edge-thickness-normal edge-pattern-dotted flowchart-link LS-LEG LE-Z3" style="fill:none;stroke-width:2px;stroke-dasharray:3;"/><path d="M446.181,59.018L940.192,72.848C1434.202,86.679,2422.224,114.339,2916.234,134.003C3410.245,153.667,3410.245,165.333,3410.245,179.75C3410.245,194.167,3410.245,211.333,3410.245,230.167C3410.245,249,3410.245,269.5,3410.245,290C3410.245,310.5,3410.245,331,3410.245,349.833C3410.245,368.667,3410.245,385.833,3410.245,398.583C3410.245,411.333,3410.245,419.667,3410.245,435.417C3410.245,451.167,3410.245,474.333,3410.245,497.5C3410.245,520.667,3410.245,543.833,3410.245,561.25C3410.245,578.667,3410.245,590.333,3410.245,602C3410.245,613.667,3410.245,625.333,3410.245,641.25C3410.245,657.167,3410.245,677.333,3410.245,697.5C3410.245,717.667,3410.245,737.833,3410.245,753.75C3410.245,769.667,3410.245,781.333,3410.245,793C3410.245,804.667,3410.245,816.333,3410.245,832.25C3410.245,848.167,3410.245,868.333,3410.245,890.167C3410.245,912,3410.245,935.5,3410.245,959C3410.245,982.5,3410.245,1006,3410.245,1029.5C3410.245,1053,3410.245,1076.5,3410.245,1101.5C3410.245,1126.5,3410.245,1153,3410.245,1177.833C3410.245,1202.667,3410.245,1225.833,3410.245,1243.25C3410.245,1260.667,3410.245,1272.333,3410.245,1288.417C3410.245,1304.5,3410.245,1325,3410.245,1343.833C3410.245,1362.667,3410.245,1379.833,3308.887,1394.25C3207.528,1408.667,3004.812,1420.333,2903.454,1432C2802.096,1443.667,2802.096,1455.333,2802.096,1461.167L2802.096,1467" id="L-LEG-Z4-0" class=" edge-thickness-normal edge-pattern-dotted flowchart-link LS-LEG LE-Z4" style="fill:none;stroke-width:2px;stroke-dasharray:3;"/><path d="M115.752,107L101.214,112.833C86.676,118.667,57.6,130.333,43.062,142C28.523,153.667,28.523,165.333,28.523,179.75C28.523,194.167,28.523,211.333,28.523,230.167C28.523,249,28.523,269.5,28.523,290C28.523,310.5,28.523,331,28.523,349.833C28.523,368.667,28.523,385.833,28.523,398.583C28.523,411.333,28.523,419.667,28.523,435.417C28.523,451.167,28.523,474.333,28.523,497.5C28.523,520.667,28.523,543.833,28.523,561.25C28.523,578.667,28.523,590.333,28.523,602C28.523,613.667,28.523,625.333,28.523,641.25C28.523,657.167,28.523,677.333,28.523,697.5C28.523,717.667,28.523,737.833,28.523,753.75C28.523,769.667,28.523,781.333,28.523,793C28.523,804.667,28.523,816.333,28.523,832.25C28.523,848.167,28.523,868.333,28.523,890.167C28.523,912,28.523,935.5,28.523,959C28.523,982.5,28.523,1006,28.523,1029.5C28.523,1053,28.523,1076.5,28.523,1101.5C28.523,1126.5,28.523,1153,28.523,1177.833C28.523,1202.667,28.523,1225.833,28.523,1243.25C28.523,1260.667,28.523,1272.333,28.523,1288.417C28.523,1304.5,28.523,1325,28.523,1343.833C28.523,1362.667,28.523,1379.833,133.227,1394.25C237.931,1408.667,447.339,1420.333,552.042,1432C656.746,1443.667,656.746,1455.333,656.746,1461.167L656.746,1467" id="L-LEG-Z5-0" class=" edge-thickness-normal edge-pattern-dotted flowchart-link LS-LEG LE-Z5" style="fill:none;stroke-width:2px;stroke-dasharray:3;"/></g><g class="edgeLabels"><g class="edgeLabel" transform="translate(306.603759765625, 290)"><g class="label" transform="translate(-29.5078125, -10)"><rect rx="0" ry="0" width="58.98298645019531" height="20.445642471313477"/><text style=""><tspan xml:space="preserve" dy="1em" x="0" class="row">HTTPS</tspan></text></g></g><g class="edgeLabel"><g class="label" transform="translate(0, 0)"><rect rx="0" ry="0" width="0" height="0"/><text style=""><tspan xml:space="preserve" dy="1em" x="0" class="row"/></text></g></g><g class="edgeLabel" transform="translate(526.931884765625, 602)"><g class="label" transform="translate(-27.53125, -10)"><rect rx="0" ry="0" width="55.03173065185547" height="20.445642471313477"/><text style=""><tspan xml:space="preserve" dy="1em" x="0" class="row">443/80</tspan></text></g></g><g class="edgeLabel" transform="translate(641.002197265625, 602)"><g class="label" transform="translate(-66.5390625, -10)"><rect rx="0" ry="0" width="133.01437377929688" height="20.445642471313477"/><text style=""><tspan xml:space="preserve" dy="1em" x="0" class="row">hostname match</tspan></text></g></g><g class="edgeLabel"><g class="label" transform="translate(0, 0)"><rect rx="0" ry="0" width="0" height="0"/><text style=""><tspan xml:space="preserve" dy="1em" x="0" class="row"/></text></g></g><g class="edgeLabel"><g class="label" transform="translate(0, 0)"><rect rx="0" ry="0" width="0" height="0"/><text style=""><tspan xml:space="preserve" dy="1em" x="0" class="row"/></text></g></g><g class="edgeLabel"><g class="label" transform="translate(0, 0)"><rect rx="0" ry="0" width="0" height="0"/><text style=""><tspan xml:space="preserve" dy="1em" x="0" class="row"/></text></g></g><g class="edgeLabel"><g class="label" transform="translate(0, 0)"><rect rx="0" ry="0" width="0" height="0"/><text style=""><tspan xml:space="preserve" dy="1em" x="0" class="row"/></text></g></g><g class="edgeLabel"><g class="label" transform="translate(0, 0)"><rect rx="0" ry="0" width="0" height="0"/><text style=""><tspan xml:space="preserve" dy="1em" x="0" class="row"/></text></g></g><g class="edgeLabel"><g class="label" transform="translate(0, 0)"><rect rx="0" ry="0" width="0" height="0"/><text style=""><tspan xml:space="preserve" dy="1em" x="0" class="row"/></text></g></g><g class="edgeLabel" transform="translate(1075.2998046875, 793)"><g class="label" transform="translate(-39.8515625, -10)"><rect rx="0" ry="0" width="79.66402435302734" height="20.445642471313477"/><text style=""><tspan xml:space="preserve" dy="1em" x="0" class="row">HTTP API</tspan></text></g></g><g class="edgeLabel" transform="translate(1604.67822265625, 959)"><g class="label" transform="translate(-39.8515625, -10)"><rect rx="0" ry="0" width="79.66402435302734" height="20.445642471313477"/><text style=""><tspan xml:space="preserve" dy="1em" x="0" class="row">HTTP API</tspan></text></g></g><g class="edgeLabel" transform="translate(1361.89697265625, 959)"><g class="label" transform="translate(-39.8515625, -10)"><rect rx="0" ry="0" width="79.66402435302734" height="20.445642471313477"/><text style=""><tspan xml:space="preserve" dy="1em" x="0" class="row">HTTP API</tspan></text></g></g><g class="edgeLabel" transform="translate(1665.37353515625, 1100)"><g class="label" transform="translate(-39.8515625, -10)"><rect rx="0" ry="0" width="79.66402435302734" height="20.445642471313477"/><text style=""><tspan xml:space="preserve" dy="1em" x="0" class="row">HTTP API</tspan></text></g></g><g class="edgeLabel" transform="translate(1422.59228515625, 1100)"><g class="label" transform="translate(-39.8515625, -10)"><rect rx="0" ry="0" width="79.66402435302734" height="20.445642471313477"/><text style=""><tspan xml:space="preserve" dy="1em" x="0" class="row">HTTP API</tspan></text></g></g><g class="edgeLabel" transform="translate(1483.28759765625, 959)"><g class="label" transform="translate(-61.5390625, -10)"><rect rx="0" ry="0" width="123.02693939208984" height="20.445642471313477"/><text style=""><tspan xml:space="preserve" dy="1em" x="0" class="row">API automation</tspan></text></g></g><g class="edgeLabel" transform="translate(1726.06884765625, 959)"><g class="label" transform="translate(-61.5390625, -10)"><rect rx="0" ry="0" width="123.02693939208984" height="20.445642471313477"/><text style=""><tspan xml:space="preserve" dy="1em" x="0" class="row">API automation</tspan></text></g></g><g class="edgeLabel" transform="translate(1280.35791015625, 793)"><g class="label" transform="translate(-61.5390625, -10)"><rect rx="0" ry="0" width="123.02693939208984" height="20.445642471313477"/><text style=""><tspan xml:space="preserve" dy="1em" x="0" class="row">API automation</tspan></text></g></g><g class="edgeLabel"><g class="label" transform="translate(0, 0)"><rect rx="0" ry="0" width="0" height="0"/><text style=""><tspan xml:space="preserve" dy="1em" x="0" class="row"/></text></g></g><g class="edgeLabel"><g class="label" transform="translate(0, 0)"><rect rx="0" ry="0" width="0" height="0"/><text style=""><tspan xml:space="preserve" dy="1em" x="0" class="row"/></text></g></g><g class="edgeLabel"><g class="label" transform="translate(0, 0)"><rect rx="0" ry="0" width="0" height="0"/><text style=""><tspan xml:space="preserve" dy="1em" x="0" class="row"/></text></g></g><g class="edgeLabel"><g class="label" transform="translate(0, 0)"><rect rx="0" ry="0" width="0" height="0"/><text style=""><tspan xml:space="preserve" dy="1em" x="0" class="row"/></text></g></g><g class="edgeLabel" transform="translate(2833.61181640625, 1284)"><g class="label" transform="translate(-43.03125, -10)"><rect rx="0" ry="0" width="86.0196533203125" height="20.445642471313477"/><text style=""><tspan xml:space="preserve" dy="1em" x="0" class="row">downloads</tspan></text></g></g><g class="edgeLabel" transform="translate(2953.920654296875, 1100)"><g class="label" transform="translate(-59.52294921875, -10)"><rect rx="0" ry="0" width="118.67505645751953" height="20.445642471313477"/><text style=""><tspan xml:space="preserve" dy="1em" x="0" class="row">import/hardlink</tspan></text></g></g><g class="edgeLabel" transform="translate(3166.013916015625, 1100)"><g class="label" transform="translate(-49.5078125, -10)"><rect rx="0" ry="0" width="99.34030151367188" height="20.445642471313477"/><text style=""><tspan xml:space="preserve" dy="1em" x="0" class="row">library mgmt</tspan></text></g></g><g class="edgeLabel" transform="translate(3245.16650390625, 1432)"><g class="label" transform="translate(-45.0234375, -10)"><rect rx="0" ry="0" width="90.0045394897461" height="20.445642471313477"/><text style=""><tspan xml:space="preserve" dy="1em" x="0" class="row">library read</tspan></text></g></g><g class="edgeLabel" transform="translate(3064.974853515625, 1100)"><g class="label" transform="translate(-31.53125, -10)"><rect rx="0" ry="0" width="63.03512191772461" height="20.445642471313477"/><text style=""><tspan xml:space="preserve" dy="1em" x="0" class="row">cleanup</tspan></text></g></g><g class="edgeLabel" transform="translate(3310.18994140625, 1100)"><g class="label" transform="translate(-31.53125, -10)"><rect rx="0" ry="0" width="63.03512191772461" height="20.445642471313477"/><text style=""><tspan xml:space="preserve" dy="1em" x="0" class="row">cleanup</tspan></text></g></g><g class="edgeLabel"><g class="label" transform="translate(0, 0)"><rect rx="0" ry="0" width="0" height="0"/><text style=""><tspan xml:space="preserve" dy="1em" x="0" class="row"/></text></g></g><g class="edgeLabel"><g class="label" transform="translate(0, 0)"><rect rx="0" ry="0" width="0" height="0"/><text style=""><tspan xml:space="preserve" dy="1em" x="0" class="row"/></text></g></g><g class="edgeLabel"><g class="label" transform="translate(0, 0)"><rect rx="0" ry="0" width="0" height="0"/><text style=""><tspan xml:space="preserve" dy="1em" x="0" class="row"/></text></g></g><g class="edgeLabel"><g class="label" transform="translate(0, 0)"><rect rx="0" ry="0" width="0" height="0"/><text style=""><tspan xml:space="preserve" dy="1em" x="0" class="row"/></text></g></g><g class="edgeLabel"><g class="label" transform="translate(0, 0)"><rect rx="0" ry="0" width="0" height="0"/><text style=""><tspan xml:space="preserve" dy="1em" x="0" class="row"/></text></g></g><g class="edgeLabel"><g class="label" transform="translate(0, 0)"><rect rx="0" ry="0" width="0" height="0"/><text style=""><tspan xml:space="preserve" dy="1em" x="0" class="row"/></text></g></g><g class="edgeLabel"><g class="label" transform="translate(0, 0)"><rect rx="0" ry="0" width="0" height="0"/><text style=""><tspan xml:space="preserve" dy="1em" x="0" class="row"/></text></g></g><g class="edgeLabel" transform="translate(304.76678, 139.17344)"><g class="label" transform="translate(-28.5234375, -10)"><rect rx="0" ry="0" width="57.01576614379883" height="20.445642471313477"/><text style=""><tspan xml:space="preserve" dy="1em" x="0" class="row">applies</tspan></text></g></g><g class="edgeLabel" transform="translate(764.81972, 136.18874)"><g class="label" transform="translate(-28.5234375, -10)"><rect rx="0" ry="0" width="57.01576614379883" height="20.445642471313477"/><text style=""><tspan xml:space="preserve" dy="1em" x="0" class="row">applies</tspan></text></g></g><g class="edgeLabel" transform="translate(133.80688, 522.50704)"><g class="label" transform="translate(-28.5234375, -10)"><rect rx="0" ry="0" width="57.01576614379883" height="20.445642471313477"/><text style=""><tspan xml:space="preserve" dy="1em" x="0" class="row">applies</tspan></text></g></g><g class="edgeLabel" transform="translate(1792.94816, 110.52574)"><g class="label" transform="translate(-28.5234375, -10)"><rect rx="0" ry="0" width="57.01576614379883" height="20.445642471313477"/><text style=""><tspan xml:space="preserve" dy="1em" x="0" class="row">applies</tspan></text></g></g><g class="edgeLabel" transform="translate(2877.41848, 127.08296)"><g class="label" transform="translate(-28.5234375, -10)"><rect rx="0" ry="0" width="57.01576614379883" height="20.445642471313477"/><text style=""><tspan xml:space="preserve" dy="1em" x="0" class="row">applies</tspan></text></g></g><g class="edgeLabel" transform="translate(28.52344, 1054.60413)"><g class="label" transform="translate(-28.5234375, -10)"><rect rx="0" ry="0" width="57.01576614379883" height="20.445642471313477"/><text style=""><tspan xml:space="preserve" dy="1em" x="0" class="row">applies</tspan></text></g></g></g><g class="nodes"><g class="node default default flowchart-label" id="flowchart-IDX-15" data-node="true" data-id="IDX" transform="translate(656.74609375, 1518.5)"><rect class="basic label-container" style="" rx="0" ry="0" x="-109.53125" y="-17.5" width="219.0625" height="35"/><g class="label" style="" transform="translate(0, -10)"><rect/><text style=""><tspan xml:space="preserve" dy="1em" x="0" class="row">Indexers / Trackers / NZB</tspan></text></g></g><g class="node default default flowchart-label" id="flowchart-META-16" data-node="true" data-id="META" transform="translate(1857.60791015625, 1518.5)"><rect class="basic label-container" style="" rx="0" ry="0" x="-118.375" y="-26.5" width="236.75" height="53"/><g class="label" style="" transform="translate(0, -19)"><rect/><text style=""><tspan xml:space="preserve" dy="1em" x="0" class="row">Metadata + Subtitles</tspan><tspan xml:space="preserve" dy="1em" x="0" class="row">TMDB TVDB OpenSubtitles</tspan></text></g></g><g class="node default default flowchart-label" id="flowchart-IPTV-17" data-node="true" data-id="IPTV" transform="translate(2137.16064453125, 1518.5)"><rect class="basic label-container" style="" rx="0" ry="0" x="-90.6171875" y="-17.5" width="181.234375" height="35"/><g class="label" style="" transform="translate(0, -10)"><rect/><text style=""><tspan xml:space="preserve" dy="1em" x="0" class="row">M3U + XMLTV feeds</tspan></text></g></g><g class="node default default flowchart-label" id="flowchart-NTFY-18" data-node="true" data-id="NTFY" transform="translate(2359.81689453125, 1518.5)"><rect class="basic label-container" style="" rx="0" ry="0" x="-82.0390625" y="-17.5" width="164.078125" height="35"/><g class="label" style="" transform="translate(0, -10)"><rect/><text style=""><tspan xml:space="preserve" dy="1em" x="0" class="row">Notification targets</tspan></text></g></g><g class="node default default flowchart-label" id="flowchart-PVC_CFG-12" data-node="true" data-id="PVC_CFG" transform="translate(2686.93994140625, 1518.5)"><rect class="basic label-container" style="" rx="0" ry="0" x="-60.0390625" y="-26.5" width="120.078125" height="53"/><g class="label" style="" transform="translate(0, -19)"><rect/><text style=""><tspan xml:space="preserve" dy="1em" x="0" class="row">Config PVCs</tspan><tspan xml:space="preserve" dy="1em" x="0" class="row">per app state</tspan></text></g></g><g class="node default default flowchart-label" id="flowchart-PVC_DATA-13" data-node="true" data-id="PVC_DATA" transform="translate(2917.30712890625, 1518.5)"><rect class="basic label-container" style="" rx="0" ry="0" x="-120.328125" y="-26.5" width="240.65625" height="53"/><g class="label" style="" transform="translate(0, -19)"><rect/><text style=""><tspan xml:space="preserve" dy="1em" x="0" class="row">Download PVCs</tspan><tspan xml:space="preserve" dy="1em" x="0" class="row">/data/torrents + /data/usenet</tspan></text></g></g><g class="node default default flowchart-label" id="flowchart-PVC_MEDIA-14" data-node="true" data-id="PVC_MEDIA" transform="translate(3222.68212890625, 1518.5)"><rect class="basic label-container" style="" rx="0" ry="0" x="-135.046875" y="-26.5" width="270.09375" height="53"/><g class="label" style="" transform="translate(0, -19)"><rect/><text style=""><tspan xml:space="preserve" dy="1em" x="0" class="row">Media PVC</tspan><tspan xml:space="preserve" dy="1em" x="0" class="row">/media/movies /tv /music /books</tspan></text></g></g><g class="node default default flowchart-label" id="flowchart-P_UI-8" data-node="true" data-id="P_UI" transform="translate(2523.86474609375, 1345.5)"><rect class="basic label-container" style="" rx="0" ry="0" x="-116.056640625" y="-26.5" width="232.11328125" height="53"/><g class="label" style="" transform="translate(0, -19)"><rect/><text style=""><tspan xml:space="preserve" dy="1em" x="0" class="row">UI Pods</tspan><tspan xml:space="preserve" dy="1em" x="0" class="row">homepage jellyfin jellyseerr</tspan></text></g></g><g class="node default default flowchart-label" id="flowchart-P_AUT-9" data-node="true" data-id="P_AUT" transform="translate(1448.3671875, 697.5)"><rect class="basic label-container" style="" rx="0" ry="0" x="-97.03271484375" y="-26.5" width="194.0654296875" height="53"/><g class="label" style="" transform="translate(0, -19)"><rect/><text style=""><tspan xml:space="preserve" dy="1em" x="0" class="row">Automation Pods</tspan><tspan xml:space="preserve" dy="1em" x="0" class="row">arr + bazarr + prowlarr</tspan></text></g></g><g class="node default default flowchart-label" id="flowchart-P_DL-10" data-node="true" data-id="P_DL" transform="translate(2078.43212890625, 1029.5)"><rect class="basic label-container" style="" rx="0" ry="0" x="-125.056640625" y="-35.5" width="250.11328125" height="71"/><g class="label" style="" transform="translate(0, -28)"><rect/><text style=""><tspan xml:space="preserve" dy="1em" x="0" class="row">Downloader Pods</tspan><tspan xml:space="preserve" dy="1em" x="0" class="row">qB sab flaresolverr unpackerr</tspan><tspan xml:space="preserve" dy="1em" x="0" class="row">tautulli maintainerr</tspan></text></g></g><g class="node default default flowchart-label" id="flowchart-P_JOB-11" data-node="true" data-id="P_JOB" transform="translate(1906.873046875, 697.5)"><rect class="basic label-container" style="" rx="0" ry="0" x="-153.078125" y="-26.5" width="306.15625" height="53"/><g class="label" style="" transform="translate(0, -19)"><rect/><text style=""><tspan xml:space="preserve" dy="1em" x="0" class="row">Job/Cron Pods</tspan><tspan xml:space="preserve" dy="1em" x="0" class="row">bootstrap prewarm hygiene indexers</tspan></text></g></g><g class="node default default flowchart-label" id="flowchart-S_UI-5" data-node="true" data-id="S_UI" transform="translate(343.388916015625, 1179.5)"><rect class="basic label-container" style="" rx="0" ry="0" x="-136.578125" y="-44.5" width="273.15625" height="89"/><g class="label" style="" transform="translate(0, -37)"><rect/><text style=""><tspan xml:space="preserve" dy="1em" x="0" class="row">UI/API Services</tspan><tspan xml:space="preserve" dy="1em" x="0" class="row">homepage:3000 jellyfin:8096</tspan><tspan xml:space="preserve" dy="1em" x="0" class="row">jellyseerr:5055 maintainerr:6246</tspan><tspan xml:space="preserve" dy="1em" x="0" class="row">tautulli:8181</tspan></text></g></g><g class="node default default flowchart-label" id="flowchart-S_AUT-6" data-node="true" data-id="S_AUT" transform="translate(713.560791015625, 1179.5)"><rect class="basic label-container" style="" rx="0" ry="0" x="-113.0625" y="-44.5" width="226.125" height="89"/><g class="label" style="" transform="translate(0, -37)"><rect/><text style=""><tspan xml:space="preserve" dy="1em" x="0" class="row">Automation Services</tspan><tspan xml:space="preserve" dy="1em" x="0" class="row">sonarr:8989 radarr:7878</tspan><tspan xml:space="preserve" dy="1em" x="0" class="row">lidarr:8686 readarr:8787</tspan><tspan xml:space="preserve" dy="1em" x="0" class="row">bazarr:6767 prowlarr:9696</tspan></text></g></g><g class="node default default flowchart-label" id="flowchart-S_DL-7" data-node="true" data-id="S_DL" transform="translate(784.779541015625, 888.5)"><rect class="basic label-container" style="" rx="0" ry="0" x="-139.578125" y="-35.5" width="279.15625" height="71"/><g class="label" style="" transform="translate(0, -28)"><rect/><text style=""><tspan xml:space="preserve" dy="1em" x="0" class="row">Download Services</tspan><tspan xml:space="preserve" dy="1em" x="0" class="row">qbittorrent:8080 sabnzbd:8080</tspan><tspan xml:space="preserve" dy="1em" x="0" class="row">flaresolverr:8191 unpackerr:5656</tspan></text></g></g><g class="node default default flowchart-label" id="flowchart-INGR-3" data-node="true" data-id="INGR" transform="translate(641.002197265625, 697.5)"><rect class="basic label-container" style="" rx="0" ry="0" x="-78.53173828125" y="-35.5" width="157.0634765625" height="71"/><g class="label" style="" transform="translate(0, -28)"><rect/><text style=""><tspan xml:space="preserve" dy="1em" x="0" class="row">Ingress Controller</tspan><tspan xml:space="preserve" dy="1em" x="0" class="row">Traefik/NGINX</tspan><tspan xml:space="preserve" dy="1em" x="0" class="row">443/80 entrypoint</tspan></text></g></g><g class="node default default flowchart-label" id="flowchart-HOSTS-4" data-node="true" data-id="HOSTS" transform="translate(641.002197265625, 497.5)"><rect class="basic label-container" style="" rx="0" ry="0" x="-125.0625" y="-44.5" width="250.125" height="89"/><g class="label" style="" transform="translate(0, -37)"><rect/><text style=""><tspan xml:space="preserve" dy="1em" x="0" class="row">Ingress host routes</tspan><tspan xml:space="preserve" dy="1em" x="0" class="row">homepage.local, jellyfin.local,</tspan><tspan xml:space="preserve" dy="1em" x="0" class="row">*jellyseerr/arr/qb/sab*</tspan><tspan xml:space="preserve" dy="1em" x="0" class="row">maintainerr.local, tautulli.local</tspan></text></g></g><g class="node default default flowchart-label" id="flowchart-U-0" data-node="true" data-id="U" transform="translate(306.603759765625, 228.5)"><rect class="basic label-container" style="" rx="0" ry="0" x="-78.703125" y="-26.5" width="157.40625" height="53"/><g class="label" style="" transform="translate(0, -19)"><rect/><text style=""><tspan xml:space="preserve" dy="1em" x="0" class="row">Users</tspan><tspan xml:space="preserve" dy="1em" x="0" class="row">Web / Mobile / TV</tspan></text></g></g><g class="node default default flowchart-label" id="flowchart-DNS-1" data-node="true" data-id="DNS" transform="translate(306.603759765625, 351.5)"><rect class="basic label-container" style="" rx="0" ry="0" x="-117.796875" y="-26.5" width="235.59375" height="53"/><g class="label" style="" transform="translate(0, -19)"><rect/><text style=""><tspan xml:space="preserve" dy="1em" x="0" class="row">LAN DNS + hosts overrides</tspan><tspan xml:space="preserve" dy="1em" x="0" class="row">*.local</tspan></text></g></g><g class="node default default flowchart-label" id="flowchart-FW-2" data-node="true" data-id="FW" transform="translate(306.603759765625, 497.5)"><rect class="basic label-container" style="" rx="0" ry="0" x="-97.85400390625" y="-17.5" width="195.7080078125" height="35"/><g class="label" style="" transform="translate(0, -10)"><rect/><text style=""><tspan xml:space="preserve" dy="1em" x="0" class="row">Router / Firewall / NAT</tspan></text></g></g><g class="node default default flowchart-label" id="flowchart-LEG-19" data-node="true" data-id="LEG" transform="translate(249.087646484375, 53.5)"><rect class="basic label-container" style="" rx="0" ry="0" x="-197.09375" y="-53.5" width="394.1875" height="107"/><g class="label" style="" transform="translate(0, -46)"><rect/><text style=""><tspan xml:space="preserve" dy="1em" x="0" class="row">Legend</tspan><tspan xml:space="preserve" dy="1em" x="0" class="row">Pod IPs are dynamic.</tspan><tspan xml:space="preserve" dy="1em" x="0" class="row">Service DNS and ports are stable.</tspan><tspan xml:space="preserve" dy="1em" x="0" class="row">Scaling changes replicas, not service contracts.</tspan><tspan xml:space="preserve" dy="1em" x="0" class="row">CIDRs shown are examples.</tspan></text></g></g></g></g></g></svg>