<svg id="my-svg" width="100%" xmlns="http://www.w3.org/2000/svg" xmlns:xlink="http://www.w3.org/1999/xlink" style="max-width: 3446.75px; background-color: white;" viewBox="-8 -8 3446.75390625 1586" role="graphics-document document" aria-roledescription="flowchart-v2"><style>#my-svg{font-family:"trebuchet ms",verdana,arial,sans-serif;font-size:18px;fill:#000000;}#my-svg .error-icon{fill:#552222;}#my-svg .error-text{fill:#552222;stroke:#552222;}#my-svg .edge-thickness-normal{stroke-width:2px;}#my-svg .edge-thickness-thick{stroke-width:3.5px;}#my-svg .edge-pattern-solid{stroke-dasharray:0;}#my-svg .edge-pattern-dashed{stroke-dasharray:3;}#my-svg .edge-pattern-dotted{stroke-dasharray:2;}#my-svg .marker{fill:#1f2937;stroke:#1f2937;}#my-svg .marker.cross{stroke:#1f2937;}#my-svg svg{font-family:"trebuchet ms",verdana,arial,sans-serif;font-size:18px;}#my-svg .label{font-family:"trebuchet ms",verdana,arial,sans-serif;color:#000000;}#my-svg .cluster-label text{fill:#333;}#my-svg .cluster-label span,#my-svg p{color:#333;}#my-svg .label text,#my-svg span,#my-svg p{fill:#000000;color:#000000;}#my-svg .node rect,#my-svg .node circle,#my-svg .node ellipse,#my-svg .node polygon,#my-svg .node path{fill:#eee;stroke:#999;stroke-width:1px;}#my-svg .flowchart-label text{text-anchor:middle;}#my-svg .node .katex path{fill:#000;stroke:#000;stroke-width:1px;}#my-svg .node .label{text-align:center;}#my-svg .node.clickable{cursor:pointer;}#my-svg .arrowheadPath{fill:#333333;}#my-svg .edgePath .path{stroke:#1f2937;stroke-width:2.0px;}#my-svg .flowchart-link{stroke:#1f2937;fill:none;}#my-svg .edgeLabel{background-color:white;text-align:center;}#my-svg .edgeLabel rect{opacity:0.5;background-color:white;fill:white;}#my-svg .labelBkg{background-color:rgba(255, 255, 255, 0.5);}#my-svg .cluster rect{fill:#f8fafc;stroke:#334155;stroke-width:1px;}#my-svg .cluster text{fill:#333;}#my-svg .cluster span,#my-svg p{color:#333;}#my-svg div.mermaidTooltip{position:absolute;text-align:center;max-width:200px;padding:2px;font-family:"trebuchet ms",verdana,arial,sans-serif;font-size:12px;background:#fef9c3;border:1px solid #707070;border-radius:2px;pointer-events:none;z-index:100;}#my-svg .flowchartTitleText{text-anchor:middle;font-size:18px;fill:#000000;}#my-svg :root{--mermaid-font-family:"trebuchet ms",verdana,arial,sans-serif;}</style><g><marker id="my-svg_flowchart-pointEnd" class="marker flowchart" viewBox="0 0 10 10" refX="6" refY="5" markerUnits="userSpaceOnUse" markerWidth="12" markerHeight="12" orient="auto"><path d="M 0 0 L 10 5 L 0 10 z" class="arrowMarkerPath" style="stroke-width: 1; stroke-dasharray: 1, 0;"/></marker><marker id="my-svg_flowchart-pointStart" class="marker flowchart" viewBox="0 0 10 10" refX="4.5" refY="5" markerUnits="userSpaceOnUse" markerWidth="12" markerHeight="12" orient="auto"><path d="M 0 5 L 10 10 L 10 0 z" class="arrowMarkerPath" style="stroke-width: 1; stroke-dasharray: 1, 0;"/></marker><marker id="my-svg_flowchart-circleEnd" class="marker flowchart" viewBox="0 0 10 10" refX="11" refY="5" markerUnits="userSpaceOnUse" markerWidth="11" markerHeight="11" orient="auto"><circle cx="5" cy="5" r="5" class="arrowMarkerPath" style="stroke-width: 1; stroke-dasharray: 1, 0;"/></marker><marker id="my-svg_flowchart-circleStart" class="marker flowchart" viewBox="0 0 10 10" refX="-1" refY="5" markerUnits="userSpaceOnUse" markerWidth="11" markerHeight="11" orient="auto"><circle cx="5" cy="5" r="5" class="arrowMarkerPath" style="stroke-width: 1; stroke-dasharray: 1, 0;"/></marker><marker id="my-svg_flowchart-crossEnd" class="marker cross flowchart" viewBox="0 0 11 11" refX="12" refY="5.2" markerUnits="userSpaceOnUse" markerWidth="11" markerHeight="11" orient="auto"><path d="M 1,1 l 9,9 M 10,1 l -9,9" class="arrowMarkerPath" style="stroke-width: 2; stroke-dasharray: 1, 0;"/></marker><marker id="my-svg_flowchart-crossStart" class="marker cross flowchart" viewBox="0 0 11 11" refX="-1" refY="5.2" markerUnits="userSpaceOnUse" markerWidth="11" markerHeight="11" orient="auto"><path d="M 1,1 l 9,9 M 10,1 l -9,9" class="arrowMarkerPath" style="stroke-width: 2; stroke-dasharray: 1, 0;"/></marker><g class="root"><g class="clusters"><g class="cluster default flowchart-label" id="Z5"><rect style="" rx="0" ry="0" x="532.97802734375" y="1467" width="1991.39599609375" height="103"/><g class="cluster-label" transform="translate(1528.676025390625, 1467)"><text style=""><tspan xml:space="preserve" dy="1em" x="0" class="row">Zone 5: External Providers</tspan></text></g></g><g class="cluster default flowchart-label" id="Z4"><rect style="" rx="0" ry="0" x="2544.3740234375" y="1467" width="868.8642578125" height="103"/><g class="cluster-label" transform="translate(2978.80615234375, 1467)"><text style=""><tspan xml:space="preserve" dy="1em" x="0" class="row">Zone 4: Storage/Data Plane (PVC-backed)</tspan></text></g></g><g class="cluster default flowchart-label" id="Z3"><rect style="" rx="0" ry="0" x="989.6123046875" y="637" width="2392.6181640625" height="760"/><g class="cluster-label" transform="translate(2185.92138671875, 637)"><text style=""><tspan xml:space="preserve" dy="1em" x="0" class="row">Zone 3: Pod CIDR (example 10.1.0.0/16)</tspan></text></g></g><g class="cluster default flowchart-label" id="Z2"><rect style="" rx="0" ry="0" x="182.0654296875" y="828" width="787.546875" height="421"/><g class="cluster-label" transform="translate(575.8388671875, 828)"><text style=""><tspan xml:space="preserve" dy="1em" x="0" class="row">Zone 2: Service CIDR (example 10.152.183.0/24)</tspan></text></g></g><g class="cluster default flowchart-label" id="Z1"><rect style="" rx="0" ry="0" x="449.3466796875" y="428" width="422.28125" height="330"/><g class="cluster-label" transform="translate(660.4873046875, 428)"><text style=""><tspan xml:space="preserve" dy="1em" x="0" class="row">Zone 1: Edge Gateway (node IPs, e.g. 192.168.1.60)</tspan></text></g></g><g class="cluster default flowchart-label" id="Z0"><rect style="" rx="0" ry="0" x="123.4912109375" y="177" width="386.734375" height="390"/><g class="cluster-label" transform="translate(316.8583984375, 177)"><text style=""><tspan xml:space="preserve" dy="1em" x="0" class="row">Zone 0: Clients + LAN (example 192.168.1.0/24)</tspan></text></g></g></g><g class="edgePaths"><path d="M316.858,255L316.858,260.833C316.858,266.667,316.858,278.333,316.858,289.117C316.858,299.9,316.858,309.8,316.858,314.75L316.858,319.7" id="L-U-DNS-0" class=" edge-thickness-normal edge-pattern-solid flowchart-link LS-U LE-DNS" style="fill:none;" marker-end="url(#my-svg_flowchart-pointEnd)"/><path d="M316.858,378L316.858,382.167C316.858,386.333,316.858,394.667,316.858,403C316.858,411.333,316.858,419.667,316.858,431.617C316.858,443.567,316.858,459.133,316.858,466.917L316.858,474.7" id="L-DNS-FW-0" class=" edge-thickness-normal edge-pattern-solid flowchart-link LS-DNS LE-FW" style="fill:none;" marker-end="url(#my-svg_flowchart-pointEnd)"/><path d="M316.858,515L316.858,523.667C316.858,532.333,316.858,549.667,353.58,564.167C390.301,578.667,463.744,590.333,500.465,602C537.187,613.667,537.187,625.333,544.262,634.919C551.338,644.506,565.489,652.011,572.565,655.764L579.641,659.517" id="L-FW-INGR-0" class=" edge-thickness-normal edge-pattern-solid flowchart-link LS-FW LE-INGR" style="fill:none;" marker-end="url(#my-svg_flowchart-pointEnd)"/><path d="M651.257,542L651.257,546.167C651.257,550.333,651.257,558.667,651.257,568.667C651.257,578.667,651.257,590.333,651.257,602C651.257,613.667,651.257,625.333,651.257,634.45C651.257,643.567,651.257,650.133,651.257,653.417L651.257,656.7" id="L-HOSTS-INGR-0" class=" edge-thickness-normal edge-pattern-dotted flowchart-link LS-HOSTS LE-INGR" style="fill:none;stroke-width:2px;stroke-dasharray:3;" marker-end="url(#my-svg_flowchart-pointEnd)"/><path d="M615.58,733L611.393,737.167C607.206,741.333,598.831,749.667,544.21,759.667C489.589,769.667,388.722,781.333,338.288,793C287.854,804.667,287.854,816.333,287.854,832.25C287.854,848.167,287.854,868.333,287.854,890.167C287.854,912,287.854,935.5,287.854,959C287.854,982.5,287.854,1006,287.854,1029.5C287.854,1053,287.854,1076.5,292.119,1093.403C296.383,1110.306,304.911,1120.611,309.175,1125.764L313.439,1130.917" id="L-INGR-S_UI-0" class=" edge-thickness-normal edge-pattern-solid flowchart-link LS-INGR LE-S_UI" style="fill:none;" marker-end="url(#my-svg_flowchart-pointEnd)"/><path d="M633.184,733L631.062,737.167C628.941,741.333,624.699,749.667,622.577,759.667C620.456,769.667,620.456,781.333,620.456,793C620.456,804.667,620.456,816.333,620.456,832.25C620.456,848.167,620.456,868.333,620.456,890.167C620.456,912,620.456,935.5,620.456,959C620.456,982.5,620.456,1006,620.456,1029.5C620.456,1053,620.456,1076.5,627.34,1093.545C634.224,1110.59,647.991,1121.179,654.875,1126.474L661.759,1131.769" id="L-INGR-S_AUT-0" class=" edge-thickness-normal edge-pattern-solid flowchart-link LS-INGR LE-S_AUT" style="fill:none;" marker-end="url(#my-svg_flowchart-pointEnd)"/><path d="M698.217,733L703.729,737.167C709.241,741.333,720.264,749.667,725.776,759.667C731.288,769.667,731.288,781.333,731.288,793C731.288,804.667,731.288,816.333,735.038,825.725C738.787,835.117,746.286,842.234,750.036,845.793L753.785,849.351" id="L-INGR-S_DL-0" class=" edge-thickness-normal edge-pattern-solid flowchart-link LS-INGR LE-S_DL" style="fill:none;" marker-end="url(#my-svg_flowchart-pointEnd)"/><path d="M353.644,1224L353.644,1228.167C353.644,1232.333,353.644,1240.667,688.791,1250.667C1023.938,1260.667,1694.232,1272.333,2045.602,1283.714C2396.972,1295.095,2429.418,1306.19,2445.641,1311.738L2461.864,1317.285" id="L-S_UI-P_UI-0" class=" edge-thickness-normal edge-pattern-solid flowchart-link LS-S_UI LE-P_UI" style="fill:none;" marker-end="url(#my-svg_flowchart-pointEnd)"/><path d="M836.878,1171.325L1001.282,1159.437C1165.686,1147.55,1494.493,1123.775,1658.897,1100.137C1823.301,1076.5,1823.301,1053,1823.301,1029.5C1823.301,1006,1823.301,982.5,1823.301,959C1823.301,935.5,1823.301,912,1823.301,890.167C1823.301,868.333,1823.301,848.167,1823.301,832.25C1823.301,816.333,1823.301,804.667,1823.301,793C1823.301,781.333,1823.301,769.667,1781.316,756.661C1739.33,743.656,1655.359,729.312,1613.373,722.14L1571.387,714.968" id="L-S_AUT-P_AUT-0" class=" edge-thickness-normal edge-pattern-solid flowchart-link LS-S_AUT LE-P_AUT" style="fill:none;" marker-end="url(#my-svg_flowchart-pointEnd)"/><path d="M795.034,924L795.034,929.833C795.034,935.667,795.034,947.333,990.627,963.742C1186.22,980.151,1577.406,1001.302,1772.999,1011.877L1968.592,1022.452" id="L-S_DL-P_DL-0" class=" edge-thickness-normal edge-pattern-solid flowchart-link LS-S_DL LE-P_DL" style="fill:none;" marker-end="url(#my-svg_flowchart-pointEnd)"/><path d="M1372.098,712.805L1324.34,720.337C1276.583,727.87,1181.069,742.935,1133.312,756.301C1085.554,769.667,1085.554,781.333,1085.554,793C1085.554,804.667,1085.554,816.333,1061.262,827.225C1036.97,838.118,988.385,848.235,964.093,853.294L939.801,858.353" id="L-P_AUT-S_DL-0" class=" edge-thickness-normal edge-pattern-solid flowchart-link LS-P_AUT LE-S_DL" style="fill:none;" marker-end="url(#my-svg_flowchart-pointEnd)"/><path d="M1535.377,724L1549.542,729.667C1563.708,735.333,1592.04,746.667,1606.206,758.167C1620.372,769.667,1620.372,781.333,1620.372,793C1620.372,804.667,1620.372,816.333,1620.372,832.25C1620.372,848.167,1620.372,868.333,1620.372,890.167C1620.372,912,1620.372,935.5,1620.372,959C1620.372,982.5,1620.372,1006,1620.372,1029.5C1620.372,1053,1620.372,1076.5,1490.669,1099.751C1360.967,1123.002,1101.562,1146.004,971.86,1157.505L842.157,1169.006" id="L-P_AUT-S_AUT-0" class=" edge-thickness-normal edge-pattern-solid flowchart-link LS-P_AUT LE-S_AUT" style="fill:none;" marker-end="url(#my-svg_flowchart-pointEnd)"/><path d="M1429.034,724L1420.46,729.667C1411.886,735.333,1394.738,746.667,1386.164,758.167C1377.59,769.667,1377.59,781.333,1377.59,793C1377.59,804.667,1377.59,816.333,1377.59,832.25C1377.59,848.167,1377.59,868.333,1377.59,890.167C1377.59,912,1377.59,935.5,1377.59,959C1377.59,982.5,1377.59,1006,1377.59,1029.5C1377.59,1053,1377.59,1076.5,1230.576,1099.664C1083.562,1122.829,789.534,1145.657,642.52,1157.071L495.506,1168.486" id="L-P_AUT-S_UI-0" class=" edge-thickness-normal edge-pattern-solid flowchart-link LS-P_AUT LE-S_UI" style="fill:none;" marker-end="url(#my-svg_flowchart-pointEnd)"/><path d="M1973.885,1050.598L1925.082,1058.832C1876.279,1067.066,1778.673,1083.533,1590.052,1103.378C1401.431,1123.224,1121.795,1146.448,981.978,1158.06L842.16,1169.671" id="L-P_DL-S_AUT-0" class=" edge-thickness-normal edge-pattern-solid flowchart-link LS-P_DL LE-S_AUT" style="fill:none;" marker-end="url(#my-svg_flowchart-pointEnd)"/><path d="M1973.885,1042.845L1884.618,1052.371C1795.352,1061.897,1616.819,1080.948,1370.422,1101.991C1124.026,1123.034,809.767,1146.068,652.637,1157.585L495.508,1169.102" id="L-P_DL-S_UI-0" class=" edge-thickness-normal edge-pattern-solid flowchart-link LS-P_DL LE-S_UI" style="fill:none;" marker-end="url(#my-svg_flowchart-pointEnd)"/><path d="M1775.066,719.034L1729.052,725.528C1683.038,732.022,1591.009,745.011,1544.995,757.339C1498.981,769.667,1498.981,781.333,1498.981,793C1498.981,804.667,1498.981,816.333,1498.981,832.25C1498.981,848.167,1498.981,868.333,1498.981,890.167C1498.981,912,1498.981,935.5,1498.981,959C1498.981,982.5,1498.981,1006,1498.981,1029.5C1498.981,1053,1498.981,1076.5,1331.736,1099.859C1164.49,1123.218,830,1146.435,662.754,1158.044L495.509,1169.653" id="L-P_JOB-S_UI-0" class=" edge-thickness-normal edge-pattern-solid flowchart-link LS-P_JOB LE-S_UI" style="fill:none;" marker-end="url(#my-svg_flowchart-pointEnd)"/><path d="M1846.22,724L1828.811,729.667C1811.401,735.333,1776.582,746.667,1759.172,758.167C1741.762,769.667,1741.762,781.333,1741.762,793C1741.762,804.667,1741.762,816.333,1741.762,832.25C1741.762,848.167,1741.762,868.333,1741.762,890.167C1741.762,912,1741.762,935.5,1741.762,959C1741.762,982.5,1741.762,1006,1741.762,1029.5C1741.762,1053,1741.762,1076.5,1591.829,1099.96C1441.895,1123.419,1142.029,1146.838,992.095,1158.548L842.162,1170.257" id="L-P_JOB-S_AUT-0" class=" edge-thickness-normal edge-pattern-solid flowchart-link LS-P_JOB LE-S_AUT" style="fill:none;" marker-end="url(#my-svg_flowchart-pointEnd)"/><path d="M1775.066,712.115L1695.23,719.762C1615.394,727.41,1455.723,742.705,1375.887,756.186C1296.051,769.667,1296.051,781.333,1296.051,793C1296.051,804.667,1296.051,816.333,1236.688,829.335C1177.326,842.337,1058.6,856.673,999.237,863.842L939.874,871.01" id="L-P_JOB-S_DL-0" class=" edge-thickness-normal edge-pattern-solid flowchart-link LS-P_JOB LE-S_DL" style="fill:none;" marker-end="url(#my-svg_flowchart-pointEnd)"/><path d="M2579.117,1372L2584.58,1376.167C2590.043,1380.333,2600.968,1388.667,2606.431,1398.667C2611.894,1408.667,2611.894,1420.333,2611.894,1432C2611.894,1443.667,2611.894,1455.333,2618.847,1464.914C2625.8,1474.495,2639.707,1481.99,2646.661,1485.738L2653.614,1489.485" id="L-P_UI-PVC_CFG-0" class=" edge-thickness-normal edge-pattern-solid flowchart-link LS-P_UI LE-PVC_CFG" style="fill:none;" marker-end="url(#my-svg_flowchart-pointEnd)"/><path d="M1566.163,702.079L1763.651,711.399C1961.139,720.72,2356.114,739.36,2553.602,754.513C2751.09,769.667,2751.09,781.333,2751.09,793C2751.09,804.667,2751.09,816.333,2751.09,832.25C2751.09,848.167,2751.09,868.333,2751.09,890.167C2751.09,912,2751.09,935.5,2751.09,959C2751.09,982.5,2751.09,1006,2751.09,1029.5C2751.09,1053,2751.09,1076.5,2751.09,1101.5C2751.09,1126.5,2751.09,1153,2751.09,1177.833C2751.09,1202.667,2751.09,1225.833,2751.09,1243.25C2751.09,1260.667,2751.09,1272.333,2751.09,1288.417C2751.09,1304.5,2751.09,1325,2751.09,1343.833C2751.09,1362.667,2751.09,1379.833,2751.09,1394.25C2751.09,1408.667,2751.09,1420.333,2751.09,1432C2751.09,1443.667,2751.09,1455.333,2748.13,1464.659C2745.17,1473.986,2739.251,1480.971,2736.291,1484.464L2733.331,1487.957" id="L-P_AUT-PVC_CFG-0" class=" edge-thickness-normal edge-pattern-solid flowchart-link LS-P_AUT LE-PVC_CFG" style="fill:none;" marker-end="url(#my-svg_flowchart-pointEnd)"/><path d="M2223.998,1042.617L2315.18,1052.181C2406.362,1061.745,2588.726,1080.872,2679.908,1103.686C2771.09,1126.5,2771.09,1153,2771.09,1177.833C2771.09,1202.667,2771.09,1225.833,2771.09,1243.25C2771.09,1260.667,2771.09,1272.333,2771.09,1288.417C2771.09,1304.5,2771.09,1325,2771.09,1343.833C2771.09,1362.667,2771.09,1379.833,2771.09,1394.25C2771.09,1408.667,2771.09,1420.333,2771.09,1432C2771.09,1443.667,2771.09,1455.333,2766.628,1464.778C2762.165,1474.222,2753.241,1481.444,2748.779,1485.055L2744.316,1488.666" id="L-P_DL-PVC_CFG-0" class=" edge-thickness-normal edge-pattern-solid flowchart-link LS-P_DL LE-PVC_CFG" style="fill:none;" marker-end="url(#my-svg_flowchart-pointEnd)"/><path d="M2080.207,708.19L2198.687,716.492C2317.168,724.793,2554.129,741.397,2672.609,755.532C2791.09,769.667,2791.09,781.333,2791.09,793C2791.09,804.667,2791.09,816.333,2791.09,832.25C2791.09,848.167,2791.09,868.333,2791.09,890.167C2791.09,912,2791.09,935.5,2791.09,959C2791.09,982.5,2791.09,1006,2791.09,1029.5C2791.09,1053,2791.09,1076.5,2791.09,1101.5C2791.09,1126.5,2791.09,1153,2791.09,1177.833C2791.09,1202.667,2791.09,1225.833,2791.09,1243.25C2791.09,1260.667,2791.09,1272.333,2791.09,1288.417C2791.09,1304.5,2791.09,1325,2791.09,1343.833C2791.09,1362.667,2791.09,1379.833,2791.09,1394.25C2791.09,1408.667,2791.09,1420.333,2791.09,1432C2791.09,1443.667,2791.09,1455.333,2785.075,1464.87C2779.06,1474.407,2767.03,1481.814,2761.016,1485.518L2755.001,1489.221" id="L-P_JOB-PVC_CFG-0" class=" edge-thickness-normal edge-pattern-solid flowchart-link LS-P_JOB LE-PVC_CFG" style="fill:none;" marker-end="url(#my-svg_flowchart-pointEnd)"/><path d="M2223.998,1041.175L2329.019,1050.979C2434.039,1060.783,2644.08,1080.392,2749.101,1103.446C2854.121,1126.5,2854.121,1153,2854.121,1177.833C2854.121,1202.667,2854.121,1225.833,2854.121,1243.25C2854.121,1260.667,2854.121,1272.333,2854.121,1288.417C2854.121,1304.5,2854.121,1325,2854.121,1343.833C2854.121,1362.667,2854.121,1379.833,2854.121,1394.25C2854.121,1408.667,2854.121,1420.333,2854.121,1432C2854.121,1443.667,2854.121,1455.333,2860.14,1464.87C2866.159,1474.407,2878.198,1481.815,2884.217,1485.519L2890.236,1489.222" id="L-P_DL-PVC_DATA-0" class=" edge-thickness-normal edge-pattern-solid flowchart-link LS-P_DL LE-PVC_DATA" style="fill:none;" marker-end="url(#my-svg_flowchart-pointEnd)"/><path d="M1566.163,701.4L1800.874,710.833C2035.585,720.267,2505.008,739.133,2739.719,754.4C2974.43,769.667,2974.43,781.333,2974.43,793C2974.43,804.667,2974.43,816.333,2974.43,832.25C2974.43,848.167,2974.43,868.333,2974.43,890.167C2974.43,912,2974.43,935.5,2974.43,959C2974.43,982.5,2974.43,1006,2974.43,1029.5C2974.43,1053,2974.43,1076.5,2974.43,1101.5C2974.43,1126.5,2974.43,1153,2974.43,1177.833C2974.43,1202.667,2974.43,1225.833,2974.43,1243.25C2974.43,1260.667,2974.43,1272.333,2974.43,1288.417C2974.43,1304.5,2974.43,1325,2974.43,1343.833C2974.43,1362.667,2974.43,1379.833,2974.43,1394.25C2974.43,1408.667,2974.43,1420.333,2974.43,1432C2974.43,1443.667,2974.43,1455.333,2971.98,1464.613C2969.529,1473.893,2964.628,1480.787,2962.178,1484.234L2959.727,1487.68" id="L-P_AUT-PVC_DATA-0" class=" edge-thickness-normal edge-pattern-solid flowchart-link LS-P_AUT LE-PVC_DATA" style="fill:none;" marker-end="url(#my-svg_flowchart-pointEnd)"/><path d="M1566.163,700.918L1836.223,710.432C2106.283,719.946,2646.403,738.973,2916.463,754.32C3186.523,769.667,3186.523,781.333,3186.523,793C3186.523,804.667,3186.523,816.333,3186.523,832.25C3186.523,848.167,3186.523,868.333,3186.523,890.167C3186.523,912,3186.523,935.5,3186.523,959C3186.523,982.5,3186.523,1006,3186.523,1029.5C3186.523,1053,3186.523,1076.5,3186.523,1101.5C3186.523,1126.5,3186.523,1153,3186.523,1177.833C3186.523,1202.667,3186.523,1225.833,3186.523,1243.25C3186.523,1260.667,3186.523,1272.333,3186.523,1288.417C3186.523,1304.5,3186.523,1325,3186.523,1343.833C3186.523,1362.667,3186.523,1379.833,3186.523,1394.25C3186.523,1408.667,3186.523,1420.333,3186.523,1432C3186.523,1443.667,3186.523,1455.333,3190.454,1464.739C3194.385,1474.145,3202.248,1481.29,3206.179,1484.863L3210.11,1488.435" id="L-P_AUT-PVC_MEDIA-0" class=" edge-thickness-normal edge-pattern-solid flowchart-link LS-P_AUT LE-PVC_MEDIA" style="fill:none;" marker-end="url(#my-svg_flowchart-pointEnd)"/><path d="M2660.431,1353.786L2761.305,1360.989C2862.179,1368.191,3063.927,1382.595,3164.802,1395.631C3265.676,1408.667,3265.676,1420.333,3265.676,1432C3265.676,1443.667,3265.676,1455.333,3264.21,1464.524C3262.744,1473.714,3259.813,1480.428,3258.347,1483.786L3256.882,1487.143" id="L-P_UI-PVC_MEDIA-0" class=" edge-thickness-normal edge-pattern-solid flowchart-link LS-P_UI LE-PVC_MEDIA" style="fill:none;" marker-end="url(#my-svg_flowchart-pointEnd)"/><path d="M2080.207,705.472L2247.753,714.227C2415.299,722.981,2750.392,740.491,2917.938,755.079C3085.484,769.667,3085.484,781.333,3085.484,793C3085.484,804.667,3085.484,816.333,3085.484,832.25C3085.484,848.167,3085.484,868.333,3085.484,890.167C3085.484,912,3085.484,935.5,3085.484,959C3085.484,982.5,3085.484,1006,3085.484,1029.5C3085.484,1053,3085.484,1076.5,3085.484,1101.5C3085.484,1126.5,3085.484,1153,3085.484,1177.833C3085.484,1202.667,3085.484,1225.833,3085.484,1243.25C3085.484,1260.667,3085.484,1272.333,3085.484,1288.417C3085.484,1304.5,3085.484,1325,3085.484,1343.833C3085.484,1362.667,3085.484,1379.833,3085.484,1394.25C3085.484,1408.667,3085.484,1420.333,3085.484,1432C3085.484,1443.667,3085.484,1455.333,3074.371,1465.042C3063.258,1474.752,3041.031,1482.503,3029.918,1486.379L3018.805,1490.255" id="L-P_JOB-PVC_DATA-0" class=" edge-thickness-normal edge-pattern-solid flowchart-link LS-P_JOB LE-PVC_DATA" style="fill:none;" marker-end="url(#my-svg_flowchart-pointEnd)"/><path d="M2080.207,704.079L2288.622,713.066C2497.037,722.053,2913.868,740.026,3122.284,754.846C3330.699,769.667,3330.699,781.333,3330.699,793C3330.699,804.667,3330.699,816.333,3330.699,832.25C3330.699,848.167,3330.699,868.333,3330.699,890.167C3330.699,912,3330.699,935.5,3330.699,959C3330.699,982.5,3330.699,1006,3330.699,1029.5C3330.699,1053,3330.699,1076.5,3330.699,1101.5C3330.699,1126.5,3330.699,1153,3330.699,1177.833C3330.699,1202.667,3330.699,1225.833,3330.699,1243.25C3330.699,1260.667,3330.699,1272.333,3330.699,1288.417C3330.699,1304.5,3330.699,1325,3330.699,1343.833C3330.699,1362.667,3330.699,1379.833,3330.699,1394.25C3330.699,1408.667,3330.699,1420.333,3330.699,1432C3330.699,1443.667,3330.699,1455.333,3324.381,1464.885C3318.062,1474.437,3305.425,1481.875,3299.106,1485.593L3292.787,1489.312" id="L-P_JOB-PVC_MEDIA-0" class=" edge-thickness-normal edge-pattern-solid flowchart-link LS-P_JOB LE-PVC_MEDIA" style="fill:none;" marker-end="url(#my-svg_flowchart-pointEnd)"/><path d="M1566.163,713.189L1612.353,720.658C1658.542,728.126,1750.922,743.063,1797.112,756.365C1843.301,769.667,1843.301,781.333,1843.301,793C1843.301,804.667,1843.301,816.333,1843.301,832.25C1843.301,848.167,1843.301,868.333,1843.301,890.167C1843.301,912,1843.301,935.5,1843.301,959C1843.301,982.5,1843.301,1006,1843.301,1029.5C1843.301,1053,1843.301,1076.5,1843.301,1101.5C1843.301,1126.5,1843.301,1153,1843.301,1177.833C1843.301,1202.667,1843.301,1225.833,1843.301,1243.25C1843.301,1260.667,1843.301,1272.333,1843.301,1288.417C1843.301,1304.5,1843.301,1325,1843.301,1343.833C1843.301,1362.667,1843.301,1379.833,1638.625,1394.25C1433.949,1408.667,1024.596,1420.333,819.92,1432C615.244,1443.667,615.244,1455.333,621.414,1466.27C627.585,1477.207,639.926,1487.415,646.096,1492.518L652.267,1497.622" id="L-P_AUT-IDX-0" class=" edge-thickness-normal edge-pattern-solid flowchart-link LS-P_AUT LE-IDX" style="fill:none;" marker-end="url(#my-svg_flowchart-pointEnd)"/><path d="M1566.163,712.213L1616.489,719.845C1666.814,727.476,1767.466,742.738,1817.792,756.202C1868.117,769.667,1868.117,781.333,1868.117,793C1868.117,804.667,1868.117,816.333,1868.117,832.25C1868.117,848.167,1868.117,868.333,1868.117,890.167C1868.117,912,1868.117,935.5,1868.117,959C1868.117,982.5,1868.117,1006,1868.117,1029.5C1868.117,1053,1868.117,1076.5,1868.117,1101.5C1868.117,1126.5,1868.117,1153,1868.117,1177.833C1868.117,1202.667,1868.117,1225.833,1868.117,1243.25C1868.117,1260.667,1868.117,1272.333,1868.117,1288.417C1868.117,1304.5,1868.117,1325,1868.117,1343.833C1868.117,1362.667,1868.117,1379.833,1868.117,1394.25C1868.117,1408.667,1868.117,1420.333,1868.117,1432C1868.117,1443.667,1868.117,1455.333,1868.758,1464.466C1869.399,1473.599,1870.68,1480.198,1871.321,1483.498L1871.961,1486.797" id="L-P_AUT-META-0" class=" edge-thickness-normal edge-pattern-solid flowchart-link LS-P_AUT LE-META" style="fill:none;" marker-end="url(#my-svg_flowchart-pointEnd)"/><path d="M2428.317,1356.432L2356.533,1363.193C2284.749,1369.954,2141.181,1383.477,2069.397,1396.072C1997.613,1408.667,1997.613,1420.333,1997.613,1432C1997.613,1443.667,1997.613,1455.333,1988.757,1464.984C1979.9,1474.634,1962.186,1482.268,1953.329,1486.085L1944.473,1489.902" id="L-P_UI-META-0" class=" edge-thickness-normal edge-pattern-solid flowchart-link LS-P_UI LE-META" style="fill:none;" marker-end="url(#my-svg_flowchart-pointEnd)"/><path d="M2428.317,1356.847L2359.867,1363.539C2291.416,1370.231,2154.515,1383.616,2086.064,1396.141C2017.613,1408.667,2017.613,1420.333,2017.613,1432C2017.613,1443.667,2017.613,1455.333,2032.195,1466.528C2046.777,1477.724,2075.94,1488.447,2090.522,1493.809L2105.103,1499.171" id="L-P_UI-IPTV-0" class=" edge-thickness-normal edge-pattern-solid flowchart-link LS-P_UI LE-IPTV" style="fill:none;" marker-end="url(#my-svg_flowchart-pointEnd)"/><path d="M2072.778,724L2103.815,729.667C2134.851,735.333,2196.925,746.667,2227.961,758.167C2258.998,769.667,2258.998,781.333,2258.998,793C2258.998,804.667,2258.998,816.333,2258.998,832.25C2258.998,848.167,2258.998,868.333,2258.998,890.167C2258.998,912,2258.998,935.5,2258.998,959C2258.998,982.5,2258.998,1006,2258.998,1029.5C2258.998,1053,2258.998,1076.5,2258.998,1101.5C2258.998,1126.5,2258.998,1153,2258.998,1177.833C2258.998,1202.667,2258.998,1225.833,2258.998,1243.25C2258.998,1260.667,2258.998,1272.333,2258.998,1288.417C2258.998,1304.5,2258.998,1325,2258.998,1343.833C2258.998,1362.667,2258.998,1379.833,2258.998,1394.25C2258.998,1408.667,2258.998,1420.333,2258.998,1432C2258.998,1443.667,2258.998,1455.333,2248.636,1466.433C2238.274,1477.533,2217.55,1488.066,2207.188,1493.332L2196.827,1498.599" id="L-P_JOB-IPTV-0" class=" edge-thickness-normal edge-pattern-solid flowchart-link LS-P_JOB LE-IPTV" style="fill:none;" marker-end="url(#my-svg_flowchart-pointEnd)"/><path d="M2080.207,723.771L2113.338,729.476C2146.47,735.18,2212.734,746.59,2245.866,758.128C2278.998,769.667,2278.998,781.333,2278.998,793C2278.998,804.667,2278.998,816.333,2278.998,832.25C2278.998,848.167,2278.998,868.333,2278.998,890.167C2278.998,912,2278.998,935.5,2278.998,959C2278.998,982.5,2278.998,1006,2278.998,1029.5C2278.998,1053,2278.998,1076.5,2278.998,1101.5C2278.998,1126.5,2278.998,1153,2278.998,1177.833C2278.998,1202.667,2278.998,1225.833,2278.998,1243.25C2278.998,1260.667,2278.998,1272.333,2278.998,1288.417C2278.998,1304.5,2278.998,1325,2278.998,1343.833C2278.998,1362.667,2278.998,1379.833,2278.998,1394.25C2278.998,1408.667,2278.998,1420.333,2278.998,1432C2278.998,1443.667,2278.998,1455.333,2289.36,1466.433C2299.722,1477.533,2320.446,1488.066,2330.808,1493.332L2341.17,1498.599" id="L-P_JOB-NTFY-0" class=" edge-thickness-normal edge-pattern-solid flowchart-link LS-P_JOB LE-NTFY" style="fill:none;" marker-end="url(#my-svg_flowchart-pointEnd)"/><path d="M2498.825,1372L2491.663,1376.167C2484.502,1380.333,2470.178,1388.667,2463.016,1398.667C2455.854,1408.667,2455.854,1420.333,2455.854,1432C2455.854,1443.667,2455.854,1455.333,2448.274,1466.336C2440.693,1477.338,2425.532,1487.676,2417.951,1492.845L2410.37,1498.014" id="L-P_UI-NTFY-0" class=" edge-thickness-normal edge-pattern-solid flowchart-link LS-P_UI LE-NTFY" style="fill:none;" marker-end="url(#my-svg_flowchart-pointEnd)"/><path d="M294.212,107L297.987,112.833C301.761,118.667,309.31,130.333,313.084,142C316.858,153.667,316.858,165.333,316.858,171.167L316.858,177" id="L-LEG-Z0-0" class=" edge-thickness-normal edge-pattern-dotted flowchart-link LS-LEG LE-Z0" style="fill:none;stroke-width:2px;stroke-dasharray:3;"/><path d="M456.69,85.115L515.795,94.596C574.9,104.077,693.11,123.038,752.214,138.353C811.319,153.667,811.319,165.333,811.319,179.75C811.319,194.167,811.319,211.333,811.319,230.167C811.319,249,811.319,269.5,811.319,290C811.319,310.5,811.319,331,811.319,349.833C811.319,368.667,811.319,385.833,811.319,398.583C811.319,411.333,811.319,419.667,811.319,423.833L811.319,428" id="L-LEG-Z1-0" class=" edge-thickness-normal edge-pattern-dotted flowchart-link LS-LEG LE-Z1" style="fill:none;stroke-width:2px;stroke-dasharray:3;"/><path d="M189.753,107L182.138,112.833C174.523,118.667,159.292,130.333,151.677,142C144.062,153.667,144.062,165.333,144.062,179.75C144.062,194.167,144.062,211.333,144.062,230.167C144.062,249,144.062,269.5,144.062,290C144.062,310.5,144.062,331,144.062,349.833C144.062,368.667,144.062,385.833,144.062,398.583C144.062,411.333,144.062,419.667,144.062,435.417C144.062,451.167,144.062,474.333,144.062,497.5C144.062,520.667,144.062,543.833,144.062,561.25C144.062,578.667,144.062,590.333,144.062,602C144.062,613.667,144.062,625.333,144.062,641.25C144.062,657.167,144.062,677.333,144.062,697.5C144.062,717.667,144.062,737.833,171.36,753.75C198.659,769.667,253.257,781.333,280.556,793C307.854,804.667,307.854,816.333,307.854,822.167L307.854,828" id="L-LEG-Z2-0" class=" edge-thickness-normal edge-pattern-dotted flowchart-link LS-LEG LE-Z2" style="fill:none;stroke-width:2px;stroke-dasharray:3;"/><path d="M456.69,60.75L824.835,74.292C1192.98,87.833,1929.271,114.917,2297.416,134.292C2665.562,153.667,2665.562,165.333,2665.562,179.75C2665.562,194.167,2665.562,211.333,2665.562,230.167C2665.562,249,2665.562,269.5,2665.562,290C2665.562,310.5,2665.562,331,2665.562,349.833C2665.562,368.667,2665.562,385.833,2665.562,398.583C2665.562,411.333,2665.562,419.667,2665.562,435.417C2665.562,451.167,2665.562,474.333,2665.562,497.5C2665.562,520.667,2665.562,543.833,2665.562,561.25C2665.562,578.667,2665.562,590.333,2665.562,602C2665.562,613.667,2665.562,625.333,2665.562,631.167L2665.562,637" id="L-LEG-Z3-0" class=" edge-thickness-normal edge-pattern-dotted flowchart-link LS-LEG LE-Z3" style="fill:none;stroke-width:2px;stroke-dasharray:3;"/><path d="M456.69,59L952.367,72.834C1448.045,86.667,2439.399,114.333,2935.077,134C3430.754,153.667,3430.754,165.333,3430.754,179.75C3430.754,194.167,3430.754,211.333,3430.754,230.167C3430.754,249,3430.754,269.5,3430.754,290C3430.754,310.5,3430.754,331,3430.754,349.833C3430.754,368.667,3430.754,385.833,3430.754,398.583C3430.754,411.333,3430.754,419.667,3430.754,435.417C3430.754,451.167,3430.754,474.333,3430.754,497.5C3430.754,520.667,3430.754,543.833,3430.754,561.25C3430.754,578.667,3430.754,590.333,3430.754,602C3430.754,613.667,3430.754,625.333,3430.754,641.25C3430.754,657.167,3430.754,677.333,3430.754,697.5C3430.754,717.667,3430.754,737.833,3430.754,753.75C3430.754,769.667,3430.754,781.333,3430.754,793C3430.754,804.667,3430.754,816.333,3430.754,832.25C3430.754,848.167,3430.754,868.333,3430.754,890.167C3430.754,912,3430.754,935.5,3430.754,959C3430.754,982.5,3430.754,1006,3430.754,1029.5C3430.754,1053,3430.754,1076.5,3430.754,1101.5C3430.754,1126.5,3430.754,1153,3430.754,1177.833C3430.754,1202.667,3430.754,1225.833,3430.754,1243.25C3430.754,1260.667,3430.754,1272.333,3430.754,1288.417C3430.754,1304.5,3430.754,1325,3430.754,1343.833C3430.754,1362.667,3430.754,1379.833,3329.396,1394.25C3228.038,1408.667,3025.322,1420.333,2923.964,1432C2822.605,1443.667,2822.605,1455.333,2822.605,1461.167L2822.605,1467" id="L-LEG-Z4-0" class=" edge-thickness-normal edge-pattern-dotted flowchart-link LS-LEG LE-Z4" style="fill:none;stroke-width:2px;stroke-dasharray:3;"/><path d="M119.908,107L104.677,112.833C89.447,118.667,58.985,130.333,43.754,142C28.523,153.667,28.523,165.333,28.523,179.75C28.523,194.167,28.523,211.333,28.523,230.167C28.523,249,28.523,269.5,28.523,290C28.523,310.5,28.523,331,28.523,349.833C28.523,368.667,28.523,385.833,28.523,398.583C28.523,411.333,28.523,419.667,28.523,435.417C28.523,451.167,28.523,474.333,28.523,497.5C28.523,520.667,28.523,543.833,28.523,561.25C28.523,578.667,28.523,590.333,28.523,602C28.523,613.667,28.523,625.333,28.523,641.25C28.523,657.167,28.523,677.333,28.523,697.5C28.523,717.667,28.523,737.833,28.523,753.75C28.523,769.667,28.523,781.333,28.523,793C28.523,804.667,28.523,816.333,28.523,832.25C28.523,848.167,28.523,868.333,28.523,890.167C28.523,912,28.523,935.5,28.523,959C28.523,982.5,28.523,1006,28.523,1029.5C28.523,1053,28.523,1076.5,28.523,1101.5C28.523,1126.5,28.523,1153,28.523,1177.833C28.523,1202.667,28.523,1225.833,28.523,1243.25C28.523,1260.667,28.523,1272.333,28.523,1288.417C28.523,1304.5,28.523,1325,28.523,1343.833C28.523,1362.667,28.523,1379.833,136.688,1394.25C244.852,1408.667,461.181,1420.333,569.345,1432C677.509,1443.667,677.509,1455.333,677.509,1461.167L677.509,1467" id="L-LEG-Z5-0" class=" edge-thickness-normal edge-pattern-dotted flowchart-link LS-LEG LE-Z5" style="fill:none;stroke-width:2px;stroke-dasharray:3;"/></g><g class="edgeLabels"><g class="edgeLabel" transform="translate(316.8583984375, 290)"><g class="label" transform="translate(-29.5078125, -10)"><rect rx="0" ry="0" width="59.56016540527344" height="18.938491821289062"/><text style=""><tspan xml:space="preserve" dy="1em" x="0" class="row">HTTPS</tspan></text></g></g><g class="edgeLabel"><g class="label" transform="translate(0, 0)"><rect rx="0" ry="0" width="0" height="0"/><text style=""><tspan xml:space="preserve" dy="1em" x="0" class="row"/></text></g></g><g class="edgeLabel" transform="translate(537.1865234375, 602)"><g class="label" transform="translate(-27.53125, -10)"><rect rx="0" ry="0" width="54.99067306518555" height="18.938491821289062"/><text style=""><tspan xml:space="preserve" dy="1em" x="0" class="row">443/80</tspan></text></g></g><g class="edgeLabel" transform="translate(651.2568359375, 602)"><g class="label" transform="translate(-66.5390625, -10)"><rect rx="0" ry="0" width="132.9146728515625" height="18.938491821289062"/><text style=""><tspan xml:space="preserve" dy="1em" x="0" class="row">hostname match</tspan></text></g></g><g class="edgeLabel"><g class="label" transform="translate(0, 0)"><rect rx="0" ry="0" width="0" height="0"/><text style=""><tspan xml:space="preserve" dy="1em" x="0" class="row"/></text></g></g><g class="edgeLabel"><g class="label" transform="translate(0, 0)"><rect rx="0" ry="0" width="0" height="0"/><text style=""><tspan xml:space="preserve" dy="1em" x="0" class="row"/></text></g></g><g class="edgeLabel"><g class="label" transform="translate(0, 0)"><rect rx="0" ry="0" width="0" height="0"/><text style=""><tspan xml:space="preserve" dy="1em" x="0" class="row"/></text></g></g><g class="edgeLabel"><g class="label" transform="translate(0, 0)"><rect rx="0" ry="0" width="0" height="0"/><text style=""><tspan xml:space="preserve" dy="1em" x="0" class="row"/></text></g></g><g class="edgeLabel"><g class="label" transform="translate(0, 0)"><rect rx="0" ry="0" width="0" height="0"/><text style=""><tspan xml:space="preserve" dy="1em" x="0" class="row"/></text></g></g><g class="edgeLabel"><g class="label" transform="translate(0, 0)"><rect rx="0" ry="0" width="0" height="0"/><text style=""><tspan xml:space="preserve" dy="1em" x="0" class="row"/></text></g></g><g class="edgeLabel" transform="translate(1085.554443359375, 793)"><g class="label" transform="translate(-39.8515625, -10)"><rect rx="0" ry="0" width="79.60084533691406" height="18.938491821289062"/><text style=""><tspan xml:space="preserve" dy="1em" x="0" class="row">HTTP API</tspan></text></g></g><g class="edgeLabel" transform="translate(1620.37158203125, 959)"><g class="label" transform="translate(-39.8515625, -10)"><rect rx="0" ry="0" width="79.60084533691406" height="18.938491821289062"/><text style=""><tspan xml:space="preserve" dy="1em" x="0" class="row">HTTP API</tspan></text></g></g><g class="edgeLabel" transform="translate(1377.59033203125, 959)"><g class="label" transform="translate(-39.8515625, -10)"><rect rx="0" ry="0" width="79.60084533691406" height="18.938491821289062"/><text style=""><tspan xml:space="preserve" dy="1em" x="0" class="row">HTTP API</tspan></text></g></g><g class="edgeLabel" transform="translate(1681.06689453125, 1100)"><g class="label" transform="translate(-39.8515625, -10)"><rect rx="0" ry="0" width="79.60084533691406" height="18.938491821289062"/><text style=""><tspan xml:space="preserve" dy="1em" x="0" class="row">HTTP API</tspan></text></g></g><g class="edgeLabel" transform="translate(1438.28564453125, 1100)"><g class="label" transform="translate(-39.8515625, -10)"><rect rx="0" ry="0" width="79.60084533691406" height="18.938491821289062"/><text style=""><tspan xml:space="preserve" dy="1em" x="0" class="row">HTTP API</tspan></text></g></g><g class="edgeLabel" transform="translate(1498.98095703125, 959)"><g class="label" transform="translate(-61.5390625, -10)"><rect rx="0" ry="0" width="122.92757415771484" height="18.938491821289062"/><text style=""><tspan xml:space="preserve" dy="1em" x="0" class="row">API automation</tspan></text></g></g><g class="edgeLabel" transform="translate(1741.76220703125, 959)"><g class="label" transform="translate(-61.5390625, -10)"><rect rx="0" ry="0" width="122.92757415771484" height="18.938491821289062"/><text style=""><tspan xml:space="preserve" dy="1em" x="0" class="row">API automation</tspan></text></g></g><g class="edgeLabel" transform="translate(1296.05126953125, 793)"><g class="label" transform="translate(-61.5390625, -10)"><rect rx="0" ry="0" width="122.92757415771484" height="18.938491821289062"/><text style=""><tspan xml:space="preserve" dy="1em" x="0" class="row">API automation</tspan></text></g></g><g class="edgeLabel"><g class="label" transform="translate(0, 0)"><rect rx="0" ry="0" width="0" height="0"/><text style=""><tspan xml:space="preserve" dy="1em" x="0" class="row"/></text></g></g><g class="edgeLabel"><g class="label" transform="translate(0, 0)"><rect rx="0" ry="0" width="0" height="0"/><text style=""><tspan xml:space="preserve" dy="1em" x="0" class="row"/></text></g></g><g class="edgeLabel"><g class="label" transform="translate(0, 0)"><rect rx="0" ry="0" width="0" height="0"/><text style=""><tspan xml:space="preserve" dy="1em" x="0" class="row"/></text></g></g><g class="edgeLabel"><g class="label" transform="translate(0, 0)"><rect rx="0" ry="0" width="0" height="0"/><text style=""><tspan xml:space="preserve" dy="1em" x="0" class="row"/></text></g></g><g class="edgeLabel" transform="translate(2854.12109375, 1284)"><g class="label" transform="translate(-43.03125, -10)"><rect rx="0" ry="0" width="86.4323959350586" height="18.938491821289062"/><text style=""><tspan xml:space="preserve" dy="1em" x="0" class="row">downloads</tspan></text></g></g><g class="edgeLabel" transform="translate(2974.429931640625, 1100)"><g class="label" transform="translate(-59.52294921875, -10)"><rect rx="0" ry="0" width="118.37454986572266" height="18.938491821289062"/><text style=""><tspan xml:space="preserve" dy="1em" x="0" class="row">import/hardlink</tspan></text></g></g><g class="edgeLabel" transform="translate(3186.523193359375, 1100)"><g class="label" transform="translate(-49.5078125, -10)"><rect rx="0" ry="0" width="100.19940185546875" height="18.938491821289062"/><text style=""><tspan xml:space="preserve" dy="1em" x="0" class="row">library mgmt</tspan></text></g></g><g class="edgeLabel" transform="translate(3265.67578125, 1432)"><g class="label" transform="translate(-45.0234375, -10)"><rect rx="0" ry="0" width="89.93317413330078" height="18.938491821289062"/><text style=""><tspan xml:space="preserve" dy="1em" x="0" class="row">library read</tspan></text></g></g><g class="edgeLabel" transform="translate(3085.484130859375, 1100)"><g class="label" transform="translate(-31.53125, -10)"><rect rx="0" ry="0" width="62.9803466796875" height="18.938491821289062"/><text style=""><tspan xml:space="preserve" dy="1em" x="0" class="row">cleanup</tspan></text></g></g><g class="edgeLabel" transform="translate(3330.69921875, 1100)"><g class="label" transform="translate(-31.53125, -10)"><rect rx="0" ry="0" width="62.9803466796875" height="18.938491821289062"/><text style=""><tspan xml:space="preserve" dy="1em" x="0" class="row">cleanup</tspan></text></g></g><g class="edgeLabel"><g class="label" transform="translate(0, 0)"><rect rx="0" ry="0" width="0" height="0"/><text style=""><tspan xml:space="preserve" dy="1em" x="0" class="row"/></text></g></g><g class="edgeLabel"><g class="label" transform="translate(0, 0)"><rect rx="0" ry="0" width="0" height="0"/><text style=""><tspan xml:space="preserve" dy="1em" x="0" class="row"/></text></g></g><g class="edgeLabel"><g class="label" transform="translate(0, 0)"><rect rx="0" ry="0" width="0" height="0"/><text style=""><tspan xml:space="preserve" dy="1em" x="0" class="row"/></text></g></g><g class="edgeLabel"><g class="label" transform="translate(0, 0)"><rect rx="0" ry="0" width="0" height="0"/><text style=""><tspan xml:space="preserve" dy="1em" x="0" class="row"/></text></g></g><g class="edgeLabel"><g class="label" transform="translate(0, 0)"><rect rx="0" ry="0" width="0" height="0"/><text style=""><tspan xml:space="preserve" dy="1em" x="0" class="row"/></text></g></g><g class="edgeLabel"><g class="label" transform="translate(0, 0)"><rect rx="0" ry="0" width="0" height="0"/><text style=""><tspan xml:space="preserve" dy="1em" x="0" class="row"/></text></g></g><g class="edgeLabel"><g class="label" transform="translate(0, 0)"><rect rx="0" ry="0" width="0" height="0"/><text style=""><tspan xml:space="preserve" dy="1em" x="0" class="row"/></text></g></g><g class="edgeLabel" transform="translate(315.04197, 139.19267)"><g class="label" transform="translate(-28.5234375, -10)"><rect rx="0" ry="0" width="57.44833755493164" height="18.938491821289062"/><text style=""><tspan xml:space="preserve" dy="1em" x="0" class="row">applies</tspan></text></g></g><g class="edgeLabel" transform="translate(775.19968, 136.20617)"><g class="label" transform="translate(-28.5234375, -10)"><rect rx="0" ry="0" width="57.44833755493164" height="18.938491821289062"/><text style=""><tspan xml:space="preserve" dy="1em" x="0" class="row">applies</tspan></text></g></g><g class="edgeLabel" transform="translate(144.06152, 522.4672)"><g class="label" transform="translate(-28.5234375, -10)"><rect rx="0" ry="0" width="57.44833755493164" height="18.938491821289062"/><text style=""><tspan xml:space="preserve" dy="1em" x="0" class="row">applies</tspan></text></g></g><g class="edgeLabel" transform="translate(1808.45846, 110.47269)"><g class="label" transform="translate(-28.5234375, -10)"><rect rx="0" ry="0" width="57.44833755493164" height="18.938491821289062"/><text style=""><tspan xml:space="preserve" dy="1em" x="0" class="row">applies</tspan></text></g></g><g class="edgeLabel" transform="translate(2892.92973, 126.99052)"><g class="label" transform="translate(-28.5234375, -10)"><rect rx="0" ry="0" width="57.44833755493164" height="18.938491821289062"/><text style=""><tspan xml:space="preserve" dy="1em" x="0" class="row">applies</tspan></text></g></g><g class="edgeLabel" transform="translate(28.52344, 1063.03553)"><g class="label" transform="translate(-28.5234375, -10)"><rect rx="0" ry="0" width="57.44833755493164" height="18.938491821289062"/><text style=""><tspan xml:space="preserve" dy="1em" x="0" class="row">applies</tspan></text></g></g></g><g class="nodes"><g class="node default default flowchart-label" id="flowchart-IDX-15" data-node="true" data-id="IDX" transform="translate(677.50927734375, 1518.5)"><rect class="basic label-container" style="" rx="0" ry="0" x="-109.53125" y="-17.5" width="219.0625" height="35"/><g class="label" style="" transform="translate(0, -10)"><rect/><text style=""><tspan xml:space="preserve" dy="1em" x="0" class="row">Indexers / Trackers / NZB</tspan></text></g></g><g class="node default default flowchart-label" id="flowchart-META-16" data-node="true" data-id="META" transform="translate(1878.1171875, 1518.5)"><rect class="basic label-container" style="" rx="0" ry="0" x="-118.375" y="-26.5" width="236.75" height="53"/><g class="label" style="" transform="translate(0, -19)"><rect/><text style=""><tspan xml:space="preserve" dy="1em" x="0" class="row">Metadata + Subtitles</tspan><tspan xml:space="preserve" dy="1em" x="0" class="row">TMDB TVDB OpenSubtitles</tspan></text></g></g><g class="node default default flowchart-label" id="flowchart-IPTV-17" data-node="true" data-id="IPTV" transform="translate(2157.669921875, 1518.5)"><rect class="basic label-container" style="" rx="0" ry="0" x="-90.6171875" y="-17.5" width="181.234375" height="35"/><g class="label" style="" transform="translate(0, -10)"><rect/><text style=""><tspan xml:space="preserve" dy="1em" x="0" class="row">M3U + XMLTV feeds</tspan></text></g></g><g class="node default default flowchart-label" id="flowchart-NTFY-18" data-node="true" data-id="NTFY" transform="translate(2380.326171875, 1518.5)"><rect class="basic label-container" style="" rx="0" ry="0" x="-82.0390625" y="-17.5" width="164.078125" height="35"/><g class="label" style="" transform="translate(0, -10)"><rect/><text style=""><tspan xml:space="preserve" dy="1em" x="0" class="row">Notification targets</tspan></text></g></g><g class="node default default flowchart-label" id="flowchart-PVC_CFG-12" data-node="true" data-id="PVC_CFG" transform="translate(2707.44921875, 1518.5)"><rect class="basic label-container" style="" rx="0" ry="0" x="-60.0390625" y="-26.5" width="120.078125" height="53"/><g class="label" style="" transform="translate(0, -19)"><rect/><text style=""><tspan xml:space="preserve" dy="1em" x="0" class="row">Config PVCs</tspan><tspan xml:space="preserve" dy="1em" x="0" class="row">per app state</tspan></text></g></g><g class="node default default flowchart-label" id="flowchart-PVC_DATA-13" data-node="true" data-id="PVC_DATA" transform="translate(2937.81640625, 1518.5)"><rect class="basic label-container" style="" rx="0" ry="0" x="-120.328125" y="-26.5" width="240.65625" height="53"/><g class="label" style="" transform="translate(0, -19)"><rect/><text style=""><tspan xml:space="preserve" dy="1em" x="0" class="row">Download PVCs</tspan><tspan xml:space="preserve" dy="1em" x="0" class="row">/data/torrents + /data/usenet</tspan></text></g></g><g class="node default default flowchart-label" id="flowchart-PVC_MEDIA-14" data-node="true" data-id="PVC_MEDIA" transform="translate(3243.19140625, 1518.5)"><rect class="basic label-container" style="" rx="0" ry="0" x="-135.046875" y="-26.5" width="270.09375" height="53"/><g class="label" style="" transform="translate(0, -19)"><rect/><text style=""><tspan xml:space="preserve" dy="1em" x="0" class="row">Media PVC</tspan><tspan xml:space="preserve" dy="1em" x="0" class="row">/media/movies /tv /music /books</tspan></text></g></g><g class="node default default flowchart-label" id="flowchart-P_UI-8" data-node="true" data-id="P_UI" transform="translate(2544.3740234375, 1345.5)"><rect class="basic label-container" style="" rx="0" ry="0" x="-116.056640625" y="-26.5" width="232.11328125" height="53"/><g class="label" style="" transform="translate(0, -19)"><rect/><text style=""><tspan xml:space="preserve" dy="1em" x="0" class="row">UI Pods</tspan><tspan xml:space="preserve" dy="1em" x="0" class="row">homepage jellyfin jellyseerr</tspan></text></g></g><g class="node default default flowchart-label" id="flowchart-P_AUT-9" data-node="true" data-id="P_AUT" transform="translate(1469.13037109375, 697.5)"><rect class="basic label-container" style="" rx="0" ry="0" x="-97.03271484375" y="-26.5" width="194.0654296875" height="53"/><g class="label" style="" transform="translate(0, -19)"><rect/><text style=""><tspan xml:space="preserve" dy="1em" x="0" class="row">Automation Pods</tspan><tspan xml:space="preserve" dy="1em" x="0" class="row">arr + bazarr + prowlarr</tspan></text></g></g><g class="node default default flowchart-label" id="flowchart-P_DL-10" data-node="true" data-id="P_DL" transform="translate(2098.94140625, 1029.5)"><rect class="basic label-container" style="" rx="0" ry="0" x="-125.056640625" y="-35.5" width="250.11328125" height="71"/><g class="label" style="" transform="translate(0, -28)"><rect/><text style=""><tspan xml:space="preserve" dy="1em" x="0" class="row">Downloader Pods</tspan><tspan xml:space="preserve" dy="1em" x="0" class="row">qB sab flaresolverr unpackerr</tspan><tspan xml:space="preserve" dy="1em" x="0" class="row">tautulli maintainerr</tspan></text></g></g><g class="node default default flowchart-label" id="flowchart-P_JOB-11" data-node="true" data-id="P_JOB" transform="translate(1927.63623046875, 697.5)"><rect class="basic label-container" style="" rx="0" ry="0" x="-152.5703125" y="-26.5" width="305.140625" height="53"/><g class="label" style="" transform="translate(0, -19)"><rect/><text style=""><tspan xml:space="preserve" dy="1em" x="0" class="row">Controller + Job Pods</tspan><tspan xml:space="preserve" dy="1em" x="0" class="row">controller prewarm hygiene indexers</tspan></text></g></g><g class="node default default flowchart-label" id="flowchart-S_UI-5" data-node="true" data-id="S_UI" transform="translate(353.6435546875, 1179.5)"><rect class="basic label-container" style="" rx="0" ry="0" x="-136.578125" y="-44.5" width="273.15625" height="89"/><g class="label" style="" transform="translate(0, -37)"><rect/><text style=""><tspan xml:space="preserve" dy="1em" x="0" class="row">UI/API Services</tspan><tspan xml:space="preserve" dy="1em" x="0" class="row">homepage:3000 jellyfin:8096</tspan><tspan xml:space="preserve" dy="1em" x="0" class="row">jellyseerr:5055 maintainerr:6246</tspan><tspan xml:space="preserve" dy="1em" x="0" class="row">tautulli:8181</tspan></text></g></g><g class="node default default flowchart-label" id="flowchart-S_AUT-6" data-node="true" data-id="S_AUT" transform="translate(723.8154296875, 1179.5)"><rect class="basic label-container" style="" rx="0" ry="0" x="-113.0625" y="-44.5" width="226.125" height="89"/><g class="label" style="" transform="translate(0, -37)"><rect/><text style=""><tspan xml:space="preserve" dy="1em" x="0" class="row">Automation Services</tspan><tspan xml:space="preserve" dy="1em" x="0" class="row">sonarr:8989 radarr:7878</tspan><tspan xml:space="preserve" dy="1em" x="0" class="row">lidarr:8686 readarr:8787</tspan><tspan xml:space="preserve" dy="1em" x="0" class="row">bazarr:6767 prowlarr:9696</tspan></text></g></g><g class="node default default flowchart-label" id="flowchart-S_DL-7" data-node="true" data-id="S_DL" transform="translate(795.0341796875, 888.5)"><rect class="basic label-container" style="" rx="0" ry="0" x="-139.578125" y="-35.5" width="279.15625" height="71"/><g class="label" style="" transform="translate(0, -28)"><rect/><text style=""><tspan xml:space="preserve" dy="1em" x="0" class="row">Download Services</tspan><tspan xml:space="preserve" dy="1em" x="0" class="row">qbittorrent:8080 sabnzbd:8080</tspan><tspan xml:space="preserve" dy="1em" x="0" class="row">flaresolverr:8191 unpackerr:5656</tspan></text></g></g><g class="node default default flowchart-label" id="flowchart-INGR-3" data-node="true" data-id="INGR" transform="translate(651.2568359375, 697.5)"><rect class="basic label-container" style="" rx="0" ry="0" x="-99.041015625" y="-35.5" width="198.08203125" height="71"/><g class="label" style="" transform="translate(0, -28)"><rect/><text style=""><tspan xml:space="preserve" dy="1em" x="0" class="row">Gateway</tspan><tspan xml:space="preserve" dy="1em" x="0" class="row">Compose: Envoy :80</tspan><tspan xml:space="preserve" dy="1em" x="0" class="row">K8s: Ingress Controller</tspan></text></g></g><g class="node default default flowchart-label" id="flowchart-HOSTS-4" data-node="true" data-id="HOSTS" transform="translate(651.2568359375, 497.5)"><rect class="basic label-container" style="" rx="0" ry="0" x="-125.0625" y="-44.5" width="250.125" height="89"/><g class="label" style="" transform="translate(0, -37)"><rect/><text style=""><tspan xml:space="preserve" dy="1em" x="0" class="row">Host + path-prefix routes</tspan><tspan xml:space="preserve" dy="1em" x="0" class="row">homepage.local, jellyfin.local,</tspan><tspan xml:space="preserve" dy="1em" x="0" class="row">*jellyseerr/arr/qb/sab*</tspan><tspan xml:space="preserve" dy="1em" x="0" class="row">maintainerr.local, tautulli.local</tspan></text></g></g><g class="node default default flowchart-label" id="flowchart-U-0" data-node="true" data-id="U" transform="translate(316.8583984375, 228.5)"><rect class="basic label-container" style="" rx="0" ry="0" x="-78.703125" y="-26.5" width="157.40625" height="53"/><g class="label" style="" transform="translate(0, -19)"><rect/><text style=""><tspan xml:space="preserve" dy="1em" x="0" class="row">Users</tspan><tspan xml:space="preserve" dy="1em" x="0" class="row">Web / Mobile / TV</tspan></text></g></g><g class="node default default flowchart-label" id="flowchart-DNS-1" data-node="true" data-id="DNS" transform="translate(316.8583984375, 351.5)"><rect class="basic label-container" style="" rx="0" ry="0" x="-117.796875" y="-26.5" width="235.59375" height="53"/><g class="label" style="" transform="translate(0, -19)"><rect/><text style=""><tspan xml:space="preserve" dy="1em" x="0" class="row">LAN DNS + hosts overrides</tspan><tspan xml:space="preserve" dy="1em" x="0" class="row">*.local</tspan></text></g></g><g class="node default default flowchart-label" id="flowchart-FW-2" data-node="true" data-id="FW" transform="translate(316.8583984375, 497.5)"><rect class="basic label-container" style="" rx="0" ry="0" x="-97.85400390625" y="-17.5" width="195.7080078125" height="35"/><g class="label" style="" transform="translate(0, -10)"><rect/><text style=""><tspan xml:space="preserve" dy="1em" x="0" class="row">Router / Firewall / NAT</tspan></text></g></g><g class="node default default flowchart-label" id="flowchart-LEG-19" data-node="true" data-id="LEG" transform="translate(259.59619140625, 53.5)"><rect class="basic label-container" style="" rx="0" ry="0" x="-197.09375" y="-53.5" width="394.1875" height="107"/><g class="label" style="" transform="translate(0, -46)"><rect/><text style=""><tspan xml:space="preserve" dy="1em" x="0" class="row">Legend</tspan><tspan xml:space="preserve" dy="1em" x="0" class="row">Pod IPs are dynamic.</tspan><tspan xml:space="preserve" dy="1em" x="0" class="row">Service DNS and ports are stable.</tspan><tspan xml:space="preserve" dy="1em" x="0" class="row">Scaling changes replicas, not service contracts.</tspan><tspan xml:space="preserve" dy="1em" x="0" class="row">CIDRs shown are examples.</tspan></text></g></g></g></g></g></svg>