<svg id="my-svg" width="100%" xmlns="http://www.w3.org/2000/svg" xmlns:xlink="http://www.w3.org/1999/xlink" style="max-width: 4362.59px; background-color: white;" viewBox="-8 -8 4362.59423828125 1840" role="graphics-document document" aria-roledescription="flowchart-v2"><style>#my-svg{font-family:"trebuchet ms",verdana,arial,sans-serif;font-size:18px;fill:#000000;}#my-svg .error-icon{fill:#552222;}#my-svg .error-text{fill:#552222;stroke:#552222;}#my-svg .edge-thickness-normal{stroke-width:2px;}#my-svg .edge-thickness-thick{stroke-width:3.5px;}#my-svg .edge-pattern-solid{stroke-dasharray:0;}#my-svg .edge-pattern-dashed{stroke-dasharray:3;}#my-svg .edge-pattern-dotted{stroke-dasharray:2;}#my-svg .marker{fill:#1f2937;stroke:#1f2937;}#my-svg .marker.cross{stroke:#1f2937;}#my-svg svg{font-family:"trebuchet ms",verdana,arial,sans-serif;font-size:18px;}#my-svg .label{font-family:"trebuchet ms",verdana,arial,sans-serif;color:#000000;}#my-svg .cluster-label text{fill:#333;}#my-svg .cluster-label span,#my-svg p{color:#333;}#my-svg .label text,#my-svg span,#my-svg p{fill:#000000;color:#000000;}#my-svg .node rect,#my-svg .node circle,#my-svg .node ellipse,#my-svg .node polygon,#my-svg .node path{fill:#eee;stroke:#999;stroke-width:1px;}#my-svg .flowchart-label text{text-anchor:middle;}#my-svg .node .katex path{fill:#000;stroke:#000;stroke-width:1px;}#my-svg .node .label{text-align:center;}#my-svg .node.clickable{cursor:pointer;}#my-svg .arrowheadPath{fill:#333333;}#my-svg .edgePath .path{stroke:#1f2937;stroke-width:2.0px;}#my-svg .flowchart-link{stroke:#1f2937;fill:none;}#my-svg .edgeLabel{background-color:white;text-align:center;}#my-svg .edgeLabel rect{opacity:0.5;background-color:white;fill:white;}#my-svg .labelBkg{background-color:rgba(255, 255, 255, 0.5);}#my-svg .cluster rect{fill:#f8fafc;stroke:#334155;stroke-width:1px;}#my-svg .cluster text{fill:#333;}#my-svg .cluster span,#my-svg p{color:#333;}#my-svg div.mermaidTooltip{position:absolute;text-align:center;max-width:200px;padding:2px;font-family:"trebuchet ms",verdana,arial,sans-serif;font-size:12px;background:#fef9c3;border:1px solid #707070;border-radius:2px;pointer-events:none;z-index:100;}#my-svg .flowchartTitleText{text-anchor:middle;font-size:18px;fill:#000000;}#my-svg :root{--mermaid-font-family:"trebuchet ms",verdana,arial,sans-serif;}</style><g><marker id="my-svg_flowchart-pointEnd" class="marker flowchart" viewBox="0 0 10 10" refX="6" refY="5" markerUnits="userSpaceOnUse" markerWidth="12" markerHeight="12" orient="auto"><path d="M 0 0 L 10 5 L 0 10 z" class="arrowMarkerPath" style="stroke-width: 1; stroke-dasharray: 1, 0;"/></marker><marker id="my-svg_flowchart-pointStart" class="marker flowchart" viewBox="0 0 10 10" refX="4.5" refY="5" markerUnits="userSpaceOnUse" markerWidth="12" markerHeight="12" orient="auto"><path d="M 0 5 L 10 10 L 10 0 z" class="arrowMarkerPath" style="stroke-width: 1; stroke-dasharray: 1, 0;"/></marker><marker id="my-svg_flowchart-circleEnd" class="marker flowchart" viewBox="0 0 10 10" refX="11" refY="5" markerUnits="userSpaceOnUse" markerWidth="11" markerHeight="11" orient="auto"><circle cx="5" cy="5" r="5" class="arrowMarkerPath" style="stroke-width: 1; stroke-dasharray: 1, 0;"/></marker><marker id="my-svg_flowchart-circleStart" class="marker flowchart" viewBox="0 0 10 10" refX="-1" refY="5" markerUnits="userSpaceOnUse" markerWidth="11" markerHeight="11" orient="auto"><circle cx="5" cy="5" r="5" class="arrowMarkerPath" style="stroke-width: 1; stroke-dasharray: 1, 0;"/></marker><marker id="my-svg_flowchart-crossEnd" class="marker cross flowchart" viewBox="0 0 11 11" refX="12" refY="5.2" markerUnits="userSpaceOnUse" markerWidth="11" markerHeight="11" orient="auto"><path d="M 1,1 l 9,9 M 10,1 l -9,9" class="arrowMarkerPath" style="stroke-width: 2; stroke-dasharray: 1, 0;"/></marker><marker id="my-svg_flowchart-crossStart" class="marker cross flowchart" viewBox="0 0 11 11" refX="-1" refY="5.2" markerUnits="userSpaceOnUse" markerWidth="11" markerHeight="11" orient="auto"><path d="M 1,1 l 9,9 M 10,1 l -9,9" class="arrowMarkerPath" style="stroke-width: 2; stroke-dasharray: 1, 0;"/></marker><g class="root"><g class="clusters"><g class="cluster default flowchart-label" id="Z5"><rect style="" rx="0" ry="0" x="630.99462890625" y="1703" width="2578.08203125" height="121"/><g class="cluster-label" transform="translate(1920.03564453125, 1703)"><text style=""><tspan xml:space="preserve" dy="1em" x="0" class="row">Zone 5: External Providers (Internet)</tspan></text></g></g><g class="cluster default flowchart-label" id="Z4"><rect style="" rx="0" ry="0" x="3229.07666015625" y="1703" width="1060.09912109375" height="121"/><g class="cluster-label" transform="translate(3759.126220703125, 1703)"><text style=""><tspan xml:space="preserve" dy="1em" x="0" class="row">Zone 4: Storage/Data Plane (PVC-backed)</tspan></text></g></g><g class="cluster default flowchart-label" id="Z3"><rect style="" rx="0" ry="0" x="1282.92822265625" y="711" width="2967.11083984375" height="922"/><g class="cluster-label" transform="translate(2766.483642578125, 711)"><text style=""><tspan xml:space="preserve" dy="1em" x="0" class="row">Zone 3: Pod Network (Pod CIDR, e.g. 10.1.0.0/16)</tspan></text></g></g><g class="cluster default flowchart-label" id="Z2"><rect style="" rx="0" ry="0" x="217.21728515625" y="920" width="997.234375" height="547"/><g class="cluster-label" transform="translate(715.83447265625, 920)"><text style=""><tspan xml:space="preserve" dy="1em" x="0" class="row">Zone 2: Service Network (Service CIDR, e.g. 10.152.183.0/24)</tspan></text></g></g><g class="cluster default flowchart-label" id="Z1"><rect style="" rx="0" ry="0" x="565.56494140625" y="448" width="555.21484375" height="402"/><g class="cluster-label" transform="translate(843.17236328125, 448)"><text style=""><tspan xml:space="preserve" dy="1em" x="0" class="row">Zone 1: Kubernetes Edge (node IPs, e.g. 192.168.1.60)</tspan></text></g></g><g class="cluster default flowchart-label" id="Z0"><rect style="" rx="0" ry="0" x="208.40087890625" y="177" width="377.734375" height="464"/><g class="cluster-label" transform="translate(397.26806640625, 177)"><text style=""><tspan xml:space="preserve" dy="1em" x="0" class="row">Zone 0: Client + LAN (example 192.168.1.0/24)</tspan></text></g></g></g><g class="edgePaths"><path d="M397.268,255L397.268,260.833C397.268,266.667,397.268,278.333,397.268,289.117C397.268,299.9,397.268,309.8,397.268,314.75L397.268,319.7" id="L-U-DNS-0" class=" edge-thickness-normal edge-pattern-solid flowchart-link LS-U LE-DNS" style="fill:none;" marker-end="url(#my-svg_flowchart-pointEnd)"/><path d="M397.268,378L397.268,383.833C397.268,389.667,397.268,401.333,397.268,413C397.268,424.667,397.268,436.333,397.268,454.45C397.268,472.567,397.268,497.133,397.268,509.417L397.268,521.7" id="L-DNS-FW-0" class=" edge-thickness-normal edge-pattern-solid flowchart-link LS-DNS LE-FW" style="fill:none;" marker-end="url(#my-svg_flowchart-pointEnd)"/><path d="M397.268,562L397.268,575.167C397.268,588.333,397.268,614.667,445.203,633.667C493.138,652.667,589.008,664.333,636.943,676C684.877,687.667,684.877,699.333,695.602,710.443C706.327,721.553,727.777,732.107,738.502,737.384L749.227,742.66" id="L-FW-INGR-0" class=" edge-thickness-normal edge-pattern-solid flowchart-link LS-FW LE-INGR" style="fill:none;" marker-end="url(#my-svg_flowchart-pointEnd)"/><path d="M892.745,616L892.745,620.167C892.745,624.333,892.745,632.667,892.745,642.667C892.745,652.667,892.745,664.333,892.745,676C892.745,687.667,892.745,699.333,887.925,710.196C883.105,721.058,873.466,731.116,868.646,736.145L863.827,741.174" id="L-HOSTS-INGR-0" class=" edge-thickness-normal edge-pattern-dotted flowchart-link LS-HOSTS LE-INGR" style="fill:none;stroke-width:2px;stroke-dasharray:3;" marker-end="url(#my-svg_flowchart-pointEnd)"/><path d="M786.815,816L780.538,821.667C774.262,827.333,761.708,838.667,685.514,850.167C609.319,861.667,469.483,873.333,399.565,885C329.647,896.667,329.647,908.333,329.647,927.25C329.647,946.167,329.647,972.333,329.647,1000.167C329.647,1028,329.647,1057.5,329.647,1087C329.647,1116.5,329.647,1146,329.647,1175.5C329.647,1205,329.647,1234.5,331.9,1255.749C334.154,1276.998,338.661,1289.995,340.914,1296.494L343.168,1302.993" id="L-INGR-S_UI-0" class=" edge-thickness-normal edge-pattern-solid flowchart-link LS-INGR LE-S_UI" style="fill:none;" marker-end="url(#my-svg_flowchart-pointEnd)"/><path d="M830.488,816L831.182,821.667C831.877,827.333,833.266,838.667,833.96,850.167C834.655,861.667,834.655,873.333,834.655,885C834.655,896.667,834.655,908.333,834.655,927.25C834.655,946.167,834.655,972.333,834.655,1000.167C834.655,1028,834.655,1057.5,834.655,1087C834.655,1116.5,834.655,1146,834.655,1175.5C834.655,1205,834.655,1234.5,833.027,1254.243C831.399,1273.987,828.143,1283.974,826.515,1288.967L824.888,1293.961" id="L-INGR-S_STACK-0" class=" edge-thickness-normal edge-pattern-solid flowchart-link LS-INGR LE-S_STACK" style="fill:none;" marker-end="url(#my-svg_flowchart-pointEnd)"/><path d="M918.007,816L932.671,821.667C947.336,827.333,976.665,838.667,991.33,850.167C1005.995,861.667,1005.995,873.333,1005.995,885C1005.995,896.667,1005.995,908.333,1006.776,917.474C1007.558,926.614,1009.122,933.228,1009.904,936.535L1010.686,939.842" id="L-INGR-S_DL-0" class=" edge-thickness-normal edge-pattern-solid flowchart-link LS-INGR LE-S_DL" style="fill:none;" marker-end="url(#my-svg_flowchart-pointEnd)"/><path d="M366.577,1433L366.577,1438.667C366.577,1444.333,366.577,1455.667,810.865,1467.167C1255.153,1478.667,2143.73,1490.333,2603.468,1501.702C3063.206,1513.071,3094.106,1524.142,3109.555,1529.677L3125.005,1535.212" id="L-S_UI-P_UI-0" class=" edge-thickness-normal edge-pattern-solid flowchart-link LS-S_UI LE-P_UI" style="fill:none;" marker-end="url(#my-svg_flowchart-pointEnd)"/><path d="M932.819,1360.649L1150.118,1344.541C1367.417,1328.433,1802.014,1296.216,2019.313,1265.358C2236.612,1234.5,2236.612,1205,2236.612,1175.5C2236.612,1146,2236.612,1116.5,2236.612,1087C2236.612,1057.5,2236.612,1028,2236.612,1000.167C2236.612,972.333,2236.612,946.167,2236.612,927.25C2236.612,908.333,2236.612,896.667,2236.612,885C2236.612,873.333,2236.612,861.667,2200.185,848.415C2163.759,835.164,2090.906,820.328,2054.479,812.91L2018.053,805.492" id="L-S_STACK-P_ARR-0" class=" edge-thickness-normal edge-pattern-solid flowchart-link LS-S_STACK LE-P_ARR" style="fill:none;" marker-end="url(#my-svg_flowchart-pointEnd)"/><path d="M1024.553,1052L1024.553,1057.833C1024.553,1063.667,1024.553,1075.333,1270.163,1094.555C1515.772,1113.777,2006.991,1140.554,2252.601,1153.942L2498.21,1167.33" id="L-S_DL-P_DL-0" class=" edge-thickness-normal edge-pattern-solid flowchart-link LS-S_DL LE-P_DL" style="fill:none;" marker-end="url(#my-svg_flowchart-pointEnd)"/><path d="M1777.797,796.271L1711.06,805.226C1644.324,814.18,1510.851,832.09,1444.114,846.878C1377.377,861.667,1377.377,873.333,1377.377,885C1377.377,896.667,1377.377,908.333,1345.252,921.314C1313.127,934.295,1248.876,948.59,1216.751,955.738L1184.625,962.886" id="L-P_ARR-S_DL-0" class=" edge-thickness-normal edge-pattern-solid flowchart-link LS-P_ARR LE-S_DL" style="fill:none;" marker-end="url(#my-svg_flowchart-pointEnd)"/><path d="M1913.983,825L1915.73,829.167C1917.477,833.333,1920.97,841.667,1922.717,851.667C1924.463,861.667,1924.463,873.333,1924.463,885C1924.463,896.667,1924.463,908.333,1924.463,927.25C1924.463,946.167,1924.463,972.333,1924.463,1000.167C1924.463,1028,1924.463,1057.5,1924.463,1087C1924.463,1116.5,1924.463,1146,1924.463,1175.5C1924.463,1205,1924.463,1234.5,1760.069,1264.819C1595.674,1295.138,1266.885,1326.277,1102.49,1341.846L938.095,1357.415" id="L-P_ARR-S_STACK-0" class=" edge-thickness-normal edge-pattern-solid flowchart-link LS-P_ARR LE-S_STACK" style="fill:none;" marker-end="url(#my-svg_flowchart-pointEnd)"/><path d="M1777.797,811.402L1753.33,817.835C1728.863,824.268,1679.929,837.134,1655.462,849.4C1630.995,861.667,1630.995,873.333,1630.995,885C1630.995,896.667,1630.995,908.333,1630.995,927.25C1630.995,946.167,1630.995,972.333,1630.995,1000.167C1630.995,1028,1630.995,1057.5,1630.995,1087C1630.995,1116.5,1630.995,1146,1630.995,1175.5C1630.995,1205,1630.995,1234.5,1440.198,1265.32C1249.402,1296.141,867.81,1328.282,677.014,1344.352L486.217,1360.423" id="L-P_ARR-S_UI-0" class=" edge-thickness-normal edge-pattern-solid flowchart-link LS-P_ARR LE-S_UI" style="fill:none;" marker-end="url(#my-svg_flowchart-pointEnd)"/><path d="M2503.502,1195.177L2419.224,1206.648C2334.945,1218.118,2166.388,1241.059,1905.487,1268.232C1644.586,1295.406,1291.342,1326.811,1114.72,1342.514L938.098,1358.217" id="L-P_DL-S_STACK-0" class=" edge-thickness-normal edge-pattern-solid flowchart-link LS-P_DL LE-S_STACK" style="fill:none;" marker-end="url(#my-svg_flowchart-pointEnd)"/><path d="M2503.502,1189.058L2370.312,1201.549C2237.122,1214.039,1970.742,1239.019,1634.528,1267.672C1298.314,1296.325,892.267,1328.65,689.243,1344.813L486.219,1360.975" id="L-P_DL-S_UI-0" class=" edge-thickness-normal edge-pattern-solid flowchart-link LS-P_DL LE-S_UI" style="fill:none;" marker-end="url(#my-svg_flowchart-pointEnd)"/><path d="M2368.811,789.998L2270.297,799.998C2171.784,809.999,1974.756,829.999,1876.243,845.833C1777.729,861.667,1777.729,873.333,1777.729,885C1777.729,896.667,1777.729,908.333,1777.729,927.25C1777.729,946.167,1777.729,972.333,1777.729,1000.167C1777.729,1028,1777.729,1057.5,1777.729,1087C1777.729,1116.5,1777.729,1146,1777.729,1175.5C1777.729,1205,1777.729,1234.5,1562.478,1265.495C1347.226,1296.49,916.724,1328.98,701.472,1345.225L486.221,1361.47" id="L-P_JOB-S_UI-0" class=" edge-thickness-normal edge-pattern-solid flowchart-link LS-P_JOB LE-S_UI" style="fill:none;" marker-end="url(#my-svg_flowchart-pointEnd)"/><path d="M2368.811,797.123L2319.209,805.936C2269.607,814.749,2170.402,832.374,2120.8,847.021C2071.198,861.667,2071.198,873.333,2071.198,885C2071.198,896.667,2071.198,908.333,2071.198,927.25C2071.198,946.167,2071.198,972.333,2071.198,1000.167C2071.198,1028,2071.198,1057.5,2071.198,1087C2071.198,1116.5,2071.198,1146,2071.198,1175.5C2071.198,1205,2071.198,1234.5,1882.348,1265.071C1693.499,1295.642,1315.799,1327.284,1126.95,1343.104L938.1,1358.925" id="L-P_JOB-S_STACK-0" class=" edge-thickness-normal edge-pattern-solid flowchart-link LS-P_JOB LE-S_STACK" style="fill:none;" marker-end="url(#my-svg_flowchart-pointEnd)"/><path d="M2368.811,787.43L2228.028,797.859C2087.245,808.287,1805.678,829.143,1664.895,845.405C1524.112,861.667,1524.112,873.333,1524.112,885C1524.112,896.667,1524.112,908.333,1467.541,923.056C1410.97,937.779,1297.829,955.558,1241.258,964.447L1184.687,973.337" id="L-P_JOB-S_DL-0" class=" edge-thickness-normal edge-pattern-solid flowchart-link LS-P_JOB LE-S_DL" style="fill:none;" marker-end="url(#my-svg_flowchart-pointEnd)"/><path d="M3280.582,1608L3286.628,1612.167C3292.673,1616.333,3304.763,1624.667,3310.809,1634.667C3316.854,1644.667,3316.854,1656.333,3316.854,1668C3316.854,1679.667,3316.854,1691.333,3336.175,1702.594C3355.496,1713.856,3394.137,1724.711,3413.458,1730.139L3432.779,1735.567" id="L-P_UI-PVC_CFG-0" class=" edge-thickness-normal edge-pattern-solid flowchart-link LS-P_UI LE-PVC_CFG" style="fill:none;" marker-end="url(#my-svg_flowchart-pointEnd)"/><path d="M2012.859,785.841L2248.156,796.534C2483.453,807.227,2954.047,828.614,3189.344,845.14C3424.641,861.667,3424.641,873.333,3424.641,885C3424.641,896.667,3424.641,908.333,3424.641,927.25C3424.641,946.167,3424.641,972.333,3424.641,1000.167C3424.641,1028,3424.641,1057.5,3424.641,1087C3424.641,1116.5,3424.641,1146,3424.641,1175.5C3424.641,1205,3424.641,1234.5,3424.641,1267C3424.641,1299.5,3424.641,1335,3424.641,1368.833C3424.641,1402.667,3424.641,1434.833,3424.641,1456.75C3424.641,1478.667,3424.641,1490.333,3424.641,1507.917C3424.641,1525.5,3424.641,1549,3424.641,1570.833C3424.641,1592.667,3424.641,1612.833,3424.641,1628.75C3424.641,1644.667,3424.641,1656.333,3424.641,1668C3424.641,1679.667,3424.641,1691.333,3433.946,1702.4C3443.252,1713.467,3461.863,1723.935,3471.168,1729.168L3480.474,1734.402" id="L-P_ARR-PVC_CFG-0" class=" edge-thickness-normal edge-pattern-solid flowchart-link LS-P_ARR LE-PVC_CFG" style="fill:none;" marker-end="url(#my-svg_flowchart-pointEnd)"/><path d="M2792.659,1190.804L2907.908,1203.003C3023.158,1215.203,3253.657,1239.601,3368.907,1269.551C3484.156,1299.5,3484.156,1335,3484.156,1368.833C3484.156,1402.667,3484.156,1434.833,3484.156,1456.75C3484.156,1478.667,3484.156,1490.333,3484.156,1507.917C3484.156,1525.5,3484.156,1549,3484.156,1570.833C3484.156,1592.667,3484.156,1612.833,3484.156,1628.75C3484.156,1644.667,3484.156,1656.333,3484.156,1668C3484.156,1679.667,3484.156,1691.333,3488.108,1702.142C3492.059,1712.95,3499.963,1722.9,3503.914,1727.875L3507.866,1732.85" id="L-P_DL-PVC_CFG-0" class=" edge-thickness-normal edge-pattern-solid flowchart-link LS-P_DL LE-PVC_CFG" style="fill:none;" marker-end="url(#my-svg_flowchart-pointEnd)"/><path d="M2555.936,786.514L2720.559,797.095C2885.181,807.676,3214.427,828.838,3379.049,845.252C3543.672,861.667,3543.672,873.333,3543.672,885C3543.672,896.667,3543.672,908.333,3543.672,927.25C3543.672,946.167,3543.672,972.333,3543.672,1000.167C3543.672,1028,3543.672,1057.5,3543.672,1087C3543.672,1116.5,3543.672,1146,3543.672,1175.5C3543.672,1205,3543.672,1234.5,3543.672,1267C3543.672,1299.5,3543.672,1335,3543.672,1368.833C3543.672,1402.667,3543.672,1434.833,3543.672,1456.75C3543.672,1478.667,3543.672,1490.333,3543.672,1507.917C3543.672,1525.5,3543.672,1549,3543.672,1570.833C3543.672,1592.667,3543.672,1612.833,3543.672,1628.75C3543.672,1644.667,3543.672,1656.333,3543.672,1668C3543.672,1679.667,3543.672,1691.333,3542.763,1701.965C3541.854,1712.598,3540.036,1722.195,3539.127,1726.994L3538.217,1731.793" id="L-P_JOB-PVC_CFG-0" class=" edge-thickness-normal edge-pattern-solid flowchart-link LS-P_JOB LE-PVC_CFG" style="fill:none;" marker-end="url(#my-svg_flowchart-pointEnd)"/><path d="M2792.659,1188.39L2934.005,1200.992C3075.351,1213.593,3358.042,1238.797,3499.388,1269.148C3640.734,1299.5,3640.734,1335,3640.734,1368.833C3640.734,1402.667,3640.734,1434.833,3640.734,1456.75C3640.734,1478.667,3640.734,1490.333,3640.734,1507.917C3640.734,1525.5,3640.734,1549,3640.734,1570.833C3640.734,1592.667,3640.734,1612.833,3640.734,1628.75C3640.734,1644.667,3640.734,1656.333,3640.734,1668C3640.734,1679.667,3640.734,1691.333,3655.114,1702.525C3669.493,1713.716,3698.252,1724.433,3712.632,1729.791L3727.011,1735.149" id="L-P_DL-PVC_DATA-0" class=" edge-thickness-normal edge-pattern-solid flowchart-link LS-P_DL LE-PVC_DATA" style="fill:none;" marker-end="url(#my-svg_flowchart-pointEnd)"/><path d="M2012.859,784.896L2302.971,795.747C2593.083,806.597,3173.307,828.299,3463.419,844.983C3753.531,861.667,3753.531,873.333,3753.531,885C3753.531,896.667,3753.531,908.333,3753.531,927.25C3753.531,946.167,3753.531,972.333,3753.531,1000.167C3753.531,1028,3753.531,1057.5,3753.531,1087C3753.531,1116.5,3753.531,1146,3753.531,1175.5C3753.531,1205,3753.531,1234.5,3753.531,1267C3753.531,1299.5,3753.531,1335,3753.531,1368.833C3753.531,1402.667,3753.531,1434.833,3753.531,1456.75C3753.531,1478.667,3753.531,1490.333,3753.531,1507.917C3753.531,1525.5,3753.531,1549,3753.531,1570.833C3753.531,1592.667,3753.531,1612.833,3753.531,1628.75C3753.531,1644.667,3753.531,1656.333,3753.531,1668C3753.531,1679.667,3753.531,1691.333,3757.614,1702.15C3761.696,1712.967,3769.861,1722.933,3773.943,1727.917L3778.026,1732.9" id="L-P_ARR-PVC_DATA-0" class=" edge-thickness-normal edge-pattern-solid flowchart-link LS-P_ARR LE-PVC_DATA" style="fill:none;" marker-end="url(#my-svg_flowchart-pointEnd)"/><path d="M2012.859,784.296L2351.954,795.246C2691.049,806.197,3369.24,828.099,3708.335,844.883C4047.43,861.667,4047.43,873.333,4047.43,885C4047.43,896.667,4047.43,908.333,4047.43,927.25C4047.43,946.167,4047.43,972.333,4047.43,1000.167C4047.43,1028,4047.43,1057.5,4047.43,1087C4047.43,1116.5,4047.43,1146,4047.43,1175.5C4047.43,1205,4047.43,1234.5,4047.43,1267C4047.43,1299.5,4047.43,1335,4047.43,1368.833C4047.43,1402.667,4047.43,1434.833,4047.43,1456.75C4047.43,1478.667,4047.43,1490.333,4047.43,1507.917C4047.43,1525.5,4047.43,1549,4047.43,1570.833C4047.43,1592.667,4047.43,1612.833,4047.43,1628.75C4047.43,1644.667,4047.43,1656.333,4047.43,1668C4047.43,1679.667,4047.43,1691.333,4052.395,1700.811C4057.361,1710.288,4067.292,1717.576,4072.258,1721.22L4077.224,1724.864" id="L-P_ARR-PVC_MEDIA-0" class=" edge-thickness-normal edge-pattern-solid flowchart-link LS-P_ARR LE-PVC_MEDIA" style="fill:none;" marker-end="url(#my-svg_flowchart-pointEnd)"/><path d="M3350.134,1580.786L3477.273,1589.488C3604.411,1598.191,3858.688,1615.595,3985.826,1630.131C4112.965,1644.667,4112.965,1656.333,4112.965,1668C4112.965,1679.667,4112.965,1691.333,4113.891,1700.483C4114.818,1709.632,4116.671,1716.264,4117.598,1719.58L4118.524,1722.896" id="L-P_UI-PVC_MEDIA-0" class=" edge-thickness-normal edge-pattern-solid flowchart-link LS-P_UI LE-PVC_MEDIA" style="fill:none;" marker-end="url(#my-svg_flowchart-pointEnd)"/><path d="M2555.936,784.972L2782.673,795.81C3009.41,806.648,3462.885,828.324,3689.622,844.995C3916.359,861.667,3916.359,873.333,3916.359,885C3916.359,896.667,3916.359,908.333,3916.359,927.25C3916.359,946.167,3916.359,972.333,3916.359,1000.167C3916.359,1028,3916.359,1057.5,3916.359,1087C3916.359,1116.5,3916.359,1146,3916.359,1175.5C3916.359,1205,3916.359,1234.5,3916.359,1267C3916.359,1299.5,3916.359,1335,3916.359,1368.833C3916.359,1402.667,3916.359,1434.833,3916.359,1456.75C3916.359,1478.667,3916.359,1490.333,3916.359,1507.917C3916.359,1525.5,3916.359,1549,3916.359,1570.833C3916.359,1592.667,3916.359,1612.833,3916.359,1628.75C3916.359,1644.667,3916.359,1656.333,3916.359,1668C3916.359,1679.667,3916.359,1691.333,3906.53,1702.417C3896.7,1713.501,3877.04,1724.002,3867.211,1729.252L3857.381,1734.503" id="L-P_JOB-PVC_DATA-0" class=" edge-thickness-normal edge-pattern-solid flowchart-link LS-P_JOB LE-PVC_DATA" style="fill:none;" marker-end="url(#my-svg_flowchart-pointEnd)"/><path d="M2555.936,784.289L2826.363,795.241C3096.791,806.193,3637.645,828.096,3908.073,844.882C4178.5,861.667,4178.5,873.333,4178.5,885C4178.5,896.667,4178.5,908.333,4178.5,927.25C4178.5,946.167,4178.5,972.333,4178.5,1000.167C4178.5,1028,4178.5,1057.5,4178.5,1087C4178.5,1116.5,4178.5,1146,4178.5,1175.5C4178.5,1205,4178.5,1234.5,4178.5,1267C4178.5,1299.5,4178.5,1335,4178.5,1368.833C4178.5,1402.667,4178.5,1434.833,4178.5,1456.75C4178.5,1478.667,4178.5,1490.333,4178.5,1507.917C4178.5,1525.5,4178.5,1549,4178.5,1570.833C4178.5,1592.667,4178.5,1612.833,4178.5,1628.75C4178.5,1644.667,4178.5,1656.333,4178.5,1668C4178.5,1679.667,4178.5,1691.333,4175.704,1700.645C4172.909,1709.956,4167.317,1716.913,4164.522,1720.391L4161.726,1723.869" id="L-P_JOB-PVC_MEDIA-0" class=" edge-thickness-normal edge-pattern-solid flowchart-link LS-P_JOB LE-PVC_MEDIA" style="fill:none;" marker-end="url(#my-svg_flowchart-pointEnd)"/><path d="M2012.859,799.957L2063.24,808.298C2113.621,816.638,2214.382,833.319,2264.762,847.493C2315.143,861.667,2315.143,873.333,2315.143,885C2315.143,896.667,2315.143,908.333,2315.143,927.25C2315.143,946.167,2315.143,972.333,2315.143,1000.167C2315.143,1028,2315.143,1057.5,2315.143,1087C2315.143,1116.5,2315.143,1146,2315.143,1175.5C2315.143,1205,2315.143,1234.5,2315.143,1267C2315.143,1299.5,2315.143,1335,2315.143,1368.833C2315.143,1402.667,2315.143,1434.833,2315.143,1456.75C2315.143,1478.667,2315.143,1490.333,2315.143,1507.917C2315.143,1525.5,2315.143,1549,2315.143,1570.833C2315.143,1592.667,2315.143,1612.833,2058.774,1628.75C1802.405,1644.667,1289.667,1656.333,1033.299,1668C776.93,1679.667,776.93,1691.333,780.973,1703.586C785.017,1715.839,793.105,1728.677,797.149,1735.096L801.192,1741.516" id="L-P_ARR-IDX-0" class=" edge-thickness-normal edge-pattern-solid flowchart-link LS-P_ARR LE-IDX" style="fill:none;" marker-end="url(#my-svg_flowchart-pointEnd)"/><path d="M2012.859,796.875L2076.409,805.729C2139.959,814.583,2267.059,832.292,2330.609,846.979C2394.159,861.667,2394.159,873.333,2394.159,885C2394.159,896.667,2394.159,908.333,2394.159,927.25C2394.159,946.167,2394.159,972.333,2394.159,1000.167C2394.159,1028,2394.159,1057.5,2394.159,1087C2394.159,1116.5,2394.159,1146,2394.159,1175.5C2394.159,1205,2394.159,1234.5,2394.159,1267C2394.159,1299.5,2394.159,1335,2394.159,1368.833C2394.159,1402.667,2394.159,1434.833,2394.159,1456.75C2394.159,1478.667,2394.159,1490.333,2394.159,1507.917C2394.159,1525.5,2394.159,1549,2394.159,1570.833C2394.159,1592.667,2394.159,1612.833,2394.159,1628.75C2394.159,1644.667,2394.159,1656.333,2394.159,1668C2394.159,1679.667,2394.159,1691.333,2396.143,1702.016C2398.127,1712.698,2402.095,1722.396,2404.079,1727.246L2406.063,1732.095" id="L-P_ARR-META-0" class=" edge-thickness-normal edge-pattern-solid flowchart-link LS-P_ARR LE-META" style="fill:none;" marker-end="url(#my-svg_flowchart-pointEnd)"/><path d="M3108.019,1582.695L3008.46,1591.079C2908.9,1599.463,2709.781,1616.232,2610.222,1630.449C2510.663,1644.667,2510.663,1656.333,2510.663,1668C2510.663,1679.667,2510.663,1691.333,2502.806,1702.347C2494.95,1713.361,2479.238,1723.722,2471.381,1728.902L2463.525,1734.082" id="L-P_UI-META-0" class=" edge-thickness-normal edge-pattern-solid flowchart-link LS-P_UI LE-META" style="fill:none;" marker-end="url(#my-svg_flowchart-pointEnd)"/><path d="M3108.019,1584.44L3025.961,1592.533C2943.903,1600.627,2779.787,1616.813,2697.729,1630.74C2615.67,1644.667,2615.67,1656.333,2615.67,1668C2615.67,1679.667,2615.67,1691.333,2627.031,1703.884C2638.391,1716.434,2661.111,1729.868,2672.472,1736.585L2683.832,1743.302" id="L-P_UI-IPTV-0" class=" edge-thickness-normal edge-pattern-solid flowchart-link LS-P_UI LE-IPTV" style="fill:none;" marker-end="url(#my-svg_flowchart-pointEnd)"/><path d="M2555.936,798.301L2601.223,806.918C2646.51,815.534,2737.084,832.767,2782.372,847.217C2827.659,861.667,2827.659,873.333,2827.659,885C2827.659,896.667,2827.659,908.333,2827.659,927.25C2827.659,946.167,2827.659,972.333,2827.659,1000.167C2827.659,1028,2827.659,1057.5,2827.659,1087C2827.659,1116.5,2827.659,1146,2827.659,1175.5C2827.659,1205,2827.659,1234.5,2827.659,1267C2827.659,1299.5,2827.659,1335,2827.659,1368.833C2827.659,1402.667,2827.659,1434.833,2827.659,1456.75C2827.659,1478.667,2827.659,1490.333,2827.659,1507.917C2827.659,1525.5,2827.659,1549,2827.659,1570.833C2827.659,1592.667,2827.659,1612.833,2827.659,1628.75C2827.659,1644.667,2827.659,1656.333,2827.659,1668C2827.659,1679.667,2827.659,1691.333,2815.441,1703.907C2803.224,1716.48,2778.789,1729.96,2766.571,1736.7L2754.354,1743.44" id="L-P_JOB-IPTV-0" class=" edge-thickness-normal edge-pattern-solid flowchart-link LS-P_JOB LE-IPTV" style="fill:none;" marker-end="url(#my-svg_flowchart-pointEnd)"/><path d="M2555.936,795.136L2614.392,804.28C2672.849,813.424,2789.762,831.712,2848.218,846.689C2906.674,861.667,2906.674,873.333,2906.674,885C2906.674,896.667,2906.674,908.333,2906.674,927.25C2906.674,946.167,2906.674,972.333,2906.674,1000.167C2906.674,1028,2906.674,1057.5,2906.674,1087C2906.674,1116.5,2906.674,1146,2906.674,1175.5C2906.674,1205,2906.674,1234.5,2906.674,1267C2906.674,1299.5,2906.674,1335,2906.674,1368.833C2906.674,1402.667,2906.674,1434.833,2906.674,1456.75C2906.674,1478.667,2906.674,1490.333,2906.674,1507.917C2906.674,1525.5,2906.674,1549,2906.674,1570.833C2906.674,1592.667,2906.674,1612.833,2906.674,1628.75C2906.674,1644.667,2906.674,1656.333,2906.674,1668C2906.674,1679.667,2906.674,1691.333,2916.173,1702.407C2925.671,1713.48,2944.668,1723.96,2954.167,1729.2L2963.665,1734.44" id="L-P_JOB-NTFY-0" class=" edge-thickness-normal edge-pattern-solid flowchart-link LS-P_JOB LE-NTFY" style="fill:none;" marker-end="url(#my-svg_flowchart-pointEnd)"/><path d="M3154.927,1608L3146.224,1612.167C3137.521,1616.333,3120.115,1624.667,3111.412,1634.667C3102.709,1644.667,3102.709,1656.333,3102.709,1668C3102.709,1679.667,3102.709,1691.333,3095.343,1702.327C3087.977,1713.32,3073.245,1723.639,3065.879,1728.799L3058.513,1733.959" id="L-P_UI-NTFY-0" class=" edge-thickness-normal edge-pattern-solid flowchart-link LS-P_UI LE-NTFY" style="fill:none;" marker-end="url(#my-svg_flowchart-pointEnd)"/><path d="M356.744,107L363.498,112.833C370.252,118.667,383.76,130.333,390.514,142C397.268,153.667,397.268,165.333,397.268,171.167L397.268,177" id="L-NOTE-Z0-0" class=" edge-thickness-normal edge-pattern-dotted flowchart-link LS-NOTE LE-Z0" style="fill:none;stroke-width:2px;stroke-dasharray:3;"/><path d="M549.254,81.44L641.175,91.533C733.096,101.627,916.938,121.813,1008.859,137.74C1100.78,153.667,1100.78,165.333,1100.78,179.75C1100.78,194.167,1100.78,211.333,1100.78,230.167C1100.78,249,1100.78,269.5,1100.78,290C1100.78,310.5,1100.78,331,1100.78,351.5C1100.78,372,1100.78,392.5,1100.78,408.583C1100.78,424.667,1100.78,436.333,1100.78,442.167L1100.78,448" id="L-NOTE-Z1-0" class=" edge-thickness-normal edge-pattern-dotted flowchart-link LS-NOTE LE-Z1" style="fill:none;stroke-width:2px;stroke-dasharray:3;"/><path d="M255.005,107L250.666,112.833C246.327,118.667,237.649,130.333,233.31,142C228.971,153.667,228.971,165.333,228.971,179.75C228.971,194.167,228.971,211.333,228.971,230.167C228.971,249,228.971,269.5,228.971,290C228.971,310.5,228.971,331,228.971,351.5C228.971,372,228.971,392.5,228.971,408.583C228.971,424.667,228.971,436.333,228.971,458.25C228.971,480.167,228.971,512.333,228.971,544.5C228.971,576.667,228.971,608.833,228.971,630.75C228.971,652.667,228.971,664.333,228.971,676C228.971,687.667,228.971,699.333,228.971,716.75C228.971,734.167,228.971,757.333,228.971,780.5C228.971,803.667,228.971,826.833,258.334,844.25C287.696,861.667,346.422,873.333,375.784,885C405.147,896.667,405.147,908.333,405.147,914.167L405.147,920" id="L-NOTE-Z2-0" class=" edge-thickness-normal edge-pattern-dotted flowchart-link LS-NOTE LE-Z2" style="fill:none;stroke-width:2px;stroke-dasharray:3;"/><path d="M549.254,60.952L1010.521,74.46C1471.787,87.968,2394.321,114.984,2855.587,134.325C3316.854,153.667,3316.854,165.333,3316.854,179.75C3316.854,194.167,3316.854,211.333,3316.854,230.167C3316.854,249,3316.854,269.5,3316.854,290C3316.854,310.5,3316.854,331,3316.854,351.5C3316.854,372,3316.854,392.5,3316.854,408.583C3316.854,424.667,3316.854,436.333,3316.854,458.25C3316.854,480.167,3316.854,512.333,3316.854,544.5C3316.854,576.667,3316.854,608.833,3316.854,630.75C3316.854,652.667,3316.854,664.333,3316.854,676C3316.854,687.667,3316.854,699.333,3316.854,705.167L3316.854,711" id="L-NOTE-Z3-0" class=" edge-thickness-normal edge-pattern-dotted flowchart-link LS-NOTE LE-Z3" style="fill:none;stroke-width:2px;stroke-dasharray:3;"/><path d="M549.254,59.058L1182.144,72.882C1815.034,86.705,3080.814,114.353,3713.704,134.01C4346.594,153.667,4346.594,165.333,4346.594,179.75C4346.594,194.167,4346.594,211.333,4346.594,230.167C4346.594,249,4346.594,269.5,4346.594,290C4346.594,310.5,4346.594,331,4346.594,351.5C4346.594,372,4346.594,392.5,4346.594,408.583C4346.594,424.667,4346.594,436.333,4346.594,458.25C4346.594,480.167,4346.594,512.333,4346.594,544.5C4346.594,576.667,4346.594,608.833,4346.594,630.75C4346.594,652.667,4346.594,664.333,4346.594,676C4346.594,687.667,4346.594,699.333,4346.594,716.75C4346.594,734.167,4346.594,757.333,4346.594,780.5C4346.594,803.667,4346.594,826.833,4346.594,844.25C4346.594,861.667,4346.594,873.333,4346.594,885C4346.594,896.667,4346.594,908.333,4346.594,927.25C4346.594,946.167,4346.594,972.333,4346.594,1000.167C4346.594,1028,4346.594,1057.5,4346.594,1087C4346.594,1116.5,4346.594,1146,4346.594,1175.5C4346.594,1205,4346.594,1234.5,4346.594,1267C4346.594,1299.5,4346.594,1335,4346.594,1368.833C4346.594,1402.667,4346.594,1434.833,4346.594,1456.75C4346.594,1478.667,4346.594,1490.333,4346.594,1507.917C4346.594,1525.5,4346.594,1549,4346.594,1570.833C4346.594,1592.667,4346.594,1612.833,4222.496,1628.75C4098.398,1644.667,3850.203,1656.333,3726.105,1668C3602.008,1679.667,3602.008,1691.333,3602.008,1697.167L3602.008,1703" id="L-NOTE-Z4-0" class=" edge-thickness-normal edge-pattern-dotted flowchart-link LS-NOTE LE-Z4" style="fill:none;stroke-width:2px;stroke-dasharray:3;"/><path d="M162.867,107L148.481,112.833C134.096,118.667,105.325,130.333,90.94,142C76.555,153.667,76.555,165.333,76.555,179.75C76.555,194.167,76.555,211.333,76.555,230.167C76.555,249,76.555,269.5,76.555,290C76.555,310.5,76.555,331,76.555,351.5C76.555,372,76.555,392.5,76.555,408.583C76.555,424.667,76.555,436.333,76.555,458.25C76.555,480.167,76.555,512.333,76.555,544.5C76.555,576.667,76.555,608.833,76.555,630.75C76.555,652.667,76.555,664.333,76.555,676C76.555,687.667,76.555,699.333,76.555,716.75C76.555,734.167,76.555,757.333,76.555,780.5C76.555,803.667,76.555,826.833,76.555,844.25C76.555,861.667,76.555,873.333,76.555,885C76.555,896.667,76.555,908.333,76.555,927.25C76.555,946.167,76.555,972.333,76.555,1000.167C76.555,1028,76.555,1057.5,76.555,1087C76.555,1116.5,76.555,1146,76.555,1175.5C76.555,1205,76.555,1234.5,76.555,1267C76.555,1299.5,76.555,1335,76.555,1368.833C76.555,1402.667,76.555,1434.833,76.555,1456.75C76.555,1478.667,76.555,1490.333,76.555,1507.917C76.555,1525.5,76.555,1549,76.555,1570.833C76.555,1592.667,76.555,1612.833,199.636,1628.75C322.717,1644.667,568.879,1656.333,691.96,1668C815.042,1679.667,815.042,1691.333,815.042,1697.167L815.042,1703" id="L-NOTE-Z5-0" class=" edge-thickness-normal edge-pattern-dotted flowchart-link LS-NOTE LE-Z5" style="fill:none;stroke-width:2px;stroke-dasharray:3;"/></g><g class="edgeLabels"><g class="edgeLabel" transform="translate(397.26806640625, 290)"><g class="label" transform="translate(-47.0234375, -10)"><rect rx="0" ry="0" width="93.96318817138672" height="20.55244255065918"/><text style=""><tspan xml:space="preserve" dy="1em" x="0" class="row">HTTPS 443</tspan></text></g></g><g class="edgeLabel" transform="translate(397.26806640625, 413)"><g class="label" transform="translate(-59.0390625, -10)"><rect rx="0" ry="0" width="117.98385620117188" height="20.55244255065918"/><text style=""><tspan xml:space="preserve" dy="1em" x="0" class="row">A/hosts lookup</tspan></text></g></g><g class="edgeLabel" transform="translate(684.87744140625, 676)"><g class="label" transform="translate(-99.3125, -10)"><rect rx="0" ry="0" width="198.91619873046875" height="20.55244255065918"/><text style=""><tspan xml:space="preserve" dy="1em" x="0" class="row">443 -&gt; ingress entrypoint</tspan></text></g></g><g class="edgeLabel" transform="translate(892.74462890625, 676)"><g class="label" transform="translate(-88.5546875, -10)"><rect rx="0" ry="0" width="176.94366455078125" height="20.55244255065918"/><text style=""><tspan xml:space="preserve" dy="1em" x="0" class="row">matched by hostname</tspan></text></g></g><g class="edgeLabel" transform="translate(329.64697265625, 1087)"><g class="label" transform="translate(-55.5, -10)"><rect rx="0" ry="0" width="111.23130798339844" height="20.55244255065918"/><text style=""><tspan xml:space="preserve" dy="1em" x="0" class="row">HTTP/HTTPS</tspan></text></g></g><g class="edgeLabel" transform="translate(834.65478515625, 1087)"><g class="label" transform="translate(-55.5, -10)"><rect rx="0" ry="0" width="111.23130798339844" height="20.55244255065918"/><text style=""><tspan xml:space="preserve" dy="1em" x="0" class="row">HTTP/HTTPS</tspan></text></g></g><g class="edgeLabel" transform="translate(1005.99462890625, 885)"><g class="label" transform="translate(-55.5, -10)"><rect rx="0" ry="0" width="111.23130798339844" height="20.55244255065918"/><text style=""><tspan xml:space="preserve" dy="1em" x="0" class="row">HTTP/HTTPS</tspan></text></g></g><g class="edgeLabel" transform="translate(3032.30712890625, 1502)"><g class="label" transform="translate(-58.53125, -10)"><rect rx="0" ry="0" width="116.95623016357422" height="20.55244255065918"/><text style=""><tspan xml:space="preserve" dy="1em" x="0" class="row">service routing</tspan></text></g></g><g class="edgeLabel" transform="translate(2236.61181640625, 1087)"><g class="label" transform="translate(-58.53125, -10)"><rect rx="0" ry="0" width="116.95623016357422" height="20.55244255065918"/><text style=""><tspan xml:space="preserve" dy="1em" x="0" class="row">service routing</tspan></text></g></g><g class="edgeLabel" transform="translate(1024.55322265625, 1087)"><g class="label" transform="translate(-58.53125, -10)"><rect rx="0" ry="0" width="116.95623016357422" height="20.55244255065918"/><text style=""><tspan xml:space="preserve" dy="1em" x="0" class="row">service routing</tspan></text></g></g><g class="edgeLabel" transform="translate(1377.37744140625, 885)"><g class="label" transform="translate(-39.8515625, -10)"><rect rx="0" ry="0" width="79.61930084228516" height="20.55244255065918"/><text style=""><tspan xml:space="preserve" dy="1em" x="0" class="row">HTTP API</tspan></text></g></g><g class="edgeLabel" transform="translate(1924.46337890625, 1087)"><g class="label" transform="translate(-39.8515625, -10)"><rect rx="0" ry="0" width="79.61930084228516" height="20.55244255065918"/><text style=""><tspan xml:space="preserve" dy="1em" x="0" class="row">HTTP API</tspan></text></g></g><g class="edgeLabel" transform="translate(1630.99462890625, 1087)"><g class="label" transform="translate(-39.8515625, -10)"><rect rx="0" ry="0" width="79.61930084228516" height="20.55244255065918"/><text style=""><tspan xml:space="preserve" dy="1em" x="0" class="row">HTTP API</tspan></text></g></g><g class="edgeLabel" transform="translate(1997.83056640625, 1264)"><g class="label" transform="translate(-39.8515625, -10)"><rect rx="0" ry="0" width="79.61930084228516" height="20.55244255065918"/><text style=""><tspan xml:space="preserve" dy="1em" x="0" class="row">HTTP API</tspan></text></g></g><g class="edgeLabel" transform="translate(1704.36181640625, 1264)"><g class="label" transform="translate(-39.8515625, -10)"><rect rx="0" ry="0" width="79.61930084228516" height="20.55244255065918"/><text style=""><tspan xml:space="preserve" dy="1em" x="0" class="row">HTTP API</tspan></text></g></g><g class="edgeLabel" transform="translate(1777.72900390625, 1087)"><g class="label" transform="translate(-86.8828125, -10)"><rect rx="0" ry="0" width="173.60389709472656" height="20.55244255065918"/><text style=""><tspan xml:space="preserve" dy="1em" x="0" class="row">HTTP API automation</tspan></text></g></g><g class="edgeLabel" transform="translate(2071.19775390625, 1087)"><g class="label" transform="translate(-86.8828125, -10)"><rect rx="0" ry="0" width="173.60389709472656" height="20.55244255065918"/><text style=""><tspan xml:space="preserve" dy="1em" x="0" class="row">HTTP API automation</tspan></text></g></g><g class="edgeLabel" transform="translate(1524.11181640625, 885)"><g class="label" transform="translate(-86.8828125, -10)"><rect rx="0" ry="0" width="173.60389709472656" height="20.55244255065918"/><text style=""><tspan xml:space="preserve" dy="1em" x="0" class="row">HTTP API automation</tspan></text></g></g><g class="edgeLabel" transform="translate(3316.85400390625, 1668)"><g class="label" transform="translate(-39.515625, -10)"><rect rx="0" ry="0" width="78.97703552246094" height="20.55244255065918"/><text style=""><tspan xml:space="preserve" dy="1em" x="0" class="row">read/write</tspan></text></g></g><g class="edgeLabel" transform="translate(3424.640625, 1264)"><g class="label" transform="translate(-39.515625, -10)"><rect rx="0" ry="0" width="78.97703552246094" height="20.55244255065918"/><text style=""><tspan xml:space="preserve" dy="1em" x="0" class="row">read/write</tspan></text></g></g><g class="edgeLabel" transform="translate(3484.15625, 1502)"><g class="label" transform="translate(-39.515625, -10)"><rect rx="0" ry="0" width="78.97703552246094" height="20.55244255065918"/><text style=""><tspan xml:space="preserve" dy="1em" x="0" class="row">read/write</tspan></text></g></g><g class="edgeLabel" transform="translate(3543.671875, 1264)"><g class="label" transform="translate(-39.515625, -10)"><rect rx="0" ry="0" width="78.97703552246094" height="20.55244255065918"/><text style=""><tspan xml:space="preserve" dy="1em" x="0" class="row">read/write</tspan></text></g></g><g class="edgeLabel" transform="translate(3640.734375, 1502)"><g class="label" transform="translate(-77.0625, -10)"><rect rx="0" ry="0" width="154.5734100341797" height="20.55244255065918"/><text style=""><tspan xml:space="preserve" dy="1em" x="0" class="row">download payloads</tspan></text></g></g><g class="edgeLabel" transform="translate(3753.53125, 1264)"><g class="label" transform="translate(-91.2890625, -10)"><rect rx="0" ry="0" width="182.42431640625" height="20.55244255065918"/><text style=""><tspan xml:space="preserve" dy="1em" x="0" class="row">import + hardlink/move</tspan></text></g></g><g class="edgeLabel" transform="translate(4047.4296875, 1264)"><g class="label" transform="translate(-59.53125, -10)"><rect rx="0" ry="0" width="118.94725036621094" height="20.55244255065918"/><text style=""><tspan xml:space="preserve" dy="1em" x="0" class="row">library manage</tspan></text></g></g><g class="edgeLabel" transform="translate(4112.96484375, 1668)"><g class="label" transform="translate(-45.0234375, -10)"><rect rx="0" ry="0" width="89.95974731445312" height="20.55244255065918"/><text style=""><tspan xml:space="preserve" dy="1em" x="0" class="row">library read</tspan></text></g></g><g class="edgeLabel" transform="translate(3916.359375, 1264)"><g class="label" transform="translate(-51.5390625, -10)"><rect rx="0" ry="0" width="102.9762954711914" height="20.55244255065918"/><text style=""><tspan xml:space="preserve" dy="1em" x="0" class="row">maintenance</tspan></text></g></g><g class="edgeLabel" transform="translate(4178.5, 1264)"><g class="label" transform="translate(-51.5390625, -10)"><rect rx="0" ry="0" width="102.9762954711914" height="20.55244255065918"/><text style=""><tspan xml:space="preserve" dy="1em" x="0" class="row">maintenance</tspan></text></g></g><g class="edgeLabel" transform="translate(2315.14306640625, 1264)"><g class="label" transform="translate(-29.5078125, -10)"><rect rx="0" ry="0" width="59.283203125" height="20.55244255065918"/><text style=""><tspan xml:space="preserve" dy="1em" x="0" class="row">HTTPS</tspan></text></g></g><g class="edgeLabel" transform="translate(2394.15869140625, 1264)"><g class="label" transform="translate(-29.5078125, -10)"><rect rx="0" ry="0" width="59.283203125" height="20.55244255065918"/><text style=""><tspan xml:space="preserve" dy="1em" x="0" class="row">HTTPS</tspan></text></g></g><g class="edgeLabel" transform="translate(2510.66259765625, 1668)"><g class="label" transform="translate(-29.5078125, -10)"><rect rx="0" ry="0" width="59.283203125" height="20.55244255065918"/><text style=""><tspan xml:space="preserve" dy="1em" x="0" class="row">HTTPS</tspan></text></g></g><g class="edgeLabel" transform="translate(2615.67041015625, 1668)"><g class="label" transform="translate(-55.5, -10)"><rect rx="0" ry="0" width="111.23130798339844" height="20.55244255065918"/><text style=""><tspan xml:space="preserve" dy="1em" x="0" class="row">HTTP/HTTPS</tspan></text></g></g><g class="edgeLabel" transform="translate(2827.65869140625, 1264)"><g class="label" transform="translate(-29.5078125, -10)"><rect rx="0" ry="0" width="59.283203125" height="20.55244255065918"/><text style=""><tspan xml:space="preserve" dy="1em" x="0" class="row">HTTPS</tspan></text></g></g><g class="edgeLabel" transform="translate(2906.67431640625, 1264)"><g class="label" transform="translate(-29.5078125, -10)"><rect rx="0" ry="0" width="59.283203125" height="20.55244255065918"/><text style=""><tspan xml:space="preserve" dy="1em" x="0" class="row">HTTPS</tspan></text></g></g><g class="edgeLabel" transform="translate(3102.70947265625, 1668)"><g class="label" transform="translate(-29.5078125, -10)"><rect rx="0" ry="0" width="59.283203125" height="20.55244255065918"/><text style=""><tspan xml:space="preserve" dy="1em" x="0" class="row">HTTPS</tspan></text></g></g><g class="edgeLabel" transform="translate(390.25022, 135.93876)"><g class="label" transform="translate(-76.5546875, -10)"><rect rx="0" ry="0" width="153.5548095703125" height="20.55244255065918"/><text style=""><tspan xml:space="preserve" dy="1em" x="0" class="row">applies to all zones</tspan></text></g></g><g class="edgeLabel" transform="translate(977.10274, 128.41972)"><g class="label" transform="translate(-76.5546875, -10)"><rect rx="0" ry="0" width="153.5548095703125" height="20.55244255065918"/><text style=""><tspan xml:space="preserve" dy="1em" x="0" class="row">applies to all zones</tspan></text></g></g><g class="edgeLabel" transform="translate(228.97119, 581.49893)"><g class="label" transform="translate(-76.5546875, -10)"><rect rx="0" ry="0" width="153.5548095703125" height="20.55244255065918"/><text style=""><tspan xml:space="preserve" dy="1em" x="0" class="row">applies to all zones</tspan></text></g></g><g class="edgeLabel" transform="translate(2217.43204, 109.80373)"><g class="label" transform="translate(-76.5546875, -10)"><rect rx="0" ry="0" width="153.5548095703125" height="20.55244255065918"/><text style=""><tspan xml:space="preserve" dy="1em" x="0" class="row">applies to all zones</tspan></text></g></g><g class="edgeLabel" transform="translate(3583.35706, 125.32925)"><g class="label" transform="translate(-76.5546875, -10)"><rect rx="0" ry="0" width="153.5548095703125" height="20.55244255065918"/><text style=""><tspan xml:space="preserve" dy="1em" x="0" class="row">applies to all zones</tspan></text></g></g><g class="edgeLabel" transform="translate(76.55469, 1228.08867)"><g class="label" transform="translate(-76.5546875, -10)"><rect rx="0" ry="0" width="153.5548095703125" height="20.55244255065918"/><text style=""><tspan xml:space="preserve" dy="1em" x="0" class="row">applies to all zones</tspan></text></g></g></g><g class="nodes"><g class="node default default flowchart-label" id="flowchart-IDX-15" data-node="true" data-id="IDX" transform="translate(815.04150390625, 1763.5)"><rect class="basic label-container" style="" rx="0" ry="0" x="-149.046875" y="-17.5" width="298.09375" height="35"/><g class="label" style="" transform="translate(0, -10)"><rect/><text style=""><tspan xml:space="preserve" dy="1em" x="0" class="row">Indexers / Trackers / NZB providers</tspan></text></g></g><g class="node default default flowchart-label" id="flowchart-META-16" data-node="true" data-id="META" transform="translate(2418.91259765625, 1763.5)"><rect class="basic label-container" style="" rx="0" ry="0" x="-147.890625" y="-26.5" width="295.78125" height="53"/><g class="label" style="" transform="translate(0, -19)"><rect/><text style=""><tspan xml:space="preserve" dy="1em" x="0" class="row">Metadata + subtitle providers</tspan><tspan xml:space="preserve" dy="1em" x="0" class="row">TMDB / TVDB / OpenSubtitles / etc</tspan></text></g></g><g class="node default default flowchart-label" id="flowchart-IPTV-17" data-node="true" data-id="IPTV" transform="translate(2717.99072265625, 1763.5)"><rect class="basic label-container" style="" rx="0" ry="0" x="-90.6171875" y="-17.5" width="181.234375" height="35"/><g class="label" style="" transform="translate(0, -10)"><rect/><text style=""><tspan xml:space="preserve" dy="1em" x="0" class="row">M3U + XMLTV feeds</tspan></text></g></g><g class="node default default flowchart-label" id="flowchart-NTFY-18" data-node="true" data-id="NTFY" transform="translate(3016.34228515625, 1763.5)"><rect class="basic label-container" style="" rx="0" ry="0" x="-157.734375" y="-26.5" width="315.46875" height="53"/><g class="label" style="" transform="translate(0, -19)"><rect/><text style=""><tspan xml:space="preserve" dy="1em" x="0" class="row">Notifications</tspan><tspan xml:space="preserve" dy="1em" x="0" class="row">Webhook / Discord / Telegram / Email</tspan></text></g></g><g class="node default default flowchart-label" id="flowchart-PVC_CFG-12" data-node="true" data-id="PVC_CFG" transform="translate(3532.2109375, 1763.5)"><rect class="basic label-container" style="" rx="0" ry="0" x="-100.5546875" y="-26.5" width="201.109375" height="53"/><g class="label" style="" transform="translate(0, -19)"><rect/><text style=""><tspan xml:space="preserve" dy="1em" x="0" class="row">Config PVC set</tspan><tspan xml:space="preserve" dy="1em" x="0" class="row">per app config volumes</tspan></text></g></g><g class="node default default flowchart-label" id="flowchart-PVC_DATA-13" data-node="true" data-id="PVC_DATA" transform="translate(3803.09375, 1763.5)"><rect class="basic label-container" style="" rx="0" ry="0" x="-120.328125" y="-26.5" width="240.65625" height="53"/><g class="label" style="" transform="translate(0, -19)"><rect/><text style=""><tspan xml:space="preserve" dy="1em" x="0" class="row">Download PVC set</tspan><tspan xml:space="preserve" dy="1em" x="0" class="row">/data/torrents + /data/usenet</tspan></text></g></g><g class="node default default flowchart-label" id="flowchart-PVC_MEDIA-14" data-node="true" data-id="PVC_MEDIA" transform="translate(4129.87109375, 1763.5)"><rect class="basic label-container" style="" rx="0" ry="0" x="-124.3046875" y="-35.5" width="248.609375" height="71"/><g class="label" style="" transform="translate(0, -28)"><rect/><text style=""><tspan xml:space="preserve" dy="1em" x="0" class="row">Media PVC</tspan><tspan xml:space="preserve" dy="1em" x="0" class="row">/media/movies + /media/tv</tspan><tspan xml:space="preserve" dy="1em" x="0" class="row">/media/music + /media/books</tspan></text></g></g><g class="node default default flowchart-label" id="flowchart-P_UI-8" data-node="true" data-id="P_UI" transform="translate(3229.07666015625, 1572.5)"><rect class="basic label-container" style="" rx="0" ry="0" x="-121.0576171875" y="-35.5" width="242.115234375" height="71"/><g class="label" style="" transform="translate(0, -28)"><rect/><text style=""><tspan xml:space="preserve" dy="1em" x="0" class="row">UI/Portal Deployments</tspan><tspan xml:space="preserve" dy="1em" x="0" class="row">homepage, jellyfin, jellyseerr</tspan><tspan xml:space="preserve" dy="1em" x="0" class="row">replicas: 1..N</tspan></text></g></g><g class="node default default flowchart-label" id="flowchart-P_ARR-9" data-node="true" data-id="P_ARR" transform="translate(1895.328125, 780.5)"><rect class="basic label-container" style="" rx="0" ry="0" x="-117.53125" y="-44.5" width="235.0625" height="89"/><g class="label" style="" transform="translate(0, -37)"><rect/><text style=""><tspan xml:space="preserve" dy="1em" x="0" class="row">ARR/Prowlarr Deployments</tspan><tspan xml:space="preserve" dy="1em" x="0" class="row">sonarr, radarr, lidarr,</tspan><tspan xml:space="preserve" dy="1em" x="0" class="row">readarr, bazarr, prowlarr</tspan><tspan xml:space="preserve" dy="1em" x="0" class="row">replicas: 1..N</tspan></text></g></g><g class="node default default flowchart-label" id="flowchart-P_DL-10" data-node="true" data-id="P_DL" transform="translate(2648.08056640625, 1175.5)"><rect class="basic label-container" style="" rx="0" ry="0" x="-144.578125" y="-53.5" width="289.15625" height="107"/><g class="label" style="" transform="translate(0, -46)"><rect/><text style=""><tspan xml:space="preserve" dy="1em" x="0" class="row">Downloader/Support Deployments</tspan><tspan xml:space="preserve" dy="1em" x="0" class="row">qbittorrent, sabnzbd,</tspan><tspan xml:space="preserve" dy="1em" x="0" class="row">flaresolverr, unpackerr,</tspan><tspan xml:space="preserve" dy="1em" x="0" class="row">tautulli, maintainerr</tspan><tspan xml:space="preserve" dy="1em" x="0" class="row">replicas: 0..N</tspan></text></g></g><g class="node default default flowchart-label" id="flowchart-P_JOB-11" data-node="true" data-id="P_JOB" transform="translate(2462.37353515625, 780.5)"><rect class="basic label-container" style="" rx="0" ry="0" x="-93.5625" y="-35.5" width="187.125" height="71"/><g class="label" style="" transform="translate(0, -28)"><rect/><text style=""><tspan xml:space="preserve" dy="1em" x="0" class="row">Jobs/CronJobs</tspan><tspan xml:space="preserve" dy="1em" x="0" class="row">bootstrap, prewarm,</tspan><tspan xml:space="preserve" dy="1em" x="0" class="row">auto-indexer, hygiene</tspan></text></g></g><g class="node default default flowchart-label" id="flowchart-S_UI-5" data-node="true" data-id="S_UI" transform="translate(366.57666015625, 1370.5)"><rect class="basic label-container" style="" rx="0" ry="0" x="-114.359375" y="-62.5" width="228.71875" height="125"/><g class="label" style="" transform="translate(0, -55)"><rect/><text style=""><tspan xml:space="preserve" dy="1em" x="0" class="row">ClusterIP services (UI/API)</tspan><tspan xml:space="preserve" dy="1em" x="0" class="row">svc/homepage:3000</tspan><tspan xml:space="preserve" dy="1em" x="0" class="row">svc/jellyfin:8096</tspan><tspan xml:space="preserve" dy="1em" x="0" class="row">svc/jellyseerr:5055</tspan><tspan xml:space="preserve" dy="1em" x="0" class="row">svc/tautulli:8181</tspan><tspan xml:space="preserve" dy="1em" x="0" class="row">svc/maintainerr:6246</tspan></text></g></g><g class="node default default flowchart-label" id="flowchart-S_STACK-6" data-node="true" data-id="S_STACK" transform="translate(799.93603515625, 1370.5)"><rect class="basic label-container" style="" rx="0" ry="0" x="-132.8828125" y="-71.5" width="265.765625" height="143"/><g class="label" style="" transform="translate(0, -64)"><rect/><text style=""><tspan xml:space="preserve" dy="1em" x="0" class="row">ClusterIP services (automation)</tspan><tspan xml:space="preserve" dy="1em" x="0" class="row">svc/sonarr:8989</tspan><tspan xml:space="preserve" dy="1em" x="0" class="row">svc/radarr:7878</tspan><tspan xml:space="preserve" dy="1em" x="0" class="row">svc/lidarr:8686</tspan><tspan xml:space="preserve" dy="1em" x="0" class="row">svc/readarr:8787</tspan><tspan xml:space="preserve" dy="1em" x="0" class="row">svc/bazarr:6767</tspan><tspan xml:space="preserve" dy="1em" x="0" class="row">svc/prowlarr:9696</tspan></text></g></g><g class="node default default flowchart-label" id="flowchart-S_DL-7" data-node="true" data-id="S_DL" transform="translate(1024.55322265625, 998.5)"><rect class="basic label-container" style="" rx="0" ry="0" x="-154.8984375" y="-53.5" width="309.796875" height="107"/><g class="label" style="" transform="translate(0, -46)"><rect/><text style=""><tspan xml:space="preserve" dy="1em" x="0" class="row">ClusterIP services (download clients)</tspan><tspan xml:space="preserve" dy="1em" x="0" class="row">svc/qbittorrent:8080</tspan><tspan xml:space="preserve" dy="1em" x="0" class="row">svc/sabnzbd:8080</tspan><tspan xml:space="preserve" dy="1em" x="0" class="row">svc/flaresolverr:8191</tspan><tspan xml:space="preserve" dy="1em" x="0" class="row">svc/unpackerr:5656</tspan></text></g></g><g class="node default default flowchart-label" id="flowchart-INGR-3" data-node="true" data-id="INGR" transform="translate(826.13671875, 780.5)"><rect class="basic label-container" style="" rx="0" ry="0" x="-122.3828125" y="-35.5" width="244.765625" height="71"/><g class="label" style="" transform="translate(0, -28)"><rect/><text style=""><tspan xml:space="preserve" dy="1em" x="0" class="row">Ingress Controller</tspan><tspan xml:space="preserve" dy="1em" x="0" class="row">Traefik or NGINX</tspan><tspan xml:space="preserve" dy="1em" x="0" class="row">HTTP and HTTPS entrypoint</tspan></text></g></g><g class="node default default flowchart-label" id="flowchart-HOSTS-4" data-node="true" data-id="HOSTS" transform="translate(892.74462890625, 544.5)"><rect class="basic label-container" style="" rx="0" ry="0" x="-154.5703125" y="-71.5" width="309.140625" height="143"/><g class="label" style="" transform="translate(0, -64)"><rect/><text style=""><tspan xml:space="preserve" dy="1em" x="0" class="row">Ingress host rules</tspan><tspan xml:space="preserve" dy="1em" x="0" class="row">homepage.local, jellyfin.local,</tspan><tspan xml:space="preserve" dy="1em" x="0" class="row">jellyseerr.local, sonarr.local,</tspan><tspan xml:space="preserve" dy="1em" x="0" class="row">radarr.local, lidarr.local, readarr.local,</tspan><tspan xml:space="preserve" dy="1em" x="0" class="row">bazarr.local, prowlarr.local,</tspan><tspan xml:space="preserve" dy="1em" x="0" class="row">qbittorrent.local, sabnzbd.local,</tspan><tspan xml:space="preserve" dy="1em" x="0" class="row">tautulli.local, maintainerr.local</tspan></text></g></g><g class="node default default flowchart-label" id="flowchart-U-0" data-node="true" data-id="U" transform="translate(397.26806640625, 228.5)"><rect class="basic label-container" style="" rx="0" ry="0" x="-78.703125" y="-26.5" width="157.40625" height="53"/><g class="label" style="" transform="translate(0, -19)"><rect/><text style=""><tspan xml:space="preserve" dy="1em" x="0" class="row">Users</tspan><tspan xml:space="preserve" dy="1em" x="0" class="row">Web / Mobile / TV</tspan></text></g></g><g class="node default default flowchart-label" id="flowchart-DNS-1" data-node="true" data-id="DNS" transform="translate(397.26806640625, 351.5)"><rect class="basic label-container" style="" rx="0" ry="0" x="-113.296875" y="-26.5" width="226.59375" height="53"/><g class="label" style="" transform="translate(0, -19)"><rect/><text style=""><tspan xml:space="preserve" dy="1em" x="0" class="row">LAN DNS + host overrides</tspan><tspan xml:space="preserve" dy="1em" x="0" class="row">*.local records</tspan></text></g></g><g class="node default default flowchart-label" id="flowchart-FW-2" data-node="true" data-id="FW" transform="translate(397.26806640625, 544.5)"><rect class="basic label-container" style="" rx="0" ry="0" x="-97.85400390625" y="-17.5" width="195.7080078125" height="35"/><g class="label" style="" transform="translate(0, -10)"><rect/><text style=""><tspan xml:space="preserve" dy="1em" x="0" class="row">Router / Firewall / NAT</tspan></text></g></g><g class="node default default flowchart-label" id="flowchart-NOTE-19" data-node="true" data-id="NOTE" transform="translate(294.80078125, 53.5)"><rect class="basic label-container" style="" rx="0" ry="0" x="-254.453125" y="-53.5" width="508.90625" height="107"/><g class="label" style="" transform="translate(0, -46)"><rect/><text style=""><tspan xml:space="preserve" dy="1em" x="0" class="row">Legend / scaling notes</tspan><tspan xml:space="preserve" dy="1em" x="0" class="row">1) Pod IPs are dynamic per restart/scale event.</tspan><tspan xml:space="preserve" dy="1em" x="0" class="row">2) Service ClusterIP + DNS names are stable in-cluster.</tspan><tspan xml:space="preserve" dy="1em" x="0" class="row">3) Scaling changes pod count, not service hostname contract.</tspan><tspan xml:space="preserve" dy="1em" x="0" class="row">4) CIDR values above are examples and may differ by cluster.</tspan></text></g></g></g></g></g></svg>