<svg aria-roledescription="flowchart-v2" role="graphics-document document" viewBox="-8 -8 303.47265625 630" style="max-width: 303.473px; background-color: white;" xmlns:xlink="http://www.w3.org/1999/xlink" xmlns="http://www.w3.org/2000/svg" width="100%" id="my-svg"><style>#my-svg{font-family:"trebuchet ms",verdana,arial,sans-serif;font-size:16px;fill:#333;}#my-svg .error-icon{fill:#552222;}#my-svg .error-text{fill:#552222;stroke:#552222;}#my-svg .edge-thickness-normal{stroke-width:2px;}#my-svg .edge-thickness-thick{stroke-width:3.5px;}#my-svg .edge-pattern-solid{stroke-dasharray:0;}#my-svg .edge-pattern-dashed{stroke-dasharray:3;}#my-svg .edge-pattern-dotted{stroke-dasharray:2;}#my-svg .marker{fill:#333333;stroke:#333333;}#my-svg .marker.cross{stroke:#333333;}#my-svg svg{font-family:"trebuchet ms",verdana,arial,sans-serif;font-size:16px;}#my-svg .label{font-family:"trebuchet ms",verdana,arial,sans-serif;color:#333;}#my-svg .cluster-label text{fill:#333;}#my-svg .cluster-label span,#my-svg p{color:#333;}#my-svg .label text,#my-svg span,#my-svg p{fill:#333;color:#333;}#my-svg .node rect,#my-svg .node circle,#my-svg .node ellipse,#my-svg .node polygon,#my-svg .node path{fill:#ECECFF;stroke:#9370DB;stroke-width:1px;}#my-svg .flowchart-label text{text-anchor:middle;}#my-svg .node .katex path{fill:#000;stroke:#000;stroke-width:1px;}#my-svg .node .label{text-align:center;}#my-svg .node.clickable{cursor:pointer;}#my-svg .arrowheadPath{fill:#333333;}#my-svg .edgePath .path{stroke:#333333;stroke-width:2.0px;}#my-svg .flowchart-link{stroke:#333333;fill:none;}#my-svg .edgeLabel{background-color:#e8e8e8;text-align:center;}#my-svg .edgeLabel rect{opacity:0.5;background-color:#e8e8e8;fill:#e8e8e8;}#my-svg .labelBkg{background-color:rgba(232, 232, 232, 0.5);}#my-svg .cluster rect{fill:#ffffde;stroke:#aaaa33;stroke-width:1px;}#my-svg .cluster text{fill:#333;}#my-svg .cluster span,#my-svg p{color:#333;}#my-svg div.mermaidTooltip{position:absolute;text-align:center;max-width:200px;padding:2px;font-family:"trebuchet ms",verdana,arial,sans-serif;font-size:12px;background:hsl(80, 100%, 96.2745098039%);border:1px solid #aaaa33;border-radius:2px;pointer-events:none;z-index:100;}#my-svg .flowchartTitleText{text-anchor:middle;font-size:18px;fill:#333;}#my-svg :root{--mermaid-font-family:"trebuchet ms",verdana,arial,sans-serif;}</style><g><marker orient="auto" markerHeight="12" markerWidth="12" markerUnits="userSpaceOnUse" refY="5" refX="6" viewBox="0 0 10 10" class="marker flowchart" id="my-svg_flowchart-pointEnd"><path style="stroke-width: 1; stroke-dasharray: 1, 0;" class="arrowMarkerPath" d="M 0 0 L 10 5 L 0 10 z"/></marker><marker orient="auto" markerHeight="12" markerWidth="12" markerUnits="userSpaceOnUse" refY="5" refX="4.5" viewBox="0 0 10 10" class="marker flowchart" id="my-svg_flowchart-pointStart"><path style="stroke-width: 1; stroke-dasharray: 1, 0;" class="arrowMarkerPath" d="M 0 5 L 10 10 L 10 0 z"/></marker><marker orient="auto" markerHeight="11" markerWidth="11" markerUnits="userSpaceOnUse" refY="5" refX="11" viewBox="0 0 10 10" class="marker flowchart" id="my-svg_flowchart-circleEnd"><circle style="stroke-width: 1; stroke-dasharray: 1, 0;" class="arrowMarkerPath" r="5" cy="5" cx="5"/></marker><marker orient="auto" markerHeight="11" markerWidth="11" markerUnits="userSpaceOnUse" refY="5" refX="-1" viewBox="0 0 10 10" class="marker flowchart" id="my-svg_flowchart-circleStart"><circle style="stroke-width: 1; stroke-dasharray: 1, 0;" class="arrowMarkerPath" r="5" cy="5" cx="5"/></marker><marker orient="auto" markerHeight="11" markerWidth="11" markerUnits="userSpaceOnUse" refY="5.2" refX="12" viewBox="0 0 11 11" class="marker cross flowchart" id="my-svg_flowchart-crossEnd"><path style="stroke-width: 2; stroke-dasharray: 1, 0;" class="arrowMarkerPath" d="M 1,1 l 9,9 M 10,1 l -9,9"/></marker><marker orient="auto" markerHeight="11" markerWidth="11" markerUnits="userSpaceOnUse" refY="5.2" refX="-1" viewBox="0 0 11 11" class="marker cross flowchart" id="my-svg_flowchart-crossStart"><path style="stroke-width: 2; stroke-dasharray: 1, 0;" class="arrowMarkerPath" d="M 1,1 l 9,9 M 10,1 l -9,9"/></marker><g class="root"><g class="clusters"/><g class="edgePaths"><path marker-end="url(#my-svg_flowchart-pointEnd)" style="fill:none;" class="edge-thickness-normal edge-pattern-solid flowchart-link LS-PLAN LE-CODE" id="L-PLAN-CODE-0" d="M165.518,33L157.782,37.167C150.046,41.333,134.574,49.667,126.838,57.117C119.102,64.567,119.102,71.133,119.102,74.417L119.102,77.7"/><path marker-end="url(#my-svg_flowchart-pointEnd)" style="fill:none;" class="edge-thickness-normal edge-pattern-solid flowchart-link LS-CODE LE-TEST" id="L-CODE-TEST-0" d="M119.102,116L119.102,120.167C119.102,124.333,119.102,132.667,119.102,140.117C119.102,147.567,119.102,154.133,119.102,157.417L119.102,160.7"/><path marker-end="url(#my-svg_flowchart-pointEnd)" style="fill:none;" class="edge-thickness-normal edge-pattern-solid flowchart-link LS-TEST LE-APPLY" id="L-TEST-APPLY-0" d="M119.102,199L119.102,203.167C119.102,207.333,119.102,215.667,119.102,223.117C119.102,230.567,119.102,237.133,119.102,240.417L119.102,243.7"/><path marker-end="url(#my-svg_flowchart-pointEnd)" style="fill:none;" class="edge-thickness-normal edge-pattern-solid flowchart-link LS-APPLY LE-BOOT" id="L-APPLY-BOOT-0" d="M119.102,282L119.102,286.167C119.102,290.333,119.102,298.667,119.102,306.117C119.102,313.567,119.102,320.133,119.102,323.417L119.102,326.7"/><path marker-end="url(#my-svg_flowchart-pointEnd)" style="fill:none;" class="edge-thickness-normal edge-pattern-solid flowchart-link LS-BOOT LE-VERIFY" id="L-BOOT-VERIFY-0" d="M119.102,365L119.102,369.167C119.102,373.333,119.102,381.667,119.102,389.117C119.102,396.567,119.102,403.133,119.102,406.417L119.102,409.7"/><path marker-end="url(#my-svg_flowchart-pointEnd)" style="fill:none;" class="edge-thickness-normal edge-pattern-solid flowchart-link LS-VERIFY LE-PROMOTE" id="L-VERIFY-PROMOTE-0" d="M119.102,448L119.102,452.167C119.102,456.333,119.102,464.667,119.102,472.117C119.102,479.567,119.102,486.133,119.102,489.417L119.102,492.7"/><path marker-end="url(#my-svg_flowchart-pointEnd)" style="fill:none;" class="edge-thickness-normal edge-pattern-solid flowchart-link LS-PROMOTE LE-MONITOR" id="L-PROMOTE-MONITOR-0" d="M119.102,531L119.102,535.167C119.102,539.333,119.102,547.667,126.06,555.581C133.018,563.496,146.935,570.991,153.893,574.739L160.851,578.487"/><path marker-end="url(#my-svg_flowchart-pointEnd)" style="fill:none;" class="edge-thickness-normal edge-pattern-solid flowchart-link LS-MONITOR LE-PLAN" id="L-MONITOR-PLAN-0" d="M226.787,581L234.523,576.833C242.259,572.667,257.731,564.333,265.467,553.25C273.203,542.167,273.203,528.333,273.203,514.5C273.203,500.667,273.203,486.833,273.203,473C273.203,459.167,273.203,445.333,273.203,431.5C273.203,417.667,273.203,403.833,273.203,390C273.203,376.167,273.203,362.333,273.203,348.5C273.203,334.667,273.203,320.833,273.203,307C273.203,293.167,273.203,279.333,273.203,265.5C273.203,251.667,273.203,237.833,273.203,224C273.203,210.167,273.203,196.333,273.203,182.5C273.203,168.667,273.203,154.833,273.203,141C273.203,127.167,273.203,113.333,273.203,99.5C273.203,85.667,273.203,71.833,266.245,61.169C259.286,50.504,245.37,43.009,238.412,39.261L231.453,35.513"/></g><g class="edgeLabels"><g class="edgeLabel"><g transform="translate(0, 0)" class="label"><foreignObject height="0" width="0"><div style="display: inline-block; white-space: nowrap;" xmlns="http://www.w3.org/1999/xhtml"><span class="edgeLabel"></span></div></foreignObject></g></g><g class="edgeLabel"><g transform="translate(0, 0)" class="label"><foreignObject height="0" width="0"><div style="display: inline-block; white-space: nowrap;" xmlns="http://www.w3.org/1999/xhtml"><span class="edgeLabel"></span></div></foreignObject></g></g><g class="edgeLabel"><g transform="translate(0, 0)" class="label"><foreignObject height="0" width="0"><div style="display: inline-block; white-space: nowrap;" xmlns="http://www.w3.org/1999/xhtml"><span class="edgeLabel"></span></div></foreignObject></g></g><g class="edgeLabel"><g transform="translate(0, 0)" class="label"><foreignObject height="0" width="0"><div style="display: inline-block; white-space: nowrap;" xmlns="http://www.w3.org/1999/xhtml"><span class="edgeLabel"></span></div></foreignObject></g></g><g class="edgeLabel"><g transform="translate(0, 0)" class="label"><foreignObject height="0" width="0"><div style="display: inline-block; white-space: nowrap;" xmlns="http://www.w3.org/1999/xhtml"><span class="edgeLabel"></span></div></foreignObject></g></g><g class="edgeLabel"><g transform="translate(0, 0)" class="label"><foreignObject height="0" width="0"><div style="display: inline-block; white-space: nowrap;" xmlns="http://www.w3.org/1999/xhtml"><span class="edgeLabel"></span></div></foreignObject></g></g><g class="edgeLabel"><g transform="translate(0, 0)" class="label"><foreignObject height="0" width="0"><div style="display: inline-block; white-space: nowrap;" xmlns="http://www.w3.org/1999/xhtml"><span class="edgeLabel"></span></div></foreignObject></g></g><g class="edgeLabel"><g transform="translate(0, 0)" class="label"><foreignObject height="0" width="0"><div style="display: inline-block; white-space: nowrap;" xmlns="http://www.w3.org/1999/xhtml"><span class="edgeLabel"></span></div></foreignObject></g></g></g><g class="nodes"><g transform="translate(196.15234375, 16.5)" data-id="PLAN" data-node="true" id="flowchart-PLAN-0" class="node default default flowchart-label"><rect height="33" width="103.96875" y="-16.5" x="-51.984375" ry="0" rx="0" style="" class="basic label-container"/><g transform="translate(-44.484375, -9)" style="" class="label"><rect/><foreignObject height="18" width="88.96875"><div style="display: inline-block; white-space: nowrap;" xmlns="http://www.w3.org/1999/xhtml"><span class="nodeLabel">Plan change</span></div></foreignObject></g></g><g transform="translate(119.1015625, 99.5)" data-id="CODE" data-node="true" id="flowchart-CODE-1" class="node default default flowchart-label"><rect height="33" width="171.53125" y="-16.5" x="-85.765625" ry="0" rx="0" style="" class="basic label-container"/><g transform="translate(-78.265625, -9)" style="" class="label"><rect/><foreignObject height="18" width="156.53125"><div style="display: inline-block; white-space: nowrap;" xmlns="http://www.w3.org/1999/xhtml"><span class="nodeLabel">Edit declarative config</span></div></foreignObject></g></g><g transform="translate(119.1015625, 182.5)" data-id="TEST" data-node="true" id="flowchart-TEST-2" class="node default default flowchart-label"><rect height="33" width="228.453125" y="-16.5" x="-114.2265625" ry="0" rx="0" style="" class="basic label-container"/><g transform="translate(-106.7265625, -9)" style="" class="label"><rect/><foreignObject height="18" width="213.453125"><div style="display: inline-block; white-space: nowrap;" xmlns="http://www.w3.org/1999/xhtml"><span class="nodeLabel">Test locally and in namespace</span></div></foreignObject></g></g><g transform="translate(119.1015625, 265.5)" data-id="APPLY" data-node="true" id="flowchart-APPLY-3" class="node default default flowchart-label"><rect height="33" width="158.203125" y="-16.5" x="-79.1015625" ry="0" rx="0" style="" class="basic label-container"/><g transform="translate(-71.6015625, -9)" style="" class="label"><rect/><foreignObject height="18" width="143.203125"><div style="display: inline-block; white-space: nowrap;" xmlns="http://www.w3.org/1999/xhtml"><span class="nodeLabel">Install/Rebuild apply</span></div></foreignObject></g></g><g transform="translate(119.1015625, 348.5)" data-id="BOOT" data-node="true" id="flowchart-BOOT-4" class="node default default flowchart-label"><rect height="33" width="151.96875" y="-16.5" x="-75.984375" ry="0" rx="0" style="" class="basic label-container"/><g transform="translate(-68.484375, -9)" style="" class="label"><rect/><foreignObject height="18" width="136.96875"><div style="display: inline-block; white-space: nowrap;" xmlns="http://www.w3.org/1999/xhtml"><span class="nodeLabel">Bootstrap reconcile</span></div></foreignObject></g></g><g transform="translate(119.1015625, 431.5)" data-id="VERIFY" data-node="true" id="flowchart-VERIFY-5" class="node default default flowchart-label"><rect height="33" width="207.953125" y="-16.5" x="-103.9765625" ry="0" rx="0" style="" class="basic label-container"/><g transform="translate(-96.4765625, -9)" style="" class="label"><rect/><foreignObject height="18" width="192.953125"><div style="display: inline-block; white-space: nowrap;" xmlns="http://www.w3.org/1999/xhtml"><span class="nodeLabel">verify-flow and smoke tests</span></div></foreignObject></g></g><g transform="translate(119.1015625, 514.5)" data-id="PROMOTE" data-node="true" id="flowchart-PROMOTE-6" class="node default default flowchart-label"><rect height="33" width="238.203125" y="-16.5" x="-119.1015625" ry="0" rx="0" style="" class="basic label-container"/><g transform="translate(-111.6015625, -9)" style="" class="label"><rect/><foreignObject height="18" width="223.203125"><div style="display: inline-block; white-space: nowrap;" xmlns="http://www.w3.org/1999/xhtml"><span class="nodeLabel">Promote to primary namespace</span></div></foreignObject></g></g><g transform="translate(196.15234375, 597.5)" data-id="MONITOR" data-node="true" id="flowchart-MONITOR-7" class="node default default flowchart-label"><rect height="33" width="182.640625" y="-16.5" x="-91.3203125" ry="0" rx="0" style="" class="basic label-container"/><g transform="translate(-83.8203125, -9)" style="" class="label"><rect/><foreignObject height="18" width="167.640625"><div style="display: inline-block; white-space: nowrap;" xmlns="http://www.w3.org/1999/xhtml"><span class="nodeLabel">Observe + backup drills</span></div></foreignObject></g></g></g></g></g></svg>