<svg id="my-svg" width="100%" xmlns="http://www.w3.org/2000/svg" xmlns:xlink="http://www.w3.org/1999/xlink" style="max-width: 334.879px; background-color: white;" viewBox="-8 -8 334.87890625 646" role="graphics-document document" aria-roledescription="flowchart-v2"><style>#my-svg{font-family:"trebuchet ms",verdana,arial,sans-serif;font-size:18px;fill:#000000;}#my-svg .error-icon{fill:#552222;}#my-svg .error-text{fill:#552222;stroke:#552222;}#my-svg .edge-thickness-normal{stroke-width:2px;}#my-svg .edge-thickness-thick{stroke-width:3.5px;}#my-svg .edge-pattern-solid{stroke-dasharray:0;}#my-svg .edge-pattern-dashed{stroke-dasharray:3;}#my-svg .edge-pattern-dotted{stroke-dasharray:2;}#my-svg .marker{fill:#1f2937;stroke:#1f2937;}#my-svg .marker.cross{stroke:#1f2937;}#my-svg svg{font-family:"trebuchet ms",verdana,arial,sans-serif;font-size:18px;}#my-svg .label{font-family:"trebuchet ms",verdana,arial,sans-serif;color:#000000;}#my-svg .cluster-label text{fill:#333;}#my-svg .cluster-label span,#my-svg p{color:#333;}#my-svg .label text,#my-svg span,#my-svg p{fill:#000000;color:#000000;}#my-svg .node rect,#my-svg .node circle,#my-svg .node ellipse,#my-svg .node polygon,#my-svg .node path{fill:#eee;stroke:#999;stroke-width:1px;}#my-svg .flowchart-label text{text-anchor:middle;}#my-svg .node .katex path{fill:#000;stroke:#000;stroke-width:1px;}#my-svg .node .label{text-align:center;}#my-svg .node.clickable{cursor:pointer;}#my-svg .arrowheadPath{fill:#333333;}#my-svg .edgePath .path{stroke:#1f2937;stroke-width:2.0px;}#my-svg .flowchart-link{stroke:#1f2937;fill:none;}#my-svg .edgeLabel{background-color:white;text-align:center;}#my-svg .edgeLabel rect{opacity:0.5;background-color:white;fill:white;}#my-svg .labelBkg{background-color:rgba(255, 255, 255, 0.5);}#my-svg .cluster rect{fill:#f8fafc;stroke:#334155;stroke-width:1px;}#my-svg .cluster text{fill:#333;}#my-svg .cluster span,#my-svg p{color:#333;}#my-svg div.mermaidTooltip{position:absolute;text-align:center;max-width:200px;padding:2px;font-family:"trebuchet ms",verdana,arial,sans-serif;font-size:12px;background:#fef9c3;border:1px solid #707070;border-radius:2px;pointer-events:none;z-index:100;}#my-svg .flowchartTitleText{text-anchor:middle;font-size:18px;fill:#000000;}#my-svg :root{--mermaid-font-family:"trebuchet ms",verdana,arial,sans-serif;}</style><g><marker id="my-svg_flowchart-pointEnd" class="marker flowchart" viewBox="0 0 10 10" refX="6" refY="5" markerUnits="userSpaceOnUse" markerWidth="12" markerHeight="12" orient="auto"><path d="M 0 0 L 10 5 L 0 10 z" class="arrowMarkerPath" style="stroke-width: 1; stroke-dasharray: 1, 0;"/></marker><marker id="my-svg_flowchart-pointStart" class="marker flowchart" viewBox="0 0 10 10" refX="4.5" refY="5" markerUnits="userSpaceOnUse" markerWidth="12" markerHeight="12" orient="auto"><path d="M 0 5 L 10 10 L 10 0 z" class="arrowMarkerPath" style="stroke-width: 1; stroke-dasharray: 1, 0;"/></marker><marker id="my-svg_flowchart-circleEnd" class="marker flowchart" viewBox="0 0 10 10" refX="11" refY="5" markerUnits="userSpaceOnUse" markerWidth="11" markerHeight="11" orient="auto"><circle cx="5" cy="5" r="5" class="arrowMarkerPath" style="stroke-width: 1; stroke-dasharray: 1, 0;"/></marker><marker id="my-svg_flowchart-circleStart" class="marker flowchart" viewBox="0 0 10 10" refX="-1" refY="5" markerUnits="userSpaceOnUse" markerWidth="11" markerHeight="11" orient="auto"><circle cx="5" cy="5" r="5" class="arrowMarkerPath" style="stroke-width: 1; stroke-dasharray: 1, 0;"/></marker><marker id="my-svg_flowchart-crossEnd" class="marker cross flowchart" viewBox="0 0 11 11" refX="12" refY="5.2" markerUnits="userSpaceOnUse" markerWidth="11" markerHeight="11" orient="auto"><path d="M 1,1 l 9,9 M 10,1 l -9,9" class="arrowMarkerPath" style="stroke-width: 2; stroke-dasharray: 1, 0;"/></marker><marker id="my-svg_flowchart-crossStart" class="marker cross flowchart" viewBox="0 0 11 11" refX="-1" refY="5.2" markerUnits="userSpaceOnUse" markerWidth="11" markerHeight="11" orient="auto"><path d="M 1,1 l 9,9 M 10,1 l -9,9" class="arrowMarkerPath" style="stroke-width: 2; stroke-dasharray: 1, 0;"/></marker><g class="root"><g class="clusters"/><g class="edgePaths"><path d="M182.483,35L174.245,39.167C166.007,43.333,149.531,51.667,141.293,59.117C133.055,66.567,133.055,73.133,133.055,76.417L133.055,79.7" id="L-PLAN-CODE-0" class=" edge-thickness-normal edge-pattern-solid flowchart-link LS-PLAN LE-CODE" style="fill:none;" marker-end="url(#my-svg_flowchart-pointEnd)"/><path d="M133.055,120L133.055,124.167C133.055,128.333,133.055,136.667,133.055,144.117C133.055,151.567,133.055,158.133,133.055,161.417L133.055,164.7" id="L-CODE-TEST-0" class=" edge-thickness-normal edge-pattern-solid flowchart-link LS-CODE LE-TEST" style="fill:none;" marker-end="url(#my-svg_flowchart-pointEnd)"/><path d="M133.055,205L133.055,209.167C133.055,213.333,133.055,221.667,133.055,229.117C133.055,236.567,133.055,243.133,133.055,246.417L133.055,249.7" id="L-TEST-APPLY-0" class=" edge-thickness-normal edge-pattern-solid flowchart-link LS-TEST LE-APPLY" style="fill:none;" marker-end="url(#my-svg_flowchart-pointEnd)"/><path d="M133.055,290L133.055,294.167C133.055,298.333,133.055,306.667,133.055,314.117C133.055,321.567,133.055,328.133,133.055,331.417L133.055,334.7" id="L-APPLY-BOOT-0" class=" edge-thickness-normal edge-pattern-solid flowchart-link LS-APPLY LE-BOOT" style="fill:none;" marker-end="url(#my-svg_flowchart-pointEnd)"/><path d="M133.055,375L133.055,379.167C133.055,383.333,133.055,391.667,133.055,399.117C133.055,406.567,133.055,413.133,133.055,416.417L133.055,419.7" id="L-BOOT-VERIFY-0" class=" edge-thickness-normal edge-pattern-solid flowchart-link LS-BOOT LE-VERIFY" style="fill:none;" marker-end="url(#my-svg_flowchart-pointEnd)"/><path d="M133.055,460L133.055,464.167C133.055,468.333,133.055,476.667,133.055,484.117C133.055,491.567,133.055,498.133,133.055,501.417L133.055,504.7" id="L-VERIFY-PROMOTE-0" class=" edge-thickness-normal edge-pattern-solid flowchart-link LS-VERIFY LE-PROMOTE" style="fill:none;" marker-end="url(#my-svg_flowchart-pointEnd)"/><path d="M133.055,545L133.055,549.167C133.055,553.333,133.055,561.667,140.504,569.601C147.954,577.536,162.854,585.072,170.303,588.84L177.753,592.608" id="L-PROMOTE-MONITOR-0" class=" edge-thickness-normal edge-pattern-solid flowchart-link LS-PROMOTE LE-MONITOR" style="fill:none;" marker-end="url(#my-svg_flowchart-pointEnd)"/><path d="M251.682,595L259.92,590.833C268.157,586.667,284.633,578.333,292.871,567.083C301.109,555.833,301.109,541.667,301.109,527.5C301.109,513.333,301.109,499.167,301.109,485C301.109,470.833,301.109,456.667,301.109,442.5C301.109,428.333,301.109,414.167,301.109,400C301.109,385.833,301.109,371.667,301.109,357.5C301.109,343.333,301.109,329.167,301.109,315C301.109,300.833,301.109,286.667,301.109,272.5C301.109,258.333,301.109,244.167,301.109,230C301.109,215.833,301.109,201.667,301.109,187.5C301.109,173.333,301.109,159.167,301.109,145C301.109,130.833,301.109,116.667,301.109,102.5C301.109,88.333,301.109,74.167,293.66,63.315C286.21,52.464,271.31,44.928,263.861,41.16L256.411,37.392" id="L-MONITOR-PLAN-0" class=" edge-thickness-normal edge-pattern-solid flowchart-link LS-MONITOR LE-PLAN" style="fill:none;" marker-end="url(#my-svg_flowchart-pointEnd)"/></g><g class="edgeLabels"><g class="edgeLabel"><g class="label" transform="translate(0, 0)"><rect rx="0" ry="0" width="0" height="0"/><text style=""><tspan xml:space="preserve" dy="1em" x="0" class="row"/></text></g></g><g class="edgeLabel"><g class="label" transform="translate(0, 0)"><rect rx="0" ry="0" width="0" height="0"/><text style=""><tspan xml:space="preserve" dy="1em" x="0" class="row"/></text></g></g><g class="edgeLabel"><g class="label" transform="translate(0, 0)"><rect rx="0" ry="0" width="0" height="0"/><text style=""><tspan xml:space="preserve" dy="1em" x="0" class="row"/></text></g></g><g class="edgeLabel"><g class="label" transform="translate(0, 0)"><rect rx="0" ry="0" width="0" height="0"/><text style=""><tspan xml:space="preserve" dy="1em" x="0" class="row"/></text></g></g><g class="edgeLabel"><g class="label" transform="translate(0, 0)"><rect rx="0" ry="0" width="0" height="0"/><text style=""><tspan xml:space="preserve" dy="1em" x="0" class="row"/></text></g></g><g class="edgeLabel"><g class="label" transform="translate(0, 0)"><rect rx="0" ry="0" width="0" height="0"/><text style=""><tspan xml:space="preserve" dy="1em" x="0" class="row"/></text></g></g><g class="edgeLabel"><g class="label" transform="translate(0, 0)"><rect rx="0" ry="0" width="0" height="0"/><text style=""><tspan xml:space="preserve" dy="1em" x="0" class="row"/></text></g></g><g class="edgeLabel"><g class="label" transform="translate(0, 0)"><rect rx="0" ry="0" width="0" height="0"/><text style=""><tspan xml:space="preserve" dy="1em" x="0" class="row"/></text></g></g></g><g class="nodes"><g class="node default default flowchart-label" id="flowchart-PLAN-0" data-node="true" data-id="PLAN" transform="translate(217.08203125, 17.5)"><rect class="basic label-container" style="" rx="0" ry="0" x="-57.546875" y="-17.5" width="115.09375" height="35"/><g class="label" style="" transform="translate(0, -10)"><rect/><text style=""><tspan xml:space="preserve" dy="1em" x="0" class="row">Plan change</tspan></text></g></g><g class="node default default flowchart-label" id="flowchart-CODE-1" data-node="true" data-id="CODE" transform="translate(133.0546875, 102.5)"><rect class="basic label-container" style="" rx="0" ry="0" x="-95.5546875" y="-17.5" width="191.109375" height="35"/><g class="label" style="" transform="translate(0, -10)"><rect/><text style=""><tspan xml:space="preserve" dy="1em" x="0" class="row">Edit declarative config</tspan></text></g></g><g class="node default default flowchart-label" id="flowchart-TEST-2" data-node="true" data-id="TEST" transform="translate(133.0546875, 187.5)"><rect class="basic label-container" style="" rx="0" ry="0" x="-127.5703125" y="-17.5" width="255.140625" height="35"/><g class="label" style="" transform="translate(0, -10)"><rect/><text style=""><tspan xml:space="preserve" dy="1em" x="0" class="row">Test locally and in namespace</tspan></text></g></g><g class="node default default flowchart-label" id="flowchart-APPLY-3" data-node="true" data-id="APPLY" transform="translate(133.0546875, 272.5)"><rect class="basic label-container" style="" rx="0" ry="0" x="-88.0546875" y="-17.5" width="176.109375" height="35"/><g class="label" style="" transform="translate(0, -10)"><rect/><text style=""><tspan xml:space="preserve" dy="1em" x="0" class="row">Install/Rebuild apply</tspan></text></g></g><g class="node default default flowchart-label" id="flowchart-BOOT-4" data-node="true" data-id="BOOT" transform="translate(133.0546875, 357.5)"><rect class="basic label-container" style="" rx="0" ry="0" x="-84.546875" y="-17.5" width="169.09375" height="35"/><g class="label" style="" transform="translate(0, -10)"><rect/><text style=""><tspan xml:space="preserve" dy="1em" x="0" class="row">Bootstrap reconcile</tspan></text></g></g><g class="node default default flowchart-label" id="flowchart-VERIFY-5" data-node="true" data-id="VERIFY" transform="translate(133.0546875, 442.5)"><rect class="basic label-container" style="" rx="0" ry="0" x="-116.0390625" y="-17.5" width="232.078125" height="35"/><g class="label" style="" transform="translate(0, -10)"><rect/><text style=""><tspan xml:space="preserve" dy="1em" x="0" class="row">verify-flow and smoke tests</tspan></text></g></g><g class="node default default flowchart-label" id="flowchart-PROMOTE-6" data-node="true" data-id="PROMOTE" transform="translate(133.0546875, 527.5)"><rect class="basic label-container" style="" rx="0" ry="0" x="-133.0546875" y="-17.5" width="266.109375" height="35"/><g class="label" style="" transform="translate(0, -10)"><rect/><text style=""><tspan xml:space="preserve" dy="1em" x="0" class="row">Promote to primary namespace</tspan></text></g></g><g class="node default default flowchart-label" id="flowchart-MONITOR-7" data-node="true" data-id="MONITOR" transform="translate(217.08203125, 612.5)"><rect class="basic label-container" style="" rx="0" ry="0" x="-101.796875" y="-17.5" width="203.59375" height="35"/><g class="label" style="" transform="translate(0, -10)"><rect/><text style=""><tspan xml:space="preserve" dy="1em" x="0" class="row">Observe + backup drills</tspan></text></g></g></g></g></g></svg>