<svg id="my-svg" width="100%" xmlns="http://www.w3.org/2000/svg" xmlns:xlink="http://www.w3.org/1999/xlink" style="max-width: 4260.95px; background-color: white;" viewBox="-8 -8 4260.953125 760" role="graphics-document document" aria-roledescription="flowchart-v2"><style>#my-svg{font-family:"trebuchet ms",verdana,arial,sans-serif;font-size:18px;fill:#000000;}#my-svg .error-icon{fill:#552222;}#my-svg .error-text{fill:#552222;stroke:#552222;}#my-svg .edge-thickness-normal{stroke-width:2px;}#my-svg .edge-thickness-thick{stroke-width:3.5px;}#my-svg .edge-pattern-solid{stroke-dasharray:0;}#my-svg .edge-pattern-dashed{stroke-dasharray:3;}#my-svg .edge-pattern-dotted{stroke-dasharray:2;}#my-svg .marker{fill:#1f2937;stroke:#1f2937;}#my-svg .marker.cross{stroke:#1f2937;}#my-svg svg{font-family:"trebuchet ms",verdana,arial,sans-serif;font-size:18px;}#my-svg .label{font-family:"trebuchet ms",verdana,arial,sans-serif;color:#000000;}#my-svg .cluster-label text{fill:#333;}#my-svg .cluster-label span,#my-svg p{color:#333;}#my-svg .label text,#my-svg span,#my-svg p{fill:#000000;color:#000000;}#my-svg .node rect,#my-svg .node circle,#my-svg .node ellipse,#my-svg .node polygon,#my-svg .node path{fill:#eee;stroke:#999;stroke-width:1px;}#my-svg .flowchart-label text{text-anchor:middle;}#my-svg .node .katex path{fill:#000;stroke:#000;stroke-width:1px;}#my-svg .node .label{text-align:center;}#my-svg .node.clickable{cursor:pointer;}#my-svg .arrowheadPath{fill:#333333;}#my-svg .edgePath .path{stroke:#1f2937;stroke-width:2.0px;}#my-svg .flowchart-link{stroke:#1f2937;fill:none;}#my-svg .edgeLabel{background-color:white;text-align:center;}#my-svg .edgeLabel rect{opacity:0.5;background-color:white;fill:white;}#my-svg .labelBkg{background-color:rgba(255, 255, 255, 0.5);}#my-svg .cluster rect{fill:#f8fafc;stroke:#334155;stroke-width:1px;}#my-svg .cluster text{fill:#333;}#my-svg .cluster span,#my-svg p{color:#333;}#my-svg div.mermaidTooltip{position:absolute;text-align:center;max-width:200px;padding:2px;font-family:"trebuchet ms",verdana,arial,sans-serif;font-size:12px;background:#fef9c3;border:1px solid #707070;border-radius:2px;pointer-events:none;z-index:100;}#my-svg .flowchartTitleText{text-anchor:middle;font-size:18px;fill:#000000;}#my-svg :root{--mermaid-font-family:"trebuchet ms",verdana,arial,sans-serif;}</style><g><marker id="my-svg_flowchart-pointEnd" class="marker flowchart" viewBox="0 0 10 10" refX="6" refY="5" markerUnits="userSpaceOnUse" markerWidth="12" markerHeight="12" orient="auto"><path d="M 0 0 L 10 5 L 0 10 z" class="arrowMarkerPath" style="stroke-width: 1; stroke-dasharray: 1, 0;"/></marker><marker id="my-svg_flowchart-pointStart" class="marker flowchart" viewBox="0 0 10 10" refX="4.5" refY="5" markerUnits="userSpaceOnUse" markerWidth="12" markerHeight="12" orient="auto"><path d="M 0 5 L 10 10 L 10 0 z" class="arrowMarkerPath" style="stroke-width: 1; stroke-dasharray: 1, 0;"/></marker><marker id="my-svg_flowchart-circleEnd" class="marker flowchart" viewBox="0 0 10 10" refX="11" refY="5" markerUnits="userSpaceOnUse" markerWidth="11" markerHeight="11" orient="auto"><circle cx="5" cy="5" r="5" class="arrowMarkerPath" style="stroke-width: 1; stroke-dasharray: 1, 0;"/></marker><marker id="my-svg_flowchart-circleStart" class="marker flowchart" viewBox="0 0 10 10" refX="-1" refY="5" markerUnits="userSpaceOnUse" markerWidth="11" markerHeight="11" orient="auto"><circle cx="5" cy="5" r="5" class="arrowMarkerPath" style="stroke-width: 1; stroke-dasharray: 1, 0;"/></marker><marker id="my-svg_flowchart-crossEnd" class="marker cross flowchart" viewBox="0 0 11 11" refX="12" refY="5.2" markerUnits="userSpaceOnUse" markerWidth="11" markerHeight="11" orient="auto"><path d="M 1,1 l 9,9 M 10,1 l -9,9" class="arrowMarkerPath" style="stroke-width: 2; stroke-dasharray: 1, 0;"/></marker><marker id="my-svg_flowchart-crossStart" class="marker cross flowchart" viewBox="0 0 11 11" refX="-1" refY="5.2" markerUnits="userSpaceOnUse" markerWidth="11" markerHeight="11" orient="auto"><path d="M 1,1 l 9,9 M 10,1 l -9,9" class="arrowMarkerPath" style="stroke-width: 2; stroke-dasharray: 1, 0;"/></marker><g class="root"><g class="clusters"><g class="cluster default flowchart-label" id="Runtime"><rect style="" rx="0" ry="0" x="0" y="306" width="348.34375" height="231"/><g class="cluster-label" transform="translate(174.171875, 306)"><text style=""><tspan xml:space="preserve" dy="1em" x="0" class="row">Cluster Runtime</tspan></text></g></g><g class="cluster default flowchart-label" id="AppSvc"><rect style="" rx="0" ry="0" x="1599.6875" y="587" width="299.125" height="157"/><g class="cluster-label" transform="translate(1749.25, 587)"><text style=""><tspan xml:space="preserve" dy="1em" x="0" class="row">App Services</tspan></text></g></g><g class="cluster default flowchart-label" id="Adapters"><rect style="" rx="0" ry="0" x="1918.8125" y="587" width="855.421875" height="157"/><g class="cluster-label" transform="translate(2346.5234375, 587)"><text style=""><tspan xml:space="preserve" dy="1em" x="0" class="row">Technology Adapters</tspan></text></g></g><g class="cluster default flowchart-label" id="Core"><rect style="" rx="0" ry="0" x="368.34375" y="434" width="1164.421875" height="103"/><g class="cluster-label" transform="translate(950.5546875, 434)"><text style=""><tspan xml:space="preserve" dy="1em" x="0" class="row">Shared Runtime Core</tspan></text></g></g><g class="cluster default flowchart-label" id="Entry"><rect style="" rx="0" ry="0" x="1552.765625" y="153" width="1089.90625" height="384"/><g class="cluster-label" transform="translate(2097.71875, 153)"><text style=""><tspan xml:space="preserve" dy="1em" x="0" class="row">Composition Root</tspan></text></g></g><g class="cluster default flowchart-label" id="Contracts"><rect style="" rx="0" ry="0" x="2662.671875" y="153" width="1582.28125" height="103"/><g class="cluster-label" transform="translate(3453.8125, 153)"><text style=""><tspan xml:space="preserve" dy="1em" x="0" class="row">Declarative Contracts</tspan></text></g></g><g class="cluster default flowchart-label" id="Operators"><rect style="" rx="0" ry="0" x="1525.19921875" y="0" width="726.265625" height="103"/><g class="cluster-label" transform="translate(1888.33203125, 0)"><text style=""><tspan xml:space="preserve" dy="1em" x="0" class="row">Operator Surface</tspan></text></g></g></g><g class="edgePaths"><path d="M2131.918,78L2131.918,82.167C2131.918,86.333,2131.918,94.667,2131.918,103C2131.918,111.333,2131.918,119.667,2131.918,128C2131.918,136.333,2131.918,144.667,2086.483,155.353C2041.048,166.039,1950.178,179.079,1904.744,185.599L1859.309,192.118" id="L-SH1-MAIN-0" class=" edge-thickness-normal edge-pattern-solid flowchart-link LS-SH1 LE-MAIN" style="fill:none;" marker-end="url(#my-svg_flowchart-pointEnd)"/><path d="M1894.816,78L1894.816,82.167C1894.816,86.333,1894.816,94.667,1894.816,103C1894.816,111.333,1894.816,119.667,1894.816,128C1894.816,136.333,1894.816,144.667,1882.229,154.156C1869.641,163.645,1844.466,174.291,1831.879,179.613L1819.291,184.936" id="L-SH2-MAIN-0" class=" edge-thickness-normal edge-pattern-solid flowchart-link LS-SH2 LE-MAIN" style="fill:none;" marker-end="url(#my-svg_flowchart-pointEnd)"/><path d="M1651.23,78L1651.23,82.167C1651.23,86.333,1651.23,94.667,1651.23,103C1651.23,111.333,1651.23,119.667,1651.23,128C1651.23,136.333,1651.23,144.667,1663.818,154.156C1676.406,163.645,1701.581,174.291,1714.168,179.613L1726.756,184.936" id="L-SH3-MAIN-0" class=" edge-thickness-normal edge-pattern-solid flowchart-link LS-SH3 LE-MAIN" style="fill:none;" marker-end="url(#my-svg_flowchart-pointEnd)"/><path d="M4054.117,231L4054.117,235.167C4054.117,239.333,4054.117,247.667,3810.844,256C3567.572,264.333,3081.026,272.667,2837.753,281C2594.48,289.333,2594.48,297.667,2477.708,309.529C2360.935,321.391,2127.389,336.783,2010.616,344.478L1893.843,352.174" id="L-SVC-RF-0" class=" edge-thickness-normal edge-pattern-solid flowchart-link LS-SVC LE-RF" style="fill:none;" marker-end="url(#my-svg_flowchart-pointEnd)"/><path d="M3693.164,231L3693.164,235.167C3693.164,239.333,3693.164,247.667,3506.717,256C3320.27,264.333,2947.375,272.667,2760.928,281C2574.48,289.333,2574.48,297.667,2461.041,309.506C2347.601,321.345,2120.722,336.689,2007.282,344.362L1893.843,352.034" id="L-PROF-RF-0" class=" edge-thickness-normal edge-pattern-solid flowchart-link LS-PROF LE-RF" style="fill:none;" marker-end="url(#my-svg_flowchart-pointEnd)"/><path d="M3345.984,231L3345.984,235.167C3345.984,239.333,3345.984,247.667,3158.577,256C2971.171,264.333,2596.357,272.667,2408.95,281C2221.543,289.333,2221.543,297.667,2166.921,308.719C2112.3,319.772,2003.056,333.544,1948.435,340.429L1893.813,347.315" id="L-K8S-RF-0" class=" edge-thickness-normal edge-pattern-solid flowchart-link LS-K8S LE-RF" style="fill:none;" marker-end="url(#my-svg_flowchart-pointEnd)"/><path d="M2925.797,222L2925.797,227.667C2925.797,233.333,2925.797,244.667,2796.695,254.5C2667.592,264.333,2409.388,272.667,2280.286,281C2151.184,289.333,2151.184,297.667,2108.285,308.367C2065.387,319.066,1979.591,332.133,1936.692,338.666L1893.794,345.199" id="L-RPLAN-RF-0" class=" edge-thickness-normal edge-pattern-solid flowchart-link LS-RPLAN LE-RF" style="fill:none;" marker-end="url(#my-svg_flowchart-pointEnd)"/><path d="M1779.82,222L1782.02,227.667C1784.221,233.333,1788.622,244.667,1790.823,254.5C1793.023,264.333,1793.023,272.667,1793.023,281C1793.023,289.333,1793.023,297.667,1794.904,306.677C1796.785,315.686,1800.547,325.373,1802.428,330.216L1804.309,335.059" id="L-MAIN-RF-0" class=" edge-thickness-normal edge-pattern-solid flowchart-link LS-MAIN LE-RF" style="fill:none;" marker-end="url(#my-svg_flowchart-pointEnd)"/><path d="M1791.353,375L1784.336,380.667C1777.319,386.333,1763.284,397.667,1756.267,407.5C1749.25,417.333,1749.25,425.667,1749.25,434.617C1749.25,443.567,1749.25,453.133,1749.25,457.917L1749.25,462.7" id="L-RF-WIRE-0" class=" edge-thickness-normal edge-pattern-solid flowchart-link LS-RF LE-WIRE" style="fill:none;" marker-end="url(#my-svg_flowchart-pointEnd)"/><path d="M1740.904,375L1717.551,380.667C1694.197,386.333,1647.491,397.667,1624.138,407.5C1600.785,417.333,1600.785,425.667,1427.943,437.782C1255.101,449.897,909.416,465.794,736.574,473.742L563.732,481.69" id="L-RF-CFGM-0" class=" edge-thickness-normal edge-pattern-solid flowchart-link LS-RF LE-CFGM" style="fill:none;" marker-end="url(#my-svg_flowchart-pointEnd)"/><path d="M1747.7,375L1726.547,380.667C1705.395,386.333,1663.09,397.667,1641.938,407.5C1620.785,417.333,1620.785,425.667,1481.956,437.56C1343.126,449.454,1065.467,464.907,926.637,472.634L787.807,480.361" id="L-RF-CORE_RT-0" class=" edge-thickness-normal edge-pattern-solid flowchart-link LS-RF LE-CORE_RT" style="fill:none;" marker-end="url(#my-svg_flowchart-pointEnd)"/><path d="M1754.496,375L1735.544,380.667C1716.592,386.333,1678.689,397.667,1659.737,407.5C1640.785,417.333,1640.785,425.667,1534.798,437.365C1428.812,449.063,1216.838,464.126,1110.852,471.657L1004.865,479.189" id="L-RF-CORE_SEC-0" class=" edge-thickness-normal edge-pattern-solid flowchart-link LS-RF LE-CORE_SEC" style="fill:none;" marker-end="url(#my-svg_flowchart-pointEnd)"/><path d="M1777.761,375L1766.342,380.667C1754.924,386.333,1732.087,397.667,1720.668,407.5C1709.25,417.333,1709.25,425.667,1645.538,436.1C1581.826,446.533,1454.402,459.066,1390.69,465.332L1326.978,471.599" id="L-RF-ARR-0" class=" edge-thickness-normal edge-pattern-solid flowchart-link LS-RF LE-ARR" style="fill:none;" marker-end="url(#my-svg_flowchart-pointEnd)"/><path d="M1784.557,375L1775.339,380.667C1766.121,386.333,1747.686,397.667,1738.468,407.5C1729.25,417.333,1729.25,425.667,1691.539,436.428C1653.829,447.188,1578.408,460.377,1540.697,466.971L1502.986,473.565" id="L-RF-LIB-0" class=" edge-thickness-normal edge-pattern-solid flowchart-link LS-RF LE-LIB" style="fill:none;" marker-end="url(#my-svg_flowchart-pointEnd)"/><path d="M2266.664,500.677L2234.203,506.731C2201.742,512.785,2136.82,524.892,2104.359,535.113C2071.898,545.333,2071.898,553.667,2071.898,562C2071.898,570.333,2071.898,578.667,2071.898,592.117C2071.898,605.567,2071.898,624.133,2071.898,633.417L2071.898,642.7" id="L-REG-DL-0" class=" edge-thickness-normal edge-pattern-solid flowchart-link LS-REG LE-DL" style="fill:none;" marker-end="url(#my-svg_flowchart-pointEnd)"/><path d="M2348.047,512L2348.047,516.167C2348.047,520.333,2348.047,528.667,2348.047,537C2348.047,545.333,2348.047,553.667,2348.047,562C2348.047,570.333,2348.047,578.667,2348.047,592.117C2348.047,605.567,2348.047,624.133,2348.047,633.417L2348.047,642.7" id="L-REG-MS-0" class=" edge-thickness-normal edge-pattern-solid flowchart-link LS-REG LE-MS" style="fill:none;" marker-end="url(#my-svg_flowchart-pointEnd)"/><path d="M2429.43,500.762L2461.637,506.801C2493.844,512.841,2558.258,524.921,2590.465,535.127C2622.672,545.333,2622.672,553.667,2622.672,562C2622.672,570.333,2622.672,578.667,2622.672,592.117C2622.672,605.567,2622.672,624.133,2622.672,633.417L2622.672,642.7" id="L-REG-SA-0" class=" edge-thickness-normal edge-pattern-solid flowchart-link LS-REG LE-SA" style="fill:none;" marker-end="url(#my-svg_flowchart-pointEnd)"/><path d="M1888.555,364.77L1965.137,372.142C2041.719,379.514,2194.883,394.257,2271.465,405.795C2348.047,417.333,2348.047,425.667,2348.047,433.117C2348.047,440.567,2348.047,447.133,2348.047,450.417L2348.047,453.7" id="L-RF-REG-0" class=" edge-thickness-normal edge-pattern-solid flowchart-link LS-RF LE-REG" style="fill:none;" marker-end="url(#my-svg_flowchart-pointEnd)"/><path d="M1749.25,503L1749.25,508.667C1749.25,514.333,1749.25,525.667,1749.25,535.5C1749.25,545.333,1749.25,553.667,1749.25,562C1749.25,570.333,1749.25,578.667,1749.25,586.117C1749.25,593.567,1749.25,600.133,1749.25,603.417L1749.25,606.7" id="L-WIRE-APPMOD-0" class=" edge-thickness-normal edge-pattern-solid flowchart-link LS-WIRE LE-APPMOD" style="fill:none;" marker-end="url(#my-svg_flowchart-pointEnd)"/><path d="M1721.292,222L1704.541,227.667C1687.79,233.333,1654.287,244.667,1637.536,254.5C1620.785,264.333,1620.785,272.667,1620.785,281C1620.785,289.333,1620.785,297.667,1403.761,309.559C1186.737,321.452,752.689,336.905,535.665,344.631L318.64,352.357" id="L-MAIN-CTRL-0" class=" edge-thickness-normal edge-pattern-solid flowchart-link LS-MAIN LE-CTRL" style="fill:none;" marker-end="url(#my-svg_flowchart-pointEnd)"/><path d="M174.172,384L174.172,388.167C174.172,392.333,174.172,400.667,174.172,409C174.172,417.333,174.172,425.667,174.172,433.117C174.172,440.567,174.172,447.133,174.172,450.417L174.172,453.7" id="L-CTRL-APPS-0" class=" edge-thickness-normal edge-pattern-solid flowchart-link LS-CTRL LE-APPS" style="fill:none;" marker-end="url(#my-svg_flowchart-pointEnd)"/></g><g class="edgeLabels"><g class="edgeLabel"><g class="label" transform="translate(0, 0)"><rect rx="0" ry="0" width="0" height="0"/><text style=""><tspan xml:space="preserve" dy="1em" x="0" class="row"/></text></g></g><g class="edgeLabel"><g class="label" transform="translate(0, 0)"><rect rx="0" ry="0" width="0" height="0"/><text style=""><tspan xml:space="preserve" dy="1em" x="0" class="row"/></text></g></g><g class="edgeLabel"><g class="label" transform="translate(0, 0)"><rect rx="0" ry="0" width="0" height="0"/><text style=""><tspan xml:space="preserve" dy="1em" x="0" class="row"/></text></g></g><g class="edgeLabel"><g class="label" transform="translate(0, 0)"><rect rx="0" ry="0" width="0" height="0"/><text style=""><tspan xml:space="preserve" dy="1em" x="0" class="row"/></text></g></g><g class="edgeLabel"><g class="label" transform="translate(0, 0)"><rect rx="0" ry="0" width="0" height="0"/><text style=""><tspan xml:space="preserve" dy="1em" x="0" class="row"/></text></g></g><g class="edgeLabel"><g class="label" transform="translate(0, 0)"><rect rx="0" ry="0" width="0" height="0"/><text style=""><tspan xml:space="preserve" dy="1em" x="0" class="row"/></text></g></g><g class="edgeLabel"><g class="label" transform="translate(0, 0)"><rect rx="0" ry="0" width="0" height="0"/><text style=""><tspan xml:space="preserve" dy="1em" x="0" class="row"/></text></g></g><g class="edgeLabel"><g class="label" transform="translate(0, 0)"><rect rx="0" ry="0" width="0" height="0"/><text style=""><tspan xml:space="preserve" dy="1em" x="0" class="row"/></text></g></g><g class="edgeLabel"><g class="label" transform="translate(0, 0)"><rect rx="0" ry="0" width="0" height="0"/><text style=""><tspan xml:space="preserve" dy="1em" x="0" class="row"/></text></g></g><g class="edgeLabel"><g class="label" transform="translate(0, 0)"><rect rx="0" ry="0" width="0" height="0"/><text style=""><tspan xml:space="preserve" dy="1em" x="0" class="row"/></text></g></g><g class="edgeLabel"><g class="label" transform="translate(0, 0)"><rect rx="0" ry="0" width="0" height="0"/><text style=""><tspan xml:space="preserve" dy="1em" x="0" class="row"/></text></g></g><g class="edgeLabel"><g class="label" transform="translate(0, 0)"><rect rx="0" ry="0" width="0" height="0"/><text style=""><tspan xml:space="preserve" dy="1em" x="0" class="row"/></text></g></g><g class="edgeLabel"><g class="label" transform="translate(0, 0)"><rect rx="0" ry="0" width="0" height="0"/><text style=""><tspan xml:space="preserve" dy="1em" x="0" class="row"/></text></g></g><g class="edgeLabel"><g class="label" transform="translate(0, 0)"><rect rx="0" ry="0" width="0" height="0"/><text style=""><tspan xml:space="preserve" dy="1em" x="0" class="row"/></text></g></g><g class="edgeLabel"><g class="label" transform="translate(0, 0)"><rect rx="0" ry="0" width="0" height="0"/><text style=""><tspan xml:space="preserve" dy="1em" x="0" class="row"/></text></g></g><g class="edgeLabel"><g class="label" transform="translate(0, 0)"><rect rx="0" ry="0" width="0" height="0"/><text style=""><tspan xml:space="preserve" dy="1em" x="0" class="row"/></text></g></g><g class="edgeLabel"><g class="label" transform="translate(0, 0)"><rect rx="0" ry="0" width="0" height="0"/><text style=""><tspan xml:space="preserve" dy="1em" x="0" class="row"/></text></g></g><g class="edgeLabel"><g class="label" transform="translate(0, 0)"><rect rx="0" ry="0" width="0" height="0"/><text style=""><tspan xml:space="preserve" dy="1em" x="0" class="row"/></text></g></g><g class="edgeLabel"><g class="label" transform="translate(0, 0)"><rect rx="0" ry="0" width="0" height="0"/><text style=""><tspan xml:space="preserve" dy="1em" x="0" class="row"/></text></g></g><g class="edgeLabel"><g class="label" transform="translate(0, 0)"><rect rx="0" ry="0" width="0" height="0"/><text style=""><tspan xml:space="preserve" dy="1em" x="0" class="row"/></text></g></g><g class="edgeLabel"><g class="label" transform="translate(0, 0)"><rect rx="0" ry="0" width="0" height="0"/><text style=""><tspan xml:space="preserve" dy="1em" x="0" class="row"/></text></g></g></g><g class="nodes"><g class="node default default flowchart-label" id="flowchart-CTRL-20" data-node="true" data-id="CTRL" transform="translate(174.171875, 357.5)"><rect class="basic label-container" style="" rx="0" ry="0" x="-139.171875" y="-26.5" width="278.34375" height="53"/><g class="label" style="" transform="translate(0, -19)"><rect/><text style=""><tspan xml:space="preserve" dy="1em" x="0" class="row">media-stack-controller</tspan><tspan xml:space="preserve" dy="1em" x="0" class="row">HTTP API + Dashboard on :9100</tspan></text></g></g><g class="node default default flowchart-label" id="flowchart-APPS-21" data-node="true" data-id="APPS" transform="translate(174.171875, 485.5)"><rect class="basic label-container" style="" rx="0" ry="0" x="-109.3046875" y="-26.5" width="218.609375" height="53"/><g class="label" style="" transform="translate(0, -19)"><rect/><text style=""><tspan xml:space="preserve" dy="1em" x="0" class="row">Arr/Prowlarr/Jellyfin</tspan><tspan xml:space="preserve" dy="1em" x="0" class="row">Jellyseerr + bound clients</tspan></text></g></g><g class="node default default flowchart-label" id="flowchart-APPMOD-19" data-node="true" data-id="APPMOD" transform="translate(1749.25, 665.5)"><rect class="basic label-container" style="" rx="0" ry="0" x="-114.5625" y="-53.5" width="229.125" height="107"/><g class="label" style="" transform="translate(0, -46)"><rect/><text style=""><tspan xml:space="preserve" dy="1em" x="0" class="row">apps/* service modules</tspan><tspan xml:space="preserve" dy="1em" x="0" class="row">jellyfin, jellyseerr, prowlarr,</tspan><tspan xml:space="preserve" dy="1em" x="0" class="row">bazarr, torrent clients,</tspan><tspan xml:space="preserve" dy="1em" x="0" class="row">usenet clients, maintainerr,</tspan><tspan xml:space="preserve" dy="1em" x="0" class="row">homepage, tautulli</tspan></text></g></g><g class="node default default flowchart-label" id="flowchart-DL-16" data-node="true" data-id="DL" transform="translate(2071.8984375, 665.5)"><rect class="basic label-container" style="" rx="0" ry="0" x="-118.0859375" y="-17.5" width="236.171875" height="35"/><g class="label" style="" transform="translate(0, -10)"><rect/><text style=""><tspan xml:space="preserve" dy="1em" x="0" class="row">download_client_adapters/*</tspan></text></g></g><g class="node default default flowchart-label" id="flowchart-MS-17" data-node="true" data-id="MS" transform="translate(2348.046875, 665.5)"><rect class="basic label-container" style="" rx="0" ry="0" x="-108.0625" y="-17.5" width="216.125" height="35"/><g class="label" style="" transform="translate(0, -10)"><rect/><text style=""><tspan xml:space="preserve" dy="1em" x="0" class="row">media_server_adapters/*</tspan></text></g></g><g class="node default default flowchart-label" id="flowchart-SA-18" data-node="true" data-id="SA" transform="translate(2622.671875, 665.5)"><rect class="basic label-container" style="" rx="0" ry="0" x="-116.5625" y="-17.5" width="233.125" height="35"/><g class="label" style="" transform="translate(0, -10)"><rect/><text style=""><tspan xml:space="preserve" dy="1em" x="0" class="row">apps/servarr/technologies/*</tspan></text></g></g><g class="node default default flowchart-label" id="flowchart-CFGM-11" data-node="true" data-id="CFGM" transform="translate(480.890625, 485.5)"><rect class="basic label-container" style="" rx="0" ry="0" x="-77.546875" y="-17.5" width="155.09375" height="35"/><g class="label" style="" transform="translate(0, -10)"><rect/><text style=""><tspan xml:space="preserve" dy="1em" x="0" class="row">config_models.py</tspan></text></g></g><g class="node default default flowchart-label" id="flowchart-CORE_RT-12" data-node="true" data-id="CORE_RT" transform="translate(695.4765625, 485.5)"><rect class="basic label-container" style="" rx="0" ry="0" x="-87.0390625" y="-17.5" width="174.078125" height="35"/><g class="label" style="" transform="translate(0, -10)"><rect/><text style=""><tspan xml:space="preserve" dy="1em" x="0" class="row">runtime_platform.py</tspan></text></g></g><g class="node default default flowchart-label" id="flowchart-CORE_SEC-13" data-node="true" data-id="CORE_SEC" transform="translate(916.046875, 485.5)"><rect class="basic label-container" style="" rx="0" ry="0" x="-83.53125" y="-17.5" width="167.0625" height="35"/><g class="label" style="" transform="translate(0, -10)"><rect/><text style=""><tspan xml:space="preserve" dy="1em" x="0" class="row">runtime_secrets.py</tspan></text></g></g><g class="node default default flowchart-label" id="flowchart-ARR-14" data-node="true" data-id="ARR" transform="translate(1185.640625, 485.5)"><rect class="basic label-container" style="" rx="0" ry="0" x="-136.0625" y="-17.5" width="272.125" height="35"/><g class="label" style="" transform="translate(0, -10)"><rect/><text style=""><tspan xml:space="preserve" dy="1em" x="0" class="row">apps/servarr/runtime/__init__.py</tspan></text></g></g><g class="node default default flowchart-label" id="flowchart-LIB-15" data-node="true" data-id="LIB" transform="translate(1434.734375, 485.5)"><rect class="basic label-container" style="" rx="0" ry="0" x="-63.03125" y="-17.5" width="126.0625" height="35"/><g class="label" style="" transform="translate(0, -10)"><rect/><text style=""><tspan xml:space="preserve" dy="1em" x="0" class="row">core/* helpers</tspan></text></g></g><g class="node default default flowchart-label" id="flowchart-MAIN-7" data-node="true" data-id="MAIN" transform="translate(1773.0234375, 204.5)"><rect class="basic label-container" style="" rx="0" ry="0" x="-81.0390625" y="-17.5" width="162.078125" height="35"/><g class="label" style="" transform="translate(0, -10)"><rect/><text style=""><tspan xml:space="preserve" dy="1em" x="0" class="row">controller_main.py</tspan></text></g></g><g class="node default default flowchart-label" id="flowchart-RF-8" data-node="true" data-id="RF" transform="translate(1813.0234375, 357.5)"><rect class="basic label-container" style="" rx="0" ry="0" x="-75.53125" y="-17.5" width="151.0625" height="35"/><g class="label" style="" transform="translate(0, -10)"><rect/><text style=""><tspan xml:space="preserve" dy="1em" x="0" class="row">runtime_factory/*</tspan></text></g></g><g class="node default default flowchart-label" id="flowchart-REG-9" data-node="true" data-id="REG" transform="translate(2348.046875, 485.5)"><rect class="basic label-container" style="" rx="0" ry="0" x="-81.3828125" y="-26.5" width="162.765625" height="53"/><g class="label" style="" transform="translate(0, -19)"><rect/><text style=""><tspan xml:space="preserve" dy="1em" x="0" class="row">adapter_factory.py</tspan><tspan xml:space="preserve" dy="1em" x="0" class="row">(generic registry)</tspan></text></g></g><g class="node default default flowchart-label" id="flowchart-WIRE-10" data-node="true" data-id="WIRE" transform="translate(1749.25, 485.5)"><rect class="basic label-container" style="" rx="0" ry="0" x="-85.546875" y="-17.5" width="171.09375" height="35"/><g class="label" style="" transform="translate(0, -10)"><rect/><text style=""><tspan xml:space="preserve" dy="1em" x="0" class="row">operation_wiring.py</tspan></text></g></g><g class="node default default flowchart-label" id="flowchart-SVC-3" data-node="true" data-id="SVC" transform="translate(4054.1171875, 204.5)"><rect class="basic label-container" style="" rx="0" ry="0" x="-155.8359375" y="-26.5" width="311.671875" height="53"/><g class="label" style="" transform="translate(0, -19)"><rect/><text style=""><tspan xml:space="preserve" dy="1em" x="0" class="row">contracts/services/*.yaml</tspan><tspan xml:space="preserve" dy="1em" x="0" class="row">per-service definitions + plugin config</tspan></text></g></g><g class="node default default flowchart-label" id="flowchart-PROF-4" data-node="true" data-id="PROF" transform="translate(3693.1640625, 204.5)"><rect class="basic label-container" style="" rx="0" ry="0" x="-155.1171875" y="-26.5" width="310.234375" height="53"/><g class="label" style="" transform="translate(0, -19)"><rect/><text style=""><tspan xml:space="preserve" dy="1em" x="0" class="row">contracts/media-stack.profile.yaml</tspan><tspan xml:space="preserve" dy="1em" x="0" class="row">technology_bindings + routing + auth</tspan></text></g></g><g class="node default default flowchart-label" id="flowchart-K8S-5" data-node="true" data-id="K8S" transform="translate(3345.984375, 204.5)"><rect class="basic label-container" style="" rx="0" ry="0" x="-142.0625" y="-26.5" width="284.125" height="53"/><g class="label" style="" transform="translate(0, -19)"><rect/><text style=""><tspan xml:space="preserve" dy="1em" x="0" class="row">contracts/adapter-hooks.k8s.yaml</tspan><tspan xml:space="preserve" dy="1em" x="0" class="row">K8s pipeline phases</tspan></text></g></g><g class="node default default flowchart-label" id="flowchart-RPLAN-6" data-node="true" data-id="RPLAN" transform="translate(2925.796875, 204.5)"><rect class="basic label-container" style="" rx="0" ry="0" x="-228.125" y="-17.5" width="456.25" height="35"/><g class="label" style="" transform="translate(0, -10)"><rect/><text style=""><tspan xml:space="preserve" dy="1em" x="0" class="row">src/media_stack/contracts/runner_operation_plans.json</tspan></text></g></g><g class="node default default flowchart-label" id="flowchart-SH1-0" data-node="true" data-id="SH1" transform="translate(2131.91796875, 51.5)"><rect class="basic label-container" style="" rx="0" ry="0" x="-84.546875" y="-26.5" width="169.09375" height="53"/><g class="label" style="" transform="translate(0, -19)"><rect/><text style=""><tspan xml:space="preserve" dy="1em" x="0" class="row">bin/install.sh</tspan><tspan xml:space="preserve" dy="1em" x="0" class="row">bin/deploy-stack.sh</tspan></text></g></g><g class="node default default flowchart-label" id="flowchart-SH2-1" data-node="true" data-id="SH2" transform="translate(1894.81640625, 51.5)"><rect class="basic label-container" style="" rx="0" ry="0" x="-102.5546875" y="-26.5" width="205.109375" height="53"/><g class="label" style="" transform="translate(0, -19)"><rect/><text style=""><tspan xml:space="preserve" dy="1em" x="0" class="row">bin/bootstrap-all.sh</tspan><tspan xml:space="preserve" dy="1em" x="0" class="row">bin/run-bootstrap-job.sh</tspan></text></g></g><g class="node default default flowchart-label" id="flowchart-SH3-2" data-node="true" data-id="SH3" transform="translate(1651.23046875, 51.5)"><rect class="basic label-container" style="" rx="0" ry="0" x="-91.03125" y="-26.5" width="182.0625" height="53"/><g class="label" style="" transform="translate(0, -19)"><rect/><text style=""><tspan xml:space="preserve" dy="1em" x="0" class="row">bin/test/verify-flow.sh</tspan><tspan xml:space="preserve" dy="1em" x="0" class="row">bin/test.sh</tspan></text></g></g></g></g></g></svg>