<svg id="my-svg" width="100%" xmlns="http://www.w3.org/2000/svg" xmlns:xlink="http://www.w3.org/1999/xlink" style="max-width: 2827.09px; background-color: white;" viewBox="-8 -8 2827.09375 741" role="graphics-document document" aria-roledescription="flowchart-v2"><style>#my-svg{font-family:"trebuchet ms",verdana,arial,sans-serif;font-size:18px;fill:#000000;}#my-svg .error-icon{fill:#552222;}#my-svg .error-text{fill:#552222;stroke:#552222;}#my-svg .edge-thickness-normal{stroke-width:2px;}#my-svg .edge-thickness-thick{stroke-width:3.5px;}#my-svg .edge-pattern-solid{stroke-dasharray:0;}#my-svg .edge-pattern-dashed{stroke-dasharray:3;}#my-svg .edge-pattern-dotted{stroke-dasharray:2;}#my-svg .marker{fill:#1f2937;stroke:#1f2937;}#my-svg .marker.cross{stroke:#1f2937;}#my-svg svg{font-family:"trebuchet ms",verdana,arial,sans-serif;font-size:18px;}#my-svg .label{font-family:"trebuchet ms",verdana,arial,sans-serif;color:#000000;}#my-svg .cluster-label text{fill:#333;}#my-svg .cluster-label span,#my-svg p{color:#333;}#my-svg .label text,#my-svg span,#my-svg p{fill:#000000;color:#000000;}#my-svg .node rect,#my-svg .node circle,#my-svg .node ellipse,#my-svg .node polygon,#my-svg .node path{fill:#eee;stroke:#999;stroke-width:1px;}#my-svg .flowchart-label text{text-anchor:middle;}#my-svg .node .katex path{fill:#000;stroke:#000;stroke-width:1px;}#my-svg .node .label{text-align:center;}#my-svg .node.clickable{cursor:pointer;}#my-svg .arrowheadPath{fill:#333333;}#my-svg .edgePath .path{stroke:#1f2937;stroke-width:2.0px;}#my-svg .flowchart-link{stroke:#1f2937;fill:none;}#my-svg .edgeLabel{background-color:white;text-align:center;}#my-svg .edgeLabel rect{opacity:0.5;background-color:white;fill:white;}#my-svg .labelBkg{background-color:rgba(255, 255, 255, 0.5);}#my-svg .cluster rect{fill:#f8fafc;stroke:#334155;stroke-width:1px;}#my-svg .cluster text{fill:#333;}#my-svg .cluster span,#my-svg p{color:#333;}#my-svg div.mermaidTooltip{position:absolute;text-align:center;max-width:200px;padding:2px;font-family:"trebuchet ms",verdana,arial,sans-serif;font-size:12px;background:#fef9c3;border:1px solid #707070;border-radius:2px;pointer-events:none;z-index:100;}#my-svg .flowchartTitleText{text-anchor:middle;font-size:18px;fill:#000000;}#my-svg :root{--mermaid-font-family:"trebuchet ms",verdana,arial,sans-serif;}</style><g><marker id="my-svg_flowchart-pointEnd" class="marker flowchart" viewBox="0 0 10 10" refX="6" refY="5" markerUnits="userSpaceOnUse" markerWidth="12" markerHeight="12" orient="auto"><path d="M 0 0 L 10 5 L 0 10 z" class="arrowMarkerPath" style="stroke-width: 1; stroke-dasharray: 1, 0;"/></marker><marker id="my-svg_flowchart-pointStart" class="marker flowchart" viewBox="0 0 10 10" refX="4.5" refY="5" markerUnits="userSpaceOnUse" markerWidth="12" markerHeight="12" orient="auto"><path d="M 0 5 L 10 10 L 10 0 z" class="arrowMarkerPath" style="stroke-width: 1; stroke-dasharray: 1, 0;"/></marker><marker id="my-svg_flowchart-circleEnd" class="marker flowchart" viewBox="0 0 10 10" refX="11" refY="5" markerUnits="userSpaceOnUse" markerWidth="11" markerHeight="11" orient="auto"><circle cx="5" cy="5" r="5" class="arrowMarkerPath" style="stroke-width: 1; stroke-dasharray: 1, 0;"/></marker><marker id="my-svg_flowchart-circleStart" class="marker flowchart" viewBox="0 0 10 10" refX="-1" refY="5" markerUnits="userSpaceOnUse" markerWidth="11" markerHeight="11" orient="auto"><circle cx="5" cy="5" r="5" class="arrowMarkerPath" style="stroke-width: 1; stroke-dasharray: 1, 0;"/></marker><marker id="my-svg_flowchart-crossEnd" class="marker cross flowchart" viewBox="0 0 11 11" refX="12" refY="5.2" markerUnits="userSpaceOnUse" markerWidth="11" markerHeight="11" orient="auto"><path d="M 1,1 l 9,9 M 10,1 l -9,9" class="arrowMarkerPath" style="stroke-width: 2; stroke-dasharray: 1, 0;"/></marker><marker id="my-svg_flowchart-crossStart" class="marker cross flowchart" viewBox="0 0 11 11" refX="-1" refY="5.2" markerUnits="userSpaceOnUse" markerWidth="11" markerHeight="11" orient="auto"><path d="M 1,1 l 9,9 M 10,1 l -9,9" class="arrowMarkerPath" style="stroke-width: 2; stroke-dasharray: 1, 0;"/></marker><g class="root"><g class="clusters"><g class="cluster default flowchart-label" id="Runtime"><rect style="" rx="0" ry="0" x="0" y="433" width="263.078125" height="292"/><g class="cluster-label" transform="translate(131.5390625, 433)"><text style=""><tspan xml:space="preserve" dy="1em" x="0" class="row">Cluster Runtime</tspan></text></g></g><g class="cluster default flowchart-label" id="AppSvc"><rect style="" rx="0" ry="0" x="2396.6875" y="586" width="331.15625" height="139"/><g class="cluster-label" transform="translate(2562.265625, 586)"><text style=""><tspan xml:space="preserve" dy="1em" x="0" class="row">App Services</tspan></text></g></g><g class="cluster default flowchart-label" id="Adapters"><rect style="" rx="0" ry="0" x="283.078125" y="433" width="816.40625" height="103"/><g class="cluster-label" transform="translate(691.28125, 433)"><text style=""><tspan xml:space="preserve" dy="1em" x="0" class="row">Technology Adapters</tspan></text></g></g><g class="cluster default flowchart-label" id="Core"><rect style="" rx="0" ry="0" x="1119.484375" y="433" width="1096.421875" height="103"/><g class="cluster-label" transform="translate(1667.6953125, 433)"><text style=""><tspan xml:space="preserve" dy="1em" x="0" class="row">Shared Runtime Core</tspan></text></g></g><g class="cluster default flowchart-label" id="Entry"><rect style="" rx="0" ry="0" x="2235.90625" y="153" width="542.1640625" height="383"/><g class="cluster-label" transform="translate(2506.98828125, 153)"><text style=""><tspan xml:space="preserve" dy="1em" x="0" class="row">Composition Root</tspan></text></g></g><g class="cluster default flowchart-label" id="Operators"><rect style="" rx="0" ry="0" x="2135.84375" y="0" width="675.25" height="103"/><g class="cluster-label" transform="translate(2473.46875, 0)"><text style=""><tspan xml:space="preserve" dy="1em" x="0" class="row">Operator Surface</tspan></text></g></g></g><g class="edgePaths"><path d="M2275.906,78L2275.906,82.167C2275.906,86.333,2275.906,94.667,2275.906,103C2275.906,111.333,2275.906,119.667,2275.906,128C2275.906,136.333,2275.906,144.667,2302.297,153.447C2328.687,162.227,2381.467,171.454,2407.858,176.068L2434.248,180.681" id="L-SH1-MAIN-0" class=" edge-thickness-normal edge-pattern-solid flowchart-link LS-SH1 LE-MAIN" style="fill:none;" marker-end="url(#my-svg_flowchart-pointEnd)"/><path d="M2519.016,78L2519.016,82.167C2519.016,86.333,2519.016,94.667,2519.016,103C2519.016,111.333,2519.016,119.667,2519.016,128C2519.016,136.333,2519.016,144.667,2519.016,152.117C2519.016,159.567,2519.016,166.133,2519.016,169.417L2519.016,172.7" id="L-SH2-MAIN-0" class=" edge-thickness-normal edge-pattern-solid flowchart-link LS-SH2 LE-MAIN" style="fill:none;" marker-end="url(#my-svg_flowchart-pointEnd)"/><path d="M2716.578,78L2716.578,82.167C2716.578,86.333,2716.578,94.667,2716.578,103C2716.578,111.333,2716.578,119.667,2716.578,128C2716.578,136.333,2716.578,144.667,2697.772,152.879C2678.967,161.091,2641.355,169.182,2622.55,173.228L2603.744,177.273" id="L-SH3-MAIN-0" class=" edge-thickness-normal edge-pattern-solid flowchart-link LS-SH3 LE-MAIN" style="fill:none;" marker-end="url(#my-svg_flowchart-pointEnd)"/><path d="M2519.016,213L2519.016,217.167C2519.016,221.333,2519.016,229.667,2519.016,237.117C2519.016,244.567,2519.016,251.133,2519.016,254.417L2519.016,257.7" id="L-MAIN-RF-0" class=" edge-thickness-normal edge-pattern-solid flowchart-link LS-MAIN LE-RF" style="fill:none;" marker-end="url(#my-svg_flowchart-pointEnd)"/><path d="M2519.016,298L2519.016,302.167C2519.016,306.333,2519.016,314.667,2519.016,322.117C2519.016,329.567,2519.016,336.133,2519.016,339.417L2519.016,342.7" id="L-RF-RUN-0" class=" edge-thickness-normal edge-pattern-solid flowchart-link LS-RF LE-RUN" style="fill:none;" marker-end="url(#my-svg_flowchart-pointEnd)"/><path d="M2536.824,383L2541.065,387.167C2545.305,391.333,2553.785,399.667,2558.025,408C2562.266,416.333,2562.266,424.667,2562.266,433.617C2562.266,442.567,2562.266,452.133,2562.266,456.917L2562.266,461.7" id="L-RUN-WIRE-0" class=" edge-thickness-normal edge-pattern-solid flowchart-link LS-RUN LE-WIRE" style="fill:none;" marker-end="url(#my-svg_flowchart-pointEnd)"/><path d="M2455.264,383L2440.086,387.167C2424.907,391.333,2394.549,399.667,2379.37,408C2364.191,416.333,2364.191,424.667,2189.305,436.789C2014.418,448.911,1664.646,464.821,1489.759,472.776L1314.873,480.732" id="L-RUN-CFG-0" class=" edge-thickness-normal edge-pattern-solid flowchart-link LS-RUN LE-CFG" style="fill:none;" marker-end="url(#my-svg_flowchart-pointEnd)"/><path d="M2498.419,383L2493.515,387.167C2488.612,391.333,2478.804,399.667,2473.9,408C2468.996,416.333,2468.996,424.667,2308.986,436.777C2148.975,448.887,1828.955,464.774,1668.944,472.718L1508.934,480.661" id="L-RUN-CORE_RT-0" class=" edge-thickness-normal edge-pattern-solid flowchart-link LS-RUN LE-CORE_RT" style="fill:none;" marker-end="url(#my-svg_flowchart-pointEnd)"/><path d="M2506.655,383L2503.712,387.167C2500.768,391.333,2494.882,399.667,2491.939,408C2488.996,416.333,2488.996,424.667,2366.837,436.351C2244.677,448.036,2000.359,463.073,1878.199,470.591L1756.04,478.109" id="L-RUN-MED-0" class=" edge-thickness-normal edge-pattern-solid flowchart-link LS-RUN LE-MED" style="fill:none;" marker-end="url(#my-svg_flowchart-pointEnd)"/><path d="M2514.89,383L2513.908,387.167C2512.925,391.333,2510.961,399.667,2509.978,408C2508.996,416.333,2508.996,424.667,2425.851,435.897C2342.706,447.127,2176.415,461.255,2093.27,468.318L2010.125,475.382" id="L-RUN-ARR-0" class=" edge-thickness-normal edge-pattern-solid flowchart-link LS-RUN LE-ARR" style="fill:none;" marker-end="url(#my-svg_flowchart-pointEnd)"/><path d="M2523.125,383L2524.104,387.167C2525.082,391.333,2527.039,399.667,2528.018,408C2528.996,416.333,2528.996,424.667,2471.858,435.991C2414.719,447.315,2300.442,461.63,2243.304,468.788L2186.165,475.945" id="L-RUN-LIB-0" class=" edge-thickness-normal edge-pattern-solid flowchart-link LS-RUN LE-LIB" style="fill:none;" marker-end="url(#my-svg_flowchart-pointEnd)"/><path d="M2430.559,383L2409.497,387.167C2388.436,391.333,2346.314,399.667,2325.253,408C2304.191,416.333,2304.191,424.667,2013.418,436.85C1722.644,449.033,1141.096,465.066,850.322,473.082L559.548,481.098" id="L-RUN-DL-0" class=" edge-thickness-normal edge-pattern-solid flowchart-link LS-RUN LE-DL" style="fill:none;" marker-end="url(#my-svg_flowchart-pointEnd)"/><path d="M2438.794,383L2419.693,387.167C2400.593,391.333,2362.392,399.667,2343.292,408C2324.191,416.333,2324.191,424.667,2074.438,436.813C1824.685,448.959,1325.179,464.919,1075.425,472.898L825.672,480.878" id="L-RUN-MS-0" class=" edge-thickness-normal edge-pattern-solid flowchart-link LS-RUN LE-MS" style="fill:none;" marker-end="url(#my-svg_flowchart-pointEnd)"/><path d="M2447.029,383L2429.89,387.167C2412.75,391.333,2378.471,399.667,2361.331,408C2344.191,416.333,2344.191,424.667,2131.79,436.779C1919.388,448.89,1494.584,464.781,1282.182,472.726L1069.781,480.671" id="L-RUN-SA-0" class=" edge-thickness-normal edge-pattern-solid flowchart-link LS-RUN LE-SA" style="fill:none;" marker-end="url(#my-svg_flowchart-pointEnd)"/><path d="M2562.266,502L2562.266,507.667C2562.266,513.333,2562.266,524.667,2562.266,534.5C2562.266,544.333,2562.266,552.667,2562.266,561C2562.266,569.333,2562.266,577.667,2562.266,585.117C2562.266,592.567,2562.266,599.133,2562.266,602.417L2562.266,605.7" id="L-WIRE-APPMOD-0" class=" edge-thickness-normal edge-pattern-solid flowchart-link LS-WIRE LE-APPMOD" style="fill:none;" marker-end="url(#my-svg_flowchart-pointEnd)"/><path d="M2422.323,383L2399.301,387.167C2376.279,391.333,2330.235,399.667,2307.213,408C2284.191,416.333,2284.191,424.667,1942.389,437.011C1600.586,449.355,916.982,465.709,575.179,473.886L233.377,482.064" id="L-RUN-JOB-0" class=" edge-thickness-normal edge-pattern-solid flowchart-link LS-RUN LE-JOB" style="fill:none;" marker-end="url(#my-svg_flowchart-pointEnd)"/><path d="M131.539,511L131.539,515.167C131.539,519.333,131.539,527.667,131.539,536C131.539,544.333,131.539,552.667,131.539,561C131.539,569.333,131.539,577.667,131.539,588.117C131.539,598.567,131.539,611.133,131.539,617.417L131.539,623.7" id="L-JOB-APPS-0" class=" edge-thickness-normal edge-pattern-solid flowchart-link LS-JOB LE-APPS" style="fill:none;" marker-end="url(#my-svg_flowchart-pointEnd)"/></g><g class="edgeLabels"><g class="edgeLabel"><g class="label" transform="translate(0, 0)"><rect rx="0" ry="0" width="0" height="0"/><text style=""><tspan xml:space="preserve" dy="1em" x="0" class="row"/></text></g></g><g class="edgeLabel"><g class="label" transform="translate(0, 0)"><rect rx="0" ry="0" width="0" height="0"/><text style=""><tspan xml:space="preserve" dy="1em" x="0" class="row"/></text></g></g><g class="edgeLabel"><g class="label" transform="translate(0, 0)"><rect rx="0" ry="0" width="0" height="0"/><text style=""><tspan xml:space="preserve" dy="1em" x="0" class="row"/></text></g></g><g class="edgeLabel"><g class="label" transform="translate(0, 0)"><rect rx="0" ry="0" width="0" height="0"/><text style=""><tspan xml:space="preserve" dy="1em" x="0" class="row"/></text></g></g><g class="edgeLabel"><g class="label" transform="translate(0, 0)"><rect rx="0" ry="0" width="0" height="0"/><text style=""><tspan xml:space="preserve" dy="1em" x="0" class="row"/></text></g></g><g class="edgeLabel"><g class="label" transform="translate(0, 0)"><rect rx="0" ry="0" width="0" height="0"/><text style=""><tspan xml:space="preserve" dy="1em" x="0" class="row"/></text></g></g><g class="edgeLabel"><g class="label" transform="translate(0, 0)"><rect rx="0" ry="0" width="0" height="0"/><text style=""><tspan xml:space="preserve" dy="1em" x="0" class="row"/></text></g></g><g class="edgeLabel"><g class="label" transform="translate(0, 0)"><rect rx="0" ry="0" width="0" height="0"/><text style=""><tspan xml:space="preserve" dy="1em" x="0" class="row"/></text></g></g><g class="edgeLabel"><g class="label" transform="translate(0, 0)"><rect rx="0" ry="0" width="0" height="0"/><text style=""><tspan xml:space="preserve" dy="1em" x="0" class="row"/></text></g></g><g class="edgeLabel"><g class="label" transform="translate(0, 0)"><rect rx="0" ry="0" width="0" height="0"/><text style=""><tspan xml:space="preserve" dy="1em" x="0" class="row"/></text></g></g><g class="edgeLabel"><g class="label" transform="translate(0, 0)"><rect rx="0" ry="0" width="0" height="0"/><text style=""><tspan xml:space="preserve" dy="1em" x="0" class="row"/></text></g></g><g class="edgeLabel"><g class="label" transform="translate(0, 0)"><rect rx="0" ry="0" width="0" height="0"/><text style=""><tspan xml:space="preserve" dy="1em" x="0" class="row"/></text></g></g><g class="edgeLabel"><g class="label" transform="translate(0, 0)"><rect rx="0" ry="0" width="0" height="0"/><text style=""><tspan xml:space="preserve" dy="1em" x="0" class="row"/></text></g></g><g class="edgeLabel"><g class="label" transform="translate(0, 0)"><rect rx="0" ry="0" width="0" height="0"/><text style=""><tspan xml:space="preserve" dy="1em" x="0" class="row"/></text></g></g><g class="edgeLabel"><g class="label" transform="translate(0, 0)"><rect rx="0" ry="0" width="0" height="0"/><text style=""><tspan xml:space="preserve" dy="1em" x="0" class="row"/></text></g></g><g class="edgeLabel"><g class="label" transform="translate(0, 0)"><rect rx="0" ry="0" width="0" height="0"/><text style=""><tspan xml:space="preserve" dy="1em" x="0" class="row"/></text></g></g><g class="edgeLabel"><g class="label" transform="translate(0, 0)"><rect rx="0" ry="0" width="0" height="0"/><text style=""><tspan xml:space="preserve" dy="1em" x="0" class="row"/></text></g></g></g><g class="nodes"><g class="node default default flowchart-label" id="flowchart-JOB-16" data-node="true" data-id="JOB" transform="translate(131.5390625, 484.5)"><rect class="basic label-container" style="" rx="0" ry="0" x="-96.5390625" y="-26.5" width="193.078125" height="53"/><g class="label" style="" transform="translate(0, -19)"><rect/><text style=""><tspan xml:space="preserve" dy="1em" x="0" class="row">media-stack-bootstrap</tspan><tspan xml:space="preserve" dy="1em" x="0" class="row">Job/CronJobs</tspan></text></g></g><g class="node default default flowchart-label" id="flowchart-APPS-17" data-node="true" data-id="APPS" transform="translate(131.5390625, 655.5)"><rect class="basic label-container" style="" rx="0" ry="0" x="-85.515625" y="-26.5" width="171.03125" height="53"/><g class="label" style="" transform="translate(0, -19)"><rect/><text style=""><tspan xml:space="preserve" dy="1em" x="0" class="row">Arr/Prowlarr/Jellyfin</tspan><tspan xml:space="preserve" dy="1em" x="0" class="row">Jellyseerr/qB/SAB</tspan></text></g></g><g class="node default default flowchart-label" id="flowchart-APPMOD-15" data-node="true" data-id="APPMOD" transform="translate(2562.265625, 655.5)"><rect class="basic label-container" style="" rx="0" ry="0" x="-130.578125" y="-44.5" width="261.15625" height="89"/><g class="label" style="" transform="translate(0, -37)"><rect/><text style=""><tspan xml:space="preserve" dy="1em" x="0" class="row">apps/* service modules</tspan><tspan xml:space="preserve" dy="1em" x="0" class="row">jellyfin, jellyseerr, prowlarr,</tspan><tspan xml:space="preserve" dy="1em" x="0" class="row">bazarr, qbittorrent, sabnzbd,</tspan><tspan xml:space="preserve" dy="1em" x="0" class="row">maintainerr, homepage, tautulli</tspan></text></g></g><g class="node default default flowchart-label" id="flowchart-DL-12" data-node="true" data-id="DL" transform="translate(436.1640625, 484.5)"><rect class="basic label-container" style="" rx="0" ry="0" x="-118.0859375" y="-17.5" width="236.171875" height="35"/><g class="label" style="" transform="translate(0, -10)"><rect/><text style=""><tspan xml:space="preserve" dy="1em" x="0" class="row">download_client_adapters/*</tspan></text></g></g><g class="node default default flowchart-label" id="flowchart-MS-13" data-node="true" data-id="MS" transform="translate(712.3125, 484.5)"><rect class="basic label-container" style="" rx="0" ry="0" x="-108.0625" y="-17.5" width="216.125" height="35"/><g class="label" style="" transform="translate(0, -10)"><rect/><text style=""><tspan xml:space="preserve" dy="1em" x="0" class="row">media_server_adapters/*</tspan></text></g></g><g class="node default default flowchart-label" id="flowchart-SA-14" data-node="true" data-id="SA" transform="translate(967.4296875, 484.5)"><rect class="basic label-container" style="" rx="0" ry="0" x="-97.0546875" y="-17.5" width="194.109375" height="35"/><g class="label" style="" transform="translate(0, -10)"><rect/><text style=""><tspan xml:space="preserve" dy="1em" x="0" class="row">servarr_technologies/*</tspan></text></g></g><g class="node default default flowchart-label" id="flowchart-CFG-7" data-node="true" data-id="CFG" transform="translate(1232.03125, 484.5)"><rect class="basic label-container" style="" rx="0" ry="0" x="-77.546875" y="-17.5" width="155.09375" height="35"/><g class="label" style="" transform="translate(0, -10)"><rect/><text style=""><tspan xml:space="preserve" dy="1em" x="0" class="row">config_models.py</tspan></text></g></g><g class="node default default flowchart-label" id="flowchart-CORE_RT-8" data-node="true" data-id="CORE_RT" transform="translate(1431.609375, 484.5)"><rect class="basic label-container" style="" rx="0" ry="0" x="-72.03125" y="-17.5" width="144.0625" height="35"/><g class="label" style="" transform="translate(0, -10)"><rect/><text style=""><tspan xml:space="preserve" dy="1em" x="0" class="row">runtime_core.py</tspan></text></g></g><g class="node default default flowchart-label" id="flowchart-MED-9" data-node="true" data-id="MED" transform="translate(1652.1953125, 484.5)"><rect class="basic label-container" style="" rx="0" ry="0" x="-98.5546875" y="-17.5" width="197.109375" height="35"/><g class="label" style="" transform="translate(0, -10)"><rect/><text style=""><tspan xml:space="preserve" dy="1em" x="0" class="row">runtime_media_ops.py</tspan></text></g></g><g class="node default default flowchart-label" id="flowchart-ARR-10" data-node="true" data-id="ARR" transform="translate(1902.796875, 484.5)"><rect class="basic label-container" style="" rx="0" ry="0" x="-102.046875" y="-17.5" width="204.09375" height="35"/><g class="label" style="" transform="translate(0, -10)"><rect/><text style=""><tspan xml:space="preserve" dy="1em" x="0" class="row">runtime_servarr/service_ops.py</tspan></text></g></g><g class="node default default flowchart-label" id="flowchart-LIB-11" data-node="true" data-id="LIB" transform="translate(2117.875, 484.5)"><rect class="basic label-container" style="" rx="0" ry="0" x="-63.03125" y="-17.5" width="126.0625" height="35"/><g class="label" style="" transform="translate(0, -10)"><rect/><text style=""><tspan xml:space="preserve" dy="1em" x="0" class="row">core/* helpers</tspan></text></g></g><g class="node default default flowchart-label" id="flowchart-MAIN-3" data-node="true" data-id="MAIN" transform="translate(2519.015625, 195.5)"><rect class="basic label-container" style="" rx="0" ry="0" x="-79.546875" y="-17.5" width="159.09375" height="35"/><g class="label" style="" transform="translate(0, -10)"><rect/><text style=""><tspan xml:space="preserve" dy="1em" x="0" class="row">bootstrap-apps.py</tspan></text></g></g><g class="node default default flowchart-label" id="flowchart-RF-4" data-node="true" data-id="RF" transform="translate(2519.015625, 280.5)"><rect class="basic label-container" style="" rx="0" ry="0" x="-115.046875" y="-17.5" width="230.09375" height="35"/><g class="label" style="" transform="translate(0, -10)"><rect/><text style=""><tspan xml:space="preserve" dy="1em" x="0" class="row">runtime_factory/*</tspan></text></g></g><g class="node default default flowchart-label" id="flowchart-RUN-5" data-node="true" data-id="RUN" transform="translate(2519.015625, 365.5)"><rect class="basic label-container" style="" rx="0" ry="0" x="-121.5703125" y="-17.5" width="243.140625" height="35"/><g class="label" style="" transform="translate(0, -10)"><rect/><text style=""><tspan xml:space="preserve" dy="1em" x="0" class="row">bootstrap_runner_service.py</tspan></text></g></g><g class="node default default flowchart-label" id="flowchart-WIRE-6" data-node="true" data-id="WIRE" transform="translate(2562.265625, 484.5)"><rect class="basic label-container" style="" rx="0" ry="0" x="-85.546875" y="-17.5" width="171.09375" height="35"/><g class="label" style="" transform="translate(0, -10)"><rect/><text style=""><tspan xml:space="preserve" dy="1em" x="0" class="row">operation_wiring.py</tspan></text></g></g><g class="node default default flowchart-label" id="flowchart-SH1-0" data-node="true" data-id="SH1" transform="translate(2275.90625, 51.5)"><rect class="basic label-container" style="" rx="0" ry="0" x="-105.0625" y="-26.5" width="210.125" height="53"/><g class="label" style="" transform="translate(0, -19)"><rect/><text style=""><tspan xml:space="preserve" dy="1em" x="0" class="row">install.sh</tspan><tspan xml:space="preserve" dy="1em" x="0" class="row">rebuild-and-bootstrap.sh</tspan></text></g></g><g class="node default default flowchart-label" id="flowchart-SH2-1" data-node="true" data-id="SH2" transform="translate(2519.015625, 51.5)"><rect class="basic label-container" style="" rx="0" ry="0" x="-88.046875" y="-26.5" width="176.09375" height="53"/><g class="label" style="" transform="translate(0, -19)"><rect/><text style=""><tspan xml:space="preserve" dy="1em" x="0" class="row">bootstrap-all.sh</tspan><tspan xml:space="preserve" dy="1em" x="0" class="row">run-bootstrap-job.sh</tspan></text></g></g><g class="node default default flowchart-label" id="flowchart-SH3-2" data-node="true" data-id="SH3" transform="translate(2716.578125, 51.5)"><rect class="basic label-container" style="" rx="0" ry="0" x="-59.515625" y="-26.5" width="119.03125" height="53"/><g class="label" style="" transform="translate(0, -19)"><rect/><text style=""><tspan xml:space="preserve" dy="1em" x="0" class="row">verify-flow.sh</tspan><tspan xml:space="preserve" dy="1em" x="0" class="row">test.sh</tspan></text></g></g></g></g></g></svg>