<svg id="my-svg" width="100%" xmlns="http://www.w3.org/2000/svg" xmlns:xlink="http://www.w3.org/1999/xlink" style="max-width: 4365.02px; background-color: white;" viewBox="-8 -8 4365.01708984375 1204" role="graphics-document document" aria-roledescription="flowchart-v2"><style>#my-svg{font-family:"trebuchet ms",verdana,arial,sans-serif;font-size:18px;fill:#000000;}#my-svg .error-icon{fill:#552222;}#my-svg .error-text{fill:#552222;stroke:#552222;}#my-svg .edge-thickness-normal{stroke-width:2px;}#my-svg .edge-thickness-thick{stroke-width:3.5px;}#my-svg .edge-pattern-solid{stroke-dasharray:0;}#my-svg .edge-pattern-dashed{stroke-dasharray:3;}#my-svg .edge-pattern-dotted{stroke-dasharray:2;}#my-svg .marker{fill:#1f2937;stroke:#1f2937;}#my-svg .marker.cross{stroke:#1f2937;}#my-svg svg{font-family:"trebuchet ms",verdana,arial,sans-serif;font-size:18px;}#my-svg .label{font-family:"trebuchet ms",verdana,arial,sans-serif;color:#000000;}#my-svg .cluster-label text{fill:#333;}#my-svg .cluster-label span,#my-svg p{color:#333;}#my-svg .label text,#my-svg span,#my-svg p{fill:#000000;color:#000000;}#my-svg .node rect,#my-svg .node circle,#my-svg .node ellipse,#my-svg .node polygon,#my-svg .node path{fill:#eee;stroke:#999;stroke-width:1px;}#my-svg .flowchart-label text{text-anchor:middle;}#my-svg .node .katex path{fill:#000;stroke:#000;stroke-width:1px;}#my-svg .node .label{text-align:center;}#my-svg .node.clickable{cursor:pointer;}#my-svg .arrowheadPath{fill:#333333;}#my-svg .edgePath .path{stroke:#1f2937;stroke-width:2.0px;}#my-svg .flowchart-link{stroke:#1f2937;fill:none;}#my-svg .edgeLabel{background-color:white;text-align:center;}#my-svg .edgeLabel rect{opacity:0.5;background-color:white;fill:white;}#my-svg .labelBkg{background-color:rgba(255, 255, 255, 0.5);}#my-svg .cluster rect{fill:#f8fafc;stroke:#334155;stroke-width:1px;}#my-svg .cluster text{fill:#333;}#my-svg .cluster span,#my-svg p{color:#333;}#my-svg div.mermaidTooltip{position:absolute;text-align:center;max-width:200px;padding:2px;font-family:"trebuchet ms",verdana,arial,sans-serif;font-size:12px;background:#fef9c3;border:1px solid #707070;border-radius:2px;pointer-events:none;z-index:100;}#my-svg .flowchartTitleText{text-anchor:middle;font-size:18px;fill:#000000;}#my-svg :root{--mermaid-font-family:"trebuchet ms",verdana,arial,sans-serif;}</style><g><marker id="my-svg_flowchart-pointEnd" class="marker flowchart" viewBox="0 0 10 10" refX="6" refY="5" markerUnits="userSpaceOnUse" markerWidth="12" markerHeight="12" orient="auto"><path d="M 0 0 L 10 5 L 0 10 z" class="arrowMarkerPath" style="stroke-width: 1; stroke-dasharray: 1, 0;"/></marker><marker id="my-svg_flowchart-pointStart" class="marker flowchart" viewBox="0 0 10 10" refX="4.5" refY="5" markerUnits="userSpaceOnUse" markerWidth="12" markerHeight="12" orient="auto"><path d="M 0 5 L 10 10 L 10 0 z" class="arrowMarkerPath" style="stroke-width: 1; stroke-dasharray: 1, 0;"/></marker><marker id="my-svg_flowchart-circleEnd" class="marker flowchart" viewBox="0 0 10 10" refX="11" refY="5" markerUnits="userSpaceOnUse" markerWidth="11" markerHeight="11" orient="auto"><circle cx="5" cy="5" r="5" class="arrowMarkerPath" style="stroke-width: 1; stroke-dasharray: 1, 0;"/></marker><marker id="my-svg_flowchart-circleStart" class="marker flowchart" viewBox="0 0 10 10" refX="-1" refY="5" markerUnits="userSpaceOnUse" markerWidth="11" markerHeight="11" orient="auto"><circle cx="5" cy="5" r="5" class="arrowMarkerPath" style="stroke-width: 1; stroke-dasharray: 1, 0;"/></marker><marker id="my-svg_flowchart-crossEnd" class="marker cross flowchart" viewBox="0 0 11 11" refX="12" refY="5.2" markerUnits="userSpaceOnUse" markerWidth="11" markerHeight="11" orient="auto"><path d="M 1,1 l 9,9 M 10,1 l -9,9" class="arrowMarkerPath" style="stroke-width: 2; stroke-dasharray: 1, 0;"/></marker><marker id="my-svg_flowchart-crossStart" class="marker cross flowchart" viewBox="0 0 11 11" refX="-1" refY="5.2" markerUnits="userSpaceOnUse" markerWidth="11" markerHeight="11" orient="auto"><path d="M 1,1 l 9,9 M 10,1 l -9,9" class="arrowMarkerPath" style="stroke-width: 2; stroke-dasharray: 1, 0;"/></marker><g class="root"><g class="clusters"><g class="cluster default flowchart-label" id="Runtime"><rect style="" rx="0" ry="0" x="0" y="566" width="449.140625" height="415"/><g class="cluster-label" transform="translate(224.5703125, 566)"><text style=""><tspan xml:space="preserve" dy="1em" x="0" class="row">Cluster Runtime</tspan></text></g></g><g class="cluster default flowchart-label" id="AppSvc"><rect style="" rx="0" ry="0" x="1940.88671875" y="1031" width="507.6591796875" height="157"/><g class="cluster-label" transform="translate(2194.71630859375, 1031)"><text style=""><tspan xml:space="preserve" dy="1em" x="0" class="row">App Services</tspan></text></g></g><g class="cluster default flowchart-label" id="Adapters"><rect style="" rx="0" ry="0" x="425.01171875" y="1031" width="1481.703125" height="157"/><g class="cluster-label" transform="translate(1165.86328125, 1031)"><text style=""><tspan xml:space="preserve" dy="1em" x="0" class="row">Technology Adapters</tspan></text></g></g><g class="cluster default flowchart-label" id="Core"><rect style="" rx="0" ry="0" x="3211.85693359375" y="757" width="1126.40625" height="224"/><g class="cluster-label" transform="translate(3775.06005859375, 757)"><text style=""><tspan xml:space="preserve" dy="1em" x="0" class="row">Shared Runtime Core</tspan></text></g></g><g class="cluster default flowchart-label" id="Entry"><rect style="" rx="0" ry="0" x="469.140625" y="566" width="2009.01708984375" height="415"/><g class="cluster-label" transform="translate(1473.649169921875, 566)"><text style=""><tspan xml:space="preserve" dy="1em" x="0" class="row">Composition Root</tspan></text></g></g><g class="cluster default flowchart-label" id="CliLayer"><rect style="" rx="0" ry="0" x="1088.859375" y="274" width="390.171875" height="242"/><g class="cluster-label" transform="translate(1283.9453125, 274)"><text style=""><tspan xml:space="preserve" dy="1em" x="0" class="row">CLI Layer Boundary — ADR-0015</tspan></text></g></g><g class="cluster default flowchart-label" id="Contracts"><rect style="" rx="0" ry="0" x="2498.15771484375" y="566" width="1850.859375" height="121"/><g class="cluster-label" transform="translate(3423.58740234375, 566)"><text style=""><tspan xml:space="preserve" dy="1em" x="0" class="row">Declarative Contracts</tspan></text></g></g><g class="cluster default flowchart-label" id="Operators"><rect style="" rx="0" ry="0" x="432.1171875" y="0" width="1080.40625" height="224"/><g class="cluster-label" transform="translate(972.3203125, 0)"><text style=""><tspan xml:space="preserve" dy="1em" x="0" class="row">Operator Surface</tspan></text></g></g></g><g class="edgePaths"><path d="M1283.945,78L1283.945,82.167C1283.945,86.333,1283.945,94.667,1283.945,102.117C1283.945,109.567,1283.945,116.133,1283.945,119.417L1283.945,122.7" id="L-PY-CLI-0" class=" edge-thickness-normal edge-pattern-solid flowchart-link LS-PY LE-CLI" style="fill:none;" marker-end="url(#my-svg_flowchart-pointEnd)"/><path d="M569.672,190L569.672,195.667C569.672,201.333,569.672,212.667,569.672,222.5C569.672,232.333,569.672,240.667,569.672,249C569.672,257.333,569.672,265.667,569.672,279.917C569.672,294.167,569.672,314.333,569.672,334.5C569.672,354.667,569.672,374.833,569.672,395C569.672,415.167,569.672,435.333,569.672,455.5C569.672,475.667,569.672,495.833,569.672,510.083C569.672,524.333,569.672,532.667,569.672,541C569.672,549.333,569.672,557.667,613.177,569.412C656.683,581.158,743.694,596.315,787.199,603.894L830.704,611.473" id="L-SH1-MAIN-0" class=" edge-thickness-normal edge-pattern-solid flowchart-link LS-SH1 LE-MAIN" style="fill:none;" marker-end="url(#my-svg_flowchart-pointEnd)"/><path d="M881.297,190L881.297,195.667C881.297,201.333,881.297,212.667,881.297,222.5C881.297,232.333,881.297,240.667,881.297,249C881.297,257.333,881.297,265.667,881.297,279.917C881.297,294.167,881.297,314.333,881.297,334.5C881.297,354.667,881.297,374.833,881.297,395C881.297,415.167,881.297,435.333,881.297,455.5C881.297,475.667,881.297,495.833,881.297,510.083C881.297,524.333,881.297,532.667,881.297,541C881.297,549.333,881.297,557.667,885.073,568.239C888.85,578.811,896.403,591.623,900.179,598.029L903.956,604.434" id="L-SH2-MAIN-0" class=" edge-thickness-normal edge-pattern-solid flowchart-link LS-SH2 LE-MAIN" style="fill:none;" marker-end="url(#my-svg_flowchart-pointEnd)"/><path d="M1283.945,199L1283.945,203.167C1283.945,207.333,1283.945,215.667,1283.945,224C1283.945,232.333,1283.945,240.667,1283.945,249C1283.945,257.333,1283.945,265.667,1283.945,273.117C1283.945,280.567,1283.945,287.133,1283.945,290.417L1283.945,293.7" id="L-CLI-CMDS-0" class=" edge-thickness-normal edge-pattern-solid flowchart-link LS-CLI LE-CMDS" style="fill:none;" marker-end="url(#my-svg_flowchart-pointEnd)"/><path d="M1283.945,370L1283.945,374.167C1283.945,378.333,1283.945,386.667,1283.945,394.117C1283.945,401.567,1283.945,408.133,1283.945,411.417L1283.945,414.7" id="L-CMDS-WORKFLOWS-0" class=" edge-thickness-normal edge-pattern-solid flowchart-link LS-CMDS LE-WORKFLOWS" style="fill:none;" marker-end="url(#my-svg_flowchart-pointEnd)"/><path d="M1283.945,491L1283.945,495.167C1283.945,499.333,1283.945,507.667,1283.945,516C1283.945,524.333,1283.945,532.667,1283.945,541C1283.945,549.333,1283.945,557.667,1237.16,569.546C1190.375,581.426,1096.804,596.852,1050.019,604.565L1003.233,612.278" id="L-WORKFLOWS-MAIN-0" class=" edge-thickness-normal edge-pattern-solid flowchart-link LS-WORKFLOWS LE-MAIN" style="fill:none;" marker-end="url(#my-svg_flowchart-pointEnd)"/><path d="M2688.994,653L2688.994,658.667C2688.994,664.333,2688.994,675.667,2503.915,687.167C2318.836,698.667,1948.678,710.333,1763.599,722C1578.52,733.667,1578.52,745.333,1593.967,757.977C1609.414,770.621,1640.308,784.241,1655.756,791.052L1671.203,797.862" id="L-SVC-RF-0" class=" edge-thickness-normal edge-pattern-solid flowchart-link LS-SVC LE-RF" style="fill:none;" marker-end="url(#my-svg_flowchart-pointEnd)"/><path d="M3049.947,653L3049.947,658.667C3049.947,664.333,3049.947,675.667,2826.635,687.167C2603.324,698.667,2156.701,710.333,1933.39,722C1710.078,733.667,1710.078,745.333,1710.667,757.454C1711.256,769.574,1712.434,782.149,1713.023,788.436L1713.612,794.723" id="L-PROF-RF-0" class=" edge-thickness-normal edge-pattern-solid flowchart-link LS-PROF LE-RF" style="fill:none;" marker-end="url(#my-svg_flowchart-pointEnd)"/><path d="M3397.126,653L3397.126,658.667C3397.126,664.333,3397.126,675.667,3229.004,687.167C3060.882,698.667,2724.637,710.333,2556.514,722C2388.392,733.667,2388.392,745.333,2297.341,759.356C2206.29,773.379,2024.189,789.758,1933.138,797.947L1842.087,806.136" id="L-K8S-RF-0" class=" edge-thickness-normal edge-pattern-solid flowchart-link LS-K8S LE-RF" style="fill:none;" marker-end="url(#my-svg_flowchart-pointEnd)"/><path d="M3749.791,644L3749.791,651.167C3749.791,658.333,3749.791,672.667,3526.224,685.667C3302.658,698.667,2855.525,710.333,2631.958,722C2408.392,733.667,2408.392,745.333,2314.008,759.411C2219.624,773.488,2030.856,789.976,1936.472,798.22L1842.088,806.464" id="L-RPLAN-RF-0" class=" edge-thickness-normal edge-pattern-solid flowchart-link LS-RPLAN LE-RF" style="fill:none;" marker-end="url(#my-svg_flowchart-pointEnd)"/><path d="M4137.205,662L4137.205,666.167C4137.205,670.333,4137.205,678.667,4137.205,688.667C4137.205,698.667,4137.205,710.333,4137.205,722C4137.205,733.667,4137.205,745.333,4137.205,754.45C4137.205,763.567,4137.205,770.133,4137.205,773.417L4137.205,776.7" id="L-PROMISES-PROMRT-0" class=" edge-thickness-normal edge-pattern-solid flowchart-link LS-PROMISES LE-PROMRT" style="fill:none;" marker-end="url(#my-svg_flowchart-pointEnd)"/><path d="M998.004,634.142L1091.423,642.952C1184.842,651.761,1371.681,669.381,1465.1,684.024C1558.52,698.667,1558.52,710.333,1558.52,722C1558.52,733.667,1558.52,745.333,1576.32,758.016C1594.12,770.699,1629.72,784.398,1647.521,791.247L1665.321,798.097" id="L-MAIN-RF-0" class=" edge-thickness-normal edge-pattern-solid flowchart-link LS-MAIN LE-RF" style="fill:none;" marker-end="url(#my-svg_flowchart-pointEnd)"/><path d="M1836.809,829.579L1917.691,837.649C1998.573,845.719,2160.338,861.86,2241.221,874.713C2322.103,887.567,2322.103,897.133,2322.103,901.917L2322.103,906.7" id="L-RF-WIRE-0" class=" edge-thickness-normal edge-pattern-solid flowchart-link LS-RF LE-WIRE" style="fill:none;" marker-end="url(#my-svg_flowchart-pointEnd)"/><path d="M998.004,634.965L1081.029,643.638C1164.055,652.31,1330.105,669.655,1413.131,684.161C1496.156,698.667,1496.156,710.333,1496.156,722C1496.156,733.667,1496.156,745.333,1496.156,761.25C1496.156,777.167,1496.156,797.333,1496.156,817.5C1496.156,837.667,1496.156,857.833,1567.071,874.645C1637.987,891.456,1779.817,904.912,1850.732,911.64L1921.647,918.368" id="L-MAIN-LIFECYCLE-0" class=" edge-thickness-normal edge-pattern-solid flowchart-link LS-MAIN LE-LIFECYCLE" style="fill:none;" marker-end="url(#my-svg_flowchart-pointEnd)"/><path d="M835.926,643.597L801.639,650.831C767.352,658.065,698.777,672.532,664.49,685.6C630.203,698.667,630.203,710.333,630.203,722C630.203,733.667,630.203,745.333,630.203,755.95C630.203,766.567,630.203,776.133,630.203,780.917L630.203,785.7" id="L-MAIN-JOBS-0" class=" edge-thickness-normal edge-pattern-solid flowchart-link LS-MAIN LE-JOBS" style="fill:none;" marker-end="url(#my-svg_flowchart-pointEnd)"/><path d="M4137.205,853L4137.205,857.167C4137.205,861.333,4137.205,869.667,3807.062,881.937C3476.919,894.206,2816.633,910.413,2486.49,918.516L2156.347,926.619" id="L-PROMRT-LIFECYCLE-0" class=" edge-thickness-normal edge-pattern-solid flowchart-link LS-PROMRT LE-LIFECYCLE" style="fill:none;" marker-end="url(#my-svg_flowchart-pointEnd)"/><path d="M1836.809,832.059L1900.475,839.716C1964.141,847.373,2091.474,862.686,2465.146,878.427C2838.817,894.168,3458.829,910.336,3768.834,918.421L4078.84,926.505" id="L-RF-CFGM-0" class=" edge-thickness-normal edge-pattern-solid flowchart-link LS-RF LE-CFGM" style="fill:none;" marker-end="url(#my-svg_flowchart-pointEnd)"/><path d="M1836.809,832.662L1897.142,840.219C1957.474,847.775,2078.14,862.887,2396.127,878.28C2714.115,893.673,3229.423,909.346,3487.077,917.182L3744.731,925.018" id="L-RF-CORE_RT-0" class=" edge-thickness-normal edge-pattern-solid flowchart-link LS-RF LE-CORE_RT" style="fill:none;" marker-end="url(#my-svg_flowchart-pointEnd)"/><path d="M1836.809,833.317L1893.808,840.764C1950.808,848.211,2064.807,863.106,2328.276,878.243C2591.745,893.381,3004.684,908.761,3211.154,916.452L3417.623,924.142" id="L-RF-CORE_SEC-0" class=" edge-thickness-normal edge-pattern-solid flowchart-link LS-RF LE-CORE_SEC" style="fill:none;" marker-end="url(#my-svg_flowchart-pointEnd)"/><path d="M1836.809,834.031L1890.475,841.359C1944.141,848.687,2051.474,863.344,2285.599,878.746C2519.725,894.148,2880.644,910.295,3061.103,918.369L3241.562,926.443" id="L-RF-LIB-0" class=" edge-thickness-normal edge-pattern-solid flowchart-link LS-RF LE-LIB" style="fill:none;" marker-end="url(#my-svg_flowchart-pointEnd)"/><path d="M1212.418,939.2L1296.366,946.167C1380.314,953.134,1548.21,967.067,1632.158,978.2C1716.105,989.333,1716.105,997.667,1716.105,1006C1716.105,1014.333,1716.105,1022.667,1716.105,1036.117C1716.105,1049.567,1716.105,1068.133,1716.105,1077.417L1716.105,1086.7" id="L-REG-DL-0" class=" edge-thickness-normal edge-pattern-solid flowchart-link LS-REG LE-DL" style="fill:none;" marker-end="url(#my-svg_flowchart-pointEnd)"/><path d="M1212.418,951.847L1237.833,956.706C1263.249,961.565,1314.079,971.282,1339.495,980.308C1364.91,989.333,1364.91,997.667,1364.91,1006C1364.91,1014.333,1364.91,1022.667,1364.91,1036.117C1364.91,1049.567,1364.91,1068.133,1364.91,1077.417L1364.91,1086.7" id="L-REG-MS-0" class=" edge-thickness-normal edge-pattern-solid flowchart-link LS-REG LE-MS" style="fill:none;" marker-end="url(#my-svg_flowchart-pointEnd)"/><path d="M1055.251,956L1048.918,960.167C1042.585,964.333,1029.92,972.667,1023.587,981C1017.254,989.333,1017.254,997.667,1017.254,1006C1017.254,1014.333,1017.254,1022.667,1017.254,1036.117C1017.254,1049.567,1017.254,1068.133,1017.254,1077.417L1017.254,1086.7" id="L-REG-SA-0" class=" edge-thickness-normal edge-pattern-solid flowchart-link LS-REG LE-SA" style="fill:none;" marker-end="url(#my-svg_flowchart-pointEnd)"/><path d="M978.637,945.863L936.803,951.719C894.97,957.575,811.303,969.288,769.47,979.311C727.637,989.333,727.637,997.667,727.637,1006C727.637,1014.333,727.637,1022.667,727.637,1036.117C727.637,1049.567,727.637,1068.133,727.637,1077.417L727.637,1086.7" id="L-REG-COMPOSE-0" class=" edge-thickness-normal edge-pattern-solid flowchart-link LS-REG LE-COMPOSE" style="fill:none;" marker-end="url(#my-svg_flowchart-pointEnd)"/><path d="M978.637,940.052L903.039,946.877C827.441,953.702,676.246,967.351,600.648,978.342C525.051,989.333,525.051,997.667,525.051,1006C525.051,1014.333,525.051,1022.667,525.051,1036.117C525.051,1049.567,525.051,1068.133,525.051,1077.417L525.051,1086.7" id="L-REG-K8SA-0" class=" edge-thickness-normal edge-pattern-solid flowchart-link LS-REG LE-K8SA" style="fill:none;" marker-end="url(#my-svg_flowchart-pointEnd)"/><path d="M1676.052,835L1659.797,842.167C1643.541,849.333,1611.031,863.667,1534.636,877.246C1458.242,890.825,1337.965,903.65,1277.827,910.062L1217.688,916.474" id="L-RF-REG-0" class=" edge-thickness-normal edge-pattern-solid flowchart-link LS-RF LE-REG" style="fill:none;" marker-end="url(#my-svg_flowchart-pointEnd)"/><path d="M2322.103,947L2322.103,952.667C2322.103,958.333,2322.103,969.667,2322.103,979.5C2322.103,989.333,2322.103,997.667,2322.103,1006C2322.103,1014.333,2322.103,1022.667,2319.545,1030.29C2316.986,1037.913,2311.87,1044.827,2309.311,1048.283L2306.753,1051.74" id="L-WIRE-APPMOD-0" class=" edge-thickness-normal edge-pattern-solid flowchart-link LS-WIRE LE-APPMOD" style="fill:none;" marker-end="url(#my-svg_flowchart-pointEnd)"/><path d="M2038.986,956L2038.986,960.167C2038.986,964.333,2038.986,972.667,2038.986,981C2038.986,989.333,2038.986,997.667,2038.986,1006C2038.986,1014.333,2038.986,1022.667,2050.731,1030.931C2062.476,1039.195,2085.967,1047.39,2097.712,1051.487L2109.458,1055.585" id="L-LIFECYCLE-APPMOD-0" class=" edge-thickness-normal edge-pattern-solid flowchart-link LS-LIFECYCLE LE-APPMOD" style="fill:none;" marker-end="url(#my-svg_flowchart-pointEnd)"/><path d="M835.926,639.849L788.217,647.707C740.508,655.566,645.09,671.283,597.381,684.975C549.672,698.667,549.672,710.333,549.672,722C549.672,733.667,549.672,745.333,527.952,755.209C506.232,765.084,462.791,773.168,441.071,777.21L419.351,781.252" id="L-MAIN-CTRL-0" class=" edge-thickness-normal edge-pattern-solid flowchart-link LS-MAIN LE-CTRL" style="fill:none;" marker-end="url(#my-svg_flowchart-pointEnd)"/><path d="M224.57,853L224.57,857.167C224.57,861.333,224.57,869.667,224.57,877.117C224.57,884.567,224.57,891.133,224.57,894.417L224.57,897.7" id="L-CTRL-APPS-0" class=" edge-thickness-normal edge-pattern-solid flowchart-link LS-CTRL LE-APPS" style="fill:none;" marker-end="url(#my-svg_flowchart-pointEnd)"/><path d="M224.57,662L224.57,666.167C224.57,670.333,224.57,678.667,224.57,688.667C224.57,698.667,224.57,710.333,224.57,722C224.57,733.667,224.57,745.333,224.57,754.45C224.57,763.567,224.57,770.133,224.57,773.417L224.57,776.7" id="L-UI-CTRL-0" class=" edge-thickness-normal edge-pattern-solid flowchart-link LS-UI LE-CTRL" style="fill:none;" marker-end="url(#my-svg_flowchart-pointEnd)"/></g><g class="edgeLabels"><g class="edgeLabel"><g class="label" transform="translate(0, 0)"><rect rx="0" ry="0" width="0" height="0"/><text style=""><tspan xml:space="preserve" dy="1em" x="0" class="row"/></text></g></g><g class="edgeLabel"><g class="label" transform="translate(0, 0)"><rect rx="0" ry="0" width="0" height="0"/><text style=""><tspan xml:space="preserve" dy="1em" x="0" class="row"/></text></g></g><g class="edgeLabel"><g class="label" transform="translate(0, 0)"><rect rx="0" ry="0" width="0" height="0"/><text style=""><tspan xml:space="preserve" dy="1em" x="0" class="row"/></text></g></g><g class="edgeLabel"><g class="label" transform="translate(0, 0)"><rect rx="0" ry="0" width="0" height="0"/><text style=""><tspan xml:space="preserve" dy="1em" x="0" class="row"/></text></g></g><g class="edgeLabel"><g class="label" transform="translate(0, 0)"><rect rx="0" ry="0" width="0" height="0"/><text style=""><tspan xml:space="preserve" dy="1em" x="0" class="row"/></text></g></g><g class="edgeLabel"><g class="label" transform="translate(0, 0)"><rect rx="0" ry="0" width="0" height="0"/><text style=""><tspan xml:space="preserve" dy="1em" x="0" class="row"/></text></g></g><g class="edgeLabel"><g class="label" transform="translate(0, 0)"><rect rx="0" ry="0" width="0" height="0"/><text style=""><tspan xml:space="preserve" dy="1em" x="0" class="row"/></text></g></g><g class="edgeLabel"><g class="label" transform="translate(0, 0)"><rect rx="0" ry="0" width="0" height="0"/><text style=""><tspan xml:space="preserve" dy="1em" x="0" class="row"/></text></g></g><g class="edgeLabel"><g class="label" transform="translate(0, 0)"><rect rx="0" ry="0" width="0" height="0"/><text style=""><tspan xml:space="preserve" dy="1em" x="0" class="row"/></text></g></g><g class="edgeLabel"><g class="label" transform="translate(0, 0)"><rect rx="0" ry="0" width="0" height="0"/><text style=""><tspan xml:space="preserve" dy="1em" x="0" class="row"/></text></g></g><g class="edgeLabel"><g class="label" transform="translate(0, 0)"><rect rx="0" ry="0" width="0" height="0"/><text style=""><tspan xml:space="preserve" dy="1em" x="0" class="row"/></text></g></g><g class="edgeLabel"><g class="label" transform="translate(0, 0)"><rect rx="0" ry="0" width="0" height="0"/><text style=""><tspan xml:space="preserve" dy="1em" x="0" class="row"/></text></g></g><g class="edgeLabel"><g class="label" transform="translate(0, 0)"><rect rx="0" ry="0" width="0" height="0"/><text style=""><tspan xml:space="preserve" dy="1em" x="0" class="row"/></text></g></g><g class="edgeLabel"><g class="label" transform="translate(0, 0)"><rect rx="0" ry="0" width="0" height="0"/><text style=""><tspan xml:space="preserve" dy="1em" x="0" class="row"/></text></g></g><g class="edgeLabel"><g class="label" transform="translate(0, 0)"><rect rx="0" ry="0" width="0" height="0"/><text style=""><tspan xml:space="preserve" dy="1em" x="0" class="row"/></text></g></g><g class="edgeLabel"><g class="label" transform="translate(0, 0)"><rect rx="0" ry="0" width="0" height="0"/><text style=""><tspan xml:space="preserve" dy="1em" x="0" class="row"/></text></g></g><g class="edgeLabel"><g class="label" transform="translate(0, 0)"><rect rx="0" ry="0" width="0" height="0"/><text style=""><tspan xml:space="preserve" dy="1em" x="0" class="row"/></text></g></g><g class="edgeLabel"><g class="label" transform="translate(0, 0)"><rect rx="0" ry="0" width="0" height="0"/><text style=""><tspan xml:space="preserve" dy="1em" x="0" class="row"/></text></g></g><g class="edgeLabel"><g class="label" transform="translate(0, 0)"><rect rx="0" ry="0" width="0" height="0"/><text style=""><tspan xml:space="preserve" dy="1em" x="0" class="row"/></text></g></g><g class="edgeLabel"><g class="label" transform="translate(0, 0)"><rect rx="0" ry="0" width="0" height="0"/><text style=""><tspan xml:space="preserve" dy="1em" x="0" class="row"/></text></g></g><g class="edgeLabel"><g class="label" transform="translate(0, 0)"><rect rx="0" ry="0" width="0" height="0"/><text style=""><tspan xml:space="preserve" dy="1em" x="0" class="row"/></text></g></g><g class="edgeLabel"><g class="label" transform="translate(0, 0)"><rect rx="0" ry="0" width="0" height="0"/><text style=""><tspan xml:space="preserve" dy="1em" x="0" class="row"/></text></g></g><g class="edgeLabel"><g class="label" transform="translate(0, 0)"><rect rx="0" ry="0" width="0" height="0"/><text style=""><tspan xml:space="preserve" dy="1em" x="0" class="row"/></text></g></g><g class="edgeLabel"><g class="label" transform="translate(0, 0)"><rect rx="0" ry="0" width="0" height="0"/><text style=""><tspan xml:space="preserve" dy="1em" x="0" class="row"/></text></g></g><g class="edgeLabel"><g class="label" transform="translate(0, 0)"><rect rx="0" ry="0" width="0" height="0"/><text style=""><tspan xml:space="preserve" dy="1em" x="0" class="row"/></text></g></g><g class="edgeLabel"><g class="label" transform="translate(0, 0)"><rect rx="0" ry="0" width="0" height="0"/><text style=""><tspan xml:space="preserve" dy="1em" x="0" class="row"/></text></g></g><g class="edgeLabel"><g class="label" transform="translate(0, 0)"><rect rx="0" ry="0" width="0" height="0"/><text style=""><tspan xml:space="preserve" dy="1em" x="0" class="row"/></text></g></g><g class="edgeLabel"><g class="label" transform="translate(0, 0)"><rect rx="0" ry="0" width="0" height="0"/><text style=""><tspan xml:space="preserve" dy="1em" x="0" class="row"/></text></g></g><g class="edgeLabel"><g class="label" transform="translate(0, 0)"><rect rx="0" ry="0" width="0" height="0"/><text style=""><tspan xml:space="preserve" dy="1em" x="0" class="row"/></text></g></g><g class="edgeLabel"><g class="label" transform="translate(0, 0)"><rect rx="0" ry="0" width="0" height="0"/><text style=""><tspan xml:space="preserve" dy="1em" x="0" class="row"/></text></g></g><g class="edgeLabel" transform="translate(224.5703125, 722)"><g class="label" transform="translate(-20.515625, -10)"><rect rx="0" ry="0" width="41.99412155151367" height="19.986513137817383"/><text style=""><tspan xml:space="preserve" dy="1em" x="0" class="row">/api/*</tspan></text></g></g></g><g class="nodes"><g class="node default default flowchart-label" id="flowchart-CTRL-28" data-node="true" data-id="CTRL" transform="translate(224.5703125, 817.5)"><rect class="basic label-container" style="" rx="0" ry="0" x="-189.5703125" y="-35.5" width="379.140625" height="71"/><g class="label" style="" transform="translate(0, -28)"><rect/><text style=""><tspan xml:space="preserve" dy="1em" x="0" class="row">media-stack-controller</tspan><tspan xml:space="preserve" dy="1em" x="0" class="row">HTTP API + dashboard on :9100</tspan><tspan xml:space="preserve" dy="1em" x="0" class="row">(harbor.iomio.io/public/media-stack-controller)</tspan></text></g></g><g class="node default default flowchart-label" id="flowchart-UI-29" data-node="true" data-id="UI" transform="translate(224.5703125, 626.5)"><rect class="basic label-container" style="" rx="0" ry="0" x="-159.5625" y="-35.5" width="319.125" height="71"/><g class="label" style="" transform="translate(0, -28)"><rect/><text style=""><tspan xml:space="preserve" dy="1em" x="0" class="row">media-stack-ui SPA on :8080</tspan><tspan xml:space="preserve" dy="1em" x="0" class="row">(harbor.iomio.io/public/media-stack-ui)</tspan><tspan xml:space="preserve" dy="1em" x="0" class="row">reverse-proxies /api/*</tspan></text></g></g><g class="node default default flowchart-label" id="flowchart-APPS-30" data-node="true" data-id="APPS" transform="translate(224.5703125, 929.5)"><rect class="basic label-container" style="" rx="0" ry="0" x="-109.3046875" y="-26.5" width="218.609375" height="53"/><g class="label" style="" transform="translate(0, -19)"><rect/><text style=""><tspan xml:space="preserve" dy="1em" x="0" class="row">Arr / Prowlarr / Jellyfin /</tspan><tspan xml:space="preserve" dy="1em" x="0" class="row">Jellyseerr + bound clients</tspan></text></g></g><g class="node default default flowchart-label" id="flowchart-APPMOD-27" data-node="true" data-id="APPMOD" transform="translate(2264.00390625, 1109.5)"><rect class="basic label-container" style="" rx="0" ry="0" x="-149.5419921875" y="-53.5" width="299.083984375" height="107"/><g class="label" style="" transform="translate(0, -46)"><rect/><text style=""><tspan xml:space="preserve" dy="1em" x="0" class="row">services/apps/* service modules</tspan><tspan xml:space="preserve" dy="1em" x="0" class="row">jellyfin / jellyseerr / prowlarr / bazarr</tspan><tspan xml:space="preserve" dy="1em" x="0" class="row">torrent clients / usenet clients</tspan><tspan xml:space="preserve" dy="1em" x="0" class="row">maintainerr / homepage / tautulli /</tspan><tspan xml:space="preserve" dy="1em" x="0" class="row">unpackerr / flaresolverr / authelia</tspan></text></g></g><g class="node default default flowchart-label" id="flowchart-DL-22" data-node="true" data-id="DL" transform="translate(1716.10546875, 1109.5)"><rect class="basic label-container" style="" rx="0" ry="0" x="-155.609375" y="-17.5" width="311.21875" height="35"/><g class="label" style="" transform="translate(0, -10)"><rect/><text style=""><tspan xml:space="preserve" dy="1em" x="0" class="row">adapters/download_client_adapters/*</tspan></text></g></g><g class="node default default flowchart-label" id="flowchart-MS-23" data-node="true" data-id="MS" transform="translate(1364.91015625, 1109.5)"><rect class="basic label-container" style="" rx="0" ry="0" x="-145.5859375" y="-17.5" width="291.171875" height="35"/><g class="label" style="" transform="translate(0, -10)"><rect/><text style=""><tspan xml:space="preserve" dy="1em" x="0" class="row">adapters/media_server_adapters/*</tspan></text></g></g><g class="node default default flowchart-label" id="flowchart-SA-24" data-node="true" data-id="SA" transform="translate(1017.25390625, 1109.5)"><rect class="basic label-container" style="" rx="0" ry="0" x="-152.0703125" y="-17.5" width="304.140625" height="35"/><g class="label" style="" transform="translate(0, -10)"><rect/><text style=""><tspan xml:space="preserve" dy="1em" x="0" class="row">services/apps/servarr/technologies/*</tspan></text></g></g><g class="node default default flowchart-label" id="flowchart-COMPOSE-25" data-node="true" data-id="COMPOSE" transform="translate(727.63671875, 1109.5)"><rect class="basic label-container" style="" rx="0" ry="0" x="-87.546875" y="-17.5" width="175.09375" height="35"/><g class="label" style="" transform="translate(0, -10)"><rect/><text style=""><tspan xml:space="preserve" dy="1em" x="0" class="row">adapters/compose/*</tspan></text></g></g><g class="node default default flowchart-label" id="flowchart-K8SA-26" data-node="true" data-id="K8SA" transform="translate(525.05078125, 1109.5)"><rect class="basic label-container" style="" rx="0" ry="0" x="-65.0390625" y="-17.5" width="130.078125" height="35"/><g class="label" style="" transform="translate(0, -10)"><rect/><text style=""><tspan xml:space="preserve" dy="1em" x="0" class="row">adapters/k8s/*</tspan></text></g></g><g class="node default default flowchart-label" id="flowchart-CFGM-17" data-node="true" data-id="CFGM" transform="translate(4193.70068359375, 929.5)"><rect class="basic label-container" style="" rx="0" ry="0" x="-109.5625" y="-17.5" width="219.125" height="35"/><g class="label" style="" transform="translate(0, -10)"><rect/><text style=""><tspan xml:space="preserve" dy="1em" x="0" class="row">domain/config_models.py</tspan></text></g></g><g class="node default default flowchart-label" id="flowchart-CORE_RT-18" data-node="true" data-id="CORE_RT" transform="translate(3892.08349609375, 929.5)"><rect class="basic label-container" style="" rx="0" ry="0" x="-142.0546875" y="-17.5" width="284.109375" height="35"/><g class="label" style="" transform="translate(0, -10)"><rect/><text style=""><tspan xml:space="preserve" dy="1em" x="0" class="row">infrastructure/runtime_platform.py</tspan></text></g></g><g class="node default default flowchart-label" id="flowchart-CORE_SEC-19" data-node="true" data-id="CORE_SEC" transform="translate(3561.47412109375, 929.5)"><rect class="basic label-container" style="" rx="0" ry="0" x="-138.5546875" y="-17.5" width="277.109375" height="35"/><g class="label" style="" transform="translate(0, -10)"><rect/><text style=""><tspan xml:space="preserve" dy="1em" x="0" class="row">infrastructure/runtime_secrets.py</tspan></text></g></g><g class="node default default flowchart-label" id="flowchart-PROMRT-20" data-node="true" data-id="PROMRT" transform="translate(4137.20458984375, 817.5)"><rect class="basic label-container" style="" rx="0" ry="0" x="-155.3046875" y="-35.5" width="310.609375" height="71"/><g class="label" style="" transform="translate(0, -28)"><rect/><text style=""><tspan xml:space="preserve" dy="1em" x="0" class="row">infrastructure/promises/registry.py</tspan><tspan xml:space="preserve" dy="1em" x="0" class="row">load_registry() across cross-cutting +</tspan><tspan xml:space="preserve" dy="1em" x="0" class="row">per-service registries</tspan></text></g></g><g class="node default default flowchart-label" id="flowchart-LIB-21" data-node="true" data-id="LIB" transform="translate(3309.88818359375, 929.5)"><rect class="basic label-container" style="" rx="0" ry="0" x="-63.03125" y="-17.5" width="126.0625" height="35"/><g class="label" style="" transform="translate(0, -10)"><rect/><text style=""><tspan xml:space="preserve" dy="1em" x="0" class="row">core/* helpers</tspan></text></g></g><g class="node default default flowchart-label" id="flowchart-MAIN-11" data-node="true" data-id="MAIN" transform="translate(916.96484375, 626.5)"><rect class="basic label-container" style="" rx="0" ry="0" x="-81.0390625" y="-17.5" width="162.078125" height="35"/><g class="label" style="" transform="translate(0, -10)"><rect/><text style=""><tspan xml:space="preserve" dy="1em" x="0" class="row">controller_main.py</tspan></text></g></g><g class="node default default flowchart-label" id="flowchart-RF-12" data-node="true" data-id="RF" transform="translate(1715.74609375, 817.5)"><rect class="basic label-container" style="" rx="0" ry="0" x="-121.0625" y="-17.5" width="242.125" height="35"/><g class="label" style="" transform="translate(0, -10)"><rect/><text style=""><tspan xml:space="preserve" dy="1em" x="0" class="row">application/runtime_factory/*</tspan></text></g></g><g class="node default default flowchart-label" id="flowchart-REG-13" data-node="true" data-id="REG" transform="translate(1095.52734375, 929.5)"><rect class="basic label-container" style="" rx="0" ry="0" x="-116.890625" y="-26.5" width="233.78125" height="53"/><g class="label" style="" transform="translate(0, -19)"><rect/><text style=""><tspan xml:space="preserve" dy="1em" x="0" class="row">services/adapter_factory.py</tspan><tspan xml:space="preserve" dy="1em" x="0" class="row">(generic registry)</tspan></text></g></g><g class="node default default flowchart-label" id="flowchart-WIRE-14" data-node="true" data-id="WIRE" transform="translate(2322.10302734375, 929.5)"><rect class="basic label-container" style="" rx="0" ry="0" x="-121.0546875" y="-17.5" width="242.109375" height="35"/><g class="label" style="" transform="translate(0, -10)"><rect/><text style=""><tspan xml:space="preserve" dy="1em" x="0" class="row">services/operation_wiring.py</tspan></text></g></g><g class="node default default flowchart-label" id="flowchart-LIFECYCLE-15" data-node="true" data-id="LIFECYCLE" transform="translate(2038.98583984375, 929.5)"><rect class="basic label-container" style="" rx="0" ry="0" x="-112.0625" y="-26.5" width="224.125" height="53"/><g class="label" style="" transform="translate(0, -19)"><rect/><text style=""><tspan xml:space="preserve" dy="1em" x="0" class="row">application/lifecycle/*</tspan><tspan xml:space="preserve" dy="1em" x="0" class="row">ADR-0007 dispatch tables</tspan></text></g></g><g class="node default default flowchart-label" id="flowchart-JOBS-16" data-node="true" data-id="JOBS" transform="translate(630.203125, 817.5)"><rect class="basic label-container" style="" rx="0" ry="0" x="-126.0625" y="-26.5" width="252.125" height="53"/><g class="label" style="" transform="translate(0, -19)"><rect/><text style=""><tspan xml:space="preserve" dy="1em" x="0" class="row">application/jobs/framework.py</tspan><tspan xml:space="preserve" dy="1em" x="0" class="row">job-graph engine</tspan></text></g></g><g class="node default default flowchart-label" id="flowchart-CMDS-9" data-node="true" data-id="CMDS" transform="translate(1283.9453125, 334.5)"><rect class="basic label-container" style="" rx="0" ry="0" x="-109.3046875" y="-35.5" width="218.609375" height="71"/><g class="label" style="" transform="translate(0, -28)"><rect/><text style=""><tspan xml:space="preserve" dy="1em" x="0" class="row">cli/commands/*</tspan><tspan xml:space="preserve" dy="1em" x="0" class="row">thin entry-point shims</tspan><tspan xml:space="preserve" dy="1em" x="0" class="row">(arg parsing + exit codes)</tspan></text></g></g><g class="node default default flowchart-label" id="flowchart-WORKFLOWS-10" data-node="true" data-id="WORKFLOWS" transform="translate(1283.9453125, 455.5)"><rect class="basic label-container" style="" rx="0" ry="0" x="-160.0859375" y="-35.5" width="320.171875" height="71"/><g class="label" style="" transform="translate(0, -28)"><rect/><text style=""><tspan xml:space="preserve" dy="1em" x="0" class="row">cli/workflows/*</tspan><tspan xml:space="preserve" dy="1em" x="0" class="row">deploy / release / teardown / controller</tspan><tspan xml:space="preserve" dy="1em" x="0" class="row">service classes (DI-wired)</tspan></text></g></g><g class="node default default flowchart-label" id="flowchart-SVC-4" data-node="true" data-id="SVC" transform="translate(2688.99365234375, 626.5)"><rect class="basic label-container" style="" rx="0" ry="0" x="-155.8359375" y="-26.5" width="311.671875" height="53"/><g class="label" style="" transform="translate(0, -19)"><rect/><text style=""><tspan xml:space="preserve" dy="1em" x="0" class="row">contracts/services/*.yaml</tspan><tspan xml:space="preserve" dy="1em" x="0" class="row">per-service definitions + plugin config</tspan></text></g></g><g class="node default default flowchart-label" id="flowchart-PROF-5" data-node="true" data-id="PROF" transform="translate(3049.94677734375, 626.5)"><rect class="basic label-container" style="" rx="0" ry="0" x="-155.1171875" y="-26.5" width="310.234375" height="53"/><g class="label" style="" transform="translate(0, -19)"><rect/><text style=""><tspan xml:space="preserve" dy="1em" x="0" class="row">contracts/media-stack.profile.yaml</tspan><tspan xml:space="preserve" dy="1em" x="0" class="row">technology_bindings + routing + auth</tspan></text></g></g><g class="node default default flowchart-label" id="flowchart-K8S-6" data-node="true" data-id="K8S" transform="translate(3397.12646484375, 626.5)"><rect class="basic label-container" style="" rx="0" ry="0" x="-142.0625" y="-26.5" width="284.125" height="53"/><g class="label" style="" transform="translate(0, -19)"><rect/><text style=""><tspan xml:space="preserve" dy="1em" x="0" class="row">contracts/adapter-hooks.k8s.yaml</tspan><tspan xml:space="preserve" dy="1em" x="0" class="row">K8s pipeline phases</tspan></text></g></g><g class="node default default flowchart-label" id="flowchart-RPLAN-7" data-node="true" data-id="RPLAN" transform="translate(3749.79052734375, 626.5)"><rect class="basic label-container" style="" rx="0" ry="0" x="-160.6015625" y="-17.5" width="321.203125" height="35"/><g class="label" style="" transform="translate(0, -10)"><rect/><text style=""><tspan xml:space="preserve" dy="1em" x="0" class="row">contracts/runner_operation_plans.json</tspan></text></g></g><g class="node default default flowchart-label" id="flowchart-PROMISES-8" data-node="true" data-id="PROMISES" transform="translate(4137.20458984375, 626.5)"><rect class="basic label-container" style="" rx="0" ry="0" x="-176.8125" y="-35.5" width="353.625" height="71"/><g class="label" style="" transform="translate(0, -28)"><rect/><text style=""><tspan xml:space="preserve" dy="1em" x="0" class="row">contracts/promises/*.yaml</tspan><tspan xml:space="preserve" dy="1em" x="0" class="row">+ contracts/services/.yaml plugin.promises</tspan><tspan xml:space="preserve" dy="1em" x="0" class="row">(ADR-0006 per-service registries)</tspan></text></g></g><g class="node default default flowchart-label" id="flowchart-PY-0" data-node="true" data-id="PY" transform="translate(1283.9453125, 51.5)"><rect class="basic label-container" style="" rx="0" ry="0" x="-132.05712890625" y="-26.5" width="264.1142578125" height="53"/><g class="label" style="" transform="translate(0, -19)"><rect/><text style=""><tspan xml:space="preserve" dy="1em" x="0" class="row">deploy.py</tspan><tspan xml:space="preserve" dy="1em" x="0" class="row">cross-platform Python launcher</tspan></text></g></g><g class="node default default flowchart-label" id="flowchart-SH1-1" data-node="true" data-id="SH1" transform="translate(569.671875, 163.5)"><rect class="basic label-container" style="" rx="0" ry="0" x="-102.5546875" y="-26.5" width="205.109375" height="53"/><g class="label" style="" transform="translate(0, -19)"><rect/><text style=""><tspan xml:space="preserve" dy="1em" x="0" class="row">bin/bootstrap-all.sh</tspan><tspan xml:space="preserve" dy="1em" x="0" class="row">bin/run-bootstrap-job.sh</tspan></text></g></g><g class="node default default flowchart-label" id="flowchart-SH2-2" data-node="true" data-id="SH2" transform="translate(881.296875, 163.5)"><rect class="basic label-container" style="" rx="0" ry="0" x="-159.0703125" y="-26.5" width="318.140625" height="53"/><g class="label" style="" transform="translate(0, -19)"><rect/><text style=""><tspan xml:space="preserve" dy="1em" x="0" class="row">bin/test/verify-flow.sh</tspan><tspan xml:space="preserve" dy="1em" x="0" class="row">bin/test/run-playwright-screenshots.sh</tspan></text></g></g><g class="node default default flowchart-label" id="flowchart-CLI-3" data-node="true" data-id="CLI" transform="translate(1283.9453125, 163.5)"><rect class="basic label-container" style="" rx="0" ry="0" x="-193.578125" y="-35.5" width="387.15625" height="71"/><g class="label" style="" transform="translate(0, -28)"><rect/><text style=""><tspan xml:space="preserve" dy="1em" x="0" class="row">cli/commands/*_main.py</tspan><tspan xml:space="preserve" dy="1em" x="0" class="row">console-script entry points</tspan><tspan xml:space="preserve" dy="1em" x="0" class="row">(media-stack-deploy / -backup / -teardown / ...)</tspan></text></g></g></g></g></g></svg>