<svg id="my-svg" width="100%" xmlns="http://www.w3.org/2000/svg" xmlns:xlink="http://www.w3.org/1999/xlink" style="max-width: 2914.64px; background-color: white;" viewBox="-8 -8 2914.640625 802" role="graphics-document document" aria-roledescription="flowchart-v2"><style>#my-svg{font-family:"trebuchet ms",verdana,arial,sans-serif;font-size:18px;fill:#000000;}#my-svg .error-icon{fill:#552222;}#my-svg .error-text{fill:#552222;stroke:#552222;}#my-svg .edge-thickness-normal{stroke-width:2px;}#my-svg .edge-thickness-thick{stroke-width:3.5px;}#my-svg .edge-pattern-solid{stroke-dasharray:0;}#my-svg .edge-pattern-dashed{stroke-dasharray:3;}#my-svg .edge-pattern-dotted{stroke-dasharray:2;}#my-svg .marker{fill:#1f2937;stroke:#1f2937;}#my-svg .marker.cross{stroke:#1f2937;}#my-svg svg{font-family:"trebuchet ms",verdana,arial,sans-serif;font-size:18px;}#my-svg .label{font-family:"trebuchet ms",verdana,arial,sans-serif;color:#000000;}#my-svg .cluster-label text{fill:#333;}#my-svg .cluster-label span,#my-svg p{color:#333;}#my-svg .label text,#my-svg span,#my-svg p{fill:#000000;color:#000000;}#my-svg .node rect,#my-svg .node circle,#my-svg .node ellipse,#my-svg .node polygon,#my-svg .node path{fill:#eee;stroke:#999;stroke-width:1px;}#my-svg .flowchart-label text{text-anchor:middle;}#my-svg .node .katex path{fill:#000;stroke:#000;stroke-width:1px;}#my-svg .node .label{text-align:center;}#my-svg .node.clickable{cursor:pointer;}#my-svg .arrowheadPath{fill:#333333;}#my-svg .edgePath .path{stroke:#1f2937;stroke-width:2.0px;}#my-svg .flowchart-link{stroke:#1f2937;fill:none;}#my-svg .edgeLabel{background-color:white;text-align:center;}#my-svg .edgeLabel rect{opacity:0.5;background-color:white;fill:white;}#my-svg .labelBkg{background-color:rgba(255, 255, 255, 0.5);}#my-svg .cluster rect{fill:#f8fafc;stroke:#334155;stroke-width:1px;}#my-svg .cluster text{fill:#333;}#my-svg .cluster span,#my-svg p{color:#333;}#my-svg div.mermaidTooltip{position:absolute;text-align:center;max-width:200px;padding:2px;font-family:"trebuchet ms",verdana,arial,sans-serif;font-size:12px;background:#fef9c3;border:1px solid #707070;border-radius:2px;pointer-events:none;z-index:100;}#my-svg .flowchartTitleText{text-anchor:middle;font-size:18px;fill:#000000;}#my-svg :root{--mermaid-font-family:"trebuchet ms",verdana,arial,sans-serif;}</style><g><marker id="my-svg_flowchart-pointEnd" class="marker flowchart" viewBox="0 0 10 10" refX="6" refY="5" markerUnits="userSpaceOnUse" markerWidth="12" markerHeight="12" orient="auto"><path d="M 0 0 L 10 5 L 0 10 z" class="arrowMarkerPath" style="stroke-width: 1; stroke-dasharray: 1, 0;"/></marker><marker id="my-svg_flowchart-pointStart" class="marker flowchart" viewBox="0 0 10 10" refX="4.5" refY="5" markerUnits="userSpaceOnUse" markerWidth="12" markerHeight="12" orient="auto"><path d="M 0 5 L 10 10 L 10 0 z" class="arrowMarkerPath" style="stroke-width: 1; stroke-dasharray: 1, 0;"/></marker><marker id="my-svg_flowchart-circleEnd" class="marker flowchart" viewBox="0 0 10 10" refX="11" refY="5" markerUnits="userSpaceOnUse" markerWidth="11" markerHeight="11" orient="auto"><circle cx="5" cy="5" r="5" class="arrowMarkerPath" style="stroke-width: 1; stroke-dasharray: 1, 0;"/></marker><marker id="my-svg_flowchart-circleStart" class="marker flowchart" viewBox="0 0 10 10" refX="-1" refY="5" markerUnits="userSpaceOnUse" markerWidth="11" markerHeight="11" orient="auto"><circle cx="5" cy="5" r="5" class="arrowMarkerPath" style="stroke-width: 1; stroke-dasharray: 1, 0;"/></marker><marker id="my-svg_flowchart-crossEnd" class="marker cross flowchart" viewBox="0 0 11 11" refX="12" refY="5.2" markerUnits="userSpaceOnUse" markerWidth="11" markerHeight="11" orient="auto"><path d="M 1,1 l 9,9 M 10,1 l -9,9" class="arrowMarkerPath" style="stroke-width: 2; stroke-dasharray: 1, 0;"/></marker><marker id="my-svg_flowchart-crossStart" class="marker cross flowchart" viewBox="0 0 11 11" refX="-1" refY="5.2" markerUnits="userSpaceOnUse" markerWidth="11" markerHeight="11" orient="auto"><path d="M 1,1 l 9,9 M 10,1 l -9,9" class="arrowMarkerPath" style="stroke-width: 2; stroke-dasharray: 1, 0;"/></marker><g class="root"><g class="clusters"><g class="cluster default flowchart-label" id="Runtime"><rect style="" rx="0" ry="0" x="0" y="476" width="288.609375" height="310"/><g class="cluster-label" transform="translate(144.3046875, 476)"><text style=""><tspan xml:space="preserve" dy="1em" x="0" class="row">Cluster Runtime</tspan></text></g></g><g class="cluster default flowchart-label" id="AppSvc"><rect style="" rx="0" ry="0" x="2470.4609375" y="629" width="299.125" height="157"/><g class="cluster-label" transform="translate(2620.0234375, 629)"><text style=""><tspan xml:space="preserve" dy="1em" x="0" class="row">App Services</tspan></text></g></g><g class="cluster default flowchart-label" id="Adapters"><rect style="" rx="0" ry="0" x="308.609375" y="476" width="816.40625" height="103"/><g class="cluster-label" transform="translate(716.8125, 476)"><text style=""><tspan xml:space="preserve" dy="1em" x="0" class="row">Technology Adapters</tspan></text></g></g><g class="cluster default flowchart-label" id="Core"><rect style="" rx="0" ry="0" x="1145.015625" y="476" width="1158.4375" height="103"/><g class="cluster-label" transform="translate(1724.234375, 476)"><text style=""><tspan xml:space="preserve" dy="1em" x="0" class="row">Shared Runtime Core</tspan></text></g></g><g class="cluster default flowchart-label" id="Entry"><rect style="" rx="0" ry="0" x="2323.453125" y="153" width="503.421875" height="426"/><g class="cluster-label" transform="translate(2575.1640625, 153)"><text style=""><tspan xml:space="preserve" dy="1em" x="0" class="row">Composition Root</tspan></text></g></g><g class="cluster default flowchart-label" id="Contracts"><rect style="" rx="0" ry="0" x="171.7265625" y="153" width="1784.953125" height="103"/><g class="cluster-label" transform="translate(1064.203125, 153)"><text style=""><tspan xml:space="preserve" dy="1em" x="0" class="row">Declarative Contracts</tspan></text></g></g><g class="cluster default flowchart-label" id="Operators"><rect style="" rx="0" ry="0" x="2223.390625" y="0" width="675.25" height="103"/><g class="cluster-label" transform="translate(2561.015625, 0)"><text style=""><tspan xml:space="preserve" dy="1em" x="0" class="row">Operator Surface</tspan></text></g></g></g><g class="edgePaths"><path d="M2363.453,78L2363.453,82.167C2363.453,86.333,2363.453,94.667,2363.453,103C2363.453,111.333,2363.453,119.667,2363.453,128C2363.453,136.333,2363.453,144.667,2389.849,154.425C2416.246,164.184,2469.038,175.367,2495.434,180.959L2521.831,186.551" id="L-SH1-MAIN-0" class=" edge-thickness-normal edge-pattern-solid flowchart-link LS-SH1 LE-MAIN" style="fill:none;" marker-end="url(#my-svg_flowchart-pointEnd)"/><path d="M2606.563,78L2606.563,82.167C2606.563,86.333,2606.563,94.667,2606.563,103C2606.563,111.333,2606.563,119.667,2606.563,128C2606.563,136.333,2606.563,144.667,2606.563,153.617C2606.563,162.567,2606.563,172.133,2606.563,176.917L2606.563,181.7" id="L-SH2-MAIN-0" class=" edge-thickness-normal edge-pattern-solid flowchart-link LS-SH2 LE-MAIN" style="fill:none;" marker-end="url(#my-svg_flowchart-pointEnd)"/><path d="M2804.125,78L2804.125,82.167C2804.125,86.333,2804.125,94.667,2804.125,103C2804.125,111.333,2804.125,119.667,2804.125,128C2804.125,136.333,2804.125,144.667,2783.242,154.277C2762.358,163.888,2720.591,174.775,2699.708,180.219L2678.824,185.663" id="L-SH3-MAIN-0" class=" edge-thickness-normal edge-pattern-solid flowchart-link LS-SH3 LE-MAIN" style="fill:none;" marker-end="url(#my-svg_flowchart-pointEnd)"/><path d="M361.805,231L361.805,235.167C361.805,239.333,361.805,247.667,700.127,256C1038.449,264.333,1715.094,272.667,2065.473,280.728C2415.852,288.79,2439.966,296.58,2452.023,300.476L2464.08,304.371" id="L-CFG-RF-0" class=" edge-thickness-normal edge-pattern-solid flowchart-link LS-CFG LE-RF" style="fill:none;" marker-end="url(#my-svg_flowchart-pointEnd)"/><path d="M769.492,222L769.492,227.667C769.492,233.333,769.492,244.667,1043.2,254.5C1316.908,264.333,1864.323,272.667,2148.142,280.686C2431.961,288.704,2452.183,296.409,2462.295,300.261L2472.406,304.113" id="L-PM-RF-0" class=" edge-thickness-normal edge-pattern-solid flowchart-link LS-PM LE-RF" style="fill:none;" marker-end="url(#my-svg_flowchart-pointEnd)"/><path d="M1220.242,222L1220.242,227.667C1220.242,233.333,1220.242,244.667,1433.539,254.5C1646.836,264.333,2073.43,272.667,2288.584,280.225C2503.738,287.784,2507.452,294.567,2509.309,297.959L2511.166,301.351" id="L-RPLAN-RF-0" class=" edge-thickness-normal edge-pattern-solid flowchart-link LS-RPLAN LE-RF" style="fill:none;" marker-end="url(#my-svg_flowchart-pointEnd)"/><path d="M1695.031,222L1695.031,227.667C1695.031,233.333,1695.031,244.667,1839.742,254.5C1984.452,264.333,2273.872,272.667,2415.267,280.357C2556.661,288.047,2550.028,295.094,2546.712,298.617L2543.396,302.141" id="L-MPLAN-RF-0" class=" edge-thickness-normal edge-pattern-solid flowchart-link LS-MPLAN LE-RF" style="fill:none;" marker-end="url(#my-svg_flowchart-pointEnd)"/><path d="M2606.563,222L2606.563,227.667C2606.563,233.333,2606.563,244.667,2606.563,254.5C2606.563,264.333,2606.563,272.667,2599.186,280.598C2591.809,288.53,2577.055,296.06,2569.678,299.826L2562.301,303.591" id="L-MAIN-RF-0" class=" edge-thickness-normal edge-pattern-solid flowchart-link LS-MAIN LE-RF" style="fill:none;" marker-end="url(#my-svg_flowchart-pointEnd)"/><path d="M2523.293,341L2523.293,345.167C2523.293,349.333,2523.293,357.667,2523.293,365.117C2523.293,372.567,2523.293,379.133,2523.293,382.417L2523.293,385.7" id="L-RF-RUN-0" class=" edge-thickness-normal edge-pattern-solid flowchart-link LS-RF LE-RUN" style="fill:none;" marker-end="url(#my-svg_flowchart-pointEnd)"/><path d="M2563.123,426L2572.607,430.167C2582.09,434.333,2601.057,442.667,2610.54,451C2620.023,459.333,2620.023,467.667,2620.023,476.617C2620.023,485.567,2620.023,495.133,2620.023,499.917L2620.023,504.7" id="L-RUN-WIRE-0" class=" edge-thickness-normal edge-pattern-solid flowchart-link LS-RUN LE-WIRE" style="fill:none;" marker-end="url(#my-svg_flowchart-pointEnd)"/><path d="M2493.829,426L2486.814,430.167C2479.799,434.333,2465.769,442.667,2458.753,451C2451.738,459.333,2451.738,467.667,2266.516,479.821C2081.294,491.976,1710.849,507.952,1525.627,515.939L1340.404,523.927" id="L-RUN-CFGM-0" class=" edge-thickness-normal edge-pattern-solid flowchart-link LS-RUN LE-CFGM" style="fill:none;" marker-end="url(#my-svg_flowchart-pointEnd)"/><path d="M2530.182,426L2531.822,430.167C2533.462,434.333,2536.743,442.667,2538.383,451C2540.023,459.333,2540.023,467.667,2372.431,479.804C2204.838,491.941,1869.652,507.882,1702.059,515.852L1534.466,523.823" id="L-RUN-CORE_RT-0" class=" edge-thickness-normal edge-pattern-solid flowchart-link LS-RUN LE-CORE_RT" style="fill:none;" marker-end="url(#my-svg_flowchart-pointEnd)"/><path d="M2538.417,426L2542.018,430.167C2545.619,434.333,2552.821,442.667,2556.422,451C2560.023,459.333,2560.023,467.667,2430.282,479.406C2300.54,491.146,2041.056,506.292,1911.314,513.865L1781.572,521.438" id="L-RUN-MED-0" class=" edge-thickness-normal edge-pattern-solid flowchart-link LS-RUN LE-MED" style="fill:none;" marker-end="url(#my-svg_flowchart-pointEnd)"/><path d="M2546.653,426L2552.214,430.167C2557.776,434.333,2568.9,442.667,2574.462,451C2580.023,459.333,2580.023,467.667,2499.632,478.504C2419.24,489.341,2258.456,502.681,2178.064,509.352L2097.672,516.022" id="L-RUN-ARR-0" class=" edge-thickness-normal edge-pattern-solid flowchart-link LS-RUN LE-ARR" style="fill:none;" marker-end="url(#my-svg_flowchart-pointEnd)"/><path d="M2554.888,426L2562.41,430.167C2569.933,434.333,2584.978,442.667,2592.501,451C2600.023,459.333,2600.023,467.667,2545.638,478.931C2491.252,490.196,2382.48,504.392,2328.094,511.49L2273.709,518.588" id="L-RUN-LIB-0" class=" edge-thickness-normal edge-pattern-solid flowchart-link LS-RUN LE-LIB" style="fill:none;" marker-end="url(#my-svg_flowchart-pointEnd)"/><path d="M2469.123,426L2456.226,430.167C2443.328,434.333,2417.533,442.667,2404.636,451C2391.738,459.333,2391.738,467.667,2090.628,479.868C1789.519,492.069,1187.299,508.138,886.189,516.173L585.079,524.208" id="L-RUN-DL-0" class=" edge-thickness-normal edge-pattern-solid flowchart-link LS-RUN LE-DL" style="fill:none;" marker-end="url(#my-svg_flowchart-pointEnd)"/><path d="M2477.359,426L2466.422,430.167C2455.485,434.333,2433.612,442.667,2422.675,451C2411.738,459.333,2411.738,467.667,2151.649,479.835C1891.56,492.004,1371.382,508.008,1111.293,516.01L851.204,524.012" id="L-RUN-MS-0" class=" edge-thickness-normal edge-pattern-solid flowchart-link LS-RUN LE-MS" style="fill:none;" marker-end="url(#my-svg_flowchart-pointEnd)"/><path d="M2485.594,426L2476.618,430.167C2467.642,434.333,2449.69,442.667,2440.714,451C2431.738,459.333,2431.738,467.667,2209.001,479.806C1986.263,491.945,1540.788,507.891,1318.05,515.864L1095.312,523.836" id="L-RUN-SA-0" class=" edge-thickness-normal edge-pattern-solid flowchart-link LS-RUN LE-SA" style="fill:none;" marker-end="url(#my-svg_flowchart-pointEnd)"/><path d="M2620.023,545L2620.023,550.667C2620.023,556.333,2620.023,567.667,2620.023,577.5C2620.023,587.333,2620.023,595.667,2620.023,604C2620.023,612.333,2620.023,620.667,2620.023,628.117C2620.023,635.567,2620.023,642.133,2620.023,645.417L2620.023,648.7" id="L-WIRE-APPMOD-0" class=" edge-thickness-normal edge-pattern-solid flowchart-link LS-WIRE LE-APPMOD" style="fill:none;" marker-end="url(#my-svg_flowchart-pointEnd)"/><path d="M2460.888,426L2446.03,430.167C2431.171,434.333,2401.455,442.667,2386.597,451C2371.738,459.333,2371.738,467.667,2017.472,480.024C1663.206,492.382,954.674,508.764,600.408,516.955L246.142,525.145" id="L-RUN-JOB-0" class=" edge-thickness-normal edge-pattern-solid flowchart-link LS-RUN LE-JOB" style="fill:none;" marker-end="url(#my-svg_flowchart-pointEnd)"/><path d="M144.305,554L144.305,558.167C144.305,562.333,144.305,570.667,144.305,579C144.305,587.333,144.305,595.667,144.305,604C144.305,612.333,144.305,620.667,144.305,632.617C144.305,644.567,144.305,660.133,144.305,667.917L144.305,675.7" id="L-JOB-APPS-0" class=" edge-thickness-normal edge-pattern-solid flowchart-link LS-JOB LE-APPS" style="fill:none;" marker-end="url(#my-svg_flowchart-pointEnd)"/></g><g class="edgeLabels"><g class="edgeLabel"><g class="label" transform="translate(0, 0)"><rect rx="0" ry="0" width="0" height="0"/><text style=""><tspan xml:space="preserve" dy="1em" x="0" class="row"/></text></g></g><g class="edgeLabel"><g class="label" transform="translate(0, 0)"><rect rx="0" ry="0" width="0" height="0"/><text style=""><tspan xml:space="preserve" dy="1em" x="0" class="row"/></text></g></g><g class="edgeLabel"><g class="label" transform="translate(0, 0)"><rect rx="0" ry="0" width="0" height="0"/><text style=""><tspan xml:space="preserve" dy="1em" x="0" class="row"/></text></g></g><g class="edgeLabel"><g class="label" transform="translate(0, 0)"><rect rx="0" ry="0" width="0" height="0"/><text style=""><tspan xml:space="preserve" dy="1em" x="0" class="row"/></text></g></g><g class="edgeLabel"><g class="label" transform="translate(0, 0)"><rect rx="0" ry="0" width="0" height="0"/><text style=""><tspan xml:space="preserve" dy="1em" x="0" class="row"/></text></g></g><g class="edgeLabel"><g class="label" transform="translate(0, 0)"><rect rx="0" ry="0" width="0" height="0"/><text style=""><tspan xml:space="preserve" dy="1em" x="0" class="row"/></text></g></g><g class="edgeLabel"><g class="label" transform="translate(0, 0)"><rect rx="0" ry="0" width="0" height="0"/><text style=""><tspan xml:space="preserve" dy="1em" x="0" class="row"/></text></g></g><g class="edgeLabel"><g class="label" transform="translate(0, 0)"><rect rx="0" ry="0" width="0" height="0"/><text style=""><tspan xml:space="preserve" dy="1em" x="0" class="row"/></text></g></g><g class="edgeLabel"><g class="label" transform="translate(0, 0)"><rect rx="0" ry="0" width="0" height="0"/><text style=""><tspan xml:space="preserve" dy="1em" x="0" class="row"/></text></g></g><g class="edgeLabel"><g class="label" transform="translate(0, 0)"><rect rx="0" ry="0" width="0" height="0"/><text style=""><tspan xml:space="preserve" dy="1em" x="0" class="row"/></text></g></g><g class="edgeLabel"><g class="label" transform="translate(0, 0)"><rect rx="0" ry="0" width="0" height="0"/><text style=""><tspan xml:space="preserve" dy="1em" x="0" class="row"/></text></g></g><g class="edgeLabel"><g class="label" transform="translate(0, 0)"><rect rx="0" ry="0" width="0" height="0"/><text style=""><tspan xml:space="preserve" dy="1em" x="0" class="row"/></text></g></g><g class="edgeLabel"><g class="label" transform="translate(0, 0)"><rect rx="0" ry="0" width="0" height="0"/><text style=""><tspan xml:space="preserve" dy="1em" x="0" class="row"/></text></g></g><g class="edgeLabel"><g class="label" transform="translate(0, 0)"><rect rx="0" ry="0" width="0" height="0"/><text style=""><tspan xml:space="preserve" dy="1em" x="0" class="row"/></text></g></g><g class="edgeLabel"><g class="label" transform="translate(0, 0)"><rect rx="0" ry="0" width="0" height="0"/><text style=""><tspan xml:space="preserve" dy="1em" x="0" class="row"/></text></g></g><g class="edgeLabel"><g class="label" transform="translate(0, 0)"><rect rx="0" ry="0" width="0" height="0"/><text style=""><tspan xml:space="preserve" dy="1em" x="0" class="row"/></text></g></g><g class="edgeLabel"><g class="label" transform="translate(0, 0)"><rect rx="0" ry="0" width="0" height="0"/><text style=""><tspan xml:space="preserve" dy="1em" x="0" class="row"/></text></g></g><g class="edgeLabel"><g class="label" transform="translate(0, 0)"><rect rx="0" ry="0" width="0" height="0"/><text style=""><tspan xml:space="preserve" dy="1em" x="0" class="row"/></text></g></g><g class="edgeLabel"><g class="label" transform="translate(0, 0)"><rect rx="0" ry="0" width="0" height="0"/><text style=""><tspan xml:space="preserve" dy="1em" x="0" class="row"/></text></g></g><g class="edgeLabel"><g class="label" transform="translate(0, 0)"><rect rx="0" ry="0" width="0" height="0"/><text style=""><tspan xml:space="preserve" dy="1em" x="0" class="row"/></text></g></g><g class="edgeLabel"><g class="label" transform="translate(0, 0)"><rect rx="0" ry="0" width="0" height="0"/><text style=""><tspan xml:space="preserve" dy="1em" x="0" class="row"/></text></g></g></g><g class="nodes"><g class="node default default flowchart-label" id="flowchart-JOB-20" data-node="true" data-id="JOB" transform="translate(144.3046875, 527.5)"><rect class="basic label-container" style="" rx="0" ry="0" x="-96.5390625" y="-26.5" width="193.078125" height="53"/><g class="label" style="" transform="translate(0, -19)"><rect/><text style=""><tspan xml:space="preserve" dy="1em" x="0" class="row">media-stack-bootstrap</tspan><tspan xml:space="preserve" dy="1em" x="0" class="row">Job/CronJobs</tspan></text></g></g><g class="node default default flowchart-label" id="flowchart-APPS-21" data-node="true" data-id="APPS" transform="translate(144.3046875, 707.5)"><rect class="basic label-container" style="" rx="0" ry="0" x="-109.3046875" y="-26.5" width="218.609375" height="53"/><g class="label" style="" transform="translate(0, -19)"><rect/><text style=""><tspan xml:space="preserve" dy="1em" x="0" class="row">Arr/Prowlarr/Jellyfin</tspan><tspan xml:space="preserve" dy="1em" x="0" class="row">Jellyseerr + bound clients</tspan></text></g></g><g class="node default default flowchart-label" id="flowchart-APPMOD-19" data-node="true" data-id="APPMOD" transform="translate(2620.0234375, 707.5)"><rect class="basic label-container" style="" rx="0" ry="0" x="-114.5625" y="-53.5" width="229.125" height="107"/><g class="label" style="" transform="translate(0, -46)"><rect/><text style=""><tspan xml:space="preserve" dy="1em" x="0" class="row">apps/* service modules</tspan><tspan xml:space="preserve" dy="1em" x="0" class="row">jellyfin, jellyseerr, prowlarr,</tspan><tspan xml:space="preserve" dy="1em" x="0" class="row">bazarr, torrent clients,</tspan><tspan xml:space="preserve" dy="1em" x="0" class="row">usenet clients, maintainerr,</tspan><tspan xml:space="preserve" dy="1em" x="0" class="row">homepage, tautulli</tspan></text></g></g><g class="node default default flowchart-label" id="flowchart-DL-16" data-node="true" data-id="DL" transform="translate(461.6953125, 527.5)"><rect class="basic label-container" style="" rx="0" ry="0" x="-118.0859375" y="-17.5" width="236.171875" height="35"/><g class="label" style="" transform="translate(0, -10)"><rect/><text style=""><tspan xml:space="preserve" dy="1em" x="0" class="row">download_client_adapters/*</tspan></text></g></g><g class="node default default flowchart-label" id="flowchart-MS-17" data-node="true" data-id="MS" transform="translate(737.84375, 527.5)"><rect class="basic label-container" style="" rx="0" ry="0" x="-108.0625" y="-17.5" width="216.125" height="35"/><g class="label" style="" transform="translate(0, -10)"><rect/><text style=""><tspan xml:space="preserve" dy="1em" x="0" class="row">media_server_adapters/*</tspan></text></g></g><g class="node default default flowchart-label" id="flowchart-SA-18" data-node="true" data-id="SA" transform="translate(992.9609375, 527.5)"><rect class="basic label-container" style="" rx="0" ry="0" x="-97.0546875" y="-17.5" width="194.109375" height="35"/><g class="label" style="" transform="translate(0, -10)"><rect/><text style=""><tspan xml:space="preserve" dy="1em" x="0" class="row">apps/servarr/technologies/*</tspan></text></g></g><g class="node default default flowchart-label" id="flowchart-CFGM-11" data-node="true" data-id="CFGM" transform="translate(1257.5625, 527.5)"><rect class="basic label-container" style="" rx="0" ry="0" x="-77.546875" y="-17.5" width="155.09375" height="35"/><g class="label" style="" transform="translate(0, -10)"><rect/><text style=""><tspan xml:space="preserve" dy="1em" x="0" class="row">config_models.py</tspan></text></g></g><g class="node default default flowchart-label" id="flowchart-CORE_RT-12" data-node="true" data-id="CORE_RT" transform="translate(1457.140625, 527.5)"><rect class="basic label-container" style="" rx="0" ry="0" x="-72.03125" y="-17.5" width="144.0625" height="35"/><g class="label" style="" transform="translate(0, -10)"><rect/><text style=""><tspan xml:space="preserve" dy="1em" x="0" class="row">runtime_platform.py</tspan></text></g></g><g class="node default default flowchart-label" id="flowchart-MED-13" data-node="true" data-id="MED" transform="translate(1677.7265625, 527.5)"><rect class="basic label-container" style="" rx="0" ry="0" x="-98.5546875" y="-17.5" width="197.109375" height="35"/><g class="label" style="" transform="translate(0, -10)"><rect/><text style=""><tspan xml:space="preserve" dy="1em" x="0" class="row">runtime_media_ops.py</tspan></text></g></g><g class="node default default flowchart-label" id="flowchart-ARR-14" data-node="true" data-id="ARR" transform="translate(1959.3359375, 527.5)"><rect class="basic label-container" style="" rx="0" ry="0" x="-133.0546875" y="-17.5" width="266.109375" height="35"/><g class="label" style="" transform="translate(0, -10)"><rect/><text style=""><tspan xml:space="preserve" dy="1em" x="0" class="row">apps/servarr/runtime/__init__.py</tspan></text></g></g><g class="node default default flowchart-label" id="flowchart-LIB-15" data-node="true" data-id="LIB" transform="translate(2205.421875, 527.5)"><rect class="basic label-container" style="" rx="0" ry="0" x="-63.03125" y="-17.5" width="126.0625" height="35"/><g class="label" style="" transform="translate(0, -10)"><rect/><text style=""><tspan xml:space="preserve" dy="1em" x="0" class="row">core/* helpers</tspan></text></g></g><g class="node default default flowchart-label" id="flowchart-MAIN-7" data-node="true" data-id="MAIN" transform="translate(2606.5625, 204.5)"><rect class="basic label-container" style="" rx="0" ry="0" x="-79.546875" y="-17.5" width="159.09375" height="35"/><g class="label" style="" transform="translate(0, -10)"><rect/><text style=""><tspan xml:space="preserve" dy="1em" x="0" class="row">bootstrap-apps.py</tspan></text></g></g><g class="node default default flowchart-label" id="flowchart-RF-8" data-node="true" data-id="RF" transform="translate(2523.29296875, 323.5)"><rect class="basic label-container" style="" rx="0" ry="0" x="-75.53125" y="-17.5" width="151.0625" height="35"/><g class="label" style="" transform="translate(0, -10)"><rect/><text style=""><tspan xml:space="preserve" dy="1em" x="0" class="row">runtime_factory/*</tspan></text></g></g><g class="node default default flowchart-label" id="flowchart-RUN-9" data-node="true" data-id="RUN" transform="translate(2523.29296875, 408.5)"><rect class="basic label-container" style="" rx="0" ry="0" x="-121.5703125" y="-17.5" width="243.140625" height="35"/><g class="label" style="" transform="translate(0, -10)"><rect/><text style=""><tspan xml:space="preserve" dy="1em" x="0" class="row">bootstrap_runner_service.py</tspan></text></g></g><g class="node default default flowchart-label" id="flowchart-WIRE-10" data-node="true" data-id="WIRE" transform="translate(2620.0234375, 527.5)"><rect class="basic label-container" style="" rx="0" ry="0" x="-85.546875" y="-17.5" width="171.09375" height="35"/><g class="label" style="" transform="translate(0, -10)"><rect/><text style=""><tspan xml:space="preserve" dy="1em" x="0" class="row">operation_wiring.py</tspan></text></g></g><g class="node default default flowchart-label" id="flowchart-CFG-3" data-node="true" data-id="CFG" transform="translate(361.8046875, 204.5)"><rect class="basic label-container" style="" rx="0" ry="0" x="-155.078125" y="-26.5" width="310.15625" height="53"/><g class="label" style="" transform="translate(0, -19)"><rect/><text style=""><tspan xml:space="preserve" dy="1em" x="0" class="row">bootstrap/media-stack.bootstrap.json</tspan><tspan xml:space="preserve" dy="1em" x="0" class="row">technology_bindings + policies</tspan></text></g></g><g class="node default default flowchart-label" id="flowchart-PM-4" data-node="true" data-id="PM" transform="translate(769.4921875, 204.5)"><rect class="basic label-container" style="" rx="0" ry="0" x="-202.609375" y="-17.5" width="405.21875" height="35"/><g class="label" style="" transform="translate(0, -10)"><rect/><text style=""><tspan xml:space="preserve" dy="1em" x="0" class="row">scripts/bootstrap_defaults/plugins/*/manifest.json</tspan></text></g></g><g class="node default default flowchart-label" id="flowchart-RPLAN-5" data-node="true" data-id="RPLAN" transform="translate(1220.2421875, 204.5)"><rect class="basic label-container" style="" rx="0" ry="0" x="-198.140625" y="-17.5" width="396.28125" height="35"/><g class="label" style="" transform="translate(0, -10)"><rect/><text style=""><tspan xml:space="preserve" dy="1em" x="0" class="row">bootstrap_defaults/runner_operation_plans.json</tspan></text></g></g><g class="node default default flowchart-label" id="flowchart-MPLAN-6" data-node="true" data-id="MPLAN" transform="translate(1695.03125, 204.5)"><rect class="basic label-container" style="" rx="0" ry="0" x="-226.6484375" y="-17.5" width="453.296875" height="35"/><g class="label" style="" transform="translate(0, -10)"><rect/><text style=""><tspan xml:space="preserve" dy="1em" x="0" class="row">bootstrap_defaults/media_server_operation_plans.json</tspan></text></g></g><g class="node default default flowchart-label" id="flowchart-SH1-0" data-node="true" data-id="SH1" transform="translate(2363.453125, 51.5)"><rect class="basic label-container" style="" rx="0" ry="0" x="-105.0625" y="-26.5" width="210.125" height="53"/><g class="label" style="" transform="translate(0, -19)"><rect/><text style=""><tspan xml:space="preserve" dy="1em" x="0" class="row">install.sh</tspan><tspan xml:space="preserve" dy="1em" x="0" class="row">rebuild-and-bootstrap.sh</tspan></text></g></g><g class="node default default flowchart-label" id="flowchart-SH2-1" data-node="true" data-id="SH2" transform="translate(2606.5625, 51.5)"><rect class="basic label-container" style="" rx="0" ry="0" x="-88.046875" y="-26.5" width="176.09375" height="53"/><g class="label" style="" transform="translate(0, -19)"><rect/><text style=""><tspan xml:space="preserve" dy="1em" x="0" class="row">bootstrap-all.sh</tspan><tspan xml:space="preserve" dy="1em" x="0" class="row">run-bootstrap-job.sh</tspan></text></g></g><g class="node default default flowchart-label" id="flowchart-SH3-2" data-node="true" data-id="SH3" transform="translate(2804.125, 51.5)"><rect class="basic label-container" style="" rx="0" ry="0" x="-59.515625" y="-26.5" width="119.03125" height="53"/><g class="label" style="" transform="translate(0, -19)"><rect/><text style=""><tspan xml:space="preserve" dy="1em" x="0" class="row">verify-flow.sh</tspan><tspan xml:space="preserve" dy="1em" x="0" class="row">test.sh</tspan></text></g></g></g></g></g></svg>