<svg id="my-svg" width="100%" xmlns="http://www.w3.org/2000/svg" xmlns:xlink="http://www.w3.org/1999/xlink" style="max-width: 1090.5px; background-color: white;" viewBox="-8 -8 1090.5 293" role="graphics-document document" aria-roledescription="flowchart-v2"><style>#my-svg{font-family:"trebuchet ms",verdana,arial,sans-serif;font-size:18px;fill:#000000;}#my-svg .error-icon{fill:#552222;}#my-svg .error-text{fill:#552222;stroke:#552222;}#my-svg .edge-thickness-normal{stroke-width:2px;}#my-svg .edge-thickness-thick{stroke-width:3.5px;}#my-svg .edge-pattern-solid{stroke-dasharray:0;}#my-svg .edge-pattern-dashed{stroke-dasharray:3;}#my-svg .edge-pattern-dotted{stroke-dasharray:2;}#my-svg .marker{fill:#1f2937;stroke:#1f2937;}#my-svg .marker.cross{stroke:#1f2937;}#my-svg svg{font-family:"trebuchet ms",verdana,arial,sans-serif;font-size:18px;}#my-svg .label{font-family:"trebuchet ms",verdana,arial,sans-serif;color:#000000;}#my-svg .cluster-label text{fill:#333;}#my-svg .cluster-label span,#my-svg p{color:#333;}#my-svg .label text,#my-svg span,#my-svg p{fill:#000000;color:#000000;}#my-svg .node rect,#my-svg .node circle,#my-svg .node ellipse,#my-svg .node polygon,#my-svg .node path{fill:#eee;stroke:#999;stroke-width:1px;}#my-svg .flowchart-label text{text-anchor:middle;}#my-svg .node .katex path{fill:#000;stroke:#000;stroke-width:1px;}#my-svg .node .label{text-align:center;}#my-svg .node.clickable{cursor:pointer;}#my-svg .arrowheadPath{fill:#333333;}#my-svg .edgePath .path{stroke:#1f2937;stroke-width:2.0px;}#my-svg .flowchart-link{stroke:#1f2937;fill:none;}#my-svg .edgeLabel{background-color:white;text-align:center;}#my-svg .edgeLabel rect{opacity:0.5;background-color:white;fill:white;}#my-svg .labelBkg{background-color:rgba(255, 255, 255, 0.5);}#my-svg .cluster rect{fill:#f8fafc;stroke:#334155;stroke-width:1px;}#my-svg .cluster text{fill:#333;}#my-svg .cluster span,#my-svg p{color:#333;}#my-svg div.mermaidTooltip{position:absolute;text-align:center;max-width:200px;padding:2px;font-family:"trebuchet ms",verdana,arial,sans-serif;font-size:12px;background:#fef9c3;border:1px solid #707070;border-radius:2px;pointer-events:none;z-index:100;}#my-svg .flowchartTitleText{text-anchor:middle;font-size:18px;fill:#000000;}#my-svg :root{--mermaid-font-family:"trebuchet ms",verdana,arial,sans-serif;}</style><g><marker id="my-svg_flowchart-pointEnd" class="marker flowchart" viewBox="0 0 10 10" refX="6" refY="5" markerUnits="userSpaceOnUse" markerWidth="12" markerHeight="12" orient="auto"><path d="M 0 0 L 10 5 L 0 10 z" class="arrowMarkerPath" style="stroke-width: 1; stroke-dasharray: 1, 0;"/></marker><marker id="my-svg_flowchart-pointStart" class="marker flowchart" viewBox="0 0 10 10" refX="4.5" refY="5" markerUnits="userSpaceOnUse" markerWidth="12" markerHeight="12" orient="auto"><path d="M 0 5 L 10 10 L 10 0 z" class="arrowMarkerPath" style="stroke-width: 1; stroke-dasharray: 1, 0;"/></marker><marker id="my-svg_flowchart-circleEnd" class="marker flowchart" viewBox="0 0 10 10" refX="11" refY="5" markerUnits="userSpaceOnUse" markerWidth="11" markerHeight="11" orient="auto"><circle cx="5" cy="5" r="5" class="arrowMarkerPath" style="stroke-width: 1; stroke-dasharray: 1, 0;"/></marker><marker id="my-svg_flowchart-circleStart" class="marker flowchart" viewBox="0 0 10 10" refX="-1" refY="5" markerUnits="userSpaceOnUse" markerWidth="11" markerHeight="11" orient="auto"><circle cx="5" cy="5" r="5" class="arrowMarkerPath" style="stroke-width: 1; stroke-dasharray: 1, 0;"/></marker><marker id="my-svg_flowchart-crossEnd" class="marker cross flowchart" viewBox="0 0 11 11" refX="12" refY="5.2" markerUnits="userSpaceOnUse" markerWidth="11" markerHeight="11" orient="auto"><path d="M 1,1 l 9,9 M 10,1 l -9,9" class="arrowMarkerPath" style="stroke-width: 2; stroke-dasharray: 1, 0;"/></marker><marker id="my-svg_flowchart-crossStart" class="marker cross flowchart" viewBox="0 0 11 11" refX="-1" refY="5.2" markerUnits="userSpaceOnUse" markerWidth="11" markerHeight="11" orient="auto"><path d="M 1,1 l 9,9 M 10,1 l -9,9" class="arrowMarkerPath" style="stroke-width: 2; stroke-dasharray: 1, 0;"/></marker><g class="root"><g class="clusters"/><g class="edgePaths"><path d="M159.086,128.578L180.514,123.315C201.943,118.052,244.799,107.526,288.415,96.968C332.031,86.41,376.406,75.82,398.593,70.525L420.78,65.23" id="L-SRC-BOOT-0" class=" edge-thickness-normal edge-pattern-solid flowchart-link LS-SRC LE-BOOT" style="fill:none;" marker-end="url(#my-svg_flowchart-pointEnd)"/><path d="M164.094,26.5L184.688,26.5C205.281,26.5,246.469,26.5,286.777,28.363C327.085,30.227,366.514,33.953,386.228,35.816L405.942,37.68" id="L-SEC-BOOT-0" class=" edge-thickness-normal edge-pattern-solid flowchart-link LS-SEC LE-BOOT" style="fill:none;" marker-end="url(#my-svg_flowchart-pointEnd)"/><path d="M587.313,46.5L591.479,46.5C595.646,46.5,603.979,46.5,611.429,46.5C618.879,46.5,625.446,46.5,628.729,46.5L632.013,46.5" id="L-BOOT-RUN-0" class=" edge-thickness-normal edge-pattern-solid flowchart-link LS-BOOT LE-RUN" style="fill:none;" marker-end="url(#my-svg_flowchart-pointEnd)"/><path d="M802.406,46.5L806.573,46.5C810.74,46.5,819.073,46.5,839.256,58.39C859.438,70.28,891.47,94.061,907.486,105.951L923.502,117.841" id="L-RUN-TEST-0" class=" edge-thickness-normal edge-pattern-solid flowchart-link LS-RUN LE-TEST" style="fill:none;" marker-end="url(#my-svg_flowchart-pointEnd)"/><path d="M875.52,174L867.501,176.417C859.482,178.833,843.444,183.667,817.501,186.083C791.557,188.5,755.708,188.5,719.859,188.5C684.01,188.5,648.161,188.5,611.396,188.5C574.63,188.5,536.948,188.5,482.839,188.5C428.729,188.5,358.193,188.5,302.362,184.4C246.532,180.3,205.408,172.099,184.846,167.999L164.284,163.899" id="L-TEST-SRC-0" class=" edge-thickness-normal edge-pattern-solid flowchart-link LS-TEST LE-SRC" style="fill:none;" marker-end="url(#my-svg_flowchart-pointEnd)"/><path d="M149.57,259.5L172.585,259.5C195.599,259.5,241.628,259.5,296.39,227.543C351.152,195.587,414.648,131.673,446.396,99.717L478.145,67.76" id="L-DRIFT-BOOT-0" class=" edge-thickness-normal edge-pattern-dotted flowchart-link LS-DRIFT LE-BOOT" style="fill:none;stroke-width:2px;stroke-dasharray:3;" marker-end="url(#my-svg_flowchart-pointEnd)"/></g><g class="edgeLabels"><g class="edgeLabel"><g class="label" transform="translate(0, 0)"><rect rx="0" ry="0" width="0" height="0"/><text style=""><tspan xml:space="preserve" dy="1em" x="0" class="row"/></text></g></g><g class="edgeLabel"><g class="label" transform="translate(0, 0)"><rect rx="0" ry="0" width="0" height="0"/><text style=""><tspan xml:space="preserve" dy="1em" x="0" class="row"/></text></g></g><g class="edgeLabel"><g class="label" transform="translate(0, 0)"><rect rx="0" ry="0" width="0" height="0"/><text style=""><tspan xml:space="preserve" dy="1em" x="0" class="row"/></text></g></g><g class="edgeLabel"><g class="label" transform="translate(0, 0)"><rect rx="0" ry="0" width="0" height="0"/><text style=""><tspan xml:space="preserve" dy="1em" x="0" class="row"/></text></g></g><g class="edgeLabel"><g class="label" transform="translate(0, 0)"><rect rx="0" ry="0" width="0" height="0"/><text style=""><tspan xml:space="preserve" dy="1em" x="0" class="row"/></text></g></g><g class="edgeLabel" transform="translate(287.65625, 259.5)"><g class="label" transform="translate(-98.5625, -10)"><rect rx="0" ry="0" width="197.125" height="20"/><text style=""><tspan xml:space="preserve" dy="1em" x="0" class="row">detected and overwritten</tspan></text></g></g></g><g class="nodes"><g class="node default default flowchart-label" id="flowchart-SRC-0" data-node="true" data-id="SRC" transform="translate(82.046875, 147.5)"><rect class="basic label-container" style="" rx="0" ry="0" x="-77.0390625" y="-44.5" width="154.078125" height="89"/><g class="label" style="" transform="translate(0, -37)"><rect/><text style=""><tspan xml:space="preserve" dy="1em" x="0" class="row">Git Desired State</tspan><tspan xml:space="preserve" dy="1em" x="0" class="row">- k8s manifests</tspan><tspan xml:space="preserve" dy="1em" x="0" class="row">- bootstrap config</tspan><tspan xml:space="preserve" dy="1em" x="0" class="row">- scripts</tspan></text></g></g><g class="node default default flowchart-label" id="flowchart-SEC-1" data-node="true" data-id="SEC" transform="translate(82.046875, 26.5)"><rect class="basic label-container" style="" rx="0" ry="0" x="-82.046875" y="-26.5" width="164.09375" height="53"/><g class="label" style="" transform="translate(0, -19)"><rect/><text style=""><tspan xml:space="preserve" dy="1em" x="0" class="row">Managed Secrets</tspan><tspan xml:space="preserve" dy="1em" x="0" class="row">Kubernetes Secret</tspan></text></g></g><g class="node default default flowchart-label" id="flowchart-BOOT-2" data-node="true" data-id="BOOT" transform="translate(499.265625, 46.5)"><rect class="basic label-container" style="" rx="0" ry="0" x="-88.046875" y="-17.5" width="176.09375" height="35"/><g class="label" style="" transform="translate(0, -10)"><rect/><text style=""><tspan xml:space="preserve" dy="1em" x="0" class="row">Bootstrap/Reconcile</tspan></text></g></g><g class="node default default flowchart-label" id="flowchart-RUN-3" data-node="true" data-id="RUN" transform="translate(719.859375, 46.5)"><rect class="basic label-container" style="" rx="0" ry="0" x="-82.546875" y="-17.5" width="165.09375" height="35"/><g class="label" style="" transform="translate(0, -10)"><rect/><text style=""><tspan xml:space="preserve" dy="1em" x="0" class="row">Runtime App State</tspan></text></g></g><g class="node default default flowchart-label" id="flowchart-TEST-4" data-node="true" data-id="TEST" transform="translate(963.453125, 147.5)"><rect class="basic label-container" style="" rx="0" ry="0" x="-111.046875" y="-26.5" width="222.09375" height="53"/><g class="label" style="" transform="translate(0, -19)"><rect/><text style=""><tspan xml:space="preserve" dy="1em" x="0" class="row">Verification</tspan><tspan xml:space="preserve" dy="1em" x="0" class="row">flow + smoke + playwright</tspan></text></g></g><g class="node default default flowchart-label" id="flowchart-DRIFT-15" data-node="true" data-id="DRIFT" transform="translate(82.046875, 259.5)"><rect class="basic label-container" style="" rx="0" ry="0" x="-67.5234375" y="-17.5" width="135.046875" height="35"/><g class="label" style="" transform="translate(0, -10)"><rect/><text style=""><tspan xml:space="preserve" dy="1em" x="0" class="row">Manual UI Drift</tspan></text></g></g></g></g></g></svg>