<svg id="my-svg" width="100%" xmlns="http://www.w3.org/2000/svg" xmlns:xlink="http://www.w3.org/1999/xlink" style="max-width: 1276.61px; background-color: white;" viewBox="-8 -8 1276.609375 432" role="graphics-document document" aria-roledescription="flowchart-v2"><style>#my-svg{font-family:"trebuchet ms",verdana,arial,sans-serif;font-size:18px;fill:#000000;}#my-svg .error-icon{fill:#552222;}#my-svg .error-text{fill:#552222;stroke:#552222;}#my-svg .edge-thickness-normal{stroke-width:2px;}#my-svg .edge-thickness-thick{stroke-width:3.5px;}#my-svg .edge-pattern-solid{stroke-dasharray:0;}#my-svg .edge-pattern-dashed{stroke-dasharray:3;}#my-svg .edge-pattern-dotted{stroke-dasharray:2;}#my-svg .marker{fill:#1f2937;stroke:#1f2937;}#my-svg .marker.cross{stroke:#1f2937;}#my-svg svg{font-family:"trebuchet ms",verdana,arial,sans-serif;font-size:18px;}#my-svg .label{font-family:"trebuchet ms",verdana,arial,sans-serif;color:#000000;}#my-svg .cluster-label text{fill:#333;}#my-svg .cluster-label span,#my-svg p{color:#333;}#my-svg .label text,#my-svg span,#my-svg p{fill:#000000;color:#000000;}#my-svg .node rect,#my-svg .node circle,#my-svg .node ellipse,#my-svg .node polygon,#my-svg .node path{fill:#eee;stroke:#999;stroke-width:1px;}#my-svg .flowchart-label text{text-anchor:middle;}#my-svg .node .katex path{fill:#000;stroke:#000;stroke-width:1px;}#my-svg .node .label{text-align:center;}#my-svg .node.clickable{cursor:pointer;}#my-svg .arrowheadPath{fill:#333333;}#my-svg .edgePath .path{stroke:#1f2937;stroke-width:2.0px;}#my-svg .flowchart-link{stroke:#1f2937;fill:none;}#my-svg .edgeLabel{background-color:white;text-align:center;}#my-svg .edgeLabel rect{opacity:0.5;background-color:white;fill:white;}#my-svg .labelBkg{background-color:rgba(255, 255, 255, 0.5);}#my-svg .cluster rect{fill:#f8fafc;stroke:#334155;stroke-width:1px;}#my-svg .cluster text{fill:#333;}#my-svg .cluster span,#my-svg p{color:#333;}#my-svg div.mermaidTooltip{position:absolute;text-align:center;max-width:200px;padding:2px;font-family:"trebuchet ms",verdana,arial,sans-serif;font-size:12px;background:#fef9c3;border:1px solid #707070;border-radius:2px;pointer-events:none;z-index:100;}#my-svg .flowchartTitleText{text-anchor:middle;font-size:18px;fill:#000000;}#my-svg :root{--mermaid-font-family:"trebuchet ms",verdana,arial,sans-serif;}</style><g><marker id="my-svg_flowchart-pointEnd" class="marker flowchart" viewBox="0 0 10 10" refX="6" refY="5" markerUnits="userSpaceOnUse" markerWidth="12" markerHeight="12" orient="auto"><path d="M 0 0 L 10 5 L 0 10 z" class="arrowMarkerPath" style="stroke-width: 1; stroke-dasharray: 1, 0;"/></marker><marker id="my-svg_flowchart-pointStart" class="marker flowchart" viewBox="0 0 10 10" refX="4.5" refY="5" markerUnits="userSpaceOnUse" markerWidth="12" markerHeight="12" orient="auto"><path d="M 0 5 L 10 10 L 10 0 z" class="arrowMarkerPath" style="stroke-width: 1; stroke-dasharray: 1, 0;"/></marker><marker id="my-svg_flowchart-circleEnd" class="marker flowchart" viewBox="0 0 10 10" refX="11" refY="5" markerUnits="userSpaceOnUse" markerWidth="11" markerHeight="11" orient="auto"><circle cx="5" cy="5" r="5" class="arrowMarkerPath" style="stroke-width: 1; stroke-dasharray: 1, 0;"/></marker><marker id="my-svg_flowchart-circleStart" class="marker flowchart" viewBox="0 0 10 10" refX="-1" refY="5" markerUnits="userSpaceOnUse" markerWidth="11" markerHeight="11" orient="auto"><circle cx="5" cy="5" r="5" class="arrowMarkerPath" style="stroke-width: 1; stroke-dasharray: 1, 0;"/></marker><marker id="my-svg_flowchart-crossEnd" class="marker cross flowchart" viewBox="0 0 11 11" refX="12" refY="5.2" markerUnits="userSpaceOnUse" markerWidth="11" markerHeight="11" orient="auto"><path d="M 1,1 l 9,9 M 10,1 l -9,9" class="arrowMarkerPath" style="stroke-width: 2; stroke-dasharray: 1, 0;"/></marker><marker id="my-svg_flowchart-crossStart" class="marker cross flowchart" viewBox="0 0 11 11" refX="-1" refY="5.2" markerUnits="userSpaceOnUse" markerWidth="11" markerHeight="11" orient="auto"><path d="M 1,1 l 9,9 M 10,1 l -9,9" class="arrowMarkerPath" style="stroke-width: 2; stroke-dasharray: 1, 0;"/></marker><g class="root"><g class="clusters"/><g class="edgePaths"><path d="M194.258,132.441L214.988,127.284C235.719,122.127,277.18,111.814,317.648,101.604C358.117,91.395,397.593,81.29,417.331,76.238L437.069,71.186" id="L-SRC-CTRL-0" class=" edge-thickness-normal edge-pattern-solid flowchart-link LS-SRC LE-CTRL" style="fill:none;" marker-end="url(#my-svg_flowchart-pointEnd)"/><path d="M195.078,26.5L215.672,26.5C236.266,26.5,277.453,26.5,317.761,28.335C358.069,30.17,397.497,33.84,417.212,35.675L436.926,37.51" id="L-SEC-CTRL-0" class=" edge-thickness-normal edge-pattern-solid flowchart-link LS-SEC LE-CTRL" style="fill:none;" marker-end="url(#my-svg_flowchart-pointEnd)"/><path d="M173.406,295.5L197.612,295.5C221.818,295.5,270.229,295.5,325.858,259.085C381.486,222.671,444.332,149.842,475.755,113.427L507.178,77.013" id="L-DASH-CTRL-0" class=" edge-thickness-normal edge-pattern-solid flowchart-link LS-DASH LE-CTRL" style="fill:none;" marker-end="url(#my-svg_flowchart-pointEnd)"/><path d="M624.813,46.5L639.404,46.5C653.995,46.5,683.177,46.5,711.476,46.5C739.775,46.5,767.191,46.5,780.898,46.5L794.606,46.5" id="L-CTRL-RUN-0" class=" edge-thickness-normal edge-pattern-solid flowchart-link LS-CTRL LE-RUN" style="fill:none;" marker-end="url(#my-svg_flowchart-pointEnd)"/><path d="M969.984,46.5L974.151,46.5C978.318,46.5,986.651,46.5,1008.498,59.884C1030.344,73.267,1065.704,100.034,1083.384,113.418L1101.064,126.801" id="L-RUN-TEST-0" class=" edge-thickness-normal edge-pattern-solid flowchart-link LS-RUN LE-TEST" style="fill:none;" marker-end="url(#my-svg_flowchart-pointEnd)"/><path d="M1075.578,183L1062.146,188.5C1048.713,194,1021.849,205,990.077,210.5C958.305,216,921.625,216,874.521,216C827.417,216,769.888,216,711.315,216C652.742,216,593.125,216,527.505,216C461.885,216,390.263,216,334.574,210.651C278.886,205.302,239.131,194.603,219.253,189.254L199.376,183.905" id="L-TEST-SRC-0" class=" edge-thickness-normal edge-pattern-dotted flowchart-link LS-TEST LE-SRC" style="fill:none;stroke-width:2px;stroke-dasharray:3;" marker-end="url(#my-svg_flowchart-pointEnd)"/><path d="M165.063,398.5L190.659,398.5C216.255,398.5,267.448,398.5,325.699,345.004C383.951,291.508,449.26,184.516,481.915,131.02L514.57,77.524" id="L-DRIFT-CTRL-0" class=" edge-thickness-normal edge-pattern-dotted flowchart-link LS-DRIFT LE-CTRL" style="fill:none;stroke-width:2px;stroke-dasharray:3;" marker-end="url(#my-svg_flowchart-pointEnd)"/></g><g class="edgeLabels"><g class="edgeLabel"><g class="label" transform="translate(0, 0)"><rect rx="0" ry="0" width="0" height="0"/><text style=""><tspan xml:space="preserve" dy="1em" x="0" class="row"/></text></g></g><g class="edgeLabel"><g class="label" transform="translate(0, 0)"><rect rx="0" ry="0" width="0" height="0"/><text style=""><tspan xml:space="preserve" dy="1em" x="0" class="row"/></text></g></g><g class="edgeLabel"><g class="label" transform="translate(0, 0)"><rect rx="0" ry="0" width="0" height="0"/><text style=""><tspan xml:space="preserve" dy="1em" x="0" class="row"/></text></g></g><g class="edgeLabel"><g class="label" transform="translate(0, 0)"><rect rx="0" ry="0" width="0" height="0"/><text style=""><tspan xml:space="preserve" dy="1em" x="0" class="row"/></text></g></g><g class="edgeLabel"><g class="label" transform="translate(0, 0)"><rect rx="0" ry="0" width="0" height="0"/><text style=""><tspan xml:space="preserve" dy="1em" x="0" class="row"/></text></g></g><g class="edgeLabel" transform="translate(712.359375, 216)"><g class="label" transform="translate(-62.546875, -10)"><rect rx="0" ry="0" width="125.09375" height="20"/><text style=""><tspan xml:space="preserve" dy="1em" x="0" class="row">validate against</tspan></text></g></g><g class="edgeLabel" transform="translate(318.640625, 398.5)"><g class="label" transform="translate(-98.5625, -10)"><rect rx="0" ry="0" width="197.125" height="20"/><text style=""><tspan xml:space="preserve" dy="1em" x="0" class="row">detected and overwritten</tspan></text></g></g></g><g class="nodes"><g class="node default default flowchart-label" id="flowchart-SRC-0" data-node="true" data-id="SRC" transform="translate(97.5390625, 156.5)"><rect class="basic label-container" style="" rx="0" ry="0" x="-96.71875" y="-53.5" width="193.4375" height="107"/><g class="label" style="" transform="translate(0, -46)"><rect/><text style=""><tspan xml:space="preserve" dy="1em" x="0" class="row">Desired State</tspan><tspan xml:space="preserve" dy="1em" x="0" class="row">- per-service YAML</tspan><tspan xml:space="preserve" dy="1em" x="0" class="row">- profile YAML</tspan><tspan xml:space="preserve" dy="1em" x="0" class="row">- adapter-hooks YAML</tspan><tspan xml:space="preserve" dy="1em" x="0" class="row">- k8s manifests</tspan></text></g></g><g class="node default default flowchart-label" id="flowchart-SEC-1" data-node="true" data-id="SEC" transform="translate(97.5390625, 26.5)"><rect class="basic label-container" style="" rx="0" ry="0" x="-97.5390625" y="-26.5" width="195.078125" height="53"/><g class="label" style="" transform="translate(0, -19)"><rect/><text style=""><tspan xml:space="preserve" dy="1em" x="0" class="row">Secrets</tspan><tspan xml:space="preserve" dy="1em" x="0" class="row">env vars / K8s Secrets</tspan></text></g></g><g class="node default default flowchart-label" id="flowchart-CTRL-2" data-node="true" data-id="CTRL" transform="translate(533.5078125, 46.5)"><rect class="basic label-container" style="" rx="0" ry="0" x="-91.3046875" y="-26.5" width="182.609375" height="53"/><g class="label" style="" transform="translate(0, -19)"><rect/><text style=""><tspan xml:space="preserve" dy="1em" x="0" class="row">Controller</tspan><tspan xml:space="preserve" dy="1em" x="0" class="row">bootstrap + reconcile</tspan></text></g></g><g class="node default default flowchart-label" id="flowchart-RUN-3" data-node="true" data-id="RUN" transform="translate(884.9453125, 46.5)"><rect class="basic label-container" style="" rx="0" ry="0" x="-85.0390625" y="-26.5" width="170.078125" height="53"/><g class="label" style="" transform="translate(0, -19)"><rect/><text style=""><tspan xml:space="preserve" dy="1em" x="0" class="row">Runtime App State</tspan><tspan xml:space="preserve" dy="1em" x="0" class="row">configured services</tspan></text></g></g><g class="node default default flowchart-label" id="flowchart-TEST-4" data-node="true" data-id="TEST" transform="translate(1140.296875, 156.5)"><rect class="basic label-container" style="" rx="0" ry="0" x="-120.3125" y="-26.5" width="240.625" height="53"/><g class="label" style="" transform="translate(0, -19)"><rect/><text style=""><tspan xml:space="preserve" dy="1em" x="0" class="row">Verification</tspan><tspan xml:space="preserve" dy="1em" x="0" class="row">health probes + smoke tests</tspan></text></g></g><g class="node default default flowchart-label" id="flowchart-DASH-5" data-node="true" data-id="DASH" transform="translate(97.5390625, 295.5)"><rect class="basic label-container" style="" rx="0" ry="0" x="-75.8671875" y="-35.5" width="151.734375" height="71"/><g class="label" style="" transform="translate(0, -28)"><rect/><text style=""><tspan xml:space="preserve" dy="1em" x="0" class="row">Dashboard / API</tspan><tspan xml:space="preserve" dy="1em" x="0" class="row">POST /config</tspan><tspan xml:space="preserve" dy="1em" x="0" class="row">POST /api/profile</tspan></text></g></g><g class="node default default flowchart-label" id="flowchart-DRIFT-18" data-node="true" data-id="DRIFT" transform="translate(97.5390625, 398.5)"><rect class="basic label-container" style="" rx="0" ry="0" x="-67.5234375" y="-17.5" width="135.046875" height="35"/><g class="label" style="" transform="translate(0, -10)"><rect/><text style=""><tspan xml:space="preserve" dy="1em" x="0" class="row">Manual UI Drift</tspan></text></g></g></g></g></g></svg>