<svg id="my-svg" width="100%" xmlns="http://www.w3.org/2000/svg" xmlns:xlink="http://www.w3.org/1999/xlink" style="max-width: 1115.53px; background-color: white;" viewBox="-8 -8 1115.53125 311" role="graphics-document document" aria-roledescription="flowchart-v2"><style>#my-svg{font-family:"trebuchet ms",verdana,arial,sans-serif;font-size:18px;fill:#000000;}#my-svg .error-icon{fill:#552222;}#my-svg .error-text{fill:#552222;stroke:#552222;}#my-svg .edge-thickness-normal{stroke-width:2px;}#my-svg .edge-thickness-thick{stroke-width:3.5px;}#my-svg .edge-pattern-solid{stroke-dasharray:0;}#my-svg .edge-pattern-dashed{stroke-dasharray:3;}#my-svg .edge-pattern-dotted{stroke-dasharray:2;}#my-svg .marker{fill:#1f2937;stroke:#1f2937;}#my-svg .marker.cross{stroke:#1f2937;}#my-svg svg{font-family:"trebuchet ms",verdana,arial,sans-serif;font-size:18px;}#my-svg .label{font-family:"trebuchet ms",verdana,arial,sans-serif;color:#000000;}#my-svg .cluster-label text{fill:#333;}#my-svg .cluster-label span,#my-svg p{color:#333;}#my-svg .label text,#my-svg span,#my-svg p{fill:#000000;color:#000000;}#my-svg .node rect,#my-svg .node circle,#my-svg .node ellipse,#my-svg .node polygon,#my-svg .node path{fill:#eee;stroke:#999;stroke-width:1px;}#my-svg .flowchart-label text{text-anchor:middle;}#my-svg .node .katex path{fill:#000;stroke:#000;stroke-width:1px;}#my-svg .node .label{text-align:center;}#my-svg .node.clickable{cursor:pointer;}#my-svg .arrowheadPath{fill:#333333;}#my-svg .edgePath .path{stroke:#1f2937;stroke-width:2.0px;}#my-svg .flowchart-link{stroke:#1f2937;fill:none;}#my-svg .edgeLabel{background-color:white;text-align:center;}#my-svg .edgeLabel rect{opacity:0.5;background-color:white;fill:white;}#my-svg .labelBkg{background-color:rgba(255, 255, 255, 0.5);}#my-svg .cluster rect{fill:#f8fafc;stroke:#334155;stroke-width:1px;}#my-svg .cluster text{fill:#333;}#my-svg .cluster span,#my-svg p{color:#333;}#my-svg div.mermaidTooltip{position:absolute;text-align:center;max-width:200px;padding:2px;font-family:"trebuchet ms",verdana,arial,sans-serif;font-size:12px;background:#fef9c3;border:1px solid #707070;border-radius:2px;pointer-events:none;z-index:100;}#my-svg .flowchartTitleText{text-anchor:middle;font-size:18px;fill:#000000;}#my-svg :root{--mermaid-font-family:"trebuchet ms",verdana,arial,sans-serif;}</style><g><marker id="my-svg_flowchart-pointEnd" class="marker flowchart" viewBox="0 0 10 10" refX="6" refY="5" markerUnits="userSpaceOnUse" markerWidth="12" markerHeight="12" orient="auto"><path d="M 0 0 L 10 5 L 0 10 z" class="arrowMarkerPath" style="stroke-width: 1; stroke-dasharray: 1, 0;"/></marker><marker id="my-svg_flowchart-pointStart" class="marker flowchart" viewBox="0 0 10 10" refX="4.5" refY="5" markerUnits="userSpaceOnUse" markerWidth="12" markerHeight="12" orient="auto"><path d="M 0 5 L 10 10 L 10 0 z" class="arrowMarkerPath" style="stroke-width: 1; stroke-dasharray: 1, 0;"/></marker><marker id="my-svg_flowchart-circleEnd" class="marker flowchart" viewBox="0 0 10 10" refX="11" refY="5" markerUnits="userSpaceOnUse" markerWidth="11" markerHeight="11" orient="auto"><circle cx="5" cy="5" r="5" class="arrowMarkerPath" style="stroke-width: 1; stroke-dasharray: 1, 0;"/></marker><marker id="my-svg_flowchart-circleStart" class="marker flowchart" viewBox="0 0 10 10" refX="-1" refY="5" markerUnits="userSpaceOnUse" markerWidth="11" markerHeight="11" orient="auto"><circle cx="5" cy="5" r="5" class="arrowMarkerPath" style="stroke-width: 1; stroke-dasharray: 1, 0;"/></marker><marker id="my-svg_flowchart-crossEnd" class="marker cross flowchart" viewBox="0 0 11 11" refX="12" refY="5.2" markerUnits="userSpaceOnUse" markerWidth="11" markerHeight="11" orient="auto"><path d="M 1,1 l 9,9 M 10,1 l -9,9" class="arrowMarkerPath" style="stroke-width: 2; stroke-dasharray: 1, 0;"/></marker><marker id="my-svg_flowchart-crossStart" class="marker cross flowchart" viewBox="0 0 11 11" refX="-1" refY="5.2" markerUnits="userSpaceOnUse" markerWidth="11" markerHeight="11" orient="auto"><path d="M 1,1 l 9,9 M 10,1 l -9,9" class="arrowMarkerPath" style="stroke-width: 2; stroke-dasharray: 1, 0;"/></marker><g class="root"><g class="clusters"/><g class="edgePaths"><path d="M160.086,135.625L181.348,129.937C202.609,124.25,245.133,112.875,291.573,101.144C338.012,89.412,388.368,77.325,413.546,71.281L438.724,65.237" id="L-SRC-BOOT-0" class=" edge-thickness-normal edge-pattern-solid flowchart-link LS-SRC LE-BOOT" style="fill:none;" marker-end="url(#my-svg_flowchart-pointEnd)"/><path d="M164.094,26.5L184.688,26.5C205.281,26.5,246.469,26.5,286.776,28.221C327.084,29.942,366.511,33.383,386.225,35.104L405.939,36.825" id="L-SEC-BOOT-0" class=" edge-thickness-normal edge-pattern-solid flowchart-link LS-SEC LE-BOOT" style="fill:none;" marker-end="url(#my-svg_flowchart-pointEnd)"/><path d="M622.344,46.5L626.51,46.5C630.677,46.5,639.01,46.5,646.46,46.5C653.91,46.5,660.477,46.5,663.76,46.5L667.044,46.5" id="L-BOOT-RUN-0" class=" edge-thickness-normal edge-pattern-solid flowchart-link LS-BOOT LE-RUN" style="fill:none;" marker-end="url(#my-svg_flowchart-pointEnd)"/><path d="M837.438,46.5L841.604,46.5C845.771,46.5,854.104,46.5,874.174,59.849C894.243,73.198,926.049,99.895,941.952,113.244L957.855,126.593" id="L-RUN-TEST-0" class=" edge-thickness-normal edge-pattern-solid flowchart-link LS-RUN LE-TEST" style="fill:none;" marker-end="url(#my-svg_flowchart-pointEnd)"/><path d="M917.16,183L908.04,186.167C898.919,189.333,880.678,195.667,853.633,198.833C826.589,202,790.74,202,754.891,202C719.042,202,683.193,202,643.508,202C603.823,202,560.302,202,500.354,202C440.406,202,364.031,202,305.444,197.486C246.858,192.972,206.059,183.943,185.66,179.429L165.261,174.915" id="L-TEST-SRC-0" class=" edge-thickness-normal edge-pattern-solid flowchart-link LS-TEST LE-SRC" style="fill:none;" marker-end="url(#my-svg_flowchart-pointEnd)"/><path d="M149.57,277.5L172.585,277.5C195.599,277.5,241.628,277.5,299.314,242.544C357.001,207.588,426.346,137.675,461.018,102.719L495.691,67.763" id="L-DRIFT-BOOT-0" class=" edge-thickness-normal edge-pattern-dotted flowchart-link LS-DRIFT LE-BOOT" style="fill:none;stroke-width:2px;stroke-dasharray:3;" marker-end="url(#my-svg_flowchart-pointEnd)"/></g><g class="edgeLabels"><g class="edgeLabel"><g class="label" transform="translate(0, 0)"><rect rx="0" ry="0" width="0" height="0"/><text style=""><tspan xml:space="preserve" dy="1em" x="0" class="row"/></text></g></g><g class="edgeLabel"><g class="label" transform="translate(0, 0)"><rect rx="0" ry="0" width="0" height="0"/><text style=""><tspan xml:space="preserve" dy="1em" x="0" class="row"/></text></g></g><g class="edgeLabel"><g class="label" transform="translate(0, 0)"><rect rx="0" ry="0" width="0" height="0"/><text style=""><tspan xml:space="preserve" dy="1em" x="0" class="row"/></text></g></g><g class="edgeLabel"><g class="label" transform="translate(0, 0)"><rect rx="0" ry="0" width="0" height="0"/><text style=""><tspan xml:space="preserve" dy="1em" x="0" class="row"/></text></g></g><g class="edgeLabel"><g class="label" transform="translate(0, 0)"><rect rx="0" ry="0" width="0" height="0"/><text style=""><tspan xml:space="preserve" dy="1em" x="0" class="row"/></text></g></g><g class="edgeLabel" transform="translate(287.65625, 277.5)"><g class="label" transform="translate(-98.5625, -10)"><rect rx="0" ry="0" width="197.125" height="20"/><text style=""><tspan xml:space="preserve" dy="1em" x="0" class="row">detected and overwritten</tspan></text></g></g></g><g class="nodes"><g class="node default default flowchart-label" id="flowchart-SRC-0" data-node="true" data-id="SRC" transform="translate(82.046875, 156.5)"><rect class="basic label-container" style="" rx="0" ry="0" x="-78.0390625" y="-53.5" width="156.078125" height="107"/><g class="label" style="" transform="translate(0, -46)"><rect/><text style=""><tspan xml:space="preserve" dy="1em" x="0" class="row">Git Desired State</tspan><tspan xml:space="preserve" dy="1em" x="0" class="row">- k8s manifests</tspan><tspan xml:space="preserve" dy="1em" x="0" class="row">- bootstrap config</tspan><tspan xml:space="preserve" dy="1em" x="0" class="row">- plugin manifests</tspan><tspan xml:space="preserve" dy="1em" x="0" class="row">- operation plans</tspan></text></g></g><g class="node default default flowchart-label" id="flowchart-SEC-1" data-node="true" data-id="SEC" transform="translate(82.046875, 26.5)"><rect class="basic label-container" style="" rx="0" ry="0" x="-82.046875" y="-26.5" width="164.09375" height="53"/><g class="label" style="" transform="translate(0, -19)"><rect/><text style=""><tspan xml:space="preserve" dy="1em" x="0" class="row">Managed Secrets</tspan><tspan xml:space="preserve" dy="1em" x="0" class="row">Kubernetes Secret</tspan></text></g></g><g class="node default default flowchart-label" id="flowchart-BOOT-2" data-node="true" data-id="BOOT" transform="translate(516.78125, 46.5)"><rect class="basic label-container" style="" rx="0" ry="0" x="-105.5625" y="-17.5" width="211.125" height="35"/><g class="label" style="" transform="translate(0, -10)"><rect/><text style=""><tspan xml:space="preserve" dy="1em" x="0" class="row">Bootstrap and Reconcile</tspan></text></g></g><g class="node default default flowchart-label" id="flowchart-RUN-3" data-node="true" data-id="RUN" transform="translate(754.890625, 46.5)"><rect class="basic label-container" style="" rx="0" ry="0" x="-82.546875" y="-17.5" width="165.09375" height="35"/><g class="label" style="" transform="translate(0, -10)"><rect/><text style=""><tspan xml:space="preserve" dy="1em" x="0" class="row">Runtime App State</tspan></text></g></g><g class="node default default flowchart-label" id="flowchart-TEST-4" data-node="true" data-id="TEST" transform="translate(993.484375, 156.5)"><rect class="basic label-container" style="" rx="0" ry="0" x="-106.046875" y="-26.5" width="212.09375" height="53"/><g class="label" style="" transform="translate(0, -19)"><rect/><text style=""><tspan xml:space="preserve" dy="1em" x="0" class="row">Verification</tspan><tspan xml:space="preserve" dy="1em" x="0" class="row">flow + smoke + API tests</tspan></text></g></g><g class="node default default flowchart-label" id="flowchart-DRIFT-15" data-node="true" data-id="DRIFT" transform="translate(82.046875, 277.5)"><rect class="basic label-container" style="" rx="0" ry="0" x="-67.5234375" y="-17.5" width="135.046875" height="35"/><g class="label" style="" transform="translate(0, -10)"><rect/><text style=""><tspan xml:space="preserve" dy="1em" x="0" class="row">Manual UI Drift</tspan></text></g></g></g></g></g></svg>