<svg id="my-svg" width="100%" xmlns="http://www.w3.org/2000/svg" xmlns:xlink="http://www.w3.org/1999/xlink" style="max-width: 1881.83px; background-color: white;" viewBox="-8 -8 1881.828125 1371" role="graphics-document document" aria-roledescription="flowchart-v2"><style>#my-svg{font-family:"trebuchet ms",verdana,arial,sans-serif;font-size:18px;fill:#000000;}#my-svg .error-icon{fill:#552222;}#my-svg .error-text{fill:#552222;stroke:#552222;}#my-svg .edge-thickness-normal{stroke-width:2px;}#my-svg .edge-thickness-thick{stroke-width:3.5px;}#my-svg .edge-pattern-solid{stroke-dasharray:0;}#my-svg .edge-pattern-dashed{stroke-dasharray:3;}#my-svg .edge-pattern-dotted{stroke-dasharray:2;}#my-svg .marker{fill:#1f2937;stroke:#1f2937;}#my-svg .marker.cross{stroke:#1f2937;}#my-svg svg{font-family:"trebuchet ms",verdana,arial,sans-serif;font-size:18px;}#my-svg .label{font-family:"trebuchet ms",verdana,arial,sans-serif;color:#000000;}#my-svg .cluster-label text{fill:#333;}#my-svg .cluster-label span,#my-svg p{color:#333;}#my-svg .label text,#my-svg span,#my-svg p{fill:#000000;color:#000000;}#my-svg .node rect,#my-svg .node circle,#my-svg .node ellipse,#my-svg .node polygon,#my-svg .node path{fill:#eee;stroke:#999;stroke-width:1px;}#my-svg .flowchart-label text{text-anchor:middle;}#my-svg .node .katex path{fill:#000;stroke:#000;stroke-width:1px;}#my-svg .node .label{text-align:center;}#my-svg .node.clickable{cursor:pointer;}#my-svg .arrowheadPath{fill:#333333;}#my-svg .edgePath .path{stroke:#1f2937;stroke-width:2.0px;}#my-svg .flowchart-link{stroke:#1f2937;fill:none;}#my-svg .edgeLabel{background-color:white;text-align:center;}#my-svg .edgeLabel rect{opacity:0.5;background-color:white;fill:white;}#my-svg .labelBkg{background-color:rgba(255, 255, 255, 0.5);}#my-svg .cluster rect{fill:#f8fafc;stroke:#334155;stroke-width:1px;}#my-svg .cluster text{fill:#333;}#my-svg .cluster span,#my-svg p{color:#333;}#my-svg div.mermaidTooltip{position:absolute;text-align:center;max-width:200px;padding:2px;font-family:"trebuchet ms",verdana,arial,sans-serif;font-size:12px;background:#fef9c3;border:1px solid #707070;border-radius:2px;pointer-events:none;z-index:100;}#my-svg .flowchartTitleText{text-anchor:middle;font-size:18px;fill:#000000;}#my-svg :root{--mermaid-font-family:"trebuchet ms",verdana,arial,sans-serif;}</style><g><marker id="my-svg_flowchart-pointEnd" class="marker flowchart" viewBox="0 0 10 10" refX="6" refY="5" markerUnits="userSpaceOnUse" markerWidth="12" markerHeight="12" orient="auto"><path d="M 0 0 L 10 5 L 0 10 z" class="arrowMarkerPath" style="stroke-width: 1; stroke-dasharray: 1, 0;"/></marker><marker id="my-svg_flowchart-pointStart" class="marker flowchart" viewBox="0 0 10 10" refX="4.5" refY="5" markerUnits="userSpaceOnUse" markerWidth="12" markerHeight="12" orient="auto"><path d="M 0 5 L 10 10 L 10 0 z" class="arrowMarkerPath" style="stroke-width: 1; stroke-dasharray: 1, 0;"/></marker><marker id="my-svg_flowchart-circleEnd" class="marker flowchart" viewBox="0 0 10 10" refX="11" refY="5" markerUnits="userSpaceOnUse" markerWidth="11" markerHeight="11" orient="auto"><circle cx="5" cy="5" r="5" class="arrowMarkerPath" style="stroke-width: 1; stroke-dasharray: 1, 0;"/></marker><marker id="my-svg_flowchart-circleStart" class="marker flowchart" viewBox="0 0 10 10" refX="-1" refY="5" markerUnits="userSpaceOnUse" markerWidth="11" markerHeight="11" orient="auto"><circle cx="5" cy="5" r="5" class="arrowMarkerPath" style="stroke-width: 1; stroke-dasharray: 1, 0;"/></marker><marker id="my-svg_flowchart-crossEnd" class="marker cross flowchart" viewBox="0 0 11 11" refX="12" refY="5.2" markerUnits="userSpaceOnUse" markerWidth="11" markerHeight="11" orient="auto"><path d="M 1,1 l 9,9 M 10,1 l -9,9" class="arrowMarkerPath" style="stroke-width: 2; stroke-dasharray: 1, 0;"/></marker><marker id="my-svg_flowchart-crossStart" class="marker cross flowchart" viewBox="0 0 11 11" refX="-1" refY="5.2" markerUnits="userSpaceOnUse" markerWidth="11" markerHeight="11" orient="auto"><path d="M 1,1 l 9,9 M 10,1 l -9,9" class="arrowMarkerPath" style="stroke-width: 2; stroke-dasharray: 1, 0;"/></marker><g class="root"><g class="clusters"><g class="cluster default flowchart-label" id="Impl"><rect style="" rx="0" ry="0" x="1500.65625" y="445" width="365.171875" height="360"/><g class="cluster-label" transform="translate(1683.2421875, 445)"><text style=""><tspan xml:space="preserve" dy="1em" x="0" class="row">Concrete Modules</tspan></text></g></g><g class="cluster default flowchart-label" id="Contracts"><rect style="" rx="0" ry="0" x="1136.515625" y="0" width="314.140625" height="445"/><g class="cluster-label" transform="translate(1293.5859375, 0)"><text style=""><tspan xml:space="preserve" dy="1em" x="0" class="row">Manifest Contract Keys</tspan></text></g></g><g class="cluster default flowchart-label" id="Roles"><rect style="" rx="0" ry="0" x="1500.65625" y="910" width="365.171875" height="445"/><g class="cluster-label" transform="translate(1683.2421875, 910)"><text style=""><tspan xml:space="preserve" dy="1em" x="0" class="row">Active Runtime Roles</tspan></text></g></g></g><g class="edgePaths"><path d="M643.733,928.25L668.173,941.042C692.614,953.833,741.494,979.417,776.885,992.208C812.275,1005,834.175,1005,845.125,1005L856.075,1005" id="L-CFG-BIND-0" class=" edge-thickness-normal edge-pattern-solid flowchart-link LS-CFG LE-BIND" style="fill:none;" marker-end="url(#my-svg_flowchart-pointEnd)"/><path d="M1009.487,987.5L1026.491,982.417C1043.496,977.333,1077.506,967.167,1098.677,962.083C1119.849,957,1128.182,957,1154.409,975.679C1180.635,994.358,1224.755,1031.717,1246.814,1050.396L1268.874,1069.075" id="L-BIND-RES-0" class=" edge-thickness-normal edge-pattern-solid flowchart-link LS-BIND LE-RES" style="fill:none;" marker-end="url(#my-svg_flowchart-pointEnd)"/><path d="M686.233,893.25L703.59,889.25C720.947,885.25,755.661,877.25,782.89,873.25C810.119,869.25,829.863,869.25,839.734,869.25L849.606,869.25" id="L-CFG-RH-0" class=" edge-thickness-normal edge-pattern-solid flowchart-link LS-CFG LE-RH" style="fill:none;" marker-end="url(#my-svg_flowchart-pointEnd)"/><path d="M405.219,445L409.385,445C413.552,445,421.885,445,436.502,445C451.119,445,472.019,445,482.469,445L492.919,445" id="L-PM-LOAD-0" class=" edge-thickness-normal edge-pattern-solid flowchart-link LS-PM LE-LOAD" style="fill:none;" marker-end="url(#my-svg_flowchart-pointEnd)"/><path d="M722.375,445L733.708,445C745.042,445,767.708,445,782.325,445C796.942,445,803.508,445,806.792,445L810.075,445" id="L-LOAD-DEF-0" class=" edge-thickness-normal edge-pattern-solid flowchart-link LS-LOAD LE-DEF" style="fill:none;" marker-end="url(#my-svg_flowchart-pointEnd)"/><path d="M961.786,418.5L986.741,357.5C1011.696,296.5,1061.606,174.5,1090.727,113.5C1119.849,52.5,1128.182,52.5,1145.47,52.5C1162.757,52.5,1188.998,52.5,1202.118,52.5L1215.239,52.5" id="L-DEF-C1-0" class=" edge-thickness-normal edge-pattern-solid flowchart-link LS-DEF LE-C1" style="fill:none;" marker-end="url(#my-svg_flowchart-pointEnd)"/><path d="M964.783,418.5L989.239,371.667C1013.694,324.833,1062.605,231.167,1091.227,184.333C1119.849,137.5,1128.182,137.5,1142.47,137.5C1156.757,137.5,1176.998,137.5,1187.118,137.5L1197.239,137.5" id="L-DEF-C2-0" class=" edge-thickness-normal edge-pattern-solid flowchart-link LS-DEF LE-C2" style="fill:none;" marker-end="url(#my-svg_flowchart-pointEnd)"/><path d="M970.069,418.5L993.644,385.833C1017.218,353.167,1064.367,287.833,1092.108,255.167C1119.849,222.5,1128.182,222.5,1139.8,222.5C1151.418,222.5,1166.321,222.5,1173.772,222.5L1181.223,222.5" id="L-DEF-C3-0" class=" edge-thickness-normal edge-pattern-solid flowchart-link LS-DEF LE-C3" style="fill:none;" marker-end="url(#my-svg_flowchart-pointEnd)"/><path d="M981.892,418.5L1003.496,400C1025.1,381.5,1068.308,344.5,1094.078,326C1119.849,307.5,1128.182,307.5,1143.55,307.5C1158.918,307.5,1181.321,307.5,1192.522,307.5L1203.723,307.5" id="L-DEF-C4-0" class=" edge-thickness-normal edge-pattern-solid flowchart-link LS-DEF LE-C4" style="fill:none;" marker-end="url(#my-svg_flowchart-pointEnd)"/><path d="M1031.995,418.5L1045.249,414.167C1058.502,409.833,1085.009,401.167,1102.429,396.833C1119.849,392.5,1128.182,392.5,1136.046,392.5C1143.91,392.5,1151.305,392.5,1155.003,392.5L1158.7,392.5" id="L-DEF-C5-0" class=" edge-thickness-normal edge-pattern-solid flowchart-link LS-DEF LE-C5" style="fill:none;" marker-end="url(#my-svg_flowchart-pointEnd)"/><path d="M957.442,471.5L983.121,576.25C1008.8,681,1060.158,890.5,1090.003,995.25C1119.849,1100,1128.182,1100,1139.887,1099.52C1151.591,1099.04,1166.667,1098.08,1174.204,1097.601L1181.742,1097.121" id="L-DEF-RES-0" class=" edge-thickness-normal edge-pattern-solid flowchart-link LS-DEF LE-RES" style="fill:none;" marker-end="url(#my-svg_flowchart-pointEnd)"/><path d="M1315.145,1072.5L1337.73,1054.167C1360.315,1035.833,1405.486,999.167,1432.238,980.833C1458.99,962.5,1467.323,962.5,1475.656,962.5C1483.99,962.5,1492.323,962.5,1516.115,962.5C1539.908,962.5,1579.159,962.5,1598.785,962.5L1618.411,962.5" id="L-RES-TOR-0" class=" edge-thickness-normal edge-pattern-solid flowchart-link LS-RES LE-TOR" style="fill:none;" marker-end="url(#my-svg_flowchart-pointEnd)"/><path d="M1358.262,1072.5L1373.661,1068.333C1389.06,1064.167,1419.858,1055.833,1439.424,1051.667C1458.99,1047.5,1467.323,1047.5,1475.656,1047.5C1483.99,1047.5,1492.323,1047.5,1515.947,1047.5C1539.572,1047.5,1578.488,1047.5,1597.945,1047.5L1617.403,1047.5" id="L-RES-USE-0" class=" edge-thickness-normal edge-pattern-solid flowchart-link LS-RES LE-USE" style="fill:none;" marker-end="url(#my-svg_flowchart-pointEnd)"/><path d="M1358.262,1107.5L1373.661,1111.667C1389.06,1115.833,1419.858,1124.167,1439.424,1128.333C1458.99,1132.5,1467.323,1132.5,1475.656,1132.5C1483.99,1132.5,1492.323,1132.5,1515.7,1132.5C1539.076,1132.5,1577.496,1132.5,1596.706,1132.5L1615.916,1132.5" id="L-RES-MED-0" class=" edge-thickness-normal edge-pattern-solid flowchart-link LS-RES LE-MED" style="fill:none;" marker-end="url(#my-svg_flowchart-pointEnd)"/><path d="M1315.145,1107.5L1337.73,1125.833C1360.315,1144.167,1405.486,1180.833,1432.238,1199.167C1458.99,1217.5,1467.323,1217.5,1475.656,1217.5C1483.99,1217.5,1492.323,1217.5,1513.029,1217.5C1533.735,1217.5,1566.815,1217.5,1583.354,1217.5L1599.894,1217.5" id="L-RES-RQM-0" class=" edge-thickness-normal edge-pattern-solid flowchart-link LS-RES LE-RQM" style="fill:none;" marker-end="url(#my-svg_flowchart-pointEnd)"/><path d="M1306.521,1107.5L1330.544,1140C1354.566,1172.5,1402.611,1237.5,1430.8,1270C1458.99,1302.5,1467.323,1302.5,1475.656,1302.5C1483.99,1302.5,1492.323,1302.5,1511.615,1302.5C1530.908,1302.5,1561.159,1302.5,1576.285,1302.5L1591.411,1302.5" id="L-RES-ARR-0" class=" edge-thickness-normal edge-pattern-solid flowchart-link LS-RES LE-ARR" style="fill:none;" marker-end="url(#my-svg_flowchart-pointEnd)"/><path d="M1304.636,1072.5L1328.973,1033.958C1353.309,995.417,1401.983,918.333,1430.486,879.792C1458.99,841.25,1467.323,841.25,1475.656,841.25C1483.99,841.25,1492.323,841.25,1512.784,842.7C1533.245,844.15,1565.835,847.051,1582.129,848.501L1598.424,849.951" id="L-RES-RT-0" class=" edge-thickness-normal edge-pattern-solid flowchart-link LS-RES LE-RT" style="fill:none;" marker-end="url(#my-svg_flowchart-pointEnd)"/><path d="M1031.995,471.5L1045.249,475.833C1058.502,480.167,1085.009,488.833,1102.429,493.167C1119.849,497.5,1128.182,497.5,1135.632,497.5C1143.082,497.5,1149.649,497.5,1152.932,497.5L1156.216,497.5" id="L-DEF-DLF-0" class=" edge-thickness-normal edge-pattern-solid flowchart-link LS-DEF LE-DLF" style="fill:none;" marker-end="url(#my-svg_flowchart-pointEnd)"/><path d="M981.892,471.5L1003.496,490C1025.1,508.5,1068.308,545.5,1094.078,564C1119.849,582.5,1128.182,582.5,1137.635,582.5C1147.087,582.5,1157.659,582.5,1162.945,582.5L1168.231,582.5" id="L-DEF-MSF-0" class=" edge-thickness-normal edge-pattern-solid flowchart-link LS-DEF LE-MSF" style="fill:none;" marker-end="url(#my-svg_flowchart-pointEnd)"/><path d="M970.069,471.5L993.644,504.167C1017.218,536.833,1064.367,602.167,1092.108,634.833C1119.849,667.5,1128.182,667.5,1141.221,667.5C1154.259,667.5,1172.003,667.5,1180.875,667.5L1189.747,667.5" id="L-DEF-SAF-0" class=" edge-thickness-normal edge-pattern-solid flowchart-link LS-DEF LE-SAF" style="fill:none;" marker-end="url(#my-svg_flowchart-pointEnd)"/><path d="M966.418,471.5L990.601,512.917C1014.784,554.333,1063.15,637.167,1091.499,678.583C1119.849,720,1128.182,720,1143.566,722.321C1158.95,724.642,1181.385,729.284,1192.602,731.605L1203.82,733.926" id="L-DEF-OPREG-0" class=" edge-thickness-normal edge-pattern-solid flowchart-link LS-DEF LE-OPREG" style="fill:none;" marker-end="url(#my-svg_flowchart-pointEnd)"/><path d="M1023.373,842.75L1038.063,837.375C1052.754,832,1082.135,821.25,1100.992,815.875C1119.849,810.5,1128.182,810.5,1149.8,804.056C1171.418,797.612,1206.32,784.724,1223.771,778.28L1241.222,771.836" id="L-RH-OPREG-0" class=" edge-thickness-normal edge-pattern-solid flowchart-link LS-RH LE-OPREG" style="fill:none;" marker-end="url(#my-svg_flowchart-pointEnd)"/><path d="M1046.984,871.942L1057.74,872.243C1068.495,872.544,1090.005,873.147,1104.927,873.449C1119.849,873.75,1128.182,873.75,1158.527,873.75C1188.872,873.75,1241.229,873.75,1293.586,873.75C1345.943,873.75,1398.299,873.75,1428.645,873.75C1458.99,873.75,1467.323,873.75,1475.656,873.75C1483.99,873.75,1492.323,873.75,1512.784,872.3C1533.245,870.85,1565.835,867.949,1582.129,866.499L1598.424,865.049" id="L-RH-RT-0" class=" edge-thickness-normal edge-pattern-solid flowchart-link LS-RH LE-RT" style="fill:none;" marker-end="url(#my-svg_flowchart-pointEnd)"/><path d="M1425.656,497.5L1429.823,497.5C1433.99,497.5,1442.323,497.5,1450.656,497.5C1458.99,497.5,1467.323,497.5,1475.656,497.5C1483.99,497.5,1492.323,497.5,1506.356,497.5C1520.39,497.5,1540.123,497.5,1549.99,497.5L1559.856,497.5" id="L-DLF-TCA-0" class=" edge-thickness-normal edge-pattern-solid flowchart-link LS-DLF LE-TCA" style="fill:none;" marker-end="url(#my-svg_flowchart-pointEnd)"/><path d="M1413.641,582.5L1419.81,582.5C1425.979,582.5,1438.318,582.5,1448.654,582.5C1458.99,582.5,1467.323,582.5,1475.656,582.5C1483.99,582.5,1492.323,582.5,1508.027,582.5C1523.731,582.5,1546.805,582.5,1558.342,582.5L1569.88,582.5" id="L-MSF-MSA-0" class=" edge-thickness-normal edge-pattern-solid flowchart-link LS-MSF LE-MSA" style="fill:none;" marker-end="url(#my-svg_flowchart-pointEnd)"/><path d="M1392.125,667.5L1401.88,667.5C1411.635,667.5,1431.146,667.5,1445.068,667.5C1458.99,667.5,1467.323,667.5,1475.656,667.5C1483.99,667.5,1492.323,667.5,1509.861,667.5C1527.4,667.5,1554.144,667.5,1567.516,667.5L1580.888,667.5" id="L-SAF-SVA-0" class=" edge-thickness-normal edge-pattern-solid flowchart-link LS-SAF LE-SVA" style="fill:none;" marker-end="url(#my-svg_flowchart-pointEnd)"/><path d="M1403.141,752.5L1411.06,752.5C1418.979,752.5,1434.818,752.5,1446.904,752.5C1458.99,752.5,1467.323,752.5,1475.656,752.5C1483.99,752.5,1492.323,752.5,1499.773,752.5C1507.223,752.5,1513.79,752.5,1517.073,752.5L1520.356,752.5" id="L-OPREG-APS-0" class=" edge-thickness-normal edge-pattern-solid flowchart-link LS-OPREG LE-APS" style="fill:none;" marker-end="url(#my-svg_flowchart-pointEnd)"/></g><g class="edgeLabels"><g class="edgeLabel"><g class="label" transform="translate(0, 0)"><rect rx="0" ry="0" width="0" height="0"/><text style=""><tspan xml:space="preserve" dy="1em" x="0" class="row"/></text></g></g><g class="edgeLabel"><g class="label" transform="translate(0, 0)"><rect rx="0" ry="0" width="0" height="0"/><text style=""><tspan xml:space="preserve" dy="1em" x="0" class="row"/></text></g></g><g class="edgeLabel"><g class="label" transform="translate(0, 0)"><rect rx="0" ry="0" width="0" height="0"/><text style=""><tspan xml:space="preserve" dy="1em" x="0" class="row"/></text></g></g><g class="edgeLabel"><g class="label" transform="translate(0, 0)"><rect rx="0" ry="0" width="0" height="0"/><text style=""><tspan xml:space="preserve" dy="1em" x="0" class="row"/></text></g></g><g class="edgeLabel"><g class="label" transform="translate(0, 0)"><rect rx="0" ry="0" width="0" height="0"/><text style=""><tspan xml:space="preserve" dy="1em" x="0" class="row"/></text></g></g><g class="edgeLabel"><g class="label" transform="translate(0, 0)"><rect rx="0" ry="0" width="0" height="0"/><text style=""><tspan xml:space="preserve" dy="1em" x="0" class="row"/></text></g></g><g class="edgeLabel"><g class="label" transform="translate(0, 0)"><rect rx="0" ry="0" width="0" height="0"/><text style=""><tspan xml:space="preserve" dy="1em" x="0" class="row"/></text></g></g><g class="edgeLabel"><g class="label" transform="translate(0, 0)"><rect rx="0" ry="0" width="0" height="0"/><text style=""><tspan xml:space="preserve" dy="1em" x="0" class="row"/></text></g></g><g class="edgeLabel"><g class="label" transform="translate(0, 0)"><rect rx="0" ry="0" width="0" height="0"/><text style=""><tspan xml:space="preserve" dy="1em" x="0" class="row"/></text></g></g><g class="edgeLabel"><g class="label" transform="translate(0, 0)"><rect rx="0" ry="0" width="0" height="0"/><text style=""><tspan xml:space="preserve" dy="1em" x="0" class="row"/></text></g></g><g class="edgeLabel"><g class="label" transform="translate(0, 0)"><rect rx="0" ry="0" width="0" height="0"/><text style=""><tspan xml:space="preserve" dy="1em" x="0" class="row"/></text></g></g><g class="edgeLabel"><g class="label" transform="translate(0, 0)"><rect rx="0" ry="0" width="0" height="0"/><text style=""><tspan xml:space="preserve" dy="1em" x="0" class="row"/></text></g></g><g class="edgeLabel"><g class="label" transform="translate(0, 0)"><rect rx="0" ry="0" width="0" height="0"/><text style=""><tspan xml:space="preserve" dy="1em" x="0" class="row"/></text></g></g><g class="edgeLabel"><g class="label" transform="translate(0, 0)"><rect rx="0" ry="0" width="0" height="0"/><text style=""><tspan xml:space="preserve" dy="1em" x="0" class="row"/></text></g></g><g class="edgeLabel"><g class="label" transform="translate(0, 0)"><rect rx="0" ry="0" width="0" height="0"/><text style=""><tspan xml:space="preserve" dy="1em" x="0" class="row"/></text></g></g><g class="edgeLabel"><g class="label" transform="translate(0, 0)"><rect rx="0" ry="0" width="0" height="0"/><text style=""><tspan xml:space="preserve" dy="1em" x="0" class="row"/></text></g></g><g class="edgeLabel"><g class="label" transform="translate(0, 0)"><rect rx="0" ry="0" width="0" height="0"/><text style=""><tspan xml:space="preserve" dy="1em" x="0" class="row"/></text></g></g><g class="edgeLabel"><g class="label" transform="translate(0, 0)"><rect rx="0" ry="0" width="0" height="0"/><text style=""><tspan xml:space="preserve" dy="1em" x="0" class="row"/></text></g></g><g class="edgeLabel"><g class="label" transform="translate(0, 0)"><rect rx="0" ry="0" width="0" height="0"/><text style=""><tspan xml:space="preserve" dy="1em" x="0" class="row"/></text></g></g><g class="edgeLabel"><g class="label" transform="translate(0, 0)"><rect rx="0" ry="0" width="0" height="0"/><text style=""><tspan xml:space="preserve" dy="1em" x="0" class="row"/></text></g></g><g class="edgeLabel"><g class="label" transform="translate(0, 0)"><rect rx="0" ry="0" width="0" height="0"/><text style=""><tspan xml:space="preserve" dy="1em" x="0" class="row"/></text></g></g><g class="edgeLabel"><g class="label" transform="translate(0, 0)"><rect rx="0" ry="0" width="0" height="0"/><text style=""><tspan xml:space="preserve" dy="1em" x="0" class="row"/></text></g></g><g class="edgeLabel"><g class="label" transform="translate(0, 0)"><rect rx="0" ry="0" width="0" height="0"/><text style=""><tspan xml:space="preserve" dy="1em" x="0" class="row"/></text></g></g><g class="edgeLabel"><g class="label" transform="translate(0, 0)"><rect rx="0" ry="0" width="0" height="0"/><text style=""><tspan xml:space="preserve" dy="1em" x="0" class="row"/></text></g></g><g class="edgeLabel"><g class="label" transform="translate(0, 0)"><rect rx="0" ry="0" width="0" height="0"/><text style=""><tspan xml:space="preserve" dy="1em" x="0" class="row"/></text></g></g><g class="edgeLabel"><g class="label" transform="translate(0, 0)"><rect rx="0" ry="0" width="0" height="0"/><text style=""><tspan xml:space="preserve" dy="1em" x="0" class="row"/></text></g></g><g class="edgeLabel"><g class="label" transform="translate(0, 0)"><rect rx="0" ry="0" width="0" height="0"/><text style=""><tspan xml:space="preserve" dy="1em" x="0" class="row"/></text></g></g></g><g class="nodes"><g class="node default default flowchart-label" id="flowchart-TCA-22" data-node="true" data-id="TCA" transform="translate(1683.2421875, 497.5)"><rect class="basic label-container" style="" rx="0" ry="0" x="-118.0859375" y="-17.5" width="236.171875" height="35"/><g class="label" style="" transform="translate(0, -10)"><rect/><text style=""><tspan xml:space="preserve" dy="1em" x="0" class="row">download_client_adapters/*</tspan></text></g></g><g class="node default default flowchart-label" id="flowchart-MSA-23" data-node="true" data-id="MSA" transform="translate(1683.2421875, 582.5)"><rect class="basic label-container" style="" rx="0" ry="0" x="-108.0625" y="-17.5" width="216.125" height="35"/><g class="label" style="" transform="translate(0, -10)"><rect/><text style=""><tspan xml:space="preserve" dy="1em" x="0" class="row">media_server_adapters/*</tspan></text></g></g><g class="node default default flowchart-label" id="flowchart-SVA-24" data-node="true" data-id="SVA" transform="translate(1683.2421875, 667.5)"><rect class="basic label-container" style="" rx="0" ry="0" x="-97.0546875" y="-17.5" width="194.109375" height="35"/><g class="label" style="" transform="translate(0, -10)"><rect/><text style=""><tspan xml:space="preserve" dy="1em" x="0" class="row">servarr_technologies/*</tspan></text></g></g><g class="node default default flowchart-label" id="flowchart-APS-25" data-node="true" data-id="APS" transform="translate(1683.2421875, 752.5)"><rect class="basic label-container" style="" rx="0" ry="0" x="-157.5859375" y="-17.5" width="315.171875" height="35"/><g class="label" style="" transform="translate(0, -10)"><rect/><text style=""><tspan xml:space="preserve" dy="1em" x="0" class="row">apps/*/service.py and runtime_ops.py</tspan></text></g></g><g class="node default default flowchart-label" id="flowchart-C1-17" data-node="true" data-id="C1" transform="translate(1293.5859375, 52.5)"><rect class="basic label-container" style="" rx="0" ry="0" x="-73.046875" y="-17.5" width="146.09375" height="35"/><g class="label" style="" transform="translate(0, -10)"><rect/><text style=""><tspan xml:space="preserve" dy="1em" x="0" class="row">adapter_classes</tspan></text></g></g><g class="node default default flowchart-label" id="flowchart-C2-18" data-node="true" data-id="C2" transform="translate(1293.5859375, 137.5)"><rect class="basic label-container" style="" rx="0" ry="0" x="-91.046875" y="-17.5" width="182.09375" height="35"/><g class="label" style="" transform="translate(0, -10)"><rect/><text style=""><tspan xml:space="preserve" dy="1em" x="0" class="row">app_service_classes</tspan></text></g></g><g class="node default default flowchart-label" id="flowchart-C3-19" data-node="true" data-id="C3" transform="translate(1293.5859375, 222.5)"><rect class="basic label-container" style="" rx="0" ry="0" x="-107.0625" y="-17.5" width="214.125" height="35"/><g class="label" style="" transform="translate(0, -10)"><rect/><text style=""><tspan xml:space="preserve" dy="1em" x="0" class="row">service_technology_map</tspan></text></g></g><g class="node default default flowchart-label" id="flowchart-C4-20" data-node="true" data-id="C4" transform="translate(1293.5859375, 307.5)"><rect class="basic label-container" style="" rx="0" ry="0" x="-84.5625" y="-17.5" width="169.125" height="35"/><g class="label" style="" transform="translate(0, -10)"><rect/><text style=""><tspan xml:space="preserve" dy="1em" x="0" class="row">operation_handlers</tspan></text></g></g><g class="node default default flowchart-label" id="flowchart-C5-21" data-node="true" data-id="C5" transform="translate(1293.5859375, 392.5)"><rect class="basic label-container" style="" rx="0" ry="0" x="-129.5859375" y="-17.5" width="259.171875" height="35"/><g class="label" style="" transform="translate(0, -10)"><rect/><text style=""><tspan xml:space="preserve" dy="1em" x="0" class="row">aliases and capability_defaults</tspan></text></g></g><g class="node default default flowchart-label" id="flowchart-TOR-12" data-node="true" data-id="TOR" transform="translate(1683.2421875, 962.5)"><rect class="basic label-container" style="" rx="0" ry="0" x="-59.53125" y="-17.5" width="119.0625" height="35"/><g class="label" style="" transform="translate(0, -10)"><rect/><text style=""><tspan xml:space="preserve" dy="1em" x="0" class="row">torrent_client</tspan></text></g></g><g class="node default default flowchart-label" id="flowchart-USE-13" data-node="true" data-id="USE" transform="translate(1683.2421875, 1047.5)"><rect class="basic label-container" style="" rx="0" ry="0" x="-60.5390625" y="-17.5" width="121.078125" height="35"/><g class="label" style="" transform="translate(0, -10)"><rect/><text style=""><tspan xml:space="preserve" dy="1em" x="0" class="row">usenet_client</tspan></text></g></g><g class="node default default flowchart-label" id="flowchart-MED-14" data-node="true" data-id="MED" transform="translate(1683.2421875, 1132.5)"><rect class="basic label-container" style="" rx="0" ry="0" x="-62.02587890625" y="-17.5" width="124.0517578125" height="35"/><g class="label" style="" transform="translate(0, -10)"><rect/><text style=""><tspan xml:space="preserve" dy="1em" x="0" class="row">media_server</tspan></text></g></g><g class="node default default flowchart-label" id="flowchart-RQM-15" data-node="true" data-id="RQM" transform="translate(1683.2421875, 1217.5)"><rect class="basic label-container" style="" rx="0" ry="0" x="-78.04833984375" y="-17.5" width="156.0966796875" height="35"/><g class="label" style="" transform="translate(0, -10)"><rect/><text style=""><tspan xml:space="preserve" dy="1em" x="0" class="row">request_manager</tspan></text></g></g><g class="node default default flowchart-label" id="flowchart-ARR-16" data-node="true" data-id="ARR" transform="translate(1683.2421875, 1302.5)"><rect class="basic label-container" style="" rx="0" ry="0" x="-86.53125" y="-17.5" width="173.0625" height="35"/><g class="label" style="" transform="translate(0, -10)"><rect/><text style=""><tspan xml:space="preserve" dy="1em" x="0" class="row">arr implementations</tspan></text></g></g><g class="node default default flowchart-label" id="flowchart-CFG-0" data-node="true" data-id="CFG" transform="translate(610.296875, 910.75)"><rect class="basic label-container" style="fill:#eef7ff;stroke:#1f4f99;stroke-width:2px;" rx="0" ry="0" x="-155.078125" y="-17.5" width="310.15625" height="35"/><g class="label" style="" transform="translate(0, -10)"><rect/><text style=""><tspan xml:space="preserve" dy="1em" x="0" class="row">bootstrap/media-stack.bootstrap.json</tspan></text></g></g><g class="node default default flowchart-label" id="flowchart-BIND-1" data-node="true" data-id="BIND" transform="translate(950.9453125, 1005)"><rect class="basic label-container" style="" rx="0" ry="0" x="-89.5703125" y="-17.5" width="179.140625" height="35"/><g class="label" style="" transform="translate(0, -10)"><rect/><text style=""><tspan xml:space="preserve" dy="1em" x="0" class="row">technology_bindings</tspan></text></g></g><g class="node default default flowchart-label" id="flowchart-RH-2" data-node="true" data-id="RH" transform="translate(950.9453125, 869.25)"><rect class="basic label-container" style="fill:#fff0f0;stroke:#ad1f2f;stroke-width:2px;" rx="0" ry="0" x="-96.0390625" y="-26.5" width="192.078125" height="53"/><g class="label" style="" transform="translate(0, -19)"><rect/><text style=""><tspan xml:space="preserve" dy="1em" x="0" class="row">adapter_hooks</tspan><tspan xml:space="preserve" dy="1em" x="0" class="row">runtime overrides only</tspan></text></g></g><g class="node default default flowchart-label" id="flowchart-PM-3" data-node="true" data-id="PM" transform="translate(202.609375, 445)"><rect class="basic label-container" style="fill:#f4f7ea;stroke:#507a18;stroke-width:2px;" rx="0" ry="0" x="-202.609375" y="-17.5" width="405.21875" height="35"/><g class="label" style="" transform="translate(0, -10)"><rect/><text style=""><tspan xml:space="preserve" dy="1em" x="0" class="row">scripts/bootstrap_defaults/plugins/*/manifest.json</tspan></text></g></g><g class="node default default flowchart-label" id="flowchart-LOAD-4" data-node="true" data-id="LOAD" transform="translate(610.296875, 445)"><rect class="basic label-container" style="" rx="0" ry="0" x="-112.078125" y="-17.5" width="224.15625" height="35"/><g class="label" style="" transform="translate(0, -10)"><rect/><text style=""><tspan xml:space="preserve" dy="1em" x="0" class="row">plugin_manifest_loader.py</tspan></text></g></g><g class="node default default flowchart-label" id="flowchart-DEF-5" data-node="true" data-id="DEF" transform="translate(950.9453125, 445)"><rect class="basic label-container" style="fill:#fff7e8;stroke:#9a6b00;stroke-width:2px;" rx="0" ry="0" x="-135.5703125" y="-26.5" width="271.140625" height="53"/><g class="label" style="" transform="translate(0, -19)"><rect/><text style=""><tspan xml:space="preserve" dy="1em" x="0" class="row">AdapterHookDefaults</tspan><tspan xml:space="preserve" dy="1em" x="0" class="row">aliases + class maps + handlers</tspan></text></g></g><g class="node default default flowchart-label" id="flowchart-RES-6" data-node="true" data-id="RES" transform="translate(1293.5859375, 1090)"><rect class="basic label-container" style="" rx="0" ry="0" x="-106.5546875" y="-17.5" width="213.109375" height="35"/><g class="label" style="" transform="translate(0, -10)"><rect/><text style=""><tspan xml:space="preserve" dy="1em" x="0" class="row">RuntimeBindingResolver</tspan></text></g></g><g class="node default default flowchart-label" id="flowchart-RT-7" data-node="true" data-id="RT" transform="translate(1683.2421875, 857.5)"><rect class="basic label-container" style="" rx="0" ry="0" x="-79.5390625" y="-17.5" width="159.078125" height="35"/><g class="label" style="" transform="translate(0, -10)"><rect/><text style=""><tspan xml:space="preserve" dy="1em" x="0" class="row">BootstrapRuntime</tspan></text></g></g><g class="node default default flowchart-label" id="flowchart-OPREG-8" data-node="true" data-id="OPREG" transform="translate(1293.5859375, 752.5)"><rect class="basic label-container" style="" rx="0" ry="0" x="-109.5546875" y="-17.5" width="219.109375" height="35"/><g class="label" style="" transform="translate(0, -10)"><rect/><text style=""><tspan xml:space="preserve" dy="1em" x="0" class="row">RunnerOperationRegistry</tspan></text></g></g><g class="node default default flowchart-label" id="flowchart-DLF-9" data-node="true" data-id="DLF" transform="translate(1293.5859375, 497.5)"><rect class="basic label-container" style="" rx="0" ry="0" x="-132.0703125" y="-17.5" width="264.140625" height="35"/><g class="label" style="" transform="translate(0, -10)"><rect/><text style=""><tspan xml:space="preserve" dy="1em" x="0" class="row">DownloadClientAdapterFactory</tspan></text></g></g><g class="node default default flowchart-label" id="flowchart-MSF-10" data-node="true" data-id="MSF" transform="translate(1293.5859375, 582.5)"><rect class="basic label-container" style="" rx="0" ry="0" x="-120.0546875" y="-17.5" width="240.109375" height="35"/><g class="label" style="" transform="translate(0, -10)"><rect/><text style=""><tspan xml:space="preserve" dy="1em" x="0" class="row">MediaServerAdapterFactory</tspan></text></g></g><g class="node default default flowchart-label" id="flowchart-SAF-11" data-node="true" data-id="SAF" transform="translate(1293.5859375, 667.5)"><rect class="basic label-container" style="" rx="0" ry="0" x="-98.5390625" y="-17.5" width="197.078125" height="35"/><g class="label" style="" transform="translate(0, -10)"><rect/><text style=""><tspan xml:space="preserve" dy="1em" x="0" class="row">ServarrAdapterFactory</tspan></text></g></g></g></g></g></svg>