<svg id="my-svg" width="100%" xmlns="http://www.w3.org/2000/svg" xmlns:xlink="http://www.w3.org/1999/xlink" style="max-width: 1834.84px; background-color: white;" viewBox="-8 -8 1834.8447265625 701" role="graphics-document document" aria-roledescription="flowchart-v2"><style>#my-svg{font-family:"trebuchet ms",verdana,arial,sans-serif;font-size:18px;fill:#000000;}#my-svg .error-icon{fill:#552222;}#my-svg .error-text{fill:#552222;stroke:#552222;}#my-svg .edge-thickness-normal{stroke-width:2px;}#my-svg .edge-thickness-thick{stroke-width:3.5px;}#my-svg .edge-pattern-solid{stroke-dasharray:0;}#my-svg .edge-pattern-dashed{stroke-dasharray:3;}#my-svg .edge-pattern-dotted{stroke-dasharray:2;}#my-svg .marker{fill:#1f2937;stroke:#1f2937;}#my-svg .marker.cross{stroke:#1f2937;}#my-svg svg{font-family:"trebuchet ms",verdana,arial,sans-serif;font-size:18px;}#my-svg .label{font-family:"trebuchet ms",verdana,arial,sans-serif;color:#000000;}#my-svg .cluster-label text{fill:#333;}#my-svg .cluster-label span,#my-svg p{color:#333;}#my-svg .label text,#my-svg span,#my-svg p{fill:#000000;color:#000000;}#my-svg .node rect,#my-svg .node circle,#my-svg .node ellipse,#my-svg .node polygon,#my-svg .node path{fill:#eee;stroke:#999;stroke-width:1px;}#my-svg .flowchart-label text{text-anchor:middle;}#my-svg .node .katex path{fill:#000;stroke:#000;stroke-width:1px;}#my-svg .node .label{text-align:center;}#my-svg .node.clickable{cursor:pointer;}#my-svg .arrowheadPath{fill:#333333;}#my-svg .edgePath .path{stroke:#1f2937;stroke-width:2.0px;}#my-svg .flowchart-link{stroke:#1f2937;fill:none;}#my-svg .edgeLabel{background-color:white;text-align:center;}#my-svg .edgeLabel rect{opacity:0.5;background-color:white;fill:white;}#my-svg .labelBkg{background-color:rgba(255, 255, 255, 0.5);}#my-svg .cluster rect{fill:#f8fafc;stroke:#334155;stroke-width:1px;}#my-svg .cluster text{fill:#333;}#my-svg .cluster span,#my-svg p{color:#333;}#my-svg div.mermaidTooltip{position:absolute;text-align:center;max-width:200px;padding:2px;font-family:"trebuchet ms",verdana,arial,sans-serif;font-size:12px;background:#fef9c3;border:1px solid #707070;border-radius:2px;pointer-events:none;z-index:100;}#my-svg .flowchartTitleText{text-anchor:middle;font-size:18px;fill:#000000;}#my-svg :root{--mermaid-font-family:"trebuchet ms",verdana,arial,sans-serif;}</style><g><marker id="my-svg_flowchart-pointEnd" class="marker flowchart" viewBox="0 0 10 10" refX="6" refY="5" markerUnits="userSpaceOnUse" markerWidth="12" markerHeight="12" orient="auto"><path d="M 0 0 L 10 5 L 0 10 z" class="arrowMarkerPath" style="stroke-width: 1; stroke-dasharray: 1, 0;"/></marker><marker id="my-svg_flowchart-pointStart" class="marker flowchart" viewBox="0 0 10 10" refX="4.5" refY="5" markerUnits="userSpaceOnUse" markerWidth="12" markerHeight="12" orient="auto"><path d="M 0 5 L 10 10 L 10 0 z" class="arrowMarkerPath" style="stroke-width: 1; stroke-dasharray: 1, 0;"/></marker><marker id="my-svg_flowchart-circleEnd" class="marker flowchart" viewBox="0 0 10 10" refX="11" refY="5" markerUnits="userSpaceOnUse" markerWidth="11" markerHeight="11" orient="auto"><circle cx="5" cy="5" r="5" class="arrowMarkerPath" style="stroke-width: 1; stroke-dasharray: 1, 0;"/></marker><marker id="my-svg_flowchart-circleStart" class="marker flowchart" viewBox="0 0 10 10" refX="-1" refY="5" markerUnits="userSpaceOnUse" markerWidth="11" markerHeight="11" orient="auto"><circle cx="5" cy="5" r="5" class="arrowMarkerPath" style="stroke-width: 1; stroke-dasharray: 1, 0;"/></marker><marker id="my-svg_flowchart-crossEnd" class="marker cross flowchart" viewBox="0 0 11 11" refX="12" refY="5.2" markerUnits="userSpaceOnUse" markerWidth="11" markerHeight="11" orient="auto"><path d="M 1,1 l 9,9 M 10,1 l -9,9" class="arrowMarkerPath" style="stroke-width: 2; stroke-dasharray: 1, 0;"/></marker><marker id="my-svg_flowchart-crossStart" class="marker cross flowchart" viewBox="0 0 11 11" refX="-1" refY="5.2" markerUnits="userSpaceOnUse" markerWidth="11" markerHeight="11" orient="auto"><path d="M 1,1 l 9,9 M 10,1 l -9,9" class="arrowMarkerPath" style="stroke-width: 2; stroke-dasharray: 1, 0;"/></marker><g class="root"><g class="clusters"><g class="cluster default flowchart-label" id="Impl"><rect style="" rx="0" ry="0" x="1185.515625" y="0" width="384.21875" height="615"/><g class="cluster-label" transform="translate(1377.625, 0)"><text style=""><tspan xml:space="preserve" dy="1em" x="0" class="row">Concrete Adapter Modules</tspan></text></g></g><g class="cluster default flowchart-label" id="Roles"><rect style="" rx="0" ry="0" x="589.296875" y="127.5" width="263.109375" height="360"/><g class="cluster-label" transform="translate(720.8515625, 127.5)"><text style=""><tspan xml:space="preserve" dy="1em" x="0" class="row">Technology Roles</tspan></text></g></g></g><g class="edgePaths"><path d="M188.25,375L212.735,362.083C237.219,349.167,286.188,323.333,313.955,310.417C341.723,297.5,348.29,297.5,351.573,297.5L354.856,297.5" id="L-CFG-BIND-0" class=" edge-thickness-normal edge-pattern-solid flowchart-link LS-CFG LE-BIND" style="fill:none;" marker-end="url(#my-svg_flowchart-pointEnd)"/><path d="M176.443,410L202.895,431.667C229.348,453.333,282.252,496.667,327.799,518.333C373.346,540,411.536,540,449.727,540C487.917,540,526.107,540,549.368,540C572.63,540,580.964,540,594.998,540C609.033,540,628.769,540,638.637,540L648.505,540" id="L-CFG-HOOKS-0" class=" edge-thickness-normal edge-pattern-solid flowchart-link LS-CFG LE-HOOKS" style="fill:none;" marker-end="url(#my-svg_flowchart-pointEnd)"/><path d="M466.79,280L483.041,263.333C499.292,246.667,531.795,213.333,552.212,196.667C572.63,180,580.964,180,596.251,180C611.538,180,633.779,180,644.9,180L656.02,180" id="L-BIND-TOR-0" class=" edge-thickness-normal edge-pattern-solid flowchart-link LS-BIND LE-TOR" style="fill:none;" marker-end="url(#my-svg_flowchart-pointEnd)"/><path d="M511.418,280L520.231,277.5C529.044,275,546.671,270,559.65,267.5C572.63,265,580.964,265,596.083,265C611.202,265,633.107,265,644.06,265L655.013,265" id="L-BIND-USE-0" class=" edge-thickness-normal edge-pattern-solid flowchart-link LS-BIND LE-USE" style="fill:none;" marker-end="url(#my-svg_flowchart-pointEnd)"/><path d="M487.917,315L500.647,320.833C513.377,326.667,538.837,338.333,555.734,344.167C572.63,350,580.964,350,595.835,350C610.706,350,632.116,350,642.821,350L653.526,350" id="L-BIND-MED-0" class=" edge-thickness-normal edge-pattern-solid flowchart-link LS-BIND LE-MED" style="fill:none;" marker-end="url(#my-svg_flowchart-pointEnd)"/><path d="M464.308,315L480.973,335C497.638,355,530.967,395,551.799,415C572.63,435,580.964,435,588.414,435C595.864,435,602.43,435,605.714,435L608.997,435" id="L-BIND-ARR-0" class=" edge-thickness-normal edge-pattern-solid flowchart-link LS-BIND LE-ARR" style="fill:none;" marker-end="url(#my-svg_flowchart-pointEnd)"/><path d="M780.383,180L792.387,180C804.391,180,828.398,180,844.569,180C860.74,180,869.073,180,893.838,204.738C918.603,229.476,959.801,278.951,980.399,303.689L1000.998,328.427" id="L-TOR-FACT-0" class=" edge-thickness-normal edge-pattern-solid flowchart-link LS-TOR LE-FACT" style="fill:none;" marker-end="url(#my-svg_flowchart-pointEnd)"/><path d="M781.391,265L793.227,265C805.063,265,828.734,265,844.737,265C860.74,265,869.073,265,891.217,275.795C913.362,286.591,949.318,308.181,967.296,318.976L985.274,329.772" id="L-USE-FACT-0" class=" edge-thickness-normal edge-pattern-solid flowchart-link LS-USE LE-FACT" style="fill:none;" marker-end="url(#my-svg_flowchart-pointEnd)"/><path d="M782.877,350L794.466,350C806.054,350,829.23,350,844.985,350C860.74,350,869.073,350,876.523,350C883.973,350,890.54,350,893.823,350L897.106,350" id="L-MED-FACT-0" class=" edge-thickness-normal edge-pattern-solid flowchart-link LS-MED LE-FACT" style="fill:none;" marker-end="url(#my-svg_flowchart-pointEnd)"/><path d="M827.406,435L831.573,435C835.74,435,844.073,435,852.406,435C860.74,435,869.073,435,891.217,424.205C913.362,413.409,949.318,391.819,967.296,381.024L985.274,370.228" id="L-ARR-FACT-0" class=" edge-thickness-normal edge-pattern-solid flowchart-link LS-ARR LE-FACT" style="fill:none;" marker-end="url(#my-svg_flowchart-pointEnd)"/><path d="M787.898,540L798.65,540C809.401,540,830.904,540,845.822,540C860.74,540,869.073,540,894.131,511.958C919.19,483.917,960.973,427.833,981.865,399.792L1002.757,371.75" id="L-HOOKS-FACT-0" class=" edge-thickness-normal edge-pattern-solid flowchart-link LS-HOOKS LE-FACT" style="fill:none;" marker-end="url(#my-svg_flowchart-pointEnd)"/><path d="M1027.288,332.5L1049.492,285.833C1071.697,239.167,1116.106,145.833,1142.478,99.167C1168.849,52.5,1177.182,52.5,1184.632,52.5C1192.082,52.5,1198.649,52.5,1201.932,52.5L1205.216,52.5" id="L-FACT-QBA-0" class=" edge-thickness-normal edge-pattern-solid flowchart-link LS-FACT LE-QBA" style="fill:none;" marker-end="url(#my-svg_flowchart-pointEnd)"/><path d="M1030.618,332.5L1052.268,300C1073.917,267.5,1117.217,202.5,1143.033,170C1168.849,137.5,1177.182,137.5,1185.714,137.5C1194.246,137.5,1202.977,137.5,1207.342,137.5L1211.708,137.5" id="L-FACT-SABA-0" class=" edge-thickness-normal edge-pattern-solid flowchart-link LS-FACT LE-SABA" style="fill:none;" marker-end="url(#my-svg_flowchart-pointEnd)"/><path d="M1038.39,332.5L1058.744,314.167C1079.099,295.833,1119.807,259.167,1144.328,240.833C1168.849,222.5,1177.182,222.5,1188.889,222.5C1200.595,222.5,1215.675,222.5,1223.215,222.5L1230.755,222.5" id="L-FACT-MSA-0" class=" edge-thickness-normal edge-pattern-solid flowchart-link LS-FACT LE-MSA" style="fill:none;" marker-end="url(#my-svg_flowchart-pointEnd)"/><path d="M1077.248,332.5L1091.126,328.333C1105.004,324.167,1132.76,315.833,1150.804,311.667C1168.849,307.5,1177.182,307.5,1190.722,307.5C1204.262,307.5,1223.008,307.5,1232.382,307.5L1241.755,307.5" id="L-FACT-SONA-0" class=" edge-thickness-normal edge-pattern-solid flowchart-link LS-FACT LE-SONA" style="fill:none;" marker-end="url(#my-svg_flowchart-pointEnd)"/><path d="M1077.248,367.5L1091.126,371.667C1105.004,375.833,1132.76,384.167,1150.804,388.333C1168.849,392.5,1177.182,392.5,1190.973,392.5C1204.765,392.5,1224.014,392.5,1233.638,392.5L1243.263,392.5" id="L-FACT-RADA-0" class=" edge-thickness-normal edge-pattern-solid flowchart-link LS-FACT LE-RADA" style="fill:none;" marker-end="url(#my-svg_flowchart-pointEnd)"/><path d="M1038.39,367.5L1058.744,385.833C1079.099,404.167,1119.807,440.833,1144.328,459.167C1168.849,477.5,1177.182,477.5,1191.64,477.5C1206.098,477.5,1226.68,477.5,1236.971,477.5L1247.263,477.5" id="L-FACT-LIDA-0" class=" edge-thickness-normal edge-pattern-solid flowchart-link LS-FACT LE-LIDA" style="fill:none;" marker-end="url(#my-svg_flowchart-pointEnd)"/><path d="M1030.618,367.5L1052.268,400C1073.917,432.5,1117.217,497.5,1143.033,530C1168.849,562.5,1177.182,562.5,1190.139,562.5C1203.095,562.5,1220.675,562.5,1229.465,562.5L1238.255,562.5" id="L-FACT-READA-0" class=" edge-thickness-normal edge-pattern-solid flowchart-link LS-FACT LE-READA" style="fill:none;" marker-end="url(#my-svg_flowchart-pointEnd)"/><path d="M1026.763,367.5L1049.055,417.5C1071.347,467.5,1115.931,567.5,1142.39,617.5C1168.849,667.5,1177.182,667.5,1190.641,667.5C1204.101,667.5,1222.685,667.5,1231.978,667.5L1241.27,667.5" id="L-FACT-CONV-0" class=" edge-thickness-normal edge-pattern-solid flowchart-link LS-FACT LE-CONV" style="fill:none;" marker-end="url(#my-svg_flowchart-pointEnd)"/><path d="M1508.68,667.5L1518.855,667.5C1529.031,667.5,1549.383,667.5,1563.725,667.5C1578.068,667.5,1586.401,667.5,1593.851,667.5C1601.301,667.5,1607.868,667.5,1611.151,667.5L1614.434,667.5" id="L-CONV-NOP-0" class=" edge-thickness-normal edge-pattern-solid flowchart-link LS-CONV LE-NOP" style="fill:none;" marker-end="url(#my-svg_flowchart-pointEnd)"/></g><g class="edgeLabels"><g class="edgeLabel"><g class="label" transform="translate(0, 0)"><rect rx="0" ry="0" width="0" height="0"/><text style=""><tspan xml:space="preserve" dy="1em" x="0" class="row"/></text></g></g><g class="edgeLabel"><g class="label" transform="translate(0, 0)"><rect rx="0" ry="0" width="0" height="0"/><text style=""><tspan xml:space="preserve" dy="1em" x="0" class="row"/></text></g></g><g class="edgeLabel"><g class="label" transform="translate(0, 0)"><rect rx="0" ry="0" width="0" height="0"/><text style=""><tspan xml:space="preserve" dy="1em" x="0" class="row"/></text></g></g><g class="edgeLabel"><g class="label" transform="translate(0, 0)"><rect rx="0" ry="0" width="0" height="0"/><text style=""><tspan xml:space="preserve" dy="1em" x="0" class="row"/></text></g></g><g class="edgeLabel"><g class="label" transform="translate(0, 0)"><rect rx="0" ry="0" width="0" height="0"/><text style=""><tspan xml:space="preserve" dy="1em" x="0" class="row"/></text></g></g><g class="edgeLabel"><g class="label" transform="translate(0, 0)"><rect rx="0" ry="0" width="0" height="0"/><text style=""><tspan xml:space="preserve" dy="1em" x="0" class="row"/></text></g></g><g class="edgeLabel"><g class="label" transform="translate(0, 0)"><rect rx="0" ry="0" width="0" height="0"/><text style=""><tspan xml:space="preserve" dy="1em" x="0" class="row"/></text></g></g><g class="edgeLabel"><g class="label" transform="translate(0, 0)"><rect rx="0" ry="0" width="0" height="0"/><text style=""><tspan xml:space="preserve" dy="1em" x="0" class="row"/></text></g></g><g class="edgeLabel"><g class="label" transform="translate(0, 0)"><rect rx="0" ry="0" width="0" height="0"/><text style=""><tspan xml:space="preserve" dy="1em" x="0" class="row"/></text></g></g><g class="edgeLabel"><g class="label" transform="translate(0, 0)"><rect rx="0" ry="0" width="0" height="0"/><text style=""><tspan xml:space="preserve" dy="1em" x="0" class="row"/></text></g></g><g class="edgeLabel"><g class="label" transform="translate(0, 0)"><rect rx="0" ry="0" width="0" height="0"/><text style=""><tspan xml:space="preserve" dy="1em" x="0" class="row"/></text></g></g><g class="edgeLabel"><g class="label" transform="translate(0, 0)"><rect rx="0" ry="0" width="0" height="0"/><text style=""><tspan xml:space="preserve" dy="1em" x="0" class="row"/></text></g></g><g class="edgeLabel"><g class="label" transform="translate(0, 0)"><rect rx="0" ry="0" width="0" height="0"/><text style=""><tspan xml:space="preserve" dy="1em" x="0" class="row"/></text></g></g><g class="edgeLabel"><g class="label" transform="translate(0, 0)"><rect rx="0" ry="0" width="0" height="0"/><text style=""><tspan xml:space="preserve" dy="1em" x="0" class="row"/></text></g></g><g class="edgeLabel"><g class="label" transform="translate(0, 0)"><rect rx="0" ry="0" width="0" height="0"/><text style=""><tspan xml:space="preserve" dy="1em" x="0" class="row"/></text></g></g><g class="edgeLabel"><g class="label" transform="translate(0, 0)"><rect rx="0" ry="0" width="0" height="0"/><text style=""><tspan xml:space="preserve" dy="1em" x="0" class="row"/></text></g></g><g class="edgeLabel"><g class="label" transform="translate(0, 0)"><rect rx="0" ry="0" width="0" height="0"/><text style=""><tspan xml:space="preserve" dy="1em" x="0" class="row"/></text></g></g><g class="edgeLabel"><g class="label" transform="translate(0, 0)"><rect rx="0" ry="0" width="0" height="0"/><text style=""><tspan xml:space="preserve" dy="1em" x="0" class="row"/></text></g></g><g class="edgeLabel"><g class="label" transform="translate(0, 0)"><rect rx="0" ry="0" width="0" height="0"/><text style=""><tspan xml:space="preserve" dy="1em" x="0" class="row"/></text></g></g><g class="edgeLabel"><g class="label" transform="translate(0, 0)"><rect rx="0" ry="0" width="0" height="0"/><text style=""><tspan xml:space="preserve" dy="1em" x="0" class="row"/></text></g></g></g><g class="nodes"><g class="node default default flowchart-label" id="flowchart-QBA-10" data-node="true" data-id="QBA" transform="translate(1377.625, 52.5)"><rect class="basic label-container" style="" rx="0" ry="0" x="-167.109375" y="-17.5" width="334.21875" height="35"/><g class="label" style="" transform="translate(0, -10)"><rect/><text style=""><tspan xml:space="preserve" dy="1em" x="0" class="row">download_client_adapters/qbittorrent.py</tspan></text></g></g><g class="node default default flowchart-label" id="flowchart-SABA-11" data-node="true" data-id="SABA" transform="translate(1377.625, 137.5)"><rect class="basic label-container" style="" rx="0" ry="0" x="-160.6171875" y="-17.5" width="321.234375" height="35"/><g class="label" style="" transform="translate(0, -10)"><rect/><text style=""><tspan xml:space="preserve" dy="1em" x="0" class="row">download_client_adapters/sabnzbd.py</tspan></text></g></g><g class="node default default flowchart-label" id="flowchart-MSA-12" data-node="true" data-id="MSA" transform="translate(1377.625, 222.5)"><rect class="basic label-container" style="" rx="0" ry="0" x="-141.5703125" y="-17.5" width="283.140625" height="35"/><g class="label" style="" transform="translate(0, -10)"><rect/><text style=""><tspan xml:space="preserve" dy="1em" x="0" class="row">media_server_adapters/jellyfin.py</tspan></text></g></g><g class="node default default flowchart-label" id="flowchart-SONA-13" data-node="true" data-id="SONA" transform="translate(1377.625, 307.5)"><rect class="basic label-container" style="" rx="0" ry="0" x="-130.5703125" y="-17.5" width="261.140625" height="35"/><g class="label" style="" transform="translate(0, -10)"><rect/><text style=""><tspan xml:space="preserve" dy="1em" x="0" class="row">servarr_technologies/sonarr.py</tspan></text></g></g><g class="node default default flowchart-label" id="flowchart-RADA-14" data-node="true" data-id="RADA" transform="translate(1377.625, 392.5)"><rect class="basic label-container" style="" rx="0" ry="0" x="-129.0625" y="-17.5" width="258.125" height="35"/><g class="label" style="" transform="translate(0, -10)"><rect/><text style=""><tspan xml:space="preserve" dy="1em" x="0" class="row">servarr_technologies/radarr.py</tspan></text></g></g><g class="node default default flowchart-label" id="flowchart-LIDA-15" data-node="true" data-id="LIDA" transform="translate(1377.625, 477.5)"><rect class="basic label-container" style="" rx="0" ry="0" x="-125.0625" y="-17.5" width="250.125" height="35"/><g class="label" style="" transform="translate(0, -10)"><rect/><text style=""><tspan xml:space="preserve" dy="1em" x="0" class="row">servarr_technologies/lidarr.py</tspan></text></g></g><g class="node default default flowchart-label" id="flowchart-READA-16" data-node="true" data-id="READA" transform="translate(1377.625, 562.5)"><rect class="basic label-container" style="" rx="0" ry="0" x="-134.0703125" y="-17.5" width="268.140625" height="35"/><g class="label" style="" transform="translate(0, -10)"><rect/><text style=""><tspan xml:space="preserve" dy="1em" x="0" class="row">servarr_technologies/readarr.py</tspan></text></g></g><g class="node default default flowchart-label" id="flowchart-TOR-6" data-node="true" data-id="TOR" transform="translate(720.8515625, 180)"><rect class="basic label-container" style="" rx="0" ry="0" x="-59.53125" y="-17.5" width="119.0625" height="35"/><g class="label" style="" transform="translate(0, -10)"><rect/><text style=""><tspan xml:space="preserve" dy="1em" x="0" class="row">torrent_client</tspan></text></g></g><g class="node default default flowchart-label" id="flowchart-USE-7" data-node="true" data-id="USE" transform="translate(720.8515625, 265)"><rect class="basic label-container" style="" rx="0" ry="0" x="-60.5390625" y="-17.5" width="121.078125" height="35"/><g class="label" style="" transform="translate(0, -10)"><rect/><text style=""><tspan xml:space="preserve" dy="1em" x="0" class="row">usenet_client</tspan></text></g></g><g class="node default default flowchart-label" id="flowchart-MED-8" data-node="true" data-id="MED" transform="translate(720.8515625, 350)"><rect class="basic label-container" style="" rx="0" ry="0" x="-62.02587890625" y="-17.5" width="124.0517578125" height="35"/><g class="label" style="" transform="translate(0, -10)"><rect/><text style=""><tspan xml:space="preserve" dy="1em" x="0" class="row">media_server</tspan></text></g></g><g class="node default default flowchart-label" id="flowchart-ARR-9" data-node="true" data-id="ARR" transform="translate(720.8515625, 435)"><rect class="basic label-container" style="" rx="0" ry="0" x="-106.5546875" y="-17.5" width="213.109375" height="35"/><g class="label" style="" transform="translate(0, -10)"><rect/><text style=""><tspan xml:space="preserve" dy="1em" x="0" class="row">arr_apps implementation</tspan></text></g></g><g class="node default default flowchart-label" id="flowchart-CFG-0" data-node="true" data-id="CFG" transform="translate(155.078125, 392.5)"><rect class="basic label-container" style="fill:#eef7ff;stroke:#1f4f99;stroke-width:2px;" rx="0" ry="0" x="-155.078125" y="-17.5" width="310.15625" height="35"/><g class="label" style="" transform="translate(0, -10)"><rect/><text style=""><tspan xml:space="preserve" dy="1em" x="0" class="row">bootstrap/media-stack.bootstrap.json</tspan></text></g></g><g class="node default default flowchart-label" id="flowchart-BIND-1" data-node="true" data-id="BIND" transform="translate(449.7265625, 297.5)"><rect class="basic label-container" style="" rx="0" ry="0" x="-89.5703125" y="-17.5" width="179.140625" height="35"/><g class="label" style="" transform="translate(0, -10)"><rect/><text style=""><tspan xml:space="preserve" dy="1em" x="0" class="row">technology_bindings</tspan></text></g></g><g class="node default default flowchart-label" id="flowchart-HOOKS-2" data-node="true" data-id="HOOKS" transform="translate(720.8515625, 540)"><rect class="basic label-container" style="" rx="0" ry="0" x="-67.046875" y="-17.5" width="134.09375" height="35"/><g class="label" style="" transform="translate(0, -10)"><rect/><text style=""><tspan xml:space="preserve" dy="1em" x="0" class="row">adapter_hooks</tspan></text></g></g><g class="node default default flowchart-label" id="flowchart-FACT-3" data-node="true" data-id="FACT" transform="translate(1018.9609375, 350)"><rect class="basic label-container" style="fill:#fff7e8;stroke:#9a6b00;stroke-width:2px;" rx="0" ry="0" x="-116.5546875" y="-17.5" width="233.109375" height="35"/><g class="label" style="" transform="translate(0, -10)"><rect/><text style=""><tspan xml:space="preserve" dy="1em" x="0" class="row">Adapter Resolution Factory</tspan></text></g></g><g class="node default default flowchart-label" id="flowchart-CONV-4" data-node="true" data-id="CONV" transform="translate(1377.625, 667.5)"><rect class="basic label-container" style="" rx="0" ry="0" x="-131.0546875" y="-17.5" width="262.109375" height="35"/><g class="label" style="" transform="translate(0, -10)"><rect/><text style=""><tspan xml:space="preserve" dy="1em" x="0" class="row">Convention Fallback Discovery</tspan></text></g></g><g class="node default default flowchart-label" id="flowchart-NOP-5" data-node="true" data-id="NOP" transform="translate(1719.28955078125, 667.5)"><rect class="basic label-container" style="fill:#ffecec;stroke:#ad1f2f;stroke-width:2px;" rx="0" ry="0" x="-99.55517578125" y="-17.5" width="199.1103515625" height="35"/><g class="label" style="" transform="translate(0, -10)"><rect/><text style=""><tspan xml:space="preserve" dy="1em" x="0" class="row">Generic No-op Adapter</tspan></text></g></g></g></g></g></svg>