<svg id="my-svg" width="100%" xmlns="http://www.w3.org/2000/svg" xmlns:xlink="http://www.w3.org/1999/xlink" style="max-width: 1669.09px; background-color: white;" viewBox="-8 -8 1669.09375 1508.5" role="graphics-document document" aria-roledescription="flowchart-v2"><style>#my-svg{font-family:"trebuchet ms",verdana,arial,sans-serif;font-size:18px;fill:#000000;}#my-svg .error-icon{fill:#552222;}#my-svg .error-text{fill:#552222;stroke:#552222;}#my-svg .edge-thickness-normal{stroke-width:2px;}#my-svg .edge-thickness-thick{stroke-width:3.5px;}#my-svg .edge-pattern-solid{stroke-dasharray:0;}#my-svg .edge-pattern-dashed{stroke-dasharray:3;}#my-svg .edge-pattern-dotted{stroke-dasharray:2;}#my-svg .marker{fill:#1f2937;stroke:#1f2937;}#my-svg .marker.cross{stroke:#1f2937;}#my-svg svg{font-family:"trebuchet ms",verdana,arial,sans-serif;font-size:18px;}#my-svg .label{font-family:"trebuchet ms",verdana,arial,sans-serif;color:#000000;}#my-svg .cluster-label text{fill:#333;}#my-svg .cluster-label span,#my-svg p{color:#333;}#my-svg .label text,#my-svg span,#my-svg p{fill:#000000;color:#000000;}#my-svg .node rect,#my-svg .node circle,#my-svg .node ellipse,#my-svg .node polygon,#my-svg .node path{fill:#eee;stroke:#999;stroke-width:1px;}#my-svg .flowchart-label text{text-anchor:middle;}#my-svg .node .katex path{fill:#000;stroke:#000;stroke-width:1px;}#my-svg .node .label{text-align:center;}#my-svg .node.clickable{cursor:pointer;}#my-svg .arrowheadPath{fill:#333333;}#my-svg .edgePath .path{stroke:#1f2937;stroke-width:2.0px;}#my-svg .flowchart-link{stroke:#1f2937;fill:none;}#my-svg .edgeLabel{background-color:white;text-align:center;}#my-svg .edgeLabel rect{opacity:0.5;background-color:white;fill:white;}#my-svg .labelBkg{background-color:rgba(255, 255, 255, 0.5);}#my-svg .cluster rect{fill:#f8fafc;stroke:#334155;stroke-width:1px;}#my-svg .cluster text{fill:#333;}#my-svg .cluster span,#my-svg p{color:#333;}#my-svg div.mermaidTooltip{position:absolute;text-align:center;max-width:200px;padding:2px;font-family:"trebuchet ms",verdana,arial,sans-serif;font-size:12px;background:#fef9c3;border:1px solid #707070;border-radius:2px;pointer-events:none;z-index:100;}#my-svg .flowchartTitleText{text-anchor:middle;font-size:18px;fill:#000000;}#my-svg :root{--mermaid-font-family:"trebuchet ms",verdana,arial,sans-serif;}</style><g><marker id="my-svg_flowchart-pointEnd" class="marker flowchart" viewBox="0 0 10 10" refX="6" refY="5" markerUnits="userSpaceOnUse" markerWidth="12" markerHeight="12" orient="auto"><path d="M 0 0 L 10 5 L 0 10 z" class="arrowMarkerPath" style="stroke-width: 1; stroke-dasharray: 1, 0;"/></marker><marker id="my-svg_flowchart-pointStart" class="marker flowchart" viewBox="0 0 10 10" refX="4.5" refY="5" markerUnits="userSpaceOnUse" markerWidth="12" markerHeight="12" orient="auto"><path d="M 0 5 L 10 10 L 10 0 z" class="arrowMarkerPath" style="stroke-width: 1; stroke-dasharray: 1, 0;"/></marker><marker id="my-svg_flowchart-circleEnd" class="marker flowchart" viewBox="0 0 10 10" refX="11" refY="5" markerUnits="userSpaceOnUse" markerWidth="11" markerHeight="11" orient="auto"><circle cx="5" cy="5" r="5" class="arrowMarkerPath" style="stroke-width: 1; stroke-dasharray: 1, 0;"/></marker><marker id="my-svg_flowchart-circleStart" class="marker flowchart" viewBox="0 0 10 10" refX="-1" refY="5" markerUnits="userSpaceOnUse" markerWidth="11" markerHeight="11" orient="auto"><circle cx="5" cy="5" r="5" class="arrowMarkerPath" style="stroke-width: 1; stroke-dasharray: 1, 0;"/></marker><marker id="my-svg_flowchart-crossEnd" class="marker cross flowchart" viewBox="0 0 11 11" refX="12" refY="5.2" markerUnits="userSpaceOnUse" markerWidth="11" markerHeight="11" orient="auto"><path d="M 1,1 l 9,9 M 10,1 l -9,9" class="arrowMarkerPath" style="stroke-width: 2; stroke-dasharray: 1, 0;"/></marker><marker id="my-svg_flowchart-crossStart" class="marker cross flowchart" viewBox="0 0 11 11" refX="-1" refY="5.2" markerUnits="userSpaceOnUse" markerWidth="11" markerHeight="11" orient="auto"><path d="M 1,1 l 9,9 M 10,1 l -9,9" class="arrowMarkerPath" style="stroke-width: 2; stroke-dasharray: 1, 0;"/></marker><g class="root"><g class="clusters"><g class="cluster default flowchart-label" id="Impl"><rect style="" rx="0" ry="0" x="1287.921875" y="1132.5" width="365.171875" height="360"/><g class="cluster-label" transform="translate(1470.5078125, 1132.5)"><text style=""><tspan xml:space="preserve" dy="1em" x="0" class="row">Concrete Modules</tspan></text></g></g><g class="cluster default flowchart-label" id="Contracts"><rect style="" rx="0" ry="0" x="935.28125" y="0" width="302.640625" height="530"/><g class="cluster-label" transform="translate(1086.6015625, 0)"><text style=""><tspan xml:space="preserve" dy="1em" x="0" class="row">Per-Service YAML Plugin Keys</tspan></text></g></g><g class="cluster default flowchart-label" id="Roles"><rect style="" rx="0" ry="0" x="1287.921875" y="497.5" width="365.171875" height="530"/><g class="cluster-label" transform="translate(1470.5078125, 497.5)"><text style=""><tspan xml:space="preserve" dy="1em" x="0" class="row">Active Runtime Roles</tspan></text></g></g></g><g class="edgePaths"><path d="M214.063,392.5L218.229,392.5C222.396,392.5,230.729,392.5,243.424,392.5C256.119,392.5,273.175,392.5,281.703,392.5L290.231,392.5" id="L-SVC-LOAD-0" class=" edge-thickness-normal edge-pattern-solid flowchart-link LS-SVC LE-LOAD" style="fill:none;" marker-end="url(#my-svg_flowchart-pointEnd)"/><path d="M519.688,392.5L529.099,392.5C538.51,392.5,557.333,392.5,571.11,392.5C584.887,392.5,593.618,392.5,597.983,392.5L602.348,392.5" id="L-LOAD-DEF-0" class=" edge-thickness-normal edge-pattern-solid flowchart-link LS-LOAD LE-DEF" style="fill:none;" marker-end="url(#my-svg_flowchart-pointEnd)"/><path d="M551.156,1223.75L555.323,1223.75C559.49,1223.75,567.823,1223.75,584.022,1223.75C600.22,1223.75,624.284,1223.75,636.316,1223.75L648.348,1223.75" id="L-PROF-BIND-0" class=" edge-thickness-normal edge-pattern-solid flowchart-link LS-PROF LE-BIND" style="fill:none;" marker-end="url(#my-svg_flowchart-pointEnd)"/><path d="M763.175,1206.25L787.693,1184.75C812.21,1163.25,861.246,1120.25,889.93,1098.75C918.615,1077.25,926.948,1077.25,954.284,1035.564C981.621,993.878,1027.96,910.505,1051.13,868.819L1074.3,827.133" id="L-BIND-RES-0" class=" edge-thickness-normal edge-pattern-solid flowchart-link LS-BIND LE-RES" style="fill:none;" marker-end="url(#my-svg_flowchart-pointEnd)"/><path d="M885.281,1450L889.448,1450C893.615,1450,901.948,1450,910.281,1450C918.615,1450,926.948,1450,939.945,1449.416C952.943,1448.833,970.605,1447.666,979.435,1447.082L988.266,1446.498" id="L-K8S-OPREG-0" class=" edge-thickness-normal edge-pattern-solid flowchart-link LS-K8S LE-OPREG" style="fill:none;" marker-end="url(#my-svg_flowchart-pointEnd)"/><path d="M756.24,366L781.913,313.75C807.587,261.5,858.934,157,888.774,104.75C918.615,52.5,926.948,52.5,943.277,52.5C959.606,52.5,983.93,52.5,996.092,52.5L1008.255,52.5" id="L-DEF-C1-0" class=" edge-thickness-normal edge-pattern-solid flowchart-link LS-DEF LE-C1" style="fill:none;" marker-end="url(#my-svg_flowchart-pointEnd)"/><path d="M760.58,366L785.53,327.917C810.481,289.833,860.381,213.667,889.498,175.583C918.615,137.5,926.948,137.5,940.277,137.5C953.606,137.5,971.93,137.5,981.092,137.5L990.255,137.5" id="L-DEF-C2-0" class=" edge-thickness-normal edge-pattern-solid flowchart-link LS-DEF LE-C2" style="fill:none;" marker-end="url(#my-svg_flowchart-pointEnd)"/><path d="M769.261,366L792.764,342.083C816.268,318.167,863.274,270.333,890.945,246.417C918.615,222.5,926.948,222.5,937.608,222.5C948.267,222.5,961.253,222.5,967.746,222.5L974.239,222.5" id="L-DEF-C3-0" class=" edge-thickness-normal edge-pattern-solid flowchart-link LS-DEF LE-C3" style="fill:none;" marker-end="url(#my-svg_flowchart-pointEnd)"/><path d="M795.303,366L814.466,356.25C833.629,346.5,871.955,327,895.285,317.25C918.615,307.5,926.948,307.5,943.943,307.5C960.939,307.5,986.597,307.5,999.426,307.5L1012.255,307.5" id="L-DEF-C4-0" class=" edge-thickness-normal edge-pattern-solid flowchart-link LS-DEF LE-C4" style="fill:none;" marker-end="url(#my-svg_flowchart-pointEnd)"/><path d="M878.789,392.5L884.038,392.5C889.286,392.5,899.784,392.5,909.199,392.5C918.615,392.5,926.948,392.5,934.398,392.5C941.848,392.5,948.415,392.5,951.698,392.5L954.981,392.5" id="L-DEF-C5-0" class=" edge-thickness-normal edge-pattern-solid flowchart-link LS-DEF LE-C5" style="fill:none;" marker-end="url(#my-svg_flowchart-pointEnd)"/><path d="M795.303,419L814.466,428.75C833.629,438.5,871.955,458,895.285,467.75C918.615,477.5,926.948,477.5,943.026,477.5C959.103,477.5,982.925,477.5,994.836,477.5L1006.747,477.5" id="L-DEF-C6-0" class=" edge-thickness-normal edge-pattern-solid flowchart-link LS-DEF LE-C6" style="fill:none;" marker-end="url(#my-svg_flowchart-pointEnd)"/><path d="M768.699,419L792.296,443.542C815.893,468.083,863.087,517.167,890.851,541.708C918.615,566.25,926.948,566.25,954.013,602.379C981.078,638.508,1026.876,710.766,1049.774,746.895L1072.673,783.023" id="L-DEF-RES-0" class=" edge-thickness-normal edge-pattern-solid flowchart-link LS-DEF LE-RES" style="fill:none;" marker-end="url(#my-svg_flowchart-pointEnd)"/><path d="M1096.986,787.5L1120.476,747.917C1143.965,708.333,1190.943,629.167,1218.599,589.583C1246.255,550,1254.589,550,1262.922,550C1271.255,550,1279.589,550,1303.381,550C1327.173,550,1366.425,550,1386.051,550L1405.677,550" id="L-RES-TOR-0" class=" edge-thickness-normal edge-pattern-solid flowchart-link LS-RES LE-TOR" style="fill:none;" marker-end="url(#my-svg_flowchart-pointEnd)"/><path d="M1102.179,787.5L1124.803,762.083C1147.426,736.667,1192.674,685.833,1219.465,660.417C1246.255,635,1254.589,635,1262.922,635C1271.255,635,1279.589,635,1303.213,635C1326.837,635,1365.753,635,1385.211,635L1404.669,635" id="L-RES-USE-0" class=" edge-thickness-normal edge-pattern-solid flowchart-link LS-RES LE-USE" style="fill:none;" marker-end="url(#my-svg_flowchart-pointEnd)"/><path d="M1117.756,787.5L1137.783,776.25C1157.811,765,1197.866,742.5,1222.061,731.25C1246.255,720,1254.589,720,1262.922,720C1271.255,720,1279.589,720,1302.965,720C1326.342,720,1364.762,720,1383.972,720L1403.182,720" id="L-RES-MED-0" class=" edge-thickness-normal edge-pattern-solid flowchart-link LS-RES LE-MED" style="fill:none;" marker-end="url(#my-svg_flowchart-pointEnd)"/><path d="M1193.156,805L1200.617,805C1208.078,805,1223,805,1234.628,805C1246.255,805,1254.589,805,1262.922,805C1271.255,805,1279.589,805,1300.295,805C1321.001,805,1354.08,805,1370.62,805L1387.159,805" id="L-RES-RQM-0" class=" edge-thickness-normal edge-pattern-solid flowchart-link LS-RES LE-RQM" style="fill:none;" marker-end="url(#my-svg_flowchart-pointEnd)"/><path d="M1117.756,822.5L1137.783,833.75C1157.811,845,1197.866,867.5,1222.061,878.75C1246.255,890,1254.589,890,1262.922,890C1271.255,890,1279.589,890,1300.378,890C1321.168,890,1354.414,890,1371.037,890L1387.66,890" id="L-RES-IDX-0" class=" edge-thickness-normal edge-pattern-solid flowchart-link LS-RES LE-IDX" style="fill:none;" marker-end="url(#my-svg_flowchart-pointEnd)"/><path d="M1102.179,822.5L1124.803,847.917C1147.426,873.333,1192.674,924.167,1219.465,949.583C1246.255,975,1254.589,975,1262.922,975C1271.255,975,1279.589,975,1298.881,975C1318.173,975,1348.425,975,1363.551,975L1378.677,975" id="L-RES-ARR-0" class=" edge-thickness-normal edge-pattern-solid flowchart-link LS-RES LE-ARR" style="fill:none;" marker-end="url(#my-svg_flowchart-pointEnd)"/><path d="M1096.231,822.5L1119.846,865.417C1143.461,908.333,1190.692,994.167,1218.473,1037.083C1246.255,1080,1254.589,1080,1262.922,1080C1271.255,1080,1279.589,1080,1299.964,1080C1320.34,1080,1352.758,1080,1368.967,1080L1385.177,1080" id="L-RES-RT-0" class=" edge-thickness-normal edge-pattern-solid flowchart-link LS-RES LE-RT" style="fill:none;" marker-end="url(#my-svg_flowchart-pointEnd)"/><path d="M748.376,419L775.36,557.667C802.344,696.333,856.313,973.667,887.464,1112.333C918.615,1251,926.948,1251,941.887,1251C956.827,1251,978.373,1251,989.146,1251L999.919,1251" id="L-DEF-AF-0" class=" edge-thickness-normal edge-pattern-solid flowchart-link LS-DEF LE-AF" style="fill:none;" marker-end="url(#my-svg_flowchart-pointEnd)"/><path d="M1147.359,1224.5L1162.453,1217.917C1177.547,1211.333,1207.734,1198.167,1226.995,1191.583C1246.255,1185,1254.589,1185,1262.922,1185C1271.255,1185,1279.589,1185,1293.622,1185C1307.655,1185,1327.389,1185,1337.255,1185L1347.122,1185" id="L-AF-TCA-0" class=" edge-thickness-normal edge-pattern-solid flowchart-link LS-AF LE-TCA" style="fill:none;" marker-end="url(#my-svg_flowchart-pointEnd)"/><path d="M1167.984,1261.219L1179.641,1262.682C1191.297,1264.146,1214.609,1267.073,1230.432,1268.536C1246.255,1270,1254.589,1270,1262.922,1270C1271.255,1270,1279.589,1270,1295.292,1270C1310.996,1270,1334.071,1270,1345.608,1270L1357.145,1270" id="L-AF-MSA-0" class=" edge-thickness-normal edge-pattern-solid flowchart-link LS-AF LE-MSA" style="fill:none;" marker-end="url(#my-svg_flowchart-pointEnd)"/><path d="M1125.159,1277.5L1143.953,1290.417C1162.747,1303.333,1200.334,1329.167,1223.295,1342.083C1246.255,1355,1254.589,1355,1262.922,1355C1271.255,1355,1279.589,1355,1293.876,1355C1308.163,1355,1328.404,1355,1338.525,1355L1348.645,1355" id="L-AF-SVA-0" class=" edge-thickness-normal edge-pattern-solid flowchart-link LS-AF LE-SVA" style="fill:none;" marker-end="url(#my-svg_flowchart-pointEnd)"/><path d="M747.771,419L774.856,576.667C801.941,734.333,856.111,1049.667,887.363,1207.333C918.615,1365,926.948,1365,949.659,1374.191C972.369,1383.382,1009.457,1401.764,1028.001,1410.955L1046.545,1420.146" id="L-DEF-OPREG-0" class=" edge-thickness-normal edge-pattern-solid flowchart-link LS-DEF LE-OPREG" style="fill:none;" marker-end="url(#my-svg_flowchart-pointEnd)"/><path d="M1179.648,1440L1189.361,1440C1199.073,1440,1218.497,1440,1232.376,1440C1246.255,1440,1254.589,1440,1262.922,1440C1271.255,1440,1279.589,1440,1287.039,1440C1294.489,1440,1301.055,1440,1304.339,1440L1307.622,1440" id="L-OPREG-APS-0" class=" edge-thickness-normal edge-pattern-solid flowchart-link LS-OPREG LE-APS" style="fill:none;" marker-end="url(#my-svg_flowchart-pointEnd)"/></g><g class="edgeLabels"><g class="edgeLabel"><g class="label" transform="translate(0, 0)"><rect rx="0" ry="0" width="0" height="0"/><text style=""><tspan xml:space="preserve" dy="1em" x="0" class="row"/></text></g></g><g class="edgeLabel"><g class="label" transform="translate(0, 0)"><rect rx="0" ry="0" width="0" height="0"/><text style=""><tspan xml:space="preserve" dy="1em" x="0" class="row"/></text></g></g><g class="edgeLabel"><g class="label" transform="translate(0, 0)"><rect rx="0" ry="0" width="0" height="0"/><text style=""><tspan xml:space="preserve" dy="1em" x="0" class="row"/></text></g></g><g class="edgeLabel"><g class="label" transform="translate(0, 0)"><rect rx="0" ry="0" width="0" height="0"/><text style=""><tspan xml:space="preserve" dy="1em" x="0" class="row"/></text></g></g><g class="edgeLabel"><g class="label" transform="translate(0, 0)"><rect rx="0" ry="0" width="0" height="0"/><text style=""><tspan xml:space="preserve" dy="1em" x="0" class="row"/></text></g></g><g class="edgeLabel"><g class="label" transform="translate(0, 0)"><rect rx="0" ry="0" width="0" height="0"/><text style=""><tspan xml:space="preserve" dy="1em" x="0" class="row"/></text></g></g><g class="edgeLabel"><g class="label" transform="translate(0, 0)"><rect rx="0" ry="0" width="0" height="0"/><text style=""><tspan xml:space="preserve" dy="1em" x="0" class="row"/></text></g></g><g class="edgeLabel"><g class="label" transform="translate(0, 0)"><rect rx="0" ry="0" width="0" height="0"/><text style=""><tspan xml:space="preserve" dy="1em" x="0" class="row"/></text></g></g><g class="edgeLabel"><g class="label" transform="translate(0, 0)"><rect rx="0" ry="0" width="0" height="0"/><text style=""><tspan xml:space="preserve" dy="1em" x="0" class="row"/></text></g></g><g class="edgeLabel"><g class="label" transform="translate(0, 0)"><rect rx="0" ry="0" width="0" height="0"/><text style=""><tspan xml:space="preserve" dy="1em" x="0" class="row"/></text></g></g><g class="edgeLabel"><g class="label" transform="translate(0, 0)"><rect rx="0" ry="0" width="0" height="0"/><text style=""><tspan xml:space="preserve" dy="1em" x="0" class="row"/></text></g></g><g class="edgeLabel"><g class="label" transform="translate(0, 0)"><rect rx="0" ry="0" width="0" height="0"/><text style=""><tspan xml:space="preserve" dy="1em" x="0" class="row"/></text></g></g><g class="edgeLabel"><g class="label" transform="translate(0, 0)"><rect rx="0" ry="0" width="0" height="0"/><text style=""><tspan xml:space="preserve" dy="1em" x="0" class="row"/></text></g></g><g class="edgeLabel"><g class="label" transform="translate(0, 0)"><rect rx="0" ry="0" width="0" height="0"/><text style=""><tspan xml:space="preserve" dy="1em" x="0" class="row"/></text></g></g><g class="edgeLabel"><g class="label" transform="translate(0, 0)"><rect rx="0" ry="0" width="0" height="0"/><text style=""><tspan xml:space="preserve" dy="1em" x="0" class="row"/></text></g></g><g class="edgeLabel"><g class="label" transform="translate(0, 0)"><rect rx="0" ry="0" width="0" height="0"/><text style=""><tspan xml:space="preserve" dy="1em" x="0" class="row"/></text></g></g><g class="edgeLabel"><g class="label" transform="translate(0, 0)"><rect rx="0" ry="0" width="0" height="0"/><text style=""><tspan xml:space="preserve" dy="1em" x="0" class="row"/></text></g></g><g class="edgeLabel"><g class="label" transform="translate(0, 0)"><rect rx="0" ry="0" width="0" height="0"/><text style=""><tspan xml:space="preserve" dy="1em" x="0" class="row"/></text></g></g><g class="edgeLabel"><g class="label" transform="translate(0, 0)"><rect rx="0" ry="0" width="0" height="0"/><text style=""><tspan xml:space="preserve" dy="1em" x="0" class="row"/></text></g></g><g class="edgeLabel"><g class="label" transform="translate(0, 0)"><rect rx="0" ry="0" width="0" height="0"/><text style=""><tspan xml:space="preserve" dy="1em" x="0" class="row"/></text></g></g><g class="edgeLabel"><g class="label" transform="translate(0, 0)"><rect rx="0" ry="0" width="0" height="0"/><text style=""><tspan xml:space="preserve" dy="1em" x="0" class="row"/></text></g></g><g class="edgeLabel"><g class="label" transform="translate(0, 0)"><rect rx="0" ry="0" width="0" height="0"/><text style=""><tspan xml:space="preserve" dy="1em" x="0" class="row"/></text></g></g><g class="edgeLabel"><g class="label" transform="translate(0, 0)"><rect rx="0" ry="0" width="0" height="0"/><text style=""><tspan xml:space="preserve" dy="1em" x="0" class="row"/></text></g></g><g class="edgeLabel"><g class="label" transform="translate(0, 0)"><rect rx="0" ry="0" width="0" height="0"/><text style=""><tspan xml:space="preserve" dy="1em" x="0" class="row"/></text></g></g><g class="edgeLabel"><g class="label" transform="translate(0, 0)"><rect rx="0" ry="0" width="0" height="0"/><text style=""><tspan xml:space="preserve" dy="1em" x="0" class="row"/></text></g></g></g><g class="nodes"><g class="node default default flowchart-label" id="flowchart-TCA-22" data-node="true" data-id="TCA" transform="translate(1470.5078125, 1185)"><rect class="basic label-container" style="" rx="0" ry="0" x="-118.0859375" y="-17.5" width="236.171875" height="35"/><g class="label" style="" transform="translate(0, -10)"><rect/><text style=""><tspan xml:space="preserve" dy="1em" x="0" class="row">download_client_adapters/*</tspan></text></g></g><g class="node default default flowchart-label" id="flowchart-MSA-23" data-node="true" data-id="MSA" transform="translate(1470.5078125, 1270)"><rect class="basic label-container" style="" rx="0" ry="0" x="-108.0625" y="-17.5" width="216.125" height="35"/><g class="label" style="" transform="translate(0, -10)"><rect/><text style=""><tspan xml:space="preserve" dy="1em" x="0" class="row">media_server_adapters/*</tspan></text></g></g><g class="node default default flowchart-label" id="flowchart-SVA-24" data-node="true" data-id="SVA" transform="translate(1470.5078125, 1355)"><rect class="basic label-container" style="" rx="0" ry="0" x="-116.5625" y="-17.5" width="233.125" height="35"/><g class="label" style="" transform="translate(0, -10)"><rect/><text style=""><tspan xml:space="preserve" dy="1em" x="0" class="row">apps/servarr/technologies/*</tspan></text></g></g><g class="node default default flowchart-label" id="flowchart-APS-25" data-node="true" data-id="APS" transform="translate(1470.5078125, 1440)"><rect class="basic label-container" style="" rx="0" ry="0" x="-157.5859375" y="-17.5" width="315.171875" height="35"/><g class="label" style="" transform="translate(0, -10)"><rect/><text style=""><tspan xml:space="preserve" dy="1em" x="0" class="row">apps/*/service.py and runtime_ops.py</tspan></text></g></g><g class="node default default flowchart-label" id="flowchart-C1-16" data-node="true" data-id="C1" transform="translate(1086.6015625, 52.5)"><rect class="basic label-container" style="" rx="0" ry="0" x="-73.046875" y="-17.5" width="146.09375" height="35"/><g class="label" style="" transform="translate(0, -10)"><rect/><text style=""><tspan xml:space="preserve" dy="1em" x="0" class="row">adapter_classes</tspan></text></g></g><g class="node default default flowchart-label" id="flowchart-C2-17" data-node="true" data-id="C2" transform="translate(1086.6015625, 137.5)"><rect class="basic label-container" style="" rx="0" ry="0" x="-91.046875" y="-17.5" width="182.09375" height="35"/><g class="label" style="" transform="translate(0, -10)"><rect/><text style=""><tspan xml:space="preserve" dy="1em" x="0" class="row">app_service_classes</tspan></text></g></g><g class="node default default flowchart-label" id="flowchart-C3-18" data-node="true" data-id="C3" transform="translate(1086.6015625, 222.5)"><rect class="basic label-container" style="" rx="0" ry="0" x="-107.0625" y="-17.5" width="214.125" height="35"/><g class="label" style="" transform="translate(0, -10)"><rect/><text style=""><tspan xml:space="preserve" dy="1em" x="0" class="row">service_technology_map</tspan></text></g></g><g class="node default default flowchart-label" id="flowchart-C4-19" data-node="true" data-id="C4" transform="translate(1086.6015625, 307.5)"><rect class="basic label-container" style="" rx="0" ry="0" x="-69.046875" y="-17.5" width="138.09375" height="35"/><g class="label" style="" transform="translate(0, -10)"><rect/><text style=""><tspan xml:space="preserve" dy="1em" x="0" class="row">event_handlers</tspan></text></g></g><g class="node default default flowchart-label" id="flowchart-C5-20" data-node="true" data-id="C5" transform="translate(1086.6015625, 392.5)"><rect class="basic label-container" style="" rx="0" ry="0" x="-126.3203125" y="-17.5" width="252.640625" height="35"/><g class="label" style="" transform="translate(0, -10)"><rect/><text style=""><tspan xml:space="preserve" dy="1em" x="0" class="row">phase_scripts + call_handlers</tspan></text></g></g><g class="node default default flowchart-label" id="flowchart-C6-21" data-node="true" data-id="C6" transform="translate(1086.6015625, 477.5)"><rect class="basic label-container" style="" rx="0" ry="0" x="-74.5546875" y="-17.5" width="149.109375" height="35"/><g class="label" style="" transform="translate(0, -10)"><rect/><text style=""><tspan xml:space="preserve" dy="1em" x="0" class="row">preflight_handler</tspan></text></g></g><g class="node default default flowchart-label" id="flowchart-TOR-10" data-node="true" data-id="TOR" transform="translate(1470.5078125, 550)"><rect class="basic label-container" style="" rx="0" ry="0" x="-59.53125" y="-17.5" width="119.0625" height="35"/><g class="label" style="" transform="translate(0, -10)"><rect/><text style=""><tspan xml:space="preserve" dy="1em" x="0" class="row">torrent_client</tspan></text></g></g><g class="node default default flowchart-label" id="flowchart-USE-11" data-node="true" data-id="USE" transform="translate(1470.5078125, 635)"><rect class="basic label-container" style="" rx="0" ry="0" x="-60.5390625" y="-17.5" width="121.078125" height="35"/><g class="label" style="" transform="translate(0, -10)"><rect/><text style=""><tspan xml:space="preserve" dy="1em" x="0" class="row">usenet_client</tspan></text></g></g><g class="node default default flowchart-label" id="flowchart-MED-12" data-node="true" data-id="MED" transform="translate(1470.5078125, 720)"><rect class="basic label-container" style="" rx="0" ry="0" x="-62.02587890625" y="-17.5" width="124.0517578125" height="35"/><g class="label" style="" transform="translate(0, -10)"><rect/><text style=""><tspan xml:space="preserve" dy="1em" x="0" class="row">media_server</tspan></text></g></g><g class="node default default flowchart-label" id="flowchart-RQM-13" data-node="true" data-id="RQM" transform="translate(1470.5078125, 805)"><rect class="basic label-container" style="" rx="0" ry="0" x="-78.04833984375" y="-17.5" width="156.0966796875" height="35"/><g class="label" style="" transform="translate(0, -10)"><rect/><text style=""><tspan xml:space="preserve" dy="1em" x="0" class="row">request_manager</tspan></text></g></g><g class="node default default flowchart-label" id="flowchart-IDX-14" data-node="true" data-id="IDX" transform="translate(1470.5078125, 890)"><rect class="basic label-container" style="" rx="0" ry="0" x="-77.54736328125" y="-17.5" width="155.0947265625" height="35"/><g class="label" style="" transform="translate(0, -10)"><rect/><text style=""><tspan xml:space="preserve" dy="1em" x="0" class="row">indexer_manager</tspan></text></g></g><g class="node default default flowchart-label" id="flowchart-ARR-15" data-node="true" data-id="ARR" transform="translate(1470.5078125, 975)"><rect class="basic label-container" style="" rx="0" ry="0" x="-86.53125" y="-17.5" width="173.0625" height="35"/><g class="label" style="" transform="translate(0, -10)"><rect/><text style=""><tspan xml:space="preserve" dy="1em" x="0" class="row">arr implementations</tspan></text></g></g><g class="node default default flowchart-label" id="flowchart-SVC-0" data-node="true" data-id="SVC" transform="translate(107.03125, 392.5)"><rect class="basic label-container" style="fill:#eef7ff;stroke:#1f4f99;stroke-width:2px;" rx="0" ry="0" x="-107.03125" y="-26.5" width="214.0625" height="53"/><g class="label" style="" transform="translate(0, -19)"><rect/><text style=""><tspan xml:space="preserve" dy="1em" x="0" class="row">contracts/services/*.yaml</tspan><tspan xml:space="preserve" dy="1em" x="0" class="row">per-service definitions</tspan></text></g></g><g class="node default default flowchart-label" id="flowchart-PROF-1" data-node="true" data-id="PROF" transform="translate(407.609375, 1223.75)"><rect class="basic label-container" style="fill:#f4f7ea;stroke:#507a18;stroke-width:2px;" rx="0" ry="0" x="-143.546875" y="-17.5" width="287.09375" height="35"/><g class="label" style="" transform="translate(0, -10)"><rect/><text style=""><tspan xml:space="preserve" dy="1em" x="0" class="row">contracts/media-stack.profile.yaml</tspan></text></g></g><g class="node default default flowchart-label" id="flowchart-BIND-2" data-node="true" data-id="BIND" transform="translate(743.21875, 1223.75)"><rect class="basic label-container" style="" rx="0" ry="0" x="-89.5703125" y="-17.5" width="179.140625" height="35"/><g class="label" style="" transform="translate(0, -10)"><rect/><text style=""><tspan xml:space="preserve" dy="1em" x="0" class="row">technology_bindings</tspan></text></g></g><g class="node default default flowchart-label" id="flowchart-K8S-3" data-node="true" data-id="K8S" transform="translate(743.21875, 1450)"><rect class="basic label-container" style="fill:#fff0f0;stroke:#ad1f2f;stroke-width:2px;" rx="0" ry="0" x="-142.0625" y="-26.5" width="284.125" height="53"/><g class="label" style="" transform="translate(0, -19)"><rect/><text style=""><tspan xml:space="preserve" dy="1em" x="0" class="row">contracts/adapter-hooks.k8s.yaml</tspan><tspan xml:space="preserve" dy="1em" x="0" class="row">K8s pipeline only</tspan></text></g></g><g class="node default default flowchart-label" id="flowchart-LOAD-4" data-node="true" data-id="LOAD" transform="translate(407.609375, 392.5)"><rect class="basic label-container" style="" rx="0" ry="0" x="-112.078125" y="-17.5" width="224.15625" height="35"/><g class="label" style="" transform="translate(0, -10)"><rect/><text style=""><tspan xml:space="preserve" dy="1em" x="0" class="row">plugin_manifest_loader.py</tspan></text></g></g><g class="node default default flowchart-label" id="flowchart-DEF-5" data-node="true" data-id="DEF" transform="translate(743.21875, 392.5)"><rect class="basic label-container" style="fill:#fff7e8;stroke:#9a6b00;stroke-width:2px;" rx="0" ry="0" x="-135.5703125" y="-26.5" width="271.140625" height="53"/><g class="label" style="" transform="translate(0, -19)"><rect/><text style=""><tspan xml:space="preserve" dy="1em" x="0" class="row">AdapterHookDefaults</tspan><tspan xml:space="preserve" dy="1em" x="0" class="row">aliases + class maps + handlers</tspan></text></g></g><g class="node default default flowchart-label" id="flowchart-RES-6" data-node="true" data-id="RES" transform="translate(1086.6015625, 805)"><rect class="basic label-container" style="" rx="0" ry="0" x="-106.5546875" y="-17.5" width="213.109375" height="35"/><g class="label" style="" transform="translate(0, -10)"><rect/><text style=""><tspan xml:space="preserve" dy="1em" x="0" class="row">RuntimeBindingResolver</tspan></text></g></g><g class="node default default flowchart-label" id="flowchart-RT-7" data-node="true" data-id="RT" transform="translate(1470.5078125, 1080)"><rect class="basic label-container" style="" rx="0" ry="0" x="-80.03125" y="-17.5" width="160.0625" height="35"/><g class="label" style="" transform="translate(0, -10)"><rect/><text style=""><tspan xml:space="preserve" dy="1em" x="0" class="row">ControllerRuntime</tspan></text></g></g><g class="node default default flowchart-label" id="flowchart-AF-8" data-node="true" data-id="AF" transform="translate(1086.6015625, 1251)"><rect class="basic label-container" style="fill:#f0fff0;stroke:#2a7a2a;stroke-width:2px;" rx="0" ry="0" x="-81.3828125" y="-26.5" width="162.765625" height="53"/><g class="label" style="" transform="translate(0, -19)"><rect/><text style=""><tspan xml:space="preserve" dy="1em" x="0" class="row">adapter_factory.py</tspan><tspan xml:space="preserve" dy="1em" x="0" class="row">generic registry</tspan></text></g></g><g class="node default default flowchart-label" id="flowchart-OPREG-9" data-node="true" data-id="OPREG" transform="translate(1086.6015625, 1440)"><rect class="basic label-container" style="" rx="0" ry="0" x="-93.046875" y="-17.5" width="186.09375" height="35"/><g class="label" style="" transform="translate(0, -10)"><rect/><text style=""><tspan xml:space="preserve" dy="1em" x="0" class="row">RunnerEventRegistry</tspan></text></g></g></g></g></g></svg>