<svg id="my-svg" width="100%" xmlns="http://www.w3.org/2000/svg" xmlns:xlink="http://www.w3.org/1999/xlink" style="max-width: 970.438px; background-color: white;" viewBox="-8 -12.25 970.4375 227" role="graphics-document document" aria-roledescription="flowchart-v2"><style>#my-svg{font-family:"trebuchet ms",verdana,arial,sans-serif;font-size:18px;fill:#000000;}#my-svg .error-icon{fill:#552222;}#my-svg .error-text{fill:#552222;stroke:#552222;}#my-svg .edge-thickness-normal{stroke-width:2px;}#my-svg .edge-thickness-thick{stroke-width:3.5px;}#my-svg .edge-pattern-solid{stroke-dasharray:0;}#my-svg .edge-pattern-dashed{stroke-dasharray:3;}#my-svg .edge-pattern-dotted{stroke-dasharray:2;}#my-svg .marker{fill:#1f2937;stroke:#1f2937;}#my-svg .marker.cross{stroke:#1f2937;}#my-svg svg{font-family:"trebuchet ms",verdana,arial,sans-serif;font-size:18px;}#my-svg .label{font-family:"trebuchet ms",verdana,arial,sans-serif;color:#000000;}#my-svg .cluster-label text{fill:#333;}#my-svg .cluster-label span,#my-svg p{color:#333;}#my-svg .label text,#my-svg span,#my-svg p{fill:#000000;color:#000000;}#my-svg .node rect,#my-svg .node circle,#my-svg .node ellipse,#my-svg .node polygon,#my-svg .node path{fill:#eee;stroke:#999;stroke-width:1px;}#my-svg .flowchart-label text{text-anchor:middle;}#my-svg .node .katex path{fill:#000;stroke:#000;stroke-width:1px;}#my-svg .node .label{text-align:center;}#my-svg .node.clickable{cursor:pointer;}#my-svg .arrowheadPath{fill:#333333;}#my-svg .edgePath .path{stroke:#1f2937;stroke-width:2.0px;}#my-svg .flowchart-link{stroke:#1f2937;fill:none;}#my-svg .edgeLabel{background-color:white;text-align:center;}#my-svg .edgeLabel rect{opacity:0.5;background-color:white;fill:white;}#my-svg .labelBkg{background-color:rgba(255, 255, 255, 0.5);}#my-svg .cluster rect{fill:#f8fafc;stroke:#334155;stroke-width:1px;}#my-svg .cluster text{fill:#333;}#my-svg .cluster span,#my-svg p{color:#333;}#my-svg div.mermaidTooltip{position:absolute;text-align:center;max-width:200px;padding:2px;font-family:"trebuchet ms",verdana,arial,sans-serif;font-size:12px;background:#fef9c3;border:1px solid #707070;border-radius:2px;pointer-events:none;z-index:100;}#my-svg .flowchartTitleText{text-anchor:middle;font-size:18px;fill:#000000;}#my-svg :root{--mermaid-font-family:"trebuchet ms",verdana,arial,sans-serif;}</style><g><marker id="my-svg_flowchart-pointEnd" class="marker flowchart" viewBox="0 0 10 10" refX="6" refY="5" markerUnits="userSpaceOnUse" markerWidth="12" markerHeight="12" orient="auto"><path d="M 0 0 L 10 5 L 0 10 z" class="arrowMarkerPath" style="stroke-width: 1; stroke-dasharray: 1, 0;"/></marker><marker id="my-svg_flowchart-pointStart" class="marker flowchart" viewBox="0 0 10 10" refX="4.5" refY="5" markerUnits="userSpaceOnUse" markerWidth="12" markerHeight="12" orient="auto"><path d="M 0 5 L 10 10 L 10 0 z" class="arrowMarkerPath" style="stroke-width: 1; stroke-dasharray: 1, 0;"/></marker><marker id="my-svg_flowchart-circleEnd" class="marker flowchart" viewBox="0 0 10 10" refX="11" refY="5" markerUnits="userSpaceOnUse" markerWidth="11" markerHeight="11" orient="auto"><circle cx="5" cy="5" r="5" class="arrowMarkerPath" style="stroke-width: 1; stroke-dasharray: 1, 0;"/></marker><marker id="my-svg_flowchart-circleStart" class="marker flowchart" viewBox="0 0 10 10" refX="-1" refY="5" markerUnits="userSpaceOnUse" markerWidth="11" markerHeight="11" orient="auto"><circle cx="5" cy="5" r="5" class="arrowMarkerPath" style="stroke-width: 1; stroke-dasharray: 1, 0;"/></marker><marker id="my-svg_flowchart-crossEnd" class="marker cross flowchart" viewBox="0 0 11 11" refX="12" refY="5.2" markerUnits="userSpaceOnUse" markerWidth="11" markerHeight="11" orient="auto"><path d="M 1,1 l 9,9 M 10,1 l -9,9" class="arrowMarkerPath" style="stroke-width: 2; stroke-dasharray: 1, 0;"/></marker><marker id="my-svg_flowchart-crossStart" class="marker cross flowchart" viewBox="0 0 11 11" refX="-1" refY="5.2" markerUnits="userSpaceOnUse" markerWidth="11" markerHeight="11" orient="auto"><path d="M 1,1 l 9,9 M 10,1 l -9,9" class="arrowMarkerPath" style="stroke-width: 2; stroke-dasharray: 1, 0;"/></marker><g class="root"><g class="clusters"/><g class="edgePaths"><path d="M209.188,63.182L213.354,62.193C217.521,61.205,225.854,59.227,233.304,58.239C240.754,57.25,247.321,57.25,250.604,57.25L253.888,57.25" id="L-HOME-REQUEST-0" class=" edge-thickness-normal edge-pattern-solid flowchart-link LS-HOME LE-REQUEST" style="fill:none;" marker-end="url(#my-svg_flowchart-pointEnd)"/><path d="M209.188,112.818L213.354,113.807C217.521,114.795,225.854,116.773,244.941,117.761C264.029,118.75,293.87,118.75,323.711,118.75C353.552,118.75,383.393,118.75,427.238,118.75C471.083,118.75,528.932,118.75,586.781,118.75C644.63,118.75,702.479,118.75,738.999,121.627C775.52,124.505,790.711,130.259,798.307,133.137L805.903,136.014" id="L-HOME-PLAY-0" class=" edge-thickness-normal edge-pattern-solid flowchart-link LS-HOME LE-PLAY" style="fill:none;" marker-end="url(#my-svg_flowchart-pointEnd)"/><path d="M141.821,61.5L157.216,50.542C172.61,39.583,203.399,17.667,233.714,6.708C264.029,-4.25,293.87,-4.25,323.711,-4.25C353.552,-4.25,383.393,-4.25,401.611,-3.666C419.828,-3.082,426.422,-1.913,429.719,-1.329L433.016,-0.745" id="L-HOME-OPS-0" class=" edge-thickness-normal edge-pattern-solid flowchart-link LS-HOME LE-OPS" style="fill:none;" marker-end="url(#my-svg_flowchart-pointEnd)"/><path d="M141.821,114.5L157.216,125.458C172.61,136.417,203.399,158.333,233.714,169.292C264.029,180.25,293.87,180.25,323.711,180.25C353.552,180.25,383.393,180.25,414.183,180.25C444.973,180.25,476.711,180.25,492.581,180.25L508.45,180.25" id="L-HOME-HYG-0" class=" edge-thickness-normal edge-pattern-solid flowchart-link LS-HOME LE-HYG" style="fill:none;" marker-end="url(#my-svg_flowchart-pointEnd)"/><path d="M388.234,57.25L392.401,57.25C396.568,57.25,404.901,57.25,412.365,56.666C419.828,56.082,426.422,54.913,429.719,54.329L433.016,53.745" id="L-REQUEST-OPS-0" class=" edge-thickness-normal edge-pattern-solid flowchart-link LS-REQUEST LE-OPS" style="fill:none;" marker-end="url(#my-svg_flowchart-pointEnd)"/><path d="M735.328,26.5L739.495,26.5C743.661,26.5,751.995,26.5,759.445,26.5C766.895,26.5,773.461,26.5,776.745,26.5L780.028,26.5" id="L-OPS-DL-0" class=" edge-thickness-normal edge-pattern-solid flowchart-link LS-OPS LE-DL" style="fill:none;" marker-end="url(#my-svg_flowchart-pointEnd)"/><path d="M621.166,53L644.36,70.875C667.554,88.75,713.941,124.5,744.673,142.375C775.405,160.25,790.482,160.25,798.021,160.25L805.559,160.25" id="L-OPS-PLAY-0" class=" edge-thickness-normal edge-pattern-solid flowchart-link LS-OPS LE-PLAY" style="fill:none;" marker-end="url(#my-svg_flowchart-pointEnd)"/><path d="M659.813,180.25L676.565,180.25C693.318,180.25,726.823,180.25,751.128,178.871C775.434,177.492,790.54,174.735,798.093,173.356L805.646,171.977" id="L-HYG-PLAY-0" class=" edge-thickness-normal edge-pattern-solid flowchart-link LS-HYG LE-PLAY" style="fill:none;" marker-end="url(#my-svg_flowchart-pointEnd)"/></g><g class="edgeLabels"><g class="edgeLabel"><g class="label" transform="translate(0, 0)"><rect rx="0" ry="0" width="0" height="0"/><text style=""><tspan xml:space="preserve" dy="1em" x="0" class="row"/></text></g></g><g class="edgeLabel"><g class="label" transform="translate(0, 0)"><rect rx="0" ry="0" width="0" height="0"/><text style=""><tspan xml:space="preserve" dy="1em" x="0" class="row"/></text></g></g><g class="edgeLabel"><g class="label" transform="translate(0, 0)"><rect rx="0" ry="0" width="0" height="0"/><text style=""><tspan xml:space="preserve" dy="1em" x="0" class="row"/></text></g></g><g class="edgeLabel"><g class="label" transform="translate(0, 0)"><rect rx="0" ry="0" width="0" height="0"/><text style=""><tspan xml:space="preserve" dy="1em" x="0" class="row"/></text></g></g><g class="edgeLabel"><g class="label" transform="translate(0, 0)"><rect rx="0" ry="0" width="0" height="0"/><text style=""><tspan xml:space="preserve" dy="1em" x="0" class="row"/></text></g></g><g class="edgeLabel"><g class="label" transform="translate(0, 0)"><rect rx="0" ry="0" width="0" height="0"/><text style=""><tspan xml:space="preserve" dy="1em" x="0" class="row"/></text></g></g><g class="edgeLabel"><g class="label" transform="translate(0, 0)"><rect rx="0" ry="0" width="0" height="0"/><text style=""><tspan xml:space="preserve" dy="1em" x="0" class="row"/></text></g></g><g class="edgeLabel"><g class="label" transform="translate(0, 0)"><rect rx="0" ry="0" width="0" height="0"/><text style=""><tspan xml:space="preserve" dy="1em" x="0" class="row"/></text></g></g></g><g class="nodes"><g class="node default default flowchart-label" id="flowchart-HOME-0" data-node="true" data-id="HOME" transform="translate(104.59375, 88)"><rect class="basic label-container" style="fill:#fff2cc;stroke:#946200;stroke-width:2px;" rx="0" ry="0" x="-104.59375" y="-26.5" width="209.1875" height="53"/><g class="label" style="" transform="translate(0, -19)"><rect/><text style=""><tspan xml:space="preserve" dy="1em" x="0" class="row">homepage.local</tspan><tspan xml:space="preserve" dy="1em" x="0" class="row">Landing and onboarding</tspan></text></g></g><g class="node default default flowchart-label" id="flowchart-REQUEST-1" data-node="true" data-id="REQUEST" transform="translate(323.7109375, 57.25)"><rect class="basic label-container" style="fill:#ffe0f0;stroke:#8f2f5d;stroke-width:2px;" rx="0" ry="0" x="-64.5234375" y="-26.5" width="129.046875" height="53"/><g class="label" style="" transform="translate(0, -19)"><rect/><text style=""><tspan xml:space="preserve" dy="1em" x="0" class="row">jellyseerr.local</tspan><tspan xml:space="preserve" dy="1em" x="0" class="row">Request UX</tspan></text></g></g><g class="node default default flowchart-label" id="flowchart-PLAY-2" data-node="true" data-id="PLAY" transform="translate(869.8828125, 160.25)"><rect class="basic label-container" style="fill:#dff7ff;stroke:#0b7285;stroke-width:2px;" rx="0" ry="0" x="-59.0234375" y="-26.5" width="118.046875" height="53"/><g class="label" style="" transform="translate(0, -19)"><rect/><text style=""><tspan xml:space="preserve" dy="1em" x="0" class="row">jellyfin.local</tspan><tspan xml:space="preserve" dy="1em" x="0" class="row">Playback UX</tspan></text></g></g><g class="node default default flowchart-label" id="flowchart-OPS-3" data-node="true" data-id="OPS" transform="translate(586.78125, 26.5)"><rect class="basic label-container" style="" rx="0" ry="0" x="-148.546875" y="-26.5" width="297.09375" height="53"/><g class="label" style="" transform="translate(0, -19)"><rect/><text style=""><tspan xml:space="preserve" dy="1em" x="0" class="row">sonarr/radarr/lidarr/readarr/prowlarr</tspan><tspan xml:space="preserve" dy="1em" x="0" class="row">Operator surface</tspan></text></g></g><g class="node default default flowchart-label" id="flowchart-DL-4" data-node="true" data-id="DL" transform="translate(869.8828125, 26.5)"><rect class="basic label-container" style="" rx="0" ry="0" x="-84.5546875" y="-26.5" width="169.109375" height="53"/><g class="label" style="" transform="translate(0, -19)"><rect/><text style=""><tspan xml:space="preserve" dy="1em" x="0" class="row">qbittorrent/sabnzbd</tspan><tspan xml:space="preserve" dy="1em" x="0" class="row">Transport surface</tspan></text></g></g><g class="node default default flowchart-label" id="flowchart-HYG-5" data-node="true" data-id="HYG" transform="translate(586.78125, 180.25)"><rect class="basic label-container" style="fill:#f3f0ff;stroke:#5f3dc4;stroke-width:2px;" rx="0" ry="0" x="-73.03125" y="-26.5" width="146.0625" height="53"/><g class="label" style="" transform="translate(0, -19)"><rect/><text style=""><tspan xml:space="preserve" dy="1em" x="0" class="row">maintainerr.local</tspan><tspan xml:space="preserve" dy="1em" x="0" class="row">Retention UX</tspan></text></g></g></g></g></g></svg>