<svg aria-roledescription="flowchart-v2" role="graphics-document document" viewBox="-8 -12.75 886.828125 223" style="max-width: 886.828px; background-color: white;" xmlns:xlink="http://www.w3.org/1999/xlink" xmlns="http://www.w3.org/2000/svg" width="100%" id="my-svg"><style>#my-svg{font-family:"trebuchet ms",verdana,arial,sans-serif;font-size:16px;fill:#333;}#my-svg .error-icon{fill:#552222;}#my-svg .error-text{fill:#552222;stroke:#552222;}#my-svg .edge-thickness-normal{stroke-width:2px;}#my-svg .edge-thickness-thick{stroke-width:3.5px;}#my-svg .edge-pattern-solid{stroke-dasharray:0;}#my-svg .edge-pattern-dashed{stroke-dasharray:3;}#my-svg .edge-pattern-dotted{stroke-dasharray:2;}#my-svg .marker{fill:#333333;stroke:#333333;}#my-svg .marker.cross{stroke:#333333;}#my-svg svg{font-family:"trebuchet ms",verdana,arial,sans-serif;font-size:16px;}#my-svg .label{font-family:"trebuchet ms",verdana,arial,sans-serif;color:#333;}#my-svg .cluster-label text{fill:#333;}#my-svg .cluster-label span,#my-svg p{color:#333;}#my-svg .label text,#my-svg span,#my-svg p{fill:#333;color:#333;}#my-svg .node rect,#my-svg .node circle,#my-svg .node ellipse,#my-svg .node polygon,#my-svg .node path{fill:#ECECFF;stroke:#9370DB;stroke-width:1px;}#my-svg .flowchart-label text{text-anchor:middle;}#my-svg .node .katex path{fill:#000;stroke:#000;stroke-width:1px;}#my-svg .node .label{text-align:center;}#my-svg .node.clickable{cursor:pointer;}#my-svg .arrowheadPath{fill:#333333;}#my-svg .edgePath .path{stroke:#333333;stroke-width:2.0px;}#my-svg .flowchart-link{stroke:#333333;fill:none;}#my-svg .edgeLabel{background-color:#e8e8e8;text-align:center;}#my-svg .edgeLabel rect{opacity:0.5;background-color:#e8e8e8;fill:#e8e8e8;}#my-svg .labelBkg{background-color:rgba(232, 232, 232, 0.5);}#my-svg .cluster rect{fill:#ffffde;stroke:#aaaa33;stroke-width:1px;}#my-svg .cluster text{fill:#333;}#my-svg .cluster span,#my-svg p{color:#333;}#my-svg div.mermaidTooltip{position:absolute;text-align:center;max-width:200px;padding:2px;font-family:"trebuchet ms",verdana,arial,sans-serif;font-size:12px;background:hsl(80, 100%, 96.2745098039%);border:1px solid #aaaa33;border-radius:2px;pointer-events:none;z-index:100;}#my-svg .flowchartTitleText{text-anchor:middle;font-size:18px;fill:#333;}#my-svg :root{--mermaid-font-family:"trebuchet ms",verdana,arial,sans-serif;}</style><g><marker orient="auto" markerHeight="12" markerWidth="12" markerUnits="userSpaceOnUse" refY="5" refX="6" viewBox="0 0 10 10" class="marker flowchart" id="my-svg_flowchart-pointEnd"><path style="stroke-width: 1; stroke-dasharray: 1, 0;" class="arrowMarkerPath" d="M 0 0 L 10 5 L 0 10 z"/></marker><marker orient="auto" markerHeight="12" markerWidth="12" markerUnits="userSpaceOnUse" refY="5" refX="4.5" viewBox="0 0 10 10" class="marker flowchart" id="my-svg_flowchart-pointStart"><path style="stroke-width: 1; stroke-dasharray: 1, 0;" class="arrowMarkerPath" d="M 0 5 L 10 10 L 10 0 z"/></marker><marker orient="auto" markerHeight="11" markerWidth="11" markerUnits="userSpaceOnUse" refY="5" refX="11" viewBox="0 0 10 10" class="marker flowchart" id="my-svg_flowchart-circleEnd"><circle style="stroke-width: 1; stroke-dasharray: 1, 0;" class="arrowMarkerPath" r="5" cy="5" cx="5"/></marker><marker orient="auto" markerHeight="11" markerWidth="11" markerUnits="userSpaceOnUse" refY="5" refX="-1" viewBox="0 0 10 10" class="marker flowchart" id="my-svg_flowchart-circleStart"><circle style="stroke-width: 1; stroke-dasharray: 1, 0;" class="arrowMarkerPath" r="5" cy="5" cx="5"/></marker><marker orient="auto" markerHeight="11" markerWidth="11" markerUnits="userSpaceOnUse" refY="5.2" refX="12" viewBox="0 0 11 11" class="marker cross flowchart" id="my-svg_flowchart-crossEnd"><path style="stroke-width: 2; stroke-dasharray: 1, 0;" class="arrowMarkerPath" d="M 1,1 l 9,9 M 10,1 l -9,9"/></marker><marker orient="auto" markerHeight="11" markerWidth="11" markerUnits="userSpaceOnUse" refY="5.2" refX="-1" viewBox="0 0 11 11" class="marker cross flowchart" id="my-svg_flowchart-crossStart"><path style="stroke-width: 2; stroke-dasharray: 1, 0;" class="arrowMarkerPath" d="M 1,1 l 9,9 M 10,1 l -9,9"/></marker><g class="root"><g class="clusters"/><g class="edgePaths"><path marker-end="url(#my-svg_flowchart-pointEnd)" style="fill:none;" class="edge-thickness-normal edge-pattern-solid flowchart-link LS-HOME LE-REQUEST" id="L-HOME-REQUEST-0" d="M187.609,62.115L191.776,61.055C195.943,59.994,204.276,57.872,211.726,56.811C219.176,55.75,225.743,55.75,229.026,55.75L232.309,55.75"/><path marker-end="url(#my-svg_flowchart-pointEnd)" style="fill:none;" class="edge-thickness-normal edge-pattern-solid flowchart-link LS-HOME LE-PLAY" id="L-HOME-PLAY-0" d="M187.609,109.885L191.776,110.945C195.943,112.006,204.276,114.128,222.233,115.189C240.19,116.25,267.771,116.25,295.352,116.25C322.932,116.25,350.513,116.25,390.616,116.25C430.719,116.25,483.344,116.25,535.969,116.25C588.594,116.25,641.219,116.25,674.661,119.109C708.102,121.968,722.361,127.686,729.491,130.545L736.62,133.404"/><path marker-end="url(#my-svg_flowchart-pointEnd)" style="fill:none;" class="edge-thickness-normal edge-pattern-solid flowchart-link LS-HOME LE-OPS" id="L-HOME-OPS-0" d="M127.188,60.5L141.425,49.625C155.662,38.75,184.136,17,212.163,6.125C240.19,-4.75,267.771,-4.75,295.352,-4.75C322.932,-4.75,350.513,-4.75,367.603,-4.118C384.692,-3.486,391.29,-2.221,394.589,-1.589L397.888,-0.957"/><path marker-end="url(#my-svg_flowchart-pointEnd)" style="fill:none;" class="edge-thickness-normal edge-pattern-solid flowchart-link LS-HOME LE-HYG" id="L-HOME-HYG-0" d="M127.188,111.5L141.425,122.375C155.662,133.25,184.136,155,212.163,165.875C240.19,176.75,267.771,176.75,295.352,176.75C322.932,176.75,350.513,176.75,378.774,176.75C407.035,176.75,435.977,176.75,450.448,176.75L464.919,176.75"/><path marker-end="url(#my-svg_flowchart-pointEnd)" style="fill:none;" class="edge-thickness-normal edge-pattern-solid flowchart-link LS-REQUEST LE-OPS" id="L-REQUEST-OPS-0" d="M353.094,55.75L357.26,55.75C361.427,55.75,369.76,55.75,377.226,55.118C384.692,54.486,391.29,53.221,394.589,52.589L397.888,51.957"/><path marker-end="url(#my-svg_flowchart-pointEnd)" style="fill:none;" class="edge-thickness-normal edge-pattern-solid flowchart-link LS-OPS LE-DL" id="L-OPS-DL-0" d="M668.844,25.5L673.01,25.5C677.177,25.5,685.51,25.5,692.96,25.5C700.41,25.5,706.977,25.5,710.26,25.5L713.544,25.5"/><path marker-end="url(#my-svg_flowchart-pointEnd)" style="fill:none;" class="edge-thickness-normal edge-pattern-solid flowchart-link LS-OPS LE-PLAY" id="L-OPS-PLAY-0" d="M566.642,51L587.842,68.625C609.042,86.25,651.443,121.5,679.709,139.125C707.976,156.75,722.107,156.75,729.173,156.75L736.239,156.75"/><path marker-end="url(#my-svg_flowchart-pointEnd)" style="fill:none;" class="edge-thickness-normal edge-pattern-solid flowchart-link LS-HYG LE-PLAY" id="L-HYG-PLAY-0" d="M601.719,176.75L617.073,176.75C632.427,176.75,663.135,176.75,685.572,175.347C708.009,173.945,722.175,171.139,729.257,169.737L736.34,168.334"/></g><g class="edgeLabels"><g class="edgeLabel"><g transform="translate(0, 0)" class="label"><foreignObject height="0" width="0"><div style="display: inline-block; white-space: nowrap;" xmlns="http://www.w3.org/1999/xhtml"><span class="edgeLabel"></span></div></foreignObject></g></g><g class="edgeLabel"><g transform="translate(0, 0)" class="label"><foreignObject height="0" width="0"><div style="display: inline-block; white-space: nowrap;" xmlns="http://www.w3.org/1999/xhtml"><span class="edgeLabel"></span></div></foreignObject></g></g><g class="edgeLabel"><g transform="translate(0, 0)" class="label"><foreignObject height="0" width="0"><div style="display: inline-block; white-space: nowrap;" xmlns="http://www.w3.org/1999/xhtml"><span class="edgeLabel"></span></div></foreignObject></g></g><g class="edgeLabel"><g transform="translate(0, 0)" class="label"><foreignObject height="0" width="0"><div style="display: inline-block; white-space: nowrap;" xmlns="http://www.w3.org/1999/xhtml"><span class="edgeLabel"></span></div></foreignObject></g></g><g class="edgeLabel"><g transform="translate(0, 0)" class="label"><foreignObject height="0" width="0"><div style="display: inline-block; white-space: nowrap;" xmlns="http://www.w3.org/1999/xhtml"><span class="edgeLabel"></span></div></foreignObject></g></g><g class="edgeLabel"><g transform="translate(0, 0)" class="label"><foreignObject height="0" width="0"><div style="display: inline-block; white-space: nowrap;" xmlns="http://www.w3.org/1999/xhtml"><span class="edgeLabel"></span></div></foreignObject></g></g><g class="edgeLabel"><g transform="translate(0, 0)" class="label"><foreignObject height="0" width="0"><div style="display: inline-block; white-space: nowrap;" xmlns="http://www.w3.org/1999/xhtml"><span class="edgeLabel"></span></div></foreignObject></g></g><g class="edgeLabel"><g transform="translate(0, 0)" class="label"><foreignObject height="0" width="0"><div style="display: inline-block; white-space: nowrap;" xmlns="http://www.w3.org/1999/xhtml"><span class="edgeLabel"></span></div></foreignObject></g></g></g><g class="nodes"><g transform="translate(93.8046875, 86)" data-id="HOME" data-node="true" id="flowchart-HOME-0" class="node default default flowchart-label"><rect height="51" width="187.609375" y="-25.5" x="-93.8046875" ry="0" rx="0" style="fill:#fff2cc;stroke:#946200;stroke-width:2px;" class="basic label-container"/><g transform="translate(-86.3046875, -18)" style="" class="label"><rect/><foreignObject height="36" width="172.609375"><div style="display: inline-block; white-space: nowrap;" xmlns="http://www.w3.org/1999/xhtml"><span class="nodeLabel">homepage.local<br />Landing and onboarding</span></div></foreignObject></g></g><g transform="translate(295.3515625, 55.75)" data-id="REQUEST" data-node="true" id="flowchart-REQUEST-1" class="node default default flowchart-label"><rect height="51" width="115.484375" y="-25.5" x="-57.7421875" ry="0" rx="0" style="fill:#ffe0f0;stroke:#8f2f5d;stroke-width:2px;" class="basic label-container"/><g transform="translate(-50.2421875, -18)" style="" class="label"><rect/><foreignObject height="36" width="100.484375"><div style="display: inline-block; white-space: nowrap;" xmlns="http://www.w3.org/1999/xhtml"><span class="nodeLabel">jellyseerr.local<br />Request UX</span></div></foreignObject></g></g><g transform="translate(794.8359375, 156.75)" data-id="PLAY" data-node="true" id="flowchart-PLAY-2" class="node default default flowchart-label"><rect height="51" width="106.59375" y="-25.5" x="-53.296875" ry="0" rx="0" style="fill:#dff7ff;stroke:#0b7285;stroke-width:2px;" class="basic label-container"/><g transform="translate(-45.796875, -18)" style="" class="label"><rect/><foreignObject height="36" width="91.59375"><div style="display: inline-block; white-space: nowrap;" xmlns="http://www.w3.org/1999/xhtml"><span class="nodeLabel">jellyfin.local<br />Playback UX</span></div></foreignObject></g></g><g transform="translate(535.96875, 25.5)" data-id="OPS" data-node="true" id="flowchart-OPS-3" class="node default default flowchart-label"><rect height="51" width="265.75" y="-25.5" x="-132.875" ry="0" rx="0" style="" class="basic label-container"/><g transform="translate(-125.375, -18)" style="" class="label"><rect/><foreignObject height="36" width="250.75"><div style="display: inline-block; white-space: nowrap;" xmlns="http://www.w3.org/1999/xhtml"><span class="nodeLabel">sonarr/radarr/lidarr/readarr/prowlarr<br />Operator surface</span></div></foreignObject></g></g><g transform="translate(794.8359375, 25.5)" data-id="DL" data-node="true" id="flowchart-DL-4" class="node default default flowchart-label"><rect height="51" width="151.984375" y="-25.5" x="-75.9921875" ry="0" rx="0" style="" class="basic label-container"/><g transform="translate(-68.4921875, -18)" style="" class="label"><rect/><foreignObject height="36" width="136.984375"><div style="display: inline-block; white-space: nowrap;" xmlns="http://www.w3.org/1999/xhtml"><span class="nodeLabel">qbittorrent/sabnzbd<br />Transport surface</span></div></foreignObject></g></g><g transform="translate(535.96875, 176.75)" data-id="HYG" data-node="true" id="flowchart-HYG-5" class="node default default flowchart-label"><rect height="51" width="131.5" y="-25.5" x="-65.75" ry="0" rx="0" style="fill:#f3f0ff;stroke:#5f3dc4;stroke-width:2px;" class="basic label-container"/><g transform="translate(-58.25, -18)" style="" class="label"><rect/><foreignObject height="36" width="116.5"><div style="display: inline-block; white-space: nowrap;" xmlns="http://www.w3.org/1999/xhtml"><span class="nodeLabel">maintainerr.local<br />Retention UX</span></div></foreignObject></g></g></g></g></g></svg>