<svg id="my-svg" width="100%" xmlns="http://www.w3.org/2000/svg" xmlns:xlink="http://www.w3.org/1999/xlink" style="max-width: 1825.76px; background-color: white;" viewBox="-8 -8 1825.7646484375 1918" role="graphics-document document" aria-roledescription="flowchart-v2"><style>#my-svg{font-family:"trebuchet ms",verdana,arial,sans-serif;font-size:18px;fill:#000000;}#my-svg .error-icon{fill:#552222;}#my-svg .error-text{fill:#552222;stroke:#552222;}#my-svg .edge-thickness-normal{stroke-width:2px;}#my-svg .edge-thickness-thick{stroke-width:3.5px;}#my-svg .edge-pattern-solid{stroke-dasharray:0;}#my-svg .edge-pattern-dashed{stroke-dasharray:3;}#my-svg .edge-pattern-dotted{stroke-dasharray:2;}#my-svg .marker{fill:#1f2937;stroke:#1f2937;}#my-svg .marker.cross{stroke:#1f2937;}#my-svg svg{font-family:"trebuchet ms",verdana,arial,sans-serif;font-size:18px;}#my-svg .label{font-family:"trebuchet ms",verdana,arial,sans-serif;color:#000000;}#my-svg .cluster-label text{fill:#333;}#my-svg .cluster-label span,#my-svg p{color:#333;}#my-svg .label text,#my-svg span,#my-svg p{fill:#000000;color:#000000;}#my-svg .node rect,#my-svg .node circle,#my-svg .node ellipse,#my-svg .node polygon,#my-svg .node path{fill:#eee;stroke:#999;stroke-width:1px;}#my-svg .flowchart-label text{text-anchor:middle;}#my-svg .node .katex path{fill:#000;stroke:#000;stroke-width:1px;}#my-svg .node .label{text-align:center;}#my-svg .node.clickable{cursor:pointer;}#my-svg .arrowheadPath{fill:#333333;}#my-svg .edgePath .path{stroke:#1f2937;stroke-width:2.0px;}#my-svg .flowchart-link{stroke:#1f2937;fill:none;}#my-svg .edgeLabel{background-color:white;text-align:center;}#my-svg .edgeLabel rect{opacity:0.5;background-color:white;fill:white;}#my-svg .labelBkg{background-color:rgba(255, 255, 255, 0.5);}#my-svg .cluster rect{fill:#f8fafc;stroke:#334155;stroke-width:1px;}#my-svg .cluster text{fill:#333;}#my-svg .cluster span,#my-svg p{color:#333;}#my-svg div.mermaidTooltip{position:absolute;text-align:center;max-width:200px;padding:2px;font-family:"trebuchet ms",verdana,arial,sans-serif;font-size:12px;background:#fef9c3;border:1px solid #707070;border-radius:2px;pointer-events:none;z-index:100;}#my-svg .flowchartTitleText{text-anchor:middle;font-size:18px;fill:#000000;}#my-svg :root{--mermaid-font-family:"trebuchet ms",verdana,arial,sans-serif;}</style><g><marker id="my-svg_flowchart-pointEnd" class="marker flowchart" viewBox="0 0 10 10" refX="6" refY="5" markerUnits="userSpaceOnUse" markerWidth="12" markerHeight="12" orient="auto"><path d="M 0 0 L 10 5 L 0 10 z" class="arrowMarkerPath" style="stroke-width: 1; stroke-dasharray: 1, 0;"/></marker><marker id="my-svg_flowchart-pointStart" class="marker flowchart" viewBox="0 0 10 10" refX="4.5" refY="5" markerUnits="userSpaceOnUse" markerWidth="12" markerHeight="12" orient="auto"><path d="M 0 5 L 10 10 L 10 0 z" class="arrowMarkerPath" style="stroke-width: 1; stroke-dasharray: 1, 0;"/></marker><marker id="my-svg_flowchart-circleEnd" class="marker flowchart" viewBox="0 0 10 10" refX="11" refY="5" markerUnits="userSpaceOnUse" markerWidth="11" markerHeight="11" orient="auto"><circle cx="5" cy="5" r="5" class="arrowMarkerPath" style="stroke-width: 1; stroke-dasharray: 1, 0;"/></marker><marker id="my-svg_flowchart-circleStart" class="marker flowchart" viewBox="0 0 10 10" refX="-1" refY="5" markerUnits="userSpaceOnUse" markerWidth="11" markerHeight="11" orient="auto"><circle cx="5" cy="5" r="5" class="arrowMarkerPath" style="stroke-width: 1; stroke-dasharray: 1, 0;"/></marker><marker id="my-svg_flowchart-crossEnd" class="marker cross flowchart" viewBox="0 0 11 11" refX="12" refY="5.2" markerUnits="userSpaceOnUse" markerWidth="11" markerHeight="11" orient="auto"><path d="M 1,1 l 9,9 M 10,1 l -9,9" class="arrowMarkerPath" style="stroke-width: 2; stroke-dasharray: 1, 0;"/></marker><marker id="my-svg_flowchart-crossStart" class="marker cross flowchart" viewBox="0 0 11 11" refX="-1" refY="5.2" markerUnits="userSpaceOnUse" markerWidth="11" markerHeight="11" orient="auto"><path d="M 1,1 l 9,9 M 10,1 l -9,9" class="arrowMarkerPath" style="stroke-width: 2; stroke-dasharray: 1, 0;"/></marker><g class="root"><g class="clusters"><g class="cluster default flowchart-label" id="AUTH"><rect style="" rx="0" ry="0" x="917.4052734375" y="77.75" width="542.21875" height="1794.5"/><g class="cluster-label" transform="translate(1188.5146484375, 77.75)"><text style=""><tspan xml:space="preserve" dy="1em" x="0" class="row">Auth Surface</tspan></text></g></g><g class="cluster default flowchart-label" id="PWA"><rect style="" rx="0" ry="0" x="0" y="805" width="370.1552734375" height="1097"/><g class="cluster-label" transform="translate(185.07763671875, 805)"><text style=""><tspan xml:space="preserve" dy="1em" x="0" class="row">PWA Surface</tspan></text></g></g><g class="cluster default flowchart-label" id="ROUTES"><rect style="" rx="0" ry="0" x="501.2177734375" y="6.25" width="325.15625" height="1795.25"/><g class="cluster-label" transform="translate(663.7958984375, 6.25)"><text style=""><tspan xml:space="preserve" dy="1em" x="0" class="row">SPA Routes - media-stack-ui v1.1.0</tspan></text></g></g><g class="cluster default flowchart-label" id="SHELL"><rect style="" rx="0" ry="0" x="0" y="0" width="370.1552734375" height="785"/><g class="cluster-label" transform="translate(185.07763671875, 0)"><text style=""><tspan xml:space="preserve" dy="1em" x="0" class="row">AppShell + Layout Primitives</tspan></text></g></g></g><g class="edgePaths"><path d="M208.185,1030.75L235.18,999.792C262.175,968.833,316.165,906.917,354.082,875.958C391.999,845,413.843,845,435.687,845C457.53,845,479.374,845,493.579,845C507.784,845,514.351,845,517.634,845L520.918,845" id="L-SHORTCUTS-MI-0" class=" edge-thickness-normal edge-pattern-dotted flowchart-link LS-SHORTCUTS LE-MI" style="fill:none;stroke-width:2px;stroke-dasharray:3;" marker-end="url(#my-svg_flowchart-pointEnd)"/><path d="M345.155,1051.844L349.322,1051.704C353.489,1051.563,361.822,1051.281,376.91,1051.141C391.999,1051,413.843,1051,435.687,1051C457.53,1051,479.374,1051,512.09,1051C544.805,1051,588.393,1051,610.187,1051L631.98,1051" id="L-SHORTCUTS-LOGS-0" class=" edge-thickness-normal edge-pattern-dotted flowchart-link LS-SHORTCUTS LE-LOGS" style="fill:none;stroke-width:2px;stroke-dasharray:3;" marker-end="url(#my-svg_flowchart-pointEnd)"/><path d="M215.029,1083.75L240.883,1106.625C266.738,1129.5,318.447,1175.25,355.223,1198.125C391.999,1221,413.843,1221,435.687,1221C457.53,1221,479.374,1221,510.255,1221C541.136,1221,581.054,1221,601.013,1221L620.972,1221" id="L-SHORTCUTS-ROUTING-0" class=" edge-thickness-normal edge-pattern-dotted flowchart-link LS-SHORTCUTS LE-ROUTING" style="fill:none;stroke-width:2px;stroke-dasharray:3;" marker-end="url(#my-svg_flowchart-pointEnd)"/><path d="M1229.562,942L1233.728,942C1237.895,942,1246.228,942,1257.901,938.23C1269.574,934.46,1284.586,926.919,1292.092,923.149L1299.598,919.379" id="L-FETCH-EXTAUTHZ-0" class=" edge-thickness-normal edge-pattern-solid flowchart-link LS-FETCH LE-EXTAUTHZ" style="fill:none;" marker-end="url(#my-svg_flowchart-pointEnd)"/><path d="M1153.507,139.25L1170.349,139.25C1187.192,139.25,1220.877,139.25,1254.085,259.166C1287.294,379.083,1320.027,618.916,1336.393,738.832L1352.759,858.749" id="L-AUTHELIA-EXTAUTHZ-0" class=" edge-thickness-normal edge-pattern-solid flowchart-link LS-AUTHELIA LE-EXTAUTHZ" style="fill:none;" marker-end="url(#my-svg_flowchart-pointEnd)"/><path d="M1434.624,890.5L1438.791,890.5C1442.957,890.5,1451.291,890.5,1464.46,890.5C1477.629,890.5,1495.634,890.5,1512.756,890.5C1529.878,890.5,1546.117,890.5,1554.236,890.5L1562.355,890.5" id="L-EXTAUTHZ-BACKEND-0" class=" edge-thickness-normal edge-pattern-solid flowchart-link LS-EXTAUTHZ LE-BACKEND" style="fill:none;" marker-end="url(#my-svg_flowchart-pointEnd)"/><path d="M267.109,1831.5L284.283,1831.5C301.458,1831.5,335.806,1831.5,363.903,1831.5C391.999,1831.5,413.843,1831.5,435.687,1831.5C457.53,1831.5,479.374,1831.5,517.392,1831.5C555.41,1831.5,609.603,1831.5,663.796,1831.5C717.989,1831.5,772.181,1831.5,806.864,1831.5C841.546,1831.5,856.718,1831.5,871.89,1831.5C887.062,1831.5,902.233,1831.5,936.914,1688.535C971.595,1545.569,1025.785,1259.638,1052.879,1116.673L1079.974,973.707" id="L-SW-FETCH-0" class=" edge-thickness-normal edge-pattern-dotted flowchart-link LS-SW LE-FETCH" style="fill:none;stroke-width:2px;stroke-dasharray:3;" marker-end="url(#my-svg_flowchart-pointEnd)"/><path d="M370.155,307.5L381.077,307.5C391.999,307.5,413.843,307.5,434.803,307.5C455.764,307.5,475.841,307.5,485.879,307.5L495.918,307.5" id="L-SHELL-ROUTES-0" class=" edge-thickness-normal edge-pattern-solid flowchart-link LS-SHELL LE-ROUTES" style="fill:none;" marker-end="url(#my-svg_flowchart-pointEnd)"/><path d="M327.375,52.5L334.505,52.5C341.635,52.5,355.895,52.5,373.947,52.5C391.999,52.5,413.843,52.5,434.803,52.5C455.764,52.5,475.841,52.5,485.879,52.5L495.918,52.5" id="L-CMDK-ROUTES-0" class=" edge-thickness-normal edge-pattern-dotted flowchart-link LS-CMDK LE-ROUTES" style="fill:none;stroke-width:2px;stroke-dasharray:3;" marker-end="url(#my-svg_flowchart-pointEnd)"/><path d="M826.374,180L833.96,180C841.546,180,856.718,180,871.89,180C887.062,180,902.233,180,936.748,301.721C971.262,423.442,1025.119,666.883,1052.047,788.604L1078.976,910.325" id="L-ROUTES-FETCH-0" class=" edge-thickness-normal edge-pattern-solid flowchart-link LS-ROUTES LE-FETCH" style="fill:none;" marker-end="url(#my-svg_flowchart-pointEnd)"/></g><g class="edgeLabels"><g class="edgeLabel" transform="translate(435.6865234375, 845)"><g class="label" transform="translate(-40.53125, -10)"><rect rx="0" ry="0" width="80.99156951904297" height="20.00032615661621"/><text style=""><tspan xml:space="preserve" dy="1em" x="0" class="row">deep links</tspan></text></g></g><g class="edgeLabel" transform="translate(435.6865234375, 1051)"><g class="label" transform="translate(-40.53125, -10)"><rect rx="0" ry="0" width="80.99156951904297" height="20.00032615661621"/><text style=""><tspan xml:space="preserve" dy="1em" x="0" class="row">deep links</tspan></text></g></g><g class="edgeLabel" transform="translate(435.6865234375, 1221)"><g class="label" transform="translate(-40.53125, -10)"><rect rx="0" ry="0" width="80.99156951904297" height="20.00032615661621"/><text style=""><tspan xml:space="preserve" dy="1em" x="0" class="row">deep links</tspan></text></g></g><g class="edgeLabel"><g class="label" transform="translate(0, 0)"><rect rx="0" ry="0" width="0" height="0"/><text style=""><tspan xml:space="preserve" dy="1em" x="0" class="row"/></text></g></g><g class="edgeLabel"><g class="label" transform="translate(0, 0)"><rect rx="0" ry="0" width="0" height="0"/><text style=""><tspan xml:space="preserve" dy="1em" x="0" class="row"/></text></g></g><g class="edgeLabel" transform="translate(1513.6396484375, 890.5)"><g class="label" transform="translate(-29.015625, -10)"><rect rx="0" ry="0" width="57.985321044921875" height="20.00032615661621"/><text style=""><tspan xml:space="preserve" dy="1em" x="0" class="row">verified</tspan></text></g></g><g class="edgeLabel" transform="translate(663.7958984375, 1831.5)"><g class="label" transform="translate(-39.0234375, -10)"><rect rx="0" ry="0" width="77.98564910888672" height="20.00032615661621"/><text style=""><tspan xml:space="preserve" dy="1em" x="0" class="row">intercepts</tspan></text></g></g><g class="edgeLabel"><g class="label" transform="translate(0, 0)"><rect rx="0" ry="0" width="0" height="0"/><text style=""><tspan xml:space="preserve" dy="1em" x="0" class="row"/></text></g></g><g class="edgeLabel" transform="translate(414.29614, 52.5)"><g class="label" transform="translate(-38.0234375, -10)"><rect rx="0" ry="0" width="75.9860610961914" height="20.00032615661621"/><text style=""><tspan xml:space="preserve" dy="1em" x="0" class="row">quick nav</tspan></text></g></g><g class="edgeLabel" transform="translate(988.93127, 503.30893)"><g class="label" transform="translate(-20.515625, -10)"><rect rx="0" ry="0" width="41.00067138671875" height="20.00032615661621"/><text style=""><tspan xml:space="preserve" dy="1em" x="0" class="row">/api/*</tspan></text></g></g></g><g class="nodes"><g class="node default default flowchart-label" id="flowchart-AUTHELIA-24" data-node="true" data-id="AUTHELIA" transform="translate(1085.9833984375, 139.25)"><rect class="basic label-container" style="" rx="0" ry="0" x="-67.5234375" y="-26.5" width="135.046875" height="53"/><g class="label" style="" transform="translate(0, -19)"><rect/><text style=""><tspan xml:space="preserve" dy="1em" x="0" class="row">Authelia</tspan><tspan xml:space="preserve" dy="1em" x="0" class="row">(issues cookie)</tspan></text></g></g><g class="node default default flowchart-label" id="flowchart-EXTAUTHZ-25" data-node="true" data-id="EXTAUTHZ" transform="translate(1357.0927734375, 890.5)"><rect class="basic label-container" style="" rx="0" ry="0" x="-77.53125" y="-26.5" width="155.0625" height="53"/><g class="label" style="" transform="translate(0, -19)"><rect/><text style=""><tspan xml:space="preserve" dy="1em" x="0" class="row">Envoy ext_authz</tspan><tspan xml:space="preserve" dy="1em" x="0" class="row">(validates cookie)</tspan></text></g></g><g class="node default default flowchart-label" id="flowchart-FETCH-26" data-node="true" data-id="FETCH" transform="translate(1085.9833984375, 942)"><rect class="basic label-container" style="" rx="0" ry="0" x="-143.578125" y="-26.5" width="287.15625" height="53"/><g class="label" style="" transform="translate(0, -19)"><rect/><text style=""><tspan xml:space="preserve" dy="1em" x="0" class="row">fetch credentials: same-origin</tspan><tspan xml:space="preserve" dy="1em" x="0" class="row">(no client tokens, no localStorage)</tspan></text></g></g><g class="node default default flowchart-label" id="flowchart-INSTALL-21" data-node="true" data-id="INSTALL" transform="translate(185.07763671875, 857.5)"><rect class="basic label-container" style="" rx="0" ry="0" x="-62.5234375" y="-17.5" width="125.046875" height="35"/><g class="label" style="" transform="translate(0, -10)"><rect/><text style=""><tspan xml:space="preserve" dy="1em" x="0" class="row">Install Prompt</tspan></text></g></g><g class="node default default flowchart-label" id="flowchart-SW-22" data-node="true" data-id="SW" transform="translate(185.07763671875, 1831.5)"><rect class="basic label-container" style="" rx="0" ry="0" x="-82.03125" y="-35.5" width="164.0625" height="71"/><g class="label" style="" transform="translate(0, -28)"><rect/><text style=""><tspan xml:space="preserve" dy="1em" x="0" class="row">Service Worker</tspan><tspan xml:space="preserve" dy="1em" x="0" class="row">NetworkOnly /api/*</tspan><tspan xml:space="preserve" dy="1em" x="0" class="row">CacheFirst Geist</tspan></text></g></g><g class="node default default flowchart-label" id="flowchart-SHORTCUTS-23" data-node="true" data-id="SHORTCUTS" transform="translate(185.07763671875, 1057.25)"><rect class="basic label-container" style="" rx="0" ry="0" x="-160.07763671875" y="-26.5" width="320.1552734375" height="53"/><g class="label" style="" transform="translate(0, -19)"><rect/><text style=""><tspan xml:space="preserve" dy="1em" x="0" class="row">3 Manifest Shortcuts:</tspan><tspan xml:space="preserve" dy="1em" x="0" class="row">Media Integrity / Logs / Reconcile now</tspan></text></g></g><g class="node default default flowchart-label" id="flowchart-HOME-9" data-node="true" data-id="HOME" transform="translate(663.7958984375, 180)"><rect class="basic label-container" style="fill:#fff2cc;stroke:#946200;stroke-width:2px;" rx="0" ry="0" x="-86.546875" y="-17.5" width="173.09375" height="35"/><g class="label" style="" transform="translate(0, -10)"><rect/><text style=""><tspan xml:space="preserve" dy="1em" x="0" class="row">/ Home / dashboard</tspan></text></g></g><g class="node default default flowchart-label" id="flowchart-MI-10" data-node="true" data-id="MI" transform="translate(663.7958984375, 845)"><rect class="basic label-container" style="fill:#ffe0f0;stroke:#8f2f5d;stroke-width:2px;" rx="0" ry="0" x="-137.578125" y="-53.5" width="275.15625" height="107"/><g class="label" style="" transform="translate(0, -46)"><rect/><text style=""><tspan xml:space="preserve" dy="1em" x="0" class="row">/media-integrity</tspan><tspan xml:space="preserve" dy="1em" x="0" class="row">StatusOverview, AdapterTable,</tspan><tspan xml:space="preserve" dy="1em" x="0" class="row">NeedsReviewPanel,</tspan><tspan xml:space="preserve" dy="1em" x="0" class="row">ReconcileButton, EnforceButton,</tspan><tspan xml:space="preserve" dy="1em" x="0" class="row">ProgressBar shimmer</tspan></text></g></g><g class="node default default flowchart-label" id="flowchart-CONTENT-11" data-node="true" data-id="CONTENT" transform="translate(663.7958984375, 966)"><rect class="basic label-container" style="" rx="0" ry="0" x="-39.5234375" y="-17.5" width="79.046875" height="35"/><g class="label" style="" transform="translate(0, -10)"><rect/><text style=""><tspan xml:space="preserve" dy="1em" x="0" class="row">/content</tspan></text></g></g><g class="node default default flowchart-label" id="flowchart-LOGS-12" data-node="true" data-id="LOGS" transform="translate(663.7958984375, 1051)"><rect class="basic label-container" style="fill:#dff7ff;stroke:#0b7285;stroke-width:2px;" rx="0" ry="0" x="-26.515625" y="-17.5" width="53.03125" height="35"/><g class="label" style="" transform="translate(0, -10)"><rect/><text style=""><tspan xml:space="preserve" dy="1em" x="0" class="row">/logs</tspan></text></g></g><g class="node default default flowchart-label" id="flowchart-OPS-13" data-node="true" data-id="OPS" transform="translate(663.7958984375, 1136)"><rect class="basic label-container" style="" rx="0" ry="0" x="-24.515625" y="-17.5" width="49.03125" height="35"/><g class="label" style="" transform="translate(0, -10)"><rect/><text style=""><tspan xml:space="preserve" dy="1em" x="0" class="row">/ops</tspan></text></g></g><g class="node default default flowchart-label" id="flowchart-ROUTING-14" data-node="true" data-id="ROUTING" transform="translate(663.7958984375, 1221)"><rect class="basic label-container" style="fill:#f3f0ff;stroke:#5f3dc4;stroke-width:2px;" rx="0" ry="0" x="-37.5234375" y="-17.5" width="75.046875" height="35"/><g class="label" style="" transform="translate(0, -10)"><rect/><text style=""><tspan xml:space="preserve" dy="1em" x="0" class="row">/routing</tspan></text></g></g><g class="node default default flowchart-label" id="flowchart-HOOKS-15" data-node="true" data-id="HOOKS" transform="translate(663.7958984375, 1306)"><rect class="basic label-container" style="" rx="0" ry="0" x="-50.53125" y="-17.5" width="101.0625" height="35"/><g class="label" style="" transform="translate(0, -10)"><rect/><text style=""><tspan xml:space="preserve" dy="1em" x="0" class="row">/webhooks</tspan></text></g></g><g class="node default default flowchart-label" id="flowchart-USERS-16" data-node="true" data-id="USERS" transform="translate(663.7958984375, 1391)"><rect class="basic label-container" style="" rx="0" ry="0" x="-32.015625" y="-17.5" width="64.03125" height="35"/><g class="label" style="" transform="translate(0, -10)"><rect/><text style=""><tspan xml:space="preserve" dy="1em" x="0" class="row">/users</tspan></text></g></g><g class="node default default flowchart-label" id="flowchart-ME-17" data-node="true" data-id="ME" transform="translate(663.7958984375, 1476)"><rect class="basic label-container" style="" rx="0" ry="0" x="-22.5078125" y="-17.5" width="45.015625" height="35"/><g class="label" style="" transform="translate(0, -10)"><rect/><text style=""><tspan xml:space="preserve" dy="1em" x="0" class="row">/me</tspan></text></g></g><g class="node default default flowchart-label" id="flowchart-PROFILE-18" data-node="true" data-id="PROFILE" transform="translate(663.7958984375, 1561)"><rect class="basic label-container" style="" rx="0" ry="0" x="-89.546875" y="-17.5" width="179.09375" height="35"/><g class="label" style="" transform="translate(0, -10)"><rect/><text style=""><tspan xml:space="preserve" dy="1em" x="0" class="row">/profile (placeholder)</tspan></text></g></g><g class="node default default flowchart-label" id="flowchart-SETTINGS-19" data-node="true" data-id="SETTINGS" transform="translate(663.7958984375, 1646)"><rect class="basic label-container" style="" rx="0" ry="0" x="-96.046875" y="-17.5" width="192.09375" height="35"/><g class="label" style="" transform="translate(0, -10)"><rect/><text style=""><tspan xml:space="preserve" dy="1em" x="0" class="row">/settings (placeholder)</tspan></text></g></g><g class="node default default flowchart-label" id="flowchart-NF-20" data-node="true" data-id="NF" transform="translate(663.7958984375, 1740)"><rect class="basic label-container" style="fill:#fde2e2;stroke:#9b1c1c;stroke-width:2px;" rx="0" ry="0" x="-135.5556640625" y="-26.5" width="271.111328125" height="53"/><g class="label" style="" transform="translate(0, -19)"><rect/><text style=""><tspan xml:space="preserve" dy="1em" x="0" class="row">$ 404 catchall</tspan><tspan xml:space="preserve" dy="1em" x="0" class="row">Lost your way / Go home / Back</tspan></text></g></g><g class="node default default flowchart-label" id="flowchart-TOPBAR-0" data-node="true" data-id="TOPBAR" transform="translate(185.07763671875, 307.5)"><rect class="basic label-container" style="" rx="0" ry="0" x="-36.0234375" y="-17.5" width="72.046875" height="35"/><g class="label" style="" transform="translate(0, -10)"><rect/><text style=""><tspan xml:space="preserve" dy="1em" x="0" class="row">TopBar</tspan></text></g></g><g class="node default default flowchart-label" id="flowchart-SIDE-1" data-node="true" data-id="SIDE" transform="translate(185.07763671875, 137.5)"><rect class="basic label-container" style="" rx="0" ry="0" x="-72.53125" y="-17.5" width="145.0625" height="35"/><g class="label" style="" transform="translate(0, -10)"><rect/><text style=""><tspan xml:space="preserve" dy="1em" x="0" class="row">Sidebar (&gt;= md)</tspan></text></g></g><g class="node default default flowchart-label" id="flowchart-BNAV-2" data-node="true" data-id="BNAV" transform="translate(185.07763671875, 222.5)"><rect class="basic label-container" style="" rx="0" ry="0" x="-93.2734375" y="-17.5" width="186.546875" height="35"/><g class="label" style="" transform="translate(0, -10)"><rect/><text style=""><tspan xml:space="preserve" dy="1em" x="0" class="row">BottomNav (&amp;lt;= sm)</tspan></text></g></g><g class="node default default flowchart-label" id="flowchart-CMDK-3" data-node="true" data-id="CMDK" transform="translate(185.07763671875, 52.5)"><rect class="basic label-container" style="" rx="0" ry="0" x="-142.296875" y="-17.5" width="284.59375" height="35"/><g class="label" style="" transform="translate(0, -10)"><rect/><text style=""><tspan xml:space="preserve" dy="1em" x="0" class="row">CommandPalette (Cmd+K, cmdk)</tspan></text></g></g><g class="node default default flowchart-label" id="flowchart-USRMENU-4" data-node="true" data-id="USRMENU" transform="translate(185.07763671875, 392.5)"><rect class="basic label-container" style="" rx="0" ry="0" x="-49.015625" y="-17.5" width="98.03125" height="35"/><g class="label" style="" transform="translate(0, -10)"><rect/><text style=""><tspan xml:space="preserve" dy="1em" x="0" class="row">UserMenu</tspan></text></g></g><g class="node default default flowchart-label" id="flowchart-EBOUND-5" data-node="true" data-id="EBOUND" transform="translate(185.07763671875, 477.5)"><rect class="basic label-container" style="" rx="0" ry="0" x="-66.03125" y="-17.5" width="132.0625" height="35"/><g class="label" style="" transform="translate(0, -10)"><rect/><text style=""><tspan xml:space="preserve" dy="1em" x="0" class="row">ErrorBoundary</tspan></text></g></g><g class="node default default flowchart-label" id="flowchart-SKEL-6" data-node="true" data-id="SKEL" transform="translate(185.07763671875, 562.5)"><rect class="basic label-container" style="" rx="0" ry="0" x="-126.078125" y="-17.5" width="252.15625" height="35"/><g class="label" style="" transform="translate(0, -10)"><rect/><text style=""><tspan xml:space="preserve" dy="1em" x="0" class="row">SkeletonCard / SkeletonTable</tspan></text></g></g><g class="node default default flowchart-label" id="flowchart-CONN-7" data-node="true" data-id="CONN" transform="translate(185.07763671875, 647.5)"><rect class="basic label-container" style="" rx="0" ry="0" x="-78.546875" y="-17.5" width="157.09375" height="35"/><g class="label" style="" transform="translate(0, -10)"><rect/><text style=""><tspan xml:space="preserve" dy="1em" x="0" class="row">ConnectionStatus</tspan></text></g></g><g class="node default default flowchart-label" id="flowchart-PULL-8" data-node="true" data-id="PULL" transform="translate(185.07763671875, 732.5)"><rect class="basic label-container" style="" rx="0" ry="0" x="-63.53125" y="-17.5" width="127.0625" height="35"/><g class="label" style="" transform="translate(0, -10)"><rect/><text style=""><tspan xml:space="preserve" dy="1em" x="0" class="row">PullToRefresh</tspan></text></g></g><g class="node default default flowchart-label" id="flowchart-BACKEND-44" label-offset-y="16.487550542668654" data-node="true" data-id="BACKEND" transform="translate(1688.7099609375, 890.5)"><path style="fill:#eef2ff;stroke:#1f2937;stroke-width:2px;" d="M 0,16.487550542668654 a 121.0546875,16.487550542668654 0,0,0 242.109375 0 a 121.0546875,16.487550542668654 0,0,0 -242.109375 0 l 0,51.48755054266866 a 121.0546875,16.487550542668654 0,0,0 242.109375 0 l 0,-51.48755054266866" transform="translate(-121.0546875,-42.231325814002986)"/><g class="label" style="" transform="translate(0, -10)"><rect/><text style=""><tspan xml:space="preserve" dy="1em" x="0" class="row">media-stack-controller :9100</tspan></text></g></g></g></g></g></svg>