<svg width="840" height="700" viewBox="0 0 840 700" fill="none" xmlns="http://www.w3.org/2000/svg">
  <defs>
    <linearGradient id="space" x1="0" y1="0" x2="840" y2="700" gradientUnits="userSpaceOnUse">
      <stop stop-color="#101A2F"/>
      <stop offset="1" stop-color="#1F3558"/>
    </linearGradient>
    <linearGradient id="ring" x1="200" y1="200" x2="640" y2="520" gradientUnits="userSpaceOnUse">
      <stop stop-color="#33D9B2"/>
      <stop offset="0.5" stop-color="#FFBE0B"/>
      <stop offset="1" stop-color="#FF6B6B"/>
    </linearGradient>
    <filter id="glow" x="0" y="0" width="840" height="700" filterUnits="userSpaceOnUse" color-interpolation-filters="sRGB">
      <feGaussianBlur stdDeviation="8" result="blur"/>
      <feBlend in="SourceGraphic" in2="blur" mode="screen"/>
    </filter>
  </defs>

  <rect width="840" height="700" rx="36" fill="url(#space)"/>

  <g opacity="0.65">
    <circle cx="84" cy="90" r="2.6" fill="#E9F5FF"/>
    <circle cx="170" cy="128" r="1.8" fill="#E9F5FF"/>
    <circle cx="280" cy="88" r="2.2" fill="#E9F5FF"/>
    <circle cx="680" cy="120" r="1.9" fill="#E9F5FF"/>
    <circle cx="735" cy="170" r="2.8" fill="#E9F5FF"/>
    <circle cx="770" cy="300" r="2.1" fill="#E9F5FF"/>
    <circle cx="706" cy="500" r="2.4" fill="#E9F5FF"/>
    <circle cx="640" cy="590" r="1.9" fill="#E9F5FF"/>
    <circle cx="180" cy="560" r="2.5" fill="#E9F5FF"/>
    <circle cx="92" cy="470" r="1.7" fill="#E9F5FF"/>
  </g>

  <g filter="url(#glow)">
    <ellipse cx="420" cy="360" rx="220" ry="138" transform="rotate(-16 420 360)" stroke="url(#ring)" stroke-width="14"/>
    <ellipse cx="420" cy="360" rx="166" ry="102" transform="rotate(18 420 360)" stroke="url(#ring)" stroke-width="8" opacity="0.72"/>
  </g>

  <g>
    <circle cx="310" cy="335" r="72" fill="#09111E" stroke="#33D9B2" stroke-width="8"/>
    <rect x="292" y="290" width="18" height="88" rx="9" fill="#FFBE0B"/>
    <circle cx="301" cy="275" r="11" fill="#FF6B6B"/>
  </g>

  <g>
    <circle cx="532" cy="380" r="90" fill="#09111E" stroke="#FF6B6B" stroke-width="10"/>
    <circle cx="532" cy="380" r="46" fill="#1D2D44" stroke="#33D9B2" stroke-width="6"/>
  </g>

  <g opacity="0.9">
    <path d="M138 608c58-54 122-50 191-16" stroke="#33D9B2" stroke-width="5" stroke-linecap="round"/>
    <path d="M511 104c52 8 99 42 131 94" stroke="#FFBE0B" stroke-width="5" stroke-linecap="round"/>
  </g>
</svg>
